<svg xmlns="http://www.w3.org/2000/svg" width="58" height="16"><g><path fill="#68A611" fill-rule="evenodd" d="M10.5 7H8V4.5c0-.3-.2-.5-.5-.5s-.5.2-.5.5V7H4.5c-.3 0-.5.2-.5.5s.2.5.5.5H7v2.5c0 .3.2.5.5.5s.5-.2.5-.5V8h2.5c.3 0 .5-.2.5-.5s-.2-.5-.5-.5zm-3-7C3.4 0 0 3.4 0 7.5 0 11.7 3.4 15 7.5 15S15 11.6 15 7.5 11.6 0 7.5 0zm0 14C3.9 14 1 11.1 1 7.5S3.9 1 7.5 1 14 3.9 14 7.5 11.1 14 7.5 14z" clip-rule="evenodd"/><path fill="#C8C8C8" fill-rule="evenodd" d="M31.5 7H29V4.5c0-.3-.2-.5-.5-.5s-.5.2-.5.5V7h-2.5c-.3 0-.5.2-.5.5s.2.5.5.5H28v2.5c0 .3.2.5.5.5s.5-.2.5-.5V8h2.5c.3 0 .5-.2.5-.5s-.2-.5-.5-.5zm-3-7C24.4 0 21 3.4 21 7.5s3.4 7.5 7.5 7.5S36 11.6 36 7.5 32.6 0 28.5 0zm0 14c-3.6 0-6.5-2.9-6.5-6.5S24.9 1 28.5 1 35 3.9 35 7.5 32.1 14 28.5 14z" clip-rule="evenodd"/><path fill="#8EC928" fill-rule="evenodd" d="M52.5 7H50V4.5c0-.3-.2-.5-.5-.5s-.5.2-.5.5V7h-2.5c-.3 0-.5.2-.5.5s.2.5.5.5H49v2.5c0 .3.2.5.5.5s.5-.2.5-.5V8h2.5c.3 0 .5-.2.5-.5s-.2-.5-.5-.5zm-3-7C45.4 0 42 3.4 42 7.5s3.4 7.5 7.5 7.5S57 11.6 57 7.5 53.6 0 49.5 0zm0 14c-3.6 0-6.5-2.9-6.5-6.5S45.9 1 49.5 1 56 3.9 56 7.5 53.1 14 49.5 14z" clip-rule="evenodd"/></g></svg>