<svg xmlns="http://www.w3.org/2000/svg" width="58" height="16"><g><path fill="#0089D9" fill-rule="evenodd" d="M7.4 0C3.3 0-.1 3.4-.1 7.5S3.3 15 7.4 15s7.5-3.4 7.5-7.5S11.6 0 7.4 0zm0 14C3.8 14 .9 11.1.9 7.5S3.8 1 7.4 1s6.5 2.9 6.5 6.5S11 14 7.4 14zm.5-8.9C7.8 5 7.6 5 7.5 5c-.1 0-.3 0-.4.1L3.9 8.4c-.2.2-.2.5 0 .7.2.2.5.2.7 0l2.9-2.9 2.9 2.9c.2.2.5.2.7 0 .2-.2.2-.5 0-.7L7.9 5.1z" clip-rule="evenodd"/><path fill="#C8C8C8" fill-rule="evenodd" d="M28.5 0C24.4 0 21 3.4 21 7.5s3.4 7.5 7.5 7.5S36 11.6 36 7.5 32.6 0 28.5 0zm0 14c-3.6 0-6.5-2.9-6.5-6.5S24.9 1 28.5 1 35 3.9 35 7.5 32.1 14 28.5 14zm.4-8.9c-.1-.1-.2-.1-.3-.1-.1 0-.3 0-.4.1L25 8.4c-.2.2-.2.5 0 .7.2.2.5.2.7 0l2.9-2.9 2.9 2.9c.2.2.5.2.7 0 .2-.2.2-.5 0-.7l-3.3-3.3z" clip-rule="evenodd"/><path fill="#39A6E6" fill-rule="evenodd" d="M49.5 0C45.4 0 42 3.4 42 7.5s3.4 7.5 7.5 7.5S57 11.6 57 7.5 53.6 0 49.5 0zm0 14c-3.6 0-6.5-2.9-6.5-6.5S45.9 1 49.5 1 56 3.9 56 7.5 53.1 14 49.5 14zm.4-8.9c-.1-.1-.2-.1-.3-.1-.1 0-.3 0-.4.1L46 8.4c-.2.2-.2.5 0 .7.2.2.5.2.7 0l2.9-2.9 2.9 2.9c.2.2.5.2.7 0 .2-.2.2-.5 0-.7l-3.3-3.3z" clip-rule="evenodd"/></g></svg>