<svg xmlns="http://www.w3.org/2000/svg" width="58" height="16"><g><path fill="#0089D9" fill-rule="evenodd" d="M14.9 7.5c0-4.1-3.4-7.5-7.5-7.5S-.1 3.3-.1 7.5c0 4.1 3.4 7.5 7.5 7.5 4.2 0 7.5-3.4 7.5-7.5zm-1 0c0 3.6-2.9 6.5-6.5 6.5S.9 11.1.9 7.5 3.8 1 7.4 1s6.5 2.9 6.5 6.5zm-2.8-.9c.2-.2.2-.5 0-.7-.2-.2-.5-.2-.7 0L7.5 8.8 4.6 5.9c-.2-.2-.5-.2-.7 0-.2.2-.2.5 0 .7l3.2 3.2c.1.2.3.2.4.2.1 0 .3 0 .4-.1l3.2-3.3z" clip-rule="evenodd"/><path fill="#C8C8C8" fill-rule="evenodd" d="M28.5 0C24.4 0 21 3.3 21 7.5c0 4.1 3.4 7.5 7.5 7.5S36 11.6 36 7.5C36 3.3 32.6 0 28.5 0zm0 14c-3.6 0-6.5-2.9-6.5-6.5S24.9 1 28.5 1 35 3.9 35 7.5 32.1 14 28.5 14zm3-8.1l-2.9 2.9-2.9-2.9c-.2-.2-.5-.2-.7 0-.2.2-.2.5 0 .7l3.2 3.2c.1.1.2.1.4.1.1 0 .3 0 .4-.1l3.2-3.2c.2-.2.2-.5 0-.7-.2-.2-.5-.2-.7 0z" clip-rule="evenodd"/><path fill="#39A6E6" fill-rule="evenodd" d="M49.5 0C45.4 0 42 3.3 42 7.5c0 4.1 3.4 7.5 7.5 7.5S57 11.6 57 7.5C57 3.3 53.6 0 49.5 0zm0 14c-3.6 0-6.5-2.9-6.5-6.5S45.9 1 49.5 1 56 3.9 56 7.5 53.1 14 49.5 14zm3-8.1l-2.9 2.9-2.9-2.9c-.2-.2-.5-.2-.7 0-.2.2-.2.5 0 .7l3.2 3.2c.1.1.2.1.4.1.1 0 .3 0 .4-.1l3.2-3.2c.2-.2.2-.5 0-.7-.2-.2-.5-.2-.7 0z" clip-rule="evenodd"/></g></svg>