<svg xmlns="http://www.w3.org/2000/svg" width="58" height="16"><g><path fill="#39A6E6" fill-rule="evenodd" d="M49.5 0C45.3 0 42 3.4 42 7.5s3.4 7.5 7.5 7.5S57 11.6 57 7.5 53.6 0 49.5 0zm0 14c-3.6 0-6.5-2.9-6.5-6.5S45.9 1 49.5 1 56 3.9 56 7.5 53.1 14 49.5 14zm2.4-6.8L48.6 4c-.2-.2-.5-.2-.7 0-.2.2-.2.5 0 .7l2.9 2.9-2.9 2.9c-.2.2-.2.5 0 .7.2.2.5.2.7 0L51.8 8c.2-.2.2-.3.2-.4 0-.2 0-.3-.1-.4z" clip-rule="evenodd"/><path fill="#C8C8C8" fill-rule="evenodd" d="M28.4 0c-4.1 0-7.5 3.4-7.5 7.5s3.4 7.5 7.5 7.5 7.5-3.4 7.5-7.5S32.6 0 28.4 0zm0 14c-3.6 0-6.5-2.9-6.5-6.5S24.8 1 28.4 1s6.5 2.9 6.5 6.5S32 14 28.4 14zm2.4-6.8L27.5 4c-.2-.2-.5-.2-.7 0-.2.2-.2.5 0 .7l2.9 2.9-2.9 2.9c-.2.2-.2.5 0 .7.2.2.5.2.7 0L30.7 8c.1-.1.1-.2.1-.4.1-.2.1-.3 0-.4z" clip-rule="evenodd"/><path fill="#0089D9" fill-rule="evenodd" d="M5.9 4.7l2.9 2.9-2.9 2.9c-.2.2-.2.5 0 .7.2.2.5.2.7 0L9.8 8c.1-.1.1-.2.1-.4 0-.1 0-.3-.1-.4L6.6 4c-.2-.2-.6-.2-.7 0-.2.2-.2.5 0 .7zm-6 2.8c0 4.1 3.4 7.5 7.5 7.5s7.5-3.4 7.5-7.5S11.5 0 7.4 0-.1 3.4-.1 7.5zm1 0C.9 3.9 3.8 1 7.4 1S14 3.9 14 7.5 11 14 7.4 14C3.8 14 .9 11.1.9 7.5z" clip-rule="evenodd"/></g></svg>