<svg xmlns="http://www.w3.org/2000/svg" width="58" height="16"><g><path fill="#0089D9" fill-rule="evenodd" d="M11.1 7.7c.2-.2.2-.5 0-.7-.2-.2-.5-.2-.7 0L8 9.4V4.3c0-.3-.2-.5-.5-.5S7 4 7 4.3v5.1L4.6 7c-.2-.2-.5-.2-.7 0-.2.2-.2.5 0 .7L7.2 11c.1.1.1.1.2.1 0 0 .1 0 .2 0s.3 0 .4-.1l3.1-3.3zm3.9-.2C15 3.4 11.6 0 7.5 0S0 3.4 0 7.5C0 11.7 3.4 15 7.5 15S15 11.7 15 7.5zm-1 0c0 3.6-2.9 6.5-6.5 6.5S1 11.1 1 7.5 3.9 1 7.5 1 14 3.9 14 7.5z" clip-rule="evenodd"/><path fill="#C8C8C8" fill-rule="evenodd" d="M31.4 7L29 9.4V4.3c0-.3-.2-.5-.5-.5s-.5.2-.5.5v5.1L25.6 7c-.2-.2-.5-.2-.7 0-.2.2-.2.5 0 .7l3.2 3.2s.1.1.2.1.1 0 .2 0 .3 0 .4-.1l3.2-3.2c.2-.2.2-.5 0-.7-.2-.2-.5-.2-.7 0zm-2.9-7C24.4 0 21 3.4 21 7.5s3.4 7.5 7.5 7.5S36 11.6 36 7.5 32.6 0 28.5 0zm0 14c-3.6 0-6.5-2.9-6.5-6.5S24.9 1 28.5 1 35 3.9 35 7.5 32.1 14 28.5 14z" clip-rule="evenodd"/><path fill="#39A6E6" fill-rule="evenodd" d="M49.5 0C45.4 0 42 3.4 42 7.5s3.4 7.5 7.5 7.5S57 11.6 57 7.5 53.6 0 49.5 0zm0 14c-3.6 0-6.5-2.9-6.5-6.5S45.9 1 49.5 1 56 3.9 56 7.5 53.1 14 49.5 14zm2.9-7L50 9.4V4.3c0-.3-.2-.5-.5-.5s-.5.2-.5.5v5.1L46.6 7c-.2-.2-.5-.2-.7 0-.2.2-.2.5 0 .7l3.2 3.2s.1.1.2.1.1 0 .2 0 .3 0 .4-.1l3.2-3.2c.2-.2.2-.5 0-.7-.2-.2-.5-.2-.7 0z" clip-rule="evenodd"/></g></svg>