<svg xmlns="http://www.w3.org/2000/svg" width="58" height="16"><g><path fill="#0089D9" fill-rule="evenodd" d="M11 3.9l-1 .3-3 3c-.2.1-.2.5 0 .7l3 3 1 .3-.3-1-2.6-2.7 2.6-2.6.3-1zM5.5 4c-.3 0-.5.2-.5.5v6c0 .3.2.5.5.5s.5-.2.5-.5v-6c0-.3-.2-.5-.5-.5zm2-4C3.4 0 0 3.4 0 7.5S3.4 15 7.5 15 15 11.6 15 7.5 11.7 0 7.5 0zm0 14C3.9 14 1 11.1 1 7.5S3.9 1 7.5 1 14 3.9 14 7.5 11.1 14 7.5 14z" clip-rule="evenodd"/><path fill="#C8C8C8" fill-rule="evenodd" d="M26.5 4c-.3 0-.5.2-.5.5v6c0 .3.2.5.5.5s.5-.2.5-.5v-6c0-.3-.2-.5-.5-.5zm2-4C24.3 0 21 3.4 21 7.5s3.4 7.5 7.5 7.5S36 11.6 36 7.5 32.6 0 28.5 0zm0 14c-3.6 0-6.5-2.9-6.5-6.5S24.9 1 28.5 1 35 3.9 35 7.5 32.1 14 28.5 14zM32 3.9l-1 .3-3 3c-.2.2-.2.5 0 .7l3 3 1 .3-.3-1-2.6-2.6L31.7 5l.3-1.1z" clip-rule="evenodd"/><path fill="#39A6E6" fill-rule="evenodd" d="M53 3.9l-1 .3-3 3c-.2.2-.2.5 0 .7l3 3 1 .3-.3-1-2.6-2.6L52.7 5l.3-1.1zm-5.5.1c-.3 0-.5.2-.5.5v6c0 .3.2.5.5.5s.5-.2.5-.5v-6c0-.3-.2-.5-.5-.5zm2-4C45.4 0 42 3.4 42 7.5s3.4 7.5 7.5 7.5S57 11.6 57 7.5 53.7 0 49.5 0zm0 14c-3.6 0-6.5-2.9-6.5-6.5S45.9 1 49.5 1 56 3.9 56 7.5 53.1 14 49.5 14z" clip-rule="evenodd"/></g></svg>