<svg xmlns="http://www.w3.org/2000/svg" width="58" height="16"><g><path fill="#0089D9" fill-rule="evenodd" d="M7.5 0C3.4 0 0 3.4 0 7.5S3.4 15 7.5 15 15 11.6 15 7.5 11.7 0 7.5 0zm0 14C3.9 14 1 11.1 1 7.5S3.9 1 7.5 1 14 3.9 14 7.5 11.1 14 7.5 14zm3.3-7H5.6L8 4.6c.2-.2.2-.5 0-.7-.2-.2-.5-.2-.7 0L4 7.1s-.1.1-.1.2 0 .1 0 .2 0 .3.1.4l3.2 3.2c.2.2.5.2.7 0 .2-.2.2-.5 0-.7L5.6 8h5.2c.3 0 .5-.2.5-.5S11 7 10.8 7z" clip-rule="evenodd"/><path fill="#C8C8C8" fill-rule="evenodd" d="M28.5 0C24.4 0 21 3.4 21 7.5s3.4 7.5 7.5 7.5S36 11.6 36 7.5 32.7 0 28.5 0zm0 14c-3.6 0-6.5-2.9-6.5-6.5S24.9 1 28.5 1 35 3.9 35 7.5 32.1 14 28.5 14zm3.3-7h-5.1L29 4.6c.2-.2.2-.5 0-.7-.2-.2-.5-.2-.7 0L25 7.1s-.1.1-.1.2 0 .1 0 .2 0 .3.1.4l3.2 3.2c.2.2.5.2.7 0 .2-.2.2-.5 0-.7L26.6 8h5.2c.3 0 .5-.2.5-.5S32 7 31.8 7z" clip-rule="evenodd"/><path fill="#39A6E6" fill-rule="evenodd" d="M49.5 0C45.4 0 42 3.4 42 7.5s3.4 7.5 7.5 7.5S57 11.6 57 7.5 53.7 0 49.5 0zm0 14c-3.6 0-6.5-2.9-6.5-6.5S45.9 1 49.5 1 56 3.9 56 7.5 53.1 14 49.5 14zm3.3-7h-5.1L50 4.6c.2-.2.2-.5 0-.7-.2-.2-.5-.2-.7 0L46 7.1s-.1.1-.1.2 0 .1 0 .2 0 .3.1.4l3.2 3.2c.2.2.5.2.7 0 .2-.2.2-.5 0-.7L47.6 8h5.2c.3 0 .5-.2.5-.5S53 7 52.8 7z" clip-rule="evenodd"/></g></svg>