<svg xmlns="http://www.w3.org/2000/svg" width="58" height="16"><g><path fill="#39A6E6" fill-rule="evenodd" d="M51.5 4c-.3 0-.5.2-.5.5v6c0 .3.2.5.5.5s.5-.2.5-.5v-6c0-.3-.2-.5-.5-.5zm-2-4C45.4 0 42 3.4 42 7.5s3.4 7.5 7.5 7.5S57 11.6 57 7.5 53.7 0 49.5 0zm0 14c-3.6 0-6.5-2.9-6.5-6.5S45.9 1 49.5 1 56 3.9 56 7.5 53.1 14 49.5 14zm.5-6.9l-3-3-1-.3.3 1 2.6 2.6-2.6 2.6-.3 1 1-.3 3-3c.2-.1.2-.4 0-.6z" clip-rule="evenodd"/><path fill="#C8C8C8" fill-rule="evenodd" d="M28.5 0C24.4 0 21 3.4 21 7.5s3.4 7.5 7.5 7.5S36 11.6 36 7.5 32.7 0 28.5 0zm0 14c-3.6 0-6.5-2.9-6.5-6.5S24.9 1 28.5 1 35 3.9 35 7.5 32.1 14 28.5 14zm2-10c-.2 0-.5.2-.5.5v6c0 .3.2.5.5.5s.5-.2.5-.5v-6c0-.3-.2-.5-.5-.5zM29 7.1l-3-3-1-.3.3 1 2.6 2.6-2.6 2.6-.3 1 1-.3 3-3c.2-.1.2-.4 0-.6z" clip-rule="evenodd"/><path fill="#0089D9" fill-rule="evenodd" d="M4.3 4.9l2.6 2.6-2.6 2.6-.3 1 1-.3 3-3c.2-.2.2-.5 0-.7l-3-3-1-.2.3 1zM9 4.5v6c0 .3.2.5.5.5s.5-.2.5-.5v-6c0-.3-.2-.5-.5-.5s-.5.2-.5.5zm-9 3C0 11.6 3.4 15 7.5 15S15 11.6 15 7.5 11.7 0 7.5 0C3.4 0 0 3.4 0 7.5zm1 0C1 3.9 3.9 1 7.5 1S14 3.9 14 7.5 11.1 14 7.5 14 1 11.1 1 7.5z" clip-rule="evenodd"/></g></svg>