<svg xmlns="http://www.w3.org/2000/svg" width="79" height="16" viewBox="0 0 79 16"><style type="text/css">  
	.st0{fill:#0089D9;}
	.st1{fill:#C8C8C8;}
	.st2{fill:#39A6E6;}
	.st3{display:none;opacity:0.2;}
	.st4{display:inline;fill:#0089D9;}
</style><path class="st0" d="M7.5 6.4c-0.6 0-1.1 0.5-1.1 1.1s0.5 1.1 1.1 1.1 1.1-0.5 1.1-1.1S8.1 6.4 7.5 6.4zM7.5 0C3.4 0 0 3.4 0 7.5S3.4 15 7.5 15 15 11.6 15 7.5 11.7 0 7.5 0zM7.5 14C3.9 14 1 11.1 1 7.5S3.9 1 7.5 1 14 3.9 14 7.5 11.1 14 7.5 14zM10.5 6.4c-0.6 0-1.1 0.5-1.1 1.1s0.5 1.1 1.1 1.1 1.1-0.5 1.1-1.1S11.1 6.4 10.5 6.4zM4.5 6.4c-0.6 0-1.1 0.5-1.1 1.1s0.5 1.1 1.1 1.1 1.1-0.5 1.1-1.1S5.1 6.4 4.5 6.4z"/><path class="st1" d="M28.5 6.4c-0.6 0-1.1 0.5-1.1 1.1s0.5 1.1 1.1 1.1 1.1-0.5 1.1-1.1S29.1 6.4 28.5 6.4zM28.5 0C24.4 0 21 3.4 21 7.5s3.4 7.5 7.5 7.5S36 11.6 36 7.5 32.7 0 28.5 0zM28.5 14c-3.6 0-6.5-2.9-6.5-6.5S24.9 1 28.5 1 35 3.9 35 7.5 32.1 14 28.5 14zM31.5 6.4c-0.6 0-1.1 0.5-1.1 1.1s0.5 1.1 1.1 1.1c0.6 0 1.1-0.5 1.1-1.1S32.1 6.4 31.5 6.4zM25.5 6.4c-0.6 0-1.1 0.5-1.1 1.1s0.5 1.1 1.1 1.1 1.1-0.5 1.1-1.1S26.1 6.4 25.5 6.4z"/><path class="st2" d="M49.5 6.4c-0.6 0-1.1 0.5-1.1 1.1s0.5 1.1 1.1 1.1 1.1-0.5 1.1-1.1S50.1 6.4 49.5 6.4zM49.5 0C45.4 0 42 3.4 42 7.5s3.4 7.5 7.5 7.5S57 11.6 57 7.5 53.7 0 49.5 0zM49.5 14c-3.6 0-6.5-2.9-6.5-6.5S45.9 1 49.5 1 56 3.9 56 7.5 53.1 14 49.5 14zM52.5 6.4c-0.6 0-1.1 0.5-1.1 1.1s0.5 1.1 1.1 1.1 1.1-0.5 1.1-1.1S53.1 6.4 52.5 6.4zM46.5 6.4c-0.6 0-1.1 0.5-1.1 1.1s0.5 1.1 1.1 1.1 1.1-0.5 1.1-1.1S47.1 6.4 46.5 6.4z"/><path class="st0" d="M70.5 0C66.4 0 63 3.4 63 7.5s3.4 7.5 7.5 7.5S78 11.6 78 7.5 74.7 0 70.5 0zM67.5 8.6c-0.6 0-1.1-0.5-1.1-1.1s0.5-1.1 1.1-1.1 1.1 0.5 1.1 1.1S68.1 8.6 67.5 8.6zM70.5 8.6c-0.6 0-1.1-0.5-1.1-1.1s0.5-1.1 1.1-1.1 1.1 0.5 1.1 1.1S71.1 8.6 70.5 8.6zM73.5 8.6c-0.6 0-1.1-0.5-1.1-1.1s0.5-1.1 1.1-1.1 1.1 0.5 1.1 1.1S74.1 8.6 73.5 8.6z"/><g class="st3"><rect class="st4" width="16" height="16"/><rect x="21" class="st4" width="16" height="16"/><rect x="42" class="st4" width="16" height="16"/><rect x="63" class="st4" width="16" height="16"/></g></svg>