<svg xmlns="http://www.w3.org/2000/svg" width="58" height="16"><g><path fill="#68A611" fill-rule="evenodd" d="M10.3 5L6.5 8.8 4.7 7.1c-.2-.2-.5-.2-.7 0-.2.2-.2.5 0 .7l2.1 2.1c.2.1.4.1.6.1.1 0 .1-.1.2-.1L11 5.7c.2-.2.2-.5 0-.7-.2-.2-.5-.2-.7 0zM7.5 0C3.4 0 0 3.3 0 7.5 0 11.6 3.4 15 7.5 15S15 11.6 15 7.5C15 3.3 11.6 0 7.5 0zm0 14C3.9 14 1 11.1 1 7.5S3.9 1 7.5 1 14 3.9 14 7.5 11.1 14 7.5 14z" clip-rule="evenodd"/><path fill="#C8C8C8" fill-rule="evenodd" d="M31.3 5l-3.8 3.8L25.7 7c-.2-.2-.5-.2-.7 0-.2.2-.2.5 0 .7l2.1 2.1c.1.1.4.2.5.1.1 0 .1-.1.2-.1L32 5.7c.2-.2.2-.5 0-.7-.2-.2-.5-.2-.7 0zm-2.8-5C24.4 0 21 3.3 21 7.5c0 4.1 3.4 7.5 7.5 7.5S36 11.6 36 7.5C36 3.3 32.6 0 28.5 0zm0 14c-3.6 0-6.5-2.9-6.5-6.5S24.9 1 28.5 1 35 3.9 35 7.5 32.1 14 28.5 14z" clip-rule="evenodd"/><path fill="#8EC928" fill-rule="evenodd" d="M52.3 5l-3.8 3.8L46.7 7c-.2-.2-.5-.2-.7 0-.2.2-.2.5 0 .7l2.1 2.1c.1.1.4.2.5.1.1 0 .1-.1.2-.1L53 5.7c.2-.2.2-.5 0-.7-.2-.2-.5-.2-.7 0zm-2.8-5C45.4 0 42 3.3 42 7.5c0 4.1 3.4 7.5 7.5 7.5S57 11.6 57 7.5C57 3.3 53.6 0 49.5 0zm0 14c-3.6 0-6.5-2.9-6.5-6.5S45.9 1 49.5 1 56 3.9 56 7.5 53.1 14 49.5 14z" clip-rule="evenodd"/></g></svg>