<svg xmlns="http://www.w3.org/2000/svg" width="58" height="16"><g><path fill="#0089D9" fill-rule="evenodd" d="M6.9 3.9c-.2-.2-.5-.2-.7 0-.2.1-.2.3-.2.5 0 0 0 .1 0 .1v6s0 .1 0 .1c0 .2 0 .4.1.5.2.2.5.2.7 0L10 7.9s0 0 0-.1c.1-.1.1-.2.1-.3 0-.1 0-.3-.1-.4L6.9 3.9zM7 9.5v-4l2 2-2 2zM7.5 0C3.3 0 0 3.4 0 7.5S3.3 15 7.5 15c4.1 0 7.5-3.4 7.5-7.5S11.6 0 7.5 0zm0 14C3.9 14 1 11.1 1 7.5S3.9 1 7.5 1 14 3.9 14 7.5 11.1 14 7.5 14z" clip-rule="evenodd"/><path fill="#C8C8C8" fill-rule="evenodd" d="M28.5 0C24.3 0 21 3.4 21 7.5s3.4 7.5 7.5 7.5S36 11.6 36 7.5 32.6 0 28.5 0zm0 14c-3.6 0-6.5-2.9-6.5-6.5S24.9 1 28.5 1 35 3.9 35 7.5 32.1 14 28.5 14zm-.6-10.1c-.2-.2-.5-.2-.7 0-.2.1-.2.3-.2.5 0 0 0 .1 0 .1v6s0 .1 0 .1c0 .2 0 .4.1.5.2.2.5.2.7 0L31 7.9s0 0 0-.1c.1-.1.1-.2.1-.3 0-.1 0-.3-.1-.4l-3.1-3.2zm.1 5.6v-4l2 2-2 2z" clip-rule="evenodd"/><path fill="#39A6E6" fill-rule="evenodd" d="M49.5 0C45.4 0 42 3.4 42 7.5s3.4 7.5 7.5 7.5S57 11.6 57 7.5 53.7 0 49.5 0zm0 14c-3.6 0-6.5-2.9-6.5-6.5S45.9 1 49.5 1 56 3.9 56 7.5 53.1 14 49.5 14zm-.6-10.1c-.2-.2-.5-.2-.7 0-.2.1-.2.3-.2.5 0 0 0 .1 0 .1v6s0 .1 0 .1c0 .2 0 .4.1.5.2.2.5.2.7 0L52 7.9s0 0 0-.1c.1-.1.1-.2.1-.3 0-.1 0-.3-.1-.4l-3.1-3.2zm.1 5.6v-4l2 2-2 2z" clip-rule="evenodd"/></g></svg>