<svg xmlns="http://www.w3.org/2000/svg" width="58" height="16"><g><path fill="#D6565A" fill-rule="evenodd" d="M7.5 0C3.4 0 0 3.3 0 7.5 0 11.6 3.4 15 7.5 15S15 11.6 15 7.5C15 3.3 11.6 0 7.5 0zm0 14C3.9 14 1 11.1 1 7.5S3.9 1 7.5 1 14 3.9 14 7.5 11.1 14 7.5 14zm3-7h-6c-.3 0-.5.2-.5.5s.2.5.5.5h6c.3 0 .5-.2.5-.5s-.2-.5-.5-.5z" clip-rule="evenodd"/><path fill="#C8C8C8" fill-rule="evenodd" d="M28.5 0C24.4 0 21 3.3 21 7.5c0 4.1 3.4 7.5 7.5 7.5S36 11.6 36 7.5C36 3.3 32.6 0 28.5 0zm0 14c-3.6 0-6.5-2.9-6.5-6.5S24.9 1 28.5 1 35 3.9 35 7.5 32.1 14 28.5 14zm3-7h-6c-.3 0-.5.2-.5.5s.2.5.5.5h6c.3 0 .5-.2.5-.5s-.2-.5-.5-.5z" clip-rule="evenodd"/><path fill="#E57377" fill-rule="evenodd" d="M49.5 0C45.4 0 42 3.3 42 7.5c0 4.1 3.4 7.5 7.5 7.5S57 11.6 57 7.5C57 3.3 53.6 0 49.5 0zm0 14c-3.6 0-6.5-2.9-6.5-6.5S45.9 1 49.5 1 56 3.9 56 7.5 53.1 14 49.5 14zm3-7h-6c-.3 0-.5.2-.5.5s.2.5.5.5h6c.3 0 .5-.2.5-.5s-.2-.5-.5-.5z" clip-rule="evenodd"/></g></svg>