<svg xmlns="http://www.w3.org/2000/svg" width="58" height="16"><g><path fill="#39A6E6" fill-rule="evenodd" d="M45.5 5c-.3 0-.5.2-.5.5v4c0 .3.2.5.5.5s.5-.2.5-.5v-4c0-.3-.2-.5-.5-.5zm2.7 2.5l2.3-2.3c.2-.2.2-.5 0-.7-.2-.2-.5-.2-.7 0l-2.7 2.7c0 .1-.1.2-.1.3 0 .1 0 .3.1.4l2.7 2.7c.2.2.5.2.7 0 .2-.2.2-.5 0-.7l-2.3-2.4zm5.4-3c-.2-.2-.5-.2-.7 0l-2.7 2.7c-.1.1-.2.2-.2.3 0 .1 0 .3.1.4l2.7 2.7c.2.2.5.2.7 0 .2-.2.2-.5 0-.7l-2.3-2.3 2.3-2.3c.2-.3.2-.6.1-.8zM49.5 0C45.4 0 42 3.4 42 7.5s3.4 7.5 7.5 7.5S57 11.6 57 7.5 53.7 0 49.5 0zm0 14c-3.6 0-6.5-2.9-6.5-6.5S45.9 1 49.5 1 56 3.9 56 7.5 53.1 14 49.5 14z" clip-rule="evenodd"/><path fill="#C8C8C8" fill-rule="evenodd" d="M27.2 7.5l2.3-2.3c.2-.2.2-.5 0-.7-.2-.2-.5-.2-.7 0l-2.7 2.7c0 .1-.1.2-.1.3 0 .1 0 .3.1.4l2.7 2.7c.2.2.5.2.7 0 .2-.2.2-.5 0-.7l-2.3-2.4zM24.5 5c-.3 0-.5.2-.5.5v4c0 .3.2.5.5.5s.5-.2.5-.5v-4c0-.3-.2-.5-.5-.5zm4-5C24.4 0 21 3.4 21 7.5s3.4 7.5 7.5 7.5S36 11.6 36 7.5 32.7 0 28.5 0zm0 14c-3.6 0-6.5-2.9-6.5-6.5S24.9 1 28.5 1 35 3.9 35 7.5 32.1 14 28.5 14zm4.1-9.5c-.2-.2-.5-.2-.7 0l-2.7 2.7c-.1.1-.2.2-.2.3 0 .1 0 .3.1.4l2.7 2.7c.2.2.5.2.7 0 .2-.2.2-.5 0-.7l-2.3-2.3 2.3-2.3c.3-.3.3-.6.1-.8z" clip-rule="evenodd"/><path fill="#0089D9" fill-rule="evenodd" d="M5.2 7.2c-.1.1-.2.2-.2.3 0 .1 0 .3.1.4l2.7 2.7c.2.2.5.2.7 0 .2-.2.2-.5 0-.7L6.2 7.5l2.3-2.3c.2-.2.2-.5 0-.7-.1-.2-.5-.2-.7 0L5.2 7.2zM3 5.5v4c0 .3.2.5.5.5s.5-.2.5-.5v-4c0-.3-.2-.5-.5-.5s-.5.2-.5.5zm-3 2C0 11.6 3.4 15 7.5 15S15 11.6 15 7.5 11.7 0 7.5 0C3.4 0 0 3.4 0 7.5zm1 0C1 3.9 3.9 1 7.5 1S14 3.9 14 7.5 11.1 14 7.5 14 1 11.1 1 7.5zm7.2.4l2.7 2.7c.2.2.5.2.7 0 .2-.2.2-.5 0-.7L9.2 7.5l2.3-2.3c.2-.2.2-.5 0-.7-.2-.2-.5-.2-.7 0L8.2 7.2c-.1.1-.2.2-.2.3 0 .1.1.3.2.4z" clip-rule="evenodd"/></g></svg>