<svg xmlns="http://www.w3.org/2000/svg" width="58" height="16"><g><path fill="#39A6E6" fill-rule="evenodd" d="M53 7.1l-3.2-3.2c-.2-.2-.5-.2-.7 0-.2.2-.2.5 0 .7L51.4 7h-5.1c-.3 0-.5.2-.5.5s.2.5.5.5h5.2L49 10.4c-.2.2-.2.5 0 .7.2.2.5.2.7 0L53 7.9c.1-.1.1-.2.1-.4 0-.1 0-.1 0-.2s-.1-.1-.1-.2zM49.5 0C45.4 0 42 3.4 42 7.5s3.4 7.5 7.5 7.5S57 11.6 57 7.5 53.7 0 49.5 0zm0 14c-3.6 0-6.5-2.9-6.5-6.5S45.9 1 49.5 1 56 3.9 56 7.5 53.1 14 49.5 14z" clip-rule="evenodd"/><path fill="#C8C8C8" fill-rule="evenodd" d="M32 7.1l-3.2-3.2c-.2-.2-.5-.2-.7 0-.2.2-.2.5 0 .7L30.4 7h-5.1c-.3 0-.5.2-.5.5s.2.5.5.5h5.2L28 10.4c-.2.2-.2.5 0 .7.2.2.5.2.7 0L32 7.9c.1-.1.1-.2.1-.4 0-.1 0-.1 0-.2s-.1-.1-.1-.2zM28.5 0C24.4 0 21 3.4 21 7.5s3.4 7.5 7.5 7.5S36 11.6 36 7.5 32.7 0 28.5 0zm0 14c-3.6 0-6.5-2.9-6.5-6.5S24.9 1 28.5 1 35 3.9 35 7.5 32.1 14 28.5 14z" clip-rule="evenodd"/><path fill="#0089D9" fill-rule="evenodd" d="M0 7.5C0 11.6 3.4 15 7.5 15S15 11.6 15 7.5 11.7 0 7.5 0C3.4 0 0 3.4 0 7.5zm1 0C1 3.9 3.9 1 7.5 1S14 3.9 14 7.5 11.1 14 7.5 14 1 11.1 1 7.5zm2.8 0c0 .3.2.5.5.5h5.2L7 10.4c-.2.2-.2.5 0 .7.2.2.5.2.7 0L11 7.9c.1-.1.1-.2.1-.4 0-.1 0-.1 0-.2s-.1-.1-.1-.2L7.7 3.9c-.2-.2-.5-.2-.7 0-.2.2-.2.5 0 .7L9.4 7H4.3c-.3 0-.5.2-.5.5z" clip-rule="evenodd"/></g></svg>