<svg xmlns="http://www.w3.org/2000/svg" width="58" height="16"><g><path fill="#0089D9" fill-rule="evenodd" d="M7.9 4c-.1-.1-.3-.1-.4-.1-.1 0-.1 0-.2 0 0 .1-.1.1-.1.1L3.9 7.3c-.2.2-.2.5 0 .7.2.2.5.2.7 0L7 5.6v5.1c0 .3.2.5.5.5.3.1.5-.2.5-.4V5.6L10.4 8c.2.2.5.2.7 0 .2-.2.2-.5 0-.7L7.9 4zm-.4-4C3.4 0 0 3.4 0 7.5 0 11.7 3.4 15 7.5 15S15 11.6 15 7.5 11.6 0 7.5 0zm0 14C3.9 14 1 11.1 1 7.5S3.9 1 7.5 1 14 3.9 14 7.5 11.1 14 7.5 14z" clip-rule="evenodd"/><path fill="#C8C8C8" fill-rule="evenodd" d="M28.8 4c-.1-.1-.2-.1-.4-.1-.1 0-.1 0-.2 0 0 .1 0 .1-.1.1l-3.2 3.2c-.2.2-.2.5 0 .7.2.2.5.2.7 0L28 5.6v5.1c0 .3.2.5.5.5s.5-.2.5-.4V5.6L31.4 8c.2.2.5.2.7 0 .2-.2.2-.5 0-.7L28.8 4zm-.3-4C24.4 0 21 3.4 21 7.5s3.4 7.5 7.5 7.5S36 11.6 36 7.5 32.6 0 28.5 0zm0 14c-3.6 0-6.5-2.9-6.5-6.5S24.9 1 28.5 1 35 3.9 35 7.5 32.1 14 28.5 14z" clip-rule="evenodd"/><path fill="#39A6E6" fill-rule="evenodd" d="M49.5 0C45.4 0 42 3.4 42 7.5s3.4 7.5 7.5 7.5S57 11.6 57 7.5 53.6 0 49.5 0zm0 14c-3.6 0-6.5-2.9-6.5-6.5S45.9 1 49.5 1 56 3.9 56 7.5 53.1 14 49.5 14zm.3-10c-.1-.1-.2-.1-.4-.1-.1 0-.1 0-.2 0 0 .1 0 .1-.1.1l-3.2 3.2c-.2.2-.2.5 0 .7.2.2.5.2.7 0L49 5.6v5.1c0 .3.2.5.5.5s.5-.2.5-.4V5.6L52.4 8c.2.2.5.2.7 0 .2-.2.2-.5 0-.7L49.8 4z" clip-rule="evenodd"/></g></svg>