<svg xmlns="http://www.w3.org/2000/svg" width="140" height="24" viewBox="0 0 140 24"><defs><style>.cls-1{fill:#0089d9;}.cls-1,.cls-2,.cls-3,.cls-4,.cls-5{fill-rule:evenodd;}.cls-2{fill:#d7d7d7;}.cls-3{fill:#39a6e6;}.cls-4{fill:#fff;}.cls-5{fill:#737373;}</style></defs><title>24_</title><g id="Arrow_Right" data-name="Arrow Right"><path class="cls-1" d="M12,0A12,12,0,1,0,24,12,12,12,0,0,0,12,0Zm0,22A10,10,0,1,1,22,12,10,10,0,0,1,12,22ZM15.46,11.1,11.39,7A1,1,0,0,0,10,8.42L13.53,12,10,15.52a1,1,0,0,0,1.41,1.41l4-4a1,1,0,0,0,.23-.16,1.12,1.12,0,0,0,0-1.49A1,1,0,0,0,15.46,11.1Z"/><path class="cls-2" d="M41,0A12,12,0,1,0,53,12,12,12,0,0,0,41,0Zm0,22A10,10,0,1,1,51,12,10,10,0,0,1,41,22ZM44.46,11.1,40.39,7A1,1,0,0,0,39,8.42L42.53,12,39,15.52a1,1,0,0,0,1.41,1.41l4-4a1,1,0,0,0,.23-.16,1.12,1.12,0,0,0,0-1.49A1,1,0,0,0,44.46,11.1Z"/><path class="cls-3" d="M70,0A12,12,0,1,0,82,12,12,12,0,0,0,70,0Zm0,22A10,10,0,1,1,80,12,10,10,0,0,1,70,22ZM73.46,11.1,69.39,7A1,1,0,0,0,68,8.42L71.53,12,68,15.52a1,1,0,0,0,1.41,1.41l4-4a1,1,0,0,0,.23-.16,1.12,1.12,0,0,0,0-1.49A1,1,0,0,0,73.46,11.1Z"/><path class="cls-4" d="M99,0a12,12,0,1,0,12,12A12,12,0,0,0,99,0Zm0,22a10,10,0,1,1,10-10A10,10,0,0,1,99,22Zm3.46-10.92L98.39,7A1,1,0,0,0,97,8.42L100.53,12,97,15.52a1,1,0,0,0,1.41,1.41l4-4a1,1,0,0,0,.23-.16,1.12,1.12,0,0,0,0-1.49A1,1,0,0,0,102.46,11.1Z"/><path class="cls-5" d="M128,0a12,12,0,1,0,12,12A12,12,0,0,0,128,0Zm0,22a10,10,0,1,1,10-10A10,10,0,0,1,128,22Zm3.46-10.92L127.39,7A1,1,0,0,0,126,8.42L129.53,12,126,15.52a1,1,0,0,0,1.41,1.41l4-4a1,1,0,0,0,.23-.16,1.12,1.12,0,0,0,0-1.49A1,1,0,0,0,131.46,11.1Z"/></g></svg>