<svg xmlns="http://www.w3.org/2000/svg" width="140" height="24" viewBox="0 0 140 24"><defs><style>.cls-1{fill:#0089d9;}.cls-1,.cls-2,.cls-3,.cls-4,.cls-5{fill-rule:evenodd;}.cls-2{fill:#d7d7d7;}.cls-3{fill:#39a6e6;}.cls-4{fill:#fff;}.cls-5{fill:#737373;}</style></defs><title>24_</title><g id="Arrow_Up" data-name="Arrow Up"><path class="cls-1" d="M12.9,8.54a1,1,0,0,0-.15-.23,1.12,1.12,0,0,0-1.49,0,1,1,0,0,0-.15.23l-4,4A1,1,0,0,0,8.48,14L12,10.47,15.58,14A1,1,0,1,0,17,12.61ZM12,0A12,12,0,1,0,24,12,12,12,0,0,0,12,0Zm0,22A10,10,0,1,1,22,12,10,10,0,0,1,12,22Z"/><path class="cls-2" d="M41.9,8.54a1,1,0,0,0-.15-.23,1.12,1.12,0,0,0-1.49,0,1,1,0,0,0-.15.23l-4,4A1,1,0,1,0,37.48,14L41,10.47,44.58,14A1,1,0,0,0,46,12.61ZM41,0A12,12,0,1,0,53,12,12,12,0,0,0,41,0Zm0,22A10,10,0,1,1,51,12,10,10,0,0,1,41,22Z"/><path class="cls-3" d="M70.9,8.54a1,1,0,0,0-.15-.23,1.12,1.12,0,0,0-1.49,0,1,1,0,0,0-.15.23l-4,4A1,1,0,1,0,66.48,14L70,10.47,73.58,14A1,1,0,0,0,75,12.61ZM70,0A12,12,0,1,0,82,12,12,12,0,0,0,70,0Zm0,22A10,10,0,1,1,80,12,10,10,0,0,1,70,22Z"/><path class="cls-4" d="M99,0a12,12,0,1,0,12,12A12,12,0,0,0,99,0Zm0,22a10,10,0,1,1,10-10A10,10,0,0,1,99,22Zm.9-13.47a1,1,0,0,0-.15-.23,1.12,1.12,0,0,0-1.49,0,1,1,0,0,0-.15.23l-4,4A1,1,0,1,0,95.48,14L99,10.47,102.58,14A1,1,0,1,0,104,12.61Z"/><path class="cls-5" d="M128.9,8.54a1,1,0,0,0-.15-.23,1.12,1.12,0,0,0-1.49,0,1,1,0,0,0-.15.23l-4,4A1,1,0,0,0,124.48,14L128,10.47,131.58,14A1,1,0,0,0,133,12.61ZM128,0a12,12,0,1,0,12,12A12,12,0,0,0,128,0Zm0,22a10,10,0,1,1,10-10A10,10,0,0,1,128,22Z"/></g></svg>