<svg xmlns="http://www.w3.org/2000/svg" width="169" height="24" viewBox="0 0 169 24"><defs><style>.cls-1{fill:#0089d9;}.cls-1,.cls-2,.cls-3,.cls-4,.cls-5{fill-rule:evenodd;}.cls-2{fill:#d7d7d7;}.cls-3{fill:#39a6e6;}.cls-4{fill:#fff;}.cls-5{fill:#737373;}</style></defs><title>24_</title><g id="Arrow_Down" data-name="Arrow Down"><path class="cls-1" d="M12,0A12,12,0,1,0,24,12,12,12,0,0,0,12,0Zm0,22A10,10,0,1,1,22,12,10,10,0,0,1,12,22ZM15.58,10,12,13.53,8.48,10a1,1,0,1,0-1.41,1.41l4,4a1,1,0,0,0,.16.23,1.12,1.12,0,0,0,1.49,0,1,1,0,0,0,.15-.23L17,11.39A1,1,0,0,0,15.58,10Z"/><path class="cls-2" d="M44.58,10,41,13.53,37.48,10a1,1,0,0,0-1.41,1.41l4,4a1,1,0,0,0,.16.23,1.12,1.12,0,0,0,1.49,0,1,1,0,0,0,.15-.23L46,11.39A1,1,0,1,0,44.58,10ZM41,0A12,12,0,1,0,53,12,12,12,0,0,0,41,0Zm0,22A10,10,0,1,1,51,12,10,10,0,0,1,41,22Z"/><path class="cls-3" d="M73.58,10,70,13.53,66.48,10a1,1,0,0,0-1.41,1.41l4,4a1,1,0,0,0,.16.23,1.12,1.12,0,0,0,1.49,0,1,1,0,0,0,.15-.23L75,11.39A1,1,0,0,0,73.58,10ZM70,0A12,12,0,1,0,82,12,12,12,0,0,0,70,0Zm0,22A10,10,0,1,1,80,12,10,10,0,0,1,70,22Z"/><path class="cls-4" d="M102.58,10,99,13.53,95.48,10a1,1,0,0,0-1.41,1.41l4,4a1,1,0,0,0,.16.23,1.12,1.12,0,0,0,1.49,0,1,1,0,0,0,.15-.23l4.1-4.07A1,1,0,1,0,102.58,10ZM99,0a12,12,0,1,0,12,12A12,12,0,0,0,99,0Zm0,22a10,10,0,1,1,10-10A10,10,0,0,1,99,22Z"/><path class="cls-5" d="M131.58,10,128,13.53,124.48,10a1,1,0,0,0-1.41,1.41l4,4a1,1,0,0,0,.16.23,1.12,1.12,0,0,0,1.49,0,1,1,0,0,0,.15-.23l4.1-4.07A1,1,0,0,0,131.58,10ZM128,0a12,12,0,1,0,12,12A12,12,0,0,0,128,0Zm0,22a10,10,0,1,1,10-10A10,10,0,0,1,128,22Z"/><path class="cls-1" d="M157,0a12,12,0,1,0,12,12A12,12,0,0,0,157,0Zm5,11.39-4.1,4.07a1,1,0,0,1-.15.23,1.12,1.12,0,0,1-1.49,0,1,1,0,0,1-.16-.23l-4-4A1,1,0,1,1,153.48,10L157,13.53,160.58,10A1,1,0,0,1,162,11.39Z"/></g></svg>