<svg xmlns="http://www.w3.org/2000/svg" width="140" height="24" viewBox="0 0 140 24"><defs><style>.cls-1{fill:#0089d9;}.cls-1,.cls-2,.cls-3,.cls-4,.cls-5{fill-rule:evenodd;}.cls-2{fill:#d7d7d7;}.cls-3{fill:#39a6e6;}.cls-4{fill:#fff;}.cls-5{fill:#737373;}</style></defs><title>24_</title><g id="Arrow_Left" data-name="Arrow Left"><path class="cls-1" d="M10.47,12,14,8.48a1,1,0,1,0-1.41-1.41l-4,4a1,1,0,0,0-.23.16,1.12,1.12,0,0,0,0,1.49,1,1,0,0,0,.23.15L12.61,17A1,1,0,0,0,14,15.58ZM12,0A12,12,0,1,0,24,12,12,12,0,0,0,12,0Zm0,22A10,10,0,1,1,22,12,10,10,0,0,1,12,22Z"/><path class="cls-2" d="M39.47,12,43,8.48a1,1,0,1,0-1.41-1.41l-4,4a1,1,0,0,0-.23.16,1.12,1.12,0,0,0,0,1.49,1,1,0,0,0,.23.15L41.61,17A1,1,0,0,0,43,15.58ZM41,0A12,12,0,1,0,53,12,12,12,0,0,0,41,0Zm0,22A10,10,0,1,1,51,12,10,10,0,0,1,41,22Z"/><path class="cls-3" d="M68.47,12,72,8.48a1,1,0,1,0-1.41-1.41l-4,4a1,1,0,0,0-.23.16,1.12,1.12,0,0,0,0,1.49,1,1,0,0,0,.23.15L70.61,17A1,1,0,0,0,72,15.58ZM70,0A12,12,0,1,0,82,12,12,12,0,0,0,70,0Zm0,22A10,10,0,1,1,80,12,10,10,0,0,1,70,22Z"/><path class="cls-4" d="M97.47,12,101,8.48a1,1,0,1,0-1.41-1.41l-4,4a1,1,0,0,0-.23.16,1.12,1.12,0,0,0,0,1.49,1,1,0,0,0,.23.15L99.61,17A1,1,0,1,0,101,15.58ZM99,0a12,12,0,1,0,12,12A12,12,0,0,0,99,0Zm0,22a10,10,0,1,1,10-10A10,10,0,0,1,99,22Z"/><path class="cls-5" d="M126.47,12,130,8.48a1,1,0,0,0-1.41-1.41l-4,4a1,1,0,0,0-.23.16,1.12,1.12,0,0,0,0,1.49,1,1,0,0,0,.23.15l4.07,4.1A1,1,0,0,0,130,15.58ZM128,0a12,12,0,1,0,12,12A12,12,0,0,0,128,0Zm0,22a10,10,0,1,1,10-10A10,10,0,0,1,128,22Z"/></g></svg>