<svg xmlns="http://www.w3.org/2000/svg" width="140" height="24" viewBox="0 0 140 24"><defs><style>.cls-1{fill:#39a6e6;}.cls-1,.cls-2,.cls-3,.cls-4,.cls-5{fill-rule:evenodd;}.cls-2{fill:#fff;}.cls-3{fill:#737373;}.cls-4{fill:#d7d7d7;}.cls-5{fill:#0089d9;}</style></defs><title>24_</title><g id="Collapse"><path class="cls-1" d="M65.85,12,69.4,8.42A1,1,0,0,0,68,7l-4.07,4.1a1,1,0,0,0-.23.15,1.12,1.12,0,0,0,0,1.49,1,1,0,0,0,.23.16l4,4a1,1,0,0,0,1.41-1.41ZM70,0A12,12,0,1,0,82,12,12,12,0,0,0,70,0Zm0,22A10,10,0,1,1,80,12,10,10,0,0,1,70,22ZM74.4,7A1,1,0,0,0,73,7l-4.07,4.1a1,1,0,0,0-.23.15,1.12,1.12,0,0,0,0,1.49,1,1,0,0,0,.23.15l4,4a1,1,0,1,0,1.41-1.41L70.85,12,74.4,8.42A1,1,0,0,0,74.4,7Z"/><path class="cls-2" d="M94.85,12,98.4,8.42A1,1,0,0,0,97,7l-4.07,4.1a1,1,0,0,0-.23.15,1.12,1.12,0,0,0,0,1.49,1,1,0,0,0,.23.16l4,4a1,1,0,0,0,1.41-1.41ZM99,0a12,12,0,1,0,12,12A12,12,0,0,0,99,0Zm0,22a10,10,0,1,1,10-10A10,10,0,0,1,99,22Zm4.4-15A1,1,0,0,0,102,7l-4.07,4.1a1,1,0,0,0-.23.15,1.12,1.12,0,0,0,0,1.49,1,1,0,0,0,.23.15l4,4a1,1,0,0,0,1.41-1.41L99.85,12l3.55-3.58A1,1,0,0,0,103.4,7Z"/><path class="cls-3" d="M123.85,12l3.55-3.58A1,1,0,0,0,126,7l-4.07,4.1a1,1,0,0,0-.23.15,1.12,1.12,0,0,0,0,1.49,1,1,0,0,0,.23.16l4,4a1,1,0,1,0,1.41-1.41ZM128,0a12,12,0,1,0,12,12A12,12,0,0,0,128,0Zm0,22a10,10,0,1,1,10-10A10,10,0,0,1,128,22Zm4.4-15A1,1,0,0,0,131,7l-4.07,4.1a1,1,0,0,0-.23.15,1.12,1.12,0,0,0,0,1.49,1,1,0,0,0,.23.15l4,4a1,1,0,0,0,1.41-1.41L128.85,12l3.55-3.58A1,1,0,0,0,132.4,7Z"/><path class="cls-4" d="M41,0A12,12,0,1,0,53,12,12,12,0,0,0,41,0Zm0,22A10,10,0,1,1,51,12,10,10,0,0,1,41,22ZM36.85,12,40.4,8.42A1,1,0,1,0,39,7l-4.07,4.1a1,1,0,0,0-.23.15,1.12,1.12,0,0,0,0,1.49,1,1,0,0,0,.23.16l4,4a1,1,0,0,0,1.41-1.41ZM45.4,7A1,1,0,0,0,44,7l-4.07,4.1a1,1,0,0,0-.23.15,1.12,1.12,0,0,0,0,1.49,1,1,0,0,0,.23.15l4,4a1,1,0,1,0,1.41-1.41L41.85,12,45.4,8.42A1,1,0,0,0,45.4,7Z"/><path class="cls-5" d="M0,12A12,12,0,1,0,12,0,12,12,0,0,0,0,12Zm2,0A10,10,0,1,1,12,22,10,10,0,0,1,2,12Zm8.92.9,4,4a1,1,0,1,0,1.41-1.41L12.85,12,16.4,8.42A1,1,0,1,0,15,7l-4.07,4.1a1,1,0,0,0-.23.15,1.12,1.12,0,0,0,0,1.49A1,1,0,0,0,10.92,12.9ZM5.69,11.25a1.12,1.12,0,0,0,0,1.49,1,1,0,0,0,.23.16l4,4a1,1,0,0,0,1.41-1.41L7.85,12,11.4,8.42A1,1,0,0,0,10,7L5.92,11.1A1,1,0,0,0,5.69,11.25Z"/></g></svg>