<svg id="Cancel_Grey" data-name="Cancel Grey" xmlns="http://www.w3.org/2000/svg" width="140" height="24" viewBox="0 0 140 24"><defs><style>.cls-1{fill:#919191;}.cls-1,.cls-2,.cls-3,.cls-4{fill-rule:evenodd;}.cls-2{fill:#fff;}.cls-3{fill:#737373;}.cls-4{fill:#d7d7d7;}</style></defs><title>24_</title><path class="cls-1" d="M70,0A12,12,0,1,0,82,12,12,12,0,0,0,70,0Zm0,22A10,10,0,1,1,80,12,10,10,0,0,1,70,22ZM74.06,7.93a1,1,0,0,0-1.41,0L70,10.59,67.41,8A1,1,0,0,0,66,9.41L68.58,12,66,14.62A1,1,0,0,0,67.38,16L70,13.41,72.62,16A1,1,0,1,0,74,14.62L71.41,12l2.65-2.65A1,1,0,0,0,74.06,7.93Z"/><path class="cls-2" d="M103.06,7.93a1,1,0,0,0-1.41,0L99,10.59,96.41,8A1,1,0,0,0,95,9.41L97.58,12,95,14.62A1,1,0,1,0,96.38,16L99,13.41,101.62,16A1,1,0,1,0,103,14.62L100.41,12l2.65-2.65A1,1,0,0,0,103.06,7.93ZM99,0a12,12,0,1,0,12,12A12,12,0,0,0,99,0Zm0,22a10,10,0,1,1,10-10A10,10,0,0,1,99,22Z"/><path class="cls-3" d="M128,0a12,12,0,1,0,12,12A12,12,0,0,0,128,0Zm0,22a10,10,0,1,1,10-10A10,10,0,0,1,128,22Zm4.06-14.06a1,1,0,0,0-1.41,0L128,10.59,125.41,8A1,1,0,0,0,124,9.41L126.58,12,124,14.62A1,1,0,0,0,125.38,16L128,13.41,130.62,16A1,1,0,1,0,132,14.62L129.41,12l2.65-2.65A1,1,0,0,0,132.06,7.93Z"/><path class="cls-4" d="M45.06,7.93a1,1,0,0,0-1.41,0L41,10.59,38.41,8A1,1,0,0,0,37,9.41L39.58,12,37,14.62A1,1,0,1,0,38.38,16L41,13.41,43.62,16A1,1,0,0,0,45,14.62L42.41,12l2.65-2.65A1,1,0,0,0,45.06,7.93ZM41,0A12,12,0,1,0,53,12,12,12,0,0,0,41,0Zm0,22A10,10,0,1,1,51,12,10,10,0,0,1,41,22Z"/><path class="cls-3" d="M16.07,7.93a1,1,0,0,0-1.41,0L12,10.59,9.41,8A1,1,0,1,0,8,9.41L10.58,12,8,14.62A1,1,0,0,0,9.38,16L12,13.41,14.62,16A1,1,0,0,0,16,14.62L13.41,12l2.65-2.65A1,1,0,0,0,16.07,7.93ZM12,0A12,12,0,1,0,24,12,12,12,0,0,0,12,0Zm0,22A10,10,0,1,1,22,12,10,10,0,0,1,12,22Z"/></svg>