<svg xmlns="http://www.w3.org/2000/svg" width="140" height="24" viewBox="0 0 140 24"><defs><style>.cls-1{fill:#0089d9;}.cls-1,.cls-2,.cls-3,.cls-4,.cls-5{fill-rule:evenodd;}.cls-2{fill:#d7d7d7;}.cls-3{fill:#39a6e6;}.cls-4{fill:#fff;}.cls-5{fill:#737373;}</style></defs><title>24_</title><g id="Move_Down" data-name="Move Down"><path class="cls-1" d="M16.94,13.42A1,1,0,1,0,15.52,12L13,14.52V7a1,1,0,0,0-2,0v7.47L8.45,11.94A1,1,0,0,0,7,13.36l4,4a1,1,0,0,0,.23.36,1,1,0,0,0,1.1.21.82.82,0,0,0,.57-.47ZM24,12A12,12,0,1,0,12,24,12,12,0,0,0,24,12Zm-2,0A10,10,0,1,1,12,2,10,10,0,0,1,22,12Z"/><path class="cls-2" d="M44.52,12,42,14.52V7a1,1,0,0,0-2,0v7.47l-2.55-2.53A1,1,0,1,0,36,13.36l4,4a1,1,0,0,0,.23.36,1,1,0,0,0,1.1.21.82.82,0,0,0,.57-.47l4-4A1,1,0,0,0,44.52,12ZM41,0A12,12,0,1,0,53,12,12,12,0,0,0,41,0Zm0,22A10,10,0,1,1,51,12,10,10,0,0,1,41,22Z"/><path class="cls-3" d="M70,0A12,12,0,1,0,82,12,12,12,0,0,0,70,0Zm0,22A10,10,0,1,1,80,12,10,10,0,0,1,70,22Zm3.52-10L71,14.52V7a1,1,0,0,0-2,0v7.47l-2.55-2.53A1,1,0,1,0,65,13.36l4,4a1,1,0,0,0,.23.36,1,1,0,0,0,1.1.21.82.82,0,0,0,.57-.47l4-4A1,1,0,1,0,73.52,12Z"/><path class="cls-4" d="M102.52,12,100,14.52V7a1,1,0,0,0-2,0v7.47l-2.55-2.53A1,1,0,1,0,94,13.36l4,4a1,1,0,0,0,.23.36,1,1,0,0,0,1.1.21.82.82,0,0,0,.57-.47l4-4A1,1,0,0,0,102.52,12ZM99,0a12,12,0,1,0,12,12A12,12,0,0,0,99,0Zm0,22a10,10,0,1,1,10-10A10,10,0,0,1,99,22Z"/><path class="cls-5" d="M131.52,12,129,14.52V7a1,1,0,0,0-2,0v7.47l-2.55-2.53A1,1,0,0,0,123,13.36l4,4a1,1,0,0,0,.23.36,1,1,0,0,0,1.1.21.82.82,0,0,0,.57-.47l4-4A1,1,0,1,0,131.52,12ZM128,0a12,12,0,1,0,12,12A12,12,0,0,0,128,0Zm0,22a10,10,0,1,1,10-10A10,10,0,0,1,128,22Z"/></g></svg>