<svg xmlns="http://www.w3.org/2000/svg" width="140" height="24" viewBox="0 0 140 24"><defs><style>.cls-1{fill:#0089d9;}.cls-1,.cls-2,.cls-3,.cls-4,.cls-5{fill-rule:evenodd;}.cls-2{fill:#d7d7d7;}.cls-3{fill:#39a6e6;}.cls-4{fill:#fff;}.cls-5{fill:#737373;}</style></defs><title>24_</title><g id="Expand"><path class="cls-1" d="M12,0A12,12,0,1,0,24,12,12,12,0,0,0,12,0Zm0,22A10,10,0,1,1,22,12,10,10,0,0,1,12,22Zm1.31-9.25a1.12,1.12,0,0,0,0-1.49,1,1,0,0,0-.23-.15L9,7A1,1,0,0,0,7.6,8.42L11.15,12,7.63,15.52A1,1,0,0,0,9,16.93l4-4A1,1,0,0,0,13.31,12.75Zm4.77-1.64L14,7A1,1,0,0,0,12.6,8.42L16.15,12l-3.52,3.52A1,1,0,0,0,14,16.93l4-4a1,1,0,0,0,.23-.16,1.12,1.12,0,0,0,0-1.49A1,1,0,0,0,18.08,11.1Z"/><path class="cls-2" d="M47.08,11.1,43,7A1,1,0,0,0,41.6,8.42L45.15,12l-3.52,3.52A1,1,0,0,0,43,16.93l4-4a1,1,0,0,0,.23-.16,1.12,1.12,0,0,0,0-1.49A1,1,0,0,0,47.08,11.1Zm-4.77,1.64a1.12,1.12,0,0,0,0-1.49,1,1,0,0,0-.23-.15L38,7A1,1,0,1,0,36.6,8.42L40.15,12l-3.52,3.52A1,1,0,1,0,38,16.93l4-4A1,1,0,0,0,42.31,12.75ZM41,0A12,12,0,1,0,53,12,12,12,0,0,0,41,0Zm0,22A10,10,0,1,1,51,12,10,10,0,0,1,41,22Z"/><path class="cls-3" d="M71.31,12.75a1.12,1.12,0,0,0,0-1.49,1,1,0,0,0-.23-.15L67,7A1,1,0,0,0,65.6,8.42L69.15,12l-3.52,3.52A1,1,0,1,0,67,16.93l4-4A1,1,0,0,0,71.31,12.75ZM70,0A12,12,0,1,0,82,12,12,12,0,0,0,70,0Zm0,22A10,10,0,1,1,80,12,10,10,0,0,1,70,22Zm6.08-10.9L72,7A1,1,0,0,0,70.6,8.42L74.15,12l-3.52,3.52A1,1,0,0,0,72,16.93l4-4a1,1,0,0,0,.23-.16,1.12,1.12,0,0,0,0-1.49A1,1,0,0,0,76.08,11.1Z"/><path class="cls-4" d="M99,0a12,12,0,1,0,12,12A12,12,0,0,0,99,0Zm0,22a10,10,0,1,1,10-10A10,10,0,0,1,99,22Zm1.31-9.25a1.12,1.12,0,0,0,0-1.49,1,1,0,0,0-.23-.15L96,7A1,1,0,0,0,94.6,8.42L98.15,12l-3.52,3.52A1,1,0,1,0,96,16.93l4-4A1,1,0,0,0,100.31,12.75Zm4.77-1.64L101,7A1,1,0,0,0,99.6,8.42L103.15,12l-3.52,3.52A1,1,0,1,0,101,16.93l4-4a1,1,0,0,0,.23-.16,1.12,1.12,0,0,0,0-1.49A1,1,0,0,0,105.08,11.1Z"/><path class="cls-5" d="M129.31,12.75a1.12,1.12,0,0,0,0-1.49,1,1,0,0,0-.23-.15L125,7a1,1,0,0,0-1.41,1.41L127.15,12l-3.52,3.52A1,1,0,0,0,125,16.93l4-4A1,1,0,0,0,129.31,12.75Zm4.77-1.64L130,7a1,1,0,0,0-1.41,1.41L132.15,12l-3.52,3.52A1,1,0,1,0,130,16.93l4-4a1,1,0,0,0,.23-.16,1.12,1.12,0,0,0,0-1.49A1,1,0,0,0,134.08,11.1ZM128,0a12,12,0,1,0,12,12A12,12,0,0,0,128,0Zm0,22a10,10,0,1,1,10-10A10,10,0,0,1,128,22Z"/></g></svg>