<svg xmlns="http://www.w3.org/2000/svg" width="140" height="24" viewBox="0 0 140 24"><defs><style>.cls-1{fill:#0089d9;}.cls-1,.cls-2,.cls-3,.cls-4,.cls-5{fill-rule:evenodd;}.cls-2{fill:#d7d7d7;}.cls-3{fill:#39a6e6;}.cls-4{fill:#fff;}.cls-5{fill:#737373;}</style></defs><title>24_</title><g id="Forward"><path class="cls-1" d="M10.68,11.25a1,1,0,0,0-.23-.15L7.39,8A1,1,0,1,0,6,9.42L8.53,12,6,14.52a1,1,0,0,0,1.41,1.41l3-3a1,1,0,0,0,.23-.15,1.12,1.12,0,0,0,0-1.49Zm4.77-.15L12.39,8A1,1,0,0,0,11,9.42L13.53,12,11,14.52a1,1,0,0,0,1.41,1.41l3-3a1,1,0,0,0,.23-.15,1.12,1.12,0,0,0,0-1.49A1,1,0,0,0,15.46,11.1ZM12,0A12,12,0,1,0,24,12,12,12,0,0,0,12,0Zm0,22A10,10,0,1,1,22,12,10,10,0,0,1,12,22ZM18,8a1,1,0,0,0-1,1v6a1,1,0,0,0,2,0V9A1,1,0,0,0,18,8Z"/><path class="cls-2" d="M44.46,11.1,41.39,8A1,1,0,1,0,40,9.42L42.53,12,40,14.52a1,1,0,0,0,1.41,1.41l3-3a1,1,0,0,0,.23-.15,1.12,1.12,0,0,0,0-1.49A1,1,0,0,0,44.46,11.1Zm-4.77.15a1,1,0,0,0-.23-.15L36.39,8A1,1,0,1,0,35,9.42L37.53,12,35,14.52a1,1,0,0,0,1.41,1.41l3-3a1,1,0,0,0,.23-.15,1.12,1.12,0,0,0,0-1.49ZM41,0A12,12,0,1,0,53,12,12,12,0,0,0,41,0Zm0,22A10,10,0,1,1,51,12,10,10,0,0,1,41,22ZM47,8a1,1,0,0,0-1,1v6a1,1,0,0,0,2,0V9A1,1,0,0,0,47,8Z"/><path class="cls-3" d="M73.46,11.1,70.39,8A1,1,0,0,0,69,9.42L71.53,12,69,14.52a1,1,0,1,0,1.41,1.41l3-3a1,1,0,0,0,.23-.15,1.12,1.12,0,0,0,0-1.49A1,1,0,0,0,73.46,11.1Zm-4.77.15a1,1,0,0,0-.23-.15L65.39,8A1,1,0,0,0,64,9.42L66.53,12,64,14.52a1,1,0,1,0,1.41,1.41l3-3a1,1,0,0,0,.23-.15,1.12,1.12,0,0,0,0-1.49ZM76,8a1,1,0,0,0-1,1v6a1,1,0,0,0,2,0V9A1,1,0,0,0,76,8ZM70,0A12,12,0,1,0,82,12,12,12,0,0,0,70,0Zm0,22A10,10,0,1,1,80,12,10,10,0,0,1,70,22Z"/><path class="cls-4" d="M102.46,11.1,99.39,8A1,1,0,0,0,98,9.42L100.53,12,98,14.52a1,1,0,0,0,1.41,1.41l3-3a1,1,0,0,0,.23-.15,1.12,1.12,0,0,0,0-1.49A1,1,0,0,0,102.46,11.1Zm-4.77.15a1,1,0,0,0-.23-.15L94.39,8A1,1,0,1,0,93,9.42L95.53,12,93,14.52a1,1,0,0,0,1.41,1.41l3-3a1,1,0,0,0,.23-.15,1.12,1.12,0,0,0,0-1.49ZM105,8a1,1,0,0,0-1,1v6a1,1,0,0,0,2,0V9A1,1,0,0,0,105,8ZM99,0a12,12,0,1,0,12,12A12,12,0,0,0,99,0Zm0,22a10,10,0,1,1,10-10A10,10,0,0,1,99,22Z"/><path class="cls-5" d="M131.46,11.1,128.39,8A1,1,0,0,0,127,9.42L129.53,12,127,14.52a1,1,0,1,0,1.41,1.41l3-3a1,1,0,0,0,.23-.15,1.12,1.12,0,0,0,0-1.49A1,1,0,0,0,131.46,11.1Zm-4.77.15a1,1,0,0,0-.23-.15L123.39,8A1,1,0,1,0,122,9.42L124.53,12,122,14.52a1,1,0,1,0,1.41,1.41l3-3a1,1,0,0,0,.23-.15,1.12,1.12,0,0,0,0-1.49ZM134,8a1,1,0,0,0-1,1v6a1,1,0,0,0,2,0V9A1,1,0,0,0,134,8Zm-6-8a12,12,0,1,0,12,12A12,12,0,0,0,128,0Zm0,22a10,10,0,1,1,10-10A10,10,0,0,1,128,22Z"/></g></svg>