<svg xmlns="http://www.w3.org/2000/svg" width="140" height="24" viewBox="0 0 140 24"><defs><style>.cls-1{fill:#0089d9;}.cls-1,.cls-2,.cls-3,.cls-4,.cls-5{fill-rule:evenodd;}.cls-2{fill:#d7d7d7;}.cls-3{fill:#39a6e6;}.cls-4{fill:#fff;}.cls-5{fill:#737373;}</style></defs><title>24_</title><g id="First"><path class="cls-1" d="M16,7a1,1,0,0,0-1.41,0l-4.07,4.1a1,1,0,0,0-.23.15,1.12,1.12,0,0,0,0,1.49,1,1,0,0,0,.23.15l4,4A1,1,0,0,0,16,15.52L12.47,12,16,8.42A1,1,0,0,0,16,7ZM12,0A12,12,0,1,0,24,12,12,12,0,0,0,12,0Zm0,22A10,10,0,1,1,22,12,10,10,0,0,1,12,22ZM8,7A1,1,0,0,0,7,8v8a1,1,0,0,0,2,0V8A1,1,0,0,0,8,7Z"/><path class="cls-2" d="M45,7a1,1,0,0,0-1.41,0l-4.07,4.1a1,1,0,0,0-.23.15,1.12,1.12,0,0,0,0,1.49,1,1,0,0,0,.23.15l4,4A1,1,0,1,0,45,15.52L41.47,12,45,8.42A1,1,0,0,0,45,7ZM41,0A12,12,0,1,0,53,12,12,12,0,0,0,41,0Zm0,22A10,10,0,1,1,51,12,10,10,0,0,1,41,22ZM37,7a1,1,0,0,0-1,1v8a1,1,0,0,0,2,0V8A1,1,0,0,0,37,7Z"/><path class="cls-3" d="M70,0A12,12,0,1,0,82,12,12,12,0,0,0,70,0Zm0,22A10,10,0,1,1,80,12,10,10,0,0,1,70,22ZM74,7a1,1,0,0,0-1.41,0l-4.07,4.1a1,1,0,0,0-.23.15,1.12,1.12,0,0,0,0,1.49,1,1,0,0,0,.23.15l4,4A1,1,0,1,0,74,15.52L70.47,12,74,8.42A1,1,0,0,0,74,7ZM66,7a1,1,0,0,0-1,1v8a1,1,0,0,0,2,0V8A1,1,0,0,0,66,7Z"/><path class="cls-4" d="M103,7a1,1,0,0,0-1.41,0l-4.07,4.1a1,1,0,0,0-.23.15,1.12,1.12,0,0,0,0,1.49,1,1,0,0,0,.23.15l4,4A1,1,0,0,0,103,15.52L99.47,12,103,8.42A1,1,0,0,0,103,7ZM99,0a12,12,0,1,0,12,12A12,12,0,0,0,99,0Zm0,22a10,10,0,1,1,10-10A10,10,0,0,1,99,22ZM95,7a1,1,0,0,0-1,1v8a1,1,0,0,0,2,0V8A1,1,0,0,0,95,7Z"/><path class="cls-5" d="M132,7a1,1,0,0,0-1.41,0l-4.07,4.1a1,1,0,0,0-.23.15,1.12,1.12,0,0,0,0,1.49,1,1,0,0,0,.23.15l4,4A1,1,0,1,0,132,15.52L128.47,12,132,8.42A1,1,0,0,0,132,7Zm-4-7a12,12,0,1,0,12,12A12,12,0,0,0,128,0Zm0,22a10,10,0,1,1,10-10A10,10,0,0,1,128,22ZM124,7a1,1,0,0,0-1,1v8a1,1,0,0,0,2,0V8A1,1,0,0,0,124,7Z"/></g></svg>