<svg xmlns="http://www.w3.org/2000/svg" width="140" height="24" viewBox="0 0 140 24"><defs><style>.cls-1{fill:#39a6e6;}.cls-1,.cls-2,.cls-3,.cls-4,.cls-5{fill-rule:evenodd;}.cls-2{fill:#fff;}.cls-3{fill:#737373;}.cls-4{fill:#d7d7d7;}.cls-5{fill:#0089d9;}</style></defs><title>24_</title><g id="Last"><path class="cls-1" d="M71.46,11.1,67.39,7A1,1,0,1,0,66,8.42L69.53,12,66,15.52a1,1,0,1,0,1.41,1.41l4-4a1,1,0,0,0,.23-.15,1.12,1.12,0,0,0,0-1.49A1,1,0,0,0,71.46,11.1ZM70,0A12,12,0,1,0,82,12,12,12,0,0,0,70,0Zm0,22A10,10,0,1,1,80,12,10,10,0,0,1,70,22ZM74,7a1,1,0,0,0-1,1v8a1,1,0,0,0,2,0V8A1,1,0,0,0,74,7Z"/><path class="cls-2" d="M100.46,11.1,96.39,7A1,1,0,1,0,95,8.42L98.53,12,95,15.52a1,1,0,0,0,1.41,1.41l4-4a1,1,0,0,0,.23-.15,1.12,1.12,0,0,0,0-1.49A1,1,0,0,0,100.46,11.1ZM99,0a12,12,0,1,0,12,12A12,12,0,0,0,99,0Zm0,22a10,10,0,1,1,10-10A10,10,0,0,1,99,22Zm4-15a1,1,0,0,0-1,1v8a1,1,0,0,0,2,0V8A1,1,0,0,0,103,7Z"/><path class="cls-3" d="M129.46,11.1,125.39,7A1,1,0,1,0,124,8.42L127.53,12,124,15.52a1,1,0,1,0,1.41,1.41l4-4a1,1,0,0,0,.23-.15,1.12,1.12,0,0,0,0-1.49A1,1,0,0,0,129.46,11.1ZM128,0a12,12,0,1,0,12,12A12,12,0,0,0,128,0Zm0,22a10,10,0,1,1,10-10A10,10,0,0,1,128,22Zm4-15a1,1,0,0,0-1,1v8a1,1,0,0,0,2,0V8A1,1,0,0,0,132,7Z"/><path class="cls-4" d="M42.46,11.1,38.39,7A1,1,0,1,0,37,8.42L40.53,12,37,15.52a1,1,0,1,0,1.41,1.41l4-4a1,1,0,0,0,.23-.15,1.12,1.12,0,0,0,0-1.49A1,1,0,0,0,42.46,11.1ZM41,0A12,12,0,1,0,53,12,12,12,0,0,0,41,0Zm0,22A10,10,0,1,1,51,12,10,10,0,0,1,41,22ZM45,7a1,1,0,0,0-1,1v8a1,1,0,0,0,2,0V8A1,1,0,0,0,45,7Z"/><path class="cls-5" d="M8,8.42,11.53,12,8,15.52a1,1,0,0,0,1.41,1.41l4-4a1,1,0,0,0,.23-.15,1.12,1.12,0,0,0,0-1.49,1,1,0,0,0-.23-.15L9.39,7A1,1,0,0,0,8,8.42ZM0,12A12,12,0,1,0,12,0,12,12,0,0,0,0,12Zm2,0A10,10,0,1,1,12,22,10,10,0,0,1,2,12ZM15,8v8a1,1,0,0,0,2,0V8a1,1,0,0,0-2,0Z"/></g></svg>