<svg xmlns="http://www.w3.org/2000/svg" width="140" height="24" viewBox="0 0 140 24"><defs><style>.cls-1{fill:#0089d9;}.cls-1,.cls-2,.cls-3,.cls-4,.cls-5{fill-rule:evenodd;}.cls-2{fill:#d7d7d7;}.cls-3{fill:#39a6e6;}.cls-4{fill:#fff;}.cls-5{fill:#737373;}</style></defs><title>24_</title><g id="Move_Left" data-name="Move Left"><path class="cls-1" d="M12,0A12,12,0,1,0,24,12,12,12,0,0,0,12,0Zm0,22A10,10,0,1,1,22,12,10,10,0,0,1,12,22Zm5-11H9.48L12,8.48a1,1,0,1,0-1.41-1.41l-4,4a.82.82,0,0,0-.47.57,1,1,0,0,0,.21,1.11,1,1,0,0,0,.36.23l4,4a1,1,0,1,0,1.41-1.41L9.53,13H17a1,1,0,0,0,0-2Z"/><path class="cls-2" d="M41,0A12,12,0,1,0,53,12,12,12,0,0,0,41,0Zm0,22A10,10,0,1,1,51,12,10,10,0,0,1,41,22Zm5-11H38.48L41,8.48a1,1,0,0,0-1.41-1.41l-4,4a.82.82,0,0,0-.47.57,1,1,0,0,0,.21,1.1,1,1,0,0,0,.36.23l4,4a1,1,0,0,0,1.41-1.41L38.53,13H46a1,1,0,0,0,0-2Z"/><path class="cls-3" d="M70,0A12,12,0,1,0,82,12,12,12,0,0,0,70,0Zm0,22A10,10,0,1,1,80,12,10,10,0,0,1,70,22Zm5-11H67.48L70,8.48a1,1,0,1,0-1.41-1.41l-4,4a.82.82,0,0,0-.47.57,1,1,0,0,0,.21,1.1,1,1,0,0,0,.36.23l4,4a1,1,0,0,0,1.41-1.41L67.53,13H75a1,1,0,0,0,0-2Z"/><path class="cls-4" d="M99,0a12,12,0,1,0,12,12A12,12,0,0,0,99,0Zm0,22a10,10,0,1,1,10-10A10,10,0,0,1,99,22Zm5-11H96.48L99,8.48a1,1,0,1,0-1.41-1.41l-4,4a.82.82,0,0,0-.47.57,1,1,0,0,0,.21,1.1,1,1,0,0,0,.36.23l4,4a1,1,0,0,0,1.41-1.41L96.53,13H104a1,1,0,0,0,0-2Z"/><path class="cls-5" d="M128,0a12,12,0,1,0,12,12A12,12,0,0,0,128,0Zm0,22a10,10,0,1,1,10-10A10,10,0,0,1,128,22Zm5-11h-7.52L128,8.48a1,1,0,1,0-1.41-1.41l-4,4a.82.82,0,0,0-.47.57,1,1,0,0,0,.21,1.1,1,1,0,0,0,.36.23l4,4a1,1,0,1,0,1.41-1.41L125.53,13H133a1,1,0,0,0,0-2Z"/></g></svg>