<svg xmlns="http://www.w3.org/2000/svg" width="140" height="24" viewBox="0 0 140 24"><defs><style>.cls-1{fill:#0089d9;}.cls-1,.cls-2,.cls-3,.cls-4,.cls-5{fill-rule:evenodd;}.cls-2{fill:#d7d7d7;}.cls-3{fill:#39a6e6;}.cls-4{fill:#fff;}.cls-5{fill:#737373;}</style></defs><title>24_</title><g id="Burger"><path class="cls-1" d="M16,11H8a1,1,0,0,0,0,2h8a1,1,0,0,0,0-2ZM12,0A12,12,0,1,0,24,12,12,12,0,0,0,12,0Zm0,22A10,10,0,1,1,22,12,10,10,0,0,1,12,22ZM16,7H8A1,1,0,1,0,8,9h8a1,1,0,1,0,0-2Zm0,8H8a1,1,0,0,0,0,2h8a1,1,0,0,0,0-2Z"/><path class="cls-2" d="M45,11H37a1,1,0,0,0,0,2h8a1,1,0,0,0,0-2ZM41,0A12,12,0,1,0,53,12,12,12,0,0,0,41,0Zm0,22A10,10,0,1,1,51,12,10,10,0,0,1,41,22ZM45,7H37a1,1,0,1,0,0,2h8a1,1,0,1,0,0-2Zm0,8H37a1,1,0,0,0,0,2h8a1,1,0,0,0,0-2Z"/><path class="cls-3" d="M74,11H66a1,1,0,0,0,0,2h8a1,1,0,0,0,0-2ZM70,0A12,12,0,1,0,82,12,12,12,0,0,0,70,0Zm0,22A10,10,0,1,1,80,12,10,10,0,0,1,70,22ZM74,7H66a1,1,0,1,0,0,2h8a1,1,0,1,0,0-2Zm0,8H66a1,1,0,0,0,0,2h8a1,1,0,0,0,0-2Z"/><path class="cls-4" d="M103,11H95a1,1,0,0,0,0,2h8a1,1,0,0,0,0-2Zm0-4H95a1,1,0,1,0,0,2h8a1,1,0,1,0,0-2ZM99,0a12,12,0,1,0,12,12A12,12,0,0,0,99,0Zm0,22a10,10,0,1,1,10-10A10,10,0,0,1,99,22Zm4-7H95a1,1,0,0,0,0,2h8a1,1,0,0,0,0-2Z"/><path class="cls-5" d="M132,11h-8a1,1,0,0,0,0,2h8a1,1,0,0,0,0-2ZM128,0a12,12,0,1,0,12,12A12,12,0,0,0,128,0Zm0,22a10,10,0,1,1,10-10A10,10,0,0,1,128,22Zm4-15h-8a1,1,0,1,0,0,2h8a1,1,0,1,0,0-2Zm0,8h-8a1,1,0,0,0,0,2h8a1,1,0,0,0,0-2Z"/></g></svg>