<svg xmlns="http://www.w3.org/2000/svg" width="140" height="24" viewBox="0 0 140 24"><defs><style>.cls-1{fill:#0089d9;}.cls-1,.cls-2,.cls-3,.cls-4,.cls-5{fill-rule:evenodd;}.cls-2{fill:#d7d7d7;}.cls-3{fill:#39a6e6;}.cls-4{fill:#fff;}.cls-5{fill:#737373;}</style></defs><title>24_</title><g id="More"><path class="cls-1" d="M12,10a2,2,0,1,0,2,2A2,2,0,0,0,12,10ZM7,10a2,2,0,1,0,2,2A2,2,0,0,0,7,10ZM12,0A12,12,0,1,0,24,12,12,12,0,0,0,12,0Zm0,22A10,10,0,1,1,22,12,10,10,0,0,1,12,22Zm5-12a2,2,0,1,0,2,2A2,2,0,0,0,17,10Z"/><path class="cls-2" d="M36,10a2,2,0,1,0,2,2A2,2,0,0,0,36,10Zm5,0a2,2,0,1,0,2,2A2,2,0,0,0,41,10ZM41,0A12,12,0,1,0,53,12,12,12,0,0,0,41,0Zm0,22A10,10,0,1,1,51,12,10,10,0,0,1,41,22Zm5-12a2,2,0,1,0,2,2A2,2,0,0,0,46,10Z"/><path class="cls-3" d="M65,10a2,2,0,1,0,2,2A2,2,0,0,0,65,10Zm5,0a2,2,0,1,0,2,2A2,2,0,0,0,70,10ZM70,0A12,12,0,1,0,82,12,12,12,0,0,0,70,0Zm0,22A10,10,0,1,1,80,12,10,10,0,0,1,70,22Zm5-12a2,2,0,1,0,2,2A2,2,0,0,0,75,10Z"/><path class="cls-4" d="M99,10a2,2,0,1,0,2,2A2,2,0,0,0,99,10Zm-5,0a2,2,0,1,0,2,2A2,2,0,0,0,94,10ZM99,0a12,12,0,1,0,12,12A12,12,0,0,0,99,0Zm0,22a10,10,0,1,1,10-10A10,10,0,0,1,99,22Zm5-12a2,2,0,1,0,2,2A2,2,0,0,0,104,10Z"/><path class="cls-5" d="M123,10a2,2,0,1,0,2,2A2,2,0,0,0,123,10Zm5,0a2,2,0,1,0,2,2A2,2,0,0,0,128,10Zm0-10a12,12,0,1,0,12,12A12,12,0,0,0,128,0Zm0,22a10,10,0,1,1,10-10A10,10,0,0,1,128,22Zm5-12a2,2,0,1,0,2,2A2,2,0,0,0,133,10Z"/></g></svg>