<svg xmlns="http://www.w3.org/2000/svg" width="140" height="24" viewBox="0 0 140 24"><defs><style>.cls-1{fill:#68a611;}.cls-1,.cls-2,.cls-3,.cls-4,.cls-5{fill-rule:evenodd;}.cls-2{fill:#d7d7d7;}.cls-3{fill:#8ec928;}.cls-4{fill:#fff;}.cls-5{fill:#737373;}</style></defs><title>24_</title><g id="OK"><path class="cls-1" d="M12,0A12,12,0,1,0,24,12,12,12,0,0,0,12,0Zm0,22A10,10,0,1,1,22,12,10,10,0,0,1,12,22ZM15.77,8.32l-5.21,5.2L8.45,11.41A1,1,0,0,0,7,12.82l2.64,2.64a1,1,0,0,0,.15.22,1.07,1.07,0,0,0,1.46,0l0,0,5.87-5.87a1,1,0,1,0-1.41-1.41Z"/><path class="cls-2" d="M44.77,8.32l-5.21,5.2-2.11-2.11A1,1,0,1,0,36,12.82l2.64,2.64a1,1,0,0,0,.15.22,1.07,1.07,0,0,0,1.46,0l0,0,5.87-5.87a1,1,0,1,0-1.41-1.41ZM41,0A12,12,0,1,0,53,12,12,12,0,0,0,41,0Zm0,22A10,10,0,1,1,51,12,10,10,0,0,1,41,22Z"/><path class="cls-3" d="M73.77,8.32l-5.21,5.2-2.11-2.11A1,1,0,1,0,65,12.82l2.64,2.64a1,1,0,0,0,.15.22,1.07,1.07,0,0,0,1.46,0l0,0,5.87-5.87a1,1,0,0,0-1.41-1.41ZM70,0A12,12,0,1,0,82,12,12,12,0,0,0,70,0Zm0,22A10,10,0,1,1,80,12,10,10,0,0,1,70,22Z"/><path class="cls-4" d="M99,0a12,12,0,1,0,12,12A12,12,0,0,0,99,0Zm0,22a10,10,0,1,1,10-10A10,10,0,0,1,99,22Zm3.77-13.67-5.21,5.2-2.11-2.11A1,1,0,0,0,94,12.82l2.64,2.64a1,1,0,0,0,.15.22,1.07,1.07,0,0,0,1.46,0l0,0,5.87-5.87a1,1,0,0,0-1.41-1.41Z"/><path class="cls-5" d="M131.77,8.32l-5.21,5.2-2.11-2.11A1,1,0,1,0,123,12.82l2.64,2.64a1,1,0,0,0,.15.22,1.07,1.07,0,0,0,1.46,0l0,0,5.87-5.87a1,1,0,0,0-1.41-1.41ZM128,0a12,12,0,1,0,12,12A12,12,0,0,0,128,0Zm0,22a10,10,0,1,1,10-10A10,10,0,0,1,128,22Z"/></g></svg>