<svg xmlns="http://www.w3.org/2000/svg" width="140" height="24" viewBox="0 0 140 24"><defs><style>.cls-1{fill:#0089d9;}.cls-1,.cls-2,.cls-3,.cls-4,.cls-5{fill-rule:evenodd;}.cls-2{fill:#d7d7d7;}.cls-3{fill:#39a6e6;}.cls-4{fill:#fff;}.cls-5{fill:#737373;}</style></defs><title>24_</title><g id="Pause"><path class="cls-1" d="M10,7A1,1,0,0,0,9,8v8a1,1,0,1,0,2,0V8A1,1,0,0,0,10,7Zm2-7A12,12,0,1,0,24,12,12,12,0,0,0,12,0Zm0,22A10,10,0,1,1,22,12,10,10,0,0,1,12,22ZM14,7a1,1,0,0,0-1,1v8a1,1,0,1,0,2,0V8A1,1,0,0,0,14,7Z"/><path class="cls-2" d="M41,0A12,12,0,1,0,53,12,12,12,0,0,0,41,0Zm0,22A10,10,0,1,1,51,12,10,10,0,0,1,41,22ZM39,7a1,1,0,0,0-1,1v8a1,1,0,1,0,2,0V8A1,1,0,0,0,39,7Zm4,0a1,1,0,0,0-1,1v8a1,1,0,1,0,2,0V8A1,1,0,0,0,43,7Z"/><path class="cls-3" d="M70,0A12,12,0,1,0,82,12,12,12,0,0,0,70,0Zm0,22A10,10,0,1,1,80,12,10,10,0,0,1,70,22ZM68,7a1,1,0,0,0-1,1v8a1,1,0,1,0,2,0V8A1,1,0,0,0,68,7Zm4,0a1,1,0,0,0-1,1v8a1,1,0,1,0,2,0V8A1,1,0,0,0,72,7Z"/><path class="cls-4" d="M97,7a1,1,0,0,0-1,1v8a1,1,0,1,0,2,0V8A1,1,0,0,0,97,7Zm2-7a12,12,0,1,0,12,12A12,12,0,0,0,99,0Zm0,22a10,10,0,1,1,10-10A10,10,0,0,1,99,22Zm2-15a1,1,0,0,0-1,1v8a1,1,0,1,0,2,0V8A1,1,0,0,0,101,7Z"/><path class="cls-5" d="M126,7a1,1,0,0,0-1,1v8a1,1,0,1,0,2,0V8A1,1,0,0,0,126,7Zm2-7a12,12,0,1,0,12,12A12,12,0,0,0,128,0Zm0,22a10,10,0,1,1,10-10A10,10,0,0,1,128,22Zm2-15a1,1,0,0,0-1,1v8a1,1,0,1,0,2,0V8A1,1,0,0,0,130,7Z"/></g></svg>