<svg xmlns="http://www.w3.org/2000/svg" width="140" height="24" viewBox="0 0 140 24"><defs><style>.cls-1{fill:#0089d9;}.cls-1,.cls-2,.cls-3,.cls-4,.cls-5{fill-rule:evenodd;}.cls-2{fill:#d7d7d7;}.cls-3{fill:#39a6e6;}.cls-4{fill:#fff;}.cls-5{fill:#737373;}</style></defs><title>24_</title><g id="Play"><path class="cls-1" d="M15.73,11.29a.59.59,0,0,0-.28-.17L11.05,7.26A1,1,0,0,0,10.21,7,1,1,0,0,0,10,7,1,1,0,0,0,9,8v8a1,1,0,0,0,1,1,1,1,0,0,0,.27-.05,1,1,0,0,0,.9-.21l4.3-3.87a.59.59,0,0,0,.26-.17,1,1,0,0,0,.23-.6A1,1,0,0,0,16,12h0A1,1,0,0,0,15.73,11.29ZM11,14.51V9.56L13.78,12ZM12,0A12,12,0,1,0,24,12,12,12,0,0,0,12,0Zm0,22A10,10,0,1,1,22,12,10,10,0,0,1,12,22Z"/><path class="cls-2" d="M41,0A12,12,0,1,0,53,12,12,12,0,0,0,41,0Zm0,22A10,10,0,1,1,51,12,10,10,0,0,1,41,22Zm3.73-10.7a.59.59,0,0,0-.28-.17L40.05,7.26A1,1,0,0,0,39.21,7,1,1,0,0,0,39,7a1,1,0,0,0-1,1v8a1,1,0,0,0,1,1,1,1,0,0,0,.27-.05,1,1,0,0,0,.9-.21l4.3-3.87a.59.59,0,0,0,.26-.17,1,1,0,0,0,.23-.6A1,1,0,0,0,45,12h0A1,1,0,0,0,44.72,11.29ZM40,14.51V9.56L42.78,12Z"/><path class="cls-3" d="M70,0A12,12,0,1,0,82,12,12,12,0,0,0,70,0Zm0,22A10,10,0,1,1,80,12,10,10,0,0,1,70,22Zm3.73-10.7a.59.59,0,0,0-.28-.17L69.05,7.26A1,1,0,0,0,68.21,7,1,1,0,0,0,68,7a1,1,0,0,0-1,1v8a1,1,0,0,0,1,1,1,1,0,0,0,.27-.05,1,1,0,0,0,.9-.21l4.3-3.87a.59.59,0,0,0,.26-.17,1,1,0,0,0,.23-.6A1,1,0,0,0,74,12h0A1,1,0,0,0,73.72,11.29ZM69,14.51V9.56L71.78,12Z"/><path class="cls-4" d="M99,0a12,12,0,1,0,12,12A12,12,0,0,0,99,0Zm0,22a10,10,0,1,1,10-10A10,10,0,0,1,99,22Zm3.72-10.7a.59.59,0,0,0-.28-.17L98.05,7.26A1,1,0,0,0,97.21,7,1,1,0,0,0,97,7a1,1,0,0,0-1,1v8a1,1,0,0,0,1,1,1,1,0,0,0,.27-.05,1,1,0,0,0,.9-.21l4.3-3.87a.59.59,0,0,0,.26-.17,1,1,0,0,0,.23-.6,1,1,0,0,0,0-.13h0A1,1,0,0,0,102.73,11.29ZM98,14.51V9.56L100.78,12Z"/><path class="cls-5" d="M131.72,11.29a.59.59,0,0,0-.28-.17l-4.39-3.86a1,1,0,0,0-.84-.21A1,1,0,0,0,126,7a1,1,0,0,0-1,1v8a1,1,0,0,0,1,1,1,1,0,0,0,.27-.05,1,1,0,0,0,.9-.21l4.3-3.87a.59.59,0,0,0,.26-.17,1,1,0,0,0,.23-.6,1,1,0,0,0,0-.13h0A1,1,0,0,0,131.72,11.29ZM127,14.51V9.56L129.78,12ZM128,0a12,12,0,1,0,12,12A12,12,0,0,0,128,0Zm0,22a10,10,0,1,1,10-10A10,10,0,0,1,128,22Z"/></g></svg>