<svg xmlns="http://www.w3.org/2000/svg" width="140" height="24" viewBox="0 0 140 24"><defs><style>.cls-1{fill:#39a6e6;}.cls-1,.cls-2,.cls-3,.cls-4,.cls-5{fill-rule:evenodd;}.cls-2{fill:#fff;}.cls-3{fill:#737373;}.cls-4{fill:#d7d7d7;}.cls-5{fill:#0089d9;}</style></defs><title>24_</title><g id="Move_Right" data-name="Move Right"><path class="cls-1" d="M75.65,11.22a1,1,0,0,0-.23-.15l-4-4A1,1,0,1,0,70,8.48L72.52,11H65a1,1,0,0,0,0,2h7.47l-2.53,2.55A1,1,0,0,0,71.35,17l4-4a1,1,0,0,0,.36-.23,1,1,0,0,0,.21-1.1A1,1,0,0,0,75.65,11.22ZM70,0A12,12,0,1,0,82,12,12,12,0,0,0,70,0Zm0,22A10,10,0,1,1,80,12,10,10,0,0,1,70,22Z"/><path class="cls-2" d="M104.65,11.22a1,1,0,0,0-.23-.15l-4-4A1,1,0,0,0,99,8.48L101.52,11H94a1,1,0,0,0,0,2h7.47l-2.53,2.55A1,1,0,1,0,100.36,17l4-4a1,1,0,0,0,.36-.23,1,1,0,0,0,.21-1.1A1,1,0,0,0,104.65,11.22ZM99,0a12,12,0,1,0,12,12A12,12,0,0,0,99,0Zm0,22a10,10,0,1,1,10-10A10,10,0,0,1,99,22Z"/><path class="cls-3" d="M133.65,11.22a1,1,0,0,0-.23-.15l-4-4A1,1,0,0,0,128,8.48L130.52,11H123a1,1,0,0,0,0,2h7.47l-2.53,2.55A1,1,0,0,0,129.35,17l4-4a1,1,0,0,0,.36-.23,1,1,0,0,0,.21-1.1A1,1,0,0,0,133.65,11.22ZM128,0a12,12,0,1,0,12,12A12,12,0,0,0,128,0Zm0,22a10,10,0,1,1,10-10A10,10,0,0,1,128,22Z"/><path class="cls-4" d="M46.65,11.22a1,1,0,0,0-.23-.15l-4-4A1,1,0,0,0,41,8.48L43.52,11H36a1,1,0,0,0,0,2h7.47l-2.53,2.55A1,1,0,1,0,42.35,17l4-4a1,1,0,0,0,.36-.23,1,1,0,0,0,.21-1.1A1,1,0,0,0,46.65,11.22ZM41,0A12,12,0,1,0,53,12,12,12,0,0,0,41,0Zm0,22A10,10,0,1,1,51,12,10,10,0,0,1,41,22Z"/><path class="cls-5" d="M0,12A12,12,0,1,0,12,0,12,12,0,0,0,0,12Zm2,0A10,10,0,1,1,12,22,10,10,0,0,1,2,12Zm4,0a1,1,0,0,0,1,1h7.47l-2.53,2.55A1,1,0,1,0,13.35,17l4-4a1,1,0,0,0,.36-.23,1,1,0,0,0,.21-1.11.82.82,0,0,0-.47-.57l-4-4A1,1,0,1,0,12,8.48L14.52,11H7A1,1,0,0,0,6,12Z"/></g></svg>