<svg xmlns="http://www.w3.org/2000/svg" width="140" height="24" viewBox="0 0 140 24"><defs><style>.cls-1{fill:#39a6e6;}.cls-1,.cls-2,.cls-3,.cls-4,.cls-5{fill-rule:evenodd;}.cls-2{fill:#fff;}.cls-3{fill:#737373;}.cls-4{fill:#d7d7d7;}.cls-5{fill:#0089d9;}</style></defs><title>24_</title><g id="Rewind"><path class="cls-1" d="M64,8a1,1,0,0,0-1,1v6a1,1,0,0,0,2,0V9A1,1,0,0,0,64,8Zm4.47,4L71,9.42A1,1,0,1,0,69.61,8l-3.07,3.1a1,1,0,0,0-.23.15,1.12,1.12,0,0,0,0,1.49,1,1,0,0,0,.23.15l3,3A1,1,0,0,0,71,14.52ZM76,8a1,1,0,0,0-1.41,0l-3.07,3.1a1,1,0,0,0-.23.15,1.12,1.12,0,0,0,0,1.49,1,1,0,0,0,.23.15l3,3A1,1,0,0,0,76,14.52L73.47,12,76,9.42A1,1,0,0,0,76,8ZM70,0A12,12,0,1,0,82,12,12,12,0,0,0,70,0Zm0,22A10,10,0,1,1,80,12,10,10,0,0,1,70,22Z"/><path class="cls-2" d="M99,0a12,12,0,1,0,12,12A12,12,0,0,0,99,0Zm0,22a10,10,0,1,1,10-10A10,10,0,0,1,99,22ZM97.47,12,100,9.42A1,1,0,0,0,98.61,8l-3.07,3.1a1,1,0,0,0-.23.15,1.12,1.12,0,0,0,0,1.49,1,1,0,0,0,.23.15l3,3A1,1,0,1,0,100,14.52ZM93,8a1,1,0,0,0-1,1v6a1,1,0,0,0,2,0V9A1,1,0,0,0,93,8Zm12,0a1,1,0,0,0-1.41,0l-3.07,3.1a1,1,0,0,0-.23.15,1.12,1.12,0,0,0,0,1.49,1,1,0,0,0,.23.15l3,3A1,1,0,1,0,105,14.52L102.47,12,105,9.42A1,1,0,0,0,105,8Z"/><path class="cls-3" d="M122,8a1,1,0,0,0-1,1v6a1,1,0,0,0,2,0V9A1,1,0,0,0,122,8Zm4.47,4L129,9.42A1,1,0,1,0,127.61,8l-3.07,3.1a1,1,0,0,0-.23.15,1.12,1.12,0,0,0,0,1.49,1,1,0,0,0,.23.15l3,3A1,1,0,1,0,129,14.52ZM128,0a12,12,0,1,0,12,12A12,12,0,0,0,128,0Zm0,22a10,10,0,1,1,10-10A10,10,0,0,1,128,22Zm6-14a1,1,0,0,0-1.41,0l-3.07,3.1a1,1,0,0,0-.23.15,1.12,1.12,0,0,0,0,1.49,1,1,0,0,0,.23.15l3,3A1,1,0,0,0,134,14.52L131.47,12,134,9.42A1,1,0,0,0,134,8Z"/><path class="cls-4" d="M35,8a1,1,0,0,0-1,1v6a1,1,0,0,0,2,0V9A1,1,0,0,0,35,8Zm4.47,4L42,9.42A1,1,0,1,0,40.61,8l-3.07,3.1a1,1,0,0,0-.23.15,1.12,1.12,0,0,0,0,1.49,1,1,0,0,0,.23.15l3,3A1,1,0,0,0,42,14.52ZM47,8a1,1,0,0,0-1.41,0l-3.07,3.1a1,1,0,0,0-.23.15,1.12,1.12,0,0,0,0,1.49,1,1,0,0,0,.23.15l3,3A1,1,0,0,0,47,14.52L44.47,12,47,9.42A1,1,0,0,0,47,8ZM41,0A12,12,0,1,0,53,12,12,12,0,0,0,41,0Zm0,22A10,10,0,1,1,51,12,10,10,0,0,1,41,22Z"/><path class="cls-5" d="M13,12a1,1,0,0,0,.29.75,1,1,0,0,0,.23.15l3,3A1,1,0,0,0,18,14.52L15.47,12,18,9.42A1,1,0,1,0,16.61,8l-3.07,3.1a1,1,0,0,0-.23.15A1,1,0,0,0,13,12Zm-4.71-.75a1.12,1.12,0,0,0,0,1.49,1,1,0,0,0,.23.15l3,3A1,1,0,0,0,13,14.52L10.47,12,13,9.42A1,1,0,0,0,11.61,8L8.54,11.1A1,1,0,0,0,8.32,11.25ZM0,12A12,12,0,1,0,12,0,12,12,0,0,0,0,12Zm2,0A10,10,0,1,1,12,22,10,10,0,0,1,2,12ZM5,9v6a1,1,0,0,0,2,0V9A1,1,0,0,0,5,9Z"/></g></svg>