<svg xmlns="http://www.w3.org/2000/svg" width="140" height="24" viewBox="0 0 140 24"><defs><style>.cls-1{fill:#0089d9;}.cls-1,.cls-2,.cls-3,.cls-4,.cls-5{fill-rule:evenodd;}.cls-2{fill:#d7d7d7;}.cls-3{fill:#39a6e6;}.cls-4{fill:#fff;}.cls-5{fill:#737373;}</style></defs><title>24_</title><g id="Move_Up" data-name="Move Up"><path class="cls-1" d="M12.93,6.58a.82.82,0,0,0-.57-.47,1,1,0,0,0-1.1.21,1,1,0,0,0-.23.36l-4,4a1,1,0,0,0,1.41,1.41L11,9.53V17a1,1,0,0,0,2,0V9.48L15.52,12a1,1,0,1,0,1.41-1.41ZM12,0A12,12,0,1,0,24,12,12,12,0,0,0,12,0Zm0,22A10,10,0,1,1,22,12,10,10,0,0,1,12,22Z"/><path class="cls-2" d="M41,0A12,12,0,1,0,53,12,12,12,0,0,0,41,0Zm0,22A10,10,0,1,1,51,12,10,10,0,0,1,41,22Zm.93-15.43a.82.82,0,0,0-.57-.47,1,1,0,0,0-1.1.21,1,1,0,0,0-.23.36l-4,4a1,1,0,1,0,1.41,1.41L40,9.53V17a1,1,0,0,0,2,0V9.48L44.52,12a1,1,0,1,0,1.41-1.41Z"/><path class="cls-3" d="M70.93,6.58a.82.82,0,0,0-.57-.47,1,1,0,0,0-1.1.21,1,1,0,0,0-.23.36l-4,4a1,1,0,1,0,1.41,1.41L69,9.53V17a1,1,0,0,0,2,0V9.48L73.52,12a1,1,0,1,0,1.41-1.41ZM70,0A12,12,0,1,0,82,12,12,12,0,0,0,70,0Zm0,22A10,10,0,1,1,80,12,10,10,0,0,1,70,22Z"/><path class="cls-4" d="M99.93,6.58a.82.82,0,0,0-.57-.47,1,1,0,0,0-1.1.21,1,1,0,0,0-.23.36l-4,4a1,1,0,0,0,1.41,1.41L98,9.53V17a1,1,0,0,0,2,0V9.48L102.52,12a1,1,0,1,0,1.41-1.41ZM99,0a12,12,0,1,0,12,12A12,12,0,0,0,99,0Zm0,22a10,10,0,1,1,10-10A10,10,0,0,1,99,22Z"/><path class="cls-5" d="M128,0a12,12,0,1,0,12,12A12,12,0,0,0,128,0Zm0,22a10,10,0,1,1,10-10A10,10,0,0,1,128,22Zm.93-15.43a.82.82,0,0,0-.57-.47,1,1,0,0,0-1.1.21,1,1,0,0,0-.23.36l-4,4a1,1,0,0,0,1.41,1.41L127,9.53V17a1,1,0,0,0,2,0V9.48L131.52,12a1,1,0,1,0,1.41-1.41Z"/></g></svg>