<svg xmlns="http://www.w3.org/2000/svg" width="58" height="16" viewBox="0 0 58 16">
  <defs>
    <style>
      .cls-1 {
        fill: #0089d9;
      }

      .cls-1, .cls-2, .cls-3, .cls-4, .cls-5 {
        fill-rule: evenodd;
      }

      .cls-2 {
        fill: #68a611;
      }

      .cls-3 {
        fill: #c8c8c8;
      }

      .cls-4 {
        fill: #39a6e6;
      }

      .cls-5 {
        fill: #8ec928;
      }
    </style>
  </defs>
  <title>16_add_comment</title>
  <g id="Add_Comment" data-name="Add Comment">
    <path class="cls-1" d="M6,7V6H6V5H4v.9H4V7Zm6-2H10v.9h0V7h2V6h0Zm0-5H4A4,4,0,0,0,0,4V8a4,4,0,0,0,4,4c.7,0,1,2.7,1,4H6a4.8,4.8,0,0,1,3.1-3.9A3.6,3.6,0,0,1,9.5,11H9a3.2,3.2,0,0,0-3,2,1.8,1.8,0,0,0-2-2A2.9,2.9,0,0,1,1,8V4A2.9,2.9,0,0,1,4,1h8a2.9,2.9,0,0,1,3,3V8a3.5,3.5,0,0,1-.3,1.4l.8.5A4.1,4.1,0,0,0,16,8V4A4,4,0,0,0,12,0ZM9,7V6H9V5H7v.9H7V7Z"/>
    <path class="cls-2" d="M12,10h2v6H12Z"/>
    <path class="cls-2" d="M10,12h6v2H10Z"/>
    <path class="cls-3" d="M33,5H31v.9h0V7h2V6h0Zm0-5H25a4,4,0,0,0-4,4V8a4,4,0,0,0,4,4c.7,0,1,2.7,1,4h1a4.6,4.6,0,0,1,3.1-3.9,3.6,3.6,0,0,1,.4-1.1H30a3.2,3.2,0,0,0-3,2,1.8,1.8,0,0,0-2-2,2.9,2.9,0,0,1-3-3V4a2.9,2.9,0,0,1,3-3h8a2.9,2.9,0,0,1,3,3V8a3.5,3.5,0,0,1-.3,1.4l.8.5A4.1,4.1,0,0,0,37,8V4A4,4,0,0,0,33,0ZM27,7V6h0V5H25v.9h0V7Zm3,0V6h0V5H28v.9h0V7Z"/>
    <path class="cls-3" d="M33,10h2v6H33Z"/>
    <path class="cls-3" d="M31,12h6v2H31Z"/>
    <path class="cls-4" d="M54,5H52v.9h0V7h2V6h0Zm0-5H46a4,4,0,0,0-4,4V8a4,4,0,0,0,4,4c.7,0,1,2.7,1,4h1a4.8,4.8,0,0,1,3.1-3.9,3.6,3.6,0,0,1,.4-1.1H51a3.2,3.2,0,0,0-3,2,1.8,1.8,0,0,0-2-2,2.9,2.9,0,0,1-3-3V4a2.9,2.9,0,0,1,3-3h8a2.9,2.9,0,0,1,3,3V8a3.5,3.5,0,0,1-.3,1.4l.8.5A4.1,4.1,0,0,0,58,8V4A4,4,0,0,0,54,0ZM51,7V6h0V5H49v.9h0V7ZM48,7V6h0V5H46v.9h0V7Z"/>
    <path class="cls-5" d="M54,10h2v6H54Z"/>
    <path class="cls-5" d="M52,12h6v2H52Z"/>
  </g>
</svg>
