<svg xmlns="http://www.w3.org/2000/svg" width="58" height="16" viewBox="0 0 58 16">
  <defs>
    <style>
      .cls-1 {
        fill: #0089d9;
      }

      .cls-1, .cls-2, .cls-3 {
        fill-rule: evenodd;
      }

      .cls-2 {
        fill: #c8c8c8;
      }

      .cls-3 {
        fill: #39a6e6;
      }
    </style>
  </defs>
  <title>16_attach</title>
  <g id="Attach">
    <path class="cls-1" d="M14.4,1.1C12.8-.5,11.6-.2,10,1.4L2.8,8.6c-2.3,2.4-2.3,4-.4,5.9s3.6,2,6-.3l6.4-6.4L14,7,7.6,13.4c-1.4,1.4-2.5,2.2-4.4.3s-1-2.9.4-4.3l7.2-7.2c.8-.8,1.6-1.6,2.8-.3s.4,1.9-.4,2.7L6.8,11c-.8.8-1.6,0-.8-.8l6.4-6.4L11.6,3,5.2,9.4c-.8.8-1.2,2-.4,2.8s2,.4,2.8-.4L14,5.4C15.6,3.8,16,2.7,14.4,1.1Z"/>
    <path class="cls-2" d="M35.4,1.1C33.8-.5,32.6-.2,31,1.4L23.8,8.6c-2.3,2.4-2.3,4-.4,5.9s3.6,2,6-.3l6.4-6.4L35,7l-6.4,6.4c-1.4,1.4-2.6,2.2-4.4.3s-1-2.9.4-4.3l7.2-7.2c.8-.8,1.6-1.6,2.8-.3s.4,1.9-.4,2.7L27.8,11c-.8.8-1.6,0-.8-.8l6.4-6.4L32.6,3,26.2,9.4c-.8.8-1.2,2-.4,2.8s2,.4,2.8-.4L35,5.4C36.6,3.8,37,2.7,35.4,1.1Z"/>
    <path class="cls-3" d="M56.4,1.1C54.8-.5,53.6-.2,52,1.4L44.8,8.6c-2.3,2.4-2.3,4-.4,5.9s3.6,2,6-.3l6.4-6.4L56,7l-6.4,6.4c-1.4,1.4-2.6,2.1-4.4.3s-.9-3,.4-4.3l7.2-7.2c.8-.8,1.6-1.6,2.8-.3s.4,1.9-.4,2.7L48.8,11c-.8.8-1.6,0-.8-.8l6.4-6.4L53.6,3,47.2,9.4c-.8.8-1.2,2-.4,2.8s2,.4,2.8-.4L56,5.4C57.6,3.8,58,2.7,56.4,1.1Z"/>
  </g>
</svg>
