<svg xmlns="http://www.w3.org/2000/svg" width="58" height="16" viewBox="0 0 58 16">
  <defs>
    <style>
      .cls-1 {
        fill: #0089d9;
      }

      .cls-1, .cls-2, .cls-3 {
        fill-rule: evenodd;
      }

      .cls-2 {
        fill: #c8c8c8;
      }

      .cls-3 {
        fill: #39a6e6;
      }
    </style>
  </defs>
  <title>16_alarm</title>
  <g id="Alarm">
    <path class="cls-1" d="M.7,1.7A2.4,2.4,0,0,0,.7,5L4,1.7A2.3,2.3,0,0,0,.7,1.7ZM8,2A7,7,0,0,0,8,16,7,7,0,1,0,8,2ZM8,15a6,6,0,1,1,6-6A6,6,0,0,1,8,15ZM15.3,1.7a2.3,2.3,0,0,0-3.3,0L15.3,5A2.3,2.3,0,0,0,15.3,1.7ZM10.3,6l-2,2H7v2H9V8.7l2-1.9A.6.6,0,0,0,11,6Z"/>
    <path class="cls-2" d="M21.6,1.7a2.4,2.4,0,0,0,0,3.3L25,1.7A2.4,2.4,0,0,0,21.6,1.7ZM29,2a7,7,0,1,0,0,14A7,7,0,0,0,29,2Zm0,13a6,6,0,1,1,6-6A6,6,0,0,1,29,15ZM36.3,1.7a2.2,2.2,0,0,0-3.3,0L36.3,5A2.4,2.4,0,0,0,36.3,1.7ZM31.2,6,29.3,8H28v2h2V8.7l1.9-1.9a.6.6,0,0,0,0-.8Z"/>
    <path class="cls-3" d="M57.3,1.7a2.2,2.2,0,0,0-3.3,0L57.3,5A2.4,2.4,0,0,0,57.3,1.7ZM50,2a7,7,0,1,0,0,14A7,7,0,0,0,50,2Zm0,13a6,6,0,1,1,6-6A6,6,0,0,1,50,15ZM42.6,1.7a2.4,2.4,0,0,0,0,3.3L46,1.7A2.4,2.4,0,0,0,42.6,1.7ZM52.2,6,50.3,8H49v2h2V8.7l1.9-1.9a.6.6,0,0,0,0-.8Z"/>
  </g>
</svg>
