<?xml version="1.0" encoding="utf-8"?>
<!-- Generator: Adobe Illustrator 19.1.1, SVG Export Plug-In . SVG Version: 6.00 Build 0)  -->
<svg version="1.1" id="Layer_3" xmlns="http://www.w3.org/2000/svg" xmlns:xlink="http://www.w3.org/1999/xlink" x="0px" y="0px"
	 width="58px" height="16px" viewBox="-470 493 58 16" style="enable-background:new -470 493 58 16;" xml:space="preserve">
<style type="text/css">
	.st0{fill:#0089D9;}
	.st1{fill:#C8C8C8;}
	.st2{fill:#39A6E6;}
</style>
<path class="st0" d="M-462.6,494.5c-0.9,0-1.6,0.7-1.6,1.6v0.5h-1.1v-0.5c0-1.5,1.2-2.7,2.7-2.7h1.1c1.5,0,2.7,1.2,2.7,2.7v0.5h-1.1
	v-0.5c0-0.9-0.7-1.6-1.6-1.6H-462.6z M-468.4,497.1c-0.9,0-1.6,0.7-1.6,1.6v4.2c0,0.3,0.2,0.7,0.5,0.9v3.3c0,0.9,0.7,1.6,1.6,1.6
	h11.7c0.9,0,1.6-0.7,1.6-1.6v-3.3c0.5-0.2,0.5-0.6,0.5-0.9v-4.2c0-0.9-0.7-1.6-1.6-1.6H-468.4z M-463.6,502.9v-1.1
	c0-0.3-0.2-0.5-0.5-0.5h-0.5v-2.7h-1.1v2.7h-0.5c-0.3,0-0.5,0.2-0.5,0.5v1.1h-2.1v-4.2c0-0.3,0.2-0.5,0.5-0.5h12.7
	c0.3,0,0.5,0.2,0.5,0.5v4.2h-2.1v-1.1c0-0.3-0.2-0.5-0.5-0.5h-0.5v-2.7h-1.1v2.7h-0.5c-0.3,0-0.5,0.2-0.5,0.5v1.1H-463.6z
	 M-467.9,507.7c-0.3,0-0.5-0.2-0.5-0.5v-3.7h1.6c0,1.1,0.7,1.6,1.6,1.6s1.6-0.5,1.6-1.6h3.2c0,1.1,0.7,1.6,1.6,1.6s1.6-0.5,1.6-1.6
	h1.6v3.7c0,0.3-0.2,0.5-0.5,0.5H-467.9z M-465.8,503.5v-1.1h1.1c0,0.4,0,0.7,0,1.1c0,0.3-0.2,0.5-0.5,0.5
	C-465.5,504-465.8,503.8-465.8,503.5z M-458.9,504c-0.3,0-0.5-0.2-0.5-0.5c0-0.4,0-0.7,0-1.1h1.1v1.1
	C-458.3,503.8-458.5,504-458.9,504z"/>
<path class="st1" d="M-441.5,494.5c-0.9,0-1.6,0.7-1.6,1.6v0.5h-1.1v-0.5c0-1.5,1.2-2.7,2.7-2.7h1.1c1.5,0,2.7,1.2,2.7,2.7v0.5h-1.1
	v-0.5c0-0.9-0.7-1.6-1.6-1.6H-441.5z M-447.4,497.1c-0.9,0-1.6,0.7-1.6,1.6v4.2c0,0.3,0.2,0.7,0.5,0.9v3.3c0,0.9,0.7,1.6,1.6,1.6
	h11.7c0.9,0,1.6-0.7,1.6-1.6v-3.3c0.5-0.2,0.5-0.6,0.5-0.9v-4.2c0-0.9-0.7-1.6-1.6-1.6H-447.4z M-442.6,502.9v-1.1
	c0-0.3-0.2-0.5-0.5-0.5h-0.5v-2.7h-1.1v2.7h-0.5c-0.3,0-0.5,0.2-0.5,0.5v1.1h-2.1v-4.2c0-0.3,0.2-0.5,0.5-0.5h12.7
	c0.3,0,0.5,0.2,0.5,0.5v4.2h-2.1v-1.1c0-0.3-0.2-0.5-0.5-0.5h-0.5v-2.7h-1.1v2.7h-0.5c-0.3,0-0.5,0.2-0.5,0.5v1.1H-442.6z
	 M-446.8,507.7c-0.3,0-0.5-0.2-0.5-0.5v-3.7h1.6c0,1.1,0.7,1.6,1.6,1.6s1.6-0.5,1.6-1.6h3.2c0,1.1,0.7,1.6,1.6,1.6s1.6-0.5,1.6-1.6
	h1.6v3.7c0,0.3-0.2,0.5-0.5,0.5H-446.8z M-444.7,503.5v-1.1h1.1c0,0.4,0,0.7,0,1.1c0,0.3-0.2,0.5-0.5,0.5S-444.7,503.8-444.7,503.5z
	 M-437.8,504c-0.3,0-0.5-0.2-0.5-0.5c0-0.4,0-0.7,0-1.1h1.1v1.1C-437.3,503.8-437.5,504-437.8,504z"/>
<path class="st2" d="M-420.5,494.5c-0.9,0-1.6,0.7-1.6,1.6v0.5h-1.1v-0.5c0-1.5,1.2-2.7,2.7-2.7h1.1c1.5,0,2.7,1.2,2.7,2.7v0.5h-1.1
	v-0.5c0-0.9-0.7-1.6-1.6-1.6H-420.5z M-426.3,497.1c-0.9,0-1.6,0.7-1.6,1.6v4.2c0,0.3,0.2,0.7,0.5,0.9v3.3c0,0.9,0.7,1.6,1.6,1.6
	h11.7c0.9,0,1.6-0.7,1.6-1.6v-3.3c0.5-0.2,0.5-0.6,0.5-0.9v-4.2c0-0.9-0.7-1.6-1.6-1.6H-426.3z M-421.5,502.9v-1.1
	c0-0.3-0.2-0.5-0.5-0.5h-0.5v-2.7h-1.1v2.7h-0.5c-0.3,0-0.5,0.2-0.5,0.5v1.1h-2.1v-4.2c0-0.3,0.2-0.5,0.5-0.5h12.7
	c0.3,0,0.5,0.2,0.5,0.5v4.2h-2.1v-1.1c0-0.3-0.2-0.5-0.5-0.5h-0.5v-2.7h-1.1v2.7h-0.5c-0.3,0-0.5,0.2-0.5,0.5v1.1H-421.5z
	 M-425.8,507.7c-0.3,0-0.5-0.2-0.5-0.5v-3.7h1.6c0,1.1,0.7,1.6,1.6,1.6s1.6-0.5,1.6-1.6h3.2c0,1.1,0.7,1.6,1.6,1.6s1.6-0.5,1.6-1.6
	h1.6v3.7c0,0.3-0.2,0.5-0.5,0.5H-425.8z M-423.7,503.5v-1.1h1.1c0,0.4,0,0.7,0,1.1c0,0.3-0.2,0.5-0.5,0.5
	C-423.5,504-423.7,503.8-423.7,503.5z M-416.8,504c-0.3,0-0.5-0.2-0.5-0.5c0-0.4,0-0.7,0-1.1h1.1v1.1
	C-416.2,503.8-416.5,504-416.8,504z"/>
</svg>
