<svg xmlns="http://www.w3.org/2000/svg" width="58" height="16" viewBox="0 0 58 16">
  <defs>
    <style>
      .cls-1 {
        fill: #0089d9;
      }

      .cls-1, .cls-2, .cls-3 {
        fill-rule: evenodd;
      }

      .cls-2 {
        fill: #c8c8c8;
      }

      .cls-3 {
        fill: #39a6e6;
      }
    </style>
  </defs>
  <title>16_cut</title>
  <g id="Cut">
    <path class="cls-1" d="M13.6,12.2a2.8,2.8,0,0,0-2.8-1.5L9.4,9.3h.4C13,6.7,13.3,0,13.3,0h-.6S11.6,5.8,8.3,8.7H8.1v.2H7.9V8.7H7.7C4.4,5.8,3.2,0,3.2,0H2.6s.2,6.7,3.5,9.3h.4L5.1,10.7a2.7,2.7,0,0,0-2.7,1.5c-.8,1.4-.6,3,.5,3.6s2.4,0,3.1-1.4a2.8,2.8,0,0,0,.2-2.8l.9-.9.9-.4.8.4.9.9a3.1,3.1,0,0,0,.2,2.8c.7,1.4,2.2,2,3.2,1.4S14.3,13.6,13.6,12.2ZM4.9,13.9c-.3.7-.9,1-1.3.7a1.5,1.5,0,0,1-.2-1.7c.3-.6,1-1.1,1.4-.8S5.3,13.3,4.9,13.9Zm7.4.7c-.4.3-1,0-1.3-.7s-.3-1.5.1-1.8,1.1.2,1.4.8A1.5,1.5,0,0,1,12.3,14.6Z"/>
    <path class="cls-2" d="M34.6,12.2a2.8,2.8,0,0,0-2.8-1.5L30.4,9.3h.4C34,6.7,34.3,0,34.3,0h-.6s-1.1,5.8-4.4,8.7h-.2v.2h-.1V8.7h-.1C25.4,5.8,24.2,0,24.2,0h-.6s.2,6.7,3.5,9.3h.4l-1.4,1.4a2.7,2.7,0,0,0-2.7,1.5c-.8,1.4-.6,3,.5,3.6s2.4,0,3.1-1.4a2.8,2.8,0,0,0,.2-2.8l.9-.9.9-.4.8.4.9.9a3.1,3.1,0,0,0,.2,2.8c.7,1.4,2.2,2,3.2,1.4S35.3,13.6,34.6,12.2Zm-8.7,1.7c-.3.7-.9,1-1.3.7a1.5,1.5,0,0,1-.2-1.7c.3-.6,1-1.1,1.4-.8S26.3,13.3,25.9,13.9Zm7.4.7c-.4.3-1,0-1.3-.7s-.3-1.5.1-1.8,1.1.2,1.4.8A1.5,1.5,0,0,1,33.3,14.6Z"/>
    <path class="cls-3" d="M55.6,12.2a2.7,2.7,0,0,0-2.7-1.5L51.5,9.3h.3C55.1,6.7,55.4,0,55.4,0h-.6s-1.2,5.8-4.5,8.7h-.1v.2H50V8.7h-.2C46.4,5.8,45.3,0,45.3,0h-.6s.2,6.7,3.5,9.3h.4l-1.4,1.4a2.8,2.8,0,0,0-2.8,1.5c-.7,1.4-.5,3,.5,3.6s2.5,0,3.2-1.4a3.1,3.1,0,0,0,.2-2.8l.9-.9.8-.4.9.4.9.9a2.8,2.8,0,0,0,.2,2.8c.7,1.4,2.1,2,3.2,1.4S56.4,13.6,55.6,12.2ZM47,13.9c-.3.7-.9,1-1.3.7a1.5,1.5,0,0,1-.2-1.7c.3-.6,1-1.1,1.4-.8S47.3,13.3,47,13.9Zm7.4.7c-.4.3-1,0-1.3-.7s-.4-1.5.1-1.8,1.1.2,1.4.8A1.5,1.5,0,0,1,54.4,14.6Z"/>
  </g>
</svg>
