<svg xmlns="http://www.w3.org/2000/svg" width="58" height="16" viewBox="0 0 58 16">
  <defs>
    <style>
      .cls-1 {
        fill: #0089d9;
      }

      .cls-1, .cls-2, .cls-3 {
        fill-rule: evenodd;
      }

      .cls-2 {
        fill: #c8c8c8;
      }

      .cls-3 {
        fill: #39a6e6;
      }
    </style>
  </defs>
  <title>16_changelog</title>
  <g id="Changelog">
    <path class="cls-1" d="M14.2,2.9A8.1,8.1,0,0,0,2.9,1.8,8.1,8.1,0,0,0,0,8H.9A6.7,6.7,0,0,1,3.5,2.6a7,7,0,0,1,9.9.9,7.1,7.1,0,0,1-1,9.9,7.1,7.1,0,0,1-9.9-1l-.4-.6L4,10H0v4l1.4-1.5.4.6A8,8,0,0,0,14.2,2.9ZM7.5,2a.5.5,0,0,0-.5.5v6a.5.5,0,0,0,.5.5h4a.5.5,0,0,0,0-1H8V2.5A.5.5,0,0,0,7.5,2Z"/>
    <path class="cls-2" d="M28.5,2a.5.5,0,0,0-.5.5v6a.5.5,0,0,0,.5.5h4a.5.5,0,0,0,0-1H29V2.5A.5.5,0,0,0,28.5,2Zm6.7.9A8,8,0,0,0,21,8h.9a6.7,6.7,0,0,1,2.6-5.4,7,7,0,0,1,9.9.9,7.1,7.1,0,0,1-1,9.9,7.1,7.1,0,0,1-9.9-1l-.4-.6L25,10H21v4l1.4-1.5.4.6A8,8,0,1,0,35.2,2.9Z"/>
    <path class="cls-3" d="M56.2,2.9A8,8,0,0,0,42,8h.9a6.7,6.7,0,0,1,2.6-5.4,7,7,0,0,1,9.9.9,7.1,7.1,0,0,1-1,9.9,7.1,7.1,0,0,1-9.9-1l-.4-.6L46,10H42v4l1.4-1.5.4.6A8,8,0,1,0,56.2,2.9ZM49.5,2a.5.5,0,0,0-.5.5v6a.5.5,0,0,0,.5.5h4a.5.5,0,0,0,0-1H50V2.5A.5.5,0,0,0,49.5,2Z"/>
  </g>
</svg>
