<svg xmlns="http://www.w3.org/2000/svg" width="79" height="16" viewBox="0 0 79 16">
  <defs>
    <style>
      .cls-1 {
        fill: #0089d9;
      }

      .cls-1, .cls-2, .cls-3 {
        fill-rule: evenodd;
      }

      .cls-2 {
        fill: #39a6e6;
      }

      .cls-3 {
        fill: #c8c8c8;
      }
    </style>
  </defs>
  <title>16_comment</title>
  <g id="Comment">
    <path class="cls-1" d="M75,0H67a4,4,0,0,0-4,4V8a4,4,0,0,0,4,4c.7,0,1,2.7,1,4h1c0-2,2.4-4,3.3-4H75a4,4,0,0,0,4-4V4A4,4,0,0,0,75,0ZM69,7H67V5h2Zm3,0H70V5h2Zm3,0H73V5h2Z"/>
    <path class="cls-2" d="M51,5H49v.9h0V7h2V6h0ZM48,5H46v.9h0V7h2V6h0Zm6-5H46a4,4,0,0,0-4,4V8a4,4,0,0,0,4,4c.7,0,1,2.7,1,4h1c0-2,2.4-4,3.3-4H54a4,4,0,0,0,4-4V4A4,4,0,0,0,54,0Zm3,8a3,3,0,0,1-3,3H51a3.2,3.2,0,0,0-3,2,1.9,1.9,0,0,0-2-2,2.9,2.9,0,0,1-3-3V4a2.9,2.9,0,0,1,3-3h8a3,3,0,0,1,3,3ZM54,5H52v.9h0V7h2V6h0Z"/>
    <path class="cls-3" d="M30,5H28v.9h0V7h2V6h0ZM27,5H25v.9h0V7h2V6h0Zm6,0H31v.9h0V7h2V6h0Zm0-5H25a4,4,0,0,0-4,4V8a4,4,0,0,0,4,4c.7,0,1,2.7,1,4h1c0-2,2.4-4,3.3-4H33a4,4,0,0,0,4-4V4A4,4,0,0,0,33,0Zm3,8a3,3,0,0,1-3,3H30a3.2,3.2,0,0,0-3,2,1.9,1.9,0,0,0-2-2,2.9,2.9,0,0,1-3-3V4a2.9,2.9,0,0,1,3-3h8a3,3,0,0,1,3,3Z"/>
    <path class="cls-1" d="M9,5H7v.9H7V7H9V6H9ZM6,5H4v.9H4V7H6V6H6Zm6,0H10v.9h0V7h2V6h0Zm0-5H4A4,4,0,0,0,0,4V8a4,4,0,0,0,4,4c.7,0,1,2.7,1,4H6c0-2,2.4-4,3.3-4H12a4,4,0,0,0,4-4V4A4,4,0,0,0,12,0Zm3,8a2.9,2.9,0,0,1-3,3H9a3.2,3.2,0,0,0-3,2,1.8,1.8,0,0,0-2-2A2.9,2.9,0,0,1,1,8V4A2.9,2.9,0,0,1,4,1h8a2.9,2.9,0,0,1,3,3Z"/>
  </g>
</svg>
