<svg xmlns="http://www.w3.org/2000/svg" width="58" height="16" viewBox="0 0 58 16">
  <defs>
    <style>
      .cls-1 {
        fill: #0089d9;
      }

      .cls-1, .cls-2, .cls-3 {
        fill-rule: evenodd;
      }

      .cls-2 {
        fill: #c8c8c8;
      }

      .cls-3 {
        fill: #39a6e6;
      }
    </style>
  </defs>
  <title>16_delete</title>
  <g id="Delete">
    <path class="cls-1" d="M5,3H1.5A1.4,1.4,0,0,0,0,4.4V5H1V4.5c0-.3.2-.5.7-.5H8V3H6.2A1.8,1.8,0,0,1,8,1.2V0A3.1,3.1,0,0,0,5,3ZM4,14c0-1.1-.9-8-.9-8S1.9,5,1.9,6l.8,8.7c0,.5.9,1.3,1.3,1.3H8V15H5A1,1,0,0,1,4,14Zm6-2.5v-5a.5.5,0,0,0-1,0v5a.5.5,0,0,0,1,0Zm-3,0v-5a.5.5,0,0,0-1,0v5a.5.5,0,0,0,1,0ZM12.9,6s-.9,6.9-.9,8a1,1,0,0,1-1,1H8v1h4c.4,0,1.3-.8,1.3-1.3L14.1,6C14.1,5,12.9,5,12.9,6Zm1.6-3H11A3.1,3.1,0,0,0,8,0V1.2A1.8,1.8,0,0,1,9.8,3H8V4h6.3c.5,0,.7.2.7.5V5h1V4.4A1.4,1.4,0,0,0,14.5,3Z"/>
    <path class="cls-2" d="M26,3H22.5A1.4,1.4,0,0,0,21,4.4V5h1V4.5c0-.3.2-.5.7-.5H29V3H27.2A1.8,1.8,0,0,1,29,1.2V0A3.1,3.1,0,0,0,26,3ZM25,14c0-1.1-.9-8-.9-8s-1.2-1-1.2,0l.8,8.7c0,.5.9,1.3,1.3,1.3h4V15H26A1,1,0,0,1,25,14Zm6-2.5v-5a.5.5,0,0,0-1,0v5a.5.5,0,0,0,1,0Zm-3,0v-5a.5.5,0,0,0-1,0v5a.5.5,0,0,0,1,0ZM33.9,6s-.9,6.9-.9,8a1,1,0,0,1-1,1H29v1h4c.4,0,1.3-.8,1.3-1.3L35.1,6C35.1,5,33.9,5,33.9,6Zm1.6-3H32a3.1,3.1,0,0,0-3-3V1.2A1.8,1.8,0,0,1,30.8,3H29V4h6.3c.5,0,.7.2.7.5V5h1V4.4A1.4,1.4,0,0,0,35.5,3Z"/>
    <path class="cls-3" d="M47,3H43.5A1.4,1.4,0,0,0,42,4.4V5h1V4.5c0-.3.2-.5.7-.5H50V3H48.2A1.8,1.8,0,0,1,50,1.2V0A3.1,3.1,0,0,0,47,3ZM46,14c0-1.1-.9-8-.9-8s-1.2-1-1.2,0l.8,8.7c0,.5.9,1.3,1.3,1.3h4V15H47A1,1,0,0,1,46,14Zm6-2.5v-5a.5.5,0,0,0-1,0v5a.5.5,0,0,0,1,0Zm-3,0v-5a.5.5,0,0,0-1,0v5a.5.5,0,0,0,1,0ZM54.9,6s-.9,6.9-.9,8a1,1,0,0,1-1,1H50v1h4c.4,0,1.3-.8,1.3-1.3L56.1,6C56.1,5,54.9,5,54.9,6Zm1.6-3H53a3.1,3.1,0,0,0-3-3V1.2A1.8,1.8,0,0,1,51.8,3H50V4h6.3c.5,0,.7.2.7.5V5h1V4.4A1.4,1.4,0,0,0,56.5,3Z"/>
  </g>
</svg>
