<svg xmlns="http://www.w3.org/2000/svg" width="58" height="16" viewBox="0 0 58 16">
  <defs>
    <style>
      .cls-1 {
        fill: #0089d9;
      }

      .cls-1, .cls-2, .cls-3 {
        fill-rule: evenodd;
      }

      .cls-2 {
        fill: #c8c8c8;
      }

      .cls-3 {
        fill: #39a6e6;
      }
    </style>
  </defs>
  <title>16_download</title>
  <g id="Download">
    <path class="cls-1" d="M14,10v3a.9.9,0,0,1-1,1H2a.9.9,0,0,1-1-1V10H0v4a.9.9,0,0,0,1,1H14a.9.9,0,0,0,1-1V10ZM6.9,11.6h.2c0,.2.2.3.4.3s.4-.1.4-.3h.2l2.8-2.8a.5.5,0,1,0-.7-.7L8,10.3V1.5a.5.5,0,0,0-1,0v8.8L4.8,8.1a.5.5,0,1,0-.7.7Z"/>
    <path class="cls-2" d="M27.9,11.6h.2c0,.2.2.3.4.3s.4-.1.4-.3h.2l2.8-2.8a.5.5,0,0,0-.7-.7L29,10.3V1.5a.5.5,0,0,0-1,0v8.8L25.8,8.1a.5.5,0,0,0-.7.7ZM35,10v3a.9.9,0,0,1-1,1H23a.9.9,0,0,1-1-1V10H21v4a.9.9,0,0,0,1,1H35a.9.9,0,0,0,1-1V10Z"/>
    <path class="cls-3" d="M48.9,11.6h.2c0,.2.2.3.4.3s.4-.1.4-.3h.2l2.8-2.8a.5.5,0,0,0-.7-.7L50,10.3V1.5a.5.5,0,0,0-1,0v8.8L46.8,8.1a.5.5,0,0,0-.7.7ZM56,10v3a.9.9,0,0,1-1,1H44a.9.9,0,0,1-1-1V10H42v4a.9.9,0,0,0,1,1H56a.9.9,0,0,0,1-1V10Z"/>
  </g>
</svg>
