<svg xmlns="http://www.w3.org/2000/svg" width="58" height="16" viewBox="0 0 58 16">
  <defs>
    <style>
      .cls-1 {
        fill: #0089d9;
      }

      .cls-1, .cls-2, .cls-3 {
        fill-rule: evenodd;
      }

      .cls-2 {
        fill: #c8c8c8;
      }

      .cls-3 {
        fill: #39a6e6;
      }
    </style>
  </defs>
  <title>16_edit</title>
  <g id="Edit">
    <path class="cls-1" d="M2,11.3,0,16l4.7-1.9,10-10L11.9,1.3Zm-.3,3,.8-2.5c.3.3.3,1.4.3,1.4s1.1,0,1.4.3Zm14-13-1-1c-.9-.9-2.2.5-2.2.5l2.7,2.8S16.6,2.2,15.7,1.3Z"/>
    <path class="cls-2" d="M23,11.3,21,16l4.7-1.9,10-10L32.9,1.3Zm-.3,3,.8-2.5c.3.3.3,1.4.3,1.4s1.1,0,1.4.3Zm14-13-1-1c-.9-.9-2.2.5-2.2.5l2.7,2.8S37.6,2.2,36.7,1.3Z"/>
    <path class="cls-3" d="M44,11.3,42,16l4.7-1.9,10-10L53.9,1.3Zm-.3,3,.8-2.5c.3.3.3,1.4.3,1.4s1.1,0,1.4.3Zm14-13L56.6.3c-.8-.9-2.2.5-2.2.5l2.8,2.8S58.6,2.2,57.7,1.3Z"/>
  </g>
</svg>
