<svg xmlns="http://www.w3.org/2000/svg" width="58" height="16" viewBox="0 0 58 16">
  <defs>
    <style>
      .cls-1 {
        fill: #0089d9;
      }

      .cls-1, .cls-2, .cls-3 {
        fill-rule: evenodd;
      }

      .cls-2 {
        fill: #c8c8c8;
      }

      .cls-3 {
        fill: #39a6e6;
      }
    </style>
  </defs>
  <title>16_email</title>
  <g id="Email">
    <path class="cls-1" d="M14,2H2A2,2,0,0,0,0,4v8a2,2,0,0,0,2,2H14a2,2,0,0,0,2-2V4A2,2,0,0,0,14,2Zm.2,1L8,8,1.8,3ZM5.6,7.5,1,12.9V3.7ZM1.1,13,6.7,8.3,8,9.4,9.3,8.3,14.9,13ZM15,12.9,10.4,7.4,15,3.7Z"/>
    <path class="cls-2" d="M35,2H23a2,2,0,0,0-2,2v8a2,2,0,0,0,2,2H35a2,2,0,0,0,2-2V4A2,2,0,0,0,35,2Zm.2,1L29,8,22.8,3ZM26.6,7.5,22,12.9V3.7ZM22.1,13l5.6-4.7L29,9.4l1.3-1.1L35.9,13ZM36,12.9,31.4,7.4,36,3.7Z"/>
    <path class="cls-3" d="M56,2H44a2,2,0,0,0-2,2v8a2,2,0,0,0,2,2H56a2,2,0,0,0,2-2V4A2,2,0,0,0,56,2Zm.2,1L50,8,43.8,3ZM47.6,7.5,43,12.9V3.7ZM43.1,13l5.6-4.7L50,9.4l1.3-1.1L56.9,13ZM57,12.9,52.4,7.4,57,3.7Z"/>
  </g>
</svg>
