<?xml version="1.0" encoding="utf-8"?>
<!-- Generator: Adobe Illustrator 19.1.1, SVG Export Plug-In . SVG Version: 6.00 Build 0)  -->
<svg version="1.1" id="Layer_2_1_" xmlns="http://www.w3.org/2000/svg" xmlns:xlink="http://www.w3.org/1999/xlink" x="0px" y="0px"
	 width="58px" height="16px" viewBox="-458 497 58 16" style="enable-background:new -458 497 58 16;" xml:space="preserve">
<style type="text/css">
	.st0{fill:#0089D9;}
	.st1{fill:#C8C8C8;}
	.st2{fill:#39A6E6;}
</style>
<path class="st0" d="M-449.6,506.9c0.3,0,0.8,0.1,1,0c0,0.5-0.5,1.3-1,2l1.5-1c0.8,1.7,5,1.8,5,3.2c0,0.9-4.9,0.9-7,0.8
	c-2.1,0.1-7,0.1-7-0.8c0-1.5,3.8-1.5,5-3.2l1.5,1c-0.5-0.5-1-1.5-1-2c0.2,0.1,0.7,0,1,0c-0.5-0.2-0.9-0.7-1-1
	c-0.3-0.6-0.6-0.3-0.5-2c-0.3,0.1-0.7,0.1-1-0.5c-0.1-0.3-0.2-0.9,0-1c0.3-0.1,0.5,0.5,0.5,0.5c0.5-1.3-0.5-1.5-0.5-3
	c0-1.4,1.1-2,2.5-2c0.9,0,1.9,0.3,1.9,1.1c0.5-0.1,1.1-0.1,1.1,0.9c0.1,1.5-0.7,0.9,0,3c0.1,0,0.1-0.7,0.5-0.5
	c0.2,0.1,0.2,0.9,0.1,1.1c-0.3,0.7-0.8,0.4-1.1,0.3c0.1,1.7-0.3,1.5-0.5,2C-448.8,506.5-449.6,506.9-449.6,506.9z M-447.7,506.1
	c0.3-0.3,0.5-0.5,0.5-1.3c0.7,0,1.1-1.1,1.1-1.7c0-0.8-0.5-1.1-0.7-1.1s0.3-0.9,0.3-1.8c0-0.8-0.1-1.9-1.3-1.8
	c-1.3-2.1-6.2-1.7-6.2,1.7c0,1.1,0.4,1.5,0.5,1.9c-0.5,0-0.5,0.7-0.5,1.1c0,0.7,0.3,1.7,1,1.7c0,0.8,0.3,1,0.7,1.4
	c0.1,0.3,0.1,0.9,0,1c-0.1-0.1-0.3-0.1-0.4,0.1c-0.5,0.5-1.3,0.9-2.4,1.5c-1.5,0.7-3,0.9-3,2.9c0.1,1.4,4.4,1.4,7.9,1.4l0,0l0,0
	c3.5,0,7.9,0,7.9-1.3c0-2.1-1.5-2.3-3-2.9c-1.1-0.5-1.9-0.9-2.3-1.5c-0.1-0.1-0.3-0.1-0.4-0.1C-447.9,507.2-448.1,506.5-447.7,506.1
	z"/>
<path class="st1" d="M-428.5,507c0.3,0,0.8,0.1,1,0c0,0.5-0.5,1.3-1,2l1.5-1c0.8,1.7,5,1.8,5,3.2c0,0.9-4.9,0.9-7,0.8
	c-2.1,0.1-7,0.1-7-0.8c0-1.5,3.8-1.5,5-3.2l1.5,1c-0.5-0.5-1-1.5-1-2c0.2,0.1,0.7,0,1,0c-0.5-0.2-0.9-0.7-1-1
	c-0.3-0.6-0.6-0.3-0.5-2c-0.3,0.1-0.7,0.1-1-0.5c-0.1-0.3-0.2-0.9,0-1c0.3-0.1,0.5,0.5,0.5,0.5c0.5-1.3-0.5-1.5-0.5-3
	c0-1.4,1.1-2,2.5-2c0.9,0,1.9,0.3,1.9,1.1c0.5-0.1,1.1-0.1,1.1,0.9c0.1,1.5-0.7,0.9,0,3c0.1,0,0.1-0.7,0.5-0.5
	c0.2,0.1,0.2,0.9,0.1,1.1c-0.3,0.7-0.8,0.4-1.1,0.3c0.1,1.7-0.3,1.5-0.5,2C-427.7,506.5-428.5,507-428.5,507z M-426.6,506.1
	c0.3-0.3,0.5-0.5,0.5-1.3c0.7,0,1.1-1.1,1.1-1.7c0-0.8-0.5-1.1-0.7-1.1c-0.2,0,0.3-0.9,0.3-1.8c0-0.8-0.1-1.9-1.3-1.8
	c-1.3-2.1-6.2-1.7-6.2,1.7c0,1.1,0.4,1.5,0.5,1.9c-0.5,0-0.5,0.7-0.5,1.1c0,0.7,0.3,1.7,1,1.7c0,0.8,0.3,1,0.7,1.4
	c0.1,0.3,0.1,0.9,0,1c-0.1-0.1-0.3-0.1-0.4,0.1c-0.5,0.5-1.3,0.9-2.4,1.5c-1.5,0.7-3,0.9-3,2.9c0.1,1.4,4.4,1.4,7.9,1.4l0,0l0,0
	c3.5,0,7.9,0,7.9-1.3c0-2.1-1.5-2.3-3-2.9c-1.1-0.5-1.9-0.9-2.3-1.5c-0.1-0.1-0.3-0.1-0.4-0.1C-426.8,507.2-427,506.6-426.6,506.1z"
	/>
<path class="st2" d="M-407.5,506.9c0.3,0,0.8,0.1,1,0c0,0.5-0.5,1.3-1,2l1.5-1c0.8,1.7,5,1.8,5,3.2c0,0.9-4.9,0.9-7,0.8
	c-2.1,0.1-7,0.1-7-0.8c0-1.5,3.8-1.5,5-3.2l1.5,1c-0.5-0.5-1-1.5-1-2c0.2,0.1,0.7,0,1,0c-0.5-0.2-0.9-0.7-1-1
	c-0.3-0.6-0.6-0.3-0.5-2c-0.3,0.1-0.7,0.1-1-0.5c-0.1-0.3-0.2-0.9,0-1c0.3-0.1,0.5,0.5,0.5,0.5c0.5-1.3-0.5-1.5-0.5-3
	c0-1.4,1.1-2,2.5-2c0.9,0,1.9,0.3,1.9,1.1c0.5-0.1,1.1-0.1,1.1,0.9c0.1,1.5-0.7,0.9,0,3c0.1,0,0.1-0.7,0.5-0.5
	c0.2,0.1,0.2,0.9,0.1,1.1c-0.3,0.7-0.8,0.4-1.1,0.3c0.1,1.7-0.3,1.5-0.5,2C-406.6,506.5-407.5,506.9-407.5,506.9z M-405.6,506.1
	c0.3-0.3,0.5-0.5,0.5-1.3c0.7,0,1.1-1.1,1.1-1.7c0-0.8-0.5-1.1-0.7-1.1c-0.2,0,0.3-0.9,0.3-1.8c0-0.8-0.1-1.9-1.3-1.8
	c-1.3-2.1-6.2-1.7-6.2,1.7c0,1.1,0.4,1.5,0.5,1.9c-0.5,0-0.5,0.7-0.5,1.1c0,0.7,0.3,1.7,1,1.7c0,0.8,0.3,1,0.7,1.4
	c0.1,0.3,0.1,0.9,0,1c-0.1-0.1-0.3-0.1-0.4,0.1c-0.5,0.5-1.3,0.9-2.4,1.5c-1.5,0.7-3,0.9-3,2.9c0.1,1.4,4.4,1.4,7.9,1.4l0,0l0,0
	c3.5,0,7.9,0,7.9-1.3c0-2.1-1.5-2.3-3-2.9c-1.1-0.5-1.9-0.9-2.3-1.5c-0.1-0.1-0.3-0.1-0.4-0.1C-405.8,507.2-406,506.5-405.6,506.1z"
	/>
</svg>
