<svg xmlns="http://www.w3.org/2000/svg" width="100" height="16" viewBox="0 0 100 16">
  <defs>
    <style>
      .cls-1 {
        fill: #737373;
      }

      .cls-1, .cls-2, .cls-3, .cls-4, .cls-5 {
        fill-rule: evenodd;
      }

      .cls-2 {
        fill: #fff;
      }

      .cls-3 {
        fill: #0089d9;
      }

      .cls-4 {
        fill: #c8c8c8;
      }

      .cls-5 {
        fill: #39a6e6;
      }
    </style>
  </defs>
  <title>16_export</title>
  <g id="Export">
    <path class="cls-1" d="M99.9.1H95.5a.5.5,0,0,0-.5.5.5.5,0,0,0,.5.5h2.8L90,9.3c-.2.2-.2.6,0,.7a.5.5,0,0,0,.7,0L99,1.7V4.5a.5.5,0,0,0,1,0V.5A.6.6,0,0,0,99.9.1ZM97.5,7a.5.5,0,0,0-.5.5V15H85V3h7.5a.5.5,0,0,0,.5-.5.5.5,0,0,0-.5-.5h-8a.5.5,0,0,0-.5.5v13a.5.5,0,0,0,.5.5h13a.5.5,0,0,0,.5-.5v-8A.5.5,0,0,0,97.5,7Z"/>
    <path class="cls-2" d="M78.9.1H74.5a.5.5,0,0,0-.5.5.5.5,0,0,0,.5.5h2.8L69,9.3c-.2.2-.2.6,0,.7a.5.5,0,0,0,.7,0L78,1.7V4.5a.5.5,0,0,0,1,0V.5A.6.6,0,0,0,78.9.1ZM76.5,7a.5.5,0,0,0-.5.5V15H64V3h7.5a.5.5,0,0,0,.5-.5.5.5,0,0,0-.5-.5h-8a.5.5,0,0,0-.5.5v13a.5.5,0,0,0,.5.5h13a.5.5,0,0,0,.5-.5v-8A.5.5,0,0,0,76.5,7Z"/>
    <path class="cls-3" d="M15.9.1H11.5a.5.5,0,0,0-.5.5.5.5,0,0,0,.5.5h2.8L6,9.3a.5.5,0,1,0,.7.7L15,1.7V4.5a.5.5,0,0,0,1,0V.5A.6.6,0,0,0,15.9.1ZM13.5,7a.5.5,0,0,0-.5.5V15H1V3H8.5A.5.5,0,0,0,9,2.5.5.5,0,0,0,8.5,2H.5a.5.5,0,0,0-.5.5v13a.5.5,0,0,0,.5.5h13a.5.5,0,0,0,.5-.5v-8A.5.5,0,0,0,13.5,7Z"/>
    <path class="cls-4" d="M36.9.1H32.5a.5.5,0,0,0-.5.5.5.5,0,0,0,.5.5h2.8L27,9.3a.5.5,0,0,0,0,.7c.1.2.5.2.7,0L36,1.7V4.5a.5.5,0,0,0,1,0V.5A.6.6,0,0,0,36.9.1ZM34.5,7a.5.5,0,0,0-.5.5V15H22V3h7.5a.5.5,0,0,0,.5-.5.5.5,0,0,0-.5-.5h-8a.5.5,0,0,0-.5.5v13a.5.5,0,0,0,.5.5h13a.5.5,0,0,0,.5-.5v-8A.5.5,0,0,0,34.5,7Z"/>
    <path class="cls-5" d="M57.9.1H53.5a.5.5,0,0,0-.5.5.5.5,0,0,0,.5.5h2.8L48,9.3a.5.5,0,0,0,.7.7L57,1.7V4.5a.5.5,0,0,0,1,0V.5A.6.6,0,0,0,57.9.1ZM55.5,7a.5.5,0,0,0-.5.5V15H43V3h7.5a.5.5,0,0,0,.5-.5.5.5,0,0,0-.5-.5h-8a.5.5,0,0,0-.5.5v13a.5.5,0,0,0,.5.5h13a.5.5,0,0,0,.5-.5v-8A.5.5,0,0,0,55.5,7Z"/>
  </g>
</svg>
