<svg xmlns="http://www.w3.org/2000/svg" width="99.9" height="16" viewBox="0 0 99.9 16">
  <defs>
    <style>
      .cls-1 {
        fill: #0089d9;
      }

      .cls-1, .cls-2, .cls-3, .cls-4, .cls-5 {
        fill-rule: evenodd;
      }

      .cls-2 {
        fill: #c8c8c8;
      }

      .cls-3 {
        fill: #39a6e6;
      }

      .cls-4 {
        fill: #fff;
      }

      .cls-5 {
        fill: #737373;
      }
    </style>
  </defs>
  <title>16_favourite</title>
  <g id="Favourite">
    <path class="cls-1" d="M15.7,6.6a.9.9,0,0,0-.5-1.5l-4.6-.4C10.5,4.7,8.8.6,8.7.5A.8.8,0,0,0,8,0a1,1,0,0,0-.8.5L5.4,4.7.7,5.1A.8.8,0,0,0,.3,6.6l3.5,3c0,.1-1,4.5-1.1,4.5A.9.9,0,0,0,4,15l4-2.3L12,15a.8.8,0,0,0,1.2-.9l-1-4.5ZM12,13.8c-3.6-2.2-3.8-2.2-4-2.2s-.4,0-4.1,2.2c1-4.2,1-4.2.9-4.5s-.1-.4-3.4-3.1c4.3-.4,4.4-.5,4.6-.6s.3-.4,2-4.4v.2c1.6,4,1.7,4,2,4.2s.3.2,4.5.6C11.3,8.9,11.2,9,11.2,9.3S11.1,9.6,12,13.8ZM5.1,7.2a.4.4,0,0,0-.5,0,.4.4,0,0,0,0,.5l1,.9a.2.2,0,0,0,.4,0,.2.2,0,0,0,0-.4Z"/>
    <path class="cls-2" d="M36.7,6.6a.9.9,0,0,0-.5-1.5l-4.6-.4c-.1,0-1.8-4.1-1.9-4.2A.8.8,0,0,0,29,0a1,1,0,0,0-.8.5L26.4,4.7l-4.7.4a.8.8,0,0,0-.4,1.5l3.5,3c0,.1-1,4.5-1.1,4.5A.9.9,0,0,0,25,15l4-2.3L33,15a.8.8,0,0,0,1.2-.9l-1-4.5ZM33,13.8c-3.6-2.2-3.8-2.2-4-2.2s-.4,0-4.1,2.2c1-4.2,1-4.2.9-4.5s-.1-.4-3.4-3.1c4.3-.4,4.4-.5,4.6-.6s.3-.4,2-4.4v.2c1.6,4,1.7,4,2,4.2s.3.2,4.5.6C32.3,8.9,32.2,9,32.2,9.3S32.1,9.6,33,13.8ZM26.1,7.2a.4.4,0,0,0-.5,0,.4.4,0,0,0,0,.5l1,.9a.2.2,0,0,0,.4,0,.2.2,0,0,0,0-.4Z"/>
    <path class="cls-3" d="M57.7,6.6a.8.8,0,0,0-.4-1.5l-4.7-.4L50.8.5A1,1,0,0,0,50,0a.8.8,0,0,0-.7.5c-.1.1-1.8,4.2-1.9,4.2l-4.6.4a.9.9,0,0,0-.5,1.5l3.5,3-1,4.5A.8.8,0,0,0,46,15l4-2.3L54,15a.9.9,0,0,0,1.3-.9c-.1,0-1.1-4.4-1.1-4.5Zm-3.6,7.2c-3.7-2.2-3.8-2.2-4.1-2.2s-.4,0-4,2.2c1-4.2.9-4.2.8-4.5s-.1-.4-3.3-3.1c4.2-.4,4.3-.5,4.6-.6s.3-.4,1.9-4.4v.2c1.7,4,1.7,4,2,4.2s.3.2,4.6.6C53.3,8.9,53.3,9,53.2,9.3S53.1,9.6,54.1,13.8Zm-7-6.6a.3.3,0,0,0-.4,0c-.2.2-.2.4,0,.5l.9.9a.3.3,0,0,0,.5,0,.3.3,0,0,0,0-.4Z"/>
    <path class="cls-4" d="M78.7,6.6a.8.8,0,0,0-.4-1.5l-4.7-.4L71.8.5A1,1,0,0,0,71,0a.8.8,0,0,0-.7.5c-.1.1-1.8,4.2-1.9,4.2l-4.6.4a.9.9,0,0,0-.5,1.5l3.5,3-1,4.5A.8.8,0,0,0,67,15l4-2.3L75,15a.9.9,0,0,0,1.3-.9c-.1,0-1.1-4.4-1.1-4.5Zm-3.6,7.2c-3.7-2.2-3.8-2.2-4.1-2.2s-.4,0-4,2.2c1-4.2.9-4.2.8-4.5s-.1-.4-3.3-3.1c4.2-.4,4.3-.5,4.6-.6s.3-.4,1.9-4.4v.2c1.7,4,1.7,4,2,4.2s.3.2,4.6.6C74.3,8.9,74.3,9,74.2,9.3S74.1,9.6,75.1,13.8Zm-7-6.6a.3.3,0,0,0-.4,0c-.2.2-.2.4,0,.5l.9.9a.3.3,0,0,0,.5,0,.3.3,0,0,0,0-.4Z"/>
    <path class="cls-5" d="M99.7,6.6a.9.9,0,0,0-.5-1.5l-4.6-.4c-.1,0-1.8-4.1-1.9-4.2A.8.8,0,0,0,92,0a1,1,0,0,0-.8.5L89.4,4.7l-4.7.4a.8.8,0,0,0-.4,1.5l3.5,3c0,.1-1,4.5-1.1,4.5A.9.9,0,0,0,88,15l4-2.3L96,15a.8.8,0,0,0,1.2-.9l-1-4.5ZM96,13.8c-3.6-2.2-3.8-2.2-4-2.2s-.4,0-4.1,2.2c1-4.2,1-4.2.9-4.5s-.1-.4-3.4-3.1c4.3-.4,4.4-.5,4.6-.6s.3-.4,2-4.4v.2c1.6,4,1.7,4,2,4.2s.3.2,4.5.6C95.3,8.9,95.2,9,95.2,9.3S95.1,9.6,96,13.8ZM89.1,7.2a.4.4,0,0,0-.5,0,.4.4,0,0,0,0,.5l1,.9a.2.2,0,0,0,.4,0,.2.2,0,0,0,0-.4Z"/>
  </g>
</svg>
