<svg xmlns="http://www.w3.org/2000/svg" width="58" height="16" viewBox="0 0 58 16">
  <defs>
    <style>
      .cls-1 {
        fill: #0089d9;
      }

      .cls-1, .cls-2, .cls-3 {
        fill-rule: evenodd;
      }

      .cls-2 {
        fill: #c8c8c8;
      }

      .cls-3 {
        fill: #39a6e6;
      }
    </style>
  </defs>
  <title>16_flag</title>
  <g id="Flag">
    <path class="cls-1" d="M9.3.9C7.6-.5,4.3-.2,3,1.4v10c1.8-1.4,4-2,6-.5s4.4,1.6,6-.2V.7C12.8,2,11.4,2.7,9.3.9ZM14,10.3c-1.6,1.4-2.7.6-4.6-.6A6.9,6.9,0,0,0,4,9.3V1.6a4.6,4.6,0,0,1,5,.3,5.2,5.2,0,0,0,5,.7ZM1.5,0A.5.5,0,0,0,1,.5v15a.5.5,0,0,0,.5.5.5.5,0,0,0,.5-.5V.5A.5.5,0,0,0,1.5,0Z"/>
    <path class="cls-2" d="M30.3.9c-1.7-1.4-5-1.1-6.3.5v10c1.9-1.4,4-2,6-.5s4.4,1.6,6-.2V.7C33.9,2,32.4,2.7,30.3.9ZM35,10.3c-1.6,1.4-2.7.6-4.6-.6A6.9,6.9,0,0,0,25,9.3V1.6a4.6,4.6,0,0,1,5,.3,5.2,5.2,0,0,0,5,.7ZM22.5,0a.5.5,0,0,0-.5.5v15a.5.5,0,0,0,1,0V.5A.5.5,0,0,0,22.5,0Z"/>
    <path class="cls-3" d="M51.3.9c-1.7-1.4-5-1.1-6.3.5v10c1.9-1.4,4-2,6-.5s4.4,1.6,6-.2V.7C54.9,2,53.4,2.7,51.3.9ZM56,10.3c-1.6,1.4-2.7.6-4.6-.6A6.9,6.9,0,0,0,46,9.3V1.6a4.6,4.6,0,0,1,5,.3,5.2,5.2,0,0,0,5,.7ZM43.5,0a.5.5,0,0,0-.5.5v15a.5.5,0,0,0,1,0V.5A.5.5,0,0,0,43.5,0Z"/>
  </g>
</svg>
