<svg xmlns="http://www.w3.org/2000/svg" width="58" height="16" viewBox="0 0 58 16">
  <defs>
    <style>
      .cls-1 {
        fill: #0089d9;
      }

      .cls-1, .cls-2, .cls-3, .cls-4, .cls-5, .cls-6, .cls-7 {
        fill-rule: evenodd;
      }

      .cls-2 {
        fill: #ff8b00;
      }

      .cls-3 {
        fill: #68a611;
      }

      .cls-4 {
        fill: #c8c8c8;
      }

      .cls-5 {
        fill: #39a6e6;
      }

      .cls-6 {
        fill: #ffa526;
      }

      .cls-7 {
        fill: #8ec928;
      }
    </style>
  </defs>
  <title>16_graphs</title>
  <g id="Graph">
    <path class="cls-1" d="M16,7A6.7,6.7,0,0,0,9,0V7ZM10,1.4c2,0,4.7,2.6,4.7,4.6H10Z"/>
    <path class="cls-2" d="M0,9c0,4.1,3.5,7,7.5,7S15,13.1,15,9Zm7.5,6c-4,0-6.2-3.9-6.2-5H13.7C13.7,11.1,11.5,15,7.5,15Z"/>
    <path class="cls-3" d="M7,1A6.7,6.7,0,0,0,0,8H7ZM6,7H1.3C1.3,5,4,2.3,6,2.3Z"/>
    <path class="cls-4" d="M37,7a6.7,6.7,0,0,0-7-7V7ZM31,1.4c2,0,4.7,2.6,4.7,4.6H31Z"/>
    <path class="cls-4" d="M21,9c0,4.1,3.5,7,7.5,7S36,13.1,36,9Zm7.5,6c-4,0-6.2-3.9-6.2-5H34.7C34.7,11.1,32.5,15,28.5,15Z"/>
    <path class="cls-4" d="M28,1a6.7,6.7,0,0,0-7,7h7ZM27,7H22.3c0-2,2.7-4.7,4.7-4.7Z"/>
    <path class="cls-5" d="M58,7a6.7,6.7,0,0,0-7-7V7ZM52,1.4c2,0,4.7,2.6,4.7,4.6H52Z"/>
    <path class="cls-6" d="M42,9c0,4.1,3.5,7,7.5,7S57,13.1,57,9Zm7.5,6c-4,0-6.2-3.9-6.2-5H55.7C55.7,11.1,53.5,15,49.5,15Z"/>
    <path class="cls-7" d="M49,1a6.7,6.7,0,0,0-7,7h7ZM48,7H43.3c0-2,2.7-4.7,4.7-4.7Z"/>
  </g>
</svg>
