<svg xmlns="http://www.w3.org/2000/svg" width="58" height="16" viewBox="0 0 58 16">
  <defs>
    <style>
      .cls-1 {
        fill: #0089d9;
      }

      .cls-1, .cls-2, .cls-3 {
        fill-rule: evenodd;
      }

      .cls-2 {
        fill: #c8c8c8;
      }

      .cls-3 {
        fill: #39a6e6;
      }
    </style>
  </defs>
  <title>16_home</title>
  <g id="Home">
    <path class="cls-1" d="M12,2h1V4h1V2h0V1H11V2l1,1Zm1.5,7a.5.5,0,0,0-.5.5V15H10V11.5a.5.5,0,0,0-.5-.5h-3a.5.5,0,0,0-.5.5V15H3V9.5A.5.5,0,0,0,2.5,9a.5.5,0,0,0-.5.5v6a.5.5,0,0,0,.5.5h4a.5.5,0,0,0,.5-.5V12H9v3.5a.5.5,0,0,0,.5.5h4a.5.5,0,0,0,.5-.5v-6A.5.5,0,0,0,13.5,9Zm2.4-.8-7-7.1a.6.6,0,0,0-.8,0v.2c0-.1,0-.1-.1-.2a.5.5,0,0,0-.7,0L.1,8.2a.9.9,0,0,0,0,.7.6.6,0,0,0,.8,0l7-7.1c.1,0,.1-.1.1-.2a.3.3,0,0,1,.1.2l7.1,7.1a.5.5,0,1,0,.7-.7Z"/>
    <path class="cls-2" d="M33,2h1V4h1V2h0V1H32V2l1,1Zm1.5,7a.5.5,0,0,0-.5.5V15H31V11.5a.5.5,0,0,0-.5-.5h-3a.5.5,0,0,0-.5.5V15H24V9.5a.5.5,0,0,0-.5-.5.5.5,0,0,0-.5.5v6a.5.5,0,0,0,.5.5h4a.5.5,0,0,0,.5-.5V12h2v3.5a.5.5,0,0,0,.5.5h4a.5.5,0,0,0,.5-.5v-6A.5.5,0,0,0,34.5,9Zm2.4-.8-7-7.1a.6.6,0,0,0-.8,0v.2c0-.1,0-.1-.1-.2a.5.5,0,0,0-.7,0L21.1,8.2a.9.9,0,0,0,0,.7.6.6,0,0,0,.8,0l7-7.1c.1,0,.1-.1.1-.2a.3.3,0,0,1,.1.2l7.1,7.1a.5.5,0,0,0,.7-.7Z"/>
    <path class="cls-3" d="M54,2h1V4h1V2h0V1H53V2l1,1Zm1.5,7a.5.5,0,0,0-.5.5V15H52V11.5a.5.5,0,0,0-.5-.5h-3a.5.5,0,0,0-.5.5V15H45V9.5a.5.5,0,0,0-.5-.5.5.5,0,0,0-.5.5v6a.5.5,0,0,0,.5.5h4a.5.5,0,0,0,.5-.5V12h2v3.5a.5.5,0,0,0,.5.5h4a.5.5,0,0,0,.5-.5v-6A.5.5,0,0,0,55.5,9Zm2.4-.8-7-7.1a.6.6,0,0,0-.8,0v.2c0-.1,0-.1-.1-.2a.5.5,0,0,0-.7,0L42.1,8.2a.9.9,0,0,0,0,.7.6.6,0,0,0,.8,0l7-7.1c.1,0,.1-.1.1-.2a.3.3,0,0,1,.1.2l7.1,7.1a.5.5,0,0,0,.7-.7Z"/>
  </g>
</svg>
