<svg id="Information" xmlns="http://www.w3.org/2000/svg" width="58" height="16" viewBox="0 0 58 16"><defs><style>.cls-1{fill:#39a6e6;}.cls-1,.cls-2,.cls-3{fill-rule:evenodd;}.cls-2{fill:#c8c8c8;}.cls-3{fill:#0089d9;}</style></defs><path class="cls-1" d="M49.5,0A7.5,7.5,0,1,0,57,7.5,7.5,7.5,0,0,0,49.5,0Zm0,14A6.5,6.5,0,1,1,56,7.5,6.5,6.5,0,0,1,49.5,14Z"/><path class="cls-1" d="M47.7,7.5a0.5,0.5,0,0,0,0,.2,3,3,0,0,1,1.1-.4,0.2,0.2,0,0,1,.1.2L48,10.2a1,1,0,0,0,1.1,1,1.8,1.8,0,0,0,1.7-1c0-.1,0-0.4,0-0.5a3,3,0,0,1-1,.9c-0.3,0-.3,0-0.3-0.3l0.8-3a0.7,0.7,0,0,0-.4-1A2.7,2.7,0,0,0,47.7,7.5Z"/><path class="cls-1" d="M49.8,5.7a1,1,0,1,0-.9-1A0.9,0.9,0,0,0,49.8,5.7Z"/><path class="cls-2" d="M28.5,0A7.5,7.5,0,1,0,36,7.5,7.5,7.5,0,0,0,28.5,0Zm0,14A6.5,6.5,0,1,1,35,7.5,6.5,6.5,0,0,1,28.5,14Z"/><path class="cls-2" d="M26.7,7.5a0.5,0.5,0,0,0,0,.2,3,3,0,0,1,1.1-.4,0.2,0.2,0,0,1,.1.2L27,10.2a1,1,0,0,0,1.1,1,1.8,1.8,0,0,0,1.7-1c0-.1,0-0.4,0-0.5a3,3,0,0,1-1,.9c-0.3,0-.3,0-0.3-0.3l0.8-3a0.7,0.7,0,0,0-.4-1A2.7,2.7,0,0,0,26.7,7.5Z"/><path class="cls-2" d="M28.7,5.7a1,1,0,1,0-.9-1A0.9,0.9,0,0,0,28.7,5.7Z"/><path class="cls-3" d="M7.5,0A7.5,7.5,0,1,0,15,7.5,7.5,7.5,0,0,0,7.5,0Zm0,14A6.5,6.5,0,1,1,14,7.5,6.5,6.5,0,0,1,7.5,14Z"/><path class="cls-3" d="M5.7,7.5a0.5,0.5,0,0,0,0,.2,3,3,0,0,1,1.1-.4,0.2,0.2,0,0,1,.1.2L6,10.2a1,1,0,0,0,1.1,1,1.8,1.8,0,0,0,1.7-1c0-.1,0-0.4,0-0.5a3,3,0,0,1-1,.9c-0.3,0-.3,0-0.3-0.3l0.8-3a0.7,0.7,0,0,0-.4-1A2.7,2.7,0,0,0,5.7,7.5Z"/><path class="cls-3" d="M7.7,5.7a1,1,0,1,0-.9-1A0.9,0.9,0,0,0,7.7,5.7Z"/></svg>