<svg xmlns="http://www.w3.org/2000/svg" width="58" height="16" viewBox="0 0 58 16">
  <defs>
    <style>
      .cls-1 {
        fill: #0089d9;
      }

      .cls-1, .cls-2, .cls-3 {
        fill-rule: evenodd;
      }

      .cls-2 {
        fill: #c8c8c8;
      }

      .cls-3 {
        fill: #39a6e6;
      }
    </style>
  </defs>
  <title>16_like</title>
  <g id="Like">
    <path class="cls-1" d="M.7,16H2.1V7H.7C-.3,7.6,0,15.3.7,16ZM16,10.2c0-.8-.6-.8-.7-1.2s.6-.9.4-1.7-.6-.6-1.1-.7-3.2.1-3.8-.4.3-1.7.3-3.5S9.7-.8,7.7.5a3.2,3.2,0,0,1-.4,3.2c-1,3-2.8,3.4-4.2,4.3v7c2.5,0,4,.8,5.7.9a13.3,13.3,0,0,0,4.7-.5c1.2-.2.9-1.1,1.2-1.6s.8-.3.9-1-.3-.7-.3-1.2S16,11,16,10.2Zm-1.8,1c-.1.5.4.8.3,1.2s-.9.2-1.1.7.2,1.3-.7,1.5a15,15,0,0,1-3.6.4c-1.4-.1-3-1-5-1V9c1.3-.6,3.7-2,4.1-4.8A3.7,3.7,0,0,0,9,1.3c.9.1,1.2,1.5.7,2.6s-.8,2.3-.1,2.9,3,.7,3.5.8,1.1.1,1.1.3,0,.9,0,1.2.7.6.7,1S14.2,10.7,14.2,11.2Z"/>
    <path class="cls-2" d="M21.7,16h1.4V7H21.7C20.7,7.6,21,15.3,21.7,16ZM37,10.2c0-.8-.6-.8-.7-1.2s.6-.9.4-1.7-.6-.6-1.1-.7-3.2.1-3.8-.4.3-1.7.3-3.5S30.7-.8,28.7.5a3.2,3.2,0,0,1-.4,3.2c-1,3-2.8,3.4-4.2,4.3v7c2.5,0,4,.8,5.7.9a13.3,13.3,0,0,0,4.7-.5c1.2-.2.9-1.1,1.2-1.6s.8-.3.9-1-.3-.7-.3-1.2S37,11,37,10.2Zm-1.8,1c-.1.5.4.8.3,1.2s-.9.2-1.1.7.2,1.3-.7,1.5a15,15,0,0,1-3.6.4c-1.4-.1-3-1-5-1V9c1.3-.6,3.7-2,4.1-4.8A3.7,3.7,0,0,0,30,1.3c.9.1,1.2,1.5.7,2.6s-.8,2.3-.1,2.9,3,.7,3.5.8,1.1.1,1.1.3,0,.9,0,1.2.7.6.7,1S35.2,10.7,35.2,11.2Z"/>
    <path class="cls-3" d="M58,10.2c0-.8-.6-.8-.7-1.2s.6-.9.4-1.7-.6-.6-1.1-.7-3.2.1-3.8-.4.3-1.7.3-3.5S51.7-.8,49.7.5a3.2,3.2,0,0,1-.4,3.2c-1,3-2.8,3.4-4.2,4.3v7c2.5,0,4,.8,5.7.9a13.3,13.3,0,0,0,4.7-.5c1.2-.2.9-1.1,1.2-1.6s.8-.3.9-1-.3-.7-.3-1.2S58,11,58,10.2Zm-1.8,1c-.1.5.4.8.3,1.2s-.9.2-1.1.7.2,1.3-.7,1.5a15,15,0,0,1-3.6.4c-1.4-.1-3-1-5-1V9c1.3-.6,3.7-2,4.1-4.8A3.7,3.7,0,0,0,51,1.3c.9.1,1.2,1.5.7,2.6s-.8,2.3-.1,2.9,3,.7,3.5.8,1.1.1,1.1.3,0,.9,0,1.2.7.6.7,1S56.2,10.7,56.2,11.2ZM42.7,16h1.4V7H42.7C41.7,7.6,42,15.3,42.7,16Z"/>
  </g>
</svg>
