<svg xmlns="http://www.w3.org/2000/svg" width="58" height="16"><g><path fill="#0089D9" fill-rule="evenodd" d="M12 7V5c0-2.2-1.8-4-4-4S4 2.8 4 5v2c-1.1 0-2 .9-2 2v5c0 1.1.9 2 2 2h8c1.1 0 2-.9 2-2V9c0-1.1-.9-2-2-2zM5 5c0-1.7 1.3-3 3-3s3 1.3 3 3v2H5V5zm8 9c0 .6-.4 1-1 1H4c-.6 0-1-.4-1-1V9c0-.6.4-1 1-1h8c.6 0 1 .4 1 1v5zM8 9c-.6 0-1 .4-1 1v1c0 .6.4 1 1 1s1-.4 1-1v-1c0-.6-.4-1-1-1z" clip-rule="evenodd"/><path fill="#C8C8C8" fill-rule="evenodd" d="M33 7V5c0-2.2-1.8-4-4-4s-4 1.8-4 4v2c-1.1 0-2 .9-2 2v5c0 1.1.9 2 2 2h8c1.1 0 2-.9 2-2V9c0-1.1-.9-2-2-2zm-7-2c0-1.7 1.3-3 3-3s3 1.3 3 3v2h-6V5zm8 9c0 .6-.4 1-1 1h-8c-.6 0-1-.4-1-1V9c0-.6.4-1 1-1h8c.6 0 1 .4 1 1v5zm-5-5c-.6 0-1 .4-1 1v1c0 .6.4 1 1 1s1-.4 1-1v-1c0-.6-.4-1-1-1z" clip-rule="evenodd"/><path fill="#39A6E6" fill-rule="evenodd" d="M54 7V5c0-2.2-1.8-4-4-4s-4 1.8-4 4v2c-1.1 0-2 .9-2 2v5c0 1.1.9 2 2 2h8c1.1 0 2-.9 2-2V9c0-1.1-.9-2-2-2zm-7-2c0-1.7 1.3-3 3-3s3 1.3 3 3v2h-6V5zm8 9c0 .6-.4 1-1 1h-8c-.6 0-1-.4-1-1V9c0-.6.4-1 1-1h8c.6 0 1 .4 1 1v5zm-5-5c-.6 0-1 .4-1 1v1c0 .6.4 1 1 1s1-.4 1-1v-1c0-.6-.4-1-1-1z" clip-rule="evenodd"/></g></svg>