<?xml version="1.0" encoding="utf-8"?>
<!-- Generator: Adobe Illustrator 19.1.1, SVG Export Plug-In . SVG Version: 6.00 Build 0)  -->
<svg version="1.1" id="Layer_4" xmlns="http://www.w3.org/2000/svg" xmlns:xlink="http://www.w3.org/1999/xlink" x="0px" y="0px"
	 width="58px" height="16px" viewBox="-470 493 58 16" style="enable-background:new -470 493 58 16;" xml:space="preserve">
<style type="text/css">
	.st0{fill:#0089D9;}
	.st1{fill:#C8C8C8;}
	.st2{fill:#39A6E6;}
</style>
<path class="st0" d="M-455.2,502.9l0.8-0.4c0.3-0.1,0.4-0.5,0.1-0.7c0,0,0,0-0.9-0.7l0.8-0.4c0.3-0.1,0.4-0.5,0.1-0.7
	c0,0,0,0-1.5-1.1c0.8-1,1.2-1.9,1.2-2c0-0.2,0-0.4-0.1-0.5c-0.1-0.1-5.2-3-5.3-3.1c-0.2-0.2-0.6,0-0.7,0.3c-0.3,1.4-2.2,2.6-2.8,3
	c-0.7,0.4-1.6,0.7-2.1,0.9l0,0c-1.7,0.7-2.3,0.9-3.9,1.4c-0.4,0.1-0.4,0.6-0.1,0.8l0.7,0.5l-0.8,0.5c-0.3,0.2-0.3,0.6,0,0.7l0.8,0.5
	l-0.7,0.5c-0.3,0.2-0.3,0.6,0,0.7l0.7,0.5l-0.7,0.5c-0.3,0.2-0.3,0.6,0,0.7l5.3,3.5c0.1,0.1,0.3,0.1,0.4,0c2.9-1.3,5.6-2.6,9.6-4.4
	c0.4-0.2,0.4-0.5,0.2-0.7C-454.3,503.5-454.4,503.5-455.2,502.9z M-455.5,500.3l-2.6,1.1v-0.6c0.4-0.3,1-0.6,1.7-1.2
	C-456.2,499.8-455.8,500.1-455.5,500.3z M-455.5,502l-2.6,1.1v-0.8l1.9-0.9C-456.1,501.6-455.7,501.9-455.5,502z M-460.1,494.4
	c0.8,0.5,3.6,2.1,4.5,2.6c-0.3,0.6-1.1,1.9-2.5,2.8c0-0.1-4.3-2.7-4.4-2.8C-461.1,496.1-460.4,495-460.1,494.4z M-465.5,498.4
	l4.4,2.7c-1.3,0.5-2.6,1.1-3.1,1.3l-4.3-2.9C-467.2,499.1-466.3,498.7-465.5,498.4z M-468.2,500.8l3.7,2.5c0.1,0.1,0.3,0.1,0.4,0
	c0,0,1.6-0.7,3.3-1.4v0.7l-3.5,1.5l-4.5-2.9L-468.2,500.8z M-468.2,502.6l3.7,2.5c0.1,0.1,0.3,0.1,0.4,0l3.3-1.5v0.7l-3.5,1.6
	l-4.6-3L-468.2,502.6z M-464.2,507.7l-4.5-3l0.5-0.4l3.7,2.5c0.1,0.1,0.3,0.1,0.4,0l3.3-1.5v0.8L-464.2,507.7z M-460.3,501.2
	c0-0.3-0.1-0.3-0.4-0.5l-4.5-2.7c0.5-0.2,1.2-0.5,1.8-0.8l4.8,3v5.3l-1.8,0.8C-460.3,506.3-460.3,503.8-460.3,501.2z M-458.1,505
	v-0.8l2-0.9c0,0,0.6,0.4,0.7,0.5L-458.1,505z"/>
<path class="st1" d="M-434.2,503.2l0.8-0.4c0.3-0.1,0.4-0.5,0.1-0.7c0,0,0,0-0.9-0.7l0.8-0.4c0.3-0.1,0.4-0.5,0.1-0.7
	c0,0,0,0-1.5-1.1c0.8-1,1.2-1.9,1.2-2c0-0.2,0-0.4-0.1-0.5c-0.1-0.1-5.2-3-5.3-3.1c-0.2-0.2-0.6,0-0.7,0.3c-0.3,1.4-2.2,2.6-2.8,3
	c-0.7,0.4-1.6,0.7-2.1,0.9l0,0c-1.7,0.7-2.3,0.9-3.9,1.4c-0.4,0.1-0.4,0.6-0.1,0.8l0.7,0.5l-0.8,0.5c-0.3,0.2-0.3,0.6,0,0.7l0.8,0.5
	l-0.7,0.5c-0.3,0.2-0.3,0.6,0,0.7l0.7,0.5l-0.7,0.5c-0.3,0.2-0.3,0.6,0,0.7l5.3,3.5c0.1,0.1,0.3,0.1,0.4,0c2.9-1.3,5.6-2.6,9.6-4.4
	c0.4-0.2,0.4-0.5,0.2-0.7C-433.2,503.8-433.3,503.8-434.2,503.2z M-434.4,500.6l-2.6,1.1v-0.6c0.4-0.3,1-0.6,1.7-1.2
	C-435.1,500.1-434.7,500.4-434.4,500.6z M-434.4,502.3l-2.6,1.1v-0.8l1.9-0.9C-435,501.9-434.6,502.2-434.4,502.3z M-439,494.7
	c0.8,0.5,3.6,2.1,4.5,2.6c-0.3,0.6-1.1,1.9-2.5,2.8c0-0.1-4.3-2.7-4.4-2.8C-440,496.4-439.3,495.3-439,494.7z M-444.4,498.8l4.4,2.7
	c-1.3,0.5-2.6,1.1-3.1,1.3l-4.3-2.9C-446.1,499.4-445.2,499.1-444.4,498.8z M-447.1,501.2l3.7,2.5c0.1,0.1,0.3,0.1,0.4,0
	c0,0,1.6-0.7,3.3-1.4v0.7l-3.5,1.5l-4.5-2.9L-447.1,501.2z M-447.1,502.9l3.7,2.5c0.1,0.1,0.3,0.1,0.4,0l3.3-1.5v0.7l-3.5,1.6
	l-4.6-3L-447.1,502.9z M-443.1,508.1l-4.5-3l0.5-0.4l3.7,2.5c0.1,0.1,0.3,0.1,0.4,0l3.3-1.5v0.8L-443.1,508.1z M-439.2,501.5
	c0-0.3-0.1-0.3-0.4-0.5l-4.5-2.7c0.5-0.2,1.2-0.5,1.8-0.8l4.8,3v5.3l-1.8,0.8C-439.2,506.6-439.2,504.1-439.2,501.5z M-437,505.3
	v-0.8l2-0.9c0,0,0.6,0.4,0.7,0.5L-437,505.3z"/>
<path class="st2" d="M-413.1,502.6l0.8-0.4c0.3-0.1,0.4-0.5,0.1-0.7c0,0,0,0-0.9-0.7l0.8-0.4c0.3-0.1,0.4-0.5,0.1-0.7
	c0,0,0,0-1.5-1.1c0.8-1,1.2-1.9,1.2-2c0-0.2,0-0.4-0.1-0.5c-0.1-0.1-5.2-3-5.3-3.1c-0.2-0.2-0.6,0-0.7,0.3c-0.3,1.4-2.2,2.6-2.8,3
	c-0.7,0.4-1.6,0.7-2.1,0.9l0,0c-1.7,0.7-2.3,0.9-3.9,1.4c-0.4,0.1-0.4,0.6-0.1,0.8l0.7,0.5l-0.8,0.5c-0.3,0.2-0.3,0.6,0,0.7l0.8,0.5
	l-0.7,0.5c-0.3,0.2-0.3,0.6,0,0.7l0.7,0.5l-0.7,0.5c-0.3,0.2-0.3,0.6,0,0.7l5.3,3.5c0.1,0.1,0.3,0.1,0.4,0c2.9-1.3,5.6-2.6,9.6-4.4
	c0.4-0.2,0.4-0.5,0.2-0.7C-412.1,503.2-412.2,503.2-413.1,502.6z M-413.3,500l-2.6,1.1v-0.6c0.4-0.3,1-0.6,1.7-1.2
	C-414,499.5-413.6,499.7-413.3,500z M-413.3,501.7l-2.6,1.1v-0.8l1.9-0.9C-413.9,501.3-413.5,501.6-413.3,501.7z M-417.9,494.1
	c0.8,0.5,3.6,2.1,4.5,2.6c-0.3,0.6-1.1,1.9-2.5,2.8c0-0.1-4.3-2.7-4.4-2.8C-418.9,495.8-418.2,494.7-417.9,494.1z M-423.3,498.1
	l4.4,2.7c-1.3,0.5-2.6,1.1-3.1,1.3l-4.3-2.9C-425,498.7-424.1,498.4-423.3,498.1z M-426,500.5l3.7,2.5c0.1,0.1,0.3,0.1,0.4,0
	c0,0,1.6-0.7,3.3-1.4v0.7l-3.5,1.5l-4.5-2.9L-426,500.5z M-426,502.3l3.7,2.5c0.1,0.1,0.3,0.1,0.4,0l3.3-1.5v0.7l-3.5,1.6l-4.6-3
	L-426,502.3z M-422,507.4l-4.5-3l0.5-0.4l3.7,2.5c0.1,0.1,0.3,0.1,0.4,0l3.3-1.5v0.8L-422,507.4z M-418.1,500.9
	c0-0.3-0.1-0.3-0.4-0.5l-4.5-2.7c0.5-0.2,1.2-0.5,1.8-0.8l4.8,3v5.3l-1.8,0.8C-418.1,506-418.1,503.5-418.1,500.9z M-416,504.7v-0.8
	l2-0.9c0,0,0.6,0.4,0.7,0.5L-416,504.7z"/>
</svg>
