<svg xmlns="http://www.w3.org/2000/svg" width="58" height="16" viewBox="0 0 58 16">
  <defs>
    <style>
      .cls-1 {
        fill: #0089d9;
      }

      .cls-1, .cls-2, .cls-3 {
        fill-rule: evenodd;
      }

      .cls-2 {
        fill: #c8c8c8;
      }

      .cls-3 {
        fill: #39a6e6;
      }
    </style>
  </defs>
  <title>16_note</title>
  <g id="Note">
    <path class="cls-1" d="M12,3,11,4,9,6V7h1l2-2,.3.3-5,5,1.4,1.4,7.1-7L14.4,3.3l-1.1,1ZM6.7,10.9,5,14l3.1-1.7h.1L6.8,10.8ZM13,15H2V5H6V1h7V3l1-1V0H5L1,4V16H14V8L13,9ZM2,4,5,1H5V4Z"/>
    <path class="cls-2" d="M27.7,10.9,26,14l3.1-1.7h.1l-1.4-1.4ZM33,3,32,4,30,6V7h1l2-2,.3.3-5,5,1.4,1.4,7.1-7L35.4,3.3l-1.1,1Zm1,12H23V5h4V1h7V3l1-1V0H26L22,4V16H35V8L34,9ZM23,4l3-3h0V4Z"/>
    <path class="cls-3" d="M54,3,51,6V7h1l2-2,.3.3-5,5,1.4,1.4,7.1-7L56.4,3.3l-1.1,1Zm1,12H44V5h4V1h7V3l1-1V0H47L43,4V16H56V8L55,9ZM44,4l3-3h0V4Zm4.7,6.9L47,14l3.1-1.7h.1l-1.4-1.4Z"/>
  </g>
</svg>
