<svg xmlns="http://www.w3.org/2000/svg" width="58" height="16" viewBox="0 0 58 16">
  <defs>
    <style>
      .cls-1 {
        fill: #0089d9;
      }

      .cls-1, .cls-2, .cls-3 {
        fill-rule: evenodd;
      }

      .cls-2 {
        fill: #c8c8c8;
      }

      .cls-3 {
        fill: #39a6e6;
      }
    </style>
  </defs>
  <title>16_open</title>
  <g id="Open">
    <path class="cls-1" d="M15,6V4c0-.7-.3-1-1-1H8.3S6.6,1,6,1H3A2,2,0,0,0,1,3V6A1.3,1.3,0,0,0,0,7l.7,6a2,2,0,0,0,2,2H13.3a2,2,0,0,0,2-2L16,7A1.3,1.3,0,0,0,15,6ZM2,3A1.3,1.3,0,0,1,3,2H6c.5,0,2,2,2,2h5a1.3,1.3,0,0,1,1,1V6H2ZM14.7,8,14,13c0,.7-.3,1-1,1H3c-.7,0-1-.3-1-1L1.2,8c0-.4-.2-1,.8-1H14C15,7,14.7,7.6,14.7,8Z"/>
    <path class="cls-2" d="M36,6V4c0-.7-.3-1-1-1H29.3S27.6,1,27,1H24a2,2,0,0,0-2,2V6a1.3,1.3,0,0,0-1,1l.7,6a2,2,0,0,0,2,2H34.3a2,2,0,0,0,2-2L37,7A1.3,1.3,0,0,0,36,6ZM23,3a1.3,1.3,0,0,1,1-1h3c.5,0,2,2,2,2h5a1.3,1.3,0,0,1,1,1V6H23ZM35.7,8,35,13c0,.7-.3,1-1,1H24c-.7,0-1-.3-1-1l-.8-5c0-.4-.2-1,.8-1H35C36,7,35.7,7.6,35.7,8Z"/>
    <path class="cls-3" d="M57,6V4c0-.7-.3-1-1-1H50.3S48.6,1,48,1H45a2,2,0,0,0-2,2V6a1.3,1.3,0,0,0-1,1l.7,6a2,2,0,0,0,2,2H55.3a2,2,0,0,0,2-2L58,7A1.3,1.3,0,0,0,57,6ZM44,3a1.3,1.3,0,0,1,1-1h3c.5,0,2,2,2,2h5a1.3,1.3,0,0,1,1,1V6H44ZM56.7,8,56,13c0,.7-.3,1-1,1H45c-.7,0-1-.3-1-1l-.8-5c0-.4-.2-1,.8-1H56C57,7,56.7,7.6,56.7,8Z"/>
  </g>
</svg>
