<svg xmlns="http://www.w3.org/2000/svg" width="58" height="16" viewBox="0 0 58 16">
  <defs>
    <style>
      .cls-1 {
        fill: #0089d9;
      }

      .cls-1, .cls-2, .cls-3 {
        fill-rule: evenodd;
      }

      .cls-2 {
        fill: #c8c8c8;
      }

      .cls-3 {
        fill: #39a6e6;
      }
    </style>
  </defs>
  <title>16_print</title>
  <g id="Print">
    <path class="cls-1" d="M14,3H13V0H3V3H2A2,2,0,0,0,0,5v5a2,2,0,0,0,2,2H3v4h7l3-3V12h1a2,2,0,0,0,2-2V5A2,2,0,0,0,14,3ZM4,1h8V3H4Zm8,12H10v2H4V9h8Zm3-3a.9.9,0,0,1-1,1H13V8H3v3H2a.9.9,0,0,1-1-1V5A.9.9,0,0,1,2,4H14a.9.9,0,0,1,1,1ZM13,5a1,1,0,0,0-1,1,1,1,0,0,0,2,0A1,1,0,0,0,13,5Z"/>
    <path class="cls-2" d="M35,3H34V0H24V3H23a2,2,0,0,0-2,2v5a2,2,0,0,0,2,2h1v4h7l3-3V12h1a2,2,0,0,0,2-2V5A2,2,0,0,0,35,3ZM25,1h8V3H25Zm8,12H31v2H25V9h8Zm3-3a.9.9,0,0,1-1,1H34V8H24v3H23a.9.9,0,0,1-1-1V5a.9.9,0,0,1,1-1H35a.9.9,0,0,1,1,1ZM34,5a1,1,0,0,0-1,1,1,1,0,0,0,2,0A1,1,0,0,0,34,5Z"/>
    <path class="cls-3" d="M56,3H55V0H45V3H44a2,2,0,0,0-2,2v5a2,2,0,0,0,2,2h1v4h7l3-3V12h1a2,2,0,0,0,2-2V5A2,2,0,0,0,56,3ZM46,1h8V3H46Zm8,12H52v2H46V9h8Zm3-3a.9.9,0,0,1-1,1H55V8H45v3H44a.9.9,0,0,1-1-1V5a.9.9,0,0,1,1-1H56a.9.9,0,0,1,1,1ZM55,5a1,1,0,0,0-1,1,1,1,0,0,0,2,0A1,1,0,0,0,55,5Z"/>
  </g>
</svg>
