<svg xmlns="http://www.w3.org/2000/svg" width="58" height="16" viewBox="0 0 58 16">
  <defs>
    <style>
      .cls-1 {
        fill: #0089d9;
      }

      .cls-1, .cls-3, .cls-5 {
        fill-rule: evenodd;
      }

      .cls-2 {
        fill: #d6565a;
      }

      .cls-3, .cls-4 {
        fill: #c8c8c8;
      }

      .cls-5 {
        fill: #39a6e6;
      }
    </style>
  </defs>
  <title>16_pdf</title>
  <g id="PDF">
    <path class="cls-1" d="M10,0H1V16H14V4Zm3,15H2V1H9V5h4ZM10,4V1h0l3,3H10Z"/>
    <path class="cls-2" d="M3.7,14H3.2c-.2-.1-.2-.2-.2-.4s.5-.7,1.3-1.2l.5-.3v.2c.3-.5.5-1,.9-1.6h0a11.9,11.9,0,0,0,.8-1.6V8.6a6.8,6.8,0,0,1-.4-2.9.6.6,0,0,1,.6-.3H7c.4,0,.5.4.5.6a5.6,5.6,0,0,1-.1.7H7.3A1.3,1.3,0,0,0,7.2,6L7,5.7H7a1.1,1.1,0,0,0-.1.5,5.2,5.2,0,0,0,.2,1.1,2.9,2.9,0,0,1,.2-.8h.1a7.2,7.2,0,0,1,0,1.5.1.1,0,0,1-.1.1,5.2,5.2,0,0,0,1.2,1.9l.7.4a2,2,0,0,0,1.3.1h1.3c.1,0,.1.2.2.4v.2h0c0,.1,0,.3-.1.3s-.2.2-.3.2h-.2a4.9,4.9,0,0,1-2.4-.8L5.7,12C4.8,13.5,4.3,14,3.7,14Zm.9-1.5c-.6.4-.9.7-1,1s.5-.3,1.1-1.1Zm5.5-1.4,1.3.3H10.1ZM7,9.3a4.8,4.8,0,0,1-.7,1.5l-.3.6a5.5,5.5,0,0,1,2.2-.6.1.1,0,0,0-.1-.1A5.3,5.3,0,0,1,7,9.3Z"/>
    <path class="cls-2" d="M3.8,13.9H3.5l-.2-.2c-.2,0-.2-.2-.2-.4s.5-.7,1.3-1.2l.5-.3V12a8.9,8.9,0,0,1,.9-1.6h0l.8-1.6V8.5a5.5,5.5,0,0,1-.4-2.9A.6.6,0,0,1,7,5.3h.1c.4,0,.4.4.5.6a5.6,5.6,0,0,1-.1.7H7.3V5.9c-.1-.1-.2-.2-.2-.3h0a1.1,1.1,0,0,0-.1.5,5.2,5.2,0,0,0,.2,1.1l.2-.8h.1V8.1a.3.3,0,0,0-.1.2,5.7,5.7,0,0,0,1.2,1.8l.7.4a1.5,1.5,0,0,0,1.3.1h1.3l.2.4v.2h0c0,.1,0,.3-.1.3l-.3.2h-.3A4.9,4.9,0,0,1,9,11.1l-3.2.8C4.9,13.5,4.3,13.9,3.8,13.9Zm.9-1.5a4.3,4.3,0,0,0-1,1c.3-.1.5-.2,1.1-1.1ZM10.2,11l1.3.4h.2a.1.1,0,0,0,.1-.1H10.2ZM7.1,9.2l-.7,1.5-.3.6a5.5,5.5,0,0,1,2.2-.6H8.2A5.3,5.3,0,0,1,7.1,9.2Z"/>
    <path class="cls-3" d="M31,0H22V16H35V4Zm3,15H23V1h7V5h4ZM31,4V1h0l3,3H31Z"/>
    <path class="cls-4" d="M24.7,14h-.5c-.2-.1-.2-.2-.2-.4s.5-.7,1.3-1.2l.5-.3v.2c.3-.5.5-1,.9-1.6h0a11.9,11.9,0,0,0,.8-1.6V8.6a6.8,6.8,0,0,1-.4-2.9.6.6,0,0,1,.6-.3H28c.4,0,.5.4.5.6a5.6,5.6,0,0,1-.1.7h-.1a1.3,1.3,0,0,0-.1-.6L28,5.7h0a1.1,1.1,0,0,0-.1.5,5.2,5.2,0,0,0,.2,1.1,2.9,2.9,0,0,1,.2-.8h.1a7.2,7.2,0,0,1,0,1.5.1.1,0,0,1-.1.1,5.2,5.2,0,0,0,1.2,1.9l.7.4a2,2,0,0,0,1.3.1h1.3c.1,0,.1.2.2.4v.2h0c0,.1,0,.3-.1.3s-.2.2-.3.2h-.2a4.9,4.9,0,0,1-2.4-.8l-3.2.8C25.8,13.5,25.3,14,24.7,14Zm.9-1.5c-.6.4-.9.7-1,1s.5-.3,1.1-1.1Zm5.5-1.4,1.3.3H31.1ZM28,9.3a4.8,4.8,0,0,1-.7,1.5l-.3.6a5.5,5.5,0,0,1,2.2-.6.1.1,0,0,0-.1-.1A5.3,5.3,0,0,1,28,9.3Z"/>
    <path class="cls-4" d="M24.8,13.9h-.3l-.2-.2c-.2,0-.2-.2-.2-.4s.5-.7,1.3-1.2l.5-.3V12a8.9,8.9,0,0,1,.9-1.6h0c.3-.5.5-1.1.8-1.6V8.5a5.5,5.5,0,0,1-.4-2.9.6.6,0,0,1,.6-.3h.1c.4,0,.4.4.5.6a5.6,5.6,0,0,1-.1.7h-.2V5.9c-.1-.1-.2-.2-.2-.3h0a1.1,1.1,0,0,0-.1.5,5.2,5.2,0,0,0,.2,1.1l.2-.8h.1V8.1a.3.3,0,0,0-.1.2,5.7,5.7,0,0,0,1.2,1.8l.7.4a1.5,1.5,0,0,0,1.3.1h1.3l.2.4v.2h0c0,.1,0,.3-.1.3l-.3.2h-.3a4.9,4.9,0,0,1-2.3-.8l-3.2.8C25.9,13.5,25.3,13.9,24.8,13.9Zm.9-1.5-1,1c.3-.1.5-.2,1.1-1.1ZM31.2,11l1.3.4h.2a.1.1,0,0,0,.1-.1H31.2ZM28.1,9.2l-.7,1.5-.3.6a5.5,5.5,0,0,1,2.2-.6h-.1A5.3,5.3,0,0,1,28.1,9.2Z"/>
    <path class="cls-5" d="M52,0H43V16H56V4Zm3,15H44V1h7V5h4ZM52,4V1h0l3,3H52Z"/>
    <path class="cls-2" d="M45.7,14h-.5c-.2-.1-.2-.2-.2-.4s.5-.7,1.3-1.2l.5-.3v.2c.3-.5.5-1,.9-1.6h0a11.9,11.9,0,0,0,.8-1.6V8.6a6.8,6.8,0,0,1-.4-2.9.6.6,0,0,1,.6-.3H49c.4,0,.5.4.5.6a5.6,5.6,0,0,1-.1.7h-.1a1.3,1.3,0,0,0-.1-.6L49,5.7h0a1.1,1.1,0,0,0-.1.5,5.2,5.2,0,0,0,.2,1.1,2.9,2.9,0,0,1,.2-.8h.1a7.2,7.2,0,0,1,0,1.5.1.1,0,0,1-.1.1,5.2,5.2,0,0,0,1.2,1.9l.7.4a2,2,0,0,0,1.3.1h1.3c.1,0,.1.2.2.4v.2h0c0,.1,0,.3-.1.3s-.2.2-.3.2h-.2a4.9,4.9,0,0,1-2.4-.8l-3.2.8C46.8,13.5,46.3,14,45.7,14Zm.9-1.5c-.6.4-.9.7-1,1s.5-.3,1.1-1.1Zm5.5-1.4,1.3.3H52.1ZM49,9.3a4.8,4.8,0,0,1-.7,1.5l-.3.6a5.5,5.5,0,0,1,2.2-.6.1.1,0,0,0-.1-.1A5.3,5.3,0,0,1,49,9.3Z"/>
    <path class="cls-2" d="M45.8,13.9h-.3l-.2-.2c-.2,0-.2-.2-.2-.4s.5-.7,1.3-1.2l.5-.3V12a8.9,8.9,0,0,1,.9-1.6h0c.3-.5.5-1.1.8-1.6V8.5a5.5,5.5,0,0,1-.4-2.9.6.6,0,0,1,.6-.3h.1c.4,0,.4.4.5.6a5.6,5.6,0,0,1-.1.7h-.2V5.9c-.1-.1-.2-.2-.2-.3h0a1.1,1.1,0,0,0-.1.5,5.2,5.2,0,0,0,.2,1.1l.2-.8h.1V8.1a.3.3,0,0,0-.1.2,5.7,5.7,0,0,0,1.2,1.8l.7.4a1.5,1.5,0,0,0,1.3.1h1.3l.2.4v.2h0c0,.1,0,.3-.1.3l-.3.2h-.3a4.9,4.9,0,0,1-2.3-.8l-3.2.8C46.9,13.5,46.3,13.9,45.8,13.9Zm.9-1.5a4.3,4.3,0,0,0-1,1c.3-.1.5-.2,1.1-1.1ZM52.2,11l1.3.4h.2a.1.1,0,0,0,.1-.1H52.2ZM49.1,9.2l-.7,1.5-.3.6a5.5,5.5,0,0,1,2.2-.6h-.1A5.3,5.3,0,0,1,49.1,9.2Z"/>
  </g>
</svg>
