<svg xmlns="http://www.w3.org/2000/svg" width="58" height="16" viewBox="0 0 58 16">
  <defs>
    <style>
      .cls-1 {
        fill: #0089d9;
      }

      .cls-1, .cls-3, .cls-5 {
        fill-rule: evenodd;
      }

      .cls-2 {
        fill: #ff8b00;
      }

      .cls-3, .cls-4 {
        fill: #c8c8c8;
      }

      .cls-5 {
        fill: #39a6e6;
      }
    </style>
  </defs>
  <title>16_powerpoint</title>
  <g id="PowerPoint">
    <path class="cls-1" d="M10,0H1V16H14V4Zm3,15H2V1H9V5h4ZM10,4V1h0l3,3H10Z"/>
    <path class="cls-2" d="M7,7C5.1,7,4,8.6,4,10.5A3.5,3.5,0,0,0,7.5,14c1.9,0,3.5-1.1,3.5-3H7Z"/>
    <path class="cls-2" d="M8,10h4A4.5,4.5,0,0,0,8,6Z"/>
    <path class="cls-3" d="M31,0H22V16H35V4Zm3,15H23V1h7V5h4ZM31,4V1h0l3,3H31Z"/>
    <path class="cls-4" d="M28,7c-1.9,0-3,1.6-3,3.5A3.5,3.5,0,0,0,28.5,14c1.9,0,3.5-1.1,3.5-3H28Z"/>
    <path class="cls-4" d="M29,10h4a4.5,4.5,0,0,0-4-4Z"/>
    <path class="cls-5" d="M52,0H43V16H56V4Zm3,15H44V1h7V5h4ZM52,4V1h0l3,3H52Z"/>
    <path class="cls-2" d="M49,7c-1.9,0-3,1.6-3,3.5A3.5,3.5,0,0,0,49.5,14c1.9,0,3.5-1.1,3.5-3H49Z"/>
    <path class="cls-2" d="M50,10h4a4.5,4.5,0,0,0-4-4Z"/>
  </g>
</svg>
