<svg xmlns="http://www.w3.org/2000/svg" width="58" height="16" viewBox="0 0 58 16">
  <defs>
    <style>
      .cls-1 {
        fill: #0089d9;
      }

      .cls-1, .cls-2, .cls-3 {
        fill-rule: evenodd;
      }

      .cls-2 {
        fill: #c8c8c8;
      }

      .cls-3 {
        fill: #39a6e6;
      }
    </style>
  </defs>
  <title>16_phone</title>
  <g id="Phone">
    <path class="cls-1" d="M15.7,14.9h-.6a1.5,1.5,0,0,0,1.1-1.4A1.6,1.6,0,0,0,14.6,12a1.5,1.5,0,0,0-1.5,1.5,2.9,2.9,0,0,0,.2.9,1.2,1.2,0,0,1-1.5.5l.5-.5c-.2-1.6-1.9-3.5-3.5-4.3a5.6,5.6,0,0,0-2,1.8c-1-.3-1.7-1.4-2.3-2.6A4.9,4.9,0,0,1,3.5,6,4.6,4.6,0,0,0,6,5.2,6.8,6.8,0,0,0,4,0C.9.8-1.9,4.6,1.6,10.9s6.7,5.8,9.2,4.6a1.7,1.7,0,0,0,2.6-.2,1.8,1.8,0,0,0,2.6.2C16.1,15.4,16,15,15.7,14.9ZM2.5,10.3h0C.5,6.8.3,3,3.7,1.4A5.4,5.4,0,0,1,5,4.4,3.5,3.5,0,0,1,2.4,5,7.3,7.3,0,0,0,3.6,9.8h0a7.2,7.2,0,0,0,3.6,3.5c.3-.8,1.1-1.8,1.7-1.9a4.5,4.5,0,0,1,2,2.7C7.8,16.2,4.6,14,2.5,10.3ZM15.1,14h-1V13h1Z"/>
    <path class="cls-2" d="M36.7,14.9h-.6a1.5,1.5,0,0,0,1.1-1.4A1.6,1.6,0,0,0,35.6,12a1.5,1.5,0,0,0-1.5,1.5,2.9,2.9,0,0,0,.2.9,1.2,1.2,0,0,1-1.5.5c.2-.2.4-.3.5-.5s-1.9-3.5-3.5-4.3a5.6,5.6,0,0,0-2,1.8c-1-.3-1.7-1.4-2.3-2.6a4.9,4.9,0,0,1-1-3.3A4.6,4.6,0,0,0,27,5.2,6.8,6.8,0,0,0,25,0c-3.1.8-5.9,4.6-2.4,10.9s6.7,5.8,9.2,4.6a1.7,1.7,0,0,0,2.6-.2,1.8,1.8,0,0,0,2.6.2C37.1,15.4,37,15,36.7,14.9ZM23.5,10.3h0c-2-3.5-2.2-7.3,1.2-8.9a5.4,5.4,0,0,1,1.3,3,3.5,3.5,0,0,1-2.6.6,7.3,7.3,0,0,0,1.2,4.8h0a7.2,7.2,0,0,0,3.6,3.5c.3-.8,1.1-1.8,1.7-1.9a4.5,4.5,0,0,1,2,2.7C28.8,16.2,25.6,14,23.5,10.3ZM36.1,14h-1V13h1Z"/>
    <path class="cls-3" d="M57.7,14.9h-.6a1.5,1.5,0,0,0,1.1-1.4A1.6,1.6,0,0,0,56.6,12a1.5,1.5,0,0,0-1.5,1.5,2.9,2.9,0,0,0,.2.9,1.2,1.2,0,0,1-1.5.5c.2-.2.4-.3.5-.5s-1.9-3.5-3.5-4.3a5.6,5.6,0,0,0-2,1.8c-1-.3-1.7-1.4-2.3-2.6a4.9,4.9,0,0,1-1-3.3A4.6,4.6,0,0,0,48,5.2,6.8,6.8,0,0,0,46,0c-3.1.8-5.9,4.6-2.4,10.9s6.7,5.8,9.2,4.6a1.7,1.7,0,0,0,2.6-.2,1.8,1.8,0,0,0,2.6.2C58.1,15.4,58,15,57.7,14.9ZM44.5,10.3h0c-2-3.5-2.2-7.3,1.2-8.9a5.4,5.4,0,0,1,1.3,3,3.5,3.5,0,0,1-2.6.6,7.3,7.3,0,0,0,1.2,4.8h0a7.2,7.2,0,0,0,3.6,3.5c.3-.8,1.1-1.8,1.7-1.9a4.5,4.5,0,0,1,2,2.7C49.8,16.2,46.6,14,44.5,10.3ZM57.1,14h-1V13h1Z"/>
  </g>
</svg>
