<svg xmlns="http://www.w3.org/2000/svg" width="58" height="16" viewBox="0 0 58 16">
  <defs>
    <style>
      .cls-1 {
        fill: #0089d9;
      }

      .cls-1, .cls-2, .cls-3 {
        fill-rule: evenodd;
      }

      .cls-2 {
        fill: #c8c8c8;
      }

      .cls-3 {
        fill: #39a6e6;
      }
    </style>
  </defs>
  <title>16_paste</title>
  <g id="Paste">
    <path class="cls-1" d="M3,10.5a.5.5,0,0,0,.5.5H6V10H3.5A.5.5,0,0,0,3,10.5Zm0-2a.5.5,0,0,0,.5.5H6V8H3.5A.5.5,0,0,0,3,8.5ZM12.6,5H12V2H9V1H7.9C7.8.4,7.3,0,6,0S4.3.4,4.1,1H3V2H0V15H6V14H1V3H2V2H3V4H9V2h1V3h1V4h1V5H7V16h9V8.4ZM13,6.4,14.5,8H13ZM15,15H8V6h4V9h3ZM3,6.5a.5.5,0,0,0,.5.5H6V6H3.5A.5.5,0,0,0,3,6.5Z"/>
    <path class="cls-2" d="M33.6,5H33V2H30V1H28.9c-.1-.6-.6-1-1.9-1s-1.7.4-1.9,1H24V2H21V15h6V14H22V3h1V2h1V4h6V2h1V3h1V4h1V5H28V16h9V8.4ZM34,6.4,35.5,8H34ZM36,15H29V6h4V9h3ZM24,10.5a.5.5,0,0,0,.5.5H27V10H24.5A.5.5,0,0,0,24,10.5Zm0-2a.5.5,0,0,0,.5.5H27V8H24.5A.5.5,0,0,0,24,8.5Zm0-2a.5.5,0,0,0,.5.5H27V6H24.5A.5.5,0,0,0,24,6.5Z"/>
    <path class="cls-3" d="M45,8.5a.5.5,0,0,0,.5.5H48V8H45.5A.5.5,0,0,0,45,8.5Zm0,2a.5.5,0,0,0,.5.5H48V10H45.5A.5.5,0,0,0,45,10.5Zm0-4a.5.5,0,0,0,.5.5H48V6H45.5A.5.5,0,0,0,45,6.5ZM54.6,5H54V2H51V1H49.9c-.2-.6-.6-1-1.9-1s-1.8.4-1.9,1H45V2H42V15h6V14H43V3h1V2h1V4h6V2h1V3h1V4h1V5H49V16h9V8.4ZM55,6.4,56.5,8H55ZM57,15H50V6h4V9h3Z"/>
  </g>
</svg>
