<svg xmlns="http://www.w3.org/2000/svg" width="58" height="16" viewBox="0 0 58 16">
  <defs>
    <style>
      .cls-1 {
        fill: #0089d9;
      }

      .cls-1, .cls-2, .cls-3 {
        fill-rule: evenodd;
      }

      .cls-2 {
        fill: #c8c8c8;
      }

      .cls-3 {
        fill: #39a6e6;
      }
    </style>
  </defs>
  <title>16_preview</title>
  <g id="Preview">
    <path class="cls-1" d="M9.2,2.2,8,2H7c-4.1.7-7,5.4-7,5.4s3,4.6,6.8,5.4l1.2.2,1.3-.2C13,12,15.9,7.7,16,7.5S13.1,3,9.2,2.2ZM3.5,9.8A25.5,25.5,0,0,1,1.4,7.5,25.5,25.5,0,0,1,3.5,5.2,5.9,5.9,0,0,0,3,7.5,5.6,5.6,0,0,0,3.5,9.8ZM8,12A4.3,4.3,0,0,1,4,7.5,4.3,4.3,0,0,1,8,3a4.3,4.3,0,0,1,4,4.5A4.3,4.3,0,0,1,8,12Zm4.6-2.2A5.9,5.9,0,0,0,13,7.5a8.5,8.5,0,0,0-.4-2.3c1,1,1.7,2,2,2.3S13.6,8.8,12.6,9.8ZM8,5,7,5.2a1.2,1.2,0,0,1,.4.8A1,1,0,0,1,6.3,7a1.1,1.1,0,0,1-.7-.3c0,.3-.1.5-.1.8A2.5,2.5,0,0,0,8,10a2.6,2.6,0,0,0,2.6-2.5A2.6,2.6,0,0,0,8,5Z"/>
    <path class="cls-2" d="M29,5l-1,.2a1.2,1.2,0,0,1,.4.8,1,1,0,0,1-1.1,1,1.1,1.1,0,0,1-.7-.3c0,.3-.1.5-.1.8A2.5,2.5,0,0,0,29,10a2.6,2.6,0,0,0,2.6-2.5A2.6,2.6,0,0,0,29,5Zm1.2-2.8L29,2H28c-4.1.7-7,5.4-7,5.4s3,4.6,6.8,5.4l1.2.2,1.3-.2C34,12,36.9,7.7,37,7.5S34.1,3,30.2,2.2ZM24.5,9.8a25.5,25.5,0,0,1-2.1-2.3,25.5,25.5,0,0,1,2.1-2.3A5.9,5.9,0,0,0,24,7.5,5.6,5.6,0,0,0,24.5,9.8ZM29,12a4.3,4.3,0,0,1-4-4.5A4.3,4.3,0,0,1,29,3a4.3,4.3,0,0,1,4,4.5A4.3,4.3,0,0,1,29,12Zm4.6-2.2A5.9,5.9,0,0,0,34,7.5a8.5,8.5,0,0,0-.4-2.3c1,1,1.7,2,2,2.3S34.6,8.8,33.6,9.8Z"/>
    <path class="cls-3" d="M50,5l-1,.2a1.2,1.2,0,0,1,.4.8,1,1,0,0,1-1.1,1,1.1,1.1,0,0,1-.7-.3c0,.3-.1.5-.1.8A2.5,2.5,0,0,0,50,10a2.6,2.6,0,0,0,2.6-2.5A2.6,2.6,0,0,0,50,5Zm1.2-2.8L50,2H49c-4.1.7-7,5.4-7,5.4s3,4.6,6.8,5.4l1.2.2,1.3-.2C55,12,57.9,7.7,58,7.5S55.1,3,51.2,2.2ZM45.5,9.8a25.5,25.5,0,0,1-2.1-2.3,25.5,25.5,0,0,1,2.1-2.3A5.9,5.9,0,0,0,45,7.5,5.6,5.6,0,0,0,45.5,9.8ZM50,12a4.3,4.3,0,0,1-4-4.5A4.3,4.3,0,0,1,50,3a4.3,4.3,0,0,1,4,4.5A4.3,4.3,0,0,1,50,12Zm4.6-2.2A5.9,5.9,0,0,0,55,7.5a8.5,8.5,0,0,0-.4-2.3c1,1,1.7,2,2,2.3S55.6,8.8,54.6,9.8Z"/>
  </g>
</svg>
