<svg xmlns="http://www.w3.org/2000/svg" width="58" height="16" viewBox="0 0 58 16">
  <defs>
    <style>
      .cls-1 {
        fill: #39a6e6;
      }

      .cls-1, .cls-2, .cls-3 {
        fill-rule: evenodd;
      }

      .cls-2 {
        fill: #c8c8c8;
      }

      .cls-3 {
        fill: #0089d9;
      }
    </style>
  </defs>
  <title>16_redo</title>
  <g id="Redo">
    <path class="cls-1" d="M58,7.4,52,1V5c-5.8,0-9.3,1.3-10,9.3,2.5-4.1,4.7-4.3,10-4.3v4ZM43.7,10.5C45.6,6.8,47.3,6,53,6V4l3.1,3.5L53,11V9C47.7,9,45.9,9.1,43.7,10.5Z"/>
    <path class="cls-2" d="M37,7.4,31,1V5c-5.7,0-9.3,1.3-10,9.3,2.6-4.1,4.7-4.3,10-4.3v4ZM22.8,10.5C24.6,6.8,26.3,6,32,6V4l3.1,3.5L32,11V9C26.7,9,24.9,9.1,22.8,10.5Z"/>
    <path class="cls-3" d="M0,14.3C2.6,10.2,4.7,10,10,10v4l6-6.6L10,1V5C4.3,5,.7,6.3,0,14.3Zm1.8-3.8C3.6,6.8,5.3,6,11,6V4l3.1,3.5L11,11V9C5.7,9,3.9,9.1,1.8,10.5Z"/>
  </g>
</svg>
