<svg xmlns="http://www.w3.org/2000/svg" width="58" height="16" viewBox="0 0 58 16">
  <defs>
    <style>
      .cls-1 {
        fill: #0089d9;
      }

      .cls-1, .cls-2, .cls-3 {
        fill-rule: evenodd;
      }

      .cls-2 {
        fill: #c8c8c8;
      }

      .cls-3 {
        fill: #39a6e6;
      }
    </style>
  </defs>
  <title>16_refresh</title>
  <g id="Refresh">
    <path class="cls-1" d="M16,6V2L14.6,3.5a2.1,2.1,0,0,0-.4-.6A8,8,0,1,0,1.8,13.1a8.1,8.1,0,0,0,11.3,1.1,10,10,0,0,0,2.1-2.6l-.9-.5a5.8,5.8,0,0,1-1.8,2.3,7,7,0,1,1,1-9.8l.4.5L12,6Z"/>
    <path class="cls-2" d="M37,6V2L35.6,3.5l-.4-.6A8,8,0,0,0,22.8,13.1a8.1,8.1,0,0,0,11.3,1.1,10,10,0,0,0,2.1-2.6l-.9-.5a5.8,5.8,0,0,1-1.8,2.3,7,7,0,1,1,1-9.8l.4.5L33,6Z"/>
    <path class="cls-3" d="M58,6V2L56.5,3.5l-.3-.6A8,8,0,0,0,43.8,13.1a8.1,8.1,0,0,0,11.3,1.1,9.5,9.5,0,0,0,2-2.6l-.8-.5a5.8,5.8,0,0,1-1.8,2.3,7,7,0,0,1-9.9-1,6.9,6.9,0,0,1,1-9.8,6.9,6.9,0,0,1,9.8,1l.4.5L54,6Z"/>
  </g>
</svg>
