<svg xmlns="http://www.w3.org/2000/svg" width="58" height="16" viewBox="0 0 58 16">
  <defs>
    <style>
      .cls-1 {
        fill: #0089d9;
      }

      .cls-1, .cls-2, .cls-3, .cls-4, .cls-5, .cls-6, .cls-7 {
        fill-rule: evenodd;
      }

      .cls-2 {
        fill: #ff8b00;
      }

      .cls-3 {
        fill: #68a611;
      }

      .cls-4 {
        fill: #c8c8c8;
      }

      .cls-5 {
        fill: #39a6e6;
      }

      .cls-6 {
        fill: #ffa526;
      }

      .cls-7 {
        fill: #8ec928;
      }
    </style>
  </defs>
  <title>16_report</title>
  <g id="Report">
    <path class="cls-1" d="M15.5,15H1V.5A.5.5,0,0,0,.5,0,.5.5,0,0,0,0,.5v15a.5.5,0,0,0,.5.5h15a.5.5,0,0,0,0-1Z"/>
    <path class="cls-2" d="M3.5,6a.5.5,0,0,1,.5.5v6a.5.5,0,0,1-.5.5.5.5,0,0,1-.5-.5v-6A.5.5,0,0,1,3.5,6Z"/>
    <path class="cls-2" d="M9.5,5a.5.5,0,0,1,.5.5v7a.5.5,0,0,1-1,0v-7A.5.5,0,0,1,9.5,5Z"/>
    <path class="cls-3" d="M6.5,3a.5.5,0,0,1,.5.5v9a.5.5,0,0,1-1,0v-9A.5.5,0,0,1,6.5,3Z"/>
    <path class="cls-3" d="M12.5,0a.5.5,0,0,1,.5.5v12a.5.5,0,0,1-1,0V.5A.5.5,0,0,1,12.5,0Z"/>
    <path class="cls-4" d="M36.5,15H22V.5a.5.5,0,0,0-1,0v15a.5.5,0,0,0,.5.5h15a.5.5,0,0,0,0-1Z"/>
    <path class="cls-4" d="M24.5,6a.5.5,0,0,1,.5.5v6a.5.5,0,0,1-1,0v-6A.5.5,0,0,1,24.5,6Z"/>
    <path class="cls-4" d="M30.5,5a.5.5,0,0,1,.5.5v7a.5.5,0,0,1-1,0v-7A.5.5,0,0,1,30.5,5Z"/>
    <path class="cls-4" d="M27.5,3a.5.5,0,0,1,.5.5v9a.5.5,0,0,1-1,0v-9A.5.5,0,0,1,27.5,3Z"/>
    <path class="cls-4" d="M33.5,0a.5.5,0,0,1,.5.5v12a.5.5,0,0,1-1,0V.5A.5.5,0,0,1,33.5,0Z"/>
    <path class="cls-5" d="M57.5,15H43V.5a.5.5,0,0,0-1,0v15a.5.5,0,0,0,.5.5h15a.5.5,0,0,0,0-1Z"/>
    <path class="cls-6" d="M45.5,6a.5.5,0,0,1,.5.5v6a.5.5,0,0,1-1,0v-6A.5.5,0,0,1,45.5,6Z"/>
    <path class="cls-6" d="M51.5,5a.5.5,0,0,1,.5.5v7a.5.5,0,0,1-1,0v-7A.5.5,0,0,1,51.5,5Z"/>
    <path class="cls-7" d="M48.5,3a.5.5,0,0,1,.5.5v9a.5.5,0,0,1-1,0v-9A.5.5,0,0,1,48.5,3Z"/>
    <path class="cls-7" d="M54.5,0a.5.5,0,0,1,.5.5v12a.5.5,0,0,1-1,0V.5A.5.5,0,0,1,54.5,0Z"/>
  </g>
</svg>
