<svg xmlns="http://www.w3.org/2000/svg" width="58" height="16"><g><path fill="#0089D9" fill-rule="evenodd" d="M.7 1.7C-.5 2.9.2 4.4.7 5L4 1.7C3.3 1 1.8.5.7 1.7zM8 2C4.1 2 1 5.1 1 9s3.2 7 7.1 7 7.1-3.1 7.1-7c-.1-3.9-3.3-7-7.2-7zm0 13c-3.3 0-6-2.7-6-6s2.7-6 6-6 6 2.7 6 6-2.7 6-6 6zm7.3-13.3C14.1.5 12.6 1 12 1.7L15.3 5c.6-.7 1.2-2.1 0-3.3zm-5 4.3l-2 2H7v2h2V8.7l2-2c.2-.2.2-.5 0-.7-.2-.1-.5-.1-.7 0z" clip-rule="evenodd"/><path fill="#C8C8C8" fill-rule="evenodd" d="M21.6 1.7c-1.2 1.2-.5 2.7 0 3.3L25 1.7c-.7-.7-2.2-1.2-3.4 0zM29 2c-3.9 0-7.1 3.1-7.1 7s3.2 7 7.1 7c3.9 0 7.1-3.1 7.1-7-.1-3.9-3.2-7-7.1-7zm0 13c-3.3 0-6-2.7-6-6s2.7-6 6-6 6 2.7 6 6-2.7 6-6 6zm7.3-13.3C35.1.5 33.6 1 33 1.7L36.3 5c.5-.7 1.2-2.1 0-3.3zM31.2 6l-2 2H28v2h2V8.7l2-2c.2-.2.2-.5 0-.7-.2-.1-.6-.1-.8 0z" clip-rule="evenodd"/><path fill="#39A6E6" fill-rule="evenodd" d="M57.3 1.7C56.1.5 54.6 1 54 1.7L57.3 5c.5-.7 1.2-2.1 0-3.3zM50 2c-3.9 0-7.1 3.1-7.1 7s3.2 7 7.1 7c3.9 0 7.1-3.1 7.1-7-.1-3.9-3.2-7-7.1-7zm0 13c-3.3 0-6-2.7-6-6s2.7-6 6-6 6 2.7 6 6-2.7 6-6 6zM42.6 1.7c-1.2 1.2-.5 2.7 0 3.3L46 1.7c-.7-.7-2.2-1.2-3.4 0zM52.2 6l-2 2H49v2h2V8.7l2-2c.2-.2.2-.5 0-.7-.2-.1-.6-.1-.8 0z" clip-rule="evenodd"/></g></svg>