<svg xmlns="http://www.w3.org/2000/svg" width="100" height="16" viewBox="0 0 100 16"><defs><style>.cls-1{fill:#0089d9;}.cls-2{fill:#c8c8c8;}.cls-3{fill:#39a6e6;}.cls-4{fill:#fff;}.cls-5{fill:#a0a0a0;}</style></defs><title>16</title><g id="Signalisation_Bell" data-name="Signalisation Bell"><path class="cls-1" d="M5.74,13.57A2.38,2.38,0,0,0,6,13.28a10.77,10.77,0,0,0-3.29-3.22,2.27,2.27,0,0,0-.28.29v0A2.23,2.23,0,0,0,2,11.83,2.32,2.32,0,0,0,4.12,14a2.28,2.28,0,0,0,1.63-.45ZM15.7.3c-.44-.42-1.52-.51-1.83-.15L12.34,2.43a1.44,1.44,0,0,0-1.71,1.22C9.3,2.53,8,3,7,4.1,5.09,6,3.59,7.31,2.28,7.31c-.78,0-1.46-.61-2,0a1.15,1.15,0,0,0-.13,1.2,8.56,8.56,0,0,0,1.12,2.08,3.63,3.63,0,0,1,.87-.65A7.67,7.67,0,0,1,.92,8,9.26,9.26,0,0,1,3.58,9.5h0a16.74,16.74,0,0,1,2.93,3.06v0l0,.06,0,0v0l.08.12.07.09v0A13.29,13.29,0,0,1,8,15a9.66,9.66,0,0,1-1.76-1.11,3.26,3.26,0,0,1-.61.93,8.16,8.16,0,0,0,2.08,1.07,1,1,0,0,0,1-.18c.3-.3.3-.82,0-1.53C8.4,12.75,9.86,11,12.05,8.83c1-1,1.44-2.19.29-3.48a1.54,1.54,0,0,0,1.2-1.63l2.2-1.61A1.45,1.45,0,0,0,15.7.3ZM10.85,8.38a21,21,0,0,0-3.15,4,19.22,19.22,0,0,0-1.86-2.16A21.19,21.19,0,0,0,3.66,8.31,17.67,17.67,0,0,0,7.61,5.14a2.13,2.13,0,0,1,3.25,0A2.16,2.16,0,0,1,10.85,8.38Z"/><path class="cls-2" d="M26.74,13.57a2.38,2.38,0,0,0,.28-.28,10.77,10.77,0,0,0-3.29-3.22,2.27,2.27,0,0,0-.28.29v0a2.23,2.23,0,0,0-.41,1.5A2.32,2.32,0,0,0,25.12,14a2.28,2.28,0,0,0,1.63-.45ZM36.7.3c-.44-.42-1.52-.51-1.83-.15L33.34,2.43a1.44,1.44,0,0,0-1.71,1.22C30.3,2.53,29,3,28,4.1,26.09,6,24.59,7.31,23.28,7.31c-.78,0-1.46-.61-2,0a1.15,1.15,0,0,0-.13,1.2,8.56,8.56,0,0,0,1.12,2.08,3.63,3.63,0,0,1,.87-.65A7.67,7.67,0,0,1,21.92,8,9.26,9.26,0,0,1,24.58,9.5h0a16.74,16.74,0,0,1,2.93,3.06v0l0,.06,0,0v0l.08.12.07.09v0A13.29,13.29,0,0,1,29,15a9.66,9.66,0,0,1-1.76-1.11,3.26,3.26,0,0,1-.61.93,8.16,8.16,0,0,0,2.08,1.07,1,1,0,0,0,1-.18c.3-.3.3-.82,0-1.53-.33-1.47,1.13-3.19,3.32-5.39,1-1,1.44-2.19.29-3.48a1.54,1.54,0,0,0,1.2-1.63l2.2-1.61A1.45,1.45,0,0,0,36.7.3ZM31.85,8.38a21,21,0,0,0-3.15,4,19.22,19.22,0,0,0-1.86-2.16,21.19,21.19,0,0,0-2.18-1.86,17.67,17.67,0,0,0,3.94-3.17,2.13,2.13,0,0,1,3.25,0A2.16,2.16,0,0,1,31.85,8.38Z"/><path class="cls-3" d="M57.7.3c-.44-.42-1.52-.51-1.83-.15L54.34,2.43a1.44,1.44,0,0,0-1.71,1.22C51.3,2.53,50,3,49,4.1,47.09,6,45.59,7.31,44.28,7.31c-.78,0-1.46-.61-2,0a1.15,1.15,0,0,0-.13,1.2,8.56,8.56,0,0,0,1.12,2.08,3.63,3.63,0,0,1,.87-.65A7.67,7.67,0,0,1,42.92,8,9.26,9.26,0,0,1,45.58,9.5h0a16.74,16.74,0,0,1,2.93,3.06v0l0,.06,0,0v0l.08.12.07.09v0A13.29,13.29,0,0,1,50,15a9.66,9.66,0,0,1-1.76-1.11,3.26,3.26,0,0,1-.61.93,8.16,8.16,0,0,0,2.08,1.07,1,1,0,0,0,1-.18c.3-.3.3-.82,0-1.53-.33-1.47,1.13-3.19,3.32-5.39,1-1,1.44-2.19.29-3.48a1.54,1.54,0,0,0,1.2-1.63l2.2-1.61A1.45,1.45,0,0,0,57.7.3ZM52.85,8.38a21,21,0,0,0-3.15,4,19.22,19.22,0,0,0-1.86-2.16,21.19,21.19,0,0,0-2.18-1.86,17.67,17.67,0,0,0,3.94-3.17,2.13,2.13,0,0,1,3.25,0A2.16,2.16,0,0,1,52.85,8.38Zm-5.12,5.18a2.38,2.38,0,0,0,.28-.28,10.77,10.77,0,0,0-3.29-3.22,2.27,2.27,0,0,0-.28.29v0a2.23,2.23,0,0,0-.41,1.5A2.32,2.32,0,0,0,46.12,14a2.28,2.28,0,0,0,1.63-.45Z"/><path class="cls-4" d="M68.74,13.57a2.38,2.38,0,0,0,.28-.28,10.77,10.77,0,0,0-3.29-3.22,2.27,2.27,0,0,0-.28.29v0a2.23,2.23,0,0,0-.41,1.5A2.32,2.32,0,0,0,67.12,14a2.28,2.28,0,0,0,1.63-.45ZM78.7.3c-.44-.42-1.52-.51-1.83-.15L75.34,2.43a1.44,1.44,0,0,0-1.71,1.22C72.3,2.53,71,3,70,4.1,68.09,6,66.59,7.31,65.28,7.31c-.78,0-1.46-.61-2,0a1.15,1.15,0,0,0-.13,1.2,8.56,8.56,0,0,0,1.12,2.08,3.63,3.63,0,0,1,.87-.65A7.67,7.67,0,0,1,63.92,8,9.26,9.26,0,0,1,66.58,9.5h0a16.74,16.74,0,0,1,2.93,3.06v0l0,.06,0,0v0l.08.12.07.09v0A13.29,13.29,0,0,1,71,15a9.66,9.66,0,0,1-1.76-1.11,3.26,3.26,0,0,1-.61.93,8.16,8.16,0,0,0,2.08,1.07,1,1,0,0,0,1-.18c.3-.3.3-.82,0-1.53-.33-1.47,1.13-3.19,3.32-5.39,1-1,1.44-2.19.29-3.48a1.54,1.54,0,0,0,1.2-1.63l2.2-1.61A1.45,1.45,0,0,0,78.7.3ZM73.85,8.38a21,21,0,0,0-3.15,4,19.22,19.22,0,0,0-1.86-2.16,21.19,21.19,0,0,0-2.18-1.86,17.67,17.67,0,0,0,3.94-3.17,2.13,2.13,0,0,1,3.25,0A2.16,2.16,0,0,1,73.85,8.38Z"/><path class="cls-5" d="M89.74,13.57a2.38,2.38,0,0,0,.28-.28,10.77,10.77,0,0,0-3.29-3.22,2.27,2.27,0,0,0-.28.29v0a2.23,2.23,0,0,0-.41,1.5A2.32,2.32,0,0,0,88.12,14a2.28,2.28,0,0,0,1.63-.45ZM99.7.3c-.44-.42-1.52-.51-1.83-.15L96.34,2.43a1.44,1.44,0,0,0-1.71,1.22C93.3,2.53,92,3,91,4.1,89.09,6,87.59,7.31,86.28,7.31c-.78,0-1.46-.61-2,0a1.15,1.15,0,0,0-.13,1.2,8.56,8.56,0,0,0,1.12,2.08,3.63,3.63,0,0,1,.87-.65A7.67,7.67,0,0,1,84.92,8,9.26,9.26,0,0,1,87.58,9.5h0a16.74,16.74,0,0,1,2.93,3.06v0l0,.06,0,0v0l.08.12.07.09v0A13.29,13.29,0,0,1,92,15a9.66,9.66,0,0,1-1.76-1.11,3.26,3.26,0,0,1-.61.93,8.16,8.16,0,0,0,2.08,1.07,1,1,0,0,0,1-.18c.3-.3.3-.82,0-1.53-.33-1.47,1.13-3.19,3.32-5.39,1-1,1.44-2.19.29-3.48a1.54,1.54,0,0,0,1.2-1.63l2.2-1.61A1.45,1.45,0,0,0,99.7.3ZM94.85,8.38a21,21,0,0,0-3.15,4,19.22,19.22,0,0,0-1.86-2.16,21.19,21.19,0,0,0-2.18-1.86,17.67,17.67,0,0,0,3.94-3.17,2.13,2.13,0,0,1,3.25,0A2.16,2.16,0,0,1,94.85,8.38Z"/></g></svg>