<svg id="Summarize" xmlns="http://www.w3.org/2000/svg" width="58" height="16" viewBox="0 0 58 16"><defs><style>.cls-1{fill:#0089d9;}.cls-1,.cls-2,.cls-3{fill-rule:evenodd;}.cls-2{fill:#d7d7d7;}.cls-3{fill:#39a6e6;}</style></defs><title>16_</title><polygon class="cls-1" points="16 4 16 0 14 0 1.13 0 1.13 0 1.13 0 1 0 1 0.13 0 1.13 6.88 8 0 14.88 1 15.88 1 16 1.13 16 1.13 16 1.13 16 14 16 16 16 16 12 14 12 14 14 3.13 14 9 8.13 8.88 8 9 7.88 3.13 2 14 2 14 4 16 4"/><polygon class="cls-2" points="37 4 37 0 35 0 22.13 0 22.13 0 22.12 0 22 0 22 0.13 21 1.13 27.88 8 21 14.88 22 15.88 22 16 22.12 16 22.13 16 22.13 16 35 16 37 16 37 12 35 12 35 14 24.13 14 30 8.13 29.88 8 30 7.88 24.13 2 35 2 35 4 37 4"/><polygon class="cls-3" points="58 4 58 0 56 0 43.13 0 43.13 0 43.12 0 43 0 43 0.13 42 1.13 48.88 8 42 14.88 43 15.88 43 16 43.12 16 43.13 16 43.13 16 56 16 58 16 58 12 56 12 56 14 45.13 14 51 8.13 50.88 8 51 7.88 45.13 2 56 2 56 4 58 4"/></svg>