<svg xmlns="http://www.w3.org/2000/svg" width="58" height="16" viewBox="0 0 58 16">
  <defs>
    <style>
      .cls-1 {
        fill: #0089d9;
      }

      .cls-1, .cls-2, .cls-3 {
        fill-rule: evenodd;
      }

      .cls-2 {
        fill: #c8c8c8;
      }

      .cls-3 {
        fill: #39a6e6;
      }
    </style>
  </defs>
  <title>16_save</title>
  <g id="Save">
    <path class="cls-1" d="M12.8,0H1.4A1.4,1.4,0,0,0,0,1.4V14.6A1.4,1.4,0,0,0,1.4,16H14.6A1.4,1.4,0,0,0,16,14.6V3.2ZM4,1h7V6H4ZM15,14s-.3,1-1,1H2c-.7,0-1-1-1-1V2A1.3,1.3,0,0,1,2,1H3V7h9V1h1l2,2ZM8,5h2V2H8Z"/>
    <path class="cls-2" d="M33.8,0H22.4A1.4,1.4,0,0,0,21,1.4V14.6A1.4,1.4,0,0,0,22.4,16H35.6A1.4,1.4,0,0,0,37,14.6V3.2ZM25,1h7V6H25ZM36,14s-.3,1-1,1H23c-.7,0-1-1-1-1V2a1.3,1.3,0,0,1,1-1h1V7h9V1h1l2,2ZM29,5h2V2H29Z"/>
    <path class="cls-3" d="M54.8,0H43.4A1.4,1.4,0,0,0,42,1.4V14.6A1.4,1.4,0,0,0,43.4,16H56.6A1.4,1.4,0,0,0,58,14.6V3.2ZM46,1h7V6H46ZM57,14s-.3,1-1,1H44c-.7,0-1-1-1-1V2a1.3,1.3,0,0,1,1-1h1V7h9V1h1l2,2ZM50,5h2V2H50Z"/>
  </g>
</svg>
