<svg xmlns="http://www.w3.org/2000/svg" width="58" height="16" viewBox="0 0 58 16">
  <defs>
    <style>
      .cls-1 {
        fill: #0089d9;
      }

      .cls-1, .cls-2, .cls-3 {
        fill-rule: evenodd;
      }

      .cls-2 {
        fill: #c8c8c8;
      }

      .cls-3 {
        fill: #39a6e6;
      }
    </style>
  </defs>
  <title>16_time</title>
  <g id="Time">
    <path class="cls-1" d="M13.7,2.3a8.1,8.1,0,0,0-11.4,0,8.1,8.1,0,0,0,0,11.4,8.1,8.1,0,0,0,11.4,0A8.1,8.1,0,0,0,13.7,2.3ZM13,13a7.1,7.1,0,0,1-9.9,0,6.9,6.9,0,0,1,0-9.9,6.9,6.9,0,0,1,9.9,0A6.9,6.9,0,0,1,13,13ZM11.5,8H8V2.5a.5.5,0,0,0-1,0v6a.5.5,0,0,0,.5.5h4a.5.5,0,0,0,0-1Z"/>
    <path class="cls-2" d="M34.7,2.3a8.1,8.1,0,0,0-11.4,0,8.1,8.1,0,0,0,0,11.4,8.1,8.1,0,0,0,11.4,0A8.1,8.1,0,0,0,34.7,2.3ZM34,13a7.1,7.1,0,0,1-9.9,0,6.9,6.9,0,0,1,0-9.9,6.9,6.9,0,0,1,9.9,0A6.9,6.9,0,0,1,34,13ZM32.5,8H29V2.5a.5.5,0,0,0-1,0v6a.5.5,0,0,0,.5.5h4a.5.5,0,0,0,0-1Z"/>
    <path class="cls-3" d="M55.7,2.3a8.1,8.1,0,0,0-11.4,0,8.1,8.1,0,0,0,0,11.4,8.1,8.1,0,0,0,11.4,0A8.1,8.1,0,0,0,55.7,2.3ZM55,13a7.1,7.1,0,0,1-9.9,0,6.9,6.9,0,0,1,0-9.9,6.9,6.9,0,0,1,9.9,0A7.1,7.1,0,0,1,55,13ZM53.5,8H50V2.5a.5.5,0,0,0-1,0v6a.5.5,0,0,0,.5.5h4a.5.5,0,0,0,0-1Z"/>
  </g>
</svg>
