<svg xmlns="http://www.w3.org/2000/svg" width="58" height="16" viewBox="0 0 58 16">
  <defs>
    <style>
      .cls-1 {
        fill: #0089d9;
      }

      .cls-1, .cls-2, .cls-3 {
        fill-rule: evenodd;
      }

      .cls-2 {
        fill: #c8c8c8;
      }

      .cls-3 {
        fill: #39a6e6;
      }
    </style>
  </defs>
  <title>16_undo</title>
  <g id="Undo">
    <path class="cls-1" d="M6,5.2v-4L0,7.6l6,6.6v-4c5.3,0,7.5.2,10,4.3C15.3,6.5,11.8,5.2,6,5.2Zm-1,4v2L1.9,7.6,5,4.2v2c5.7,0,7.4.8,9.3,4.5C12.1,9.3,10.3,9.2,5,9.2Z"/>
    <path class="cls-2" d="M27,5.2v-4L21,7.6l6,6.6v-4c5.3,0,7.4.2,10,4.3C36.3,6.5,32.7,5.2,27,5.2Zm-1,4v2L22.9,7.6,26,4.2v2c5.7,0,7.4.8,9.2,4.5C33.1,9.3,31.3,9.2,26,9.2Z"/>
    <path class="cls-3" d="M48,5.2v-4L42,7.6l6,6.6v-4c5.3,0,7.4.2,10,4.3C57.3,6.5,53.7,5.2,48,5.2Zm-1,4v2L43.9,7.6,47,4.2v2c5.7,0,7.4.8,9.2,4.5C54.1,9.3,52.3,9.2,47,9.2Z"/>
  </g>
</svg>
