<svg xmlns="http://www.w3.org/2000/svg" width="58" height="16" viewBox="0 0 58 16">
  <defs>
    <style>
      .cls-1 {
        fill: #0089d9;
      }

      .cls-1, .cls-2, .cls-3 {
        fill-rule: evenodd;
      }

      .cls-2 {
        fill: #c8c8c8;
      }

      .cls-3 {
        fill: #39a6e6;
      }
    </style>
  </defs>
  <title>16_unlock</title>
  <g id="Unlock">
    <path class="cls-1" d="M12,7H5V4A2.9,2.9,0,0,1,8,1a2.9,2.9,0,0,1,3,3h1A4,4,0,0,0,4,4V7A2,2,0,0,0,2,9v5a2,2,0,0,0,2,2h8a2,2,0,0,0,2-2V9A2,2,0,0,0,12,7Zm1,7a.9.9,0,0,1-1,1H4a.9.9,0,0,1-1-1V9A.9.9,0,0,1,4,8h8a.9.9,0,0,1,1,1ZM8,9a.9.9,0,0,0-1,1v1a.9.9,0,0,0,1,1,.9.9,0,0,0,1-1V10A.9.9,0,0,0,8,9Z"/>
    <path class="cls-2" d="M29,9a.9.9,0,0,0-1,1v1a1,1,0,0,0,2,0V10A.9.9,0,0,0,29,9Zm4-2H26V4a3,3,0,0,1,6,0h1a4,4,0,0,0-8,0V7a2,2,0,0,0-2,2v5a2,2,0,0,0,2,2h8a2,2,0,0,0,2-2V9A2,2,0,0,0,33,7Zm1,7a.9.9,0,0,1-1,1H25a.9.9,0,0,1-1-1V9a.9.9,0,0,1,1-1h8a.9.9,0,0,1,1,1Z"/>
    <path class="cls-3" d="M50,9a.9.9,0,0,0-1,1v1a1,1,0,0,0,2,0V10A.9.9,0,0,0,50,9Zm4-2H47V4a3,3,0,0,1,6,0h1a4,4,0,0,0-8,0V7a2,2,0,0,0-2,2v5a2,2,0,0,0,2,2h8a2,2,0,0,0,2-2V9A2,2,0,0,0,54,7Zm1,7a.9.9,0,0,1-1,1H46a.9.9,0,0,1-1-1V9a.9.9,0,0,1,1-1h8a.9.9,0,0,1,1,1Z"/>
  </g>
</svg>
