<svg xmlns="http://www.w3.org/2000/svg" width="58" height="16" viewBox="0 0 58 16">
  <defs>
    <style>
      .cls-1 {
        fill: #0089d9;
      }

      .cls-1, .cls-2, .cls-3 {
        fill-rule: evenodd;
      }

      .cls-2 {
        fill: #c8c8c8;
      }

      .cls-3 {
        fill: #39a6e6;
      }
    </style>
  </defs>
  <title>16_upload</title>
  <g id="Upload">
    <path class="cls-1" d="M14,1H1A.9.9,0,0,0,0,2v8a.9.9,0,0,0,1,1H5V10H2A.9.9,0,0,1,1,9V3A.9.9,0,0,1,2,2H13a.9.9,0,0,1,1,1V9a.9.9,0,0,1-1,1H10v1h4a.9.9,0,0,0,1-1V2A.9.9,0,0,0,14,1ZM10.9,7.9a.5.5,0,0,0,0-.7L8.1,4.4H7.9c0-.2-.2-.3-.4-.3s-.4.1-.4.3H6.9L4.1,7.2a.5.5,0,1,0,.7.7L7,5.7v8.8a.5.5,0,0,0,1,0V5.7l2.2,2.2A.5.5,0,0,0,10.9,7.9Z"/>
    <path class="cls-2" d="M35,1H22a.9.9,0,0,0-1,1v8a.9.9,0,0,0,1,1h4V10H23a.9.9,0,0,1-1-1V3a.9.9,0,0,1,1-1H34a.9.9,0,0,1,1,1V9a.9.9,0,0,1-1,1H31v1h4a.9.9,0,0,0,1-1V2A.9.9,0,0,0,35,1ZM31.9,7.9a.5.5,0,0,0,0-.7L29.1,4.4h-.2c0-.2-.2-.3-.4-.3s-.4.1-.4.3h-.2L25.1,7.2a.5.5,0,0,0,.7.7L28,5.7v8.8a.5.5,0,0,0,1,0V5.7l2.2,2.2A.5.5,0,0,0,31.9,7.9Z"/>
    <path class="cls-3" d="M56,1H43a.9.9,0,0,0-1,1v8a.9.9,0,0,0,1,1h4V10H44a.9.9,0,0,1-1-1V3a.9.9,0,0,1,1-1H55a.9.9,0,0,1,1,1V9a.9.9,0,0,1-1,1H52v1h4a.9.9,0,0,0,1-1V2A.9.9,0,0,0,56,1ZM52.9,7.9a.5.5,0,0,0,0-.7L50.1,4.4h-.2c0-.2-.2-.3-.4-.3s-.4.1-.4.3h-.2L46.1,7.2a.5.5,0,0,0,.7.7L49,5.7v8.8a.5.5,0,0,0,1,0V5.7l2.2,2.2A.5.5,0,0,0,52.9,7.9Z"/>
  </g>
</svg>
