<svg xmlns="http://www.w3.org/2000/svg" width="58" height="16" viewBox="0 0 58 16">
  <defs>
    <style>
      .cls-1 {
        fill: #0089d9;
      }

      .cls-1, .cls-2, .cls-3 {
        fill-rule: evenodd;
      }

      .cls-2 {
        fill: #c8c8c8;
      }

      .cls-3 {
        fill: #39a6e6;
      }
    </style>
  </defs>
  <title>16_user</title>
  <g id="User">
    <path class="cls-1" d="M10.7,4.6c-.2-1.2-1-1.2-1-1.8S7,2.8,6.3,4.6c1-1.1,2.8.2,3.2-.9C9.7,4.3,10.3,4.2,10.7,4.6Zm4.1,9.1-3.5-2.3-.6-.2c0-.2-.1-.5,0-.6a2.7,2.7,0,0,0,.8-1.9,2.4,2.4,0,0,0,1.4-2.4,1.2,1.2,0,0,0-.8-1c.2-.7.4-.6.4-1.7S12,1.4,10.7,1.4A3,3,0,0,0,8,0,3.7,3.7,0,0,0,4.1,3.6a3.1,3.1,0,0,0,.5,1.7,1.2,1.2,0,0,0-.9,1A2.6,2.6,0,0,0,5.1,8.7a2.3,2.3,0,0,0,.8,1.8.9.9,0,0,1,0,.7l-.6.2A37.5,37.5,0,0,1,1.4,14H1.3a.7.7,0,0,0-.3.6c0,1.8,14.7,1.7,14.7,0S15.4,13.9,14.8,13.7Zm-11.7.7,3.6-2.2a2.1,2.1,0,0,0,.1-2.1,3.7,3.7,0,0,1-.6-1.4.9.9,0,0,0-.7-.9,3.8,3.8,0,0,1-.6-1.6.7.7,0,0,0,.8-1.1C3.8,1.1,9.1,0,10.1,2.4c1.1-.4,1.9,1.8.8,2.7s.8,1.1.8,1.1-.3,1.3-.6,1.4a1,1,0,0,0-.8,1,1.8,1.8,0,0,1-.5,1.5A1.8,1.8,0,0,0,10,12l3.6,2.4C11.4,15.2,5.3,15.1,3.1,14.4Z"/>
    <path class="cls-2" d="M31.7,4.6c-.2-1.2-1-1.2-1-1.8s-2.7,0-3.4,1.8c1-1.1,2.8.2,3.2-.9C30.7,4.3,31.3,4.2,31.7,4.6Zm4.1,9.1-3.5-2.3-.6-.2c0-.2-.1-.5,0-.6a2.7,2.7,0,0,0,.8-1.9,2.4,2.4,0,0,0,1.4-2.4,1.2,1.2,0,0,0-.8-1c.2-.7.4-.6.4-1.7S33,1.4,31.7,1.4A3,3,0,0,0,29,0a3.7,3.7,0,0,0-3.9,3.6,3.1,3.1,0,0,0,.5,1.7,1.2,1.2,0,0,0-.9,1,2.6,2.6,0,0,0,1.4,2.4,2.3,2.3,0,0,0,.8,1.8.9.9,0,0,1,0,.7l-.6.2A37.5,37.5,0,0,1,22.4,14h-.1a.7.7,0,0,0-.3.6c0,1.8,14.7,1.7,14.7,0S36.4,13.9,35.8,13.7Zm-11.7.7,3.6-2.2a2.1,2.1,0,0,0,.1-2.1,3.7,3.7,0,0,1-.6-1.4.9.9,0,0,0-.7-.9,3.8,3.8,0,0,1-.6-1.6.7.7,0,0,0,.8-1.1c-1.9-4,3.4-5.1,4.4-2.7,1.1-.4,1.9,1.8.8,2.7s.8,1.1.8,1.1-.3,1.3-.6,1.4a1,1,0,0,0-.8,1,1.8,1.8,0,0,1-.5,1.5A1.8,1.8,0,0,0,31,12l3.6,2.4C32.4,15.2,26.3,15.1,24.1,14.4Z"/>
    <path class="cls-3" d="M52.6,4.6c-.2-1.2-1-1.2-1.1-1.8s-2.6,0-3.3,1.8c1-1.1,2.8.2,3.1-.9C51.5,4.3,52.2,4.2,52.6,4.6Zm4.1,9.1-3.5-2.3-.6-.2a.6.6,0,0,1,0-.6,2.7,2.7,0,0,0,.8-1.9,2.6,2.6,0,0,0,1.4-2.4,1.2,1.2,0,0,0-.9-1c.3-.7.5-.6.5-1.7s-.5-2.2-1.8-2.2A3,3,0,0,0,49.9,0,3.7,3.7,0,0,0,46,3.6a4.3,4.3,0,0,0,.4,1.7,1.5,1.5,0,0,0-.9,1c0,.8.7,2.2,1.5,2.4a2.3,2.3,0,0,0,.8,1.8c.1.2,0,.5,0,.7l-.6.2a31,31,0,0,1-4,2.6h0a.7.7,0,0,0-.3.6c0,1.8,14.6,1.7,14.6,0S57.3,13.9,56.7,13.7ZM45,14.4l3.6-2.2a2.1,2.1,0,0,0,.1-2.1,3.7,3.7,0,0,1-.6-1.4.9.9,0,0,0-.7-.9,3.8,3.8,0,0,1-.6-1.6.8.8,0,0,0,.8-1.1C45.7,1.1,51,0,52,2.4c1.1-.4,1.9,1.8.8,2.7s.7,1.1.7,1.1-.2,1.3-.5,1.4a1,1,0,0,0-.8,1,1.8,1.8,0,0,1-.5,1.5,1.8,1.8,0,0,0,.2,1.9l3.6,2.4C53.3,15.2,47.2,15.1,45,14.4Z"/>
  </g>
</svg>
