<svg xmlns="http://www.w3.org/2000/svg" width="58" height="16" viewBox="0 0 58 16">
  <defs>
    <style>
      .cls-1 {
        fill: #0089d9;
      }

      .cls-1, .cls-2, .cls-3 {
        fill-rule: evenodd;
      }

      .cls-2 {
        fill: #c8c8c8;
      }

      .cls-3 {
        fill: #39a6e6;
      }
    </style>
  </defs>
  <title>16_users</title>
  <g id="Users">
    <path class="cls-1" d="M16,9.7,14.1,8.4a.8.8,0,0,0-.7-.1,2,2,0,0,1,.1-.5c.4-.2.5-.8.6-1.2s.9-1,.8-1.5a.8.8,0,0,0-.5-.7c.2-.5.4-.5.4-1.3A1,1,0,0,0,13.6,2a2,2,0,0,0-1.8-1A2.4,2.4,0,0,0,9.2,3.2c0,.6.2.7.4,1.2a.8.8,0,0,0-.5.7c0,.5.3,1.4.9,1.5a1.1,1.1,0,0,0,.6,1.1v.5l-.6.3L8,9.7v.7c.1,1.8,8.1,1.7,8,0V9.7Zm-6.9.5,1.8-1.1a1,1,0,0,0,.5-.6,1.9,1.9,0,0,0-.1-1.3c-.2-.5-.5-.3-.5-1a1,1,0,0,0-.6-.8V5.2a1,1,0,0,0,.4-1,1.5,1.5,0,1,1,2.5-1.5c.6-.4.8,1.3.4,1.5s0,1.1.3,1.1a.3.3,0,0,1-.1.2.9.9,0,0,0-.5.7c0,.3-.4.6-.6.9a7.1,7.1,0,0,0,.1,1.4c.1.3.8.5.8.5l1.6,1.2A7.8,7.8,0,0,1,9.1,10.2ZM5.9,4.6c-.9.7-1.8-.2-2.3,1.1a3.6,3.6,0,0,1,2.5-.1A5.6,5.6,0,0,1,5.9,4.6Zm3.9,8.7c-.7-.5-1.8-1.6-2.4-2.1H6.9v-.6A2.6,2.6,0,0,0,7.6,9,2.3,2.3,0,0,0,8.7,7,1.1,1.1,0,0,0,8,6.1c.2-.6.4-.5.4-1.4A1.8,1.8,0,0,0,6.9,2.8,2.4,2.4,0,0,0,4.8,1.7a3,3,0,0,0-3.1,3A2.9,2.9,0,0,0,2,6.1a1.1,1.1,0,0,0-.7.9c0,.6.5,1.8,1.2,2a2,2,0,0,0,.6,1.5.6.6,0,0,1,0,.6H2.6A13.3,13.3,0,0,1,.2,13.4c-.1,0-.1.1-.1.2v.3c0,2.4,10,2.4,10,0a.8.8,0,0,0-.1-.4Zm-8.3.4,2.6-1.9a1.6,1.6,0,0,0,.1-1.7c-.1-.3-.6-.6-.6-1.3s-.5-.8-.8-.9-.3-.6-.2-.9a.8.8,0,0,0,.5-1.1c-1.3-3.2,2.6-4.1,3.3-2,.9-.4,1.4,1.3.5,2.1s.5,1,.5,1a1.4,1.4,0,0,1-.3,1.1.8.8,0,0,0-.7.8c.1.9-.2.9-.4,1.2a1.9,1.9,0,0,0,.3,1.8c.6.4,1.4,1.4,2.2,2C6.8,15.1,3,14.9,1.5,13.7Z"/>
    <path class="cls-2" d="M37,9.7,35,8.4c-.1-.1-.5-.2-.6-.1s0-.5.1-.5S35,7,35,6.6s.9-1,.9-1.5a1.1,1.1,0,0,0-.6-.7c.2-.5.4-.5.4-1.3A1,1,0,0,0,34.5,2a1.9,1.9,0,0,0-1.7-1,2.3,2.3,0,0,0-2.6,2.2c0,.6.2.7.4,1.2a.8.8,0,0,0-.5.7c-.1.5.3,1.4.8,1.5a1.1,1.1,0,0,0,.6,1.1.4.4,0,0,1,0,.5l-.6.3L29,9.7a.2.2,0,0,0,0,.3c0,.1-.1.3,0,.4,0,1.8,8.1,1.7,8,0s0-.3-.1-.4A.4.4,0,0,0,37,9.7Zm-6.9.5,1.7-1.1s.5-.2.6-.6a5.3,5.3,0,0,0-.1-1.3c-.3-.5-.5-.3-.6-1a1.1,1.1,0,0,0-.5-.8c-.1,0-.1-.1-.1-.2s.5-.7.4-1A1.5,1.5,0,1,1,34,2.7c.7-.4.8,1.3.4,1.5s0,1.1.3,1.1a.1.1,0,0,1,0,.2,1.1,1.1,0,0,0-.6.7c0,.3-.3.6-.5.9a3.4,3.4,0,0,0,.1,1.4c.1.3.7.5.7.5l1.7,1.2A7.8,7.8,0,0,1,30.1,10.2ZM26.9,4.6c-1,.7-1.8-.2-2.4,1.1A3.6,3.6,0,0,1,27,5.6C27,5.5,26.9,5,26.9,4.6Zm3.8,8.7c-.7-.5-1.8-1.6-2.4-2.1h-.4a1.5,1.5,0,0,1-.1-.6A1.8,1.8,0,0,0,28.5,9a2.1,2.1,0,0,0,1.1-2,1,1,0,0,0-.7-.9,2,2,0,0,0,.4-1.4,1.8,1.8,0,0,0-1.5-1.9,2.2,2.2,0,0,0-2.1-1.1,3,3,0,0,0-3.1,3c0,.8.2.8.4,1.4a1,1,0,0,0-.7.9,2.1,2.1,0,0,0,1.1,2,2,2,0,0,0,.6,1.5c.1.1.1.4.1.6h-.5a19.4,19.4,0,0,1-2.5,2.2c-.1,0-.1.1,0,.2l-.2.3c0,2.4,10.1,2.4,10.1,0l-.2-.4Zm-8.3.4A22.1,22.1,0,0,0,25,11.8a1.6,1.6,0,0,0,.1-1.7,4,4,0,0,1-.6-1.3,1.2,1.2,0,0,0-.8-.9,2,2,0,0,1-.2-.9.8.8,0,0,0,.6-1.1c-1.4-3.2,2.5-4.1,3.3-2,.8-.4,1.4,1.3.5,2.1s.4,1,.4,1A1.4,1.4,0,0,1,28,8.1a.9.9,0,0,0-.6.8c0,.9-.3.9-.5,1.2a2.2,2.2,0,0,0,.4,1.8c.6.4,1.4,1.4,2.1,2C27.7,15.1,23.9,14.9,22.4,13.7Z"/>
    <path class="cls-3" d="M58,9.7,56,8.4c-.1-.1-.5-.2-.6-.1a2,2,0,0,1,.1-.5c.4-.2.5-.8.5-1.2a1.4,1.4,0,0,0,.9-1.5.9.9,0,0,0-.5-.7c.1-.5.3-.5.3-1.3A1,1,0,0,0,55.5,2a1.9,1.9,0,0,0-1.7-1,2.4,2.4,0,0,0-2.6,2.2c0,.6.2.7.4,1.2a.8.8,0,0,0-.5.7c0,.5.3,1.4.8,1.5s.2.9.6,1.1a.7.7,0,0,1,.1.5l-.7.3L50,9.7a.2.2,0,0,0,0,.3v.4c.1,1.8,8.1,1.7,8,0V9.7Zm-6.9.5,1.7-1.1s.5-.2.6-.6a1.9,1.9,0,0,0-.1-1.3c-.3-.5-.5-.3-.6-1a.9.9,0,0,0-.5-.8.1.1,0,0,1,0-.2.8.8,0,0,0,.3-1A1.5,1.5,0,1,1,55,2.7c.7-.4.9,1.3.5,1.5s0,1.1.2,1.1a.1.1,0,0,1,0,.2.8.8,0,0,0-.5.7,4.7,4.7,0,0,1-.6.9,3.4,3.4,0,0,0,.1,1.4c.1.3.7.5.7.5l1.7,1.2A7.8,7.8,0,0,1,51.1,10.2ZM47.9,4.6c-.9.7-1.8-.2-2.3,1.1A3.3,3.3,0,0,1,48,5.6,4.6,4.6,0,0,0,47.9,4.6Zm3.8,8.7c-.7-.5-1.7-1.6-2.4-2.1h-.4c0-.2-.1-.5,0-.6A2,2,0,0,0,49.5,9c.7-.2,1.2-1.4,1.2-2a1.3,1.3,0,0,0-.7-.9,2.6,2.6,0,0,0,.3-1.4c0-.7-.4-1.8-1.4-1.9a2.4,2.4,0,0,0-2.2-1.1,3,3,0,0,0-3.1,3c0,.8.2.8.4,1.4a1.1,1.1,0,0,0-.7.9c0,.6.5,1.8,1.1,2a2.6,2.6,0,0,0,.7,1.5v.6h-.5a19.4,19.4,0,0,1-2.5,2.2v.2a.4.4,0,0,0-.1.3c0,2.4,10,2.4,10,0,0-.1-.1-.2-.1-.4Zm-8.3.4A22.1,22.1,0,0,0,46,11.8a1.8,1.8,0,0,0,.2-1.7,2,2,0,0,1-.6-1.3,1.8,1.8,0,0,0-.8-.9c-.2-.1-.3-.6-.3-.9a.8.8,0,0,0,.6-1.1c-1.4-3.2,2.5-4.1,3.3-2,.9-.4,1.4,1.3.5,2.1s.5,1,.5,1a2,2,0,0,1-.3,1.1.8.8,0,0,0-.7.8,1.4,1.4,0,0,1-.4,1.2,1.9,1.9,0,0,0,.3,1.8c.6.4,1.4,1.4,2.1,2C48.8,15.1,44.9,14.9,43.4,13.7Z"/>
  </g>
</svg>
