<svg xmlns="http://www.w3.org/2000/svg" width="79" height="16" viewBox="0 0 79 16">
  <defs>
    <style>
      .cls-1 {
        fill: #0089d9;
      }

      .cls-1, .cls-2, .cls-3, .cls-4, .cls-5 {
        fill-rule: evenodd;
      }

      .cls-2 {
        fill: #d6565a;
      }

      .cls-3 {
        fill: #39a6e6;
      }

      .cls-4 {
        fill: #e57377;
      }

      .cls-5 {
        fill: #c8c8c8;
      }
    </style>
  </defs>
  <title>16_unread_comment</title>
  <g id="Unread_Comment" data-name="Unread Comment">
    <path class="cls-1" d="M77,5a2.9,2.9,0,0,1-3-3,2.8,2.8,0,0,1,.8-2H67a4,4,0,0,0-4,4V8a4,4,0,0,0,4,4c.7,0,1,2.7,1,4h1c0-2,2.4-4,3.3-4H75a4,4,0,0,0,4-4V4.2A2.8,2.8,0,0,1,77,5ZM69,7H67V5h2Zm3,0H70V5h2Zm3,0H73V5h2Z"/>
    <path class="cls-2" d="M77,0a2,2,0,1,1-2,2A2,2,0,0,1,77,0Z"/>
    <path class="cls-3" d="M58,3.9V5H57V8a3,3,0,0,1-3,3H51a3.2,3.2,0,0,0-3,2,1.9,1.9,0,0,0-2-2,2.9,2.9,0,0,1-3-3V4a2.9,2.9,0,0,1,3-3h7V0H46a4,4,0,0,0-4,4V8a4,4,0,0,0,4,4c.7,0,1,2.7,1,4h1c0-2,2.4-4,3.3-4H54a4,4,0,0,0,4-4V4ZM54,7V6h0V5H52v.9h0V7ZM48,7V6h0V5H46v.9h0V7Zm3,0V6h0V5H49v.9h0V7Z"/>
    <path class="cls-4" d="M56,0a2,2,0,1,1-2,2A2,2,0,0,1,56,0Z"/>
    <path class="cls-5" d="M37,3.9V5H36V8a3,3,0,0,1-3,3H30a3.2,3.2,0,0,0-3,2,1.9,1.9,0,0,0-2-2,2.9,2.9,0,0,1-3-3V4a2.9,2.9,0,0,1,3-3h7V0H25a4,4,0,0,0-4,4V8a4,4,0,0,0,4,4c.7,0,1,2.7,1,4h1c0-2,2.4-4,3.3-4H33a4,4,0,0,0,4-4V4ZM33,7V6h0V5H31v.9h0V7ZM30,7V6h0V5H28v.9h0V7ZM27,7V6h0V5H25v.9h0V7Z"/>
    <path class="cls-5" d="M35,0a2,2,0,1,1-2,2A2,2,0,0,1,35,0Z"/>
    <path class="cls-1" d="M16,3.9V5H15V8a2.9,2.9,0,0,1-3,3H9a3.2,3.2,0,0,0-3,2,1.8,1.8,0,0,0-2-2A2.9,2.9,0,0,1,1,8V4A2.9,2.9,0,0,1,4,1h7V0H4A4,4,0,0,0,0,4V8a4,4,0,0,0,4,4c.7,0,1,2.7,1,4H6c0-2,2.4-4,3.3-4H12a4,4,0,0,0,4-4V4ZM12,7V6h0V5H10v.9h0V7ZM6,7V6H6V5H4v.9H4V7ZM9,7V6H9V5H7v.9H7V7Z"/>
    <path class="cls-2" d="M14,0a2,2,0,1,1-2,2A2,2,0,0,1,14,0Z"/>
  </g>
</svg>
