<svg xmlns="http://www.w3.org/2000/svg" width="58" height="16" viewBox="0 0 58 16">
  <defs>
    <style>
      .cls-1 {
        fill: #0089d9;
      }

      .cls-1, .cls-2 {
        fill-rule: evenodd;
      }

      .cls-2 {
        fill: #39a6e6;
      }
    </style>
  </defs>
  <title>16_word</title>
  <g id="Office_Word" data-name="Office Word">
    <path class="cls-1" d="M10,0H1V16H14V4Zm3,15H2V1H9V5h4ZM13,4H10V1h0l3,3ZM8,7H7.1L5,11.1V8h.9V7H3.2V8H4v5H5.8l1.3-2.4V13H8.5l3.1-5h.9V7H10V8h.2L8.4,10.2Z"/>
    <path class="cls-1" d="M29,7h-.9L26,11.1V8h.9V7H24.2V8H25v5h1.8l1.3-2.4V13h1.5l3.1-5h.9V7H31V8h.2l-1.8,2.2Zm2-7H22V16H35V4Zm3,15H23V1h7V5h4ZM34,4H31V1h0l3,3Z"/>
    <path class="cls-2" d="M52,0H43V16H56V4Zm3,15H44V1h7V5h4ZM55,4H52V1h0l3,3ZM50,7h-.9L47,11.1V8h.9V7H45.2V8H46v5h1.8l1.3-2.4V13h1.5l3.1-5h.9V7H52V8h.2l-1.8,2.2Z"/>
  </g>
</svg>
