<svg xmlns="http://www.w3.org/2000/svg" width="58" height="16" viewBox="0 0 58 16">
  <defs>
    <style>
      .cls-1 {
        fill: #0089d9;
      }

      .cls-2 {
        fill: #c8c8c8;
      }

      .cls-3 {
        fill: #39a6e6;
      }
    </style>
  </defs>
  <title>16_web</title>
  <g id="Web">
    <path class="cls-1" d="M3.3,3C1.1,4.4.5,8,1.4,9.9c.1.2,2.3,2.4,2.5,1.8a6.8,6.8,0,0,0-.7-2c-.3-.6.4-.6.4-1.4S3,7.7,3,7.7s-1-.3-.8-.4l1-.3c.3-.2.3-.6.5-.7A1.7,1.7,0,0,0,4.4,5a1.3,1.3,0,0,1,.4-1C5,3.7,3.8,2.8,3.3,3ZM8,0a8,8,0,1,0,8,8A8,8,0,0,0,8,0ZM8,15A7.1,7.1,0,0,1,.9,8,6.9,6.9,0,0,1,7,1.1H7c-.1.2-.2.9,0,.9s.1.4.4.5.1-.5.4-.3.3-.4.3.1h0c0,.3-.7.7-.8,1s-.1.2-.4.4-.3.6-.2.7-.3.1-.2.3.3.8.5.8.2-.7.5-.7l.5.4c.1,0-.1-.4,0-.5a1.2,1.2,0,0,1,.9.3c.2.1.2.5-.6.7a1.1,1.1,0,0,0-1.1.1c-.4.3-.4,1.1-.3,1.6s.4.5.8.6h.6c.2.1.7,0,.7,1.3s.6.7.6,1.2.9.2,1.1,0,.2-1.2.3-1.9.3-.3.2-.8a3.8,3.8,0,0,1,0-1.5c.1-.3-.3-.5-.5-.4s-.4.3-1,0l-.4-.2.8.2c.2-.1.7-.1.8-.3s-.8-1-.8-1,0,.6.5.3.9-.3,1.1.4.6.3.9.5a1.3,1.3,0,0,0,.6.5c.2,0-.1-.7,0-.9s.1-.6.2-.8.1-.4.3-.7h0A6.8,6.8,0,0,1,15,8,7.1,7.1,0,0,1,8,15Zm3.5-3c-.3-.5-1.1,0-1.5.3s-1,.2-1.1.5-.7.4-.4,1V14h.9a3.5,3.5,0,0,0,1.5-.7c.4-.3,1.6-.9,1.6-1.3S11.8,12.3,11.5,12Z"/>
    <path class="cls-2" d="M24.3,3c-2.2,1.4-2.8,5-1.9,6.9.1.2,2.3,2.4,2.5,1.8a6.8,6.8,0,0,0-.7-2c-.3-.6.4-.6.4-1.4s-.6-.6-.6-.6-1-.3-.8-.4l1-.3c.3-.2.3-.6.5-.7A1.7,1.7,0,0,0,25.4,5a1.3,1.3,0,0,1,.4-1C26,3.7,24.8,2.8,24.3,3ZM29,0a8,8,0,1,0,8,8A8,8,0,0,0,29,0Zm0,15a7.1,7.1,0,0,1-7.1-7A6.9,6.9,0,0,1,28,1.1h0c-.1.2-.2.9,0,.9s.1.4.4.5.1-.5.4-.3.3-.4.3.1h0c0,.3-.7.7-.8,1s-.1.2-.4.4-.3.6-.2.7-.3.1-.2.3.3.8.5.8.2-.7.5-.7l.5.4c.1,0-.1-.4,0-.5a1.2,1.2,0,0,1,.9.3c.2.1.2.5-.6.7a1.1,1.1,0,0,0-1.1.1c-.4.3-.4,1.1-.3,1.6s.4.5.8.6h.6c.2.1.7,0,.7,1.3s.6.7.6,1.2.9.2,1.1,0,.2-1.2.3-1.9.3-.3.2-.8a3.8,3.8,0,0,1,0-1.5c.1-.3-.3-.5-.5-.4s-.4.3-1,0l-.4-.2.8.2c.2-.1.7-.1.8-.3s-.8-1-.8-1,0,.6.5.3.9-.3,1.1.4.6.3.9.5a1.3,1.3,0,0,0,.6.5c.2,0-.1-.7,0-.9s.1-.6.2-.8.1-.4.3-.7h0A6.8,6.8,0,0,1,36,8,7.1,7.1,0,0,1,29,15Zm3.5-3c-.3-.5-1.1,0-1.5.3s-1,.2-1.1.5-.7.4-.4,1V14h.9a3.5,3.5,0,0,0,1.5-.7c.4-.3,1.6-.9,1.6-1.3S32.8,12.3,32.5,12Z"/>
    <path class="cls-3" d="M50,0a8,8,0,1,0,8,8A8,8,0,0,0,50,0Zm0,15a7.1,7.1,0,0,1-7.1-7A6.9,6.9,0,0,1,49,1.1h0c-.1.2-.2.9,0,.9s.1.4.4.5.1-.5.4-.3.3-.4.3.1h0c0,.3-.7.7-.8,1s-.1.2-.4.4-.3.6-.2.7-.3.1-.2.3.3.8.5.8.2-.7.5-.7l.5.4c.1,0-.1-.4,0-.5a1.2,1.2,0,0,1,.9.3c.2.1.2.5-.6.7a1.1,1.1,0,0,0-1.1.1c-.4.3-.4,1.1-.3,1.6s.4.5.8.6h.6c.2.1.7,0,.7,1.3s.6.7.6,1.2.9.2,1.1,0,.2-1.2.3-1.9.3-.3.2-.8a3.8,3.8,0,0,1,0-1.5c.1-.3-.3-.5-.5-.4s-.4.3-1,0l-.4-.2.8.2c.2-.1.7-.1.8-.3s-.8-1-.8-1,0,.6.5.3.9-.3,1.1.4.6.3.9.5a1.3,1.3,0,0,0,.6.5c.2,0-.1-.7,0-.9s.1-.6.2-.8.1-.4.3-.7h0A6.8,6.8,0,0,1,57,8,7.1,7.1,0,0,1,50,15ZM45.3,3c-2.2,1.4-2.8,5-1.9,6.9.1.2,2.3,2.4,2.5,1.8a6.8,6.8,0,0,0-.7-2c-.3-.6.4-.6.4-1.4s-.6-.6-.6-.6-1-.3-.8-.4l1-.3c.3-.2.3-.6.5-.7A1.7,1.7,0,0,0,46.4,5a1.3,1.3,0,0,1,.4-1C47,3.7,45.8,2.8,45.3,3Zm8.2,9c-.3-.5-1.1,0-1.5.3s-1,.2-1.1.5-.7.4-.4,1V14h.9a3.5,3.5,0,0,0,1.5-.7c.4-.3,1.6-.9,1.6-1.3S53.8,12.3,53.5,12Z"/>
  </g>
</svg>
