<svg xmlns="http://www.w3.org/2000/svg" width="58" height="16" viewBox="0 0 58 16">
  <defs>
    <style>
      .cls-1 {
        fill: #0089d9;
      }

      .cls-1, .cls-2, .cls-3 {
        fill-rule: evenodd;
      }

      .cls-2 {
        fill: #c8c8c8;
      }

      .cls-3 {
        fill: #39a6e6;
      }
    </style>
  </defs>
  <title>16_zoom_out</title>
  <g id="Zoom_Out" data-name="Zoom Out">
    <path class="cls-1" d="M15.8,14.8l-2.5-2.6A7,7,0,0,0,15,7.5,7.6,7.6,0,0,0,7.5,0,7.6,7.6,0,0,0,0,7.5,7.6,7.6,0,0,0,7.5,15a8,8,0,0,0,4.8-1.7l2.6,2.5c.2.3.7.2.9,0A.7.7,0,0,0,15.8,14.8ZM12.2,12l-.2.2A6.7,6.7,0,0,1,7.5,14,6.5,6.5,0,1,1,14,7.5,6.7,6.7,0,0,1,12.2,12ZM9.5,7h-4a.5.5,0,0,0,0,1h4a.5.5,0,0,0,0-1Z"/>
    <path class="cls-2" d="M36.8,14.8l-2.5-2.6A7.5,7.5,0,0,0,36,7.5,7.5,7.5,0,1,0,28.5,15a8,8,0,0,0,4.8-1.7l2.5,2.5a.8.8,0,0,0,1,0A.7.7,0,0,0,36.8,14.8ZM33.2,12l-.2.2A6.7,6.7,0,0,1,28.5,14a6.6,6.6,0,0,1-6.6-6.5A6.6,6.6,0,0,1,28.5,1,6.5,6.5,0,0,1,35,7.5,6.7,6.7,0,0,1,33.2,12ZM30.5,7h-4a.5.5,0,0,0,0,1h4a.5.5,0,0,0,0-1Z"/>
    <path class="cls-3" d="M57.8,14.8l-2.5-2.6A7.5,7.5,0,0,0,57,7.5,7.5,7.5,0,1,0,49.5,15a8,8,0,0,0,4.8-1.7l2.5,2.5a.8.8,0,0,0,1,0A.7.7,0,0,0,57.8,14.8ZM54.2,12l-.2.2A6.7,6.7,0,0,1,49.5,14a6.6,6.6,0,0,1-6.6-6.5A6.6,6.6,0,0,1,49.5,1,6.5,6.5,0,0,1,56,7.5,6.7,6.7,0,0,1,54.2,12ZM51.5,7h-4a.5.5,0,0,0,0,1h4a.5.5,0,0,0,0-1Z"/>
  </g>
</svg>
