<svg xmlns="http://www.w3.org/2000/svg" width="140" height="24" viewBox="0 0 140 24"><defs><style>.cls-1{fill:#39a6e6;}.cls-1,.cls-2,.cls-3,.cls-4,.cls-5{fill-rule:evenodd;}.cls-2{fill:#fff;}.cls-3{fill:#737373;}.cls-4{fill:#d7d7d7;}.cls-5{fill:#0089d9;}</style></defs><title>24</title><g id="Attach"><path class="cls-1" d="M79.47,1.54C77-.85,75.17-.29,72.74,2.1L61.8,12.85c-3.65,3.58-3.65,6-.65,8.92s5.51,3,9.16-.56L80,11.66l-1.49-1.47S70.25,18.53,69,19.71c-3,2.83-4.14,3.11-6.42.59s-1.82-3.83.61-6.22S72.95,4.59,74.16,3.39,76.28,1.41,78,3c1.49,1.35.39,2.57-.82,3.77L67.77,16c-1.22,1.19-2.12.31-.9-.89s9.66-9.35,9.66-9.35L75,4.35l-9.73,9.59c-1.22,1.2-1.65,3.09-.43,4.28s3,.6,4.26-.6l9.73-9.56C81.25,5.68,81.9,3.93,79.47,1.54Z"/><path class="cls-2" d="M108.49,1.54c-2.43-2.39-4.29-1.83-6.73.56L90.82,12.85c-3.65,3.58-3.65,6-.65,8.92s5.51,3,9.16-.56l9.73-9.56-1.49-1.47S99.28,18.53,98,19.71c-3,2.83-4.14,3.11-6.42.59s-1.82-3.83.61-6.22S102,4.59,103.19,3.39s2.12-2,3.85-.42c1.49,1.35.39,2.57-.82,3.77L96.8,16c-1.22,1.19-2.12.31-.9-.89s9.66-9.35,9.66-9.35L104,4.35,94.3,13.94c-1.22,1.2-1.65,3.09-.43,4.28s3,.6,4.26-.6l9.73-9.56C110.28,5.68,110.93,3.93,108.49,1.54Z"/><path class="cls-3" d="M137.49,1.54c-2.43-2.39-4.29-1.83-6.73.56L119.82,12.85c-3.65,3.58-3.65,6-.65,8.92s5.51,3,9.16-.56l9.73-9.56-1.49-1.47s-8.29,8.34-9.52,9.53c-3,2.83-4.14,3.11-6.42.59s-1.82-3.83.61-6.22S131,4.59,132.19,3.39s2.12-2,3.85-.42c1.49,1.35.39,2.57-.82,3.77L125.8,16c-1.22,1.19-2.12.31-.9-.89s9.66-9.35,9.66-9.35L133,4.35l-9.73,9.59c-1.22,1.2-1.65,3.09-.43,4.28s3,.6,4.26-.6l9.73-9.56C139.28,5.68,139.93,3.93,137.49,1.54Z"/><path class="cls-4" d="M50.47,1.54C48-.85,46.17-.29,43.74,2.1L32.8,12.85c-3.65,3.58-3.65,6-.65,8.92s5.51,3,9.16-.56L51,11.66l-1.49-1.47S41.25,18.53,40,19.71c-3,2.83-4.14,3.11-6.42.59s-1.82-3.83.61-6.22S43.95,4.59,45.16,3.39,47.28,1.41,49,3c1.49,1.35.39,2.57-.82,3.77L38.77,16c-1.22,1.19-2.12.31-.9-.89s9.66-9.35,9.66-9.35L46,4.35l-9.73,9.59c-1.22,1.2-1.65,3.09-.43,4.28s3,.6,4.26-.6l9.73-9.56C52.25,5.68,52.9,3.93,50.47,1.54Z"/><path class="cls-5" d="M21.44,1.54C19-.85,17.15-.29,14.71,2.1L3.77,12.85c-3.65,3.58-3.65,6-.65,8.92s5.51,3,9.16-.56L22,11.66l-1.49-1.47S12.23,18.53,11,19.71c-3,2.83-4.14,3.11-6.42.59s-1.82-3.83.61-6.22S14.92,4.59,16.14,3.39,18.26,1.41,20,3c1.49,1.35.39,2.57-.82,3.77L9.74,16c-1.22,1.19-2.12.31-.9-.89S18.5,5.75,18.5,5.75L17,4.35,7.24,13.94C6,15.14,5.59,17,6.81,18.23s3,.6,4.26-.6l9.73-9.56C23.23,5.68,23.87,3.93,21.44,1.54Z"/></g></svg>