<svg xmlns="http://www.w3.org/2000/svg" width="140" height="24" viewBox="0 0 140 24"><defs><style>.cls-1{fill:#0089d9;}.cls-1,.cls-2,.cls-3,.cls-4,.cls-5{fill-rule:evenodd;}.cls-2{fill:#d7d7d7;}.cls-3{fill:#39a6e6;}.cls-4{fill:#fff;}.cls-5{fill:#737373;}</style></defs><title>24</title><g id="Archive_Document" data-name="Archive Document"><path class="cls-1" d="M7,11,6,18a3,3,0,1,0,6,0l-1-7c0-1,0-2-2-2S7,10,7,11Zm2,5a2,2,0,1,1-2,2A2,2,0,0,1,9,16ZM16,.28V0H2V24H22V6.25Zm0,2.21L19.59,6H16ZM20,22H4V2H8.59V3H6V4H8.59V5H6V6H8.59V7H6V8H8.59V9H12V8H9.38V7H12V6H9.38V5H12V4H9.38V3H12V2h2V8h6Z"/><path class="cls-2" d="M45,.28V0H31V24H51V6.25Zm0,2.21L48.59,6H45ZM49,22H33V2h4.59V3H35V4h2.59V5H35V6h2.59V7H35V8h2.59V9H41V8H38.38V7H41V6H38.38V5H41V4H38.38V3H41V2h2V8h6ZM36,11l-1,7a3,3,0,1,0,6,0l-1-7c0-1,0-2-2-2S36,10,36,11Zm2,5a2,2,0,1,1-2,2A2,2,0,0,1,38,16Z"/><path class="cls-3" d="M74,.28V0H60V24H80V6.25Zm0,2.21L77.59,6H74ZM78,22H62V2h4.59V3H64V4h2.59V5H64V6h2.59V7H64V8h2.59V9H70V8H67.38V7H70V6H67.38V5H70V4H67.38V3H70V2h2V8h6ZM65,11l-1,7a3,3,0,1,0,6,0l-1-7c0-1,0-2-2-2S65,10,65,11Zm2,5a2,2,0,1,1-2,2A2,2,0,0,1,67,16Z"/><path class="cls-4" d="M94,11l-1,7a3,3,0,1,0,6,0l-1-7c0-1,0-2-2-2S94,10,94,11Zm2,5a2,2,0,1,1-2,2A2,2,0,0,1,96,16ZM103,.28V0H89V24h20V6.25Zm0,2.21L106.59,6H103ZM107,22H91V2h4.59V3H93V4h2.59V5H93V6h2.59V7H93V8h2.59V9H99V8H96.38V7H99V6H96.38V5H99V4H96.38V3H99V2h2V8h6Z"/><path class="cls-5" d="M132,.28V0H118V24h20V6.25Zm0,2.21L135.59,6H132ZM136,22H120V2h4.59V3H122V4h2.59V5H122V6h2.59V7H122V8h2.59V9H128V8h-2.62V7H128V6h-2.62V5H128V4h-2.62V3H128V2h2V8h6ZM123,11l-1,7a3,3,0,1,0,6,0l-1-7c0-1,0-2-2-2S123,10,123,11Zm2,5a2,2,0,1,1-2,2A2,2,0,0,1,125,16Z"/></g></svg>