<svg xmlns="http://www.w3.org/2000/svg" width="169" height="24" viewBox="0 0 169 24"><defs><style>.cls-1,.cls-6{fill:#0089d9;}.cls-2{fill:#d7d7d7;}.cls-3{fill:#39a6e6;}.cls-4{fill:#fff;}.cls-5{fill:#737373;}.cls-6{fill-rule:evenodd;}</style></defs><title>24</title><g id="Alert"><path class="cls-1" d="M8.55,20.34a3.27,3.27,0,0,0,.56-.49,12.08,12.08,0,0,0-4.66-5.13l-.18.13a3.55,3.55,0,0,0-.6.71l0,0a3.45,3.45,0,0,0-.55,2l0,0a3.49,3.49,0,0,0,3.36,3.35l.07.05a3.35,3.35,0,0,0,2-.61ZM23.48.45a1.7,1.7,0,0,0-2.27,0L18.46,3.64a2.16,2.16,0,0,0-2.55,1.84,5.11,5.11,0,0,0-5.72,1C7.37,9.33,5.36,11,3.4,11,2.24,11,1.21,10,.35,10.92a1.72,1.72,0,0,0-.19,1.8A13.47,13.47,0,0,0,2.07,16.2,5,5,0,0,1,3.22,15a11.83,11.83,0,0,1-1.84-3,11.83,11.83,0,0,1,2.43,1.2h0a23.1,23.1,0,0,1,6,5.78v0l.24.32v0a20.12,20.12,0,0,1,1.89,3.3,15,15,0,0,1-2.81-1.79A4.86,4.86,0,0,1,7.87,22a13,13,0,0,0,3.61,1.94A1.5,1.5,0,0,0,13,23.63c.45-.45.46-1.23,0-2.3-.49-2.2,1.09-4.28,4.36-7.57a5.14,5.14,0,0,0,1-5.74,2.31,2.31,0,0,0,1.8-2.44l3.29-2.88A1.58,1.58,0,0,0,23.48.45ZM16.23,12.58a23.68,23.68,0,0,0-4.71,5.93,28.84,28.84,0,0,0-2.79-3.24,31.75,31.75,0,0,0-3.26-2.8c1.72-.76,3.77-2.63,5.9-4.76a3.43,3.43,0,0,1,4.86,0A3.45,3.45,0,0,1,16.23,12.58Z"/><path class="cls-2" d="M37.55,20.34a3.27,3.27,0,0,0,.56-.49,12.08,12.08,0,0,0-4.66-5.13l-.18.13a3.55,3.55,0,0,0-.6.71l0,0a3.45,3.45,0,0,0-.55,2l0,0a3.49,3.49,0,0,0,3.36,3.35l.07.05a3.35,3.35,0,0,0,2-.61ZM52.48.45a1.7,1.7,0,0,0-2.27,0L47.46,3.64a2.16,2.16,0,0,0-2.55,1.84,5.11,5.11,0,0,0-5.72,1C36.37,9.33,34.36,11,32.4,11c-1.16,0-2.19-.92-3.05-.05a1.72,1.72,0,0,0-.19,1.8,13.47,13.47,0,0,0,1.92,3.48A5,5,0,0,1,32.22,15a11.83,11.83,0,0,1-1.84-3,11.82,11.82,0,0,1,2.43,1.2h0a23.1,23.1,0,0,1,6,5.78v0l.24.32v0a20.12,20.12,0,0,1,1.89,3.3,15,15,0,0,1-2.81-1.79A4.86,4.86,0,0,1,36.87,22a13,13,0,0,0,3.61,1.94A1.5,1.5,0,0,0,42,23.63c.45-.45.46-1.23,0-2.3-.49-2.2,1.09-4.28,4.36-7.57a5.14,5.14,0,0,0,1-5.74,2.31,2.31,0,0,0,1.8-2.44l3.29-2.88A1.58,1.58,0,0,0,52.48.45ZM45.23,12.58a23.68,23.68,0,0,0-4.71,5.93,28.84,28.84,0,0,0-2.79-3.24,31.75,31.75,0,0,0-3.26-2.8c1.72-.76,3.77-2.63,5.9-4.76a3.43,3.43,0,0,1,4.86,0A3.45,3.45,0,0,1,45.23,12.58Z"/><path class="cls-3" d="M66.55,20.34a3.27,3.27,0,0,0,.56-.49,12.08,12.08,0,0,0-4.66-5.13l-.18.13a3.55,3.55,0,0,0-.6.71l0,0a3.45,3.45,0,0,0-.55,2l0,0a3.49,3.49,0,0,0,3.36,3.35l.07.05a3.35,3.35,0,0,0,2-.61ZM81.48.45a1.7,1.7,0,0,0-2.27,0L76.46,3.64A2.16,2.16,0,0,0,73.9,5.47a5.11,5.11,0,0,0-5.72,1C65.37,9.33,63.36,11,61.39,11c-1.16,0-2.19-.92-3.05-.05a1.72,1.72,0,0,0-.19,1.8,13.47,13.47,0,0,0,1.92,3.48A4.94,4.94,0,0,1,61.21,15a11.84,11.84,0,0,1-1.84-3,11.82,11.82,0,0,1,2.43,1.2h0a23.1,23.1,0,0,1,6,5.78v0l.24.32v0a20.12,20.12,0,0,1,1.89,3.3,15,15,0,0,1-2.81-1.79A4.86,4.86,0,0,1,65.86,22a13,13,0,0,0,3.61,1.94A1.5,1.5,0,0,0,71,23.63c.45-.45.46-1.23,0-2.3-.49-2.2,1.09-4.28,4.36-7.57a5.14,5.14,0,0,0,1-5.74,2.31,2.31,0,0,0,1.8-2.44l3.29-2.88A1.58,1.58,0,0,0,81.48.45ZM74.23,12.58a23.68,23.68,0,0,0-4.71,5.93,28.83,28.83,0,0,0-2.79-3.24,31.74,31.74,0,0,0-3.26-2.8c1.72-.76,3.77-2.63,5.9-4.76a3.43,3.43,0,0,1,4.86,0A3.45,3.45,0,0,1,74.23,12.58Z"/><path class="cls-4" d="M95.55,20.34a3.27,3.27,0,0,0,.56-.49,12.08,12.08,0,0,0-4.66-5.13l-.18.13a3.55,3.55,0,0,0-.6.71l0,0a3.45,3.45,0,0,0-.55,2l0,0a3.49,3.49,0,0,0,3.36,3.35l.07.05a3.35,3.35,0,0,0,2-.61ZM110.48.45a1.7,1.7,0,0,0-2.27,0l-2.75,3.19a2.16,2.16,0,0,0-2.55,1.84,5.11,5.11,0,0,0-5.72,1C94.37,9.33,92.36,11,90.4,11c-1.16,0-2.19-.92-3.05-.05a1.72,1.72,0,0,0-.19,1.8,13.47,13.47,0,0,0,1.92,3.48A4.94,4.94,0,0,1,90.21,15a11.84,11.84,0,0,1-1.84-3,11.82,11.82,0,0,1,2.43,1.2h0a23.1,23.1,0,0,1,6,5.78v0l.24.32v0a20.12,20.12,0,0,1,1.89,3.3,15,15,0,0,1-2.81-1.79A4.86,4.86,0,0,1,94.86,22a13,13,0,0,0,3.61,1.94,1.5,1.5,0,0,0,1.56-.27c.45-.45.46-1.23,0-2.3-.49-2.2,1.09-4.28,4.36-7.57a5.14,5.14,0,0,0,1-5.74,2.31,2.31,0,0,0,1.8-2.44l3.29-2.88A1.58,1.58,0,0,0,110.48.45Zm-7.25,12.13a23.68,23.68,0,0,0-4.71,5.93,28.83,28.83,0,0,0-2.79-3.24,31.74,31.74,0,0,0-3.26-2.8c1.72-.76,3.77-2.63,5.9-4.76a3.43,3.43,0,0,1,4.86,0A3.45,3.45,0,0,1,103.23,12.58Z"/><path class="cls-5" d="M124.55,20.34a3.27,3.27,0,0,0,.56-.49,12.08,12.08,0,0,0-4.66-5.13l-.18.13a3.55,3.55,0,0,0-.6.71l0,0a3.45,3.45,0,0,0-.55,2l0,0a3.49,3.49,0,0,0,3.36,3.35l.07.05a3.35,3.35,0,0,0,2-.61ZM139.48.45a1.7,1.7,0,0,0-2.27,0l-2.75,3.19a2.16,2.16,0,0,0-2.55,1.84,5.11,5.11,0,0,0-5.72,1C123.37,9.33,121.36,11,119.4,11c-1.16,0-2.19-.92-3.05-.05a1.72,1.72,0,0,0-.19,1.8,13.47,13.47,0,0,0,1.92,3.48A4.94,4.94,0,0,1,119.22,15a11.84,11.84,0,0,1-1.84-3,11.82,11.82,0,0,1,2.43,1.2h0a23.1,23.1,0,0,1,6,5.78v0l.24.32v0a20.12,20.12,0,0,1,1.89,3.3,15,15,0,0,1-2.81-1.79,4.86,4.86,0,0,1-1.24,1.2,13,13,0,0,0,3.61,1.94,1.5,1.5,0,0,0,1.56-.27c.45-.45.46-1.23,0-2.3-.49-2.2,1.09-4.28,4.36-7.57a5.14,5.14,0,0,0,1-5.74,2.31,2.31,0,0,0,1.8-2.44l3.29-2.88A1.58,1.58,0,0,0,139.48.45Zm-7.25,12.13a23.68,23.68,0,0,0-4.71,5.93,28.83,28.83,0,0,0-2.79-3.24,31.74,31.74,0,0,0-3.26-2.8c1.72-.76,3.77-2.63,5.9-4.76a3.43,3.43,0,0,1,4.86,0A3.45,3.45,0,0,1,132.23,12.58Z"/><path class="cls-6" d="M153.56,20.34a3.27,3.27,0,0,0,.56-.49,12.08,12.08,0,0,0-4.66-5.13l-.18.13a3.55,3.55,0,0,0-.6.71l0,0a3.45,3.45,0,0,0-.55,2l0,0a3.49,3.49,0,0,0,3.36,3.35l.07.05a3.35,3.35,0,0,0,2-.61ZM168.43.54a1.42,1.42,0,0,0-2.18-.15l-2.78,3.25A2.17,2.17,0,0,0,161,5.25a4.79,4.79,0,0,1,3.36,2.39,2.23,2.23,0,0,0,.94-2l3.29-2.88A1.46,1.46,0,0,0,168.43.54Zm-4.77,8,0-.13a5.65,5.65,0,0,0-3-3h0a4.23,4.23,0,0,0-.72-.22,5.09,5.09,0,0,0-4.74,1.36c-2.81,2.82-4.82,4.45-6.79,4.45-1.16,0-2.19-.92-3.05-.05a1.72,1.72,0,0,0-.19,1.8,13.47,13.47,0,0,0,1.92,3.48A5,5,0,0,1,148.23,15a11.83,11.83,0,0,1-1.84-3,11.82,11.82,0,0,1,2.43,1.2h0a23.1,23.1,0,0,1,6,5.78v0l.24.32v0a20.12,20.12,0,0,1,1.89,3.3,15.05,15.05,0,0,1-2.81-1.79,4.86,4.86,0,0,1-1.24,1.2,13,13,0,0,0,3.61,1.94,1.5,1.5,0,0,0,1.56-.27c.45-.45.46-1.23,0-2.3-.49-2.2,1.09-4.28,4.36-7.57a5.13,5.13,0,0,0,1.34-4.87C163.74,8.79,163.71,8.67,163.67,8.55Z"/></g></svg>