<svg xmlns="http://www.w3.org/2000/svg" width="140" height="24" viewBox="0 0 140 24"><defs><style>.cls-1{fill:#39a6e6;}.cls-1,.cls-2,.cls-3,.cls-4,.cls-5,.cls-6,.cls-7{fill-rule:evenodd;}.cls-2{fill:#8ec928;}.cls-3{fill:#fff;}.cls-4{fill:#737373;}.cls-5{fill:#d7d7d7;}.cls-6{fill:#0089d9;}.cls-7{fill:#68a611;}</style></defs><title>24</title><g id="Add_comment" data-name="Add comment"><path class="cls-1" d="M76,0H64a6,6,0,0,0-6,6v6a6,6,0,0,0,6,6c1,0,2,3,2,5h1c0-2,1.56-3.51,3-4.33,0-.06,0-.11,0-.17a6.47,6.47,0,0,1,.41-2.26,5.65,5.65,0,0,0-3.64,3c-.07-2-1-3.19-2.77-3.19a3.7,3.7,0,0,1-4-4V6a3.7,3.7,0,0,1,4-4H76a3.7,3.7,0,0,1,4,4v6a5.26,5.26,0,0,1-.09,1,6.53,6.53,0,0,1,1.61,1.39A6,6,0,0,0,82,12V6A6,6,0,0,0,76,0ZM70,7a2,2,0,1,0,2,2A2,2,0,0,0,70,7Zm0,3a1,1,0,1,1,1-1A1,1,0,0,1,70,10Zm5-3a2,2,0,1,0,2,2A2,2,0,0,0,75,7Zm0,3a1,1,0,1,1,1-1A1,1,0,0,1,75,10ZM63,9a2,2,0,1,0,2-2A2,2,0,0,0,63,9Zm3,0a1,1,0,1,1-1-1A1,1,0,0,1,66,9Z"/><path class="cls-2" d="M78.5,18H77V16.5a.5.5,0,1,0-1,0V18H74.5a.5.5,0,0,0,0,1H76v1.5a.5.5,0,1,0,1,0V19h1.5a.5.5,0,0,0,0-1Zm-2-5A5.5,5.5,0,1,0,82,18.5,5.5,5.5,0,0,0,76.5,13Zm0,9.56a4.06,4.06,0,1,1,4.06-4.06A4.06,4.06,0,0,1,76.5,22.56Z"/><path class="cls-3" d="M104,7a2,2,0,1,0,2,2A2,2,0,0,0,104,7Zm0,3a1,1,0,1,1,1-1A1,1,0,0,1,104,10Zm1-10H93a6,6,0,0,0-6,6v6a6,6,0,0,0,6,6c1,0,2,3,2,5h1c0-2,1.56-3.51,3-4.33,0-.06,0-.11,0-.17a6.47,6.47,0,0,1,.41-2.26,5.65,5.65,0,0,0-3.64,3c-.07-2-1-3.19-2.77-3.19a3.7,3.7,0,0,1-4-4V6a3.7,3.7,0,0,1,4-4h12a3.7,3.7,0,0,1,4,4v6a5.26,5.26,0,0,1-.09,1,6.53,6.53,0,0,1,1.61,1.39A6,6,0,0,0,111,12V6A6,6,0,0,0,105,0ZM92,9a2,2,0,1,0,2-2A2,2,0,0,0,92,9Zm3,0a1,1,0,1,1-1-1A1,1,0,0,1,95,9Zm4-2a2,2,0,1,0,2,2A2,2,0,0,0,99,7Zm0,3a1,1,0,1,1,1-1A1,1,0,0,1,99,10Z"/><path class="cls-3" d="M107.5,18H106V16.5a.5.5,0,1,0-1,0V18h-1.5a.5.5,0,0,0,0,1H105v1.5a.5.5,0,1,0,1,0V19h1.5a.5.5,0,0,0,0-1Zm-2-5a5.5,5.5,0,1,0,5.5,5.5A5.5,5.5,0,0,0,105.5,13Zm0,9.56a4.06,4.06,0,1,1,4.06-4.06A4.06,4.06,0,0,1,105.5,22.56Z"/><path class="cls-4" d="M134,0H122a6,6,0,0,0-6,6v6a6,6,0,0,0,6,6c1,0,2,3,2,5h1c0-2,1.56-3.51,3-4.33,0-.06,0-.11,0-.17a6.47,6.47,0,0,1,.41-2.26,5.65,5.65,0,0,0-3.64,3c-.07-2-1-3.19-2.77-3.19a3.7,3.7,0,0,1-4-4V6a3.7,3.7,0,0,1,4-4h12a3.7,3.7,0,0,1,4,4v6a5.26,5.26,0,0,1-.09,1,6.53,6.53,0,0,1,1.61,1.39A6,6,0,0,0,140,12V6A6,6,0,0,0,134,0ZM121,9a2,2,0,1,0,2-2A2,2,0,0,0,121,9Zm3,0a1,1,0,1,1-1-1A1,1,0,0,1,124,9Zm4-2a2,2,0,1,0,2,2A2,2,0,0,0,128,7Zm0,3a1,1,0,1,1,1-1A1,1,0,0,1,128,10Zm5-3a2,2,0,1,0,2,2A2,2,0,0,0,133,7Zm0,3a1,1,0,1,1,1-1A1,1,0,0,1,133,10Z"/><path class="cls-4" d="M134.5,13a5.5,5.5,0,1,0,5.5,5.5A5.5,5.5,0,0,0,134.5,13Zm0,9.56a4.06,4.06,0,1,1,4.06-4.06A4.06,4.06,0,0,1,134.5,22.56Zm2-4.56H135V16.5a.5.5,0,1,0-1,0V18h-1.5a.5.5,0,0,0,0,1H134v1.5a.5.5,0,1,0,1,0V19h1.5a.5.5,0,0,0,0-1Z"/><path class="cls-5" d="M47,0H35a6,6,0,0,0-6,6v6a6,6,0,0,0,6,6c1,0,2,3,2,5h1c0-2,1.56-3.51,3-4.33,0-.06,0-.11,0-.17a6.47,6.47,0,0,1,.41-2.26,5.65,5.65,0,0,0-3.64,3c-.07-2-1-3.19-2.77-3.19a3.7,3.7,0,0,1-4-4V6a3.7,3.7,0,0,1,4-4H47a3.7,3.7,0,0,1,4,4v6a5.26,5.26,0,0,1-.09,1,6.53,6.53,0,0,1,1.61,1.39A6,6,0,0,0,53,12V6A6,6,0,0,0,47,0ZM34,9a2,2,0,1,0,2-2A2,2,0,0,0,34,9Zm3,0a1,1,0,1,1-1-1A1,1,0,0,1,37,9Zm9-2a2,2,0,1,0,2,2A2,2,0,0,0,46,7Zm0,3a1,1,0,1,1,1-1A1,1,0,0,1,46,10ZM41,7a2,2,0,1,0,2,2A2,2,0,0,0,41,7Zm0,3a1,1,0,1,1,1-1A1,1,0,0,1,41,10Z"/><path class="cls-5" d="M49.5,18H48V16.5a.5.5,0,1,0-1,0V18H45.5a.5.5,0,0,0,0,1H47v1.5a.5.5,0,1,0,1,0V19h1.5a.5.5,0,0,0,0-1Zm-2-5A5.5,5.5,0,1,0,53,18.5,5.5,5.5,0,0,0,47.5,13Zm0,9.56a4.06,4.06,0,1,1,4.06-4.06A4.06,4.06,0,0,1,47.5,22.56Z"/><path class="cls-6" d="M18,0H6A6,6,0,0,0,0,6v6a6,6,0,0,0,6,6c1,0,2,3,2,5H9c0-2,1.56-3.51,3-4.33,0-.06,0-.11,0-.17a6.47,6.47,0,0,1,.41-2.26,5.65,5.65,0,0,0-3.64,3C8.71,17.2,7.77,16,6,16a3.7,3.7,0,0,1-4-4V6A3.7,3.7,0,0,1,6,2H18a3.7,3.7,0,0,1,4,4v6a5.26,5.26,0,0,1-.09,1,6.53,6.53,0,0,1,1.61,1.39A6,6,0,0,0,24,12V6A6,6,0,0,0,18,0ZM5,9A2,2,0,1,0,7,7,2,2,0,0,0,5,9ZM8,9A1,1,0,1,1,7,8,1,1,0,0,1,8,9Zm9-2a2,2,0,1,0,2,2A2,2,0,0,0,17,7Zm0,3a1,1,0,1,1,1-1A1,1,0,0,1,17,10ZM12,7a2,2,0,1,0,2,2A2,2,0,0,0,12,7Zm0,3a1,1,0,1,1,1-1A1,1,0,0,1,12,10Z"/><path class="cls-7" d="M20.5,18H19V16.5a.5.5,0,1,0-1,0V18H16.5a.5.5,0,0,0,0,1H18v1.5a.5.5,0,1,0,1,0V19h1.5a.5.5,0,0,0,0-1Zm-2-5A5.5,5.5,0,1,0,24,18.5,5.5,5.5,0,0,0,18.5,13Zm0,9.56a4.06,4.06,0,1,1,4.06-4.06A4.06,4.06,0,0,1,18.5,22.56Z"/></g></svg>