<svg xmlns="http://www.w3.org/2000/svg" width="140" height="24" viewBox="0 0 140 24"><defs><style>.cls-1{fill:#39a6e6;}.cls-1,.cls-2,.cls-3,.cls-4,.cls-5{fill-rule:evenodd;}.cls-2{fill:#fff;}.cls-3{fill:#737373;}.cls-4{fill:#d7d7d7;}.cls-5{fill:#0089d9;}</style></defs><title>24</title><g id="Agreement"><path class="cls-1" d="M71.5,17.79a33.4,33.4,0,0,1,3.11,3.51A89.12,89.12,0,0,1,82,13.17l-.68-.67a32,32,0,0,0-6.72,6.09,9.84,9.84,0,0,0-2.19-1.71ZM63,5h4V6H63Zm0,3H73V9H63Zm4.66,9H63v1h4.52A7,7,0,0,1,67.66,17Zm1.48-3H63v1h5.44A7,7,0,0,1,69.14,14ZM73,11.66V11H63v1h8.9A7,7,0,0,1,73,11.66ZM70.16,24H58V0H78V12.43a7,7,0,0,0-2-.77V2H60V22h8.43A7,7,0,0,0,70.16,24Zm9.52-7.34a5.5,5.5,0,1,1-1.77-2.47l-1.13,1A4,4,0,1,0,78.5,18.5a4,4,0,0,0,0-.51Z"/><path class="cls-2" d="M100.5,17.79a33.4,33.4,0,0,1,3.11,3.51A89.12,89.12,0,0,1,111,13.17l-.68-.67a32,32,0,0,0-6.72,6.09,9.84,9.84,0,0,0-2.19-1.71ZM92,5h4V6H92Zm0,3h10V9H92Zm4.66,9H92v1h4.52A7,7,0,0,1,96.66,17Zm1.48-3H92v1h5.44A7,7,0,0,1,98.14,14ZM102,11.66V11H92v1h8.9A7,7,0,0,1,102,11.66ZM99.16,24H87V0h20V12.43a7,7,0,0,0-2-.77V2H89V22h8.43A7,7,0,0,0,99.16,24Zm9.52-7.34a5.5,5.5,0,1,1-1.77-2.47l-1.13,1a4,4,0,1,0,1.72,3.28,4,4,0,0,0,0-.51Z"/><path class="cls-3" d="M129.5,17.79a33.4,33.4,0,0,1,3.11,3.51A89.12,89.12,0,0,1,140,13.17l-.68-.67a32,32,0,0,0-6.72,6.09,9.84,9.84,0,0,0-2.19-1.71ZM121,5h4V6h-4Zm0,3h10V9H121Zm4.66,9H121v1h4.52A7,7,0,0,1,125.66,17Zm1.48-3H121v1h5.44A7,7,0,0,1,127.14,14ZM131,11.66V11H121v1h8.9A7,7,0,0,1,131,11.66ZM128.16,24H116V0h20V12.43a7,7,0,0,0-2-.77V2H118V22h8.43A7,7,0,0,0,128.16,24Zm9.52-7.34a5.5,5.5,0,1,1-1.77-2.47l-1.13,1a4,4,0,1,0,1.72,3.28,4,4,0,0,0,0-.51Z"/><path class="cls-4" d="M42.5,17.79a33.4,33.4,0,0,1,3.11,3.51A89.12,89.12,0,0,1,53,13.17l-.68-.67a32,32,0,0,0-6.72,6.09,9.84,9.84,0,0,0-2.19-1.71ZM34,5h4V6H34Zm0,3H44V9H34Zm4.66,9H34v1h4.52A7,7,0,0,1,38.66,17Zm1.48-3H34v1h5.44A7,7,0,0,1,40.14,14ZM44,11.66V11H34v1h8.9A7,7,0,0,1,44,11.66ZM41.16,24H29V0H49V12.43a7,7,0,0,0-2-.77V2H31V22h8.43A7,7,0,0,0,41.16,24Zm9.52-7.34a5.5,5.5,0,1,1-1.77-2.47l-1.13,1A4,4,0,1,0,49.5,18.5a4,4,0,0,0,0-.51Z"/><path class="cls-5" d="M13.5,17.79a33.4,33.4,0,0,1,3.11,3.51A89.12,89.12,0,0,1,24,13.17l-.68-.67a32,32,0,0,0-6.72,6.09,9.84,9.84,0,0,0-2.19-1.71ZM5,5H9V6H5ZM5,8H15V9H5Zm4.66,9H5v1H9.52A7,7,0,0,1,9.66,17Zm1.48-3H5v1h5.44A7,7,0,0,1,11.14,14ZM15,11.66V11H5v1h8.9A7,7,0,0,1,15,11.66ZM12.16,24H0V0H20V12.43a7,7,0,0,0-2-.77V2H2V22h8.43A7,7,0,0,0,12.16,24Zm9.52-7.34a5.5,5.5,0,1,1-1.77-2.47l-1.13,1A4,4,0,1,0,20.5,18.5a4,4,0,0,0,0-.51Z"/></g></svg>