<svg xmlns="http://www.w3.org/2000/svg" width="169" height="24" viewBox="0 0 169 24"><defs><style>.cls-1{fill:#0089d9;}.cls-1,.cls-2,.cls-3,.cls-4,.cls-5{fill-rule:evenodd;}.cls-2{fill:#d7d7d7;}.cls-3{fill:#39a6e6;}.cls-4{fill:#fff;}.cls-5{fill:#737373;}</style></defs><title>24</title><g id="Alarm"><path class="cls-1" d="M16,8,12.8,11.2a2,2,0,1,0,1,1L17,9A.71.71,0,1,0,16,8ZM12,2A11,11,0,1,0,23,13,11,11,0,0,0,12,2Zm0,20a9,9,0,1,1,9-9A9,9,0,0,1,12,22ZM23,2a3.49,3.49,0,0,0-5,0l5,5C23.79,5.92,24.76,3.8,23,2ZM1,2C-.8,3.8.26,6,1,7L6,2A3.49,3.49,0,0,0,1,2Z"/><path class="cls-2" d="M45,8,41.8,11.2a2,2,0,1,0,1,1L46,9A.71.71,0,1,0,45,8Zm7-6a3.49,3.49,0,0,0-5,0l5,5C52.79,5.92,53.76,3.8,52,2ZM41,2A11,11,0,1,0,52,13,11,11,0,0,0,41,2Zm0,20a9,9,0,1,1,9-9A9,9,0,0,1,41,22ZM30,2c-1.78,1.78-.72,4,0,5l5-5A3.49,3.49,0,0,0,30,2Z"/><path class="cls-3" d="M74,8,70.82,11.2a2,2,0,1,0,1,1L75,9A.71.71,0,1,0,74,8Zm7-6a3.49,3.49,0,0,0-5,0l5,5C81.81,5.92,82.78,3.8,81,2ZM70,2A11,11,0,1,0,81,13,11,11,0,0,0,70,2Zm0,20a9,9,0,1,1,9-9A9,9,0,0,1,70,22ZM59,2c-1.78,1.78-.72,4,0,5l5-5A3.49,3.49,0,0,0,59,2Z"/><path class="cls-4" d="M103,8,99.86,11.2a2,2,0,1,0,1,1L104,9A.71.71,0,1,0,103,8Zm7-6a3.49,3.49,0,0,0-5,0l5,5C110.85,5.92,111.82,3.8,110,2ZM99,2a11,11,0,1,0,11,11A11,11,0,0,0,99,2Zm0,20a9,9,0,1,1,9-9A9,9,0,0,1,99,22ZM88,2c-1.78,1.78-.72,4,0,5l5-5A3.49,3.49,0,0,0,88,2Z"/><path class="cls-5" d="M132,8l-3.18,3.18a2,2,0,1,0,1,1L133,9A.71.71,0,1,0,132,8Zm-4-6a11,11,0,1,0,11,11A11,11,0,0,0,128,2Zm0,20a9,9,0,1,1,9-9A9,9,0,0,1,128,22ZM139,2a3.49,3.49,0,0,0-5,0l5,5C139.81,5.92,140.78,3.8,139,2ZM117,2c-1.78,1.78-.72,4,0,5l5-5A3.49,3.49,0,0,0,117,2Z"/><path class="cls-1" d="M157,2a11,11,0,1,0,11,11A11,11,0,0,0,157,2Zm5,7-3.19,3.19a2,2,0,1,1-1-1L161,8A.71.71,0,1,1,162,9Zm6-7a3.49,3.49,0,0,0-5,0l5,5C168.81,5.92,169.78,3.8,168,2ZM146,2c-1.78,1.78-.72,4,0,5l5-5A3.49,3.49,0,0,0,146,2Z"/></g></svg>