<?xml version="1.0" encoding="utf-8"?>
<!-- Generator: Adobe Illustrator 19.1.1, SVG Export Plug-In . SVG Version: 6.00 Build 0)  -->
<svg version="1.1" xmlns="http://www.w3.org/2000/svg" xmlns:xlink="http://www.w3.org/1999/xlink" x="0px" y="0px" width="82px"
	 height="24px" viewBox="-458 489 82 24" style="enable-background:new -458 489 82 24;" xml:space="preserve">
<style type="text/css">
	.st0{fill:#0089D9;}
	.st1{fill:#C8C8C8;}
	.st2{fill:#39A6E6;}
	.st3{display:none;}
	.st4{display:inline;opacity:0.2;}
</style>
<g id="Layer_2_1_">
	<path class="st0" d="M-446.8,491c-1.4,0-2.4,1-2.4,2.4v0.8h-1.6v-0.8c0-2.2,1.8-4,4-4h1.6c2.2,0,4,1.8,4,4v0.8h-1.6v-0.8
		c0-1.4-1-2.4-2.4-2.4H-446.8z M-455.6,495c-1.4,0-2.4,1-2.4,2.4v6.4c0,0.5,0.3,1,0.8,1.4v5c0,1.4,1,2.4,2.4,2.4h17.6
		c1.4,0,2.4-1,2.4-2.4v-5c0.8-0.3,0.8-0.9,0.8-1.4v-6.4c0-1.4-1-2.4-2.4-2.4H-455.6z M-448.4,503.8v-1.6c0-0.5-0.3-0.8-0.8-0.8h-0.8
		v-4h-1.6v4h-0.8c-0.5,0-0.8,0.3-0.8,0.8v1.6h-3.2v-6.4c0-0.5,0.3-0.8,0.8-0.8h19.2c0.5,0,0.8,0.3,0.8,0.8v6.4h-3.2v-1.6
		c0-0.5-0.3-0.8-0.8-0.8h-0.8v-4h-1.6v4h-0.8c-0.5,0-0.8,0.3-0.8,0.8v1.6H-448.4z M-454.8,511c-0.5,0-0.8-0.3-0.8-0.8v-5.6h2.4
		c0,1.6,1,2.4,2.4,2.4c1.4,0,2.4-0.8,2.4-2.4h4.8c0,1.6,1,2.4,2.4,2.4c1.4,0,2.4-0.8,2.4-2.4h2.4v5.6c0,0.5-0.3,0.8-0.8,0.8H-454.8z
		 M-451.6,504.6V503h1.6c0,0.6,0,1,0,1.6c0,0.5-0.3,0.8-0.8,0.8C-451.3,505.4-451.6,505.1-451.6,504.6z M-441.2,505.4
		c-0.5,0-0.8-0.3-0.8-0.8c0-0.6,0-1,0-1.6h1.6v1.6C-440.4,505.1-440.8,505.4-441.2,505.4z"/>
	<path class="st1" d="M-417.8,491c-1.4,0-2.4,1-2.4,2.4v0.8h-1.6v-0.8c0-2.2,1.8-4,4-4h1.6c2.2,0,4,1.8,4,4v0.8h-1.6v-0.8
		c0-1.4-1-2.4-2.4-2.4H-417.8z M-426.6,495c-1.4,0-2.4,1-2.4,2.4v6.4c0,0.5,0.3,1,0.8,1.4v5c0,1.4,1,2.4,2.4,2.4h17.6
		c1.4,0,2.4-1,2.4-2.4v-5c0.8-0.3,0.8-0.9,0.8-1.4v-6.4c0-1.4-1-2.4-2.4-2.4H-426.6z M-419.4,503.8v-1.6c0-0.5-0.3-0.8-0.8-0.8h-0.8
		v-4h-1.6v4h-0.8c-0.5,0-0.8,0.3-0.8,0.8v1.6h-3.2v-6.4c0-0.5,0.3-0.8,0.8-0.8h19.1c0.5,0,0.8,0.3,0.8,0.8v6.4h-3.2v-1.6
		c0-0.5-0.3-0.8-0.8-0.8h-0.8v-4h-1.6v4h-0.8c-0.5,0-0.8,0.3-0.8,0.8v1.6H-419.4z M-425.8,511c-0.5,0-0.8-0.3-0.8-0.8v-5.6h2.4
		c0,1.6,1,2.4,2.4,2.4c1.4,0,2.4-0.8,2.4-2.4h4.8c0,1.6,1,2.4,2.4,2.4c1.4,0,2.4-0.8,2.4-2.4h2.4v5.6c0,0.5-0.3,0.8-0.8,0.8H-425.8z
		 M-422.6,504.6V503h1.6c0,0.6,0,1,0,1.6c0,0.5-0.3,0.8-0.8,0.8C-422.3,505.4-422.6,505.1-422.6,504.6z M-412.2,505.4
		c-0.5,0-0.8-0.3-0.8-0.8c0-0.6,0-1,0-1.6h1.6v1.6C-411.4,505.1-411.7,505.4-412.2,505.4z"/>
	<path class="st2" d="M-388.8,491c-1.4,0-2.4,1-2.4,2.4v0.8h-1.6v-0.8c0-2.2,1.8-4,4-4h1.6c2.2,0,4,1.8,4,4v0.8h-1.6v-0.8
		c0-1.4-1-2.4-2.4-2.4H-388.8z M-397.5,495c-1.4,0-2.4,1-2.4,2.4v6.4c0,0.5,0.3,1,0.8,1.4v5c0,1.4,1,2.4,2.4,2.4h17.6
		c1.4,0,2.4-1,2.4-2.4v-5c0.8-0.3,0.8-0.9,0.8-1.4v-6.4c0-1.4-1-2.4-2.4-2.4H-397.5z M-390.4,503.8v-1.6c0-0.5-0.3-0.8-0.8-0.8h-0.8
		v-4h-1.6v4h-0.8c-0.5,0-0.8,0.3-0.8,0.8v1.6h-3.2v-6.4c0-0.5,0.3-0.8,0.8-0.8h19.2c0.5,0,0.8,0.3,0.8,0.8v6.4h-3.2v-1.6
		c0-0.5-0.3-0.8-0.8-0.8h-0.8v-4h-1.6v4h-0.8c-0.5,0-0.8,0.3-0.8,0.8v1.6H-390.4z M-396.7,511c-0.5,0-0.8-0.3-0.8-0.8v-5.6h2.4
		c0,1.6,1,2.4,2.4,2.4c1.4,0,2.4-0.8,2.4-2.4h4.8c0,1.6,1,2.4,2.4,2.4c1.4,0,2.4-0.8,2.4-2.4h2.4v5.6c0,0.5-0.3,0.8-0.8,0.8H-396.7z
		 M-393.6,504.6V503h1.6c0,0.6,0,1,0,1.6c0,0.5-0.3,0.8-0.8,0.8C-393.2,505.4-393.6,505.1-393.6,504.6z M-383.2,505.4
		c-0.5,0-0.8-0.3-0.8-0.8c0-0.6,0-1,0-1.6h1.6v1.6C-382.4,505.1-382.7,505.4-383.2,505.4z"/>
</g>
<g id="Layer_3" class="st3">
	<g id="Guides" class="st4">
		<rect x="-458" y="489" class="st0" width="24" height="24"/>
		<rect x="-429" y="489" class="st0" width="24" height="24"/>
		<rect x="-400" y="489" class="st0" width="24" height="24"/>
	</g>
</g>
</svg>
