<?xml version="1.0" encoding="utf-8"?>
<!-- Generator: Adobe Illustrator 19.1.1, SVG Export Plug-In . SVG Version: 6.00 Build 0)  -->
<svg version="1.1" xmlns="http://www.w3.org/2000/svg" xmlns:xlink="http://www.w3.org/1999/xlink" x="0px" y="0px" width="82px"
	 height="24px" viewBox="0 0 82 24" enable-background="new 0 0 82 24" xml:space="preserve">
<g id="Break">
	<path id="Hover_6_" fill-rule="evenodd" clip-rule="evenodd" fill="#39A6E6" d="M76,18c-0.3,0-0.4-0.1-0.6-0.2
		c-0.7,0.9-1.5,1.7-2.5,2.2c2.4,0,4.5,0,6.1,0c0,2.2-3,2-10,2s-10,0.2-10-2c1.7,0,3.8,0,6.1,0c-2.5-1.4-4.1-4-4.1-7c0-1.1,0-4,0-4
		h14h2c0.9,0,1.8,0,2,0c1.7,0,2,1.8,2,4C81,15.2,77.7,18,76,18z M75,11H63c0,0,0,1.9,0,2.7c0,2.9,2.7,5.3,6,5.3s6-2.4,6-5.3
		C75,13.2,75,11,75,11z M77.7,11C77,11,77,11,77,13c0,1.1-0.1,3,0,3c0.4,0,2-1.9,2-3C79,11,79,11,77.7,11z M73,8h-1c0,0-1-0.9-1-2
		c0-0.6,1-1.4,1-2c0-1.1-1-2-1-2h1c0,0,1,0.9,1,2c0,0.6-1,1.4-1,2C72,7.2,73,8,73,8z M70,8h-1c0,0-1-0.9-1-2c0-0.6,1-1.4,1-2
		c0-1.1-1-2-1-2h1c0,0,1,0.9,1,2c0,0.6-1,1.4-1,2C69,7.2,70,8,70,8z M67,8h-1c0,0-1-0.9-1-2c0-0.6,1-1.4,1-2c0-1.1-1-2-1-2h1
		c0,0,1,0.9,1,2c0,0.6-1,1.4-1,2C66,7.2,67,8,67,8z"/>
	<path id="Disabled_6_" fill-rule="evenodd" clip-rule="evenodd" fill="#C8C8C8" d="M47,18c-0.3,0-0.4-0.1-0.6-0.2
		c-0.7,0.9-1.5,1.7-2.5,2.2c2.4,0,4.5,0,6.1,0c0,2.2-3,2-10,2s-10,0.2-10-2c1.7,0,3.8,0,6.1,0c-2.5-1.4-4.1-4-4.1-7c0-1.1,0-4,0-4
		h14h2c0.9,0,1.8,0,2,0c1.7,0,2,1.8,2,4C52,15.2,48.7,18,47,18z M46,11H34c0,0,0,1.9,0,2.7c0,2.9,2.7,5.3,6,5.3s6-2.4,6-5.3
		C46,13.2,46,11,46,11z M48.7,11C48,11,48,11,48,13c0,1.1-0.1,3,0,3c0.4,0,2-1.9,2-3C50,11,50,11,48.7,11z M44,8h-1c0,0-1-0.9-1-2
		c0-0.6,1-1.4,1-2c0-1.1-1-2-1-2h1c0,0,1,0.9,1,2c0,0.6-1,1.4-1,2C43,7.2,44,8,44,8z M41,8h-1c0,0-1-0.9-1-2c0-0.6,1-1.4,1-2
		c0-1.1-1-2-1-2h1c0,0,1,0.9,1,2c0,0.6-1,1.4-1,2C40,7.2,41,8,41,8z M38,8h-1c0,0-1-0.9-1-2c0-0.6,1-1.4,1-2c0-1.1-1-2-1-2h1
		c0,0,1,0.9,1,2c0,0.6-1,1.4-1,2C37,7.2,38,8,38,8z"/>
	<path id="Normal_8_" fill-rule="evenodd" clip-rule="evenodd" fill="#0089D9" d="M18,18c-0.3,0-0.4-0.1-0.6-0.2
		c-0.7,0.9-1.5,1.7-2.5,2.2c2.4,0,4.5,0,6.1,0c0,2.2-3,2-10,2S1,22.2,1,20c1.7,0,3.8,0,6.1,0C4.7,18.6,3,16,3,13c0-1.1,0-4,0-4h14h2
		c0.9,0,1.8,0,2,0c1.7,0,2,1.8,2,4C23,15.2,19.7,18,18,18z M17,11H5c0,0,0,1.9,0,2.7c0,2.9,2.7,5.3,6,5.3s6-2.4,6-5.3
		C17,13.2,17,11,17,11z M19.7,11C19,11,19,11,19,13c0,1.1-0.1,3,0,3c0.4,0,2-1.9,2-3C21,11,21,11,19.7,11z M15,8h-1c0,0-1-0.9-1-2
		c0-0.6,1-1.4,1-2c0-1.1-1-2-1-2h1c0,0,1,0.9,1,2c0,0.6-1,1.4-1,2C14,7.2,15,8,15,8z M12,8h-1c0,0-1-0.9-1-2c0-0.6,1-1.4,1-2
		c0-1.1-1-2-1-2h1c0,0,1,0.9,1,2c0,0.6-1,1.4-1,2C11,7.2,12,8,12,8z M9,8H8c0,0-1-0.9-1-2c0-0.6,1-1.4,1-2c0-1.1-1-2-1-2h1
		c0,0,1,0.9,1,2c0,0.6-1,1.4-1,2C8,7.2,9,8,9,8z"/>
</g>
<g id="Lunch">
</g>
<g id="Notification">
</g>
<g id="Send_1_">
</g>
<g id="Cancelled">
</g>
<g id="Sending_Failed">
</g>
<g id="Error_in_report">
</g>
<g id="Logon_Failed">
</g>
<g id="Changelog">
</g>
<g id="Export">
</g>
<g id="PDF">
</g>
<g id="Office_Excel">
</g>
<g id="Office_PowerPoint">
</g>
<g id="Office_Word">
</g>
<g id="Filter">
</g>
<g id="Dislike">
</g>
<g id="Like">
</g>
<g id="Favourite">
</g>
<g id="Preview">
</g>
<g id="Download">
</g>
<g id="Upload">
</g>
<g id="Open">
</g>
<g id="Web">
</g>
<g id="Unlocked">
</g>
<g id="Locked">
</g>
<g id="Phone">
</g>
<g id="Email">
</g>
<g id="Graphs">
</g>
<g id="Note">
</g>
<g id="Search">
</g>
<g id="Alarm">
</g>
<g id="Time">
</g>
<g id="Users">
</g>
<g id="User">
</g>
<g id="Refresh">
</g>
<g id="Home">
</g>
<g id="Report">
</g>
<g id="Paste">
</g>
<g id="Copy">
</g>
<g id="Cut">
</g>
<g id="Flag">
</g>
<g id="Redo">
</g>
<g id="Undo">
</g>
<g id="Zoom_Out">
</g>
<g id="Zoom_In">
</g>
<g id="Add_comment">
</g>
<g id="Unread_comment">
</g>
<g id="Comment">
</g>
<g id="New">
</g>
<g id="Attach">
</g>
<g id="Delete">
</g>
<g id="Save">
</g>
<g id="Edit">
</g>
<g id="Print">
</g>
<g id="Guides" display="none" opacity="0.2">
</g>
</svg>
