<svg xmlns="http://www.w3.org/2000/svg" width="140" height="24" viewBox="0 0 140 24"><defs><style>.cls-1{fill:#0089d9;}.cls-1,.cls-2,.cls-3,.cls-4,.cls-5{fill-rule:evenodd;}.cls-2{fill:#d7d7d7;}.cls-3{fill:#39a6e6;}.cls-4{fill:#fff;}.cls-5{fill:#737373;}</style></defs><title>24</title><g id="Breadcrumbs_Folder" data-name="Breadcrumbs Folder"><path class="cls-1" d="M12,17l5-5H7ZM23,8V6a2.15,2.15,0,0,0-2-2H12.5S11,1,9,1H4A3.23,3.23,0,0,0,1,4V8A1,1,0,0,0,0,9c0,.57,1,10,1,10a3.4,3.4,0,0,0,3,3H20a3.4,3.4,0,0,0,3-3s1-9.5,1-10A1.08,1.08,0,0,0,23,8ZM3,4A1.08,1.08,0,0,1,4,3H9c1,0,2.5,3,2.5,3H20a1.08,1.08,0,0,1,1,1V8H3ZM21,19a1.08,1.08,0,0,1-1,1H4a1.08,1.08,0,0,1-1-1s-1-8.44-1-9A1,1,0,0,1,3,9H21a1.08,1.08,0,0,1,1,1C22,10.5,21,19,21,19Z"/><path class="cls-2" d="M41,17l5-5H36ZM52,8V6a2.15,2.15,0,0,0-2-2H41.5S40,1,38,1H33a3.23,3.23,0,0,0-3,3V8a1,1,0,0,0-1,1c0,.57,1,10,1,10a3.4,3.4,0,0,0,3,3H49a3.4,3.4,0,0,0,3-3s1-9.5,1-10A1.08,1.08,0,0,0,52,8ZM32,4a1.08,1.08,0,0,1,1-1h5c1,0,2.5,3,2.5,3H49a1.08,1.08,0,0,1,1,1V8H32ZM50,19a1.08,1.08,0,0,1-1,1H33a1.08,1.08,0,0,1-1-1s-1-8.44-1-9a1,1,0,0,1,1-1H50a1.08,1.08,0,0,1,1,1C51,10.5,50,19,50,19Z"/><path class="cls-3" d="M70,17l5-5H65ZM81,8V6a2.15,2.15,0,0,0-2-2H70.5S69,1,67,1H62a3.23,3.23,0,0,0-3,3V8a1,1,0,0,0-1,1c0,.57,1,10,1,10a3.4,3.4,0,0,0,3,3H78a3.4,3.4,0,0,0,3-3s1-9.5,1-10A1.08,1.08,0,0,0,81,8ZM61,4a1.08,1.08,0,0,1,1-1h5c1,0,2.5,3,2.5,3H78a1.08,1.08,0,0,1,1,1V8H61ZM79,19a1.08,1.08,0,0,1-1,1H62a1.08,1.08,0,0,1-1-1s-1-8.44-1-9a1,1,0,0,1,1-1H79a1.08,1.08,0,0,1,1,1C80,10.5,79,19,79,19Z"/><path class="cls-4" d="M99,17l5-5H94Zm11-9V6a2.15,2.15,0,0,0-2-2H99.5S98,1,96,1H91a3.23,3.23,0,0,0-3,3V8a1,1,0,0,0-1,1c0,.57,1,10,1,10a3.4,3.4,0,0,0,3,3h16a3.4,3.4,0,0,0,3-3s1-9.5,1-10A1.08,1.08,0,0,0,110,8ZM90,4a1.08,1.08,0,0,1,1-1h5c1,0,2.5,3,2.5,3H107a1.08,1.08,0,0,1,1,1V8H90Zm18,15a1.08,1.08,0,0,1-1,1H91a1.08,1.08,0,0,1-1-1s-1-8.44-1-9a1,1,0,0,1,1-1h18a1.08,1.08,0,0,1,1,1C109,10.5,108,19,108,19Z"/><path class="cls-5" d="M128,17l5-5H123Zm11-9V6a2.15,2.15,0,0,0-2-2h-8.5S127,1,125,1h-5a3.23,3.23,0,0,0-3,3V8a1,1,0,0,0-1,1c0,.57,1,10,1,10a3.4,3.4,0,0,0,3,3h16a3.4,3.4,0,0,0,3-3s1-9.5,1-10A1.08,1.08,0,0,0,139,8ZM119,4a1.08,1.08,0,0,1,1-1h5c1,0,2.5,3,2.5,3H136a1.08,1.08,0,0,1,1,1V8H119Zm18,15a1.08,1.08,0,0,1-1,1H120a1.08,1.08,0,0,1-1-1s-1-8.44-1-9a1,1,0,0,1,1-1h18a1.08,1.08,0,0,1,1,1C138,10.5,137,19,137,19Z"/></g></svg>