<svg id="Comment_Chat" data-name="Comment Chat" xmlns="http://www.w3.org/2000/svg" width="140" height="24" viewBox="0 0 140 24"><defs><style>.cls-1{fill:#0089d9;}.cls-1,.cls-2,.cls-3,.cls-4,.cls-5{fill-rule:evenodd;}.cls-2{fill:#d7d7d7;}.cls-3{fill:#39a6e6;}.cls-4{fill:#fff;}.cls-5{fill:#737373;}</style></defs><title>24</title><path id="Normal" class="cls-1" d="M22.79,18.47a.61.61,0,0,0-.19.59,4.47,4.47,0,0,0,1.32,1.73,1.73,1.73,0,0,1,0,.2,7.4,7.4,0,0,1-3.25-.48.75.75,0,0,0-.78,0A6.93,6.93,0,0,1,17.5,21,6.26,6.26,0,0,1,11,15,6.26,6.26,0,0,1,17.5,9,6.26,6.26,0,0,1,24,15,5.68,5.68,0,0,1,22.79,18.47ZM17.5,11A4.32,4.32,0,0,0,13,15a4.34,4.34,0,0,0,4.51,4,4.79,4.79,0,0,0,1.7-.28,1,1,0,0,1,.89,0,2.93,2.93,0,0,0,1.19.57,2,2,0,0,1-.51-1.09.83.83,0,0,1,.3-.83A3.83,3.83,0,0,0,22,15,4.31,4.31,0,0,0,17.5,11ZM15.62,8.14A7.06,7.06,0,0,0,9,4C5.2,4,2,6.71,2,10a5.63,5.63,0,0,0,1.44,3.64,2.35,2.35,0,0,1,.36,1.76,1.23,1.23,0,0,1-.43.69,4.27,4.27,0,0,0,1.48-.66c.59-.32,1.27.09,1.5.17a7.65,7.65,0,0,0,3.73.32,6.91,6.91,0,0,0,.54,2A10.11,10.11,0,0,1,9,18a10,10,0,0,1-3.37-.58,1.08,1.08,0,0,0-1.08-.05A10.64,10.64,0,0,1,0,18a2.21,2.21,0,0,1,.07-.27,6,6,0,0,0,1.82-2.3.79.79,0,0,0-.26-.79A7.38,7.38,0,0,1,0,10C0,5.58,4,2,9,2a8.85,8.85,0,0,1,8.72,6.07A6.9,6.9,0,0,0,17,8,7,7,0,0,0,15.62,8.14Z"/><path id="Disabled" class="cls-2" d="M51.79,18.47a.61.61,0,0,0-.19.59,4.47,4.47,0,0,0,1.32,1.73,1.73,1.73,0,0,1,0,.2,7.4,7.4,0,0,1-3.25-.48.75.75,0,0,0-.78,0A6.93,6.93,0,0,1,46.5,21,6.26,6.26,0,0,1,40,15,6.26,6.26,0,0,1,46.5,9,6.26,6.26,0,0,1,53,15,5.68,5.68,0,0,1,51.79,18.47ZM46.5,11A4.32,4.32,0,0,0,42,15a4.34,4.34,0,0,0,4.51,4,4.79,4.79,0,0,0,1.7-.28,1,1,0,0,1,.89,0,2.93,2.93,0,0,0,1.19.57,2,2,0,0,1-.51-1.09.83.83,0,0,1,.3-.83A3.83,3.83,0,0,0,51,15,4.31,4.31,0,0,0,46.5,11ZM44.62,8.14A7.06,7.06,0,0,0,38,4c-3.79,0-7,2.71-7,6a5.63,5.63,0,0,0,1.44,3.64,2.35,2.35,0,0,1,.36,1.76,1.23,1.23,0,0,1-.43.69,4.27,4.27,0,0,0,1.48-.66c.59-.32,1.27.09,1.5.17a7.65,7.65,0,0,0,3.73.32,6.91,6.91,0,0,0,.54,2A10.11,10.11,0,0,1,38,18a10,10,0,0,1-3.37-.58,1.08,1.08,0,0,0-1.08-.05A10.64,10.64,0,0,1,29,18a2.21,2.21,0,0,1,.07-.27,6,6,0,0,0,1.82-2.3.79.79,0,0,0-.26-.79A7.38,7.38,0,0,1,29,10c0-4.42,4-8,9-8a8.85,8.85,0,0,1,8.72,6.07A6.9,6.9,0,0,0,46,8,7,7,0,0,0,44.62,8.14Z"/><path id="Hover" class="cls-3" d="M80.8,18.47a.61.61,0,0,0-.19.59,4.47,4.47,0,0,0,1.32,1.73,1.73,1.73,0,0,1,0,.2,7.4,7.4,0,0,1-3.25-.48.75.75,0,0,0-.78,0,6.93,6.93,0,0,1-2.43.44A6.26,6.26,0,0,1,69,15a6.51,6.51,0,0,1,13,0A5.68,5.68,0,0,1,80.8,18.47ZM75.51,11A4.32,4.32,0,0,0,71,15a4.34,4.34,0,0,0,4.51,4,4.79,4.79,0,0,0,1.7-.28,1,1,0,0,1,.89,0,2.93,2.93,0,0,0,1.19.57,2,2,0,0,1-.51-1.09.83.83,0,0,1,.3-.83A3.83,3.83,0,0,0,80,15,4.31,4.31,0,0,0,75.51,11ZM73.63,8.14A7.06,7.06,0,0,0,67,4c-3.79,0-7,2.71-7,6a5.63,5.63,0,0,0,1.44,3.64,2.35,2.35,0,0,1,.36,1.76,1.23,1.23,0,0,1-.43.69,4.27,4.27,0,0,0,1.48-.66c.59-.32,1.27.09,1.5.17a7.65,7.65,0,0,0,3.73.32,6.91,6.91,0,0,0,.54,2A10.11,10.11,0,0,1,67,18a10,10,0,0,1-3.37-.58,1.08,1.08,0,0,0-1.08-.05A10.64,10.64,0,0,1,58,18a2.21,2.21,0,0,1,.07-.27,6,6,0,0,0,1.82-2.3.79.79,0,0,0-.26-.79A7.38,7.38,0,0,1,58,10c0-4.42,4-8,9-8a8.85,8.85,0,0,1,8.72,6.07A6.9,6.9,0,0,0,75,8,7,7,0,0,0,73.63,8.14Z"/><path id="Hover-2" data-name="Hover" class="cls-4" d="M109.79,18.47a.61.61,0,0,0-.19.59,4.47,4.47,0,0,0,1.32,1.73,1.73,1.73,0,0,1,0,.2,7.4,7.4,0,0,1-3.25-.48.75.75,0,0,0-.78,0,6.93,6.93,0,0,1-2.43.44A6.26,6.26,0,0,1,98,15a6.51,6.51,0,0,1,13,0A5.68,5.68,0,0,1,109.79,18.47ZM104.5,11a4.32,4.32,0,0,0-4.5,4,4.34,4.34,0,0,0,4.51,4,4.79,4.79,0,0,0,1.7-.28,1,1,0,0,1,.89,0,2.93,2.93,0,0,0,1.19.57,2,2,0,0,1-.51-1.09.83.83,0,0,1,.3-.83A3.83,3.83,0,0,0,109,15,4.31,4.31,0,0,0,104.5,11Zm-1.89-2.85A7.06,7.06,0,0,0,96,4c-3.79,0-7,2.71-7,6a5.63,5.63,0,0,0,1.44,3.64,2.35,2.35,0,0,1,.36,1.76,1.23,1.23,0,0,1-.43.69,4.27,4.27,0,0,0,1.48-.66c.59-.32,1.27.09,1.5.17a7.65,7.65,0,0,0,3.73.32,6.91,6.91,0,0,0,.54,2A10.11,10.11,0,0,1,96,18a10,10,0,0,1-3.37-.58,1.08,1.08,0,0,0-1.08-.05A10.64,10.64,0,0,1,87,18a2.21,2.21,0,0,1,.07-.27,6,6,0,0,0,1.82-2.3.79.79,0,0,0-.26-.79A7.38,7.38,0,0,1,87,10c0-4.42,4-8,9-8a8.85,8.85,0,0,1,8.72,6.07A6.9,6.9,0,0,0,104,8,7,7,0,0,0,102.62,8.14Z"/><path id="Hover-3" data-name="Hover" class="cls-5" d="M138.8,18.47a.61.61,0,0,0-.19.59,4.47,4.47,0,0,0,1.32,1.73,1.73,1.73,0,0,1,0,.2,7.4,7.4,0,0,1-3.25-.48.75.75,0,0,0-.78,0,6.93,6.93,0,0,1-2.43.44A6.26,6.26,0,0,1,127,15a6.51,6.51,0,0,1,13,0A5.68,5.68,0,0,1,138.8,18.47ZM133.51,11a4.32,4.32,0,0,0-4.5,4,4.34,4.34,0,0,0,4.51,4,4.79,4.79,0,0,0,1.7-.28,1,1,0,0,1,.89,0,2.93,2.93,0,0,0,1.19.57,2,2,0,0,1-.51-1.09.83.83,0,0,1,.3-.83A3.83,3.83,0,0,0,138,15,4.31,4.31,0,0,0,133.51,11Zm-1.89-2.85A7.06,7.06,0,0,0,125,4c-3.79,0-7,2.71-7,6a5.63,5.63,0,0,0,1.44,3.64,2.35,2.35,0,0,1,.36,1.76,1.23,1.23,0,0,1-.43.69,4.27,4.27,0,0,0,1.48-.66c.59-.32,1.27.09,1.5.17a7.65,7.65,0,0,0,3.73.32,6.91,6.91,0,0,0,.54,2A10.11,10.11,0,0,1,125,18a10,10,0,0,1-3.37-.58,1.08,1.08,0,0,0-1.08-.05A10.64,10.64,0,0,1,116,18a2.21,2.21,0,0,1,.07-.27,6,6,0,0,0,1.82-2.3.79.79,0,0,0-.27-.79A7.38,7.38,0,0,1,116,10c0-4.42,4-8,9-8a8.85,8.85,0,0,1,8.72,6.07A6.9,6.9,0,0,0,133,8,7,7,0,0,0,131.63,8.14Z"/></svg>