<svg xmlns="http://www.w3.org/2000/svg" width="140" height="24" viewBox="0 0 140 24"><defs><style>.cls-1{fill:#0089d9;}.cls-1,.cls-2,.cls-3,.cls-4,.cls-5{fill-rule:evenodd;}.cls-2{fill:#d7d7d7;}.cls-3{fill:#39a6e6;}.cls-4{fill:#fff;}.cls-5{fill:#737373;}</style></defs><title>24</title><g id="Comment_Community" data-name="Comment Community"><path id="Normal" class="cls-1" d="M22.54,18.23c-.22.2-.68.67-.47,1.19A2.73,2.73,0,0,0,22.86,21,4.1,4.1,0,0,1,21,20.61a1.61,1.61,0,0,0-1.38-.06A8.06,8.06,0,0,1,17,21a7.29,7.29,0,0,1-6.49-4.11,9.52,9.52,0,0,0,8.39-7.65c2.89.7,5.09,2.9,5.09,5.5A5.3,5.3,0,0,1,22.54,18.23ZM9,16a10,10,0,0,1-3.37-.58,1.08,1.08,0,0,0-1.08-.05A10.64,10.64,0,0,1,0,16a2.21,2.21,0,0,1,.07-.27,6,6,0,0,0,1.82-2.3.79.79,0,0,0-.26-.79A7.38,7.38,0,0,1,0,8C0,3.58,4,0,9,0s9,3.58,9,8S14,16,9,16ZM9,2C5.2,2,2,4.71,2,8a5.63,5.63,0,0,0,1.44,3.64,2.35,2.35,0,0,1,.36,1.76,1.23,1.23,0,0,1-.43.69,4.27,4.27,0,0,0,1.48-.66c.59-.32,1.27.09,1.5.17A7.71,7.71,0,0,0,9,14c3.79,0,7-2.74,7-6S12.78,2,9,2ZM2,18a5.58,5.58,0,0,1,.13-1.16A8.17,8.17,0,0,0,4,16.29a1.19,1.19,0,0,1,1.2.06A10.94,10.94,0,0,0,9,17h.32a7.42,7.42,0,0,0,4.51,4.41A6.64,6.64,0,0,1,8.49,24a6.93,6.93,0,0,1-2.43-.44.75.75,0,0,0-.78,0A7.4,7.4,0,0,1,2,24a1.73,1.73,0,0,1,0-.2,4.47,4.47,0,0,0,1.32-1.73.61.61,0,0,0-.19-.59A5.68,5.68,0,0,1,2,18Z"/><path id="Disabled" class="cls-2" d="M51.54,18.23c-.22.2-.68.67-.47,1.19A2.73,2.73,0,0,0,51.86,21,4.1,4.1,0,0,1,50,20.61a1.61,1.61,0,0,0-1.38-.06A8.06,8.06,0,0,1,46,21a7.29,7.29,0,0,1-6.49-4.11,9.52,9.52,0,0,0,8.39-7.65c2.89.7,5.09,2.9,5.09,5.5A5.3,5.3,0,0,1,51.54,18.23ZM38,16a10,10,0,0,1-3.37-.58,1.08,1.08,0,0,0-1.08-.05A10.64,10.64,0,0,1,29,16a2.21,2.21,0,0,1,.07-.27,6,6,0,0,0,1.82-2.3.79.79,0,0,0-.26-.79A7.38,7.38,0,0,1,29,8c0-4.42,4-8,9-8s9,3.58,9,8S43,16,38,16ZM38,2c-3.79,0-7,2.71-7,6a5.63,5.63,0,0,0,1.44,3.64,2.35,2.35,0,0,1,.36,1.76,1.23,1.23,0,0,1-.43.69,4.27,4.27,0,0,0,1.48-.66c.59-.32,1.27.09,1.5.17A7.71,7.71,0,0,0,38,14c3.79,0,7-2.74,7-6S41.78,2,38,2ZM31,18a5.58,5.58,0,0,1,.13-1.16A8.17,8.17,0,0,0,33,16.29a1.19,1.19,0,0,1,1.2.06A10.94,10.94,0,0,0,38,17h.32a7.42,7.42,0,0,0,4.51,4.41A6.64,6.64,0,0,1,37.49,24a6.93,6.93,0,0,1-2.43-.44.75.75,0,0,0-.78,0A7.4,7.4,0,0,1,31,24a1.73,1.73,0,0,1,0-.2,4.47,4.47,0,0,0,1.32-1.73.61.61,0,0,0-.19-.59A5.68,5.68,0,0,1,31,18Z"/><path id="Hover" class="cls-3" d="M80.56,18.23c-.22.2-.68.67-.47,1.19A2.73,2.73,0,0,0,80.88,21,4.1,4.1,0,0,1,79,20.61a1.61,1.61,0,0,0-1.38-.06A8.06,8.06,0,0,1,75,21a7.29,7.29,0,0,1-6.49-4.11,9.52,9.52,0,0,0,8.39-7.65c2.89.7,5.09,2.9,5.09,5.5A5.3,5.3,0,0,1,80.56,18.23ZM67,16a10,10,0,0,1-3.37-.58,1.08,1.08,0,0,0-1.08-.05,10.64,10.64,0,0,1-4.51.63,2.21,2.21,0,0,1,.07-.27A6,6,0,0,0,60,13.43a.79.79,0,0,0-.26-.79A7.38,7.38,0,0,1,58,8c0-4.42,4-8,9-8s9,3.58,9,8S72,16,67,16ZM67,2c-3.79,0-7,2.71-7,6a5.63,5.63,0,0,0,1.44,3.64,2.35,2.35,0,0,1,.36,1.76,1.23,1.23,0,0,1-.43.69,4.27,4.27,0,0,0,1.48-.66c.59-.32,1.27.09,1.5.17A7.71,7.71,0,0,0,67,14c3.79,0,7-2.74,7-6S70.81,2,67,2ZM60,18a5.58,5.58,0,0,1,.13-1.16,8.17,8.17,0,0,0,1.92-.54,1.19,1.19,0,0,1,1.2.06A10.94,10.94,0,0,0,67,17h.32a7.42,7.42,0,0,0,4.51,4.41A6.64,6.64,0,0,1,66.51,24a6.93,6.93,0,0,1-2.43-.44.75.75,0,0,0-.78,0A7.4,7.4,0,0,1,60,24a1.73,1.73,0,0,1,0-.2,4.47,4.47,0,0,0,1.32-1.73.61.61,0,0,0-.19-.59A5.68,5.68,0,0,1,60,18Z"/><path id="Hover-2" data-name="Hover" class="cls-4" d="M109.56,18.23c-.22.2-.68.67-.47,1.19a2.73,2.73,0,0,0,.79,1.57,4.1,4.1,0,0,1-1.84-.38,1.61,1.61,0,0,0-1.38-.06A8.06,8.06,0,0,1,104,21a7.29,7.29,0,0,1-6.49-4.11,9.52,9.52,0,0,0,8.39-7.65c2.89.7,5.09,2.9,5.09,5.5A5.3,5.3,0,0,1,109.56,18.23ZM96,16a10,10,0,0,1-3.37-.58,1.08,1.08,0,0,0-1.08-.05,10.64,10.64,0,0,1-4.51.63,2.21,2.21,0,0,1,.07-.27A6,6,0,0,0,89,13.43a.79.79,0,0,0-.26-.79A7.38,7.38,0,0,1,87,8c0-4.42,4-8,9-8s9,3.58,9,8S101,16,96,16ZM96,2c-3.79,0-7,2.71-7,6a5.63,5.63,0,0,0,1.44,3.64,2.35,2.35,0,0,1,.36,1.76,1.23,1.23,0,0,1-.43.69,4.27,4.27,0,0,0,1.48-.66c.59-.32,1.27.09,1.5.17A7.71,7.71,0,0,0,96,14c3.79,0,7-2.74,7-6S99.81,2,96,2ZM89,18a5.58,5.58,0,0,1,.13-1.16,8.17,8.17,0,0,0,1.92-.54,1.19,1.19,0,0,1,1.2.06A10.94,10.94,0,0,0,96,17h.32a7.42,7.42,0,0,0,4.51,4.41A6.64,6.64,0,0,1,95.51,24a6.93,6.93,0,0,1-2.43-.44.75.75,0,0,0-.78,0A7.4,7.4,0,0,1,89,24a1.73,1.73,0,0,1,0-.2,4.47,4.47,0,0,0,1.32-1.73.61.61,0,0,0-.19-.59A5.68,5.68,0,0,1,89,18Z"/><path id="Hover-3" data-name="Hover" class="cls-5" d="M138.56,18.23c-.22.2-.68.67-.47,1.19a2.73,2.73,0,0,0,.79,1.57,4.1,4.1,0,0,1-1.84-.38,1.61,1.61,0,0,0-1.38-.06A8.06,8.06,0,0,1,133,21a7.29,7.29,0,0,1-6.49-4.11,9.52,9.52,0,0,0,8.39-7.65c2.89.7,5.09,2.9,5.09,5.5A5.3,5.3,0,0,1,138.56,18.23ZM125,16a10,10,0,0,1-3.37-.58,1.08,1.08,0,0,0-1.08-.05,10.64,10.64,0,0,1-4.51.63,2.21,2.21,0,0,1,.07-.27,6,6,0,0,0,1.82-2.3.79.79,0,0,0-.27-.79A7.38,7.38,0,0,1,116,8c0-4.42,4-8,9-8s9,3.58,9,8S130,16,125,16Zm0-14c-3.79,0-7,2.71-7,6a5.63,5.63,0,0,0,1.44,3.64,2.35,2.35,0,0,1,.36,1.76,1.23,1.23,0,0,1-.43.69,4.27,4.27,0,0,0,1.48-.66c.59-.32,1.27.09,1.5.17A7.71,7.71,0,0,0,125,14c3.79,0,7-2.74,7-6S128.81,2,125,2Zm-7,16a5.58,5.58,0,0,1,.13-1.16,8.17,8.17,0,0,0,1.92-.54,1.19,1.19,0,0,1,1.2.06A10.94,10.94,0,0,0,125,17h.32a7.42,7.42,0,0,0,4.51,4.41,6.64,6.64,0,0,1-5.34,2.6,6.93,6.93,0,0,1-2.43-.44.75.75,0,0,0-.78,0A7.4,7.4,0,0,1,118,24a1.73,1.73,0,0,1,0-.2,4.47,4.47,0,0,0,1.32-1.73.61.61,0,0,0-.19-.59A5.68,5.68,0,0,1,118,18Z"/></g></svg>