<svg xmlns="http://www.w3.org/2000/svg" width="140" height="24" viewBox="0 0 140 24"><defs><style>.cls-1{fill:#0089d9;}.cls-1,.cls-2,.cls-3,.cls-4,.cls-5{fill-rule:evenodd;}.cls-2{fill:#d7d7d7;}.cls-3{fill:#39a6e6;}.cls-4{fill:#fff;}.cls-5{fill:#737373;}</style></defs><title>24</title><g id="Change_Width" data-name="Change Width"><path class="cls-1" d="M21,12l-4,4V13H7v3L3,12,7,8v3H17V8Z"/><path class="cls-2" d="M50,12l-4,4V13H36v3l-4-4,4-4v3H46V8Z"/><path class="cls-3" d="M79,12l-4,4V13H65v3l-4-4,4-4v3H75V8Z"/><path class="cls-4" d="M108,12l-4,4V13H94v3l-4-4,4-4v3h10V8Z"/><path class="cls-5" d="M137,12l-4,4V13H123v3l-4-4,4-4v3h10V8Z"/></g></svg>