<svg xmlns="http://www.w3.org/2000/svg" width="140" height="24" viewBox="0 0 140 24"><defs><style>.cls-1{fill:#0089d9;}.cls-1,.cls-2,.cls-3,.cls-4,.cls-5{fill-rule:evenodd;}.cls-2{fill:#d7d7d7;}.cls-3{fill:#39a6e6;}.cls-4{fill:#fff;}.cls-5{fill:#737373;}</style></defs><title>24</title><g id="Comment_Web_Reply" data-name="Comment Web Reply"><path id="Normal" class="cls-1" d="M24,9l-6,6V11c-1.88,0-3.53-.1-5,0v1h2V22a2.15,2.15,0,0,1-2,2H3a2.15,2.15,0,0,1-2-2V2A2.15,2.15,0,0,1,3,0H13a2.15,2.15,0,0,1,2,2V6H13V7.43A26.65,26.65,0,0,1,18,7V3ZM3,21c0,1,.71,1,1,1h8c.29,0,1,0,1-1V18H3ZM13,3c0-1-.71-1-1-1H4C3.71,2,3,2,3,3V5H13Zm0,3H3V17H13V11.1c-4,.26-6.54,1.24-8,4.9,0-5.24,3.37-7.68,8-8.57ZM7,3H9c1,0,1,.21,1,.49S10,4,9,4H7c-1,0-1-.24-1-.51S6,3,7,3ZM8,22a2,2,0,1,1,2-2A2,2,0,0,1,8,22Zm0-3.47A1.49,1.49,0,1,0,9.51,20,1.5,1.5,0,0,0,8,18.52Z"/><path id="Disabled" class="cls-2" d="M53,9l-6,6V11c-1.88,0-3.53-.1-5,0v1h2V22a2.15,2.15,0,0,1-2,2H32a2.15,2.15,0,0,1-2-2V2a2.15,2.15,0,0,1,2-2H42a2.15,2.15,0,0,1,2,2V6H42V7.43A26.65,26.65,0,0,1,47,7V3ZM32,21c0,1,.71,1,1,1h8c.29,0,1,0,1-1V18H32ZM42,3c0-1-.71-1-1-1H33c-.29,0-1,0-1,1V5H42Zm0,3H32V17H42V11.1c-4,.26-6.54,1.24-8,4.9,0-5.24,3.37-7.68,8-8.57ZM36,3h2c1,0,1,.21,1,.49S39,4,38,4H36c-1,0-1-.24-1-.51S35,3,36,3Zm1,19a2,2,0,1,1,2-2A2,2,0,0,1,37,22Zm0-3.47A1.49,1.49,0,1,0,38.51,20,1.5,1.5,0,0,0,37,18.52Z"/><path id="Hover" class="cls-3" d="M82,9l-6,6V11c-1.88,0-3.53-.1-5,0v1h2V22a2.15,2.15,0,0,1-2,2H61a2.15,2.15,0,0,1-2-2V2a2.15,2.15,0,0,1,2-2H71a2.15,2.15,0,0,1,2,2V6H71V7.43A26.65,26.65,0,0,1,76,7V3ZM61,21c0,1,.71,1,1,1h8c.29,0,1,0,1-1V18H61ZM71,3c0-1-.71-1-1-1H62c-.29,0-1,0-1,1V5H71Zm0,3H61V17H71V11.1c-4,.26-6.54,1.24-8,4.9,0-5.24,3.37-7.68,8-8.57ZM65,3h2c1,0,1,.21,1,.49S68,4,67,4H65c-1,0-1-.24-1-.51S64,3,65,3Zm1,19a2,2,0,1,1,2-2A2,2,0,0,1,66,22Zm0-3.47A1.49,1.49,0,1,0,67.51,20,1.5,1.5,0,0,0,66,18.52Z"/><path id="Hover-2" data-name="Hover" class="cls-4" d="M111,9l-6,6V11c-1.88,0-3.53-.1-5,0v1h2V22a2.15,2.15,0,0,1-2,2H90a2.15,2.15,0,0,1-2-2V2a2.15,2.15,0,0,1,2-2h10a2.15,2.15,0,0,1,2,2V6h-2V7.43A26.65,26.65,0,0,1,105,7V3ZM90,21c0,1,.71,1,1,1h8c.29,0,1,0,1-1V18H90ZM100,3c0-1-.71-1-1-1H91c-.29,0-1,0-1,1V5h10Zm0,3H90V17h10V11.1c-4,.26-6.54,1.24-8,4.9,0-5.24,3.37-7.68,8-8.57ZM94,3h2c1,0,1,.21,1,.49S97,4,96,4H94c-1,0-1-.24-1-.51S93,3,94,3Zm1,19a2,2,0,1,1,2-2A2,2,0,0,1,95,22Zm0-3.47A1.49,1.49,0,1,0,96.51,20,1.5,1.5,0,0,0,95,18.52Z"/><path id="Hover-3" data-name="Hover" class="cls-5" d="M140,9l-6,6V11c-1.88,0-3.53-.1-5,0v1h2V22a2.15,2.15,0,0,1-2,2H119a2.15,2.15,0,0,1-2-2V2a2.15,2.15,0,0,1,2-2h10a2.15,2.15,0,0,1,2,2V6h-2V7.43A26.65,26.65,0,0,1,134,7V3ZM119,21c0,1,.71,1,1,1h8c.29,0,1,0,1-1V18H119ZM129,3c0-1-.71-1-1-1h-8c-.29,0-1,0-1,1V5h10Zm0,3H119V17h10V11.1c-4,.26-6.54,1.24-8,4.9,0-5.24,3.37-7.68,8-8.57Zm-6-3h2c1,0,1,.21,1,.49S126,4,125,4h-2c-1,0-1-.24-1-.51S122,3,123,3Zm1,19a2,2,0,1,1,2-2A2,2,0,0,1,124,22Zm0-3.47A1.49,1.49,0,1,0,125.51,20,1.5,1.5,0,0,0,124,18.52Z"/></g></svg>