<svg xmlns="http://www.w3.org/2000/svg" width="140" height="24" viewBox="0 0 140 24"><defs><style>.cls-1{fill:#0089d9;}.cls-1,.cls-2,.cls-3,.cls-4,.cls-5{fill-rule:evenodd;}.cls-2{fill:#d7d7d7;}.cls-3{fill:#39a6e6;}.cls-4{fill:#fff;}.cls-5{fill:#737373;}</style></defs><title>24</title><g id="Changelog"><path class="cls-1" d="M20.48,3.51A12,12,0,0,0,0,12H2A10,10,0,1,1,4.9,19.11c-.16-.16-.32-.33-.47-.51L7,16H1v6L3.05,20c.15.17.3.34.46.5a12,12,0,0,0,17-17Zm-7.89,9.94L17.88,13V12l-5.06-.5L12,3H11L10,13s.74,1,1.5,1A1.81,1.81,0,0,0,12.59,13.45Z"/><path class="cls-2" d="M41.59,13.45,46.88,13V12l-5.06-.5L41,3H40L39,13s.74,1,1.5,1A1.81,1.81,0,0,0,41.59,13.45Zm7.89-9.94A12,12,0,0,0,29,12h2a10,10,0,1,1,2.93,7.11c-.16-.16-.32-.33-.47-.51L36,16H30v6L32.05,20c.15.17.3.34.46.5a12,12,0,0,0,17-17Z"/><path class="cls-3" d="M70.59,13.45,75.88,13V12l-5.06-.5L70,3H69L68,13s.74,1,1.5,1A1.81,1.81,0,0,0,70.59,13.45Zm7.89-9.94A12,12,0,0,0,58,12h2a10,10,0,1,1,2.93,7.11c-.16-.16-.32-.33-.47-.51L65,16H59v6L61.05,20c.15.17.3.34.46.5a12,12,0,0,0,17-17Z"/><path class="cls-4" d="M107.49,3.51A12,12,0,0,0,87,12h2a10,10,0,1,1,2.93,7.11c-.16-.16-.32-.33-.47-.51L94,16H88v6L90.06,20c.15.17.3.34.46.5a12,12,0,0,0,17-17Zm-7.89,9.94,5.29-.45V12l-5.06-.5L99,3H98L97,13s.74,1,1.5,1A1.81,1.81,0,0,0,99.59,13.45Z"/><path class="cls-5" d="M128.59,13.45l5.29-.45V12l-5.06-.5L128,3h-1l-1,10s.74,1,1.5,1A1.81,1.81,0,0,0,128.59,13.45Zm7.89-9.94A12,12,0,0,0,116,12h2a10,10,0,1,1,2.93,7.11c-.16-.16-.32-.33-.47-.51L123,16h-6v6L119.05,20c.15.17.3.34.46.5a12,12,0,0,0,17-17Z"/></g></svg>