<svg xmlns="http://www.w3.org/2000/svg" width="140" height="24" viewBox="0 0 140 24"><defs><style>.cls-1{fill:#0089d9;}.cls-2{fill:#d7d7d7;}.cls-3{fill:#39a6e6;}.cls-4{fill:#fff;}.cls-5{fill:#737373;}</style></defs><title>24</title><g id="Contract"><path class="cls-1" d="M5.15,19a10.65,10.65,0,0,1,3-1.36l2.6-2.86c3.24.48,5.61-.23,7.17-1.92L13,13l6.08-1.94C21.38,8,22.48,3,24,.05c0-.44-3.4,2-5.8,4.22L6.62,16.88C6.29,17.21,4.82,18.68,5.15,19Zm13.94-3.89a1,1,0,0,0-1,1V22H2V8H8V2h8.08a1,1,0,1,0,0-2H6L0,6V24H20.08V16.12A1,1,0,0,0,19.08,15.12ZM6,2V6H2Z"/><path class="cls-2" d="M34.16,19a10.65,10.65,0,0,1,3-1.36l2.6-2.86c3.24.48,5.61-.23,7.17-1.92L42,13l6.08-1.94C50.39,8,51.49,3,53,.05c0-.44-3.4,2-5.8,4.22L35.63,16.88C35.3,17.21,33.83,18.68,34.16,19ZM48.1,15.12a1,1,0,0,0-1,1V22H31V8h6V2H45.1a1,1,0,1,0,0-2H35L29,6V24H49.1V16.12A1,1,0,0,0,48.1,15.12ZM35,2V6H31Z"/><path class="cls-3" d="M63.15,19a10.65,10.65,0,0,1,3-1.36l2.6-2.86c3.24.48,5.61-.23,7.17-1.92L71,13l6.08-1.94C79.38,8,80.48,3,82,.05c0-.44-3.4,2-5.8,4.22L64.62,16.88C64.29,17.21,62.82,18.68,63.15,19Zm13.94-3.89a1,1,0,0,0-1,1V22H60V8h6V2h8.08a1,1,0,1,0,0-2H64L58,6V24H78.08V16.12A1,1,0,0,0,77.08,15.12ZM64,2V6H60Z"/><path class="cls-4" d="M92.15,19a10.65,10.65,0,0,1,3-1.36l2.6-2.86c3.24.48,5.61-.23,7.17-1.92L100,13l6.08-1.94C108.38,8,109.48,3,111,.05c0-.44-3.4,2-5.8,4.22L93.62,16.88C93.29,17.21,91.82,18.68,92.15,19Zm13.94-3.89a1,1,0,0,0-1,1V22H89V8h6V2h8.08a1,1,0,1,0,0-2H93L87,6V24h20.08V16.12A1,1,0,0,0,106.08,15.12ZM93,2V6H89Z"/><path class="cls-5" d="M121.15,19a10.65,10.65,0,0,1,3-1.36l2.6-2.86c3.24.48,5.61-.23,7.17-1.92L129,13l6.08-1.94C137.38,8,138.48,3,140,.05c0-.44-3.4,2-5.8,4.22L122.62,16.88C122.29,17.21,120.82,18.68,121.15,19Zm13.94-3.89a1,1,0,0,0-1,1V22H118V8h6V2h8.08a1,1,0,1,0,0-2H122l-6,6V24h20.08V16.12A1,1,0,0,0,135.08,15.12ZM122,2V6h-4Z"/></g></svg>