<svg xmlns="http://www.w3.org/2000/svg" width="169" height="24" viewBox="0 0 169 24"><defs><style>.cls-1{fill:#0089d9;}.cls-1,.cls-2,.cls-3,.cls-4,.cls-5{fill-rule:evenodd;}.cls-2{fill:#39a6e6;}.cls-3{fill:#fff;}.cls-4{fill:#737373;}.cls-5{fill:#d7d7d7;}</style></defs><title>24</title><g id="Comment"><path class="cls-1" d="M163,1H151a6,6,0,0,0-6,6v6a6,6,0,0,0,6,6c1,0,2,3,2,5h1c0-3,3.61-5,4.94-5H163a6,6,0,0,0,6-6V7A6,6,0,0,0,163,1ZM152,12a2,2,0,1,1,2-2A2,2,0,0,1,152,12Zm5,0a2,2,0,1,1,2-2A2,2,0,0,1,157,12Zm5,0a2,2,0,1,1,2-2A2,2,0,0,1,162,12Z"/><path class="cls-2" d="M75,8a2,2,0,1,0,2,2A2,2,0,0,0,75,8Zm0,3a1,1,0,1,1,1-1A1,1,0,0,1,75,11ZM65,8a2,2,0,1,0,2,2A2,2,0,0,0,65,8Zm0,3a1,1,0,1,1,1-1A1,1,0,0,1,65,11ZM76,1H64a6,6,0,0,0-6,6v6a6,6,0,0,0,6,6c1,0,2,3,2,5h1c0-3,3.61-5,4.94-5H76a6,6,0,0,0,6-6V7A6,6,0,0,0,76,1Zm4,12a3.7,3.7,0,0,1-4,4H72a5.91,5.91,0,0,0-5.23,3.19c-.07-2-1-3.19-2.77-3.19a3.7,3.7,0,0,1-4-4V7a3.7,3.7,0,0,1,4-4H76a3.7,3.7,0,0,1,4,4ZM70,8a2,2,0,1,0,2,2A2,2,0,0,0,70,8Zm0,3a1,1,0,1,1,1-1A1,1,0,0,1,70,11Z"/><path class="cls-3" d="M94,8a2,2,0,1,0,2,2A2,2,0,0,0,94,8Zm0,3a1,1,0,1,1,1-1A1,1,0,0,1,94,11Zm10-3a2,2,0,1,0,2,2A2,2,0,0,0,104,8Zm0,3a1,1,0,1,1,1-1A1,1,0,0,1,104,11Zm1-10H93a6,6,0,0,0-6,6v6a6,6,0,0,0,6,6c1,0,2,3,2,5h1c0-3,3.61-5,4.94-5H105a6,6,0,0,0,6-6V7A6,6,0,0,0,105,1Zm4,12a3.7,3.7,0,0,1-4,4h-4a5.92,5.92,0,0,0-5.23,3.19c-.07-2-1-3.19-2.77-3.19a3.7,3.7,0,0,1-4-4V7a3.7,3.7,0,0,1,4-4h12a3.7,3.7,0,0,1,4,4ZM99,8a2,2,0,1,0,2,2A2,2,0,0,0,99,8Zm0,3a1,1,0,1,1,1-1A1,1,0,0,1,99,11Z"/><path class="cls-4" d="M123,8a2,2,0,1,0,2,2A2,2,0,0,0,123,8Zm0,3a1,1,0,1,1,1-1A1,1,0,0,1,123,11Zm5-3a2,2,0,1,0,2,2A2,2,0,0,0,128,8Zm0,3a1,1,0,1,1,1-1A1,1,0,0,1,128,11Zm5-3a2,2,0,1,0,2,2A2,2,0,0,0,133,8Zm0,3a1,1,0,1,1,1-1A1,1,0,0,1,133,11Zm1-10H122a6,6,0,0,0-6,6v6a6,6,0,0,0,6,6c1,0,2,3,2,5h1c0-3,3.61-5,4.94-5H134a6,6,0,0,0,6-6V7A6,6,0,0,0,134,1Zm4,12a3.7,3.7,0,0,1-4,4h-4a5.91,5.91,0,0,0-5.23,3.19c-.07-2-1-3.19-2.77-3.19a3.7,3.7,0,0,1-4-4V7a3.7,3.7,0,0,1,4-4h12a3.7,3.7,0,0,1,4,4Z"/><path class="cls-5" d="M36,8a2,2,0,1,0,2,2A2,2,0,0,0,36,8Zm0,3a1,1,0,1,1,1-1A1,1,0,0,1,36,11Zm5-3a2,2,0,1,0,2,2A2,2,0,0,0,41,8Zm0,3a1,1,0,1,1,1-1A1,1,0,0,1,41,11ZM47,1H35a6,6,0,0,0-6,6v6a6,6,0,0,0,6,6c1,0,2,3,2,5h1c0-3,3.61-5,4.94-5H47a6,6,0,0,0,6-6V7A6,6,0,0,0,47,1Zm4,12a3.7,3.7,0,0,1-4,4H43a5.92,5.92,0,0,0-5.23,3.19c-.07-2-1-3.19-2.77-3.19a3.7,3.7,0,0,1-4-4V7a3.7,3.7,0,0,1,4-4H47a3.7,3.7,0,0,1,4,4ZM46,8a2,2,0,1,0,2,2A2,2,0,0,0,46,8Zm0,3a1,1,0,1,1,1-1A1,1,0,0,1,46,11Z"/><path class="cls-1" d="M7,8a2,2,0,1,0,2,2A2,2,0,0,0,7,8Zm0,3a1,1,0,1,1,1-1A1,1,0,0,1,7,11ZM17,8a2,2,0,1,0,2,2A2,2,0,0,0,17,8Zm0,3a1,1,0,1,1,1-1A1,1,0,0,1,17,11ZM18,1H6A6,6,0,0,0,0,7v6a6,6,0,0,0,6,6c1,0,2,3,2,5H9c0-3,3.61-5,4.94-5H18a6,6,0,0,0,6-6V7A6,6,0,0,0,18,1Zm4,12a3.7,3.7,0,0,1-4,4H14a5.92,5.92,0,0,0-5.23,3.19C8.71,18.2,7.77,17,6,17a3.7,3.7,0,0,1-4-4V7A3.7,3.7,0,0,1,6,3H18a3.7,3.7,0,0,1,4,4ZM12,8a2,2,0,1,0,2,2A2,2,0,0,0,12,8Zm0,3a1,1,0,1,1,1-1A1,1,0,0,1,12,11Z"/></g></svg>