<svg xmlns="http://www.w3.org/2000/svg" width="140" height="24" viewBox="0 0 140 24"><defs><style>.cls-1{fill:#0089d9;}.cls-1,.cls-2,.cls-3,.cls-4,.cls-5{fill-rule:evenodd;}.cls-2{fill:#d7d7d7;}.cls-3{fill:#39a6e6;}.cls-4{fill:#fff;}.cls-5{fill:#737373;}</style></defs><title>24</title><g id="Cut"><path class="cls-1" d="M19.36,18.37a4.08,4.08,0,0,0-4.24-2.27L13,14h1c5-4,5-14,5-14H18s-1.67,8.3-6.51,12.8C6.69,8.3,5,0,5,0H4S4,10,9,14h1L7.93,16.1a4.08,4.08,0,0,0-4.24,2.27c-1.16,2-.83,4.37.73,5.28s3.75,0,4.91-2a4.42,4.42,0,0,0,.27-4.21l1.35-1.35.58-.3.58.3,1.35,1.35a4.42,4.42,0,0,0,.27,4.21c1.16,2,3.35,2.91,4.91,2S20.51,20.38,19.36,18.37ZM7.65,20.92c-.48,1-1.39,1.38-2,1a2,2,0,0,1-.3-2.5c.48-1,1.52-1.68,2.17-1.25S8.13,20,7.65,20.92ZM12,15H11V14h1Zm5.42,6.87c-.65.43-1.56,0-2-1s-.48-2.37.17-2.8,1.69.3,2.17,1.25A2,2,0,0,1,17.44,21.88Z"/><path class="cls-2" d="M48.36,18.37a4.08,4.08,0,0,0-4.24-2.27L42,14h1c5-4,5-14,5-14H47s-1.67,8.3-6.51,12.8C35.69,8.3,34,0,34,0H33s0,10,5,14h1L36.93,16.1a4.08,4.08,0,0,0-4.24,2.27c-1.16,2-.83,4.37.73,5.28s3.75,0,4.91-2a4.42,4.42,0,0,0,.27-4.21l1.35-1.35.58-.3.58.3,1.35,1.35a4.42,4.42,0,0,0,.27,4.21c1.16,2,3.35,2.91,4.91,2S49.51,20.38,48.36,18.37ZM36.65,20.92c-.48,1-1.39,1.38-2,1a2,2,0,0,1-.3-2.5c.48-1,1.52-1.68,2.17-1.25S37.13,20,36.65,20.92ZM41,15H40V14h1Zm5.42,6.87c-.65.43-1.56,0-2-1s-.48-2.37.17-2.8,1.69.3,2.17,1.25A2,2,0,0,1,46.44,21.88Z"/><path class="cls-3" d="M77.37,18.37a4.08,4.08,0,0,0-4.24-2.27L71,14h1c5-4,5-14,5-14H76s-1.67,8.3-6.51,12.8C64.69,8.3,63,0,63,0H62s0,10,5,14h1L65.94,16.1a4.08,4.08,0,0,0-4.24,2.27c-1.16,2-.83,4.37.73,5.28s3.75,0,4.91-2a4.42,4.42,0,0,0,.27-4.21L69,16.09l.58-.3.58.3,1.35,1.35a4.42,4.42,0,0,0,.27,4.21c1.16,2,3.35,2.91,4.91,2S78.52,20.38,77.37,18.37ZM65.66,20.92c-.48,1-1.39,1.38-2,1a2,2,0,0,1-.3-2.5c.48-1,1.52-1.68,2.17-1.25S66.13,20,65.66,20.92ZM70,15H69V14h1Zm5.42,6.87c-.65.43-1.56,0-2-1s-.48-2.37.17-2.8,1.69.3,2.17,1.25A2,2,0,0,1,75.45,21.88Z"/><path class="cls-4" d="M106.36,18.37a4.08,4.08,0,0,0-4.24-2.27L100,14h1c5-4,5-14,5-14h-1s-1.67,8.3-6.51,12.8C93.69,8.3,92,0,92,0H91s0,10,5,14h1L94.93,16.1a4.08,4.08,0,0,0-4.24,2.27c-1.16,2-.83,4.37.73,5.28s3.75,0,4.91-2a4.42,4.42,0,0,0,.27-4.21l1.35-1.35.58-.3.58.3,1.35,1.35a4.42,4.42,0,0,0,.27,4.21c1.16,2,3.35,2.91,4.91,2S107.51,20.38,106.36,18.37ZM94.65,20.92c-.48,1-1.39,1.38-2,1a2,2,0,0,1-.3-2.5c.48-1,1.52-1.68,2.17-1.25S95.13,20,94.65,20.92ZM99,15H98V14h1Zm5.42,6.87c-.65.43-1.56,0-2-1s-.48-2.37.17-2.8,1.69.3,2.17,1.25A2,2,0,0,1,104.44,21.88Z"/><path class="cls-5" d="M135.36,18.37a4.08,4.08,0,0,0-4.24-2.27L129,14h1c5-4,5-14,5-14h-1s-1.67,8.3-6.51,12.8C122.69,8.3,121,0,121,0h-1s0,10,5,14h1l-2.09,2.09a4.08,4.08,0,0,0-4.24,2.27c-1.16,2-.83,4.37.73,5.28s3.75,0,4.91-2a4.42,4.42,0,0,0,.27-4.21l1.35-1.35.58-.3.58.3,1.35,1.35a4.42,4.42,0,0,0,.27,4.21c1.16,2,3.35,2.91,4.91,2S136.51,20.38,135.36,18.37Zm-11.71,2.55c-.48,1-1.39,1.38-2,1a2,2,0,0,1-.3-2.5c.48-1,1.52-1.68,2.17-1.25S124.13,20,123.65,20.92ZM128,15h-1V14h1Zm5.42,6.87c-.65.43-1.56,0-2-1s-.48-2.37.17-2.8,1.69.3,2.17,1.25A2,2,0,0,1,133.44,21.88Z"/></g></svg>