<svg xmlns="http://www.w3.org/2000/svg" width="140" height="24" viewBox="0 0 140 24"><defs><style>.cls-1{fill:#0089d9;}.cls-1,.cls-2,.cls-3,.cls-4,.cls-5{fill-rule:evenodd;}.cls-2{fill:#d7d7d7;}.cls-3{fill:#39a6e6;}.cls-4{fill:#fff;}.cls-5{fill:#737373;}</style></defs><title>24</title><g id="Coffee_Break" data-name="Coffee Break"><path class="cls-1" d="M11,9c-2.08-2.2,5.64-5.53-1-8C13.26,4,5.61,5.78,11,9ZM7,9C4.7,6.4,11,4.65,6,3,8,5,2,6.59,7,9Zm16.45,3.22c-1-1.8-3.58-1.34-4.44-.28v-.46A1.41,1.41,0,0,0,17.52,10h-14A1.39,1.39,0,0,0,2,11.56V14a7.58,7.58,0,0,0,4.22,7H1c-.55,0-1,0-1,.56S3,23,6,23h9c3,0,6-.89,6-1.44S20.58,21,20,21H15a7.31,7.31,0,0,0,2.11-1.59c0,.09-.05.19-.07.28C19.61,17.5,25.86,16.54,23.46,12.21ZM19,14.29c.56-1.05,2.17-1.92,2.84-.88s-.74,2.75-3.15,3A9,9,0,0,0,19,14.29ZM17,15c0,2-2.53,5-6.53,5S4,17,4,15V12H17ZM15,9C12.7,6.4,19,4.65,14,3,16,5,10,6.59,15,9Z"/><path class="cls-2" d="M40,9c-2.08-2.2,5.64-5.53-1-8C42.26,4,34.61,5.78,40,9ZM36,9C33.7,6.4,40,4.65,35,3,37,5,31,6.59,36,9Zm16.45,3.22c-1-1.8-3.58-1.34-4.44-.28v-.46A1.41,1.41,0,0,0,46.52,10h-14A1.39,1.39,0,0,0,31,11.56V14a7.58,7.58,0,0,0,4.22,7H30c-.55,0-1,0-1,.56S32,23,35,23h9c3,0,6-.89,6-1.44S49.58,21,49,21H44a7.31,7.31,0,0,0,2.11-1.59c0,.09-.05.19-.07.28C48.61,17.5,54.86,16.54,52.46,12.21ZM48,14.29c.56-1.05,2.17-1.92,2.84-.88s-.74,2.75-3.15,3A9,9,0,0,0,48,14.29ZM46,15c0,2-2.53,5-6.53,5S33,17,33,15V12H46ZM44,9C41.7,6.4,48,4.65,43,3,45,5,39,6.59,44,9Z"/><path class="cls-3" d="M69,9c-2.08-2.2,5.64-5.53-1-8C71.26,4,63.61,5.78,69,9ZM65,9C62.7,6.4,69,4.65,64,3,66,5,60,6.59,65,9Zm16.45,3.22c-1-1.8-3.58-1.34-4.44-.28v-.46A1.41,1.41,0,0,0,75.52,10h-14A1.39,1.39,0,0,0,60,11.56V14a7.58,7.58,0,0,0,4.22,7H59c-.55,0-1,0-1,.56S61,23,64,23h9c3,0,6-.89,6-1.44S78.58,21,78,21H73a7.31,7.31,0,0,0,2.11-1.59c0,.09-.05.19-.07.28C77.61,17.5,83.86,16.54,81.46,12.21ZM77,14.29c.56-1.05,2.17-1.92,2.84-.88s-.74,2.75-3.15,3A9,9,0,0,0,77,14.29ZM75,15c0,2-2.53,5-6.53,5S62,17,62,15V12H75ZM73,9C70.7,6.4,77,4.65,72,3,74,5,68,6.59,73,9Z"/><path class="cls-4" d="M98,9c-2.08-2.2,5.64-5.53-1-8C100.26,4,92.61,5.78,98,9ZM94,9C91.7,6.4,98,4.65,93,3,95,5,89,6.59,94,9Zm16.45,3.22c-1-1.8-3.58-1.34-4.44-.28v-.46a1.41,1.41,0,0,0-1.5-1.47h-14A1.39,1.39,0,0,0,89,11.56V14a7.58,7.58,0,0,0,4.22,7H88c-.55,0-1,0-1,.56S90,23,93,23h9c3,0,6-.89,6-1.44s-.45-.56-1-.56h-5a7.31,7.31,0,0,0,2.11-1.59c0,.09-.05.19-.07.28C106.61,17.5,112.86,16.54,110.46,12.21ZM106,14.29c.56-1.05,2.17-1.92,2.84-.88s-.74,2.75-3.15,3A9,9,0,0,0,106,14.29ZM104,15c0,2-2.53,5-6.53,5S91,17,91,15V12h13Zm-2-6c-2.32-2.59,4-4.34-1-6C103,5,97,6.59,102,9Z"/><path class="cls-5" d="M127,9c-2.08-2.2,5.64-5.53-1-8C129.26,4,121.61,5.78,127,9Zm-4,0c-2.32-2.59,4-4.34-1-6C124,5,118,6.59,123,9Zm16.45,3.22c-1-1.8-3.58-1.34-4.44-.28v-.46a1.41,1.41,0,0,0-1.5-1.47h-14A1.39,1.39,0,0,0,118,11.56V14a7.58,7.58,0,0,0,4.22,7H117c-.55,0-1,0-1,.56S119,23,122,23h9c3,0,6-.89,6-1.44s-.45-.56-1-.56h-5a7.31,7.31,0,0,0,2.11-1.59c0,.09-.05.19-.07.28C135.61,17.5,141.86,16.54,139.46,12.21ZM135,14.29c.56-1.05,2.17-1.92,2.84-.88s-.74,2.75-3.15,3A9,9,0,0,0,135,14.29ZM133,15c0,2-2.53,5-6.53,5S120,17,120,15V12h13Zm-2-6c-2.32-2.59,4-4.34-1-6C132,5,126,6.59,131,9Z"/></g></svg>