<svg xmlns="http://www.w3.org/2000/svg" width="140" height="24" viewBox="0 0 140 24"><defs><style>.cls-1{fill:#0089d9;}.cls-1,.cls-2,.cls-3,.cls-4,.cls-5{fill-rule:evenodd;}.cls-2{fill:#d7d7d7;}.cls-3{fill:#39a6e6;}.cls-4{fill:#fff;}.cls-5{fill:#737373;}</style></defs><title>24</title><g id="Change_Owner" data-name="Change Owner"><path class="cls-1" d="M23.53,17.77A55.5,55.5,0,0,0,18.89,22c-2.41.49-3.41.64-5.84,1-4.8-.79-6.82-2.55-9.22-2.89a4.93,4.93,0,0,0-.86.09A1,1,0,0,1,2,21H1a1,1,0,0,1-1-1V15a1,1,0,0,1,1-1H2a1,1,0,0,1,1,1c1.63-.44,2.84-1.81,8.18.06A7.8,7.8,0,0,0,15.42,15c2.41-.21,4.13,1.43.62,3a20,20,0,0,1-5,0c1.93,1,4.6.73,5.84.78A26.55,26.55,0,0,0,21.61,16C23.44,15.16,24.25,16.58,23.53,17.77ZM11.5,12h7a.5.5,0,0,1,.5.5.47.47,0,0,1-.5.47h-7a.47.47,0,0,1-.5-.47A.5.5,0,0,1,11.5,12Zm0-3h7a.5.5,0,0,1,.5.5.47.47,0,0,1-.5.47h-7A.47.47,0,0,1,11,9.5.5.5,0,0,1,11.5,9ZM21,15h0V7H17V3L9,3V13L7,13V1H18l5,5v9H21ZM19,4V5h1Z"/><path class="cls-2" d="M52.53,17.77A55.5,55.5,0,0,0,47.89,22c-2.41.49-3.41.64-5.84,1-4.8-.79-6.82-2.55-9.22-2.89a4.93,4.93,0,0,0-.86.09A1,1,0,0,1,31,21H30a1,1,0,0,1-1-1V15a1,1,0,0,1,1-1h1a1,1,0,0,1,1,1c1.63-.44,2.84-1.81,8.18.06A7.8,7.8,0,0,0,44.42,15c2.41-.21,4.13,1.43.62,3a20,20,0,0,1-5,0c1.93,1,4.6.73,5.84.78A26.55,26.55,0,0,0,50.61,16C52.44,15.16,53.25,16.58,52.53,17.77ZM40.5,12h7a.5.5,0,0,1,.5.5.47.47,0,0,1-.5.47h-7a.47.47,0,0,1-.5-.47A.5.5,0,0,1,40.5,12Zm0-3h7a.5.5,0,0,1,.5.5.47.47,0,0,1-.5.47h-7A.47.47,0,0,1,40,9.5.5.5,0,0,1,40.5,9ZM50,15h0V7H46V3L38,3V13l-2,0V1H47l5,5v9H50ZM48,4V5h1Z"/><path class="cls-3" d="M81.53,17.77A55.5,55.5,0,0,0,76.89,22c-2.41.49-3.41.64-5.84,1-4.8-.79-6.82-2.55-9.22-2.89a4.93,4.93,0,0,0-.86.09A1,1,0,0,1,60,21H59a1,1,0,0,1-1-1V15a1,1,0,0,1,1-1h1a1,1,0,0,1,1,1c1.63-.44,2.84-1.81,8.18.06A7.8,7.8,0,0,0,73.42,15c2.41-.21,4.13,1.43.62,3a20,20,0,0,1-5,0c1.93,1,4.6.73,5.84.78A26.55,26.55,0,0,0,79.61,16C81.44,15.16,82.25,16.58,81.53,17.77ZM69.5,12h7a.5.5,0,0,1,.5.5.47.47,0,0,1-.5.47h-7a.47.47,0,0,1-.5-.47A.5.5,0,0,1,69.5,12Zm0-3h7a.5.5,0,0,1,.5.5.47.47,0,0,1-.5.47h-7A.47.47,0,0,1,69,9.5.5.5,0,0,1,69.5,9ZM79,15h0V7H75V3L67,3V13l-2,0V1H76l5,5v9H79ZM77,4V5h1Z"/><path class="cls-4" d="M110.53,17.77a55.5,55.5,0,0,0-4.64,4.2c-2.41.49-3.41.64-5.84,1-4.8-.79-6.82-2.55-9.22-2.89a4.93,4.93,0,0,0-.86.09A1,1,0,0,1,89,21H88a1,1,0,0,1-1-1V15a1,1,0,0,1,1-1h1a1,1,0,0,1,1,1c1.63-.44,2.84-1.81,8.18.06a7.8,7.8,0,0,0,4.24-.05c2.41-.21,4.13,1.43.62,3a20,20,0,0,1-5,0c1.93,1,4.6.73,5.84.78A26.55,26.55,0,0,0,108.61,16C110.44,15.16,111.25,16.58,110.53,17.77ZM98.5,12h7a.5.5,0,0,1,.5.5.47.47,0,0,1-.5.47h-7a.47.47,0,0,1-.5-.47A.5.5,0,0,1,98.5,12Zm0-3h7a.5.5,0,0,1,.5.5.47.47,0,0,1-.5.47h-7A.47.47,0,0,1,98,9.5.5.5,0,0,1,98.5,9Zm9.5,6h0V7h-4V3L96,3V13l-2,0V1h11l5,5v9h-2ZM106,4V5h1Z"/><path class="cls-5" d="M139.53,17.77a55.5,55.5,0,0,0-4.64,4.2c-2.41.49-3.41.64-5.84,1-4.8-.79-6.82-2.55-9.22-2.89a4.93,4.93,0,0,0-.86.09,1,1,0,0,1-1,.84h-1a1,1,0,0,1-1-1V15a1,1,0,0,1,1-1h1a1,1,0,0,1,1,1c1.63-.44,2.84-1.81,8.18.06a7.8,7.8,0,0,0,4.24-.05c2.41-.21,4.13,1.43.62,3a20,20,0,0,1-5,0c1.93,1,4.6.73,5.84.78A26.55,26.55,0,0,0,137.61,16C139.44,15.16,140.25,16.58,139.53,17.77ZM127.5,12h7a.5.5,0,0,1,.5.5.47.47,0,0,1-.5.47h-7a.47.47,0,0,1-.5-.47A.5.5,0,0,1,127.5,12Zm0-3h7a.5.5,0,0,1,.5.5.47.47,0,0,1-.5.47h-7a.47.47,0,0,1-.5-.47A.5.5,0,0,1,127.5,9Zm9.5,6h0V7h-4V3l-8,0V13l-2,0V1h11l5,5v9h-2ZM135,4V5h1Z"/></g></svg>