<?xml version="1.0" encoding="utf-8"?>
<!-- Generator: Adobe Illustrator 19.1.1, SVG Export Plug-In . SVG Version: 6.00 Build 0)  -->
<svg version="1.1" xmlns="http://www.w3.org/2000/svg" xmlns:xlink="http://www.w3.org/1999/xlink" x="0px" y="0px" width="140px"
	 height="24px" viewBox="0 0 140 24" style="enable-background:new 0 0 140 24;" xml:space="preserve">
<style type="text/css">
	.st0{fill-rule:evenodd;clip-rule:evenodd;fill:#0089D9;}
	.st1{fill-rule:evenodd;clip-rule:evenodd;fill:#D7D7D7;}
	.st2{fill-rule:evenodd;clip-rule:evenodd;fill:#39A6E6;}
	.st3{fill-rule:evenodd;clip-rule:evenodd;fill:#FFFFFF;}
	.st4{fill-rule:evenodd;clip-rule:evenodd;fill:#737373;}
	.st5{fill:#0089D9;}
	.st6{fill:#D7D7D7;}
	.st7{fill:#39A6E6;}
	.st8{fill:#FFFFFF;}
	.st9{fill:#737373;}
	.st10{fill-rule:evenodd;clip-rule:evenodd;fill:#68A611;}
	.st11{fill-rule:evenodd;clip-rule:evenodd;fill:#8EC928;}
	.st12{display:none;}
	.st13{display:inline;}
	.st14{display:inline;fill-rule:evenodd;clip-rule:evenodd;fill:#39A6E6;}
	.st15{display:inline;fill-rule:evenodd;clip-rule:evenodd;fill:#FFFFFF;}
	.st16{display:inline;fill-rule:evenodd;clip-rule:evenodd;fill:#737373;}
	.st17{display:inline;fill-rule:evenodd;clip-rule:evenodd;fill:#0089D9;}
	.st18{fill-rule:evenodd;clip-rule:evenodd;fill:#D6565A;}
	.st19{fill-rule:evenodd;clip-rule:evenodd;fill:#E57377;}
	.st20{fill:#D6565A;}
	.st21{fill:#E57377;}
	.st22{fill:#F28D00;}
	.st23{fill:#FFA526;}
	.st24{fill-rule:evenodd;clip-rule:evenodd;fill:#FF8B00;}
	.st25{fill-rule:evenodd;clip-rule:evenodd;fill:#FFA526;}
	.st26{display:none;opacity:0.2;}
</style>
<g id="Calculator">
</g>
<g id="Mileage">
</g>
<g id="Expense6">
</g>
<g id="Expense5">
</g>
<g id="Travel2">
</g>
<g id="Briefcase">
</g>
<g id="Travel1">
</g>
<g id="Working_Day">
</g>
<g id="Absence">
</g>
<g id="Paper_Plane">
</g>
<g id="Documents_Area">
</g>
<g id="Help_3_">
</g>
<g id="Add_attachement">
</g>
<g id="Date_Picker">
</g>
<g id="Encrypted_PDF">
</g>
<g id="Report_Blue">
</g>
<g id="XML_Document">
</g>
<g id="Image_Document">
</g>
<g id="Changelog">
</g>
<g id="Export">
</g>
<g id="PDF">
</g>
<g id="Office_Excel">
</g>
<g id="Office_PowerPoint">
</g>
<g id="Office_Word">
</g>
<g id="Filter">
</g>
<g id="Dislike">
</g>
<g id="Like">
</g>
<g id="Favorite">
</g>
<g id="Preview">
</g>
<g id="Download">
</g>
<g id="Upload">
</g>
<g id="Open">
</g>
<g id="Web">
</g>
<g id="Unlocked">
</g>
<g id="Locked">
</g>
<g id="Phone">
</g>
<g id="Email">
</g>
<g id="Graphs">
</g>
<g id="Note">
</g>
<g id="Search">
</g>
<g id="Alarm">
</g>
<g id="Time">
</g>
<g id="Users">
</g>
<g id="User">
</g>
<g id="Refresh">
</g>
<g id="Home">
</g>
<g id="Report">
</g>
<g id="Paste">
</g>
<g id="Copy">
	<g>
		<g>
			<path class="st0" d="M16,3h-3l-3-3H0v21h6v3h17V10L16,3z M17,6.3L19.7,9H17V6.3z M10,2l1,1h-1V2z M6,19H2V2h7v1H6V19z M21,22H8V5
				h7v6l2,0v0h4V22z"/>
		</g>
	</g>
	<g>
		<g>
			<path class="st1" d="M45,3h-3l-3-3H29v21h6v3h17V10L45,3z M46,6.3L48.7,9H46V6.3z M39,2l1,1h-1V2z M35,19h-4V2h7v1h-3V19z M50,22
				H37V5h7v6l2,0v0h4V22z"/>
		</g>
	</g>
	<g>
		<g>
			<path class="st2" d="M74,3h-3l-3-3H58v21h6v3h17V10L74,3z M75,6.3L77.7,9H75V6.3z M68,2l1,1h-1V2z M64,19h-4V2h7v1h-3V19z M79,22
				H66V5h7v6l2,0v0h4V22z"/>
		</g>
	</g>
	<g>
		<g>
			<path class="st3" d="M103.1,3h-3l-3-3H87v21h6.1v3H110V10L103.1,3z M104,6.3l2.8,2.7H104V6.3z M97.1,2l1,1h-1V2z M93.1,19H89V2
				h7.1v1h-3V19z M108.1,22H95V5h7.1v4H102v2h0.1l1.9,0v0h4.1V22z"/>
		</g>
	</g>
	<g>
		<g>
			<path class="st4" d="M132,3h-3l-3-3h-10v21h6v3h17V10L132,3z M133,6.3l2.7,2.7H133V6.3z M126,2l1,1h-1V2z M122,19h-4V2h7v1h-3V19
				z M137,22h-13V5h7v6l2,0v0h4V22z"/>
		</g>
	</g>
</g>
<g id="Cut">
</g>
<g id="Flag">
</g>
<g id="Redo">
</g>
<g id="Undo">
</g>
<g id="Zoom_Out">
</g>
<g id="Zoom_In">
</g>
<g id="Add_comment">
</g>
<g id="Unread_comment">
</g>
<g id="Comment">
</g>
<g id="New">
</g>
<g id="Attach">
</g>
<g id="Delete">
</g>
<g id="Save">
</g>
<g id="Edit">
</g>
<g id="Print">
</g>
<g id="Guides" class="st26">
	<rect class="st17" width="24" height="24"/>
	<rect x="29" class="st17" width="24" height="24"/>
	<rect x="58" class="st17" width="24" height="24"/>
	<rect x="87" class="st17" width="24" height="24"/>
	<rect x="116" class="st17" width="24" height="24"/>
</g>
</svg>
