<svg xmlns="http://www.w3.org/2000/svg" width="140" height="24" viewBox="0 0 140 24"><defs><style>.cls-1{fill:#0089d9;}.cls-1,.cls-2,.cls-3,.cls-4,.cls-5{fill-rule:evenodd;}.cls-2{fill:#d7d7d7;}.cls-3{fill:#39a6e6;}.cls-4{fill:#fff;}.cls-5{fill:#737373;}</style></defs><title>24</title><g id="Download"><path class="cls-1" d="M24,22V17a1,1,0,1,0-2,0v4H2V17a1,1,0,1,0-2,0v5H0a1,1,0,0,0,1,1H23a1,1,0,0,0,1-1ZM11.15,17.86a1,1,0,0,0,.85.32,1,1,0,0,0,.85-.32l4.42-4.42a.88.88,0,1,0-1.23-1.23L13,15.27V2a1,1,0,0,0-2,0V15.26l-3-3a.88.88,0,1,0-1.23,1.23Z"/><path class="cls-2" d="M53,22V17a1,1,0,1,0-2,0v4H31V17a1,1,0,1,0-2,0v5h0a1,1,0,0,0,1,1H52a1,1,0,0,0,1-1ZM40.16,17.86a1.31,1.31,0,0,0,1.71,0l4.42-4.42a.88.88,0,1,0-1.23-1.23L42,15.27V2a1,1,0,0,0-2,0V15.26l-3-3a.88.88,0,1,0-1.23,1.23Z"/><path class="cls-3" d="M82,22V17a1,1,0,1,0-2,0v4H60V17a1,1,0,1,0-2,0v5h0a1,1,0,0,0,1,1H81a1,1,0,0,0,1-1ZM69.15,17.86a1.31,1.31,0,0,0,1.71,0l4.42-4.42a.88.88,0,1,0-1.23-1.23L71,15.27V2a1,1,0,0,0-2,0V15.26l-3-3a.88.88,0,1,0-1.23,1.23Z"/><path class="cls-4" d="M111,22V17a1,1,0,1,0-2,0v4H89V17a1,1,0,1,0-2,0v5h0a1,1,0,0,0,1,1h22a1,1,0,0,0,1-1ZM98.15,17.86a1.31,1.31,0,0,0,1.71,0l4.42-4.42a.88.88,0,1,0-1.23-1.23L100,15.27V2a1,1,0,0,0-2,0V15.26l-3-3a.88.88,0,1,0-1.23,1.23Z"/><path class="cls-5" d="M140,22V17a1,1,0,1,0-2,0v4H118V17a1,1,0,1,0-2,0v5h0a1,1,0,0,0,1,1h22a1,1,0,0,0,1-1Zm-12.85-4.14a1.31,1.31,0,0,0,1.71,0l4.42-4.42a.88.88,0,1,0-1.23-1.23L129,15.27V2a1,1,0,0,0-2,0V15.26l-3-3a.88.88,0,1,0-1.23,1.23Z"/></g></svg>