<svg xmlns="http://www.w3.org/2000/svg" width="140" height="24" viewBox="0 0 140 24"><defs><style>.cls-1{fill:#0089d9;}.cls-1,.cls-2,.cls-3,.cls-4,.cls-5{fill-rule:evenodd;}.cls-2{fill:#d7d7d7;}.cls-3{fill:#39a6e6;}.cls-4{fill:#fff;}.cls-5{fill:#737373;}</style></defs><title>24</title><g id="Dislike"><path class="cls-1" d="M4.43,1c-1.69.41-1.19,1.7-1.62,2.41s-1.13.53-1.41,1.54S1.86,6,1.86,6.66c0,.86-1,1-1,2.16s.9,1.15,1,1.81c.1.82-.78,1.26-.5,2.43.14.6.88.94,1.59,1.07.89.16,4.51-.19,5.41.69,1.23,1.2-.5,2.44-.5,5.13,0,3.13,2.09,5.19,4.91,3.37-.62-1.53-.33-3,.66-4.81,1.35-4.52,4.28-6.06,6.41-7.37v-10c-3.69,0-6.11-.76-8.63-.91A23.08,23.08,0,0,0,4.43,1Zm13.41,9.31c-2,.86-5.53,3.26-6,7.48a3.73,3.73,0,0,0-.66,3.62c-1.59.58-1.64-1.59-.92-3.22.84-1.89,1.59-4,.59-4.88-.81-.75-5.1-.87-5.82-.9S3.7,12.23,3.61,12c-.24-.63.24-1.24.13-1.73S2.8,9.51,2.8,8.86s1-.8,1.09-1.53-.45-1.1-.28-1.67.76-.53,1.07-1.19S4.62,2.85,6,2.53a17.14,17.14,0,0,1,5-.47c2,.11,3.9,1,6.83,1Zm5-10.16h-2v12h2C24.33,11.13,23.83,1.13,22.83.13Z"/><path class="cls-2" d="M52.05.13h-2v12h2C53.55,11.13,53.05,1.13,52.05.13ZM33.65,1C32,1.38,32.46,2.68,32,3.38s-1.13.53-1.41,1.54.47,1.09.47,1.74c0,.86-1,1-1,2.16s.9,1.15,1,1.81c.1.82-.78,1.26-.5,2.43.14.6.88.94,1.59,1.07.89.16,4.51-.19,5.41.69,1.23,1.2-.5,2.44-.5,5.13,0,3.13,2.09,5.19,4.91,3.37-.62-1.53-.33-3,.66-4.81C44,14,46.93,12.45,49.05,11.13v-10c-3.69,0-6.11-.76-8.63-.91A23.09,23.09,0,0,0,33.65,1Zm13.41,9.31c-2,.86-5.53,3.26-6,7.48a3.73,3.73,0,0,0-.66,3.62c-1.59.58-1.64-1.59-.92-3.22.84-1.89,1.59-4,.59-4.88-.81-.75-5.1-.87-5.82-.9s-1.28-.16-1.37-.39c-.24-.63.24-1.24.13-1.73S32,9.51,32,8.86s1-.8,1.09-1.53-.45-1.1-.28-1.67.76-.53,1.07-1.19-.07-1.62,1.27-1.94a17.14,17.14,0,0,1,5-.47c2,.11,3.9,1,6.83,1Z"/><path class="cls-3" d="M62.65,1C61,1.38,61.46,2.68,61,3.38s-1.13.53-1.41,1.54.47,1.09.47,1.74c0,.86-1,1-1,2.16s.9,1.15,1,1.81c.1.82-.78,1.26-.5,2.43.14.6.88.94,1.59,1.07.89.16,4.51-.19,5.41.69,1.23,1.2-.5,2.44-.5,5.13,0,3.13,2.09,5.19,4.91,3.37-.62-1.53-.33-3,.66-4.81C73,14,75.93,12.45,78.05,11.13v-10c-3.69,0-6.11-.76-8.63-.91A23.09,23.09,0,0,0,62.65,1Zm13.41,9.31c-2,.86-5.53,3.26-6,7.48a3.73,3.73,0,0,0-.66,3.62c-1.59.58-1.64-1.59-.92-3.22.84-1.89,1.59-4,.59-4.88-.81-.75-5.1-.87-5.82-.9s-1.28-.16-1.37-.39c-.24-.63.24-1.24.13-1.73S61,9.51,61,8.86s1-.8,1.09-1.53-.45-1.1-.28-1.67.76-.53,1.07-1.19-.07-1.62,1.27-1.94a17.14,17.14,0,0,1,5-.47c2,.11,3.9,1,6.83,1Zm5-10.16h-2v12h2C82.55,11.13,82.05,1.13,81.05.13Z"/><path class="cls-4" d="M91.73,1c-1.69.41-1.19,1.7-1.62,2.41S89,3.92,88.7,4.92s.47,1.09.47,1.74c0,.86-1,1-1,2.16s.9,1.15,1,1.81c.1.82-.78,1.26-.5,2.43.14.6.88.94,1.59,1.07.89.16,4.51-.19,5.41.69,1.23,1.2-.5,2.44-.5,5.13,0,3.13,2.09,5.19,4.91,3.37-.62-1.53-.33-3,.66-4.81,1.35-4.52,4.28-6.06,6.41-7.37v-10c-3.69,0-6.11-.76-8.63-.91A23.09,23.09,0,0,0,91.73,1Zm13.41,9.31c-2,.86-5.53,3.26-6,7.48a3.73,3.73,0,0,0-.66,3.62c-1.59.58-1.64-1.59-.92-3.22.84-1.89,1.59-4,.59-4.88-.81-.75-5.1-.87-5.82-.9S91,12.23,90.91,12c-.24-.63.24-1.24.13-1.73s-.94-.75-.94-1.41,1-.8,1.09-1.53-.45-1.1-.28-1.67.76-.53,1.07-1.19-.07-1.62,1.27-1.94a17.14,17.14,0,0,1,5-.47c2,.11,3.9,1,6.83,1Zm5-10.16h-2v12h2C111.64,11.13,111.14,1.13,110.14.13Z"/><path class="cls-5" d="M120.65,1c-1.69.41-1.19,1.7-1.62,2.41s-1.13.53-1.41,1.54.47,1.09.47,1.74c0,.86-1,1-1,2.16s.9,1.15,1,1.81c.1.82-.78,1.26-.5,2.43.14.6.88.94,1.59,1.07.89.16,4.51-.19,5.41.69,1.23,1.2-.5,2.44-.5,5.13,0,3.13,2.09,5.19,4.91,3.37-.62-1.53-.33-3,.66-4.81,1.35-4.52,4.28-6.06,6.41-7.37v-10c-3.69,0-6.11-.76-8.63-.91A23.09,23.09,0,0,0,120.65,1Zm13.41,9.31c-2,.86-5.53,3.26-6,7.48a3.73,3.73,0,0,0-.66,3.62c-1.59.58-1.64-1.59-.92-3.22.84-1.89,1.59-4,.59-4.88-.81-.75-5.1-.87-5.82-.9s-1.28-.16-1.37-.39c-.24-.63.24-1.24.13-1.73S119,9.51,119,8.86s1-.8,1.09-1.53-.45-1.1-.28-1.67.76-.53,1.07-1.19-.07-1.62,1.27-1.94a17.14,17.14,0,0,1,5-.47c2,.11,3.9,1,6.83,1Zm5-10.16h-2v12h2C140.55,11.13,140.05,1.13,139.05.13Z"/></g></svg>