<svg id="Date_Picker" data-name="Date Picker" xmlns="http://www.w3.org/2000/svg" width="140" height="24" viewBox="0 0 140 24"><defs><style>.cls-1{fill:#0089d9;}.cls-1,.cls-2,.cls-3,.cls-4,.cls-5{fill-rule:evenodd;}.cls-2{fill:#d7d7d7;}.cls-3{fill:#39a6e6;}.cls-4{fill:#fff;}.cls-5{fill:#737373;}</style></defs><title>24</title><path class="cls-1" d="M6,15H8V13H6Zm3,3h2V16H9ZM6,18H8V16H6Zm3-3h2V13H9Zm0-3h2V10H9Zm7-6c.55,0,1-.17,1-1V3c0-.83-.45-1-1-1s-1,.17-1,1V5C15,5.83,15.45,6,16,6ZM7,6c.55,0,1-.17,1-1V3c0-.83-.45-1-1-1S6,2.17,6,3V5C6,5.83,6.45,6,7,6ZM19.71,4.29A1,1,0,0,0,19,4H18V5a1.84,1.84,0,0,1-2,2,1.84,1.84,0,0,1-2-2V4H9V5A1.84,1.84,0,0,1,7,7,1.84,1.84,0,0,1,5,5V4H4A1,1,0,0,0,3,5V20a1,1,0,0,0,1,1H19a1,1,0,0,0,1-1V5A1,1,0,0,0,19.71,4.29ZM19,19a1,1,0,0,1-1,1H5a1,1,0,0,1-1-1V9A1,1,0,0,1,5,8H18a1,1,0,0,1,1,1Zm-4-7h2V10H15Zm-3,6h2V16H12Zm3-3h2V13H15Zm-3-3h2V10H12Zm0,3h2V13H12Zm3,3h2V16H15Z"/><path class="cls-2" d="M38,15h2V13H38Zm-3,0h2V13H35Zm3,3h2V16H38Zm0-6h2V10H38Zm-3,6h2V16H35ZM36,6c.55,0,1-.17,1-1V3c0-.83-.45-1-1-1s-1,.17-1,1V5C35,5.83,35.45,6,36,6Zm9,0c.55,0,1-.17,1-1V3c0-.83-.45-1-1-1s-1,.17-1,1V5C44,5.83,44.45,6,45,6Zm-1,9h2V13H44Zm0-3h2V10H44Zm-3,6h2V16H41ZM48.71,4.29A1,1,0,0,0,48,4H47V5a2,2,0,1,1-4,0V4H38V5a2,2,0,1,1-4,0V4H33a1,1,0,0,0-1,1V20a1,1,0,0,0,1,1H48a1,1,0,0,0,1-1V5A1,1,0,0,0,48.71,4.29ZM48,19a1,1,0,0,1-1,1H34a1,1,0,0,1-1-1V9a1,1,0,0,1,1-1H47a1,1,0,0,1,1,1Zm-7-4h2V13H41Zm0-3h2V10H41Zm3,6h2V16H44Z"/><path class="cls-3" d="M67,18h2V16H67Zm0-3h2V13H67Zm-3,0h2V13H64Zm1-9c.55,0,1-.17,1-1V3c0-.83-.45-1-1-1s-1,.17-1,1V5C64,5.83,64.45,6,65,6ZM64,18h2V16H64ZM74,6c.55,0,1-.17,1-1V3c0-.83-.45-1-1-1s-1,.17-1,1V5C73,5.83,73.45,6,74,6Zm-7,6h2V10H67Zm6,0h2V10H73Zm4.71-7.71A1,1,0,0,0,77,4H76V5a2,2,0,1,1-4,0V4H67V5a2,2,0,1,1-4,0V4H62a1,1,0,0,0-1,1V20a1,1,0,0,0,1,1H77a1,1,0,0,0,1-1V5A1,1,0,0,0,77.71,4.29ZM77,19a1,1,0,0,1-1,1H63a1,1,0,0,1-1-1V9a1,1,0,0,1,1-1H76a1,1,0,0,1,1,1Zm-4-4h2V13H73Zm-3,0h2V13H70Zm0-3h2V10H70Zm0,6h2V16H70Zm3,0h2V16H73Z"/><path class="cls-4" d="M96,18h2V16H96Zm0-3h2V13H96Zm-3,0h2V13H93Zm0,3h2V16H93ZM103,6c.55,0,1-.17,1-1V3c0-.83-.45-1-1-1s-1,.17-1,1V5C102,5.83,102.45,6,103,6ZM94,6c.55,0,1-.17,1-1V3c0-.83-.45-1-1-1s-1,.17-1,1V5C93,5.83,93.45,6,94,6Zm2,6h2V10H96Zm6,3h2V13h-2Zm-3,3h2V16H99Zm3-6h2V10h-2Zm-3,0h2V10H99Zm7.71-7.71A1,1,0,0,0,106,4h-1V5a2,2,0,1,1-4,0V4H96V5a2,2,0,1,1-4,0V4H91a1,1,0,0,0-1,1V20a1,1,0,0,0,1,1h15a1,1,0,0,0,1-1V5A1,1,0,0,0,106.71,4.29ZM106,19a1,1,0,0,1-1,1H92a1,1,0,0,1-1-1V9a1,1,0,0,1,1-1h13a1,1,0,0,1,1,1Zm-7-4h2V13H99Zm3,3h2V16h-2Z"/><path class="cls-5" d="M122,15h2V13h-2Zm3-3h2V10h-2Zm0,3h2V13h-2Zm0,3h2V16h-2Zm7-12c.55,0,1-.17,1-1V3c0-.83-.45-1-1-1s-1,.17-1,1V5C131,5.83,131.45,6,132,6Zm-9,0c.55,0,1-.17,1-1V3c0-.83-.45-1-1-1s-1,.17-1,1V5C122,5.83,122.45,6,123,6Zm-1,12h2V16h-2Zm6-3h2V13h-2Zm0,3h2V16h-2Zm7.71-13.71A1,1,0,0,0,135,4h-1V5a2,2,0,1,1-4,0V4h-5V5a2,2,0,1,1-4,0V4h-1a1,1,0,0,0-1,1V20a1,1,0,0,0,1,1h15a1,1,0,0,0,1-1V5A1,1,0,0,0,135.71,4.29ZM135,19a1,1,0,0,1-1,1H121a1,1,0,0,1-1-1V9a1,1,0,0,1,1-1h13a1,1,0,0,1,1,1Zm-4-4h2V13h-2Zm0-3h2V10h-2Zm-3,0h2V10h-2Zm3,6h2V16h-2Z"/></svg>