<svg xmlns="http://www.w3.org/2000/svg" width="140" height="24" viewBox="0 0 140 24"><defs><style>.cls-1{fill:#0089d9;}.cls-2{fill:#d7d7d7;}.cls-3{fill:#39a6e6;}.cls-4{fill:#fff;}.cls-5{fill:#737373;}</style></defs><title>24</title><g id="Database"><path class="cls-1" d="M12,0C7.53,0,2,1.35,2,4V20c0,2.64,5.53,4,10,4s10-1.38,10-4V4C22,1.38,16.47,0,12,0Zm8,10.22c-1.23.94-4.58,1.79-8,1.79s-6.75-.84-8-1.78V6.39A18.44,18.44,0,0,0,12,8a18.41,18.41,0,0,0,8-1.62ZM4,11.39A18.44,18.44,0,0,0,12,13a18.41,18.41,0,0,0,8-1.62v3.84c-1.23.94-4.58,1.79-8,1.79s-6.75-.84-8-1.78ZM12,2c4.55,0,8,1.43,8,2v1.2C18.77,6.17,15.42,7,12,7S5.25,6.17,4,5.23V4C4,3.41,7.45,2,12,2Zm0,20c-4.55,0-8-1.41-8-2v-3.6A18.44,18.44,0,0,0,12,18a18.41,18.41,0,0,0,8-1.62V20C20,20.55,16.55,22,12,22Z"/><path class="cls-2" d="M41,0C36.53,0,31,1.35,31,4V20c0,2.64,5.53,4,10,4s10-1.38,10-4V4C51,1.38,45.47,0,41,0Zm8,10.22c-1.23.94-4.58,1.79-8,1.79s-6.75-.84-8-1.78V6.39A18.44,18.44,0,0,0,41,8a18.41,18.41,0,0,0,8-1.62ZM33,11.39A18.44,18.44,0,0,0,41,13a18.41,18.41,0,0,0,8-1.62v3.84c-1.23.94-4.58,1.79-8,1.79s-6.75-.84-8-1.78ZM41,2c4.55,0,8,1.43,8,2v1.2C47.77,6.17,44.42,7,41,7s-6.75-.84-8-1.78V4C33,3.41,36.45,2,41,2Zm0,20c-4.55,0-8-1.41-8-2v-3.6A18.44,18.44,0,0,0,41,18a18.41,18.41,0,0,0,8-1.62V20C49,20.55,45.55,22,41,22Z"/><path class="cls-3" d="M70,0C65.53,0,60,1.35,60,4V20c0,2.64,5.53,4,10,4s10-1.38,10-4V4C80,1.38,74.47,0,70,0Zm8,10.22c-1.23.94-4.58,1.79-8,1.79s-6.75-.84-8-1.78V6.39A18.44,18.44,0,0,0,70,8a18.41,18.41,0,0,0,8-1.62ZM62,11.39A18.44,18.44,0,0,0,70,13a18.41,18.41,0,0,0,8-1.62v3.84c-1.23.94-4.58,1.79-8,1.79s-6.75-.84-8-1.78ZM70,2c4.55,0,8,1.43,8,2v1.2C76.77,6.17,73.42,7,70,7s-6.75-.84-8-1.78V4C62,3.41,65.45,2,70,2Zm0,20c-4.55,0-8-1.41-8-2v-3.6A18.44,18.44,0,0,0,70,18a18.41,18.41,0,0,0,8-1.62V20C78,20.55,74.55,22,70,22Z"/><path class="cls-4" d="M99,0C94.53,0,89,1.35,89,4V20c0,2.64,5.53,4,10,4s10-1.38,10-4V4C109,1.38,103.47,0,99,0Zm8,10.22c-1.23.94-4.58,1.79-8,1.79s-6.75-.84-8-1.78V6.39A18.44,18.44,0,0,0,99,8a18.41,18.41,0,0,0,8-1.62ZM91,11.39A18.44,18.44,0,0,0,99,13a18.41,18.41,0,0,0,8-1.62v3.84c-1.23.94-4.58,1.79-8,1.79s-6.75-.84-8-1.78ZM99,2c4.55,0,8,1.43,8,2v1.2C105.77,6.17,102.42,7,99,7s-6.75-.84-8-1.78V4C91,3.41,94.45,2,99,2Zm0,20c-4.55,0-8-1.41-8-2v-3.6A18.44,18.44,0,0,0,99,18a18.41,18.41,0,0,0,8-1.62V20C107,20.55,103.55,22,99,22Z"/><path class="cls-5" d="M128,0c-4.47,0-10,1.35-10,4V20c0,2.64,5.53,4,10,4s10-1.38,10-4V4C138,1.38,132.47,0,128,0Zm8,10.22c-1.23.94-4.58,1.79-8,1.79s-6.75-.84-8-1.78V6.39A18.44,18.44,0,0,0,128,8a18.41,18.41,0,0,0,8-1.62Zm-16,1.17A18.44,18.44,0,0,0,128,13a18.41,18.41,0,0,0,8-1.62v3.84c-1.23.94-4.58,1.79-8,1.79s-6.75-.84-8-1.78ZM128,2c4.55,0,8,1.43,8,2v1.2c-1.23.94-4.58,1.79-8,1.79s-6.75-.84-8-1.78V4C120,3.41,123.45,2,128,2Zm0,20c-4.55,0-8-1.41-8-2v-3.6A18.44,18.44,0,0,0,128,18a18.41,18.41,0,0,0,8-1.62V20C136,20.55,132.55,22,128,22Z"/></g></svg>