<svg xmlns="http://www.w3.org/2000/svg" width="140" height="24" viewBox="0 0 140 24"><defs><style>.cls-1{fill:#39a6e6;}.cls-1,.cls-2,.cls-3,.cls-4,.cls-5{fill-rule:evenodd;}.cls-2{fill:#fff;}.cls-3{fill:#737373;}.cls-4{fill:#d7d7d7;}.cls-5{fill:#0089d9;}</style></defs><title>24</title><g id="Delete"><path class="cls-1" d="M68,17V9a1,1,0,1,0-2,0v8a1,1,0,1,0,2,0Zm3,0V9a1,1,0,1,0-2,0v8a1,1,0,1,0,2,0Zm3,0V9a1,1,0,1,0-2,0v8a1,1,0,1,0,2,0ZM80,4H74c0-2-1-4-3-4H69c-2,0-3,2-3,4H60a2.15,2.15,0,0,0-2,2V7a1,1,0,1,0,2,0,1,1,0,0,1,1-1H79a1,1,0,0,1,1,1,1,1,0,1,0,2,0V6A2.15,2.15,0,0,0,80,4ZM72,4H68V3c0-.09.28-1,1-1h2c.72,0,1,.9,1,1Zm6.09,3A1,1,0,0,0,77,7.91s-.48,8.12-.75,12.56c0,.7-.41,1.53-1.85,1.53H65.59c-1.44,0-1.82-.83-1.85-1.53C63.53,16,63,7.91,63,7.91a1,1,0,1,0-2,.18L61.85,22A2.6,2.6,0,0,0,64,24H76a2.6,2.6,0,0,0,2.15-2L79,8.09A1,1,0,0,0,78.09,7Z"/><path class="cls-2" d="M97,17V9a1,1,0,1,0-2,0v8a1,1,0,1,0,2,0Zm3,0V9a1,1,0,1,0-2,0v8a1,1,0,1,0,2,0Zm3,0V9a1,1,0,0,0-2,0v8a1,1,0,1,0,2,0Zm6-13h-6c0-2-1-4-3-4H98c-2,0-3,2-3,4H89a2.15,2.15,0,0,0-2,2V7a1,1,0,1,0,2,0,1,1,0,0,1,1-1h18a1,1,0,0,1,1,1,1,1,0,1,0,2,0V6A2.15,2.15,0,0,0,109,4Zm-8,0H97V3c0-.09.28-1,1-1h2c.72,0,1,.9,1,1Zm6.09,3a1,1,0,0,0-1.09.91s-.48,8.12-.75,12.56c0,.7-.41,1.53-1.85,1.53H94.59c-1.44,0-1.82-.83-1.85-1.53C92.53,16,92,7.91,92,7.91a1,1,0,1,0-2,.18L90.85,22A2.6,2.6,0,0,0,93,24h12a2.6,2.6,0,0,0,2.15-2L108,8.09A1,1,0,0,0,107.09,7Z"/><path class="cls-3" d="M126,17V9a1,1,0,1,0-2,0v8a1,1,0,1,0,2,0Zm3,0V9a1,1,0,1,0-2,0v8a1,1,0,1,0,2,0Zm3,0V9a1,1,0,0,0-2,0v8a1,1,0,1,0,2,0Zm6-13h-6c0-2-1-4-3-4h-2c-2,0-3,2-3,4h-6a2.15,2.15,0,0,0-2,2V7a1,1,0,1,0,2,0,1,1,0,0,1,1-1h18a1,1,0,0,1,1,1,1,1,0,1,0,2,0V6A2.15,2.15,0,0,0,138,4Zm-8,0h-4V3c0-.09.28-1,1-1h2c.72,0,1,.9,1,1Zm6.09,3a1,1,0,0,0-1.09.91s-.48,8.12-.75,12.56c0,.7-.41,1.53-1.85,1.53h-8.81c-1.44,0-1.82-.83-1.85-1.53C121.53,16,121,7.91,121,7.91a1,1,0,1,0-2,.18L119.85,22A2.6,2.6,0,0,0,122,24h12a2.6,2.6,0,0,0,2.15-2L137,8.09A1,1,0,0,0,136.09,7Z"/><path class="cls-4" d="M39,17V9a1,1,0,1,0-2,0v8a1,1,0,1,0,2,0Zm3,0V9a1,1,0,1,0-2,0v8a1,1,0,1,0,2,0Zm3,0V9a1,1,0,1,0-2,0v8a1,1,0,1,0,2,0ZM51,4H45c0-2-1-4-3-4H40c-2,0-3,2-3,4H31a2.15,2.15,0,0,0-2,2V7a1,1,0,1,0,2,0,1,1,0,0,1,1-1H50a1,1,0,0,1,1,1,1,1,0,1,0,2,0V6A2.15,2.15,0,0,0,51,4ZM43,4H39V3c0-.09.28-1,1-1h2c.72,0,1,.9,1,1Zm6.09,3A1,1,0,0,0,48,7.91s-.48,8.12-.75,12.56c0,.7-.41,1.53-1.85,1.53H36.59c-1.44,0-1.82-.83-1.85-1.53C34.53,16,34,7.91,34,7.91a1,1,0,1,0-2,.18L32.85,22A2.6,2.6,0,0,0,35,24H47a2.6,2.6,0,0,0,2.15-2L50,8.09A1,1,0,0,0,49.09,7Z"/><path class="cls-5" d="M10,17V9A1,1,0,1,0,8,9v8a1,1,0,1,0,2,0Zm3,0V9a1,1,0,1,0-2,0v8a1,1,0,1,0,2,0Zm3,0V9a1,1,0,1,0-2,0v8a1,1,0,1,0,2,0ZM22,4H16c0-2-1-4-3-4H11C9,0,8,2,8,4H2A2.15,2.15,0,0,0,0,6V7A1,1,0,1,0,2,7,1,1,0,0,1,3,6H21a1,1,0,0,1,1,1,1,1,0,1,0,2,0V6A2.15,2.15,0,0,0,22,4ZM14,4H10V3c0-.09.28-1,1-1h2c.72,0,1,.9,1,1Zm6.09,3A1,1,0,0,0,19,7.91s-.48,8.12-.75,12.56c0,.7-.41,1.53-1.85,1.53H7.59c-1.44,0-1.82-.83-1.85-1.53C5.53,16,5,7.91,5,7.91a1,1,0,1,0-2,.18L3.85,22A2.6,2.6,0,0,0,6,24H18a2.6,2.6,0,0,0,2.15-2L21,8.09A1,1,0,0,0,20.09,7Z"/></g></svg>