<svg xmlns="http://www.w3.org/2000/svg" width="140" height="24" viewBox="0 0 140 24"><defs><style>.cls-1{fill:#0089d9;}.cls-2{fill:#d7d7d7;}.cls-3{fill:#39a6e6;}.cls-4{fill:#fff;}.cls-5{fill:#737373;}</style></defs><title>24</title><g id="Detach"><path class="cls-1" d="M22,0H6A2.15,2.15,0,0,0,4,2V12H2a2.15,2.15,0,0,0-2,2v8a2.15,2.15,0,0,0,2,2h8c.43,0,2-1,2-2V20H22a2.15,2.15,0,0,0,2-2V2A2.15,2.15,0,0,0,22,0ZM10,22H2V14H4v4a2.15,2.15,0,0,0,2,2h4Zm12-4H6V2H22ZM10.68,14.76l6-6L19,11V5H13l2.31,2.31-6,6Z"/><path class="cls-2" d="M51,0H35a2.15,2.15,0,0,0-2,2V12H31a2.15,2.15,0,0,0-2,2v8a2.15,2.15,0,0,0,2,2h8c.43,0,2-1,2-2V20H51a2.15,2.15,0,0,0,2-2V2A2.15,2.15,0,0,0,51,0ZM39,22H31V14h2v4a2.15,2.15,0,0,0,2,2h4Zm12-4H35V2H51ZM39.68,14.76l6-6L48,11V5H42l2.31,2.31-6,6Z"/><path class="cls-3" d="M80,0H64a2.15,2.15,0,0,0-2,2V12H60a2.15,2.15,0,0,0-2,2v8a2.15,2.15,0,0,0,2,2h8c.43,0,2-1,2-2V20H80a2.15,2.15,0,0,0,2-2V2A2.15,2.15,0,0,0,80,0ZM68,22H60V14h2v4a2.15,2.15,0,0,0,2,2h4Zm12-4H64V2H80ZM68.68,14.76l6-6L77,11V5H71l2.31,2.31-6,6Z"/><path class="cls-4" d="M109,0H93a2.15,2.15,0,0,0-2,2V12H89a2.15,2.15,0,0,0-2,2v8a2.15,2.15,0,0,0,2,2h8c.43,0,2-1,2-2V20h10a2.15,2.15,0,0,0,2-2V2A2.15,2.15,0,0,0,109,0ZM97,22H89V14h2v4a2.15,2.15,0,0,0,2,2h4Zm12-4H93V2h16ZM97.68,14.76l6-6L106,11V5h-6l2.31,2.31-6,6Z"/><path class="cls-5" d="M138,0H122a2.15,2.15,0,0,0-2,2V12h-2a2.15,2.15,0,0,0-2,2v8a2.15,2.15,0,0,0,2,2h8c.43,0,2-1,2-2V20h10a2.15,2.15,0,0,0,2-2V2A2.15,2.15,0,0,0,138,0ZM126,22h-8V14h2v4a2.15,2.15,0,0,0,2,2h4Zm12-4H122V2h16Zm-11.32-3.24,6-6L135,11V5h-6l2.31,2.31-6,6Z"/></g></svg>