<svg xmlns="http://www.w3.org/2000/svg" width="140" height="24" viewBox="0 0 140 24"><defs><style>.cls-1{fill:#0089d9;}.cls-1,.cls-2,.cls-3,.cls-4,.cls-5{fill-rule:evenodd;}.cls-2{fill:#d7d7d7;}.cls-3{fill:#39a6e6;}.cls-4{fill:#fff;}.cls-5{fill:#737373;}</style></defs><title>24</title><g id="Drag"><path class="cls-1" d="M9,11H4V8L0,12l4,4V13H9Zm15,1L20,8v3H15v2h5v3ZM13,15H11v5H8l4,4,4-4H13ZM11,9h2V4h3L12,0,8,4h3Z"/><path class="cls-2" d="M38,11H33V8l-4,4,4,4V13h5Zm15,1L49,8v3H44v2h5v3ZM42,15H40v5H37l4,4,4-4H42ZM40,9h2V4h3L41,0,37,4h3Z"/><path class="cls-3" d="M67,11H62V8l-4,4,4,4V13h5Zm15,1L78,8v3H73v2h5v3ZM71,15H69v5H66l4,4,4-4H71ZM69,9h2V4h3L70,0,66,4h3Z"/><path class="cls-4" d="M96,11H91V8l-4,4,4,4V13h5Zm15,1-4-4v3h-5v2h5v3Zm-11,3H98v5H95l4,4,4-4h-3ZM98,9h2V4h3L99,0,95,4h3Z"/><path class="cls-5" d="M125,11h-5V8l-4,4,4,4V13h5Zm15,1-4-4v3h-5v2h5v3Zm-11,3h-2v5h-3l4,4,4-4h-3Zm-2-6h2V4h3l-4-4-4,4h3Z"/></g></svg>