<svg xmlns="http://www.w3.org/2000/svg" width="140" height="24" viewBox="0 0 140 24"><defs><style>.cls-1{fill:#0089d9;}.cls-1,.cls-2,.cls-3,.cls-4,.cls-5{fill-rule:evenodd;}.cls-2{fill:#d7d7d7;}.cls-3{fill:#39a6e6;}.cls-4{fill:#fff;}.cls-5{fill:#737373;}</style></defs><title>24</title><g id="Email"><path class="cls-1" d="M22,3H2A2,2,0,0,0,0,5V19a2,2,0,0,0,2,2H22a2,2,0,0,0,2-2V5A2,2,0,0,0,22,3ZM20.42,5,12,13,3.58,5ZM7.89,11.69,2,18.79V6.35ZM2.22,19,9.43,13.1c1,.94,1.79,1.65,2,1.89a.75.75,0,0,0,1.09,0c.24-.24,1-.95,2-1.88L21.78,19ZM22,18.78l-5.85-7.1L22,6.36Z"/><path class="cls-2" d="M51,3H31a2,2,0,0,0-2,2V19a2,2,0,0,0,2,2H51a2,2,0,0,0,2-2V5A2,2,0,0,0,51,3ZM49.42,5,41,13,32.58,5Zm-12.53,6.7L31,18.79V6.35ZM31.22,19l7.21-5.89c1,.94,1.79,1.65,2,1.89a.76.76,0,0,0,1.09,0c.24-.24,1-.95,2-1.88L50.78,19ZM51,18.78l-5.85-7.1L51,6.36Z"/><path class="cls-3" d="M80,3H60a2,2,0,0,0-2,2V19a2,2,0,0,0,2,2H80a2,2,0,0,0,2-2V5A2,2,0,0,0,80,3ZM78.42,5,70,13,61.58,5Zm-12.53,6.7L60,18.79V6.35ZM60.22,19l7.21-5.89c1,.94,1.79,1.65,2,1.89a.76.76,0,0,0,1.09,0c.24-.24,1-.95,2-1.88L79.78,19ZM80,18.78l-5.85-7.1L80,6.36Z"/><path class="cls-4" d="M109,3H89a2,2,0,0,0-2,2V19a2,2,0,0,0,2,2h20a2,2,0,0,0,2-2V5A2,2,0,0,0,109,3Zm-1.58,2L99,13,90.58,5Zm-12.53,6.7L89,18.79V6.35ZM89.22,19l7.21-5.89c1,.94,1.79,1.65,2,1.89a.76.76,0,0,0,1.09,0c.24-.24,1-.95,2-1.88L108.78,19ZM109,18.78l-5.85-7.1L109,6.36Z"/><path class="cls-5" d="M138,3H118a2,2,0,0,0-2,2V19a2,2,0,0,0,2,2h20a2,2,0,0,0,2-2V5A2,2,0,0,0,138,3Zm-1.58,2L128,13l-8.42-8Zm-12.53,6.7L118,18.79V6.35ZM118.22,19l7.21-5.89c1,.94,1.79,1.65,2,1.89a.76.76,0,0,0,1.09,0c.24-.24,1-.95,2-1.88L137.78,19ZM138,18.78l-5.85-7.1L138,6.36Z"/></g></svg>