<?xml version="1.0" encoding="utf-8"?>
<!-- Generator: Adobe Illustrator 19.1.1, SVG Export Plug-In . SVG Version: 6.00 Build 0)  -->
<svg version="1.1" id="Layer_2_1_" xmlns="http://www.w3.org/2000/svg" xmlns:xlink="http://www.w3.org/1999/xlink" x="0px" y="0px"
	 width="82px" height="24px" viewBox="-458 489 82 24" style="enable-background:new -458 489 82 24;" xml:space="preserve">
<style type="text/css">
	.st0{fill:#0089D9;}
	.st1{display:none;opacity:0.2;}
	.st2{display:inline;fill:#0089D9;}
	.st3{fill:#C8C8C8;}
	.st4{fill:#39A6E6;}
</style>
<path class="st0" d="M-445.2,503.9c0.4,0,1.2,0.1,1.5,0c0,0.7-0.7,2-1.5,3l2.2-1.5c1.2,2.6,7.5,2.7,7.5,4.8c0,1.3-7.4,1.3-10.5,1.2
	c-3.1,0.1-10.5,0.1-10.5-1.2c0-2.2,5.8-2.2,7.5-4.8l2.2,1.5c-0.7-0.7-1.5-2.2-1.5-3c0.3,0.1,1.1,0,1.5,0c-0.7-0.3-1.3-1-1.5-1.5
	c-0.4-0.9-0.9-0.5-0.7-3c-0.5,0.1-1.1,0.1-1.5-0.7c-0.1-0.4-0.3-1.3,0-1.5c0.5-0.2,0.7,0.7,0.7,0.7c0.7-1.9-0.7-2.3-0.7-4.5
	c0-2.1,1.6-3,3.7-3c1.3,0,2.9,0.4,2.8,1.6c0.7-0.2,1.6-0.1,1.7,1.4c0.1,2.2-1,1.3,0,4.5c0.1,0,0.1-1,0.7-0.7
	c0.3,0.2,0.3,1.3,0.1,1.7c-0.4,1-1.2,0.6-1.6,0.5c0.1,2.5-0.4,2.2-0.7,3C-444,503.3-445.2,503.9-445.2,503.9z M-442.3,502.6
	c0.4-0.4,0.8-0.7,0.8-2c1.1,0,1.6-1.6,1.6-2.6c0-1.2-0.7-1.6-1-1.6c-0.3,0,0.4-1.3,0.4-2.7c0-1.2-0.2-2.8-2-2.7
	c-1.9-3.2-9.3-2.5-9.3,2.6c0,1.7,0.6,2.2,0.7,2.8c-0.7,0-0.7,1.1-0.7,1.6c0,1.1,0.4,2.6,1.5,2.6c0,1.2,0.5,1.5,1.1,2.1
	c0.2,0.4,0.1,1.3,0,1.5c-0.1-0.1-0.4-0.1-0.6,0.1c-0.7,0.8-2,1.4-3.6,2.2c-2.2,1-4.5,1.3-4.5,4.4c0.1,2.1,6.7,2.1,12,2.1l0,0l0,0
	c5.3,0,12,0,12-1.9c0-3.1-2.3-3.4-4.6-4.4c-1.6-0.7-2.8-1.3-3.5-2.2c-0.2-0.2-0.4-0.2-0.6-0.1C-442.6,504.3-443,503.3-442.3,502.6z"
	/>
<g id="Guides" class="st1">
	<rect x="-458" y="489" class="st2" width="24" height="24"/>
	<rect x="-429" y="489" class="st2" width="24" height="24"/>
	<rect x="-400" y="489" class="st2" width="24" height="24"/>
</g>
<path class="st3" d="M-416.2,504c0.4,0,1.2,0.1,1.5,0c0,0.7-0.7,2-1.5,3l2.2-1.5c1.2,2.6,7.5,2.7,7.5,4.8c0,1.3-7.4,1.3-10.5,1.2
	c-3.1,0.1-10.5,0.1-10.5-1.2c0-2.2,5.8-2.2,7.5-4.8l2.2,1.5c-0.7-0.7-1.5-2.2-1.5-3c0.3,0.1,1.1,0,1.5,0c-0.7-0.3-1.3-1-1.5-1.5
	c-0.4-0.9-0.9-0.5-0.7-3c-0.5,0.1-1.1,0.1-1.5-0.7c-0.1-0.4-0.3-1.3,0-1.5c0.5-0.2,0.7,0.7,0.7,0.7c0.7-1.9-0.7-2.3-0.7-4.5
	c0-2.1,1.6-3,3.7-3c1.3,0,2.9,0.4,2.8,1.6c0.7-0.2,1.6-0.1,1.7,1.4c0.1,2.2-1,1.3,0,4.5c0.1,0,0.1-1,0.7-0.7
	c0.3,0.2,0.3,1.3,0.1,1.7c-0.4,1-1.2,0.6-1.6,0.5c0.1,2.5-0.4,2.2-0.7,3C-414.9,503.3-416.2,504-416.2,504z M-413.3,502.6
	c0.4-0.4,0.8-0.7,0.8-2c1.1,0,1.6-1.6,1.6-2.6c0-1.2-0.7-1.6-1-1.6c-0.3,0,0.4-1.3,0.4-2.7c0-1.2-0.2-2.8-2-2.7
	c-1.9-3.2-9.3-2.5-9.3,2.6c0,1.7,0.6,2.2,0.7,2.8c-0.7,0-0.7,1.1-0.7,1.6c0,1.1,0.4,2.6,1.5,2.6c0,1.2,0.5,1.5,1.1,2.1
	c0.2,0.4,0.1,1.3,0,1.5c-0.1-0.1-0.4-0.1-0.6,0.1c-0.7,0.8-2,1.4-3.6,2.2c-2.2,1-4.5,1.3-4.5,4.4c0.1,2.1,6.7,2.1,12,2.1l0,0l0,0
	c5.3,0,12,0,12-1.9c0-3.1-2.3-3.4-4.6-4.4c-1.6-0.7-2.8-1.3-3.5-2.2c-0.2-0.2-0.4-0.2-0.6-0.1C-413.6,504.3-413.9,503.4-413.3,502.6
	z"/>
<path class="st4" d="M-387.2,503.9c0.4,0,1.2,0.1,1.5,0c0,0.7-0.7,2-1.5,3l2.2-1.5c1.2,2.6,7.5,2.7,7.5,4.8c0,1.3-7.4,1.3-10.5,1.2
	c-3.1,0.1-10.5,0.1-10.5-1.2c0-2.2,5.8-2.2,7.5-4.8l2.2,1.5c-0.7-0.7-1.5-2.2-1.5-3c0.3,0.1,1.1,0,1.5,0c-0.7-0.3-1.3-1-1.5-1.5
	c-0.4-0.9-0.9-0.5-0.7-3c-0.5,0.1-1.1,0.1-1.5-0.7c-0.1-0.4-0.3-1.3,0-1.5c0.5-0.2,0.7,0.7,0.7,0.7c0.7-1.9-0.7-2.3-0.7-4.5
	c0-2.1,1.6-3,3.7-3c1.3,0,2.9,0.4,2.8,1.6c0.7-0.2,1.6-0.1,1.7,1.4c0.1,2.2-1,1.3,0,4.5c0.1,0,0.1-1,0.7-0.7
	c0.3,0.2,0.3,1.3,0.1,1.7c-0.4,1-1.2,0.6-1.6,0.5c0.1,2.5-0.4,2.2-0.7,3C-385.9,503.3-387.2,503.9-387.2,503.9z M-384.3,502.6
	c0.4-0.4,0.8-0.7,0.8-2c1.1,0,1.6-1.6,1.6-2.6c0-1.2-0.7-1.6-1-1.6c-0.3,0,0.4-1.3,0.4-2.7c0-1.2-0.2-2.8-2-2.7
	c-1.9-3.2-9.3-2.5-9.3,2.6c0,1.7,0.6,2.2,0.7,2.8c-0.7,0-0.7,1.1-0.7,1.6c0,1.1,0.4,2.6,1.5,2.6c0,1.2,0.5,1.5,1.1,2.1
	c0.2,0.4,0.1,1.3,0,1.5c-0.1-0.1-0.4-0.1-0.6,0.1c-0.7,0.8-2,1.4-3.6,2.2c-2.2,1-4.5,1.3-4.5,4.4c0.1,2.1,6.7,2.1,12,2.1l0,0l0,0
	c5.3,0,12,0,12-1.9c0-3.1-2.3-3.4-4.6-4.4c-1.6-0.7-2.8-1.3-3.5-2.2c-0.2-0.2-0.4-0.2-0.6-0.1C-384.6,504.3-385,503.3-384.3,502.6z"
	/>
</svg>
