<svg xmlns="http://www.w3.org/2000/svg" width="140" height="24" viewBox="0 0 140 24"><defs><style>.cls-1{fill:#0089d9;}.cls-1,.cls-2,.cls-3,.cls-4,.cls-5{fill-rule:evenodd;}.cls-2{fill:#d7d7d7;}.cls-3{fill:#39a6e6;}.cls-4{fill:#fff;}.cls-5{fill:#737373;}</style></defs><title>24</title><g id="Evaluate"><path class="cls-1" d="M14,2a2,2,0,1,0-2,2A2,2,0,0,0,14,2Zm0,14a5.85,5.85,0,0,0,5,2,5.93,5.93,0,0,0,5-2l-1.3,0-3-10.05A1.4,1.4,0,0,0,21,4.5a.5.5,0,0,0-1,0c0,.23-.34.38-.65.45a.52.52,0,0,0-.69,0c-.31-.08-.66-.24-.66-.45a.5.5,0,0,0-.5-.5H6.5a.5.5,0,0,0-.5.5c0,.23-.34.38-.65.45a.53.53,0,0,0-.69,0C4.35,4.87,4,4.71,4,4.5a.5.5,0,0,0-1,0A1.4,1.4,0,0,0,4.28,5.93L1.28,16,0,16a5.93,5.93,0,0,0,5,2,5.86,5.86,0,0,0,5-2L8.7,16l-3-10A1.28,1.28,0,0,0,6.94,5H11V22H10c-1,0-3,.89-3,1.44S7.45,24,8,24h8c.55,0,1,0,1-.56S15,22,14,22H13V5h4.06a1.28,1.28,0,0,0,1.21,1l-3,10ZM7.28,16H2.61L5,8ZM19,8l2.28,8H16.61Z"/><path class="cls-2" d="M43,2a2,2,0,1,0-2,2A2,2,0,0,0,43,2Zm0,14a5.85,5.85,0,0,0,5,2,5.93,5.93,0,0,0,5-2l-1.3,0-3-10.05A1.4,1.4,0,0,0,50,4.5a.5.5,0,0,0-1,0c0,.23-.34.38-.65.45a.52.52,0,0,0-.69,0c-.31-.08-.66-.24-.66-.45a.5.5,0,0,0-.5-.5h-11a.5.5,0,0,0-.5.5c0,.23-.34.38-.65.45a.53.53,0,0,0-.69,0c-.31-.08-.66-.24-.66-.45a.5.5,0,0,0-1,0,1.4,1.4,0,0,0,1.28,1.43L30.28,16,29,16a5.93,5.93,0,0,0,5,2,5.86,5.86,0,0,0,5-2l-1.3,0-3-10a1.28,1.28,0,0,0,1.21-1H40V22H39c-1,0-3,.89-3,1.44s.45.56,1,.56h8c.55,0,1,0,1-.56S44,22,43,22H42V5h4.06a1.28,1.28,0,0,0,1.21,1l-3,10Zm-6.72,0H31.61L34,8ZM48,8l2.28,8H45.61Z"/><path class="cls-3" d="M72,2a2,2,0,1,0-2,2A2,2,0,0,0,72,2Zm0,14a5.85,5.85,0,0,0,5,2,5.93,5.93,0,0,0,5-2l-1.3,0-3-10.05A1.4,1.4,0,0,0,79,4.5a.5.5,0,0,0-1,0c0,.23-.34.38-.65.45a.52.52,0,0,0-.69,0c-.31-.08-.66-.24-.66-.45a.5.5,0,0,0-.5-.5h-11a.5.5,0,0,0-.5.5c0,.23-.34.38-.65.45a.53.53,0,0,0-.69,0c-.31-.08-.66-.24-.66-.45a.5.5,0,0,0-1,0,1.4,1.4,0,0,0,1.28,1.43L59.28,16,58,16a5.93,5.93,0,0,0,5,2,5.86,5.86,0,0,0,5-2l-1.3,0-3-10a1.28,1.28,0,0,0,1.21-1H69V22H68c-1,0-3,.89-3,1.44s.45.56,1,.56h8c.55,0,1,0,1-.56S73,22,72,22H71V5h4.06a1.28,1.28,0,0,0,1.21,1l-3,10Zm-6.72,0H60.61L63,8ZM77,8l2.28,8H74.61Z"/><path class="cls-4" d="M101,2a2,2,0,1,0-2,2A2,2,0,0,0,101,2Zm0,14a5.85,5.85,0,0,0,5,2,5.93,5.93,0,0,0,5-2l-1.3,0-3-10.05A1.4,1.4,0,0,0,108,4.5a.5.5,0,0,0-1,0c0,.23-.34.38-.65.45a.52.52,0,0,0-.69,0c-.31-.08-.66-.24-.66-.45a.5.5,0,0,0-.5-.5h-11a.5.5,0,0,0-.5.5c0,.23-.34.38-.65.45a.53.53,0,0,0-.69,0c-.31-.08-.66-.24-.66-.45a.5.5,0,0,0-1,0,1.4,1.4,0,0,0,1.28,1.43L88.28,16,87,16a5.93,5.93,0,0,0,5,2,5.86,5.86,0,0,0,5-2l-1.3,0-3-10a1.28,1.28,0,0,0,1.21-1H98V22H97c-1,0-3,.89-3,1.44s.45.56,1,.56h8c.55,0,1,0,1-.56S102,22,101,22h-1V5h4.06a1.28,1.28,0,0,0,1.21,1l-3,10Zm-6.72,0H89.61L92,8ZM106,8l2.28,8h-4.67Z"/><path class="cls-5" d="M130,2a2,2,0,1,0-2,2A2,2,0,0,0,130,2Zm0,14a5.85,5.85,0,0,0,5,2,5.93,5.93,0,0,0,5-2l-1.3,0-3-10.05A1.4,1.4,0,0,0,137,4.5a.5.5,0,0,0-1,0c0,.23-.34.38-.65.45a.52.52,0,0,0-.69,0c-.31-.08-.66-.24-.66-.45a.5.5,0,0,0-.5-.5h-11a.5.5,0,0,0-.5.5c0,.23-.34.38-.65.45a.53.53,0,0,0-.69,0c-.31-.08-.66-.24-.66-.45a.5.5,0,0,0-1,0,1.4,1.4,0,0,0,1.28,1.43l-3,10.05L116,16a5.93,5.93,0,0,0,5,2,5.86,5.86,0,0,0,5-2l-1.3,0-3-10a1.28,1.28,0,0,0,1.21-1H127V22h-1c-1,0-3,.89-3,1.44s.45.56,1,.56h8c.55,0,1,0,1-.56S131,22,130,22h-1V5h4.06a1.28,1.28,0,0,0,1.21,1l-3,10Zm-6.72,0h-4.67L121,8ZM135,8l2.28,8h-4.67Z"/></g></svg>