<svg xmlns="http://www.w3.org/2000/svg" width="140" height="24" viewBox="0 0 140 24"><defs><style>.cls-1{fill:#0089d9;}.cls-1,.cls-2,.cls-3,.cls-4,.cls-5{fill-rule:evenodd;}.cls-2{fill:#d7d7d7;}.cls-3{fill:#39a6e6;}.cls-4{fill:#fff;}.cls-5{fill:#737373;}</style></defs><title>24</title><g id="Exit_Full_Screen" data-name="Exit Full Screen"><path class="cls-1" d="M17.71,7.7l3.5-3.5L19.8,2.79l-3.5,3.5L14,4v6h6ZM20,14H14v6l2.29-2.29,3.5,3.5,1.41-1.41-3.5-3.5ZM6.29,16.29l-3.5,3.5L4.2,21.21l3.5-3.5L10,20V14H4ZM4.2,2.79,2.79,4.21l3.5,3.5L4,10h6V4L7.7,6.29Z"/><path class="cls-2" d="M46.71,7.7l3.5-3.5L48.8,2.79l-3.5,3.5L43,4v6h6ZM49,14H43v6l2.29-2.29,3.5,3.5,1.41-1.41-3.5-3.5ZM35.29,16.29l-3.5,3.5,1.41,1.41,3.5-3.5L39,20V14H33ZM33.2,2.79,31.79,4.21l3.5,3.5L33,10h6V4L36.7,6.29Z"/><path class="cls-3" d="M75.71,7.7l3.5-3.5L77.79,2.79l-3.5,3.5L72,4v6h6ZM78,14H72v6l2.29-2.29,3.5,3.5,1.41-1.41-3.5-3.5ZM64.29,16.29l-3.5,3.5,1.41,1.41,3.5-3.5L68,20V14H62ZM62.2,2.79,60.79,4.21l3.5,3.5L62,10h6V4L65.7,6.29Z"/><path class="cls-4" d="M104.71,7.7l3.5-3.5-1.41-1.41-3.5,3.5L101,4v6h6ZM107,14h-6v6l2.29-2.29,3.5,3.5,1.41-1.41-3.5-3.5ZM93.29,16.29l-3.5,3.5,1.41,1.41,3.5-3.5L97,20V14H91ZM91.2,2.79,89.79,4.21l3.5,3.5L91,10h6V4L94.7,6.29Z"/><path class="cls-5" d="M133.71,7.7l3.5-3.5-1.41-1.41-3.5,3.5L130,4v6h6ZM136,14h-6v6l2.29-2.29,3.5,3.5,1.41-1.41-3.5-3.5Zm-13.71,2.29-3.5,3.5,1.41,1.41,3.5-3.5L126,20V14h-6ZM120.2,2.79l-1.41,1.41,3.5,3.5L120,10h6V4L123.7,6.29Z"/></g></svg>