<svg xmlns="http://www.w3.org/2000/svg" width="140" height="24" viewBox="0 0 140 24"><defs><style>.cls-1{fill:#0089d9;}.cls-1,.cls-2,.cls-3,.cls-4,.cls-5{fill-rule:evenodd;}.cls-2{fill:#d7d7d7;}.cls-3{fill:#39a6e6;}.cls-4{fill:#fff;}.cls-5{fill:#737373;}</style></defs><title>24</title><g id="Enter_Full_Screen" data-name="Enter Full Screen"><path class="cls-1" d="M16,2,18.29,4.3l-3.5,3.5,1.41,1.41,3.5-3.5L22,8V2Zm.21,12.79-1.41,1.41,3.5,3.5L16,22h6V16l-2.29,2.29Zm-8.44,0-3.5,3.5L2,16v6H8L5.68,19.71l3.5-3.5ZM8,2H2V8L4.26,5.71l3.5,3.5L9.18,7.8,5.68,4.3Z"/><path class="cls-2" d="M45,2,47.32,4.3l-3.5,3.5,1.41,1.41,3.5-3.5L51,8V2Zm.21,12.79-1.41,1.41,3.5,3.5L45,22h6V16l-2.29,2.29Zm-8.44,0-3.5,3.5L31,16v6h6l-2.29-2.29,3.5-3.5ZM37,2H31V8l2.29-2.29,3.5,3.5L38.21,7.8l-3.5-3.5Z"/><path class="cls-3" d="M74,2,76.32,4.3l-3.5,3.5,1.41,1.41,3.5-3.5L80,8V2Zm.21,12.79-1.41,1.41,3.5,3.5L74,22h6V16l-2.29,2.29Zm-8.44,0-3.5,3.5L60,16v6h6l-2.29-2.29,3.5-3.5ZM66,2H60V8l2.29-2.29,3.5,3.5L67.21,7.8l-3.5-3.5Z"/><path class="cls-4" d="M103,2l2.29,2.29-3.5,3.5,1.41,1.41,3.5-3.5L109,8V2Zm.21,12.79-1.41,1.41,3.5,3.5L103,22h6V16l-2.29,2.29Zm-8.44,0-3.5,3.5L89,16v6h6L92.68,19.7l3.5-3.5ZM95,2H89V8l2.29-2.29,3.5,3.5,1.41-1.41-3.5-3.5Z"/><path class="cls-5" d="M132,2l2.29,2.29-3.5,3.5,1.41,1.41,3.5-3.5L138,8V2Zm.21,12.79-1.41,1.41,3.5,3.5L132,22h6V16l-2.29,2.29Zm-8.44,0-3.5,3.5L118,16v6h6l-2.29-2.29,3.5-3.5ZM124,2h-6V8l2.29-2.29,3.5,3.5,1.41-1.41-3.5-3.5Z"/></g></svg>