<svg xmlns="http://www.w3.org/2000/svg" width="140" height="24" viewBox="0 0 140 24"><defs><style>.cls-1{fill:#0089d9;}.cls-2{fill:#d7d7d7;}.cls-3{fill:#39a6e6;}.cls-4{fill:#fff;}.cls-5{fill:#737373;}</style></defs><title>24</title><g id="Education"><path class="cls-1" d="M12,0,0,5,4,6.67V12.5a9.36,9.36,0,0,0,3,2.33V17s-2.25,1,0,2c-1,1-1,4-1,4a2.06,2.06,0,0,0,2,1,2.11,2.11,0,0,0,2-1s0-3-1-4c2.22-1.09,0-2,0-2V15.6a11.23,11.23,0,0,0,3,.4c5.5,0,8-3,8-3V6.67L24,5ZM6,11.5v-4l1,.42v4.58A4.61,4.61,0,0,1,6,11.5Zm12,0S16.5,14,12,14a9.26,9.26,0,0,1-3-.47V8.75L12,10l6-2.5ZM12,8,9.24,6.89l4.48-2-2.06-.81L7,6H7L4.5,5,12,2l7.5,3Z"/><path class="cls-2" d="M41,0,29,5l4,1.67V12.5a9.36,9.36,0,0,0,3,2.33V17s-2.25,1,0,2c-1,1-1,4-1,4a2.06,2.06,0,0,0,2,1,2.11,2.11,0,0,0,2-1s0-3-1-4c2.22-1.09,0-2,0-2V15.6a11.23,11.23,0,0,0,3,.4c5.5,0,8-3,8-3V6.67L53,5ZM35,11.5v-4l1,.42v4.58A4.61,4.61,0,0,1,35,11.5Zm12,0S45.5,14,41,14a9.26,9.26,0,0,1-3-.47V8.75L41,10l6-2.5ZM41,8,38.23,6.89l4.48-2-2.06-.81L36,6h0L33.5,5,41,2l7.5,3Z"/><path class="cls-3" d="M70,0,58,5l4,1.67V12.5a9.36,9.36,0,0,0,3,2.33V17s-2.25,1,0,2c-1,1-1,4-1,4a2.06,2.06,0,0,0,2,1,2.11,2.11,0,0,0,2-1s0-3-1-4c2.22-1.09,0-2,0-2V15.6a11.23,11.23,0,0,0,3,.4c5.5,0,8-3,8-3V6.67L82,5ZM64,11.5v-4l1,.42v4.58A4.61,4.61,0,0,1,64,11.5Zm12,0S74.5,14,70,14a9.26,9.26,0,0,1-3-.47V8.75L70,10l6-2.5ZM70,8,67.24,6.89l4.48-2-2.06-.81L65,6h0L62.5,5,70,2l7.5,3Z"/><path class="cls-4" d="M99,0,87,5l4,1.67V12.5a9.36,9.36,0,0,0,3,2.33V17s-2.25,1,0,2c-1,1-1,4-1,4a2.06,2.06,0,0,0,2,1,2.11,2.11,0,0,0,2-1s0-3-1-4c2.22-1.09,0-2,0-2V15.6a11.23,11.23,0,0,0,3,.4c5.5,0,8-3,8-3V6.67L111,5ZM93,11.5v-4l1,.42v4.58A4.61,4.61,0,0,1,93,11.5Zm12,0S103.5,14,99,14a9.26,9.26,0,0,1-3-.47V8.75L99,10l6-2.5ZM99,8,96.24,6.89l4.48-2-2.06-.81L94,6h0L91.5,5,99,2l7.5,3Z"/><path class="cls-5" d="M128,0,116,5l4,1.67V12.5a9.36,9.36,0,0,0,3,2.33V17s-2.25,1,0,2c-1,1-1,4-1,4a2.06,2.06,0,0,0,2,1,2.11,2.11,0,0,0,2-1s0-3-1-4c2.22-1.09,0-2,0-2V15.6a11.23,11.23,0,0,0,3,.4c5.5,0,8-3,8-3V6.67L140,5Zm-6,11.5v-4l1,.42v4.58A4.61,4.61,0,0,1,122,11.5Zm12,0s-1.5,2.5-6,2.5a9.26,9.26,0,0,1-3-.47V8.75L128,10l6-2.5ZM128,8l-2.76-1.11,4.48-2-2.06-.81L123,6h0l-2.5-1L128,2l7.5,3Z"/></g></svg>