<svg xmlns="http://www.w3.org/2000/svg" width="140" height="24" viewBox="0 0 140 24"><defs><style>.cls-1{fill:#0089d9;}.cls-1,.cls-2,.cls-3,.cls-4,.cls-5,.cls-6,.cls-7{fill-rule:evenodd;}.cls-2{fill:#68a611;}.cls-3{fill:#d7d7d7;}.cls-4{fill:#39a6e6;}.cls-5{fill:#8ec928;}.cls-6{fill:#fff;}.cls-7{fill:#737373;}</style></defs><title>24</title><g id="Office_Excel" data-name="Office Excel"><path class="cls-1" d="M16,.28V0H2V24H22V6.25ZM19.59,6H16V2.49ZM4,22V2H14V8h6V22Z"/><path class="cls-2" d="M7,11h3l8,9H14L6,11Z"/><path class="cls-2" d="M14,11,6,19H8.44L16,11.47V11Z"/><path class="cls-3" d="M45,.28V0H31V24H51V6.25ZM48.59,6H45V2.49ZM33,22V2H43V8h6V22Z"/><path class="cls-3" d="M36,11h3l8,9H43l-8-9Z"/><path class="cls-3" d="M43,11l-8,8h2.44L45,11.47V11Z"/><path class="cls-4" d="M74,.28V0H60V24H80V6.25ZM77.59,6H74V2.49ZM62,22V2H72V8h6V22Z"/><path class="cls-5" d="M65,11h3l8,9H72l-8-9Z"/><path class="cls-5" d="M72,11l-8,8h2.44L74,11.47V11Z"/><path class="cls-6" d="M103,.28V0H89V24h20V6.25ZM106.59,6H103V2.49ZM91,22V2h10V8h6V22Z"/><path class="cls-6" d="M94,11h3l8,9h-4l-8-9Z"/><path class="cls-6" d="M101,11l-8,8h2.44L103,11.47V11Z"/><path class="cls-7" d="M132,.28V0H118V24h20V6.25ZM135.59,6H132V2.49ZM120,22V2h10V8h6V22Z"/><path class="cls-7" d="M123,11h3l8,9h-4l-8-9Z"/><path class="cls-7" d="M130,11l-8,8h2.44L132,11.47V11Z"/></g></svg>