<?xml version="1.0" encoding="utf-8"?>
<!-- Generator: Adobe Illustrator 19.1.1, SVG Export Plug-In . SVG Version: 6.00 Build 0)  -->
<svg version="1.1" xmlns="http://www.w3.org/2000/svg" xmlns:xlink="http://www.w3.org/1999/xlink" x="0px" y="0px" width="169px"
	 height="24px" viewBox="0 0 169 24" enable-background="new 0 0 169 24" xml:space="preserve">
<g id="Encrypted_PDF">
	<g display="none">
		<g display="inline">
			<g>
				<path fill-rule="evenodd" clip-rule="evenodd" fill="#39A6E6" d="M80,21H61V2c0-0.6-0.4-1-1-1c-0.6,0-1,0.4-1,1v20
					c0,0.6,0.4,1,1,1h20c0.6,0,1-0.4,1-1C81,21.4,80.6,21,80,21z"/>
			</g>
		</g>
		<path display="inline" fill-rule="evenodd" clip-rule="evenodd" fill="#39A6E6" d="M65,11c0.6,0,1,0.4,1,1v6c0,0.6-0.4,1-1,1
			c-0.6,0-1-0.4-1-1v-6C64,11.4,64.4,11,65,11z"/>
		<path display="inline" fill-rule="evenodd" clip-rule="evenodd" fill="#39A6E6" d="M73,9c0.6,0,1,0.4,1,1v8c0,0.6-0.4,1-1,1
			s-1-0.4-1-1v-8C72,9.4,72.4,9,73,9z"/>
		<path display="inline" fill-rule="evenodd" clip-rule="evenodd" fill="#39A6E6" d="M69,7c0.6,0,1,0.4,1,1v10c0,0.6-0.4,1-1,1
			c-0.6,0-1-0.4-1-1V8C68,7.4,68.4,7,69,7z"/>
		<path display="inline" fill-rule="evenodd" clip-rule="evenodd" fill="#39A6E6" d="M77,3c0.6,0,1,0.4,1,1v14c0,0.6-0.4,1-1,1
			c-0.6,0-1-0.4-1-1V4C76,3.4,76.4,3,77,3z"/>
	</g>
	<g display="none">
		<g display="inline">
			<g>
				<path fill-rule="evenodd" clip-rule="evenodd" fill="#FFFFFF" d="M109,21H90V2c0-0.6-0.4-1-1-1c-0.6,0-1,0.4-1,1v20
					c0,0.6,0.4,1,1,1h20c0.6,0,1-0.4,1-1C110,21.4,109.6,21,109,21z"/>
			</g>
		</g>
		<path display="inline" fill-rule="evenodd" clip-rule="evenodd" fill="#FFFFFF" d="M94,11c0.6,0,1,0.4,1,1v6c0,0.6-0.4,1-1,1
			c-0.6,0-1-0.4-1-1v-6C93,11.4,93.5,11,94,11z"/>
		<path display="inline" fill-rule="evenodd" clip-rule="evenodd" fill="#FFFFFF" d="M102,9c0.6,0,1,0.4,1,1v8c0,0.6-0.4,1-1,1
			s-1-0.4-1-1v-8C101,9.4,101.5,9,102,9z"/>
		<path display="inline" fill-rule="evenodd" clip-rule="evenodd" fill="#FFFFFF" d="M98,7c0.6,0,1,0.4,1,1v10c0,0.6-0.4,1-1,1
			c-0.6,0-1-0.4-1-1V8C97,7.4,97.5,7,98,7z"/>
		<path display="inline" fill-rule="evenodd" clip-rule="evenodd" fill="#FFFFFF" d="M106,3c0.6,0,1,0.4,1,1v14c0,0.6-0.4,1-1,1
			c-0.6,0-1-0.4-1-1V4C105,3.4,105.5,3,106,3z"/>
	</g>
	<g display="none">
		<g display="inline">
			<g>
				<path fill-rule="evenodd" clip-rule="evenodd" fill="#737373" d="M138,21h-19V2c0-0.6-0.4-1-1-1c-0.6,0-1,0.4-1,1v20
					c0,0.6,0.4,1,1,1h20c0.6,0,1-0.4,1-1C139,21.4,138.6,21,138,21z"/>
			</g>
		</g>
		<path display="inline" fill-rule="evenodd" clip-rule="evenodd" fill="#737373" d="M123,11c0.6,0,1,0.4,1,1v6c0,0.6-0.4,1-1,1
			c-0.6,0-1-0.4-1-1v-6C122,11.4,122.4,11,123,11z"/>
		<path display="inline" fill-rule="evenodd" clip-rule="evenodd" fill="#737373" d="M131,9c0.6,0,1,0.4,1,1v8c0,0.6-0.4,1-1,1
			s-1-0.4-1-1v-8C130,9.4,130.4,9,131,9z"/>
		<path display="inline" fill-rule="evenodd" clip-rule="evenodd" fill="#737373" d="M127,7c0.6,0,1,0.4,1,1v10c0,0.6-0.4,1-1,1
			c-0.6,0-1-0.4-1-1V8C126,7.4,126.4,7,127,7z"/>
		<path display="inline" fill-rule="evenodd" clip-rule="evenodd" fill="#737373" d="M135,3c0.6,0,1,0.4,1,1v14c0,0.6-0.4,1-1,1
			c-0.6,0-1-0.4-1-1V4C134,3.4,134.4,3,135,3z"/>
	</g>
	<g display="none">
		<g display="inline">
			<path fill-rule="evenodd" clip-rule="evenodd" fill="#D7D7D7" d="M36,19c0.6,0,1-0.4,1-1v-6c0-0.6-0.4-1-1-1c-0.6,0-1,0.4-1,1v6
				C35,18.6,35.4,19,36,19z M44,19c0.6,0,1-0.4,1-1v-8c0-0.6-0.4-1-1-1c-0.6,0-1,0.4-1,1v8C43,18.6,43.4,19,44,19z M40,19
				c0.6,0,1-0.4,1-1V8c0-0.6-0.4-1-1-1c-0.6,0-1,0.4-1,1v10C39,18.6,39.4,19,40,19z M48,19c0.6,0,1-0.4,1-1V4c0-0.6-0.4-1-1-1
				c-0.6,0-1,0.4-1,1v14C47,18.6,47.4,19,48,19z M51,21H32V2c0-0.6-0.4-1-1-1c-0.6,0-1,0.4-1,1v20c0,0.6,0.4,1,1,1h20
				c0.6,0,1-0.4,1-1C52,21.4,51.6,21,51,21z"/>
		</g>
	</g>
	<g display="none">
		<g display="inline">
			<g>
				<path fill-rule="evenodd" clip-rule="evenodd" fill="#0089D9" d="M22,21H3V2c0-0.6-0.4-1-1-1C1.4,1,1,1.4,1,2v20
					c0,0.6,0.4,1,1,1h20c0.6,0,1-0.4,1-1C23,21.4,22.6,21,22,21z"/>
			</g>
		</g>
		<path display="inline" fill-rule="evenodd" clip-rule="evenodd" fill="#0089D9" d="M7,11c0.6,0,1,0.4,1,1v6c0,0.6-0.4,1-1,1
			c-0.6,0-1-0.4-1-1v-6C6,11.4,6.4,11,7,11z"/>
		<path display="inline" fill-rule="evenodd" clip-rule="evenodd" fill="#0089D9" d="M15,9c0.6,0,1,0.4,1,1v8c0,0.6-0.4,1-1,1
			c-0.6,0-1-0.4-1-1v-8C14,9.4,14.4,9,15,9z"/>
		<path display="inline" fill-rule="evenodd" clip-rule="evenodd" fill="#0089D9" d="M11,7c0.6,0,1,0.4,1,1v10c0,0.6-0.4,1-1,1
			c-0.6,0-1-0.4-1-1V8C10,7.4,10.4,7,11,7z"/>
		<path display="inline" fill-rule="evenodd" clip-rule="evenodd" fill="#0089D9" d="M19,3c0.6,0,1,0.4,1,1v14c0,0.6-0.4,1-1,1
			c-0.6,0-1-0.4-1-1V4C18,3.4,18.4,3,19,3z"/>
	</g>
	<g>
		<g>
			<path fill-rule="evenodd" clip-rule="evenodd" fill="#0089D9" d="M151,0.3L145.3,6h5.7V0.3z M157.5,13.7c0.3-0.2,0.5-0.4,0.5-0.7
				c0-0.7,0,0.2,0-1c0-2,2-4,4-4h3V0h-13.7l0,0h0.7v6h0v1h0v0h-1v0h-6v17l11,0v-6.1c-0.7,0.2-1.3,0.4-2.3,0.6
				c-1.6,2.9-2.4,3.5-4.4,3.5c-0.2,0-0.4,0-0.5-0.1l-0.4-0.2c-0.3-0.2-0.4-0.9-0.4-1.2c0.2-0.8,0.2-1.4,1.2-2c0.2-0.1,2-1.2,2-1.2
				c0.9-1.4,1.6-2.8,2.5-4.9l0.1-0.4c-0.7-1.9-0.7-3.9-0.3-5.1c0.1-0.4,0.8-0.8,1.2-0.8l0.4,0c0.7,0,1.4,0.7,1.5,1
				c0.1,0.5,0.1,1.3,0.1,1.4c0,0.1-0.1,2.2-0.2,2.8c0,0.1,0,0.3,0,0.4C156.7,12.6,157,13.2,157.5,13.7z M167,15v-2c0-2.2-1.8-4-4-4
				c-2.2,0-4,1.8-4,4v2h0c-1.1,0-2,0.9-2,2v5c0,1.1,0.9,2,2,2h8c1.1,0,2-0.9,2-2v-5C169,15.9,168.1,15,167,15z M161,13.2
				c0-1.2,0.9-2.2,2-2.2c1.1,0,2,1,2,2.2l0,1.8h-4V13.2z M167,21.3c0,0.4-0.3,0.7-0.8,0.7h-6.4c-0.4,0-0.8-0.3-0.8-0.7v-3.6
				c0-0.4,0.4-0.7,0.8-0.7h6.4c0.4,0,0.8,0.3,0.8,0.7L167,21.3z M163,17c-0.6,0-1,0.4-1,1v1c0,0.6,0.5,1,1,1c0.6,0,1-0.4,1-1v-1
				C164,17.5,163.6,17,163,17z"/>
		</g>
	</g>
	<g>
		<g>
			<path fill-rule="evenodd" clip-rule="evenodd" fill="#D6565A" d="M156,15.9c-0.8,0.2-1.5,0.5-2.2,0.8c0.2-0.3,0.4-0.7,0.6-1.1
				c0.4-0.8,0.7-1.5,0.9-2.1c0.2,0.4,0.5,0.8,0.8,1.2c0.1-0.4,0.6-0.6,1-0.8c-0.5-0.6-0.9-1.4-1.2-2.2c0-0.1,0-0.2,0.1-0.3
				c0.1-0.6,0-2.3,0.1-2.4l0,0c0-0.2,0.1-0.8,0.1-1.1c0-0.3-0.1-1-0.7-1l-0.2,0c-0.3,0-0.6,0.1-0.8,0.4c-0.1,0.1-0.2,0.2-0.2,0.4
				c-0.3,1,0,2.6,0.5,4.5l-0.1,0.3c-0.4,0.9-0.8,1.8-1.2,2.6l-0.1,0.1c-0.5,0.9-0.9,1.7-1.2,2.3l-0.1-0.1c0,0-0.6,0.3-0.8,0.4
				c-0.7,0.4-1.2,0.8-1.5,1.1c-0.4,0.3-0.6,0.6-0.6,1c0,0.2,0,0.5,0.2,0.7l0.3,0.2c0.2,0.1,0.3,0.1,0.5,0.1c0.5,0,0.9-0.2,1.4-0.8
				c0.5-0.5,1-1.3,1.7-2.5c0.9-0.2,1.8-0.5,2.8-0.7V15.9z M155.3,7.9c0.1,0.1,0.1,0.2,0.2,0.4c0.1,0.3,0.1,0.6,0.1,0.9l0.1,0.1
				c0,0,0,0,0,0l-0.1,0c0,0-0.1,0.4-0.2,0.8c-0.1-0.5-0.2-1-0.2-1.5C155.2,8.4,155.2,8.1,155.3,7.9z M150.7,19.6
				c-0.2,0.2-0.4,0.3-0.6,0.5c0.1-0.2,0.3-0.4,0.5-0.7c0.2-0.2,0.5-0.5,0.9-0.8c0,0,0.1-0.1,0.1-0.1C151.2,19,150.9,19.4,150.7,19.6
				z"/>
		</g>
	</g>
	<g>
		<g>
			<path fill-rule="evenodd" clip-rule="evenodd" fill="#737373" d="M138,15v-2c0-2.2-1.8-4-4-4c-2.2,0-4,1.8-4,4v2h0
				c-1.1,0-2,1-2,2v5c0,1.2,0.9,2,2,2h8c1.1,0,2-0.9,2-2v-5C140,15.9,139.1,15,138,15z M132,13c0-1.2,0.9-2,2-2c1.1,0,2,0.8,2,2v2
				h-4V13z M138,21.3c0,0.4-0.4,0.7-0.8,0.7h-6.4c-0.4,0-0.8-0.3-0.8-0.7v-3.6c0-0.4,0.4-0.7,0.8-0.7l3.2,0c-0.6,0-1,0.4-1,1v1
				c0,0.6,0.4,1,1,1c0.6,0,1-0.4,1-1v-1c0-0.6-0.4-1-1-1h3.2c0.4,0,0.8,0.3,0.8,0.7V21.3z M118,8h6V2h10l0,6h2V0h-14v0.3l-6,6V24h11
				v-2h-9V8z M122,2.5V6h-3.6L122,2.5z"/>
		</g>
	</g>
	<g>
		<g>
			<path fill-rule="evenodd" clip-rule="evenodd" fill="#737373" d="M127,15.9c-0.8,0.2-1.5,0.5-2.2,0.8c0.2-0.3,0.4-0.7,0.6-1.1
				c0.4-0.8,0.7-1.5,0.9-2.1c0.2,0.4,0.5,0.8,0.8,1.2c0.1-0.4,0.6-0.6,1-0.8c-0.5-0.6-0.9-1.4-1.2-2.2c0-0.1,0-0.2,0.1-0.3
				c0.1-0.6,0-2.3,0.1-2.4l0,0c0-0.2,0.1-0.8,0.1-1.1c0-0.3-0.1-1-0.7-1l-0.2,0c-0.3,0-0.6,0.1-0.8,0.4c-0.1,0.1-0.2,0.2-0.2,0.4
				c-0.3,1,0,2.6,0.5,4.5l-0.1,0.3c-0.4,0.9-0.8,1.8-1.2,2.6l-0.1,0.1c-0.5,0.9-0.9,1.7-1.2,2.3l-0.1-0.1c0,0-0.6,0.3-0.8,0.4
				c-0.7,0.4-1.2,0.8-1.5,1.1c-0.4,0.3-0.6,0.6-0.6,1c0,0.2,0,0.5,0.2,0.7l0.3,0.2c0.2,0.1,0.3,0.1,0.5,0.1c0.5,0,0.9-0.2,1.4-0.8
				c0.5-0.5,1-1.3,1.7-2.5c0.9-0.2,1.8-0.5,2.8-0.7V15.9z M126.3,7.9c0.1,0.1,0.1,0.2,0.2,0.4c0.1,0.3,0.1,0.6,0.1,0.9l0.1,0.1
				c0,0,0,0,0,0l-0.1,0c0,0-0.1,0.4-0.2,0.8c-0.1-0.5-0.2-1-0.2-1.5C126.2,8.4,126.2,8.1,126.3,7.9z M121.7,19.6
				c-0.2,0.2-0.4,0.3-0.6,0.5c0.1-0.2,0.3-0.4,0.5-0.7c0.2-0.2,0.5-0.5,0.9-0.8c0,0,0.1-0.1,0.1-0.1C122.2,19,121.9,19.4,121.7,19.6
				z"/>
		</g>
	</g>
	<g>
		<g>
			<path fill-rule="evenodd" clip-rule="evenodd" fill="#FFFFFF" d="M109,15v-2c0-2.2-1.8-4-4-4c-2.2,0-4,1.8-4,4v2h0
				c-1.1,0-2,1-2,2v5c0,1.2,0.9,2,2,2h8c1.1,0,2-0.9,2-2v-5C111,15.9,110.1,15,109,15z M103,13c0-1.2,0.9-2,2-2c1.1,0,2,0.8,2,2v2
				h-4V13z M109,21.3c0,0.4-0.4,0.7-0.8,0.7h-6.4c-0.4,0-0.8-0.3-0.8-0.7v-3.6c0-0.4,0.4-0.7,0.8-0.7l3.2,0c-0.6,0-1,0.4-1,1v1
				c0,0.6,0.4,1,1,1c0.6,0,1-0.4,1-1v-1c0-0.6-0.4-1-1-1h3.2c0.4,0,0.8,0.3,0.8,0.7V21.3z M89,8h6V2h10l0,6h2V0H93v0.3l-6,6V24h11
				v-2h-9V8z M93,2.5V6h-3.6L93,2.5z"/>
		</g>
	</g>
	<g>
		<g>
			<path fill-rule="evenodd" clip-rule="evenodd" fill="#FFFFFF" d="M98,15.9c-0.8,0.2-1.5,0.5-2.2,0.8c0.2-0.3,0.4-0.7,0.6-1.1
				c0.4-0.8,0.7-1.5,0.9-2.1c0.2,0.4,0.5,0.8,0.8,1.2c0.1-0.4,0.6-0.6,1-0.8c-0.5-0.6-0.9-1.4-1.2-2.2c0-0.1,0-0.2,0.1-0.3
				c0.1-0.6,0-2.3,0.1-2.4l0,0C98,8.9,98.1,8.3,98,8c0-0.3-0.1-1-0.7-1l-0.2,0c-0.3,0-0.6,0.1-0.8,0.4c-0.1,0.1-0.2,0.2-0.2,0.4
				c-0.3,1,0,2.6,0.5,4.5l-0.1,0.3c-0.4,0.9-0.8,1.8-1.2,2.6l-0.1,0.1c-0.5,0.9-0.9,1.7-1.2,2.3l-0.1-0.1c0,0-0.6,0.3-0.8,0.4
				c-0.7,0.4-1.2,0.8-1.5,1.1c-0.4,0.3-0.6,0.6-0.6,1c0,0.2,0,0.5,0.2,0.7l0.3,0.2c0.2,0.1,0.3,0.1,0.5,0.1c0.5,0,0.9-0.2,1.4-0.8
				c0.5-0.5,1-1.3,1.7-2.5c0.9-0.2,1.8-0.5,2.8-0.7V15.9z M97.3,7.9c0.1,0.1,0.1,0.2,0.2,0.4c0.1,0.3,0.1,0.6,0.1,0.9l0.1,0.1
				c0,0,0,0,0,0l-0.1,0c0,0-0.1,0.4-0.2,0.8c-0.1-0.5-0.2-1-0.2-1.5C97.2,8.4,97.2,8.1,97.3,7.9z M92.7,19.6
				c-0.2,0.2-0.4,0.3-0.6,0.5c0.1-0.2,0.3-0.4,0.5-0.7c0.2-0.2,0.5-0.5,0.9-0.8c0,0,0.1-0.1,0.1-0.1C93.2,19,92.9,19.4,92.7,19.6z"
				/>
		</g>
	</g>
	<g>
		<g>
			<path fill-rule="evenodd" clip-rule="evenodd" fill="#39A6E6" d="M60,8h6V2h10l0,6h2V0H64v0.3l-6,6V24h11v-2h-9V8z M64,2.5V6
				h-3.6L64,2.5z M80,15v-2c0-2.2-1.8-4-4-4c-2.2,0-4,1.8-4,4v2h0c-1.1,0-2,1-2,2v5c0,1.2,0.9,2,2,2h8c1.1,0,2-0.9,2-2v-5
				C82,15.9,81.1,15,80,15z M74,13c0-1.2,0.9-2,2-2c1.1,0,2,0.8,2,2v2h-4V13z M80,21.3c0,0.4-0.4,0.7-0.8,0.7h-6.4
				c-0.4,0-0.8-0.3-0.8-0.7v-3.6c0-0.4,0.4-0.7,0.8-0.7l3.2,0c-0.6,0-1,0.4-1,1v1c0,0.6,0.4,1,1,1c0.6,0,1-0.4,1-1v-1
				c0-0.6-0.4-1-1-1h3.2c0.4,0,0.8,0.3,0.8,0.7V21.3z"/>
		</g>
	</g>
	<g>
		<g>
			<path fill-rule="evenodd" clip-rule="evenodd" fill="#E57377" d="M69,15.9c-0.8,0.2-1.5,0.5-2.2,0.8c0.2-0.3,0.4-0.7,0.6-1.1
				c0.4-0.8,0.7-1.5,0.9-2.1c0.2,0.4,0.5,0.8,0.8,1.2c0.1-0.4,0.6-0.6,1-0.8c-0.5-0.6-0.9-1.4-1.2-2.2c0-0.1,0-0.2,0.1-0.3
				c0.1-0.6,0-2.3,0.1-2.4l0,0c0-0.2,0.1-0.8,0.1-1.1c0-0.3-0.1-1-0.7-1l-0.2,0c-0.3,0-0.6,0.1-0.8,0.4c-0.1,0.1-0.2,0.2-0.2,0.4
				c-0.3,1,0,2.6,0.5,4.5l-0.1,0.3c-0.4,0.9-0.8,1.8-1.2,2.6l-0.1,0.1c-0.5,0.9-0.9,1.7-1.2,2.3l-0.1-0.1c0,0-0.6,0.3-0.8,0.4
				c-0.7,0.4-1.2,0.8-1.5,1.1c-0.4,0.3-0.6,0.6-0.6,1c0,0.2,0,0.5,0.2,0.7l0.3,0.2c0.2,0.1,0.3,0.1,0.5,0.1c0.5,0,0.9-0.2,1.4-0.8
				c0.5-0.5,1-1.3,1.7-2.5c0.9-0.2,1.8-0.5,2.8-0.7V15.9z M68.3,7.9c0.1,0.1,0.1,0.2,0.2,0.4c0.1,0.3,0.1,0.6,0.1,0.9l0.1,0.1
				c0,0,0,0,0,0l-0.1,0c0,0-0.1,0.4-0.2,0.8c-0.1-0.5-0.2-1-0.2-1.5C68.2,8.4,68.2,8.1,68.3,7.9z M63.7,19.6
				c-0.2,0.2-0.4,0.3-0.6,0.5c0.1-0.2,0.3-0.4,0.5-0.7c0.2-0.2,0.5-0.5,0.9-0.8c0,0,0.1-0.1,0.1-0.1C64.2,19,63.9,19.4,63.7,19.6z"
				/>
		</g>
	</g>
	<g>
		<g>
			<path fill-rule="evenodd" clip-rule="evenodd" fill="#D7D7D7" d="M51,15v-2c0-2.2-1.8-4-4-4c-2.2,0-4,1.8-4,4v2h0c-1.1,0-2,1-2,2
				v5c0,1.2,0.9,2,2,2h8c1.1,0,2-0.9,2-2v-5C53,15.9,52.1,15,51,15z M45,13c0-1.2,0.9-2,2-2c1.1,0,2,0.8,2,2v2h-4V13z M51,21.3
				c0,0.4-0.4,0.7-0.8,0.7h-6.4c-0.4,0-0.8-0.3-0.8-0.7v-3.6c0-0.4,0.4-0.7,0.8-0.7l3.2,0c-0.6,0-1,0.4-1,1v1c0,0.6,0.4,1,1,1
				c0.6,0,1-0.4,1-1v-1c0-0.6-0.4-1-1-1h3.2c0.4,0,0.8,0.3,0.8,0.7V21.3z M31,8h6V2h10l0,6h2V0H35v0.3l-6,6V24h11v-2h-9V8z M35,2.5
				V6h-3.6L35,2.5z"/>
		</g>
	</g>
	<g>
		<g>
			<path fill-rule="evenodd" clip-rule="evenodd" fill="#D7D7D7" d="M40,15.9c-0.8,0.2-1.5,0.5-2.2,0.8c0.2-0.3,0.4-0.7,0.6-1.1
				c0.4-0.8,0.7-1.5,0.9-2.1c0.2,0.4,0.5,0.8,0.8,1.2c0.1-0.4,0.6-0.6,1-0.8c-0.5-0.6-0.9-1.4-1.2-2.2c0-0.1,0-0.2,0.1-0.3
				c0.1-0.6,0-2.3,0.1-2.4l0,0C40,8.9,40.1,8.3,40,8c0-0.3-0.1-1-0.7-1l-0.2,0c-0.3,0-0.6,0.1-0.8,0.4c-0.1,0.1-0.2,0.2-0.2,0.4
				c-0.3,1,0,2.6,0.5,4.5l-0.1,0.3c-0.4,0.9-0.8,1.8-1.2,2.6l-0.1,0.1c-0.5,0.9-0.9,1.7-1.2,2.3l-0.1-0.1c0,0-0.6,0.3-0.8,0.4
				c-0.7,0.4-1.2,0.8-1.5,1.1c-0.4,0.3-0.6,0.6-0.6,1c0,0.2,0,0.5,0.2,0.7l0.3,0.2c0.2,0.1,0.3,0.1,0.5,0.1c0.5,0,0.9-0.2,1.4-0.8
				c0.5-0.5,1-1.3,1.7-2.5c0.9-0.2,1.8-0.5,2.8-0.7V15.9z M39.3,7.8c0.1,0.1,0.1,0.2,0.2,0.4c0.1,0.3,0.1,0.6,0.1,0.9l0.1,0.1
				c0,0,0,0,0,0l-0.1,0c0,0-0.1,0.4-0.2,0.8c-0.1-0.5-0.2-1-0.2-1.5C39.2,8.4,39.2,8.1,39.3,7.8z M34.7,19.6
				c-0.2,0.2-0.4,0.3-0.6,0.5c0.1-0.2,0.3-0.4,0.5-0.7c0.2-0.2,0.5-0.5,0.9-0.8c0,0,0.1-0.1,0.1-0.1C35.2,19,34.9,19.4,34.7,19.6z"
				/>
		</g>
	</g>
	<g>
		<g>
			<path fill-rule="evenodd" clip-rule="evenodd" fill="#0089D9" d="M22,15v-2c0-2.2-1.8-4-4-4c-2.2,0-4,1.8-4,4v2h0c-1.1,0-2,1-2,2
				v5c0,1.2,0.9,2,2,2h8c1.1,0,2-0.9,2-2v-5C24,15.9,23.1,15,22,15z M16,13c0-1.2,0.9-2,2-2c1.1,0,2,0.8,2,2v2h-4V13z M22,21.3
				c0,0.4-0.4,0.7-0.8,0.7h-6.4c-0.4,0-0.8-0.3-0.8-0.7v-3.6c0-0.4,0.4-0.7,0.8-0.7l3.2,0c-0.6,0-1,0.4-1,1v1c0,0.6,0.4,1,1,1
				c0.6,0,1-0.4,1-1v-1c0-0.6-0.4-1-1-1h3.2c0.4,0,0.8,0.3,0.8,0.7V21.3z M2,8h6V2h10l0,6h2V0H6v0.3l-6,6V24h11v-2H2L2,8z M6,2.5V6
				H2.4L6,2.5z"/>
		</g>
	</g>
	<g>
		<g>
			<path fill-rule="evenodd" clip-rule="evenodd" fill="#D6565A" d="M11,15.9c-0.8,0.2-1.5,0.5-2.2,0.8c0.2-0.3,0.4-0.7,0.6-1.1
				c0.4-0.8,0.7-1.5,0.9-2.1c0.2,0.4,0.5,0.8,0.8,1.2c0.1-0.4,0.6-0.6,1-0.8c-0.5-0.6-0.9-1.4-1.2-2.2c0-0.1,0-0.2,0.1-0.3
				c0.1-0.6,0-2.3,0.1-2.4l0,0C11,8.9,11.1,8.3,11,8c0-0.3-0.1-1-0.7-1l-0.2,0C9.8,7,9.5,7.1,9.4,7.4C9.3,7.5,9.2,7.6,9.1,7.7
				c-0.3,1,0,2.6,0.5,4.5l-0.1,0.3c-0.4,0.9-0.8,1.8-1.2,2.6l-0.1,0.1C7.8,16.2,7.4,17,7,17.7l-0.1-0.1c0,0-0.6,0.3-0.8,0.4
				c-0.7,0.4-1.2,0.8-1.5,1.1c-0.4,0.3-0.6,0.6-0.6,1c0,0.2,0,0.5,0.2,0.7l0.3,0.2C4.7,21,4.9,21,5.1,21c0.5,0,0.9-0.2,1.4-0.8
				c0.5-0.5,1-1.3,1.7-2.5C9.1,17.5,10,17.2,11,17V15.9z M10.3,7.9c0.1,0.1,0.1,0.2,0.2,0.4c0.1,0.3,0.1,0.6,0.1,0.9l0.1,0.1
				c0,0,0,0,0,0l-0.1,0c0,0-0.1,0.4-0.2,0.8c-0.1-0.5-0.2-1-0.2-1.5C10.2,8.4,10.2,8.1,10.3,7.9z M5.7,19.6
				c-0.2,0.2-0.4,0.3-0.6,0.5c0.1-0.2,0.3-0.4,0.5-0.7c0.2-0.2,0.5-0.5,0.9-0.8c0,0,0.1-0.1,0.1-0.1C6.2,19,5.9,19.4,5.7,19.6z"/>
		</g>
	</g>
</g>
<g id="Report_Blue_copy">
</g>
<g id="XML_Document">
</g>
<g id="Image_Document">
</g>
<g id="Changelog">
</g>
<g id="Export">
</g>
<g id="PDF">
</g>
<g id="Office_Excel">
</g>
<g id="Office_PowerPoint">
</g>
<g id="Office_Word">
</g>
<g id="Filter">
</g>
<g id="Dislike">
</g>
<g id="Like">
</g>
<g id="Favorite">
</g>
<g id="Preview">
</g>
<g id="Download">
</g>
<g id="Upload">
</g>
<g id="Open">
</g>
<g id="Web">
</g>
<g id="Unlocked">
</g>
<g id="Locked">
</g>
<g id="Phone">
</g>
<g id="Email">
</g>
<g id="Graphs">
</g>
<g id="Note">
</g>
<g id="Search">
</g>
<g id="Alarm">
</g>
<g id="Time">
</g>
<g id="Users">
</g>
<g id="User">
</g>
<g id="Refresh">
</g>
<g id="Home">
</g>
<g id="Report">
</g>
<g id="Paste">
</g>
<g id="Copy">
</g>
<g id="Cut">
</g>
<g id="Flag">
</g>
<g id="Redo">
</g>
<g id="Undo">
</g>
<g id="Zoom_Out">
</g>
<g id="Zoom_In">
</g>
<g id="Add_comment">
</g>
<g id="Unread_comment">
</g>
<g id="Comment">
</g>
<g id="New">
</g>
<g id="Attach">
</g>
<g id="Delete">
</g>
<g id="Save">
</g>
<g id="Edit">
</g>
<g id="Print">
</g>
<g id="Guides" display="none" opacity="0.2">
</g>
</svg>
