<svg xmlns="http://www.w3.org/2000/svg" width="140" height="24" viewBox="0 0 140 24"><defs><style>.cls-1{fill:#39a6e6;}.cls-1,.cls-2,.cls-3,.cls-4,.cls-5{fill-rule:evenodd;}.cls-2{fill:#fff;}.cls-3{fill:#737373;}.cls-4{fill:#d7d7d7;}.cls-5{fill:#0089d9;}</style></defs><title>24</title><g id="Edit"><path class="cls-1" d="M62.5,16l.71.71c.33.33.33,1.75.33,1.75s1.43,0,1.79.38L62.14,19.9l1.06-3.18L62.5,16,60,22l6-2.45L78.69,6.89,75.15,3.36ZM80,3.37,78.66,2c-1.09-1.09-2.8.66-2.8.66L79.4,6.18S81.09,4.43,80,3.37Z"/><path class="cls-2" d="M91.5,16l.71.71c.33.33.33,1.75.33,1.75s1.43,0,1.79.38L91.14,19.9l1.06-3.18L91.5,16,89,22l6-2.45L107.69,6.89l-3.54-3.54ZM109,3.37,107.66,2c-1.09-1.09-2.8.66-2.8.66l3.54,3.54S110.09,4.43,109,3.37Z"/><path class="cls-3" d="M120.5,16l.71.71c.33.33.33,1.75.33,1.75s1.43,0,1.79.38l-3.18,1.06,1.06-3.18L120.5,16,118,22l6-2.45L136.69,6.89l-3.54-3.54ZM138,3.37,136.66,2c-1.09-1.09-2.8.66-2.8.66l3.54,3.54S139.09,4.43,138,3.37Z"/><path class="cls-4" d="M33.5,16l.71.71c.33.33.33,1.75.33,1.75s1.43,0,1.79.38L33.14,19.9l1.06-3.18L33.5,16,31,22l6-2.45L49.69,6.89,46.15,3.36ZM51,3.37,49.66,2c-1.09-1.09-2.8.66-2.8.66L50.4,6.18S52.09,4.43,51,3.37Z"/><path class="cls-5" d="M4.5,16l.71.71c.33.33.33,1.75.33,1.75s1.43,0,1.79.38L4.14,19.9,5.2,16.72,4.5,16,2,22l6-2.45L20.69,6.89,17.15,3.36ZM22,3.37,20.66,2c-1.09-1.09-2.8.66-2.8.66L21.4,6.18S23.09,4.43,22,3.37Z"/></g></svg>