<svg xmlns="http://www.w3.org/2000/svg" width="140" height="24" viewBox="0 0 140 24"><defs><style>.cls-1{fill:#0089d9;}.cls-1,.cls-2,.cls-3,.cls-4,.cls-5{fill-rule:evenodd;}.cls-2{fill:#d7d7d7;}.cls-3{fill:#39a6e6;}.cls-4{fill:#fff;}.cls-5{fill:#737373;}</style></defs><title>24</title><g id="Filter"><path class="cls-1" d="M0,1V4c0,7,9,7,9,12v8l6-3V16c0-5,9-5,9-12V1ZM22,4.41c0,5-9,5.59-9,11.59v3.5l-2,1.22S11,18,11,16c0-6-9-6.47-9-11.47V3H22Z"/><path class="cls-2" d="M29,1V4c0,7,9,7,9,12v8l6-3V16c0-5,9-5,9-12V1ZM51,4.41c0,5-9,5.59-9,11.59v3.5l-2,1.22S40,18,40,16c0-6-9-6.47-9-11.47V3H51Z"/><path class="cls-3" d="M58,1V4c0,7,9,7,9,12v8l6-3V16c0-5,9-5,9-12V1ZM80,4.41c0,5-9,5.59-9,11.59v3.5l-2,1.22S69,18,69,16c0-6-9-6.47-9-11.47V3H80Z"/><path class="cls-4" d="M87,1V4c0,7,9,7,9,12v8l6-3V16c0-5,9-5,9-12V1Zm22,3.41c0,5-9,5.59-9,11.59v3.5l-2,1.22S98,18,98,16c0-6-9-6.47-9-11.47V3h20Z"/><path class="cls-5" d="M116,1V4c0,7,9,7,9,12v8l6-3V16c0-5,9-5,9-12V1Zm22,3.41c0,5-9,5.59-9,11.59v3.5l-2,1.22S127,18,127,16c0-6-9-6.47-9-11.47V3h20Z"/></g></svg>