<svg xmlns="http://www.w3.org/2000/svg" width="169" height="24" viewBox="0 0 169 24"><defs><style>.cls-1{fill:#39a6e6;}.cls-1,.cls-2,.cls-3,.cls-4,.cls-5{fill-rule:evenodd;}.cls-2{fill:#fff;}.cls-3{fill:#737373;}.cls-4{fill:#d7d7d7;}.cls-5{fill:#0089d9;}</style></defs><title>24</title><g id="Favorite"><path class="cls-1" d="M81.58,10.91a1.25,1.25,0,0,0-.71-2.17c-.12,0-6.86-.58-7-.65S71.2,1.85,71.15,1.74a1.27,1.27,0,0,0-2.3,0c0,.11-2.67,6.29-2.77,6.36s-6.83.64-7,.65a1.25,1.25,0,0,0-.71,2.17c.09.07,5.2,4.47,5.24,4.58s-1.5,6.64-1.52,6.76A1.26,1.26,0,0,0,64,23.59c.1-.06,5.89-3.53,6-3.53s5.9,3.46,6,3.53a1.26,1.26,0,0,0,1.86-1.34c0-.11-1.56-6.64-1.52-6.76S81.5,11,81.58,10.91Zm-5.5,10.81c-5.49-3.33-5.68-3.33-6.09-3.33s-.6,0-6.09,3.33c1.47-6.26,1.47-6.28,1.31-6.78s-.18-.55-5-4.69c6.36-.5,6.56-.64,6.87-.86s.49-.51,3-6.52v.28c2.49,5.91,2.58,6,3,6.25s.5.35,6.86.85C75,14.4,74.91,14.54,74.78,15S74.62,15.44,76.09,21.72Zm-13-11.09A25.87,25.87,0,0,0,66.18,14c.53.36,1.25-.67.81-1.18A34.8,34.8,0,0,0,63.13,10.63Z"/><path class="cls-2" d="M110.58,10.91a1.25,1.25,0,0,0-.71-2.17c-.12,0-6.86-.58-7-.65s-2.73-6.25-2.77-6.36a1.27,1.27,0,0,0-2.3,0c0,.11-2.67,6.29-2.77,6.36s-6.83.64-7,.65a1.25,1.25,0,0,0-.71,2.17c.09.07,5.2,4.47,5.24,4.58s-1.5,6.64-1.52,6.76A1.26,1.26,0,0,0,93,23.59c.1-.06,5.89-3.53,6-3.53s5.9,3.46,6,3.53a1.26,1.26,0,0,0,1.86-1.34c0-.11-1.56-6.64-1.52-6.76S110.5,11,110.58,10.91Zm-5.5,10.81c-5.49-3.33-5.68-3.33-6.09-3.33s-.6,0-6.09,3.33c1.47-6.26,1.47-6.28,1.31-6.78s-.18-.55-5-4.69c6.36-.5,6.56-.64,6.87-.86s.49-.51,3-6.52v.28c2.49,5.91,2.58,6,3,6.25s.5.35,6.86.85c-4.87,4.14-4.91,4.29-5.05,4.7S103.62,15.44,105.09,21.72Zm-13-11.09A25.87,25.87,0,0,0,95.18,14c.53.36,1.25-.67.81-1.18A34.8,34.8,0,0,0,92.13,10.63Z"/><path class="cls-3" d="M139.58,10.91a1.25,1.25,0,0,0-.71-2.17c-.12,0-6.86-.58-7-.65s-2.73-6.25-2.77-6.36a1.27,1.27,0,0,0-2.3,0c0,.11-2.67,6.29-2.77,6.36s-6.83.64-7,.65a1.25,1.25,0,0,0-.71,2.17c.09.07,5.2,4.47,5.24,4.58s-1.5,6.64-1.52,6.76A1.26,1.26,0,0,0,122,23.59c.1-.06,5.89-3.53,6-3.53s5.9,3.46,6,3.53a1.26,1.26,0,0,0,1.86-1.34c0-.11-1.56-6.64-1.52-6.76S139.5,11,139.58,10.91Zm-5.5,10.81c-5.49-3.33-5.68-3.33-6.09-3.33s-.6,0-6.09,3.33c1.47-6.26,1.47-6.28,1.31-6.78s-.18-.55-5-4.69c6.36-.5,6.56-.64,6.87-.86s.49-.51,3-6.52v.28c2.49,5.91,2.58,6,3,6.25s.5.35,6.86.85c-4.87,4.14-4.91,4.29-5.05,4.7S132.62,15.44,134.09,21.72Zm-13-11.09A25.86,25.86,0,0,0,124.18,14c.53.36,1.25-.67.81-1.18A34.8,34.8,0,0,0,121.13,10.63Z"/><path class="cls-4" d="M52.58,10.91a1.25,1.25,0,0,0-.71-2.17c-.12,0-6.86-.58-7-.65S42.2,1.85,42.15,1.74a1.27,1.27,0,0,0-2.3,0c0,.11-2.67,6.29-2.77,6.36s-6.83.64-7,.65a1.25,1.25,0,0,0-.71,2.17c.09.07,5.2,4.47,5.24,4.58s-1.5,6.64-1.52,6.76A1.26,1.26,0,0,0,35,23.59c.1-.06,5.89-3.53,6-3.53s5.9,3.46,6,3.53a1.26,1.26,0,0,0,1.86-1.34c0-.11-1.56-6.64-1.52-6.76S52.5,11,52.58,10.91Zm-5.5,10.81c-5.49-3.33-5.68-3.33-6.09-3.33s-.6,0-6.09,3.33c1.47-6.26,1.47-6.28,1.31-6.78s-.18-.55-5-4.69c6.36-.5,6.56-.64,6.87-.86s.49-.51,3-6.52v.28c2.49,5.91,2.58,6,3,6.25s.5.35,6.86.85C46,14.4,45.91,14.54,45.78,15S45.62,15.44,47.09,21.72Zm-13-11.09A25.87,25.87,0,0,0,37.11,14c.53.36,1.25-.67.81-1.18A34.8,34.8,0,0,0,34.06,10.63Z"/><path class="cls-5" d="M23.58,10.91a1.25,1.25,0,0,0-.71-2.17c-.12,0-6.86-.58-7-.65S13.2,1.85,13.15,1.74a1.27,1.27,0,0,0-2.3,0c0,.11-2.67,6.29-2.77,6.36s-6.83.64-7,.65a1.25,1.25,0,0,0-.71,2.17c.09.07,5.2,4.47,5.24,4.58s-1.5,6.64-1.52,6.76A1.26,1.26,0,0,0,6,23.59c.1-.06,5.89-3.53,6-3.53s5.9,3.46,6,3.53a1.26,1.26,0,0,0,1.86-1.34c0-.11-1.56-6.64-1.52-6.76S23.5,11,23.58,10.91Zm-5.5,10.81c-5.49-3.33-5.68-3.33-6.09-3.33s-.6,0-6.09,3.33c1.47-6.26,1.47-6.28,1.31-6.78s-.18-.55-5-4.69C8.54,9.76,8.73,9.62,9,9.4s.49-.51,3-6.52v.28c2.49,5.91,2.58,6,3,6.25s.5.35,6.86.85C17,14.4,16.91,14.54,16.78,15S16.62,15.44,18.09,21.72ZM5,10.53a25.86,25.86,0,0,0,3.05,3.39c.53.36,1.25-.67.81-1.18A34.79,34.79,0,0,0,5,10.53Z"/><path class="cls-5" d="M168.58,10.91a1.25,1.25,0,0,0-.71-2.17c-.12,0-6.86-.58-7-.65s-2.73-6.25-2.77-6.36a1.27,1.27,0,0,0-2.3,0c0,.11-2.67,6.29-2.77,6.36s-6.83.64-7,.65a1.25,1.25,0,0,0-.71,2.17c.09.07,5.2,4.47,5.24,4.58s-1.5,6.64-1.52,6.76A1.26,1.26,0,0,0,151,23.59c.1-.06,5.89-3.53,6-3.53s5.9,3.46,6,3.53a1.26,1.26,0,0,0,1.86-1.34c0-.11-1.56-6.64-1.52-6.76S168.5,11,168.58,10.91ZM152.18,14a25.86,25.86,0,0,1-3.05-3.39A34.8,34.8,0,0,1,153,12.84C153.42,13.35,152.71,14.38,152.18,14Z"/></g></svg>