<?xml version="1.0" encoding="utf-8"?>
<!-- Generator: Adobe Illustrator 20.1.0, SVG Export Plug-In . SVG Version: 6.00 Build 0)  -->
<svg version="1.1" id="filter" xmlns="http://www.w3.org/2000/svg" xmlns:xlink="http://www.w3.org/1999/xlink" x="0px" y="0px"
	 width="82px" height="24px" viewBox="0 0 82 24" style="enable-background:new 0 0 82 24;" xml:space="preserve">
<style type="text/css">
	.st0{fill-rule:evenodd;clip-rule:evenodd;fill:#39A6E6;}
	.st1{fill-rule:evenodd;clip-rule:evenodd;fill:#C8C8C8;}
	.st2{fill-rule:evenodd;clip-rule:evenodd;fill:#0089D9;}
</style>
<path id="Hover" class="st0" d="M60,7V2.5C60,1.7,60.7,1,61.5,1S63,1.7,63,2.5V7H60z M60,14v7.5c0,0.8,0.7,1.5,1.5,1.5
	s1.5-0.7,1.5-1.5V14H60z M79,5V2.5C79,1.7,78.3,1,77.5,1C76.7,1,76,1.7,76,2.5V5H79z M76,12v9.5c0,0.8,0.7,1.5,1.5,1.5
	c0.8,0,1.5-0.7,1.5-1.5V12H76z M71,12V2.5C71,1.7,70.3,1,69.5,1S68,1.7,68,2.5V12H71z M68,19v2.5c0,0.8,0.7,1.5,1.5,1.5
	s1.5-0.7,1.5-1.5V19H68z M65,9v3c0,0.6-0.4,1-1,1h-5c-0.6,0-1-0.4-1-1V9c0-0.6,0.4-1,1-1h5C64.6,8,65,8.4,65,9z M60,9h-1v3h1V9z
	 M62,9h-1v3h1V9z M64,9h-1v3h1V9z M73,14v3c0,0.6-0.4,1-1,1h-5c-0.6,0-1-0.4-1-1v-3c0-0.6,0.4-1,1-1h5C72.6,13,73,13.4,73,14z
	 M68,14h-1v3h1V14z M70,14h-1v3h1V14z M72,14h-1v3h1V14z M81,7v3c0,0.6-0.4,1-1,1h-5c-0.6,0-1-0.4-1-1V7c0-0.6,0.4-1,1-1h5
	C80.6,6,81,6.4,81,7z M76,7h-1v3h1V7z M78,7h-1v3h1V7z M80,7h-1v3h1V7z"/>
<path id="Disabled" class="st1" d="M31,7V2.5C31,1.7,31.7,1,32.5,1S34,1.7,34,2.5V7H31z M31,14v7.5c0,0.8,0.7,1.5,1.5,1.5
	s1.5-0.7,1.5-1.5V14H31z M50,5V2.5C50,1.7,49.3,1,48.5,1C47.7,1,47,1.7,47,2.5V5H50z M47,12v9.5c0,0.8,0.7,1.5,1.5,1.5
	c0.8,0,1.5-0.7,1.5-1.5V12H47z M42,12V2.5C42,1.7,41.3,1,40.5,1S39,1.7,39,2.5V12H42z M39,19v2.5c0,0.8,0.7,1.5,1.5,1.5
	s1.5-0.7,1.5-1.5V19H39z M36,9v3c0,0.6-0.4,1-1,1h-5c-0.6,0-1-0.4-1-1V9c0-0.6,0.4-1,1-1h5C35.6,8,36,8.4,36,9z M31,9h-1v3h1V9z
	 M33,9h-1v3h1V9z M35,9h-1v3h1V9z M44,14v3c0,0.6-0.4,1-1,1h-5c-0.6,0-1-0.4-1-1v-3c0-0.6,0.4-1,1-1h5C43.6,13,44,13.4,44,14z
	 M39,14h-1v3h1V14z M41,14h-1v3h1V14z M43,14h-1v3h1V14z M52,7v3c0,0.6-0.4,1-1,1h-5c-0.6,0-1-0.4-1-1V7c0-0.6,0.4-1,1-1h5
	C51.6,6,52,6.4,52,7z M47,7h-1v3h1V7z M49,7h-1v3h1V7z M51,7h-1v3h1V7z"/>
<path id="Normal" class="st2" d="M2,7V2.5C2,1.7,2.7,1,3.5,1S5,1.7,5,2.5V7H2z M2,14v7.5C2,22.3,2.7,23,3.5,23S5,22.3,5,21.5V14H2z
	 M21,5V2.5C21,1.7,20.3,1,19.5,1C18.7,1,18,1.7,18,2.5V5H21z M18,12v9.5c0,0.8,0.7,1.5,1.5,1.5c0.8,0,1.5-0.7,1.5-1.5V12H18z M13,12
	V2.5C13,1.7,12.3,1,11.5,1S10,1.7,10,2.5V12H13z M10,19v2.5c0,0.8,0.7,1.5,1.5,1.5s1.5-0.7,1.5-1.5V19H10z M7,9v3c0,0.6-0.4,1-1,1H1
	c-0.6,0-1-0.4-1-1V9c0-0.6,0.4-1,1-1h5C6.6,8,7,8.4,7,9z M2,9H1v3h1V9z M4,9H3v3h1V9z M6,9H5v3h1V9z M15,14v3c0,0.6-0.4,1-1,1H9
	c-0.6,0-1-0.4-1-1v-3c0-0.6,0.4-1,1-1h5C14.6,13,15,13.4,15,14z M10,14H9v3h1V14z M12,14h-1v3h1V14z M14,14h-1v3h1V14z M23,7v3
	c0,0.6-0.4,1-1,1h-5c-0.6,0-1-0.4-1-1V7c0-0.6,0.4-1,1-1h5C22.6,6,23,6.4,23,7z M18,7h-1v3h1V7z M20,7h-1v3h1V7z M22,7h-1v3h1V7z"/>
</svg>
