<svg xmlns="http://www.w3.org/2000/svg" width="140" height="24" viewBox="0 0 140 24"><defs><style>.cls-1{fill:#0089d9;}.cls-2{fill:#d7d7d7;}.cls-3{fill:#39a6e6;}.cls-4{fill:#fff;}.cls-5{fill:#737373;}</style></defs><title>24</title><g id="Folder_Building" data-name="Folder Building"><path class="cls-1" d="M21,3H11.5S10,0,8,0H3A3.23,3.23,0,0,0,0,3V17a3.23,3.23,0,0,0,3,3H8V18H3a1.08,1.08,0,0,1-1-1V5H21a1.08,1.08,0,0,1,1,1V17a1.08,1.08,0,0,1-1,1v2a3.23,3.23,0,0,0,3-3V6A3.23,3.23,0,0,0,21,3ZM2,4V3A1.08,1.08,0,0,1,3,2H8c1,0,2,2,2,2Zm16,8V10H15V8H14v2H11v2H9V24H20V12S18,12,18,12Zm-3,2h1v1H15Zm0,2h1v1H15Zm0,2h1v1H15Zm-2-4h1v1H13Zm0,2h1v1H13Zm0,2h1v1H13Zm-2-4h1v1H11Zm0,2h1v1H11Zm0,2h1v1H11Zm7,4H11V21h7Zm0-3H17V18h1Zm0-2H17V16h1Zm0-2H17V14h1Z"/><path class="cls-2" d="M50,3H40.5S39,0,37,0H32a3.23,3.23,0,0,0-3,3V17a3.23,3.23,0,0,0,3,3h5V18H32a1.08,1.08,0,0,1-1-1V5H50a1.08,1.08,0,0,1,1,1V17a1.08,1.08,0,0,1-1,1v2a3.23,3.23,0,0,0,3-3V6A3.23,3.23,0,0,0,50,3ZM31,4V3a1.08,1.08,0,0,1,1-1h5c1,0,2,2,2,2Zm16,8V10H44V8H43v2H40v2H38V24H49V12S47,12,47,12Zm-3,2h1v1H44Zm0,2h1v1H44Zm0,2h1v1H44Zm-2-4h1v1H42Zm0,2h1v1H42Zm0,2h1v1H42Zm-2-4h1v1H40Zm0,2h1v1H40Zm0,2h1v1H40Zm7,4H40V21h7Zm0-3H46V18h1Zm0-2H46V16h1Zm0-2H46V14h1Z"/><path class="cls-3" d="M79,3H69.5S68,0,66,0H61a3.23,3.23,0,0,0-3,3V17a3.23,3.23,0,0,0,3,3h5V18H61a1.08,1.08,0,0,1-1-1V5H79a1.08,1.08,0,0,1,1,1V17a1.08,1.08,0,0,1-1,1v2a3.23,3.23,0,0,0,3-3V6A3.23,3.23,0,0,0,79,3ZM60,4V3a1.08,1.08,0,0,1,1-1h5c1,0,2,2,2,2Zm16,8V10H73V8H72v2H69v2H67V24H78V12S76,12,76,12Zm-3,2h1v1H73Zm0,2h1v1H73Zm0,2h1v1H73Zm-2-4h1v1H71Zm0,2h1v1H71Zm0,2h1v1H71Zm-2-4h1v1H69Zm0,2h1v1H69Zm0,2h1v1H69Zm7,4H69V21h7Zm0-3H75V18h1Zm0-2H75V16h1Zm0-2H75V14h1Z"/><path class="cls-4" d="M108,3H98.5S97,0,95,0H90a3.23,3.23,0,0,0-3,3V17a3.23,3.23,0,0,0,3,3h5V18H90a1.08,1.08,0,0,1-1-1V5h19a1.08,1.08,0,0,1,1,1V17a1.08,1.08,0,0,1-1,1v2a3.23,3.23,0,0,0,3-3V6A3.23,3.23,0,0,0,108,3ZM89,4V3a1.08,1.08,0,0,1,1-1h5c1,0,2,2,2,2Zm16,8V10h-3V8h-1v2H98v2H96V24h11V12S105,12,105,12Zm-3,2h1v1h-1Zm0,2h1v1h-1Zm0,2h1v1h-1Zm-2-4h1v1h-1Zm0,2h1v1h-1Zm0,2h1v1h-1Zm-2-4h1v1H98Zm0,2h1v1H98Zm0,2h1v1H98Zm7,4H98V21h7Zm0-3h-1V18h1Zm0-2h-1V16h1Zm0-2h-1V14h1Z"/><path class="cls-5" d="M137,3h-9.5S126,0,124,0h-5a3.23,3.23,0,0,0-3,3V17a3.23,3.23,0,0,0,3,3h5V18h-5a1.08,1.08,0,0,1-1-1V5h19a1.08,1.08,0,0,1,1,1V17a1.08,1.08,0,0,1-1,1v2a3.23,3.23,0,0,0,3-3V6A3.23,3.23,0,0,0,137,3ZM118,4V3a1.08,1.08,0,0,1,1-1h5c1,0,2,2,2,2Zm16,8V10h-3V8h-1v2h-3v2h-2V24h11V12S134,12,134,12Zm-3,2h1v1h-1Zm0,2h1v1h-1Zm0,2h1v1h-1Zm-2-4h1v1h-1Zm0,2h1v1h-1Zm0,2h1v1h-1Zm-2-4h1v1h-1Zm0,2h1v1h-1Zm0,2h1v1h-1Zm7,4h-7V21h7Zm0-3h-1V18h1Zm0-2h-1V16h1Zm0-2h-1V14h1Z"/></g></svg>