<svg xmlns="http://www.w3.org/2000/svg" width="140" height="24" viewBox="0 0 140 24"><defs><style>.cls-1{fill:#ffa526;}.cls-1,.cls-2,.cls-3,.cls-4,.cls-5,.cls-6,.cls-7,.cls-8{fill-rule:evenodd;}.cls-2{fill:#0089d9;}.cls-3{fill:#8ec928;}.cls-4{fill:#fff;}.cls-5{fill:#737373;}.cls-6{fill:#ff8b00;}.cls-7{fill:#d7d7d7;}.cls-8{fill:#68a611;}</style></defs><title>24</title><g id="Graphs"><path class="cls-1" d="M58,13a11,11,0,1,0,22,0Zm11,9c-6,0-8.56-5.31-8.56-7H77.63C77.63,16.67,75,22,69,22Z"/><path class="cls-2" d="M71,0c0,2,0,11,0,11H82A11.07,11.07,0,0,0,71,0Zm2,2.43C76,2.42,79.67,6,79.67,9H73Z"/><path class="cls-3" d="M58,12H69s0-9,0-11A11.06,11.06,0,0,0,58,12Zm9-2H60.31C60.31,7,64,3.33,67,3.33Z"/><path class="cls-4" d="M87,13a11,11,0,1,0,22,0Zm11,9c-6,0-8.56-5.31-8.56-7h17.19C106.63,16.67,104,22,98,22Z"/><path class="cls-4" d="M100,0c0,2,0,11,0,11h11A11.07,11.07,0,0,0,100,0Zm2,2.43c3,0,6.67,3.58,6.67,6.58H102Z"/><path class="cls-4" d="M87,12H98s0-9,0-11A11.06,11.06,0,0,0,87,12Zm9-2H89.31C89.31,7,93,3.33,96,3.33Z"/><path class="cls-5" d="M116,13a11,11,0,1,0,22,0Zm11,9c-6,0-8.56-5.31-8.56-7h17.19C135.61,16.67,133,22,127,22Z"/><path class="cls-5" d="M129,0c0,2,0,11,0,11h11A11.07,11.07,0,0,0,129,0Zm2,2.43c3,0,6.66,3.58,6.66,6.58H131Z"/><path class="cls-5" d="M116,12h11s0-9,0-11A11.06,11.06,0,0,0,116,12Zm9-2h-6.7c0-3,3.7-6.67,6.7-6.67Z"/><path class="cls-6" d="M0,13a11,11,0,1,0,22,0Zm11,9c-6,0-8.56-5.31-8.56-7H19.63C19.63,16.67,17,22,11,22Z"/><path class="cls-7" d="M40,24A11,11,0,0,0,51,13H29A11,11,0,0,0,40,24Zm0-2c-6,0-8.56-5.31-8.56-7H48.63C48.63,16.67,46,22,40,22ZM53,11A11,11,0,0,0,42,0c0,2,0,11,0,11ZM50.66,9H44V2.42C47,2.42,50.66,6,50.66,9ZM40,1A11,11,0,0,0,29,12H40S40,3,40,1Zm-2,9H31.32C31.32,7,35,3.33,38,3.33Z"/><path class="cls-2" d="M13,0c0,2,0,11,0,11H24A11.07,11.07,0,0,0,13,0Zm2,2.43C18,2.42,21.66,6,21.66,9H15Z"/><path class="cls-8" d="M0,12H11s0-9,0-11A11.06,11.06,0,0,0,0,12Zm9-2H2.31C2.31,7,6,3.33,9,3.33Z"/></g></svg>