<svg xmlns="http://www.w3.org/2000/svg" width="82" height="24"><g><path fill="#FFA526" fill-rule="evenodd" d="M58 13c0 6.1 4.9 11 11 11s11-4.9 11-11H58zm11 9c-6 0-8.6-5.3-8.6-7h17.2c0 1.7-2.6 7-8.6 7z" clip-rule="evenodd"/><path fill="#0089D9" fill-rule="evenodd" d="M71 0c0 2 0 11 0 11s9.2 0 11 0c0-6-4.9-11-11-11zm2 2.4c3 0 6.7 3.6 6.7 6.6C78.3 9 75 9 73 9c0-2 0-5.6 0-6.6z" clip-rule="evenodd"/><path fill="#8EC928" fill-rule="evenodd" d="M58 12c1.8 0 11 0 11 0s0-9 0-11c-6.1 0-11 5-11 11zm9-2c-2 0-5.3 0-6.7 0 0-3 3.7-6.7 6.7-6.7 0 1 0 4.7 0 6.7z" clip-rule="evenodd"/><path fill="#FF8B00" fill-rule="evenodd" d="M0 13c0 6.1 4.9 11 11 11s11-4.9 11-11H0zm11 9c-6 0-8.6-5.3-8.6-7h17.2c0 1.7-2.6 7-8.6 7z" clip-rule="evenodd"/><path fill="#C8C8C8" fill-rule="evenodd" d="M53 11c0-6.1-4.9-11-11-11 0 2 0 11 0 11s9.2 0 11 0zm-2.3-2c-1.4 0-4.4 0-6.7 0 0-2 0-5.6 0-6.6 3 0 6.7 3.6 6.7 6.6zM40 24c6.1 0 11-4.9 11-11-1.8 0-20.2 0-22 0 0 6.1 4.9 11 11 11zm0-2c-6 0-8.6-5.3-8.6-7 2.3 0 15.8 0 17.2 0 0 1.7-2.6 7-8.6 7zm0-21c-6.1 0-11 4.9-11 11 1.8 0 11 0 11 0s0-9 0-11zm-2 9c-2.3 0-5.3 0-6.7 0 0-3 3.7-6.7 6.7-6.7 0 1 0 4.7 0 6.7z" clip-rule="evenodd"/><path fill="#0089D9" fill-rule="evenodd" d="M13 0c0 2 0 11 0 11s9.2 0 11 0c0-6-4.9-11-11-11zm2 2.4c3 0 6.7 3.6 6.7 6.6-1.4 0-4.4 0-6.7 0 0-2 0-5.6 0-6.6z" clip-rule="evenodd"/><path fill="#68A611" fill-rule="evenodd" d="M0 12c1.8 0 11 0 11 0s0-9 0-11C4.9 1 0 6 0 12zm9-2c-2.3 0-5.3 0-6.7 0C2.3 7 6 3.3 9 3.3 9 4.3 9 8 9 10z" clip-rule="evenodd"/></g></svg>