<svg xmlns="http://www.w3.org/2000/svg" width="169" height="24" viewBox="0 0 169 24"><defs><style>.cls-1{fill:#0089d9;}.cls-2{fill:#fff;}.cls-3{fill:#39a6e6;}.cls-4{fill:#737373;}.cls-5{fill:#d7d7d7;}</style></defs><title>24</title><g id="Help"><path class="cls-1" d="M157,0a12,12,0,1,0,12,12A12,12,0,0,0,157,0Z"/><rect class="cls-2" x="156.07" y="15.98" width="1.84" height="2"/><path class="cls-2" d="M157,6c-2.29.09-3.47,2-3.67,4H155s.15-2.32,2-2.38A2.09,2.09,0,0,1,158,11.46a4.56,4.56,0,0,0-2,3.52h1.72A2.9,2.9,0,0,1,159,12.68c1-.85,1.7-1.46,1.69-3.11A3.58,3.58,0,0,0,157,6Z"/><path class="cls-3" d="M70,0A12,12,0,1,0,82,12,12,12,0,0,0,70,0Zm0,22A10,10,0,1,1,80,12,10,10,0,0,1,70,22Z"/><rect class="cls-3" x="69.07" y="15.98" width="1.84" height="2"/><path class="cls-3" d="M70,6c-2.29.09-3.47,2-3.67,4H68s.15-2.32,2-2.38A2.09,2.09,0,0,1,71,11.46a4.56,4.56,0,0,0-2,3.52h1.72A2.9,2.9,0,0,1,72,12.68c1-.85,1.7-1.46,1.69-3.11A3.58,3.58,0,0,0,70,6Z"/><path class="cls-2" d="M99,0a12,12,0,1,0,12,12A12,12,0,0,0,99,0Zm0,22a10,10,0,1,1,10-10A10,10,0,0,1,99,22Z"/><rect class="cls-2" x="98.07" y="15.98" width="1.84" height="2"/><path class="cls-2" d="M99,6c-2.29.09-3.47,2-3.67,4H97s.15-2.32,2-2.38A2.09,2.09,0,0,1,100,11.46a4.56,4.56,0,0,0-2,3.52h1.72A2.9,2.9,0,0,1,101,12.68c1-.85,1.7-1.46,1.69-3.11A3.58,3.58,0,0,0,99,6Z"/><path class="cls-4" d="M128,0a12,12,0,1,0,12,12A12,12,0,0,0,128,0Zm0,22a10,10,0,1,1,10-10A10,10,0,0,1,128,22Z"/><rect class="cls-4" x="127.07" y="15.98" width="1.84" height="2"/><path class="cls-4" d="M128,6c-2.29.09-3.47,2-3.67,4H126s.15-2.32,2-2.38A2.09,2.09,0,0,1,129,11.46a4.56,4.56,0,0,0-2,3.52h1.72A2.9,2.9,0,0,1,130,12.68c1-.85,1.7-1.46,1.69-3.11A3.58,3.58,0,0,0,128,6Z"/><path class="cls-5" d="M41,0A12,12,0,1,0,53,12,12,12,0,0,0,41,0Zm0,22A10,10,0,1,1,51,12,10,10,0,0,1,41,22Z"/><rect class="cls-5" x="40.07" y="15.98" width="1.84" height="2"/><path class="cls-5" d="M41,6c-2.29.09-3.47,2-3.67,4H39s.15-2.32,2-2.38A2.09,2.09,0,0,1,42,11.46a4.56,4.56,0,0,0-2,3.52h1.72A2.9,2.9,0,0,1,43,12.68c1-.85,1.7-1.46,1.69-3.11A3.58,3.58,0,0,0,41,6Z"/><path class="cls-1" d="M12,0A12,12,0,1,0,24,12,12,12,0,0,0,12,0Zm0,22A10,10,0,1,1,22,12,10,10,0,0,1,12,22Z"/><rect class="cls-1" x="11.07" y="15.98" width="1.84" height="2"/><path class="cls-1" d="M12,6C9.7,6.1,8.52,8,8.31,10H10s.15-2.32,2-2.38A2.09,2.09,0,0,1,13,11.46a4.56,4.56,0,0,0-2,3.52h1.72A2.9,2.9,0,0,1,14,12.68c1-.85,1.7-1.46,1.69-3.11A3.58,3.58,0,0,0,12,6Z"/></g></svg>