<svg xmlns="http://www.w3.org/2000/svg" width="140" height="24" viewBox="0 0 140 24"><defs><style>.cls-1{fill:#0089d9;}.cls-2{fill:#d7d7d7;}.cls-3{fill:#39a6e6;}.cls-4{fill:#fff;}.cls-5{fill:#737373;}</style></defs><title>24</title><g id="Image_Document" data-name="Image Document"><path class="cls-1" d="M22,5.92,16,0H2V24H22ZM20,22H4V2H14V8h6ZM16,6V2l4,4Zm.48,7a1.5,1.5,0,1,0-1.5-1.5A1.5,1.5,0,0,0,16.5,13Zm-4,2a7.74,7.74,0,0,1,1.64,3.9c-.92-1.58-4.15-5.85-6.23-5.85-.78,0-1.42,1-1.93,2.17V20H18C18,15.67,14.66,13.58,12.52,15Z"/><path class="cls-2" d="M51,5.92,45,0H31V24H51ZM49,22H33V2H43V8h6ZM45,6V2l4,4Zm.48,7a1.5,1.5,0,1,0-1.5-1.5A1.5,1.5,0,0,0,45.5,13Zm-4,2a7.74,7.74,0,0,1,1.64,3.9c-.92-1.58-4.15-5.85-6.23-5.85-.78,0-1.42,1-1.93,2.17V20H47C47,15.67,43.66,13.58,41.52,15Z"/><path class="cls-3" d="M80,5.92,74,0H60V24H80ZM78,22H62V2H72V8h6ZM74,6V2l4,4Zm.48,7a1.5,1.5,0,1,0-1.5-1.5A1.5,1.5,0,0,0,74.5,13Zm-4,2a7.74,7.74,0,0,1,1.64,3.9c-.92-1.58-4.15-5.85-6.23-5.85-.78,0-1.42,1-1.93,2.17V20H76C76,15.67,72.66,13.58,70.52,15Z"/><path class="cls-4" d="M109,5.92l-6-5.92H89V24h20Zm-2,16.08h-16V2h10V8h6Zm-4-16V2l4,4Zm.48,7a1.5,1.5,0,1,0-1.5-1.5A1.5,1.5,0,0,0,103.54,13Zm-4,2a7.74,7.74,0,0,1,1.64,3.9c-.92-1.58-4.15-5.85-6.23-5.85-.78,0-1.42,1-1.93,2.17V20h12C105,15.67,101.71,13.58,99.56,15Z"/><path class="cls-5" d="M138,5.92,132,0H118V24h20ZM136,22H120V2h10V8h6ZM132,6V2l4,4Zm.48,7a1.5,1.5,0,1,0-1.5-1.5A1.5,1.5,0,0,0,132.5,13Zm-4,2a7.74,7.74,0,0,1,1.64,3.9c-.92-1.58-4.15-5.85-6.23-5.85-.78,0-1.42,1-1.93,2.17V20h12C134,15.67,130.66,13.58,128.52,15Z"/></g></svg>