<svg xmlns="http://www.w3.org/2000/svg" width="140" height="24" viewBox="0 0 140 24"><defs><style>.cls-1{fill:#0089d9;}.cls-2{fill:#d7d7d7;}.cls-3{fill:#39a6e6;}.cls-4{fill:#fff;}.cls-5{fill:#737373;}</style></defs><title>24</title><g id="Jira"><g id="Normal"><path class="cls-1" d="M15.78,15C21.18,9.73,21,6,21,6c0-.89-.77-.4-.77-.4a6.47,6.47,0,0,1-3.5,1.18c-.59,2.56-3.85,5.74-4.68,6.52-.54-.49-4.16-3.86-4.8-6.58a6.32,6.32,0,0,1-3.5-1.15S3,5.12,3,6c0,0-.17,3.62,5.22,8.89S14.29,22.52,14,24h4a13.08,13.08,0,0,0-3.11-8.11ZM8.45,16.88A12.35,12.35,0,0,0,6.14,24h3.92c-.17-.91,0-2.06,1.23-3.93A37.47,37.47,0,0,0,8.45,16.88ZM12,10.53s2.1-1.93,2.28-2.88c.12-.67-.38-.6-.38-.6H10c-.5,0-.22.73-.22.73A12.41,12.41,0,0,0,12,10.53Zm5.1-5.78a1.69,1.69,0,1,0-1.7-1.69A1.69,1.69,0,0,0,17.13,4.74Zm-10,0a1.69,1.69,0,1,0-1.7-1.69A1.69,1.69,0,0,0,7.12,4.74Zm5.1-1.37a1.69,1.69,0,1,0-1.7-1.69A1.69,1.69,0,0,0,12.22,3.38Z"/></g><g id="Normal-2" data-name="Normal"><path class="cls-2" d="M44.78,15C50.18,9.73,50,6,50,6c0-.89-.77-.4-.77-.4a6.47,6.47,0,0,1-3.5,1.18c-.59,2.56-3.85,5.74-4.68,6.52-.54-.49-4.16-3.86-4.8-6.58a6.32,6.32,0,0,1-3.5-1.15S32,5.12,32,6c0,0-.17,3.62,5.22,8.89S43.29,22.52,43,24h4a13.08,13.08,0,0,0-3.11-8.11Zm-7.34,1.88A12.35,12.35,0,0,0,35.14,24h3.92c-.17-.91,0-2.06,1.23-3.93A37.47,37.47,0,0,0,37.45,16.88ZM41,10.53s2.1-1.93,2.28-2.88c.12-.67-.38-.6-.38-.6H39c-.5,0-.22.73-.22.73A12.41,12.41,0,0,0,41,10.53Zm5.1-5.78a1.69,1.69,0,1,0-1.7-1.69A1.69,1.69,0,0,0,46.13,4.74Zm-10,0a1.69,1.69,0,1,0-1.7-1.69A1.69,1.69,0,0,0,36.12,4.74Zm5.1-1.37a1.69,1.69,0,1,0-1.7-1.69A1.69,1.69,0,0,0,41.22,3.38Z"/></g><g id="Normal-3" data-name="Normal"><path class="cls-3" d="M73.77,15C79.17,9.73,79,6,79,6c0-.89-.77-.4-.77-.4a6.47,6.47,0,0,1-3.5,1.18c-.59,2.56-3.85,5.74-4.68,6.52-.54-.49-4.16-3.86-4.8-6.58a6.32,6.32,0,0,1-3.5-1.15S61,5.12,61,6c0,0-.17,3.62,5.22,8.89S72.28,22.52,72,24h4a13.08,13.08,0,0,0-3.11-8.11Zm-7.34,1.88A12.35,12.35,0,0,0,64.13,24h3.92c-.17-.91,0-2.06,1.23-3.93A37.47,37.47,0,0,0,66.44,16.88ZM70,10.53s2.1-1.93,2.28-2.88c.12-.67-.38-.6-.38-.6H68c-.5,0-.22.73-.22.73A12.41,12.41,0,0,0,70,10.53Zm5.1-5.78a1.69,1.69,0,1,0-1.7-1.69A1.69,1.69,0,0,0,75.12,4.74Zm-10,0a1.69,1.69,0,1,0-1.7-1.69A1.69,1.69,0,0,0,65.11,4.74Zm5.1-1.37a1.69,1.69,0,1,0-1.7-1.69A1.69,1.69,0,0,0,70.21,3.38Z"/></g><g id="Normal-4" data-name="Normal"><path class="cls-4" d="M102.77,15c5.4-5.27,5.22-9,5.22-9,0-.89-.77-.4-.77-.4a6.47,6.47,0,0,1-3.5,1.18c-.59,2.56-3.85,5.74-4.68,6.52-.54-.49-4.16-3.86-4.8-6.58a6.32,6.32,0,0,1-3.5-1.15S90,5.12,90,6c0,0-.17,3.62,5.22,8.89S101.28,22.52,101,24h4a13.08,13.08,0,0,0-3.11-8.11Zm-7.34,1.88A12.35,12.35,0,0,0,93.13,24h3.92c-.17-.91,0-2.06,1.23-3.93A37.47,37.47,0,0,0,95.44,16.88ZM99,10.53s2.1-1.93,2.28-2.88c.12-.67-.38-.6-.38-.6H97c-.5,0-.22.73-.22.73A12.41,12.41,0,0,0,99,10.53Zm5.1-5.78a1.69,1.69,0,1,0-1.7-1.69A1.69,1.69,0,0,0,104.12,4.74Zm-10,0a1.69,1.69,0,1,0-1.7-1.69A1.69,1.69,0,0,0,94.11,4.74Zm5.1-1.37a1.69,1.69,0,1,0-1.7-1.69A1.69,1.69,0,0,0,99.21,3.38Z"/></g><g id="Normal-5" data-name="Normal"><path class="cls-5" d="M131.77,15c5.4-5.27,5.22-9,5.22-9,0-.89-.77-.4-.77-.4a6.47,6.47,0,0,1-3.5,1.18c-.59,2.56-3.85,5.74-4.68,6.52-.54-.49-4.16-3.86-4.8-6.58a6.32,6.32,0,0,1-3.5-1.15S119,5.12,119,6c0,0-.17,3.62,5.22,8.89S130.28,22.52,130,24h4a13.08,13.08,0,0,0-3.11-8.11Zm-7.34,1.88a12.35,12.35,0,0,0-2.3,7.12h3.92c-.17-.91,0-2.06,1.23-3.93A37.47,37.47,0,0,0,124.44,16.88ZM128,10.53s2.1-1.93,2.28-2.88c.12-.67-.38-.6-.38-.6H126c-.5,0-.22.73-.22.73A12.41,12.41,0,0,0,128,10.53Zm5.1-5.78a1.69,1.69,0,1,0-1.7-1.69A1.69,1.69,0,0,0,133.12,4.74Zm-10,0a1.69,1.69,0,1,0-1.7-1.69A1.69,1.69,0,0,0,123.11,4.74Zm5.1-1.37a1.69,1.69,0,1,0-1.7-1.69A1.69,1.69,0,0,0,128.21,3.38Z"/></g></g></svg>