<svg xmlns="http://www.w3.org/2000/svg" width="140" height="24" viewBox="0 0 140 24"><defs><style>.cls-1{fill:#39a6e6;}.cls-2{fill:#fff;}.cls-3{fill:#737373;}.cls-4{fill:#d7d7d7;}.cls-5{fill:#0089d9;}</style></defs><title>24</title><g id="List_View" data-name="List View"><rect class="cls-1" x="60" y="5" width="2" height="2"/><rect class="cls-1" x="60" y="9" width="2" height="2"/><rect class="cls-1" x="60" y="13" width="2" height="2"/><rect class="cls-1" x="60" y="17" width="2" height="2"/><rect class="cls-1" x="64" y="5" width="14" height="2" rx="1" ry="1"/><rect class="cls-1" x="64" y="9" width="16" height="2" rx="1" ry="1"/><rect class="cls-1" x="64" y="13" width="12" height="2" rx="1" ry="1"/><rect class="cls-1" x="64" y="17" width="16" height="2" rx="1" ry="1"/><rect class="cls-2" x="89" y="5" width="2" height="2"/><rect class="cls-2" x="89" y="9" width="2" height="2"/><rect class="cls-2" x="89" y="13" width="2" height="2"/><rect class="cls-2" x="89" y="17" width="2" height="2"/><rect class="cls-2" x="93" y="5" width="14" height="2" rx="1" ry="1"/><rect class="cls-2" x="93" y="9" width="16" height="2" rx="1" ry="1"/><rect class="cls-2" x="93" y="13" width="12" height="2" rx="1" ry="1"/><rect class="cls-2" x="93" y="17" width="16" height="2" rx="1" ry="1"/><rect class="cls-3" x="118" y="5" width="2" height="2"/><rect class="cls-3" x="118" y="9" width="2" height="2"/><rect class="cls-3" x="118" y="13" width="2" height="2"/><rect class="cls-3" x="118" y="17" width="2" height="2"/><rect class="cls-3" x="122" y="5" width="14" height="2" rx="1" ry="1"/><rect class="cls-3" x="122" y="9" width="16" height="2" rx="1" ry="1"/><rect class="cls-3" x="122" y="13" width="12" height="2" rx="1" ry="1"/><rect class="cls-3" x="122" y="17" width="16" height="2" rx="1" ry="1"/><rect class="cls-4" x="31" y="5" width="2" height="2"/><rect class="cls-4" x="31" y="9" width="2" height="2"/><rect class="cls-4" x="31" y="13" width="2" height="2"/><rect class="cls-4" x="31" y="17" width="2" height="2"/><rect class="cls-4" x="35" y="5" width="14" height="2" rx="1" ry="1"/><rect class="cls-4" x="35" y="9" width="16" height="2" rx="1" ry="1"/><rect class="cls-4" x="35" y="13" width="12" height="2" rx="1" ry="1"/><rect class="cls-4" x="35" y="17" width="16" height="2" rx="1" ry="1"/><rect class="cls-5" x="2" y="5" width="2" height="2"/><rect class="cls-5" x="2" y="9" width="2" height="2"/><rect class="cls-5" x="2" y="13" width="2" height="2"/><rect class="cls-5" x="2" y="17" width="2" height="2"/><rect class="cls-5" x="6" y="5" width="14" height="2" rx="1" ry="1"/><rect class="cls-5" x="6" y="9" width="16" height="2" rx="1" ry="1"/><rect class="cls-5" x="6" y="13" width="12" height="2" rx="1" ry="1"/><rect class="cls-5" x="6" y="17" width="16" height="2" rx="1" ry="1"/></g></svg>