<svg xmlns="http://www.w3.org/2000/svg" width="140" height="24" viewBox="0 0 140 24"><defs><style>.cls-1{fill:#0089d9;}.cls-2{fill:#d7d7d7;}.cls-3{fill:#39a6e6;}.cls-4{fill:#fff;}.cls-5{fill:#737373;}</style></defs><title>24</title><g id="Location"><path class="cls-1" d="M12,0A7.82,7.82,0,0,0,4,7.64C4,11.85,7.43,16.36,12,24c4.57-7.64,8-12.15,8-16.36A7.82,7.82,0,0,0,12,0ZM6,7.73A5.87,5.87,0,0,1,12,2a5.87,5.87,0,0,1,6,5.73c0,3.16-2.57,6.55-6,12.27C8.57,14.27,6,10.89,6,7.73ZM12,5a3,3,0,1,0,3,3A3,3,0,0,0,12,5Z"/><path class="cls-2" d="M41,0a7.82,7.82,0,0,0-8,7.64c0,4.22,3.43,8.73,8,16.36,4.57-7.64,8-12.15,8-16.36A7.82,7.82,0,0,0,41,0ZM35,7.73a6,6,0,0,1,12,0c0,3.16-2.57,6.55-6,12.27C37.58,14.27,35,10.89,35,7.73ZM41,5a3,3,0,1,0,3,3A3,3,0,0,0,41,5Z"/><path class="cls-3" d="M70,0a7.82,7.82,0,0,0-8,7.64c0,4.22,3.43,8.73,8,16.36,4.57-7.64,8-12.15,8-16.36A7.82,7.82,0,0,0,70,0ZM64,7.73a6,6,0,0,1,12,0c0,3.16-2.57,6.55-6,12.27C66.57,14.27,64,10.89,64,7.73ZM70,5a3,3,0,1,0,3,3A3,3,0,0,0,70,5Z"/><path class="cls-4" d="M99,0a7.82,7.82,0,0,0-8,7.64c0,4.22,3.43,8.73,8,16.36,4.57-7.64,8-12.15,8-16.36A7.82,7.82,0,0,0,99,0ZM93,7.73a6,6,0,0,1,12,0c0,3.16-2.57,6.55-6,12.27C95.57,14.27,93,10.89,93,7.73ZM99,5a3,3,0,1,0,3,3A3,3,0,0,0,99,5Z"/><path class="cls-5" d="M128,0a7.82,7.82,0,0,0-8,7.64c0,4.22,3.43,8.73,8,16.36,4.57-7.64,8-12.15,8-16.36A7.82,7.82,0,0,0,128,0Zm-6,7.73a6,6,0,0,1,12,0c0,3.16-2.57,6.55-6,12.27C124.56,14.27,122,10.89,122,7.73ZM128,5a3,3,0,1,0,3,3A3,3,0,0,0,128,5Z"/></g></svg>