<svg xmlns="http://www.w3.org/2000/svg" width="140" height="24" viewBox="0 0 140 24"><defs><style>.cls-1{fill:#0089d9;}.cls-1,.cls-2,.cls-3,.cls-4,.cls-5{fill-rule:evenodd;}.cls-2{fill:#d7d7d7;}.cls-3{fill:#39a6e6;}.cls-4{fill:#fff;}.cls-5{fill:#737373;}</style></defs><title>24</title><g id="Like"><path class="cls-1" d="M1.95,23.87h2v-12h-2C.45,12.87.95,22.87,1.95,23.87ZM23.9,15.18c0-1.14-.9-1.15-1-1.81-.1-.82.78-1.26.5-2.43-.14-.6-.88-.94-1.59-1.07-.89-.16-4.51.19-5.41-.69-1.23-1.2.5-2.44.5-5.13C16.92.92,14.82-1.13,12,.68c.62,1.53.33,3-.66,4.81C10,10,7.07,11.55,4.95,12.87v10c3.69,0,6.11.76,8.63.91A23.11,23.11,0,0,0,20.35,23c1.69-.41,1.19-1.7,1.62-2.41s1.13-.53,1.41-1.54-.47-1.09-.47-1.74C22.92,16.48,23.9,16.38,23.9,15.18Zm-3,1.49c-.06.72.45,1.1.28,1.67s-.76.53-1.07,1.19.07,1.62-1.27,1.94a17.16,17.16,0,0,1-5,.47c-2-.11-3.9-1-6.83-1V13.71c2-.86,5.53-3.26,6-7.48a3.73,3.73,0,0,0,.66-3.62c1.59-.57,1.64,1.59.92,3.22-.84,1.89-1.59,4-.59,4.88.81.75,5.1.87,5.82.9s1.28.16,1.37.39c.24.63-.24,1.24-.13,1.73s.94.75.94,1.41S21,15.95,20.89,16.67Z"/><path class="cls-2" d="M31.05,23.87h2v-12h-2C29.55,12.87,30.05,22.87,31.05,23.87ZM53,15.18c0-1.14-.9-1.15-1-1.81-.1-.82.78-1.26.5-2.43-.14-.6-.88-.94-1.59-1.07-.89-.16-4.51.19-5.41-.69C44.29,8,46,6.74,46,4.05,46,.92,43.93-1.13,41.11.68c.62,1.53.33,3-.66,4.81-1.35,4.52-4.28,6.06-6.41,7.37v10c3.69,0,6.11.76,8.63.91A23.11,23.11,0,0,0,49.46,23c1.69-.41,1.19-1.7,1.62-2.41s1.13-.53,1.41-1.54S52,18,52,17.33C52,16.48,53,16.38,53,15.18Zm-3,1.49c-.06.72.45,1.1.28,1.67s-.76.53-1.07,1.19.07,1.62-1.27,1.94a17.16,17.16,0,0,1-5,.47c-2-.11-3.9-1-6.83-1V13.71c2-.86,5.53-3.26,6-7.48a3.73,3.73,0,0,0,.66-3.62c1.59-.57,1.64,1.59.92,3.22-.84,1.89-1.59,4-.59,4.88.81.75,5.1.87,5.82.9s1.28.16,1.37.39c.24.63-.24,1.24-.13,1.73s.94.75.94,1.41S50.05,15.95,50,16.67Z"/><path class="cls-3" d="M60.05,23.87h2v-12h-2C58.55,12.87,59.05,22.87,60.05,23.87ZM82,15.18c0-1.14-.9-1.15-1-1.81-.1-.82.78-1.26.5-2.43-.14-.6-.88-.94-1.59-1.07-.89-.16-4.51.19-5.41-.69C73.29,8,75,6.74,75,4.05,75,.92,72.93-1.13,70.11.68c.62,1.53.33,3-.66,4.81-1.35,4.52-4.28,6.06-6.41,7.37v10c3.69,0,6.11.76,8.63.91A23.11,23.11,0,0,0,78.46,23c1.69-.41,1.19-1.7,1.62-2.41s1.13-.53,1.41-1.54S81,18,81,17.33C81,16.48,82,16.38,82,15.18Zm-3,1.49c-.06.72.45,1.1.28,1.67s-.76.53-1.07,1.19.07,1.62-1.27,1.94a17.16,17.16,0,0,1-5,.47c-2-.11-3.9-1-6.83-1V13.71c2-.86,5.53-3.26,6-7.48a3.73,3.73,0,0,0,.66-3.62c1.59-.57,1.64,1.59.92,3.22-.84,1.89-1.59,4-.59,4.88.81.75,5.1.87,5.82.9s1.28.16,1.37.39c.24.63-.24,1.24-.13,1.73s.94.75.94,1.41S79.05,15.95,79,16.67Z"/><path class="cls-4" d="M89,23.87h2v-12H89C87.53,12.87,88,22.87,89,23.87ZM111,15.18c0-1.14-.9-1.15-1-1.81-.1-.82.78-1.26.5-2.43-.14-.6-.88-.94-1.59-1.07-.89-.16-4.51.19-5.41-.69-1.23-1.2.5-2.44.5-5.13,0-3.13-2.09-5.19-4.91-3.38.62,1.53.33,3-.66,4.81C97.08,10,94.16,11.55,92,12.87v10c3.69,0,6.11.76,8.63.91a23.11,23.11,0,0,0,6.78-.75c1.69-.41,1.19-1.7,1.62-2.41s1.13-.53,1.41-1.54S110,18,110,17.33C110,16.48,111,16.38,111,15.18Zm-3,1.49c-.06.72.45,1.1.28,1.67s-.76.53-1.07,1.19.07,1.62-1.27,1.94a17.16,17.16,0,0,1-5,.47c-2-.11-3.9-1-6.83-1V13.71c2-.86,5.53-3.26,6-7.48a3.73,3.73,0,0,0,.66-3.62c1.59-.57,1.64,1.59.92,3.22-.84,1.89-1.59,4-.59,4.88.81.75,5.1.87,5.82.9s1.28.16,1.37.39c.24.63-.24,1.24-.13,1.73s.94.75.94,1.41S108,15.95,108,16.67Z"/><path class="cls-5" d="M118.05,23.87h2v-12h-2C116.55,12.87,117.05,22.87,118.05,23.87ZM140,15.18c0-1.14-.9-1.15-1-1.81-.1-.82.78-1.26.5-2.43-.14-.6-.88-.94-1.59-1.07-.89-.16-4.51.19-5.41-.69-1.23-1.2.5-2.44.5-5.13,0-3.13-2.09-5.19-4.91-3.38.62,1.53.33,3-.66,4.81-1.35,4.52-4.28,6.06-6.41,7.37v10c3.69,0,6.11.76,8.63.91a23.11,23.11,0,0,0,6.78-.75c1.69-.41,1.19-1.7,1.62-2.41s1.13-.53,1.41-1.54S139,18,139,17.33C139,16.48,140,16.38,140,15.18Zm-3,1.49c-.06.72.45,1.1.28,1.67s-.76.53-1.07,1.19.07,1.62-1.27,1.94a17.16,17.16,0,0,1-5,.47c-2-.11-3.9-1-6.83-1V13.71c2-.86,5.53-3.26,6-7.48a3.73,3.73,0,0,0,.66-3.62c1.59-.57,1.64,1.59.92,3.22-.84,1.89-1.59,4-.59,4.88.81.75,5.1.87,5.82.9s1.28.16,1.37.39c.24.63-.24,1.24-.13,1.73s.94.75.94,1.41S137.05,15.95,137,16.67Z"/></g></svg>