<svg xmlns="http://www.w3.org/2000/svg" width="140" height="24" viewBox="0 0 140 24"><defs><style>.cls-1{fill:#0089d9;}.cls-1,.cls-2,.cls-3,.cls-4,.cls-5{fill-rule:evenodd;}.cls-2{fill:#d7d7d7;}.cls-3{fill:#39a6e6;}.cls-4{fill:#fff;}.cls-5{fill:#737373;}</style></defs><title>24</title><g id="Locked"><path class="cls-1" d="M18,9V7A6,6,0,1,0,6,7V9a2,2,0,0,0-2,2V21a2,2,0,0,0,2,2H18a2,2,0,0,0,2-2V11A2,2,0,0,0,18,9ZM8,7a4,4,0,1,1,8,0V9H8ZM18,20a1,1,0,0,1-1,1H7a1,1,0,0,1-1-1V12a1,1,0,0,1,1-1H17a1,1,0,0,1,1,1Zm-6-8a1,1,0,0,0-1,1v2a1,1,0,0,0,2,0V13A1,1,0,0,0,12,12Z"/><path class="cls-2" d="M47,9V7A6,6,0,1,0,35,7V9a2,2,0,0,0-2,2V21a2,2,0,0,0,2,2H47a2,2,0,0,0,2-2V11A2,2,0,0,0,47,9ZM37,7a4,4,0,1,1,8,0V9H37ZM47,20a1,1,0,0,1-1,1H36a1,1,0,0,1-1-1V12a1,1,0,0,1,1-1H46a1,1,0,0,1,1,1Zm-6-8a1,1,0,0,0-1,1v2a1,1,0,0,0,2,0V13A1,1,0,0,0,41,12Z"/><path class="cls-3" d="M76,9V7A6,6,0,1,0,64,7V9a2,2,0,0,0-2,2V21a2,2,0,0,0,2,2H76a2,2,0,0,0,2-2V11A2,2,0,0,0,76,9ZM66,7a4,4,0,1,1,8,0V9H66ZM76,20a1,1,0,0,1-1,1H65a1,1,0,0,1-1-1V12a1,1,0,0,1,1-1H75a1,1,0,0,1,1,1Zm-6-8a1,1,0,0,0-1,1v2a1,1,0,0,0,2,0V13A1,1,0,0,0,70,12Z"/><path class="cls-4" d="M105,9V7A6,6,0,1,0,93,7V9a2,2,0,0,0-2,2V21a2,2,0,0,0,2,2h12a2,2,0,0,0,2-2V11A2,2,0,0,0,105,9ZM95,7a4,4,0,1,1,8,0V9H95Zm10,13a1,1,0,0,1-1,1H94a1,1,0,0,1-1-1V12a1,1,0,0,1,1-1h10a1,1,0,0,1,1,1Zm-6-8a1,1,0,0,0-1,1v2a1,1,0,0,0,2,0V13A1,1,0,0,0,99,12Z"/><path class="cls-5" d="M134,9V7a6,6,0,1,0-12,0V9a2,2,0,0,0-2,2V21a2,2,0,0,0,2,2h12a2,2,0,0,0,2-2V11A2,2,0,0,0,134,9ZM124,7a4,4,0,1,1,8,0V9h-8Zm10,13a1,1,0,0,1-1,1H123a1,1,0,0,1-1-1V12a1,1,0,0,1,1-1h10a1,1,0,0,1,1,1Zm-6-8a1,1,0,0,0-1,1v2a1,1,0,0,0,2,0V13A1,1,0,0,0,128,12Z"/></g></svg>