<svg xmlns="http://www.w3.org/2000/svg" width="140" height="24" viewBox="0 0 140 24"><defs><style>.cls-1{fill:#d6565a;}.cls-1,.cls-2,.cls-3,.cls-4,.cls-5{fill-rule:evenodd;}.cls-2{fill:#d7d7d7;}.cls-3{fill:#e57377;}.cls-4{fill:#fff;}.cls-5{fill:#737373;}</style></defs><title>24</title><g id="Logon_Failed" data-name="Logon Failed"><path class="cls-1" d="M16.06,1a6,6,0,0,0-4.92,9.42L3.53,18.06c-1.38,1.57.27,2.82,1.38,1.85C5.56,20.57,7.06,22,7.06,22c1.22,1.22,2.74-.26,1.52-1.48,0,0-1.64-1.87-2.06-2.31l.88-.87c.78.72,1.75,2.09,2.73,1.11.78-.78-.49-1.82-1.22-2.6L12.73,12A6,6,0,1,0,16.06,1Zm0,10a4,4,0,1,1,4-4A4,4,0,0,1,16.06,11Z"/><path class="cls-2" d="M45.06,1a6,6,0,0,0-4.92,9.42l-7.61,7.64c-1.38,1.57.27,2.82,1.38,1.85.66.66,2.16,2.09,2.16,2.09,1.22,1.22,2.74-.26,1.52-1.48,0,0-1.64-1.87-2.06-2.31l.88-.87c.78.72,1.75,2.09,2.73,1.11.78-.78-.49-1.82-1.22-2.6L41.73,12A6,6,0,1,0,45.06,1Zm0,10a4,4,0,1,1,4-4A4,4,0,0,1,45.06,11Z"/><path class="cls-3" d="M74,1a6,6,0,0,0-4.92,9.42l-7.61,7.64c-1.38,1.57.27,2.82,1.38,1.85C63.5,20.57,65,22,65,22c1.22,1.22,2.74-.26,1.52-1.48,0,0-1.64-1.87-2.06-2.31l.88-.87c.78.72,1.75,2.09,2.73,1.11.78-.78-.49-1.82-1.22-2.6L70.67,12A6,6,0,1,0,74,1Zm0,10a4,4,0,1,1,4-4A4,4,0,0,1,74,11Z"/><path class="cls-4" d="M103,1a6,6,0,0,0-4.92,9.42l-7.61,7.64c-1.38,1.57.27,2.82,1.38,1.85C92.5,20.57,94,22,94,22c1.22,1.22,2.74-.26,1.52-1.48,0,0-1.64-1.87-2.06-2.31l.88-.87c.78.72,1.75,2.09,2.73,1.11.78-.78-.49-1.82-1.22-2.6L99.67,12A6,6,0,1,0,103,1Zm0,10a4,4,0,1,1,4-4A4,4,0,0,1,103,11Z"/><path class="cls-5" d="M132,1a6,6,0,0,0-4.92,9.42l-7.61,7.64c-1.38,1.57.27,2.82,1.38,1.85C121.5,20.57,123,22,123,22c1.22,1.22,2.74-.26,1.52-1.48,0,0-1.64-1.87-2.06-2.31l.88-.87c.78.72,1.75,2.09,2.73,1.11.78-.78-.49-1.82-1.22-2.6L128.67,12A6,6,0,1,0,132,1Zm0,10a4,4,0,1,1,4-4A4,4,0,0,1,132,11Z"/></g></svg>