<svg xmlns="http://www.w3.org/2000/svg" width="140" height="24" viewBox="0 0 140 24"><defs><style>.cls-1{fill:#0089d9;}.cls-1,.cls-2,.cls-3,.cls-4,.cls-5{fill-rule:evenodd;}.cls-2{fill:#d7d7d7;}.cls-3{fill:#39a6e6;}.cls-4{fill:#fff;}.cls-5{fill:#737373;}</style></defs><title>24</title><g id="Lunch"><path class="cls-1" d="M11.5,1a.5.5,0,0,0-.5.5V7H10V1.5a.5.5,0,0,0-1,0V7H8V1.5a.5.5,0,0,0-1,0L6,9c0,2,2.44,2,2.44,5,0,2.39-.44,8-.44,8,0,1,.56,2,1.56,2S11,23,11,22c0,0-.53-5.58-.53-8,0-3,2.53-3,2.53-5L12,1.5A.5.5,0,0,0,11.5,1ZM18,0c-1,0-3,1.16-3,4.38,0,0-.06,9.27,2,10.62,0,.44,0,0,0,0a34.34,34.34,0,0,1-1,8c-.07.26,1,1,2,1a1,1,0,0,0,1-1V1C19,.15,19,0,18,0Z"/><path class="cls-2" d="M40.5,1a.5.5,0,0,0-.5.5V7H39V1.5a.5.5,0,0,0-1,0V7H37V1.5a.5.5,0,0,0-1,0L35,9c0,2,2.44,2,2.44,5,0,2.39-.44,8-.44,8,0,1,.56,2,1.56,2S40,23,40,22c0,0-.53-5.58-.53-8,0-3,2.53-3,2.53-5L41,1.5A.5.5,0,0,0,40.5,1ZM47,0c-1,0-3,1.16-3,4.38,0,0-.06,9.27,2,10.62,0,.44,0,0,0,0a34.34,34.34,0,0,1-1,8c-.07.26,1,1,2,1a1,1,0,0,0,1-1V1C48,.15,48,0,47,0Z"/><path class="cls-3" d="M69.5,1a.5.5,0,0,0-.5.5V7H68V1.5a.5.5,0,0,0-1,0V7H66V1.5a.5.5,0,0,0-1,0L64,9c0,2,2.44,2,2.44,5,0,2.39-.44,8-.44,8,0,1,.56,2,1.56,2S69,23,69,22c0,0-.53-5.58-.53-8,0-3,2.53-3,2.53-5L70,1.5A.5.5,0,0,0,69.5,1ZM76,0c-1,0-3,1.16-3,4.38,0,0-.06,9.27,2,10.62,0,.44,0,0,0,0a34.34,34.34,0,0,1-1,8c-.07.26,1,1,2,1a1,1,0,0,0,1-1V1C77,.15,77,0,76,0Z"/><path class="cls-4" d="M98.5,1a.5.5,0,0,0-.5.5V7H97V1.5a.5.5,0,0,0-1,0V7H95V1.5a.5.5,0,0,0-1,0L93,9c0,2,2.44,2,2.44,5,0,2.39-.44,8-.44,8,0,1,.56,2,1.56,2S98,23,98,22c0,0-.53-5.58-.53-8,0-3,2.53-3,2.53-5L99,1.5A.5.5,0,0,0,98.5,1ZM105,0c-1,0-3,1.16-3,4.38,0,0-.06,9.27,2,10.62,0,.44,0,0,0,0a34.34,34.34,0,0,1-1,8c-.07.26,1,1,2,1a1,1,0,0,0,1-1V1C106,.15,106,0,105,0Z"/><path class="cls-5" d="M127.5,1a.5.5,0,0,0-.5.5V7h-1V1.5a.5.5,0,0,0-1,0V7h-1V1.5a.5.5,0,0,0-1,0L122,9c0,2,2.44,2,2.44,5,0,2.39-.44,8-.44,8,0,1,.56,2,1.56,2S127,23,127,22c0,0-.53-5.58-.53-8,0-3,2.53-3,2.53-5l-1-7.5A.5.5,0,0,0,127.5,1ZM134,0c-1,0-3,1.16-3,4.38,0,0-.06,9.27,2,10.62,0,.44,0,0,0,0a34.34,34.34,0,0,1-1,8c-.07.26,1,1,2,1a1,1,0,0,0,1-1V1C135,.15,135,0,134,0Z"/></g></svg>