<?xml version="1.0" encoding="utf-8"?>
<!-- Generator: Adobe Illustrator 19.1.1, SVG Export Plug-In . SVG Version: 6.00 Build 0)  -->
<svg version="1.1" xmlns="http://www.w3.org/2000/svg" xmlns:xlink="http://www.w3.org/1999/xlink" x="0px" y="0px" width="82px"
	 height="24px" viewBox="-458 489 82 24" style="enable-background:new -458 489 82 24;" xml:space="preserve">
<style type="text/css">
	.st0{display:none;}
	.st1{display:inline;opacity:0.2;}
	.st2{fill:#0089D9;}
	.st3{fill:#C8C8C8;}
	.st4{fill:#39A6E6;}
</style>
<g id="Layer_2_1_" class="st0">
	<g id="Guides" class="st1">
		<rect x="-458" y="489" class="st2" width="24" height="24"/>
		<rect x="-429" y="489" class="st2" width="24" height="24"/>
		<rect x="-400" y="489" class="st2" width="24" height="24"/>
	</g>
</g>
<g id="Layer_3">
	<path class="st2" d="M-435.6,503.7l1.2-0.5c0.5-0.2,0.5-0.8,0.2-1.1c-0.1-0.1-0.1-0.1-1.4-1l1.2-0.5c0.5-0.2,0.5-0.8,0.2-1.1
		c-0.1-0.1-0.1-0.1-2.3-1.7c1.3-1.5,1.8-2.9,1.8-3c0.1-0.3,0-0.5-0.2-0.7c-0.1-0.1-7.9-4.6-8.1-4.7c-0.3-0.3-0.9-0.1-1,0.4
		c-0.5,2.2-3.3,3.9-4.3,4.5c-1.1,0.5-2.4,1-3.3,1.4l0,0c-2.5,1-3.5,1.3-6,2.2c-0.5,0.2-0.6,0.9-0.1,1.2l1.1,0.8l-1.2,0.8
		c-0.4,0.3-0.4,0.9,0,1.1l1.2,0.7l-1.1,0.8c-0.4,0.3-0.4,0.9,0,1.1l1.1,0.7l-1.1,0.8c-0.4,0.3-0.4,0.9,0,1.1l8,5.3
		c0.2,0.1,0.5,0.1,0.7,0.1c4.4-1.9,8.5-4,14.6-6.7c0.5-0.3,0.6-0.8,0.3-1.1C-434.2,504.7-434.3,504.7-435.6,503.7z M-436,499.8
		l-4,1.7v-0.9c0.7-0.4,1.5-0.9,2.5-1.9C-437.1,499.1-436.5,499.5-436,499.8z M-436,502.5l-4,1.7V503l2.9-1.3
		C-436.9,501.8-436.3,502.3-436,502.5z M-443,490.9c1.3,0.7,5.4,3.1,6.8,3.9c-0.5,0.9-1.7,2.9-3.9,4.3c-0.1-0.2-6.5-4.1-6.7-4.2
		C-444.5,493.5-443.4,491.8-443,490.9z M-451.2,497l6.7,4.1c-2,0.8-4,1.7-4.7,2l-6.6-4.4C-453.7,497.9-452.4,497.5-451.2,497z
		 M-455.3,500.7l5.6,3.7c0.2,0.1,0.5,0.1,0.7,0.1c0,0,2.4-1.1,5.1-2.2v1.1l-5.3,2.3l-6.9-4.5L-455.3,500.7z M-455.3,503.3l5.7,3.7
		c0.2,0.1,0.4,0.1,0.7,0.1l5.1-2.3v1.1l-5.3,2.5l-6.9-4.5L-455.3,503.3z M-449.2,511.1l-6.9-4.6l0.7-0.5l5.7,3.7
		c0.2,0.1,0.4,0.1,0.7,0.1l5.1-2.3v1.2L-449.2,511.1z M-443.3,501.2c0-0.5-0.1-0.5-0.5-0.7l-6.8-4.1c0.8-0.3,1.8-0.8,2.7-1.2
		l7.3,4.5v8.1l-2.7,1.2C-443.3,509-443.3,505.2-443.3,501.2z M-440,506.9v-1.3l3-1.3c0.1,0,0.9,0.7,1,0.7L-440,506.9z"/>
	<path class="st3" d="M-406.6,503.7l1.2-0.5c0.5-0.2,0.5-0.8,0.2-1.1c-0.1-0.1-0.1-0.1-1.4-1l1.2-0.5c0.5-0.2,0.5-0.8,0.2-1.1
		c-0.1-0.1-0.1-0.1-2.3-1.7c1.3-1.5,1.8-2.9,1.8-3c0.1-0.3,0-0.5-0.2-0.7c-0.1-0.1-7.9-4.6-8.1-4.7c-0.3-0.3-0.9-0.1-1,0.4
		c-0.5,2.2-3.3,3.9-4.3,4.5c-1.1,0.5-2.4,1-3.3,1.4l0,0c-2.5,1-3.5,1.3-6,2.2c-0.5,0.2-0.6,0.9-0.1,1.2l1.1,0.8l-1.2,0.8
		c-0.4,0.3-0.4,0.9,0,1.1l1.2,0.7l-1.1,0.8c-0.4,0.3-0.4,0.9,0,1.1l1.1,0.7l-1.1,0.8c-0.4,0.3-0.4,0.9,0,1.1l8,5.3
		c0.2,0.1,0.5,0.1,0.7,0.1c4.4-1.9,8.5-4,14.6-6.7c0.5-0.3,0.6-0.8,0.3-1.1C-405.2,504.7-405.3,504.7-406.6,503.7z M-407,499.8
		l-4,1.7v-0.9c0.7-0.4,1.5-0.9,2.5-1.9C-408.1,499.1-407.5,499.5-407,499.8z M-407,502.5l-4,1.7V503l2.9-1.3
		C-407.9,501.8-407.3,502.3-407,502.5z M-414,490.9c1.3,0.7,5.4,3.1,6.8,3.9c-0.5,0.9-1.7,2.9-3.9,4.3c-0.1-0.2-6.5-4.1-6.7-4.2
		C-415.5,493.5-414.4,491.8-414,490.9z M-422.2,497l6.7,4.1c-2,0.8-4,1.7-4.7,2l-6.6-4.4C-424.7,497.9-423.4,497.5-422.2,497z
		 M-426.3,500.7l5.6,3.7c0.2,0.1,0.5,0.1,0.7,0.1c0,0,2.4-1.1,5.1-2.2v1.1l-5.3,2.3l-6.9-4.5L-426.3,500.7z M-426.3,503.3l5.7,3.7
		c0.2,0.1,0.4,0.1,0.7,0.1l5.1-2.3v1.1l-5.3,2.5l-6.9-4.5L-426.3,503.3z M-420.2,511.1l-6.9-4.6l0.7-0.5l5.7,3.7
		c0.2,0.1,0.4,0.1,0.7,0.1l5.1-2.3v1.2L-420.2,511.1z M-414.3,501.2c0-0.5-0.1-0.5-0.5-0.7l-6.8-4.1c0.8-0.3,1.8-0.8,2.7-1.2
		l7.3,4.5v8.1l-2.7,1.2C-414.3,509-414.3,505.2-414.3,501.2z M-411,506.9v-1.3l3-1.3c0.1,0,0.9,0.7,1,0.7L-411,506.9z"/>
	<path class="st4" d="M-377.6,503.7l1.2-0.5c0.5-0.2,0.5-0.8,0.2-1.1c-0.1-0.1-0.1-0.1-1.4-1l1.2-0.5c0.5-0.2,0.5-0.8,0.2-1.1
		c-0.1-0.1-0.1-0.1-2.3-1.7c1.3-1.5,1.8-2.9,1.8-3c0.1-0.3,0-0.5-0.2-0.7c-0.1-0.1-7.9-4.6-8.1-4.7c-0.3-0.3-0.9-0.1-1,0.4
		c-0.5,2.2-3.3,3.9-4.3,4.5c-1.1,0.5-2.4,1-3.3,1.4l0,0c-2.5,1-3.5,1.3-6,2.2c-0.5,0.2-0.6,0.9-0.1,1.2l1.1,0.8l-1.2,0.8
		c-0.4,0.3-0.4,0.9,0,1.1l1.2,0.7l-1.1,0.8c-0.4,0.3-0.4,0.9,0,1.1l1.1,0.7l-1.1,0.8c-0.4,0.3-0.4,0.9,0,1.1l8,5.3
		c0.2,0.1,0.5,0.1,0.7,0.1c4.4-1.9,8.5-4,14.6-6.7c0.5-0.3,0.6-0.8,0.3-1.1C-376.2,504.7-376.3,504.7-377.6,503.7z M-378,499.8
		l-4,1.7v-0.9c0.7-0.4,1.5-0.9,2.5-1.9C-379.1,499.1-378.5,499.5-378,499.8z M-378,502.5l-4,1.7V503l2.9-1.3
		C-378.9,501.8-378.3,502.3-378,502.5z M-385,490.9c1.3,0.7,5.4,3.1,6.8,3.9c-0.5,0.9-1.7,2.9-3.9,4.3c-0.1-0.2-6.5-4.1-6.7-4.2
		C-386.5,493.5-385.4,491.8-385,490.9z M-393.2,497l6.7,4.1c-2,0.8-4,1.7-4.7,2l-6.6-4.4C-395.7,497.9-394.4,497.5-393.2,497z
		 M-397.3,500.7l5.6,3.7c0.2,0.1,0.5,0.1,0.7,0.1c0,0,2.4-1.1,5.1-2.2v1.1l-5.3,2.3l-6.9-4.5L-397.3,500.7z M-397.3,503.3l5.7,3.7
		c0.2,0.1,0.4,0.1,0.7,0.1l5.1-2.3v1.1l-5.3,2.5l-6.9-4.5L-397.3,503.3z M-391.2,511.1l-6.9-4.6l0.7-0.5l5.7,3.7
		c0.2,0.1,0.4,0.1,0.7,0.1l5.1-2.3v1.2L-391.2,511.1z M-385.3,501.2c0-0.5-0.1-0.5-0.5-0.7l-6.8-4.1c0.8-0.3,1.8-0.8,2.7-1.2
		l7.3,4.5v8.1l-2.7,1.2C-385.3,509-385.3,505.2-385.3,501.2z M-382,506.9v-1.3l3-1.3c0.1,0,0.9,0.7,1,0.7L-382,506.9z"/>
</g>
</svg>
