<svg xmlns="http://www.w3.org/2000/svg" width="140" height="24" viewBox="0 0 140 24"><defs><style>.cls-1{fill:#0089d9;}.cls-1,.cls-2,.cls-3,.cls-4,.cls-5{fill-rule:evenodd;}.cls-2{fill:#d7d7d7;}.cls-3{fill:#39a6e6;}.cls-4{fill:#fff;}.cls-5{fill:#737373;}</style></defs><title>24</title><g id="Note_Filled" data-name="Note Filled"><path class="cls-1" d="M16.5,7h-9a.5.5,0,0,0,0,1h9a.5.5,0,0,0,0-1ZM24,2a2.15,2.15,0,0,0-2-2H2A2.15,2.15,0,0,0,0,2c0,.46,0,19.49,0,20a2.15,2.15,0,0,0,2,2H18l6-6S24,2.5,24,2ZM16,22H2V2H22V16H16Zm6-4-4,4h0V18h4Zm-5.5-8h-9a.5.5,0,0,0,0,1h9a.5.5,0,0,0,0-1Z"/><path class="cls-2" d="M53,2a2.15,2.15,0,0,0-2-2H31a2.15,2.15,0,0,0-2,2c0,.46,0,19.49,0,20a2.16,2.16,0,0,0,2,2H47l6-6S53,2.5,53,2ZM45,22H31V2H51V16H45Zm6-4-4,4h0V18h4ZM45.5,7h-9a.5.5,0,0,0,0,1h9a.5.5,0,0,0,0-1Zm0,3h-9a.5.5,0,0,0,0,1h9a.5.5,0,0,0,0-1Z"/><path class="cls-3" d="M74.5,7h-9a.5.5,0,0,0,0,1h9a.5.5,0,0,0,0-1ZM82,2a2.15,2.15,0,0,0-2-2H60a2.15,2.15,0,0,0-2,2c0,.46,0,19.49,0,20a2.16,2.16,0,0,0,2,2H76l6-6S82,2.5,82,2ZM74,22H60V2H80V16H74Zm6-4-4,4h0V18h4Zm-5.5-8h-9a.5.5,0,0,0,0,1h9a.5.5,0,0,0,0-1Z"/><path class="cls-4" d="M103.5,7h-9a.5.5,0,0,0,0,1h9a.5.5,0,0,0,0-1ZM111,2a2.15,2.15,0,0,0-2-2H89a2.15,2.15,0,0,0-2,2c0,.46,0,19.49,0,20a2.16,2.16,0,0,0,2,2h16l6-6S111,2.5,111,2Zm-8,16v4H89V2h20V16h-6Zm6,0-4,4h0V18h4Zm-5.5-8h-9a.5.5,0,0,0,0,1h9a.5.5,0,0,0,0-1Z"/><path class="cls-5" d="M132.5,7h-9a.5.5,0,0,0,0,1h9a.5.5,0,0,0,0-1ZM140,2a2.15,2.15,0,0,0-2-2H118a2.15,2.15,0,0,0-2,2c0,.46,0,19.49,0,20a2.16,2.16,0,0,0,2,2h16l6-6S140,2.5,140,2Zm-8,16v4H118V2h20V16h-6Zm6,0-4,4h0V18h4Zm-5.5-8h-9a.5.5,0,0,0,0,1h9a.5.5,0,0,0,0-1Z"/></g></svg>