<svg xmlns="http://www.w3.org/2000/svg" width="169" height="24" viewBox="0 0 169 24"><defs><style>.cls-1{fill:#0089d9;}.cls-1,.cls-2,.cls-3,.cls-4,.cls-5{fill-rule:evenodd;}.cls-2{fill:#d7d7d7;}.cls-3{fill:#39a6e6;}.cls-4{fill:#fff;}.cls-5{fill:#737373;}</style></defs><title>24</title><g id="Note"><path class="cls-1" d="M17.56,5.39h0l-.15.15-.35.35h0l-3.5,3.5v1h1l3.5-3.5.95.95-7.73,7.71,2.13,2.13L24.2,7,22,4.82l-2,2-2-1.95Zm-7.09,11L8.8,20.17l3.8-1.69.1-.1-2.13-2.13ZM18,22H2V8H8V2H18V3l2,2V0H6V.28l-6,6V24H20V13l-2,2ZM6,2.49V6H2.41Z"/><path class="cls-2" d="M39.47,16.36,37.8,20.17l3.8-1.69.1-.1-2.13-2.13Zm7.09-11h0l-.15.15-.35.35h0l-3.5,3.5v1h1l3.5-3.5.95.95-7.73,7.71,2.13,2.13L53.2,7,51,4.82l-2,2-2-1.95ZM47,22H31V8h6V2H47V3l2,2V0H35V.28l-6,6V24H49V13l-2,2ZM35,2.49V6H31.41Z"/><path class="cls-3" d="M75.56,5.39h0l-.15.15-.35.35h0l-3.5,3.5v1h1l3.5-3.5.95.95-7.73,7.71,2.13,2.13L82.2,7,80,4.82l-2,2-2-1.95ZM76,22H60V8h6V2H76V3l2,2V0H64V.28l-6,6V24H78V13l-2,2ZM64,2.49V6H60.41Zm4.47,13.87L66.8,20.17l3.8-1.69.1-.1-2.13-2.13Z"/><path class="cls-4" d="M104.56,5.39h0l-.15.15-.35.35h0l-3.5,3.5v1h1l3.5-3.5.95.95-7.73,7.71,2.13,2.13L111.2,7,109,4.82l-2,2-2-1.95ZM105,22H89V8h6V2h10V3l2,2V0H93V.28l-6,6V24h20V13l-2,2ZM93,2.49V6H89.41Zm4.47,13.87L95.8,20.17l3.8-1.69.1-.1-2.13-2.13Z"/><path class="cls-5" d="M133.64,5.39h0l-.18.18-.32.32h0l-3.5,3.5v1h1l3.5-3.5.95.95-7.73,7.71,2.13,2.13L140.28,7l-2.17-2.13-2,2-2-1.95Zm-7.09,11-1.66,3.82,3.8-1.69.1-.1-2.13-2.13ZM134.08,22h-16V8h6V2h10V3l2,2V0h-14V.28l-6,6V24h20V13l-2,2Zm-12-19.51V6H118.5Z"/><path class="cls-1" d="M162.14,5.89h0l-3.5,3.5v1h1l3.5-3.5.95.95-7.73,7.71,2.13,2.13L169.28,7l-2.17-2.13-2,2-2-1.95Zm-6.59,10.47-1.66,3.82,3.8-1.69.1-.1-2.13-2.13ZM151.08.28,145.33,6h5.75Zm1,21.72,2-6,4-4h-1V9l6-6,2,2V0h-13V7h-7V6.25h0V24h20V13l-7,7Z"/></g></svg>