<svg xmlns="http://www.w3.org/2000/svg" width="140" height="24" viewBox="0 0 140 24"><defs><style>.cls-1{fill:#0089d9;}.cls-1,.cls-2,.cls-3,.cls-4,.cls-5{fill-rule:evenodd;}.cls-2{fill:#d7d7d7;}.cls-3{fill:#39a6e6;}.cls-4{fill:#fff;}.cls-5{fill:#737373;}</style></defs><title>24</title><g id="Note_Blank" data-name="Note Blank"><path class="cls-1" d="M24,2a2.15,2.15,0,0,0-2-2H2A2.15,2.15,0,0,0,0,2c0,.46,0,19.49,0,20a2.15,2.15,0,0,0,2,2H18l6-6S24,2.49,24,2ZM16,22H2V2H22V16H16Zm2,0h0V18h4Z"/><path class="cls-2" d="M53,2a2.15,2.15,0,0,0-2-2H31a2.15,2.15,0,0,0-2,2c0,.46,0,19.49,0,20a2.15,2.15,0,0,0,2,2H47l6-6S53,2.49,53,2ZM45,22H31V2H51V16H45Zm2,0h0V18h4Z"/><path class="cls-3" d="M82,2a2.15,2.15,0,0,0-2-2H60a2.15,2.15,0,0,0-2,2c0,.46,0,19.49,0,20a2.15,2.15,0,0,0,2,2H76l6-6S82,2.49,82,2ZM74,22H60V2H80V16H74Zm2,0h0V18h4Z"/><path class="cls-4" d="M111,2a2.15,2.15,0,0,0-2-2H89a2.15,2.15,0,0,0-2,2c0,.46,0,19.49,0,20a2.15,2.15,0,0,0,2,2h16l6-6S111,2.49,111,2Zm-8,20H89V2h20V16h-6v6Zm2,0h0V18h4Z"/><path class="cls-5" d="M140,2a2.15,2.15,0,0,0-2-2H118a2.15,2.15,0,0,0-2,2c0,.46,0,19.49,0,20a2.15,2.15,0,0,0,2,2h16l6-6S140,2.49,140,2Zm-8,20H118V2h20V16h-6v6Zm2,0h0V18h4Z"/></g></svg>