<svg xmlns="http://www.w3.org/2000/svg" width="140" height="24" viewBox="0 0 140 24"><defs><style>.cls-1{fill:#39a6e6;}.cls-1,.cls-2,.cls-3,.cls-4,.cls-5{fill-rule:evenodd;}.cls-2{fill:#fff;}.cls-3{fill:#737373;}.cls-4{fill:#d7d7d7;}.cls-5{fill:#0089d9;}</style></defs><title>24</title><g id="New"><path class="cls-1" d="M74,0H60V24H80V6Zm3.59,6H74V2.49ZM62,22V2H72V8h6V22Z"/><path class="cls-2" d="M103,0H89V24h20V6Zm3.59,6H103V2.49ZM91,22V2h10V8h6V22Z"/><path class="cls-3" d="M132,0H118V24h20V6Zm3.59,6H132V2.49ZM120,22V2h10V8h6V22Z"/><path class="cls-4" d="M45,0H31V24H51V6Zm3.59,6H45V2.49ZM33,22V2H43V8h6V22Z"/><path class="cls-5" d="M16,0H2V24H22V6Zm3.59,6H16V2.49ZM4,22V2H14V8h6V22Z"/></g></svg>