<svg xmlns="http://www.w3.org/2000/svg" width="140" height="24" viewBox="0 0 140 24"><defs><style>.cls-1{fill:#0089d9;}.cls-2{fill:#d7d7d7;}.cls-3{fill:#39a6e6;}.cls-4{fill:#fff;}.cls-5{fill:#737373;}</style></defs><title>24</title><g id="Office_Building" data-name="Office Building"><path class="cls-1" d="M8,10h2V8H8Zm3,6h2V14H11ZM8,16h2V14H8Zm0-3h2V11H8Zm3-3h2V8H11Zm8-4V3H13V0H11V3H5V6H3V24H21V6ZM14,22H10V20h4Zm5,0H16V18H8v4H5V8H7V5H17V8h2ZM14,10h2V8H14Zm-3,3h2V11H11Zm3,3h2V14H14Zm0-3h2V11H14Z"/><path class="cls-2" d="M37,13h2V11H37Zm0-3h2V8H37Zm0,6h2V14H37Zm3,0h2V14H40Zm3-6h2V8H43Zm-3,3h2V11H40Zm8-7V3H42V0H40V3H34V6H32V24H50V6ZM43,22H39V20h4Zm5,0H45V18H37v4H34V8h2V5H46V8h2Zm-5-9h2V11H43Zm0,3h2V14H43Zm-3-6h2V8H40Z"/><path class="cls-3" d="M66,10h2V8H66Zm3,6h2V14H69Zm-3,0h2V14H66Zm0-3h2V11H66Zm6,3h2V14H72ZM77,6V3H71V0H69V3H63V6H61V24H79V6ZM72,22H68V20h4Zm5,0H74V18H66v4H63V8h2V5H75V8h2ZM72,10h2V8H72Zm-3,3h2V11H69Zm0-3h2V8H69Zm3,3h2V11H72Z"/><path class="cls-4" d="M98,16h2V14H98Zm-3-3h2V11H95Zm3,0h2V11H98Zm-3,3h2V14H95Zm0-6h2V8H95Zm6,0h2V8h-2Zm5-4V3h-6V0H98V3H92V6H90V24h18V6Zm-5,16H97V20h4Zm5,0h-3V18H95v4H92V8h2V5h10V8h2ZM98,10h2V8H98Zm3,6h2V14h-2Zm0-3h2V11h-2Z"/><path class="cls-5" d="M124,10h2V8h-2Zm0,3h2V11h-2Zm3,3h2V14h-2Zm-3,0h2V14h-2ZM135,6V3h-6V0h-2V3h-6V6h-2V24h18V6Zm-5,16h-4V20h4Zm5,0h-3V18h-8v4h-3V8h2V5h10V8h2Zm-5-12h2V8h-2Zm-3,3h2V11h-2Zm3,0h2V11h-2Zm0,3h2V14h-2Zm-3-6h2V8h-2Z"/></g></svg>