<svg xmlns="http://www.w3.org/2000/svg" width="140" height="24" viewBox="0 0 140 24"><defs><style>.cls-1{fill:#0089d9;}.cls-1,.cls-2,.cls-3,.cls-4,.cls-5{fill-rule:evenodd;}.cls-2{fill:#d7d7d7;}.cls-3{fill:#39a6e6;}.cls-4{fill:#fff;}.cls-5{fill:#737373;}</style></defs><title>24</title><g id="Open"><path class="cls-1" d="M23,8V6a2.15,2.15,0,0,0-2-2H12.48L10.86,2.12A2.37,2.37,0,0,0,8.5,1h-5A2.29,2.29,0,0,0,1,3.56V8A1,1,0,0,0,0,9L1,19a3,3,0,0,0,3,3H20a3,3,0,0,0,3-3L24,9A1,1,0,0,0,23,8ZM3,4A1,1,0,0,1,4,3H8a2.71,2.71,0,0,1,2,1l2,2h8a1,1,0,0,1,1,1V8H3ZM21,19c0,1.1-.9,1-2,1H5c-1.1,0-2,.1-2-1L2,10A1,1,0,0,1,3,9H21a1,1,0,0,1,1,1Z"/><path class="cls-2" d="M52,8V6a2.15,2.15,0,0,0-2-2H41.48L39.86,2.12A2.37,2.37,0,0,0,37.5,1h-5A2.29,2.29,0,0,0,30,3.56V8a1,1,0,0,0-1,1l1,10a3,3,0,0,0,3,3H49a3,3,0,0,0,3-3L53,9A1,1,0,0,0,52,8ZM32,4a1,1,0,0,1,1-1h4a2.71,2.71,0,0,1,2,1l2,2h8a1,1,0,0,1,1,1V8H32ZM50,19c0,1.1-.9,1-2,1H34c-1.1,0-2,.1-2-1l-1-9a1,1,0,0,1,1-1H50a1,1,0,0,1,1,1Z"/><path class="cls-3" d="M81,8V6a2.15,2.15,0,0,0-2-2H70.48L68.86,2.12A2.37,2.37,0,0,0,66.5,1h-5A2.29,2.29,0,0,0,59,3.56V8a1,1,0,0,0-1,1l1,10a3,3,0,0,0,3,3H78a3,3,0,0,0,3-3L82,9A1,1,0,0,0,81,8ZM61,4a1,1,0,0,1,1-1h4a2.71,2.71,0,0,1,2,1l2,2h8a1,1,0,0,1,1,1V8H61ZM79,19c0,1.1-.9,1-2,1H63c-1.1,0-2,.1-2-1l-1-9a1,1,0,0,1,1-1H79a1,1,0,0,1,1,1Z"/><path class="cls-4" d="M110,8V6a2.15,2.15,0,0,0-2-2H99.48L97.86,2.12A2.37,2.37,0,0,0,95.5,1h-5A2.29,2.29,0,0,0,88,3.56V8a1,1,0,0,0-1,1l1,10a3,3,0,0,0,3,3h16a3,3,0,0,0,3-3l1-10A1,1,0,0,0,110,8ZM90,4a1,1,0,0,1,1-1h4a2.71,2.71,0,0,1,2,1l2,2h8a1,1,0,0,1,1,1V8H90Zm18,15c0,1.1-.9,1-2,1H92c-1.1,0-2,.1-2-1l-1-9a1,1,0,0,1,1-1h18a1,1,0,0,1,1,1Z"/><path class="cls-5" d="M139,8V6a2.15,2.15,0,0,0-2-2h-8.52l-1.62-1.88A2.37,2.37,0,0,0,124.5,1h-5A2.29,2.29,0,0,0,117,3.56V8a1,1,0,0,0-1,1l1,10a3,3,0,0,0,3,3h16a3,3,0,0,0,3-3l1-10A1,1,0,0,0,139,8ZM119,4a1,1,0,0,1,1-1h4a2.71,2.71,0,0,1,2,1l2,2h8a1,1,0,0,1,1,1V8H119Zm18,15c0,1.1-.9,1-2,1H121c-1.1,0-2,.1-2-1l-1-9a1,1,0,0,1,1-1h18a1,1,0,0,1,1,1Z"/></g></svg>