<svg xmlns="http://www.w3.org/2000/svg" width="140" height="24" viewBox="0 0 140 24"><defs><style>.cls-1{fill:#39a6e6;}.cls-1,.cls-2,.cls-3,.cls-4,.cls-5{fill-rule:evenodd;}.cls-2{fill:#fff;}.cls-3{fill:#737373;}.cls-4{fill:#d7d7d7;}.cls-5{fill:#0089d9;}</style></defs><title>24</title><g id="Print"><path class="cls-1" d="M78,8a1,1,0,1,0,1,1A1,1,0,0,0,78,8Zm2-3H78V0H62V5H60a2,2,0,0,0-2,2v8a2,2,0,0,0,2,2h2v7H74l4-4V17h2a2,2,0,0,0,2-2V7A2,2,0,0,0,80,5ZM64,2H76V5H64ZM76,19H73v3H64V12H76Zm4-5a1,1,0,0,1-1,1H78V11H62v4H61a1,1,0,0,1-1-1V8a1,1,0,0,1,1-1H79a1,1,0,0,1,1,1Z"/><path class="cls-2" d="M107,8a1,1,0,1,0,1,1A1,1,0,0,0,107,8Zm2-3h-2V0H91V5H89a2,2,0,0,0-2,2v8a2,2,0,0,0,2,2h2v7h12l4-4V17h2a2,2,0,0,0,2-2V7A2,2,0,0,0,109,5ZM93,2h12V5H93Zm12,17h-3v3H93V12h12Zm4-5a1,1,0,0,1-1,1h-1V11H91v4H90a1,1,0,0,1-1-1V8a1,1,0,0,1,1-1h18a1,1,0,0,1,1,1Z"/><path class="cls-3" d="M136,8a1,1,0,1,0,1,1A1,1,0,0,0,136,8Zm2-3h-2V0H120V5h-2a2,2,0,0,0-2,2v8a2,2,0,0,0,2,2h2v7h12l4-4V17h2a2,2,0,0,0,2-2V7A2,2,0,0,0,138,5ZM122,2h12V5H122Zm12,17h-3v3h-9V12h12Zm4-5a1,1,0,0,1-1,1h-1V11H120v4h-1a1,1,0,0,1-1-1V8a1,1,0,0,1,1-1h18a1,1,0,0,1,1,1Z"/><path class="cls-4" d="M51,5H49V0H33V5H31a2,2,0,0,0-2,2v8a2,2,0,0,0,2,2h2v7H45l4-4V17h2a2,2,0,0,0,2-2V7A2,2,0,0,0,51,5ZM35,2H47V5H35ZM47,19H44v3H35V12H47Zm4-5a1,1,0,0,1-1,1H49V11H33v4H32a1,1,0,0,1-1-1V8a1,1,0,0,1,1-1H50a1,1,0,0,1,1,1ZM49,8a1,1,0,1,0,1,1A1,1,0,0,0,49,8Z"/><path class="cls-5" d="M20,8a1,1,0,1,0,1,1A1,1,0,0,0,20,8Zm2-3H20V0H4V5H2A2,2,0,0,0,0,7v8a2,2,0,0,0,2,2H4v7H16l4-4V17h2a2,2,0,0,0,2-2V7A2,2,0,0,0,22,5ZM6,2H18V5H6ZM18,19H15v3H6V12H18Zm4-5a1,1,0,0,1-1,1H20V11H4v4H3a1,1,0,0,1-1-1V8A1,1,0,0,1,3,7H21a1,1,0,0,1,1,1Z"/></g></svg>