<svg xmlns="http://www.w3.org/2000/svg" width="140" height="24" viewBox="0 0 140 24"><defs><style>.cls-1{fill:#0089d9;}.cls-1,.cls-2,.cls-3,.cls-4,.cls-5{fill-rule:evenodd;}.cls-2{fill:#d7d7d7;}.cls-3{fill:#39a6e6;}.cls-4{fill:#fff;}.cls-5{fill:#737373;}</style></defs><title>24</title><g id="Paste"><path class="cls-1" d="M5,15.5a.5.5,0,0,0,.5.5H10V15H5.5A.5.5,0,0,0,5,15.5Zm0-2a.5.5,0,0,0,.5.5H10V13H5.5A.5.5,0,0,0,5,13.5ZM19,7H11V24H24V12Zm1,3,1,1H20Zm2,12H13V9h5v4h4ZM2,5H3V3H4V6h9V3h1V5h1V6h2V3H13V2H10.95a2.5,2.5,0,0,0-4.9,0H4V3H0V22H10V20H2ZM8.47,1C9.3,1,10,1.51,10,2H7C7,1.55,7.64,1,8.47,1ZM5,11.5a.5.5,0,0,0,.5.5H10V11H5.5A.5.5,0,0,0,5,11.5Zm0-2a.5.5,0,0,0,.5.5H10V9H5.5A.5.5,0,0,0,5,9.5Z"/><path class="cls-2" d="M34,15.5a.5.5,0,0,0,.5.5H39V15H34.5A.5.5,0,0,0,34,15.5ZM31,5h1V3h1V6h9V3h1V5h1V6h2V3H42V2H39.95a2.5,2.5,0,0,0-4.9,0H33V3H29V22H39V20H31Zm6.47-4C38.3,1,39,1.52,39,2H36C36,1.55,36.64,1,37.47,1ZM34,13.5a.5.5,0,0,0,.5.5H39V13H34.5A.5.5,0,0,0,34,13.5Zm0-2a.5.5,0,0,0,.5.5H39V11H34.5A.5.5,0,0,0,34,11.5ZM48,7H40V24H53V12Zm1,3,1,1H49Zm2,12H42V9h5v4h4ZM34,9.5a.5.5,0,0,0,.5.5H39V9H34.5A.5.5,0,0,0,34,9.5Z"/><path class="cls-3" d="M63,13.5a.5.5,0,0,0,.5.5H68V13H63.5A.5.5,0,0,0,63,13.5Zm0,2a.5.5,0,0,0,.5.5H68V15H63.5A.5.5,0,0,0,63,15.5ZM60,5h1V3h1V6h9V3h1V5h1V6h2V3H71V2H68.95a2.5,2.5,0,0,0-4.9,0H62V3H58V22H68V20H60Zm6.47-4C67.3,1,68,1.52,68,2H65C65,1.55,65.64,1,66.47,1ZM63,9.5a.5.5,0,0,0,.5.5H68V9H63.5A.5.5,0,0,0,63,9.5ZM77,7H69V24H82V12Zm1,3,1,1H78Zm2,12H71V9h5v4h4ZM63,11.5a.5.5,0,0,0,.5.5H68V11H63.5A.5.5,0,0,0,63,11.5Z"/><path class="cls-4" d="M89,5h1V3h1V6h9V3h1V5h1V6h2V3h-4V2H98a2.5,2.5,0,0,0-4.9,0H91V3H87V22H97V20H89Zm6.47-4C96.34,1,97,1.52,97,2H94C94,1.55,94.68,1,95.51,1ZM92,13.5a.5.5,0,0,0,.5.5H97V13h-4.5A.5.5,0,0,0,92,13.5Zm0,2a.5.5,0,0,0,.5.5H97V15h-4.5A.5.5,0,0,0,92,15.5Zm0-4a.5.5,0,0,0,.5.5H97V11h-4.5A.5.5,0,0,0,92,11.5ZM106,7H98V24h13V12Zm1,3,1,1h-1Zm2,12h-9V9h5v4h4ZM92,9.5a.5.5,0,0,0,.5.5H97V9h-4.5A.5.5,0,0,0,92,9.5Z"/><path class="cls-5" d="M121,15.5a.5.5,0,0,0,.5.5H126V15h-4.5A.5.5,0,0,0,121,15.5Zm0-2a.5.5,0,0,0,.5.5H126V13h-4.5A.5.5,0,0,0,121,13.5ZM135,7h-8V24h13V12Zm1,3,1,1h-1Zm2,12h-9V9h5v4h4ZM118,5h1V3h1V6h9V3h1V5h1V6h2V3h-4V2h-2.05a2.5,2.5,0,0,0-4.9,0H120V3h-4V22h10V20h-8Zm6.47-4c.83,0,1.53.52,1.53,1h-3C123,1.55,123.64,1,124.47,1ZM121,11.5a.5.5,0,0,0,.5.5H126V11h-4.5A.5.5,0,0,0,121,11.5Zm0-2a.5.5,0,0,0,.5.5H126V9h-4.5A.5.5,0,0,0,121,9.5Z"/></g></svg>