<svg xmlns="http://www.w3.org/2000/svg" width="140" height="24" viewBox="0 0 140 24"><defs><style>.cls-1{fill:#0089d9;}.cls-1,.cls-2,.cls-3,.cls-4,.cls-5{fill-rule:evenodd;}.cls-2{fill:#d7d7d7;}.cls-3{fill:#39a6e6;}.cls-4{fill:#fff;}.cls-5{fill:#737373;}</style></defs><title>24</title><g id="Panel"><path class="cls-1" d="M0,0V24H24V0ZM2,22V3H8V22Zm20,0H9V3H22Z"/><path class="cls-2" d="M29,0V24H53V0Zm2,22V3h6V22Zm20,0H38V3H51Z"/><path class="cls-3" d="M58,0V24H82V0Zm2,22V3h6V22Zm20,0H67V3H80Z"/><path class="cls-4" d="M87,0V24h24V0Zm2,22V3h6V22Zm20,0H96V3h13Z"/><path class="cls-5" d="M116,0V24h24V0Zm2,22V3h6V22Zm20,0H125V3h13Z"/></g></svg>