<svg xmlns="http://www.w3.org/2000/svg" width="140" height="24" viewBox="0 0 140 24"><defs><style>.cls-1{fill:#0089d9;}.cls-1,.cls-2,.cls-3,.cls-4,.cls-5{fill-rule:evenodd;}.cls-2{fill:#d7d7d7;}.cls-3{fill:#39a6e6;}.cls-4{fill:#fff;}.cls-5{fill:#737373;}</style></defs><title>24</title><g id="Preview"><path class="cls-1" d="M12,4C5.45,4,.22,11.24,0,11.53v.94C.22,12.76,5.45,20,12,20s11.78-7.24,12-7.53v-.94C23.78,11.24,18.55,4,12,4ZM2,12A22.87,22.87,0,0,1,6.25,8a7,7,0,0,0-.08,7.89A23.67,23.67,0,0,1,2,12Zm10,6a6,6,0,1,1,6-6A6,6,0,0,1,12,18ZM17.78,16a7,7,0,0,0-.08-8A22.82,22.82,0,0,1,22,12,23.47,23.47,0,0,1,17.78,16ZM12,7.93a4,4,0,0,0-1.56.32A1.54,1.54,0,0,1,9.5,11a1.52,1.52,0,0,1-1.21-.61A4,4,0,1,0,12,7.93Z"/><path class="cls-2" d="M41,4c-6.55,0-11.78,7.24-12,7.53v.94c.22.29,5.45,7.53,12,7.53s11.78-7.24,12-7.53v-.94C52.78,11.24,47.55,4,41,4ZM31,12A22.87,22.87,0,0,1,35.25,8a7,7,0,0,0-.08,7.89A23.67,23.67,0,0,1,31,12Zm10,6a6,6,0,1,1,6-6A6,6,0,0,1,41,18ZM46.78,16a7,7,0,0,0-.08-8A22.82,22.82,0,0,1,51,12,23.47,23.47,0,0,1,46.78,16ZM41,7.93a4,4,0,0,0-1.56.32A1.54,1.54,0,0,1,38.5,11a1.52,1.52,0,0,1-1.21-.61A4,4,0,1,0,41,7.93Z"/><path class="cls-3" d="M70,4c-6.55,0-11.78,7.24-12,7.53v.94c.22.29,5.45,7.53,12,7.53s11.78-7.24,12-7.53v-.94C81.78,11.24,76.55,4,70,4ZM60,12A22.87,22.87,0,0,1,64.25,8a7,7,0,0,0-.08,7.89A23.67,23.67,0,0,1,60,12Zm10,6a6,6,0,1,1,6-6A6,6,0,0,1,70,18ZM75.78,16a7,7,0,0,0-.08-8A22.82,22.82,0,0,1,80,12,23.47,23.47,0,0,1,75.78,16ZM70,7.93a4,4,0,0,0-1.56.32A1.54,1.54,0,0,1,67.5,11a1.52,1.52,0,0,1-1.21-.61A4,4,0,1,0,70,7.93Z"/><path class="cls-4" d="M99,4c-6.55,0-11.78,7.24-12,7.53v.94c.22.29,5.45,7.53,12,7.53s11.78-7.24,12-7.53v-.94C110.78,11.24,105.55,4,99,4ZM89,12A22.87,22.87,0,0,1,93.25,8a7,7,0,0,0-.08,7.89A23.67,23.67,0,0,1,89,12Zm10,6a6,6,0,1,1,6-6A6,6,0,0,1,99,18Zm5.8-2.05a7,7,0,0,0-.08-8A22.82,22.82,0,0,1,109,12,23.47,23.47,0,0,1,104.78,16ZM99,7.93a4,4,0,0,0-1.56.32A1.54,1.54,0,0,1,96.5,11a1.52,1.52,0,0,1-1.21-.61A4,4,0,1,0,99,7.93Z"/><path class="cls-5" d="M128,7.93a4,4,0,0,0-1.56.32A1.54,1.54,0,0,1,125.5,11a1.52,1.52,0,0,1-1.21-.61A4,4,0,1,0,128,7.93ZM128,4c-6.55,0-11.78,7.24-12,7.53v.94c.22.29,5.45,7.53,12,7.53s11.78-7.24,12-7.53v-.94C139.78,11.24,134.55,4,128,4Zm-10,8A22.87,22.87,0,0,1,122.25,8a7,7,0,0,0-.08,7.89A23.67,23.67,0,0,1,118,12Zm10,6a6,6,0,1,1,6-6A6,6,0,0,1,128,18Zm5.8-2.05a7,7,0,0,0-.08-8A22.82,22.82,0,0,1,138,12,23.47,23.47,0,0,1,133.78,16Z"/></g></svg>