<svg xmlns="http://www.w3.org/2000/svg" width="141" height="24" viewBox="0 0 141 24"><defs><style>.cls-1{fill:#0089d9;}.cls-1,.cls-3,.cls-5,.cls-6,.cls-8{fill-rule:evenodd;}.cls-2{fill:#f28d00;}.cls-3,.cls-4{fill:#d7d7d7;}.cls-5{fill:#39a6e6;}.cls-6,.cls-7{fill:#fff;}.cls-8,.cls-9{fill:#737373;}</style></defs><title>24</title><g id="Office_PowerPoint" data-name="Office PowerPoint"><path class="cls-1" d="M17,.28V0H3V24H23V6.25ZM20.59,6H17V2.49ZM5,22V2H15V8h6V22Z"/><path class="cls-2" d="M13,9.91h0A5,5,0,1,0,18,15H13Z"/><path class="cls-2" d="M14,14h5a4.88,4.88,0,0,0-5-5Z"/><path class="cls-3" d="M46,.28V0H32V24H52V6.25ZM49.59,6H46V2.49ZM34,22V2H44V8h6V22Z"/><path class="cls-4" d="M42,9.91h0A5,5,0,1,0,47,15H42Z"/><path class="cls-4" d="M43,14h5a4.88,4.88,0,0,0-5-5Z"/><path class="cls-5" d="M75,.28V0H61V24H81V6.25ZM78.59,6H75V2.49ZM63,22V2H73V8h6V22Z"/><path class="cls-2" d="M71,9.91h0A5,5,0,1,0,76,15H71Z"/><path class="cls-2" d="M72,14h5a4.88,4.88,0,0,0-5-5Z"/><path class="cls-6" d="M104,.28V0H90V24h20V6.25ZM107.63,6H104V2.49ZM92,22V2h10V8h6V22Z"/><path class="cls-7" d="M100,9.91h0A5,5,0,1,0,105,15h-5Z"/><path class="cls-7" d="M101,14h5a4.88,4.88,0,0,0-5-5Z"/><path class="cls-8" d="M133,.28V0H119V24h20V6.25ZM136.59,6H133V2.49ZM121,22V2h10V8h6V22Z"/><path class="cls-9" d="M129,9.91h0A5,5,0,1,0,134,15h-5Z"/><path class="cls-9" d="M130,14h5a4.88,4.88,0,0,0-5-5Z"/></g></svg>