<svg xmlns="http://www.w3.org/2000/svg" width="140" height="24" viewBox="0 0 140 24"><defs><style>.cls-1{fill:#0089d9;}.cls-1,.cls-2,.cls-3,.cls-4,.cls-5{fill-rule:evenodd;}.cls-2{fill:#d7d7d7;}.cls-3{fill:#39a6e6;}.cls-4{fill:#fff;}.cls-5{fill:#737373;}</style></defs><title>24</title><g id="Platform_Mobile" data-name="Platform Mobile"><path id="Normal" class="cls-1" d="M17,24H7a2.15,2.15,0,0,1-2-2V2A2.15,2.15,0,0,1,7,0H17a2.15,2.15,0,0,1,2,2V22A2.15,2.15,0,0,1,17,24ZM17,3c0-1-.71-1-1-1H8C7.71,2,7,2,7,3V5H17Zm0,3H7V17H17Zm0,12H7v3c0,1,.71,1,1,1h8c.29,0,1,0,1-1Zm-5,4a2,2,0,1,1,2-2A2,2,0,0,1,12,22Zm0-3.47A1.49,1.49,0,1,0,13.51,20,1.5,1.5,0,0,0,12,18.52ZM11,3h2c1,0,1,.21,1,.49S14,4,13,4H11c-1,0-1-.24-1-.51S10,3,11,3Z"/><path id="Disabled" class="cls-2" d="M46,24H36a2.15,2.15,0,0,1-2-2V2a2.15,2.15,0,0,1,2-2H46a2.15,2.15,0,0,1,2,2V22A2.15,2.15,0,0,1,46,24ZM46,3c0-1-.71-1-1-1H37c-.29,0-1,0-1,1V5H46Zm0,3H36V17H46Zm0,12H36v3c0,1,.71,1,1,1h8c.29,0,1,0,1-1Zm-5,4a2,2,0,1,1,2-2A2,2,0,0,1,41,22Zm0-3.47A1.49,1.49,0,1,0,42.51,20,1.5,1.5,0,0,0,41,18.52ZM40,3h2c1,0,1,.21,1,.49S43,4,42,4H40c-1,0-1-.24-1-.51S39,3,40,3Z"/><path id="Hover" class="cls-3" d="M75,24H65a2.15,2.15,0,0,1-2-2V2a2.15,2.15,0,0,1,2-2H75a2.15,2.15,0,0,1,2,2V22A2.15,2.15,0,0,1,75,24ZM75,3c0-1-.71-1-1-1H66c-.29,0-1,0-1,1V5H75Zm0,3H65V17H75Zm0,12H65v3c0,1,.71,1,1,1h8c.29,0,1,0,1-1Zm-5,4a2,2,0,1,1,2-2A2,2,0,0,1,70,22Zm0-3.47A1.49,1.49,0,1,0,71.51,20,1.5,1.5,0,0,0,70,18.52ZM69,3h2c1,0,1,.21,1,.49S72,4,71,4H69c-1,0-1-.24-1-.51S68,3,69,3Z"/><path id="Hover-2" data-name="Hover" class="cls-4" d="M104,24H94a2.15,2.15,0,0,1-2-2V2a2.15,2.15,0,0,1,2-2h10a2.15,2.15,0,0,1,2,2V22A2.15,2.15,0,0,1,104,24Zm0-21c0-1-.71-1-1-1H95c-.29,0-1,0-1,1V5h10Zm0,3H94V17h10Zm0,12H94v3c0,1,.71,1,1,1h8c.29,0,1,0,1-1Zm-5,4a2,2,0,1,1,2-2A2,2,0,0,1,99,22Zm0-3.47A1.49,1.49,0,1,0,100.53,20,1.5,1.5,0,0,0,99,18.52ZM98,3h2c1,0,1,.21,1,.49S101,4,100,4H98c-1,0-1-.24-1-.51S97,3,98,3Z"/><path id="Hover-3" data-name="Hover" class="cls-5" d="M133,24H123a2.15,2.15,0,0,1-2-2V2a2.15,2.15,0,0,1,2-2h10a2.15,2.15,0,0,1,2,2V22A2.15,2.15,0,0,1,133,24Zm0-21c0-1-.71-1-1-1h-8c-.29,0-1,0-1,1V5h10Zm0,3H123V17h10Zm0,12H123v3c0,1,.71,1,1,1h8c.29,0,1,0,1-1Zm-5,4a2,2,0,1,1,2-2A2,2,0,0,1,128,22Zm0-3.47A1.49,1.49,0,1,0,129.51,20,1.5,1.5,0,0,0,128,18.52ZM127,3h2c1,0,1,.21,1,.49S130,4,129,4h-2c-1,0-1-.24-1-.51S126,3,127,3Z"/></g></svg>