<svg xmlns="http://www.w3.org/2000/svg" width="140" height="24" viewBox="0 0 140 24"><defs><style>.cls-1{fill:#0089d9;}.cls-1,.cls-2,.cls-3,.cls-4,.cls-5{fill-rule:evenodd;}.cls-2{fill:#d7d7d7;}.cls-3{fill:#39a6e6;}.cls-4{fill:#fff;}.cls-5{fill:#737373;}</style></defs><title>24</title><g id="Phone"><path class="cls-1" d="M23.52,22.33a5.88,5.88,0,0,1-1.07.13A2,2,0,0,0,23.08,21a2.08,2.08,0,0,0-4.15,0,1.93,1.93,0,0,0,.39,1.15,1.5,1.5,0,0,1-1.7.11,7.7,7.7,0,0,0,.78-.68c-.36-2.44-2.9-5.3-5.31-6.5a8.24,8.24,0,0,0-2.78,2.77C8.8,17.35,8,15.71,7,14H7C6,12.37,5,10.6,5.27,9A8.24,8.24,0,0,0,9.06,7.85C9.23,5.16,8,1.53,6,0c-4.5,1.21-9,6.9-3.68,16.39h0c4.53,7.66,10.07,8.51,13.77,6.8a2.56,2.56,0,0,0,4-.26,2.47,2.47,0,0,0,3.76.28C24.13,23.14,23.88,22.54,23.52,22.33ZM4,15.44v0C1.07,10.32,1,4.36,5.27,2.16A7.11,7.11,0,0,1,7.21,6.4c-.67.71-2.75.85-4,.74a10.77,10.77,0,0,0,1.95,7.72s0,0,0,0a10.75,10.75,0,0,0,5.69,5.63c.54-1.17,1.71-2.9,2.66-3.12a7.11,7.11,0,0,1,2.7,3.8C12.08,23.8,7,20.62,4,15.44Zm17,6.17a.62.62,0,1,1,.62-.62A.62.62,0,0,1,21,21.62Z"/><path class="cls-2" d="M52.59,22.33a5.88,5.88,0,0,1-1.07.13A2,2,0,0,0,52.15,21,2.08,2.08,0,0,0,48,21a1.93,1.93,0,0,0,.39,1.15,1.5,1.5,0,0,1-1.7.11,7.7,7.7,0,0,0,.78-.68c-.36-2.44-2.9-5.3-5.31-6.5a8.32,8.32,0,0,0-2.81,2.77C37.84,17.35,37,15.71,36,14h0c-1-1.64-2-3.41-1.69-5a8.32,8.32,0,0,0,3.81-1.16c.16-2.68-1.08-6.31-3-7.85-4.5,1.21-8.95,6.9-3.68,16.39h0C36,24.06,41.5,24.91,45.2,23.2a2.56,2.56,0,0,0,4-.26,2.47,2.47,0,0,0,3.76.28C53.2,23.14,53,22.54,52.59,22.33ZM33.08,15.44v0c-2.93-5.11-3-11.06,1.27-13.27A7.11,7.11,0,0,1,36.28,6.4c-.67.71-2.75.85-4,.74a10.77,10.77,0,0,0,1.95,7.72s0,0,0,0a10.75,10.75,0,0,0,5.69,5.63c.54-1.17,1.71-2.9,2.66-3.12a7.11,7.11,0,0,1,2.7,3.8C41.15,23.8,36,20.62,33.08,15.44Zm17,6.17a.62.62,0,1,1,.62-.62A.62.62,0,0,1,50.07,21.62Z"/><path class="cls-3" d="M81.54,22.33a5.88,5.88,0,0,1-1.07.13A2,2,0,0,0,81.11,21,2.08,2.08,0,0,0,77,21a1.93,1.93,0,0,0,.39,1.15,1.5,1.5,0,0,1-1.7.11,7.7,7.7,0,0,0,.78-.68c-.36-2.44-2.9-5.3-5.31-6.5a8.27,8.27,0,0,0-2.79,2.77C66.81,17.35,66,15.71,65,14h0c-1-1.64-2-3.41-1.71-5a8.27,8.27,0,0,0,3.79-1.16c.16-2.68-1.08-6.31-3-7.85-4.5,1.21-8.95,6.9-3.68,16.39h0c4.53,7.66,10.07,8.51,13.77,6.8a2.56,2.56,0,0,0,4-.26,2.47,2.47,0,0,0,3.76.28C82.15,23.14,81.91,22.54,81.54,22.33ZM62,15.44v0C59.1,10.32,59,4.36,63.29,2.16A7.11,7.11,0,0,1,65.23,6.4c-.67.71-2.75.85-4,.74a10.77,10.77,0,0,0,1.95,7.72s0,0,0,0a10.75,10.75,0,0,0,5.69,5.63c.54-1.17,1.71-2.9,2.66-3.12a7.11,7.11,0,0,1,2.7,3.8C70.11,23.8,65,20.62,62,15.44Zm17,6.17a.62.62,0,1,1,.62-.62A.62.62,0,0,1,79,21.62Z"/><path class="cls-4" d="M110.55,22.33a5.88,5.88,0,0,1-1.07.13,2,2,0,0,0,.63-1.43A2.08,2.08,0,0,0,106,21a1.93,1.93,0,0,0,.39,1.15,1.5,1.5,0,0,1-1.7.11,7.7,7.7,0,0,0,.78-.68c-.36-2.44-2.9-5.3-5.31-6.5a8.27,8.27,0,0,0-2.79,2.77C95.82,17.35,95,15.71,94,14h0c-1-1.64-2-3.41-1.71-5a8.28,8.28,0,0,0,3.8-1.16c.16-2.68-1.08-6.31-3-7.85-4.5,1.21-8.95,6.9-3.68,16.39h0c4.53,7.66,10.07,8.51,13.77,6.8a2.56,2.56,0,0,0,4-.26,2.47,2.47,0,0,0,3.76.28C111.16,23.14,110.91,22.54,110.55,22.33ZM91,15.44v0C88.1,10.32,88,4.36,92.3,2.16A7.11,7.11,0,0,1,94.24,6.4c-.67.71-2.75.85-4,.74a10.77,10.77,0,0,0,1.95,7.72s0,0,0,0a10.75,10.75,0,0,0,5.69,5.63c.54-1.17,1.71-2.9,2.66-3.12a7.11,7.11,0,0,1,2.7,3.8C99.11,23.8,94,20.62,91,15.44Zm17,6.17a.62.62,0,1,1,.62-.62A.62.62,0,0,1,108,21.62Z"/><path class="cls-5" d="M139.54,22.33a5.88,5.88,0,0,1-1.07.13,2,2,0,0,0,.63-1.43A2.08,2.08,0,0,0,135,21a1.93,1.93,0,0,0,.39,1.15,1.5,1.5,0,0,1-1.7.11,7.7,7.7,0,0,0,.78-.68c-.36-2.44-2.9-5.3-5.31-6.5a8.27,8.27,0,0,0-2.79,2.77C124.81,17.35,124,15.71,123,14h0c-1-1.64-2-3.41-1.71-5a8.27,8.27,0,0,0,3.79-1.16c.16-2.68-1.08-6.31-3-7.85-4.5,1.21-8.95,6.9-3.68,16.39h0c4.53,7.66,10.07,8.51,13.77,6.8a2.56,2.56,0,0,0,4-.26,2.47,2.47,0,0,0,3.76.28C140.15,23.14,139.91,22.54,139.54,22.33ZM120,15.44v0c-2.93-5.11-3-11.06,1.27-13.27a7.11,7.11,0,0,1,1.94,4.24c-.67.71-2.75.85-4,.74a10.77,10.77,0,0,0,1.95,7.72s0,0,0,0a10.75,10.75,0,0,0,5.69,5.63c.54-1.17,1.71-2.9,2.66-3.12a7.11,7.11,0,0,1,2.7,3.8C128.11,23.8,123,20.62,120,15.44Zm17,6.17a.62.62,0,1,1,.62-.62A.62.62,0,0,1,137,21.62Z"/></g></svg>