<svg xmlns="http://www.w3.org/2000/svg" width="140" height="24" viewBox="0 0 140 24"><defs><style>.cls-1{fill:#0089d9;}.cls-1,.cls-3,.cls-5,.cls-7,.cls-9{fill-rule:evenodd;}.cls-2{fill:#d6565a;}.cls-3,.cls-4{fill:#d7d7d7;}.cls-5{fill:#39a6e6;}.cls-6{fill:#e57377;}.cls-7,.cls-8{fill:#fff;}.cls-10,.cls-9{fill:#737373;}</style></defs><title>24</title><g id="PDF"><path class="cls-1" d="M16,.28V0H2V24H22V6.25ZM19.59,6H16V2.49ZM4,22V2H14V8h6V22Z"/><path class="cls-2" d="M5.95,20.19a1.08,1.08,0,0,1-.49-.12l-.34-.17a.58.58,0,0,1-.23-.65c.14-.67.8-1.16,2-1.9l.79-.43.13.18c.4-.67.85-1.48,1.37-2.48l.07-.13c.4-.78.85-1.66,1.21-2.54l.13-.31c-.51-1.94-.79-3.44-.51-4.45A.86.86,0,0,1,11,6.65h.2c.61,0,.68.65.71.94a5,5,0,0,1-.1,1.13l-.24-.15a2.2,2.2,0,0,0-.13-.9,2,2,0,0,0-.28-.48.6.6,0,0,0,0,.12,5.06,5.06,0,0,0-.07.82,8.31,8.31,0,0,0,.2,1.69l.31-1.21.24.06A16.53,16.53,0,0,1,11.73,11l-.07.28a7.52,7.52,0,0,0,1.86,2.88,5.5,5.5,0,0,0,1,.71,3.33,3.33,0,0,0,2.11.09h.12a8.41,8.41,0,0,1,1.88.2c.2,0,.23.32.25.56a1.51,1.51,0,0,1,0,.32L18.58,16l.28.13a2.1,2.1,0,0,1-.16.5.89.89,0,0,1-.46.32,1.73,1.73,0,0,1-.44,0,8.73,8.73,0,0,1-3.69-1.17c-1.6.24-3.48.8-5,1.19C7.7,19.45,6.83,20.19,5.95,20.19Zm1.4-2.38a5.22,5.22,0,0,0-1.52,1.62c.4-.22.82-.45,1.66-1.74ZM16,15.61a6.44,6.44,0,0,0,2.09.55.68.68,0,0,0,.27,0A.76.76,0,0,0,18.5,16h0a1.39,1.39,0,0,0-.54-.27,4.12,4.12,0,0,0-1.16-.12Zm-4.85-2.77a21.32,21.32,0,0,1-1,2.26l-.56,1a8.38,8.38,0,0,1,3.54-1L12.88,15A7.7,7.7,0,0,1,11.15,12.84Z"/><path class="cls-2" d="M6.09,20a1.08,1.08,0,0,1-.49-.12l-.34-.17A.58.58,0,0,1,5,19.12c.14-.67.8-1.16,2-1.9l.79-.43L8,17c.4-.67.85-1.48,1.37-2.48l.07-.13c.4-.78.85-1.66,1.21-2.54l.13-.3c-.51-1.94-.79-3.44-.51-4.45a.87.87,0,0,1,.88-.56h.2c.61,0,.68.65.71.94a5,5,0,0,1-.1,1.13l-.24-.15a2.2,2.2,0,0,0-.13-.9,2,2,0,0,0-.28-.48.59.59,0,0,0,0,.12,5.07,5.07,0,0,0-.07.82,8.33,8.33,0,0,0,.2,1.69l.31-1.21.24.06a16.59,16.59,0,0,1-.05,2.33l-.07.28A7.52,7.52,0,0,0,13.67,14a5.51,5.51,0,0,0,1,.71,3.34,3.34,0,0,0,2.11.09h.12a8.42,8.42,0,0,1,1.88.2c.2,0,.23.32.25.56a1.51,1.51,0,0,1,0,.32l-.28-.07L19,16a2.11,2.11,0,0,1-.16.5.89.89,0,0,1-.46.32,1.74,1.74,0,0,1-.44,0,8.74,8.74,0,0,1-3.69-1.17c-1.6.24-3.48.8-5,1.19C7.84,19.3,7,20,6.09,20Zm1.4-2.39A5.23,5.23,0,0,0,6,19.28c.4-.22.83-.45,1.66-1.74Zm8.65-2.2a6.43,6.43,0,0,0,2.09.55.68.68,0,0,0,.27,0,.75.75,0,0,0,.15-.15h0a1.38,1.38,0,0,0-.54-.27,4.09,4.09,0,0,0-1.16-.12ZM11.29,12.7a21.33,21.33,0,0,1-1,2.26l-.56,1a8.37,8.37,0,0,1,3.54-1L13,14.82A7.69,7.69,0,0,1,11.29,12.7Z"/><path class="cls-3" d="M45,.28V0H31V24H51V6.25ZM48.59,6H45V2.49ZM33,22V2H43V8h6V22Z"/><path class="cls-4" d="M34.95,20.19a1.08,1.08,0,0,1-.49-.12l-.34-.17a.58.58,0,0,1-.23-.65c.14-.67.8-1.16,2-1.9l.79-.43.13.18c.4-.67.85-1.48,1.37-2.48l.07-.13c.4-.78.85-1.66,1.21-2.54l.13-.31c-.51-1.94-.79-3.44-.51-4.45A.86.86,0,0,1,40,6.65h.2c.61,0,.68.65.71.94a5,5,0,0,1-.1,1.13l-.24-.15a2.2,2.2,0,0,0-.13-.9,2,2,0,0,0-.28-.48.6.6,0,0,0,0,.12,5.06,5.06,0,0,0-.07.82,8.31,8.31,0,0,0,.2,1.69l.31-1.21.24.06A16.53,16.53,0,0,1,40.73,11l-.07.28a7.52,7.52,0,0,0,1.86,2.88,5.5,5.5,0,0,0,1,.71,3.33,3.33,0,0,0,2.11.09h.12a8.41,8.41,0,0,1,1.88.2c.2,0,.23.32.25.56a1.51,1.51,0,0,1,0,.32L47.58,16l.28.13a2.1,2.1,0,0,1-.16.5.89.89,0,0,1-.46.32,1.73,1.73,0,0,1-.44,0,8.73,8.73,0,0,1-3.69-1.17c-1.6.24-3.48.8-5,1.19C36.7,19.45,35.83,20.19,34.95,20.19Zm1.4-2.38a5.22,5.22,0,0,0-1.52,1.62c.4-.22.82-.45,1.66-1.74ZM45,15.61a6.44,6.44,0,0,0,2.09.55.68.68,0,0,0,.27,0A.76.76,0,0,0,47.5,16h0a1.39,1.39,0,0,0-.54-.27,4.12,4.12,0,0,0-1.16-.12Zm-4.85-2.77a21.32,21.32,0,0,1-1,2.26l-.56,1a8.38,8.38,0,0,1,3.54-1L41.88,15A7.7,7.7,0,0,1,40.15,12.84Z"/><path class="cls-4" d="M35.09,20a1.08,1.08,0,0,1-.49-.12l-.34-.17a.58.58,0,0,1-.23-.65c.14-.67.8-1.16,2-1.9l.79-.43L37,17c.4-.67.85-1.48,1.37-2.48l.07-.13c.4-.78.85-1.66,1.21-2.54l.13-.3c-.51-1.94-.79-3.44-.51-4.45a.87.87,0,0,1,.88-.56h.2c.61,0,.68.65.71.94a5,5,0,0,1-.1,1.13l-.24-.15a2.2,2.2,0,0,0-.13-.9,2,2,0,0,0-.28-.48.59.59,0,0,0,0,.12,5.07,5.07,0,0,0-.07.82,8.33,8.33,0,0,0,.2,1.69l.31-1.21.24.06a16.59,16.59,0,0,1-.05,2.33l-.07.28A7.52,7.52,0,0,0,42.67,14a5.51,5.51,0,0,0,1,.71,3.34,3.34,0,0,0,2.11.09h.12a8.42,8.42,0,0,1,1.88.2c.2,0,.23.32.25.56a1.51,1.51,0,0,1,0,.32l-.28-.07L48,16a2.11,2.11,0,0,1-.16.5.89.89,0,0,1-.46.32,1.74,1.74,0,0,1-.44,0,8.74,8.74,0,0,1-3.69-1.17c-1.6.24-3.48.8-5,1.19C36.84,19.3,36,20,35.09,20Zm1.4-2.39A5.23,5.23,0,0,0,35,19.28c.4-.22.83-.45,1.66-1.74Zm8.65-2.2a6.43,6.43,0,0,0,2.09.55.68.68,0,0,0,.27,0,.75.75,0,0,0,.15-.15h0a1.38,1.38,0,0,0-.54-.27,4.09,4.09,0,0,0-1.16-.12ZM40.29,12.7a21.33,21.33,0,0,1-1,2.26l-.56,1a8.37,8.37,0,0,1,3.54-1L42,14.82A7.69,7.69,0,0,1,40.29,12.7Z"/><path class="cls-5" d="M74,.28V0H60V24H80V6.25ZM77.59,6H74V2.49ZM62,22V2H72V8h6V22Z"/><path class="cls-6" d="M63.95,20.19a1.08,1.08,0,0,1-.49-.12l-.34-.17a.58.58,0,0,1-.23-.65c.14-.67.8-1.16,2-1.9l.79-.43.13.18c.4-.67.85-1.48,1.37-2.48l.07-.13c.4-.78.85-1.66,1.21-2.54l.13-.31c-.51-1.94-.79-3.44-.51-4.45A.86.86,0,0,1,69,6.65h.2c.61,0,.68.65.71.94a5,5,0,0,1-.1,1.13l-.24-.15a2.2,2.2,0,0,0-.13-.9,2,2,0,0,0-.28-.48.6.6,0,0,0,0,.12,5.06,5.06,0,0,0-.07.82,8.31,8.31,0,0,0,.2,1.69l.31-1.21.24.06A16.53,16.53,0,0,1,69.73,11l-.07.28a7.52,7.52,0,0,0,1.86,2.88,5.5,5.5,0,0,0,1,.71,3.33,3.33,0,0,0,2.11.09h.12a8.41,8.41,0,0,1,1.88.2c.2,0,.23.32.25.56a1.51,1.51,0,0,1,0,.32L76.58,16l.28.13a2.1,2.1,0,0,1-.16.5.89.89,0,0,1-.46.32,1.73,1.73,0,0,1-.44,0,8.73,8.73,0,0,1-3.69-1.17c-1.6.24-3.48.8-5,1.19C65.7,19.45,64.83,20.19,63.95,20.19Zm1.4-2.38a5.22,5.22,0,0,0-1.52,1.62c.4-.22.82-.45,1.66-1.74ZM74,15.61a6.44,6.44,0,0,0,2.09.55.68.68,0,0,0,.27,0A.76.76,0,0,0,76.5,16h0a1.39,1.39,0,0,0-.54-.27,4.12,4.12,0,0,0-1.16-.12Zm-4.85-2.77a21.32,21.32,0,0,1-1,2.26l-.56,1a8.38,8.38,0,0,1,3.54-1L70.88,15A7.7,7.7,0,0,1,69.15,12.84Z"/><path class="cls-6" d="M64.09,20a1.08,1.08,0,0,1-.49-.12l-.34-.17a.58.58,0,0,1-.23-.65c.14-.67.8-1.16,2-1.9l.79-.43L66,17c.4-.67.85-1.48,1.37-2.48l.07-.13c.4-.78.85-1.66,1.21-2.54l.13-.3c-.51-1.94-.79-3.44-.51-4.45a.87.87,0,0,1,.88-.56h.2c.61,0,.68.65.71.94a5,5,0,0,1-.1,1.13l-.24-.15a2.2,2.2,0,0,0-.13-.9,2,2,0,0,0-.28-.48.59.59,0,0,0,0,.12,5.07,5.07,0,0,0-.07.82,8.33,8.33,0,0,0,.2,1.69l.31-1.21.24.06a16.59,16.59,0,0,1-.05,2.33l-.07.28A7.52,7.52,0,0,0,71.67,14a5.51,5.51,0,0,0,1,.71,3.34,3.34,0,0,0,2.11.09h.12a8.42,8.42,0,0,1,1.88.2c.2,0,.23.32.25.56a1.51,1.51,0,0,1,0,.32l-.28-.07L77,16a2.11,2.11,0,0,1-.16.5.89.89,0,0,1-.46.32,1.74,1.74,0,0,1-.44,0,8.74,8.74,0,0,1-3.69-1.17c-1.6.24-3.48.8-5,1.19C65.84,19.3,65,20,64.09,20Zm1.4-2.39A5.23,5.23,0,0,0,64,19.28c.4-.22.83-.45,1.66-1.74Zm8.65-2.2a6.43,6.43,0,0,0,2.09.55.68.68,0,0,0,.27,0,.75.75,0,0,0,.15-.15h0a1.38,1.38,0,0,0-.54-.27,4.09,4.09,0,0,0-1.16-.12ZM69.29,12.7a21.33,21.33,0,0,1-1,2.26l-.56,1a8.37,8.37,0,0,1,3.54-1L71,14.82A7.69,7.69,0,0,1,69.29,12.7Z"/><path class="cls-7" d="M103.08.28V0h-14V24h20V6.25ZM106.67,6h-3.59V2.49ZM91.08,22V2h10V8h6V22Z"/><path class="cls-8" d="M93,20.19a1.08,1.08,0,0,1-.49-.12l-.34-.17a.58.58,0,0,1-.23-.65c.14-.67.8-1.16,2-1.9l.79-.43.13.18c.4-.67.85-1.48,1.37-2.48l.07-.13c.4-.78.85-1.66,1.21-2.54l.13-.31c-.51-1.94-.79-3.44-.51-4.45a.86.86,0,0,1,.88-.56h.2c.61,0,.68.65.71.94a5,5,0,0,1-.1,1.13l-.24-.15a2.2,2.2,0,0,0-.13-.9,2,2,0,0,0-.28-.48.6.6,0,0,0,0,.12,5.06,5.06,0,0,0-.07.82,8.31,8.31,0,0,0,.2,1.69l.31-1.21.24.06A16.53,16.53,0,0,1,98.82,11l-.07.28a7.52,7.52,0,0,0,1.86,2.88,5.5,5.5,0,0,0,1,.71,3.33,3.33,0,0,0,2.11.09h.12a8.41,8.41,0,0,1,1.88.2c.2,0,.23.32.25.56a1.51,1.51,0,0,1,0,.32l-.28-.07.28.13a2.1,2.1,0,0,1-.16.5.89.89,0,0,1-.46.32,1.73,1.73,0,0,1-.44,0,8.73,8.73,0,0,1-3.69-1.17c-1.6.24-3.48.8-5,1.19C94.78,19.45,93.92,20.19,93,20.19Zm1.4-2.38a5.22,5.22,0,0,0-1.52,1.62c.4-.22.82-.45,1.66-1.74Zm8.65-2.2a6.44,6.44,0,0,0,2.09.55.68.68,0,0,0,.27,0,.76.76,0,0,0,.15-.15h0a1.39,1.39,0,0,0-.54-.27,4.12,4.12,0,0,0-1.16-.12Zm-4.85-2.77a21.32,21.32,0,0,1-1,2.26l-.56,1a8.38,8.38,0,0,1,3.54-1L100,15A7.7,7.7,0,0,1,98.23,12.84Z"/><path class="cls-8" d="M93.17,20a1.08,1.08,0,0,1-.49-.12l-.34-.17a.58.58,0,0,1-.23-.65c.14-.67.8-1.16,2-1.9l.79-.43.13.18c.4-.67.85-1.48,1.37-2.48l.07-.13c.4-.78.85-1.66,1.21-2.54l.13-.3c-.51-1.94-.79-3.44-.51-4.45a.87.87,0,0,1,.88-.56h.2c.61,0,.68.65.71.94A5,5,0,0,1,99,8.59l-.24-.15a2.2,2.2,0,0,0-.13-.9,2,2,0,0,0-.28-.48.59.59,0,0,0,0,.12,5.07,5.07,0,0,0-.07.82,8.33,8.33,0,0,0,.2,1.69l.31-1.21.24.06A16.59,16.59,0,0,1,99,10.87l-.07.28A7.52,7.52,0,0,0,100.75,14a5.51,5.51,0,0,0,1,.71,3.34,3.34,0,0,0,2.11.09H104a8.42,8.42,0,0,1,1.88.2c.2,0,.23.32.25.56a1.51,1.51,0,0,1,0,.32l-.28-.07.28.13a2.11,2.11,0,0,1-.16.5.89.89,0,0,1-.46.32,1.74,1.74,0,0,1-.44,0,8.74,8.74,0,0,1-3.69-1.17c-1.6.24-3.48.8-5,1.19C94.92,19.3,94.06,20,93.17,20Zm1.4-2.39a5.23,5.23,0,0,0-1.52,1.62c.4-.22.83-.45,1.66-1.74Zm8.65-2.2a6.43,6.43,0,0,0,2.09.55.68.68,0,0,0,.27,0,.75.75,0,0,0,.15-.15h0a1.38,1.38,0,0,0-.54-.27,4.09,4.09,0,0,0-1.16-.12ZM98.38,12.7a21.33,21.33,0,0,1-1,2.26l-.56,1a8.37,8.37,0,0,1,3.54-1l-.21-.17A7.69,7.69,0,0,1,98.38,12.7Z"/><path class="cls-9" d="M132.09.28V0h-14V24h20V6.25ZM135.68,6h-3.59V2.49ZM120.09,22V2h10V8h6V22Z"/><path class="cls-10" d="M122,20.19a1.08,1.08,0,0,1-.49-.12l-.34-.17a.58.58,0,0,1-.23-.65c.14-.67.8-1.16,2-1.9l.79-.43.13.18c.4-.67.85-1.48,1.37-2.48l.07-.13c.4-.78.85-1.66,1.21-2.54l.13-.31c-.51-1.94-.79-3.44-.51-4.45a.86.86,0,0,1,.88-.56h.2c.61,0,.68.65.71.94a5,5,0,0,1-.1,1.13l-.24-.15a2.2,2.2,0,0,0-.13-.9,2,2,0,0,0-.28-.48.6.6,0,0,0,0,.12,5.06,5.06,0,0,0-.07.82,8.31,8.31,0,0,0,.2,1.69l.31-1.21.24.06a16.53,16.53,0,0,1-.05,2.33l-.07.28a7.52,7.52,0,0,0,1.86,2.88,5.5,5.5,0,0,0,1,.71,3.33,3.33,0,0,0,2.11.09h.12a8.41,8.41,0,0,1,1.88.2c.2,0,.23.32.25.56a1.51,1.51,0,0,1,0,.32l-.28-.07.28.13a2.1,2.1,0,0,1-.16.5.89.89,0,0,1-.46.32,1.73,1.73,0,0,1-.44,0,8.73,8.73,0,0,1-3.69-1.17c-1.6.24-3.48.8-5,1.19C123.79,19.45,122.92,20.19,122,20.19Zm1.4-2.38a5.22,5.22,0,0,0-1.52,1.62c.4-.22.82-.45,1.66-1.74Zm8.65-2.2a6.44,6.44,0,0,0,2.09.55.68.68,0,0,0,.27,0,.76.76,0,0,0,.15-.15h0a1.39,1.39,0,0,0-.54-.27,4.12,4.12,0,0,0-1.16-.12Zm-4.85-2.77a21.32,21.32,0,0,1-1,2.26l-.56,1a8.38,8.38,0,0,1,3.54-1L129,15A7.7,7.7,0,0,1,127.24,12.84Z"/><path class="cls-10" d="M122.18,20a1.08,1.08,0,0,1-.49-.12l-.34-.17a.58.58,0,0,1-.23-.65c.14-.67.8-1.16,2-1.9l.79-.43.13.18c.4-.67.85-1.48,1.37-2.48l.07-.13c.4-.78.85-1.66,1.21-2.54l.13-.3c-.51-1.94-.79-3.44-.51-4.45a.87.87,0,0,1,.88-.56h.2c.61,0,.68.65.71.94a5,5,0,0,1-.1,1.13l-.24-.15a2.2,2.2,0,0,0-.13-.9,2,2,0,0,0-.28-.48.59.59,0,0,0,0,.12,5.07,5.07,0,0,0-.07.82,8.33,8.33,0,0,0,.2,1.69l.31-1.21.24.06a16.59,16.59,0,0,1-.05,2.33l-.07.28A7.52,7.52,0,0,0,129.76,14a5.51,5.51,0,0,0,1,.71,3.34,3.34,0,0,0,2.11.09H133a8.42,8.42,0,0,1,1.88.2c.2,0,.23.32.25.56a1.51,1.51,0,0,1,0,.32l-.28-.07.28.13a2.11,2.11,0,0,1-.16.5.89.89,0,0,1-.46.32,1.74,1.74,0,0,1-.44,0,8.74,8.74,0,0,1-3.69-1.17c-1.6.24-3.48.8-5,1.19C123.93,19.3,123.07,20,122.18,20Zm1.4-2.39a5.23,5.23,0,0,0-1.52,1.62c.4-.22.83-.45,1.66-1.74Zm8.65-2.2a6.43,6.43,0,0,0,2.09.55.68.68,0,0,0,.27,0,.75.75,0,0,0,.15-.15h0a1.38,1.38,0,0,0-.54-.27,4.09,4.09,0,0,0-1.16-.12Zm-4.85-2.77a21.33,21.33,0,0,1-1,2.26l-.56,1a8.37,8.37,0,0,1,3.54-1l-.21-.17A7.69,7.69,0,0,1,127.38,12.7Z"/></g></svg>