<svg id="Payroll_Calculations" data-name="Payroll Calculations" xmlns="http://www.w3.org/2000/svg" width="140" height="24" viewBox="0 0 140 24"><defs><style>.cls-1{fill:#0089d9;}.cls-2{fill:#d7d7d7;}.cls-3{fill:#39a6e6;}.cls-4{fill:#fff;}.cls-5{fill:#737373;}</style></defs><title>24</title><path class="cls-1" d="M22,5,17,0H2V24H22ZM17,2h1l2,2V5H17ZM4,22V2H15V7h5V22Zm8.09-11.92a1.21,1.21,0,0,1,1.14.59.92.92,0,1,0,1.66-.8A2.85,2.85,0,0,0,13,8.35V7.92a.92.92,0,0,0-1.84,0v.44a2.88,2.88,0,0,0-1.51.89A2.85,2.85,0,0,0,9,11.53c.26,1.75,1.89,2.18,2.79,2.41l.13,0c1,.29,1.16.54,1.2.83a1,1,0,0,1-.21.81,1.41,1.41,0,0,1-1.06.37,1.21,1.21,0,0,1-1.14-.59A.92.92,0,1,0,9,16.2a2.88,2.88,0,0,0,2.1,1.56v.46a.92.92,0,0,0,1.84,0v-.57a2.89,2.89,0,0,0,1.31-.82,2.85,2.85,0,0,0,.64-2.28,3,3,0,0,0-2.56-2.35l-.08,0h0c-1.17-.3-1.4-.53-1.45-.9a1,1,0,0,1,.21-.81A1.41,1.41,0,0,1,12.09,10.09Z"/><path class="cls-2" d="M51,5,46,0H31V24H51ZM46,2h1l2,2V5H46ZM33,22V2H44V7h5V22Zm8.09-11.92a1.21,1.21,0,0,1,1.14.59.92.92,0,1,0,1.66-.8A2.85,2.85,0,0,0,42,8.35V7.92a.92.92,0,0,0-1.84,0v.44a2.88,2.88,0,0,0-1.51.89A2.85,2.85,0,0,0,38,11.53c.26,1.75,1.89,2.18,2.79,2.41l.13,0c1,.29,1.16.54,1.2.83a1,1,0,0,1-.21.81,1.41,1.41,0,0,1-1.06.37,1.21,1.21,0,0,1-1.14-.59.92.92,0,1,0-1.66.8,2.88,2.88,0,0,0,2.1,1.56v.46a.92.92,0,0,0,1.84,0v-.57a2.89,2.89,0,0,0,1.31-.82,2.85,2.85,0,0,0,.64-2.28,3,3,0,0,0-2.56-2.35l-.08,0h0c-1.17-.3-1.4-.53-1.45-.9a1,1,0,0,1,.21-.81A1.4,1.4,0,0,1,41.09,10.09Z"/><path class="cls-3" d="M80,5,75,0H60V24H80ZM75,2h1l2,2V5H75ZM62,22V2H73V7h5V22Zm8.09-11.92a1.21,1.21,0,0,1,1.14.59.92.92,0,1,0,1.66-.8A2.85,2.85,0,0,0,71,8.35V7.92a.92.92,0,0,0-1.84,0v.44a2.88,2.88,0,0,0-1.51.89A2.85,2.85,0,0,0,67,11.53c.26,1.75,1.89,2.18,2.79,2.41l.13,0c1,.29,1.16.54,1.2.83a1,1,0,0,1-.21.81,1.41,1.41,0,0,1-1.06.37,1.21,1.21,0,0,1-1.14-.59.92.92,0,1,0-1.66.8,2.88,2.88,0,0,0,2.1,1.56v.46a.92.92,0,0,0,1.84,0v-.57a2.89,2.89,0,0,0,1.31-.82,2.85,2.85,0,0,0,.64-2.28,3,3,0,0,0-2.56-2.35l-.08,0h0c-1.17-.3-1.4-.53-1.45-.9a1,1,0,0,1,.21-.81A1.4,1.4,0,0,1,70.09,10.09Z"/><path class="cls-4" d="M109,5l-5-5H89V24h20Zm-5-3h1l2,2V5h-3ZM91,22V2h11V7h5V22Zm8.09-11.92a1.21,1.21,0,0,1,1.14.59.92.92,0,1,0,1.66-.8A2.85,2.85,0,0,0,100,8.35V7.92a.92.92,0,0,0-1.84,0v.44a2.88,2.88,0,0,0-1.51.89A2.85,2.85,0,0,0,96,11.53c.26,1.75,1.89,2.18,2.79,2.41l.13,0c1,.29,1.16.54,1.2.83a1,1,0,0,1-.21.81,1.41,1.41,0,0,1-1.06.37,1.21,1.21,0,0,1-1.14-.59.92.92,0,1,0-1.66.8,2.88,2.88,0,0,0,2.1,1.56v.46a.92.92,0,0,0,1.84,0v-.57a2.89,2.89,0,0,0,1.31-.82,2.85,2.85,0,0,0,.64-2.28,3,3,0,0,0-2.56-2.35l-.08,0h0c-1.17-.3-1.4-.53-1.45-.9a1,1,0,0,1,.21-.81A1.4,1.4,0,0,1,99.09,10.09Z"/><path class="cls-5" d="M138,5l-5-5H118V24h20Zm-5-3h1l2,2V5h-3ZM120,22V2h11V7h5V22Zm8.09-11.92a1.21,1.21,0,0,1,1.14.59.92.92,0,1,0,1.66-.8A2.85,2.85,0,0,0,129,8.35V7.92a.92.92,0,0,0-1.84,0v.44a2.88,2.88,0,0,0-1.51.89,2.85,2.85,0,0,0-.64,2.28c.26,1.75,1.89,2.18,2.79,2.41l.13,0c1,.29,1.16.54,1.2.83a1,1,0,0,1-.21.81,1.41,1.41,0,0,1-1.06.37,1.21,1.21,0,0,1-1.14-.59.92.92,0,1,0-1.66.8,2.88,2.88,0,0,0,2.1,1.56v.46a.92.92,0,0,0,1.84,0v-.57a2.89,2.89,0,0,0,1.31-.82,2.85,2.85,0,0,0,.64-2.28,3,3,0,0,0-2.56-2.35l-.08,0h0c-1.17-.3-1.4-.53-1.45-.9a1,1,0,0,1,.21-.81A1.4,1.4,0,0,1,128.09,10.09Z"/></svg>