<svg xmlns="http://www.w3.org/2000/svg" width="140" height="24" viewBox="0 0 140 24"><defs><style>.cls-1{fill:#0089d9;}.cls-2{fill:#d7d7d7;}.cls-3{fill:#39a6e6;}.cls-4{fill:#fff;}.cls-5{fill:#737373;}</style></defs><title>24</title><g id="Platform_Cloud" data-name="Platform Cloud"><g id="Normal"><path class="cls-1" d="M18.57,8.11a5.4,5.4,0,0,0-1.51.24A7.29,7.29,0,0,0,3.19,10.2,4.5,4.5,0,0,0,4.49,19H18.57a5.45,5.45,0,0,0,0-10.89Zm0,9.25H4.49A2.87,2.87,0,0,1,3.12,12,7.19,7.19,0,0,0,4,14.85a.81.81,0,1,0,1.42-.78A5.69,5.69,0,1,1,15.6,9a5.38,5.38,0,0,0-.5.35.81.81,0,0,0,1,1.24,3.82,3.82,0,1,1,2.44,6.75Z"/></g><g id="Disabled"><path class="cls-2" d="M47.57,8.11a5.4,5.4,0,0,0-1.51.24A7.29,7.29,0,0,0,32.19,10.2a4.5,4.5,0,0,0,1.3,8.8H47.57a5.45,5.45,0,0,0,0-10.89Zm0,9.25H33.49A2.87,2.87,0,0,1,32.12,12,7.19,7.19,0,0,0,33,14.85a.81.81,0,1,0,1.42-.78A5.69,5.69,0,1,1,44.6,9a5.38,5.38,0,0,0-.5.35.81.81,0,0,0,1,1.24,3.82,3.82,0,1,1,2.44,6.75Z"/></g><g id="Hover"><path class="cls-3" d="M76.57,8.11a5.4,5.4,0,0,0-1.51.24A7.29,7.29,0,0,0,61.19,10.2a4.5,4.5,0,0,0,1.3,8.8H76.57a5.45,5.45,0,0,0,0-10.89Zm0,9.25H62.49A2.87,2.87,0,0,1,61.12,12,7.19,7.19,0,0,0,62,14.85a.81.81,0,1,0,1.42-.78A5.69,5.69,0,1,1,73.6,9a5.38,5.38,0,0,0-.5.35.81.81,0,0,0,1,1.24,3.82,3.82,0,1,1,2.44,6.75Z"/></g><g id="Hover-2" data-name="Hover"><path class="cls-4" d="M105.57,8.11a5.4,5.4,0,0,0-1.51.24A7.29,7.29,0,0,0,90.19,10.2a4.5,4.5,0,0,0,1.3,8.8h14.09a5.45,5.45,0,0,0,0-10.89Zm0,9.25H91.49A2.87,2.87,0,0,1,90.12,12,7.19,7.19,0,0,0,91,14.85a.81.81,0,1,0,1.42-.78A5.69,5.69,0,1,1,102.6,9a5.38,5.38,0,0,0-.5.35.81.81,0,0,0,1,1.24,3.82,3.82,0,1,1,2.44,6.75Z"/></g><g id="Hover-3" data-name="Hover"><path class="cls-5" d="M134.57,8.11a5.4,5.4,0,0,0-1.51.24,7.29,7.29,0,0,0-13.87,1.86,4.5,4.5,0,0,0,1.3,8.8h14.09a5.45,5.45,0,0,0,0-10.89Zm0,9.25H120.49a2.87,2.87,0,0,1-1.36-5.4,7.19,7.19,0,0,0,.87,2.89.81.81,0,1,0,1.42-.78A5.69,5.69,0,1,1,131.6,9a5.38,5.38,0,0,0-.5.35.81.81,0,0,0,1,1.24,3.82,3.82,0,1,1,2.44,6.75Z"/></g></g></svg>