<svg id="Reminder" xmlns="http://www.w3.org/2000/svg" width="140" height="24" viewBox="0 0 140 24"><defs><style>.cls-1{fill:#fff;}.cls-1,.cls-2,.cls-3,.cls-4,.cls-5{fill-rule:evenodd;}.cls-2{fill:#646464;}.cls-3{fill:#0089d9;}.cls-4{fill:#c8c8c8;}.cls-5{fill:#39a6e6;}</style></defs><title>24_</title><path class="cls-1" d="M103,8,99.8,11.2a2,2,0,1,0,1,1L104,9A.71.71,0,1,0,103,8ZM99,2a11,11,0,1,0,11,11A11,11,0,0,0,99,2Zm0,20a9,9,0,1,1,9-9A9,9,0,0,1,99,22ZM110,2a3.49,3.49,0,0,0-5,0l5,5C110.79,5.92,111.76,3.8,110,2ZM88,2c-1.78,1.78-.72,4,0,5l5-5A3.49,3.49,0,0,0,88,2Z"/><path class="cls-2" d="M132.06,8l-3.18,3.18a2,2,0,1,0,1,1L133.06,9A.71.71,0,1,0,132.06,8Zm7-6a3.49,3.49,0,0,0-5,0l5,5C139.87,5.92,140.84,3.8,139.06,2Zm-11,0a11,11,0,1,0,11,11A11,11,0,0,0,128.05,2Zm0,20a9,9,0,1,1,9-9A9,9,0,0,1,128.05,22Zm-11-20c-1.78,1.78-.72,4,0,5l5-5A3.49,3.49,0,0,0,117.06,2Z"/><path class="cls-3" d="M16,8,12.82,11.2a2,2,0,1,0,1,1L17,9A.71.71,0,1,0,16,8ZM12,2A11,11,0,1,0,23,13,11,11,0,0,0,12,2Zm0,20a9,9,0,1,1,9-9A9,9,0,0,1,12,22ZM23,2a3.49,3.49,0,0,0-5,0l5,5C23.81,5.92,24.78,3.8,23,2ZM1,2C-.79,3.8.28,6,1,7L6,2A3.49,3.49,0,0,0,1,2Z"/><path class="cls-4" d="M45,8,41.8,11.2a2,2,0,1,0,1,1L46,9A.71.71,0,1,0,45,8Zm7-6a3.49,3.49,0,0,0-5,0l5,5C52.79,5.92,53.76,3.8,52,2ZM41,2A11,11,0,1,0,52,13,11,11,0,0,0,41,2Zm0,20a9,9,0,1,1,9-9A9,9,0,0,1,41,22ZM30,2c-1.78,1.78-.72,4,0,5l5-5A3.49,3.49,0,0,0,30,2Z"/><path class="cls-5" d="M74,8,70.8,11.2a2,2,0,1,0,1,1L75,9A.71.71,0,1,0,74,8ZM70,2A11,11,0,1,0,81,13,11,11,0,0,0,70,2Zm0,20a9,9,0,1,1,9-9A9,9,0,0,1,70,22ZM81,2a3.49,3.49,0,0,0-5,0l5,5C81.79,5.92,82.76,3.8,81,2ZM59,2c-1.78,1.78-.72,4,0,5l5-5A3.49,3.49,0,0,0,59,2Z"/></svg>