<svg xmlns="http://www.w3.org/2000/svg" width="140" height="24" viewBox="0 0 140 24"><defs><style>.cls-1{fill:#0089d9;}.cls-1,.cls-2,.cls-3,.cls-4,.cls-5{fill-rule:evenodd;}.cls-2{fill:#d7d7d7;}.cls-3{fill:#39a6e6;}.cls-4{fill:#fff;}.cls-5{fill:#737373;}</style></defs><title>24</title><g id="Replace"><path class="cls-1" d="M14,18C7,18,3,15,1,11c0,6,6,9,13,9v4l5-5-5-5ZM10,4V0L5,5l5,5V6c7,0,11,3,13,7C23,7,17,4,10,4Z"/><path class="cls-2" d="M43,18c-7,0-11-3-13-7,0,6,6,9,13,9v4l5-5-5-5ZM39,4V0L34,5l5,5V6c7,0,11,3,13,7C52,7,46,4,39,4Z"/><path class="cls-3" d="M72,18c-7,0-11-3-13-7,0,6,6,9,13,9v4l5-5-5-5ZM68,4V0L63,5l5,5V6c7,0,11,3,13,7C81,7,75,4,68,4Z"/><path class="cls-4" d="M101,18c-7,0-11-3-13-7,0,6,6,9,13,9v4l5-5-5-5ZM97,4V0L92,5l5,5V6c7,0,11,3,13,7C110,7,104,4,97,4Z"/><path class="cls-5" d="M130,18c-7,0-11-3-13-7,0,6,6,9,13,9v4l5-5-5-5ZM126,4V0l-5,5,5,5V6c7,0,11,3,13,7C139,7,133,4,126,4Z"/></g></svg>