<svg xmlns="http://www.w3.org/2000/svg" width="140" height="24" viewBox="0 0 140 24"><defs><style>.cls-1{fill:#39a6e6;}.cls-1,.cls-2,.cls-3,.cls-4,.cls-5{fill-rule:evenodd;}.cls-2{fill:#fff;}.cls-3{fill:#737373;}.cls-4{fill:#d7d7d7;}.cls-5{fill:#0089d9;}</style></defs><title>24</title><g id="Rotate_CCW" data-name="Rotate CCW"><g id="Compound_Shape" data-name="Compound Shape"><path class="cls-1" d="M78.49,3.51a12,12,0,0,0-17,17c.16.16.33.31.5.46l-2,2h6V17l-2.54,2.54c-.18-.16-.36-.32-.54-.49A10,10,0,1,1,80,12h2A12,12,0,0,0,78.49,3.51Z"/><path class="cls-2" d="M107.49,3.51a12,12,0,0,0-17,17c.16.16.33.31.5.46l-2,2h6V17l-2.54,2.54c-.18-.16-.36-.32-.54-.49A10,10,0,1,1,109,12h2A12,12,0,0,0,107.49,3.51Z"/><path class="cls-3" d="M136.49,3.51a12,12,0,0,0-17,17c.16.16.33.31.5.46l-2,2h6V17l-2.54,2.54c-.18-.16-.36-.32-.54-.49A10,10,0,1,1,138,12h2A12,12,0,0,0,136.49,3.51Z"/></g><g id="Compound_Shape-2" data-name="Compound Shape"><path class="cls-4" d="M49.49,3.51a12,12,0,1,0-17,17c.16.16.33.31.5.46l-2,2h6V17l-2.54,2.54c-.18-.16-.36-.32-.54-.49A10,10,0,1,1,51,12h2A12,12,0,0,0,49.49,3.51Z"/></g><path class="cls-5" d="M20.49,3.51a12,12,0,0,0-17,17c.16.16.33.31.5.46L2,23H8V17L5.46,19.51c-.18-.16-.36-.32-.54-.49A10,10,0,1,1,22,12h2A12,12,0,0,0,20.49,3.51Z"/></g></svg>