<svg xmlns="http://www.w3.org/2000/svg" width="140" height="24" viewBox="0 0 140 24"><defs><style>.cls-1{fill:#0089d9;}.cls-1,.cls-2,.cls-3,.cls-4,.cls-5{fill-rule:evenodd;}.cls-2{fill:#d7d7d7;}.cls-3{fill:#39a6e6;}.cls-4{fill:#fff;}.cls-5{fill:#737373;}</style></defs><title>24</title><g id="Refresh"><path class="cls-1" d="M23.36,9.06l.59-6L21.69,4.94c-.13-.18-.27-.37-.41-.55A12,12,0,1,0,23,16.85l-1.81-.8A10,10,0,1,1,19.77,5.63c.15.18.28.36.41.55L17.39,8.47Z"/><path class="cls-2" d="M52.36,9.06l.59-6L50.69,4.94c-.13-.18-.27-.37-.41-.55A12,12,0,1,0,52,16.85l-1.81-.8A10,10,0,1,1,48.77,5.63c.15.18.28.36.41.55L46.39,8.47Z"/><path class="cls-3" d="M81.36,9.06l.59-6L79.69,4.94c-.13-.18-.27-.37-.41-.55A12,12,0,1,0,81,16.85l-1.81-.8A10,10,0,1,1,77.77,5.63c.15.18.28.36.41.55L75.39,8.47Z"/><path class="cls-4" d="M110.36,9.06l.59-6-2.26,1.85c-.13-.18-.27-.37-.41-.55A12,12,0,1,0,110,16.85l-1.81-.8a10,10,0,1,1-1.39-10.43c.15.18.28.36.41.55l-2.79,2.29Z"/><path class="cls-5" d="M139.4,9.06l.59-6-2.26,1.85c-.13-.18-.27-.37-.41-.55A12,12,0,1,0,139,16.85l-1.81-.8a10,10,0,1,1-1.39-10.43c.15.18.28.36.41.55l-2.79,2.29Z"/></g></svg>