<svg xmlns="http://www.w3.org/2000/svg" width="140" height="24" viewBox="0 0 140 24"><defs><style>.cls-1{fill:#39a6e6;}.cls-1,.cls-2,.cls-3,.cls-4,.cls-5{fill-rule:evenodd;}.cls-2{fill:#fff;}.cls-3{fill:#737373;}.cls-4{fill:#d7d7d7;}.cls-5{fill:#0089d9;}</style></defs><title>24</title><g id="Redo"><path class="cls-1" d="M82,11.54,73,2V8c-8.65,0-14,2-15,14,3.84-6.17,7-7,15-7v6ZM61.66,15.32C64.37,11.29,66.35,10,75,10V8l3.78,3.44L75,15V13C67,13,64.87,13.21,61.66,15.32Z"/><path class="cls-2" d="M111,11.54,102,2V8c-8.65,0-14,2-15,14,3.84-6.17,7-7,15-7v6ZM90.66,15.32C93.37,11.29,95.35,10,104,10V8l3.78,3.44L104,15V13C96,13,93.87,13.21,90.66,15.32Z"/><path class="cls-3" d="M140,11.54,131,2V8c-8.65,0-14,2-15,14,3.84-6.17,7-7,15-7v6Zm-20.34,3.78c2.72-4,4.69-5.31,13.34-5.31V8l3.78,3.44L133,15V13C125,13,122.87,13.21,119.66,15.32Z"/><path class="cls-4" d="M53,11.54,44,2V8c-8.65,0-14,2-15,14,3.84-6.17,7-7,15-7v6ZM32.69,15.32C35.41,11.29,37.39,10,46,10V8l3.78,3.44L46,15V13C38,13,35.91,13.21,32.69,15.32Z"/><path class="cls-5" d="M0,22c3.84-6.17,7-7,15-7v6l9-9.47L15,2V8C6.39,8,1.06,10,0,22Zm3.69-6.68C6.41,11.29,8.39,10,17,10V8l3.78,3.44L17,15V13C9,13,6.91,13.21,3.69,15.32Z"/></g></svg>