<svg xmlns="http://www.w3.org/2000/svg" width="140" height="24" viewBox="0 0 140 24"><defs><style>.cls-1{fill:#39a6e6;}.cls-1,.cls-2,.cls-3,.cls-4,.cls-5{fill-rule:evenodd;}.cls-2{fill:#fff;}.cls-3{fill:#737373;}.cls-4{fill:#d7d7d7;}.cls-5{fill:#0089d9;}</style></defs><title>24</title><g id="Rotate_CW" data-name="Rotate CW"><path class="cls-1" d="M78.49,20.49A12,12,0,1,0,58,12h2A10,10,0,1,1,77,19c-.17.17-.34.33-.52.48L74,17v6h6l-2-2C78.15,20.8,78.32,20.65,78.49,20.49Z"/><path class="cls-2" d="M107.49,20.49A12,12,0,1,0,87,12h2A10,10,0,1,1,106,19c-.17.17-.34.33-.52.48L103,17v6h6l-2-2C107.15,20.8,107.32,20.65,107.49,20.49Z"/><path class="cls-3" d="M136.49,20.49A12,12,0,1,0,116,12h2A10,10,0,1,1,135,19c-.17.17-.34.33-.52.48L132,17v6h6l-2-2C136.15,20.8,136.32,20.65,136.49,20.49Z"/><path class="cls-4" d="M49.49,20.49A12,12,0,1,0,29,12h2A10,10,0,1,1,48,19c-.17.17-.34.33-.52.48L45,17v6h6l-2-2C49.15,20.8,49.32,20.65,49.49,20.49Z"/><path class="cls-5" d="M20.49,20.49A12,12,0,1,0,0,12H2A10,10,0,1,1,19,19c-.17.17-.34.33-.52.48L16,17v6h6l-2-2C20.15,20.8,20.32,20.65,20.49,20.49Z"/></g></svg>