<svg xmlns="http://www.w3.org/2000/svg" width="140" height="24" viewBox="0 0 140 24"><defs><style>.cls-1{fill:#39a6e6;}.cls-2{fill:#fff;}.cls-3{fill:#737373;}.cls-4{fill:#d7d7d7;}.cls-5{fill:#0089d9;}</style></defs><title>24</title><g id="Sort_List" data-name="Sort List"><polygon class="cls-1" points="63 3 63 16 60 16 64 21 68 16 65 16 65 3 63 3"/><rect class="cls-1" x="70" y="5" width="4" height="2" rx="1" ry="1"/><rect class="cls-1" x="70" y="9" width="6" height="2" rx="1" ry="1"/><rect class="cls-1" x="70" y="13" width="8" height="2" rx="1" ry="1"/><rect class="cls-1" x="70" y="17" width="10" height="2" rx="1" ry="1"/><polygon class="cls-2" points="92 3 92 16 89 16 93 21 97 16 94 16 94 3 92 3"/><rect class="cls-2" x="99" y="5" width="4" height="2" rx="1" ry="1"/><rect class="cls-2" x="99" y="9" width="6" height="2" rx="1" ry="1"/><rect class="cls-2" x="99" y="13" width="8" height="2" rx="1" ry="1"/><rect class="cls-2" x="99" y="17" width="10" height="2" rx="1" ry="1"/><polygon class="cls-3" points="121 3 121 16 118 16 122 21 126 16 123 16 123 3 121 3"/><rect class="cls-3" x="128" y="5" width="4" height="2" rx="1" ry="1"/><rect class="cls-3" x="128" y="9" width="6" height="2" rx="1" ry="1"/><rect class="cls-3" x="128" y="13" width="8" height="2" rx="1" ry="1"/><rect class="cls-3" x="128" y="17" width="10" height="2" rx="1" ry="1"/><polygon class="cls-4" points="34 3 34 16 31 16 35 21 39 16 36 16 36 3 34 3"/><rect class="cls-4" x="41" y="5" width="4" height="2" rx="1" ry="1"/><rect class="cls-4" x="41" y="9" width="6" height="2" rx="1" ry="1"/><rect class="cls-4" x="41" y="13" width="8" height="2" rx="1" ry="1"/><rect class="cls-4" x="41" y="17" width="10" height="2" rx="1" ry="1"/><polygon class="cls-5" points="5 3 5 16 2 16 6 21 10 16 7 16 7 3 5 3"/><rect class="cls-5" x="12" y="5" width="4" height="2" rx="1" ry="1"/><rect class="cls-5" x="12" y="9" width="6" height="2" rx="1" ry="1"/><rect class="cls-5" x="12" y="13" width="8" height="2" rx="1" ry="1"/><rect class="cls-5" x="12" y="17" width="10" height="2" rx="1" ry="1"/></g></svg>