<svg xmlns="http://www.w3.org/2000/svg" width="140" height="24" viewBox="0 0 140 24"><defs><style>.cls-1{fill:#39a6e6;}.cls-1,.cls-2,.cls-3,.cls-4,.cls-5{fill-rule:evenodd;}.cls-2{fill:#fff;}.cls-3{fill:#737373;}.cls-4{fill:#d7d7d7;}.cls-5{fill:#0089d9;}</style></defs><title>24</title><g id="Storage"><path class="cls-1" d="M70.5,22A1.5,1.5,0,1,0,69,20.5,1.5,1.5,0,0,0,70.5,22Zm0,2A3.5,3.5,0,1,0,67,20.5,3.5,3.5,0,0,0,70.5,24ZM67.19,3.91,72,5.2,70.73,10,65.9,8.74Zm1.9,12.32L70.51,11,61.81,8.64,60,15.4l7.29,2A4.5,4.5,0,0,1,69.09,16.23ZM70.71,16l4-15a1.37,1.37,0,0,1,1.26-1H79a1,1,0,1,1,0,2H76.47L72.63,16.54A4.48,4.48,0,0,0,70.71,16ZM66,20.31,61.6,19.13a1,1,0,0,1,.52-1.93l4.42,1.18A4.47,4.47,0,0,0,66,20.31Z"/><path class="cls-2" d="M99.5,22A1.5,1.5,0,1,0,98,20.5,1.5,1.5,0,0,0,99.5,22Zm0,2A3.5,3.5,0,1,0,96,20.5,3.5,3.5,0,0,0,99.5,24ZM96.19,3.91,101,5.2,99.73,10,94.9,8.74Zm1.9,12.32L99.51,11,90.81,8.64,89,15.4l7.29,2A4.5,4.5,0,0,1,98.09,16.23ZM99.71,16l4-15a1.37,1.37,0,0,1,1.26-1H108a1,1,0,1,1,0,2h-2.53l-3.84,14.53A4.48,4.48,0,0,0,99.71,16ZM95,20.31,90.6,19.13a1,1,0,0,1,.52-1.93l4.42,1.18A4.47,4.47,0,0,0,95,20.31Z"/><path class="cls-3" d="M128.5,22a1.5,1.5,0,1,0-1.5-1.5A1.5,1.5,0,0,0,128.5,22Zm0,2a3.5,3.5,0,1,0-3.5-3.5A3.5,3.5,0,0,0,128.5,24ZM125.19,3.91,130,5.2,128.73,10,123.9,8.74Zm1.9,12.32L128.51,11l-8.69-2.33L118,15.4l7.29,2A4.5,4.5,0,0,1,127.09,16.23Zm1.61-.22,4-15a1.37,1.37,0,0,1,1.26-1H137a1,1,0,1,1,0,2h-2.53l-3.84,14.53A4.48,4.48,0,0,0,128.71,16Zm-4.7,4.3-4.41-1.18a1,1,0,0,1,.52-1.93l4.42,1.18A4.47,4.47,0,0,0,124,20.31Z"/><path class="cls-4" d="M41.5,22a1.5,1.5,0,1,0-1.5-1.5A1.5,1.5,0,0,0,41.5,22Zm0,2a3.5,3.5,0,1,0-3.5-3.5A3.5,3.5,0,0,0,41.5,24ZM38.19,3.92,43,5.22,41.73,10,36.9,8.75Zm1.9,12.32L41.51,11,32.81,8.65,31,15.41l7.29,2A4.5,4.5,0,0,1,40.09,16.24ZM41.71,16l4-15a1.37,1.37,0,0,1,1.26-1H50a1,1,0,1,1,0,2H47.47L43.63,16.55A4.48,4.48,0,0,0,41.71,16ZM37,20.32,32.6,19.14a1,1,0,0,1,.52-1.93l4.42,1.18A4.47,4.47,0,0,0,37,20.32Z"/><path class="cls-5" d="M12.5,22A1.5,1.5,0,1,0,11,20.5,1.5,1.5,0,0,0,12.5,22Zm0,2A3.5,3.5,0,1,0,9,20.5,3.5,3.5,0,0,0,12.5,24ZM9.19,3.91,14,5.2,12.73,10,7.9,8.74Zm1.9,12.32L12.51,11,3.81,8.64,2,15.4l7.29,2A4.5,4.5,0,0,1,11.09,16.23ZM12.71,16l4-15a1.37,1.37,0,0,1,1.26-1H21a1,1,0,1,1,0,2H18.47L14.63,16.54A4.48,4.48,0,0,0,12.71,16ZM8,20.31,3.6,19.13a1,1,0,0,1,.52-1.93l4.42,1.18A4.47,4.47,0,0,0,8,20.31Z"/></g></svg>