<svg xmlns="http://www.w3.org/2000/svg" width="140" height="24" viewBox="0 0 140 24"><defs><style>.cls-1{fill:#0089d9;}.cls-1,.cls-2,.cls-3,.cls-4,.cls-5{fill-rule:evenodd;}.cls-2{fill:#d7d7d7;}.cls-3{fill:#39a6e6;}.cls-4{fill:#fff;}.cls-5{fill:#737373;}</style></defs><title>24</title><g id="Share_with_me" data-name="Share with me"><path class="cls-1" d="M2.22,12C2.1,11,2,10.16,2,10A1,1,0,0,1,3,9H21a1.08,1.08,0,0,1,1,1c0,.22-.2,2.05-.42,4h1.94c.24-2.38.48-4.76.48-5a1.08,1.08,0,0,0-1-1V6a2.15,2.15,0,0,0-2-2h-8.5S11,1,9,1H4A3.23,3.23,0,0,0,1,4V8A1,1,0,0,0,0,9c0,.2.12,1.45.27,3ZM3,4A1.08,1.08,0,0,1,4,3H9c1,0,2.5,3,2.5,3H20a1.08,1.08,0,0,1,1,1V8H3ZM21.63,16a26.56,26.56,0,0,1-4.73,2.78c-1.24,0-3.9.26-5.84-.78a20,20,0,0,0,5,0c3.52-1.56,1.79-3.2-.62-3a7.8,7.8,0,0,1-4.24.05C5.86,13.19,4.64,14.56,3,15a1,1,0,0,0-1-1H1a1,1,0,0,0-1,1v5a1,1,0,0,0,1,1H2a1,1,0,0,0,1-.84c0,.36,0,.63,0,.77.53-.25.8.06,1,0,0-.09-.09-.43-.17-.91,2.4.34,4.42,2.11,9.23,2.9,2.43-.35,3.43-.5,5.84-1a55.48,55.48,0,0,1,4.64-4.2C24.27,16.58,23.46,15.16,21.63,16Z"/><path class="cls-2" d="M31.2,12c-.11-1-.2-1.85-.2-2a1,1,0,0,1,1-1H50a1.08,1.08,0,0,1,1,1c0,.22-.2,2.05-.42,4h1.94c.24-2.38.48-4.76.48-5a1.08,1.08,0,0,0-1-1V6a2.15,2.15,0,0,0-2-2H41.5S40,1,38,1H33a3.23,3.23,0,0,0-3,3V8a1,1,0,0,0-1,1c0,.2.12,1.45.27,3ZM32,4a1.08,1.08,0,0,1,1-1h5c1,0,2.5,3,2.5,3H49a1.08,1.08,0,0,1,1,1V8H32ZM50.61,16a26.56,26.56,0,0,1-4.73,2.78C44.64,18.72,42,19,40,18a20,20,0,0,0,5,0c3.52-1.56,1.79-3.2-.62-3a7.8,7.8,0,0,1-4.24.05c-5.34-1.88-6.56-.5-8.18-.06a1,1,0,0,0-1-1H30a1,1,0,0,0-1,1v5a1,1,0,0,0,1,1h1a1,1,0,0,0,1-.84c0,.36,0,.63,0,.77.53-.25.8.06,1,0,0-.09-.09-.43-.17-.91,2.4.34,4.42,2.11,9.23,2.9,2.43-.35,3.43-.5,5.84-1a55.48,55.48,0,0,1,4.64-4.2C53.25,16.58,52.44,15.16,50.61,16Z"/><path class="cls-3" d="M79.61,16a26.56,26.56,0,0,1-4.73,2.78C73.64,18.72,71,19,69,18a20,20,0,0,0,5,0c3.52-1.56,1.79-3.2-.62-3a7.8,7.8,0,0,1-4.24.05c-5.34-1.88-6.56-.5-8.18-.06a1,1,0,0,0-1-1H59a1,1,0,0,0-1,1v5a1,1,0,0,0,1,1h1a1,1,0,0,0,1-.84c0,.36,0,.63,0,.78.53-.25.8.06,1,0,0-.09-.09-.43-.17-.91,2.4.34,4.42,2.11,9.23,2.9,2.43-.35,3.43-.5,5.84-1a55.48,55.48,0,0,1,4.64-4.2C82.26,16.58,81.45,15.16,79.61,16ZM60.2,12c-.11-1-.2-1.85-.2-2a1,1,0,0,1,1-1H79a1.08,1.08,0,0,1,1,1c0,.22-.2,2.05-.42,4h1.94c.24-2.38.48-4.76.48-5a1.08,1.08,0,0,0-1-1V6a2.15,2.15,0,0,0-2-2h-8.5S69,1,67,1H62a3.23,3.23,0,0,0-3,3V8a1,1,0,0,0-1,1c0,.2.12,1.45.27,3ZM61,4a1.08,1.08,0,0,1,1-1h5c1,0,2.5,3,2.5,3H78a1.08,1.08,0,0,1,1,1V8H61Z"/><path class="cls-4" d="M108.61,16a26.56,26.56,0,0,1-4.73,2.78c-1.24,0-3.9.26-5.84-.78a20,20,0,0,0,5,0c3.52-1.56,1.79-3.2-.62-3a7.8,7.8,0,0,1-4.24.05c-5.34-1.88-6.56-.5-8.18-.06a1,1,0,0,0-1-1H88a1,1,0,0,0-1,1v5a1,1,0,0,0,1,1h1a1,1,0,0,0,1-.84c0,.36,0,.63,0,.78.53-.25.8.06,1,0,0-.09-.09-.43-.17-.91,2.4.34,4.42,2.11,9.23,2.9,2.43-.35,3.43-.5,5.84-1a55.48,55.48,0,0,1,4.64-4.2C111.26,16.58,110.45,15.16,108.61,16ZM89.2,12c-.11-1-.2-1.85-.2-2a1,1,0,0,1,1-1h18a1.08,1.08,0,0,1,1,1c0,.22-.2,2.05-.42,4h1.94c.24-2.38.48-4.76.48-5a1.08,1.08,0,0,0-1-1V6a2.15,2.15,0,0,0-2-2h-8.5S98,1,96,1H91a3.23,3.23,0,0,0-3,3V8a1,1,0,0,0-1,1c0,.2.12,1.45.27,3ZM90,4a1.08,1.08,0,0,1,1-1h5c1,0,2.5,3,2.5,3H107a1.08,1.08,0,0,1,1,1V8H90Z"/><path class="cls-5" d="M118.2,12c-.11-1-.2-1.85-.2-2a1,1,0,0,1,1-1h18a1.08,1.08,0,0,1,1,1c0,.22-.2,2.05-.42,4h1.94c.24-2.38.48-4.76.48-5a1.08,1.08,0,0,0-1-1V6a2.15,2.15,0,0,0-2-2h-8.5S127,1,125,1h-5a3.23,3.23,0,0,0-3,3V8a1,1,0,0,0-1,1c0,.2.12,1.45.27,3Zm.8-8a1.08,1.08,0,0,1,1-1h5c1,0,2.5,3,2.5,3H136a1.08,1.08,0,0,1,1,1V8H119Zm18.61,12a26.56,26.56,0,0,1-4.73,2.78c-1.24,0-3.9.26-5.84-.78a20,20,0,0,0,5,0c3.52-1.56,1.79-3.2-.62-3a7.8,7.8,0,0,1-4.24.05c-5.34-1.88-6.56-.5-8.18-.06a1,1,0,0,0-1-1h-1a1,1,0,0,0-1,1v5a1,1,0,0,0,1,1h1a1,1,0,0,0,1-.84c0,.36,0,.63,0,.78.53-.25.8.06,1,0,0-.09-.09-.43-.17-.91,2.4.34,4.42,2.11,9.23,2.9,2.43-.35,3.43-.5,5.84-1a55.48,55.48,0,0,1,4.64-4.2C140.26,16.58,139.45,15.16,137.61,16Z"/></g></svg>