<svg xmlns="http://www.w3.org/2000/svg" width="140" height="24" viewBox="0 0 140 24"><defs><style>.cls-1{fill:#39a6e6;}.cls-1,.cls-2,.cls-3,.cls-4,.cls-5{fill-rule:evenodd;}.cls-2{fill:#fff;}.cls-3{fill:#737373;}.cls-4{fill:#d7d7d7;}.cls-5{fill:#0089d9;}</style></defs><title>24</title><g id="Save"><path class="cls-1" d="M77.47,0H61a2,2,0,0,0-2,2V21a2,2,0,0,0,2,2H80a2,2,0,0,0,2-2V4.59ZM65,1h9V8H65ZM80,20a1,1,0,0,1-1,1H62a1,1,0,0,1-1-1V3a1,1,0,0,1,1-1h1v8H76V2h1.47L80,4.59ZM71,2V7h2V2Z"/><path class="cls-2" d="M106.47,0H90a2,2,0,0,0-2,2V21a2,2,0,0,0,2,2h19a2,2,0,0,0,2-2V4.59ZM94,1h9V8H94Zm15,19a1,1,0,0,1-1,1H91a1,1,0,0,1-1-1V3a1,1,0,0,1,1-1h1v8h13V2h1.47L109,4.59ZM100,2V7h2V2Z"/><path class="cls-3" d="M135.47,0H119a2,2,0,0,0-2,2V21a2,2,0,0,0,2,2h19a2,2,0,0,0,2-2V4.59ZM123,1h9V8h-9Zm15,19a1,1,0,0,1-1,1H120a1,1,0,0,1-1-1V3a1,1,0,0,1,1-1h1v8h13V2h1.47L138,4.59ZM129,2V7h2V2Z"/><path class="cls-4" d="M48.47,0H32a2,2,0,0,0-2,2V21a2,2,0,0,0,2,2H51a2,2,0,0,0,2-2V4.59ZM36,1h9V8H36ZM51,20a1,1,0,0,1-1,1H33a1,1,0,0,1-1-1V3a1,1,0,0,1,1-1h1v8H47V2h1.47L51,4.59ZM42,2V7h2V2Z"/><path class="cls-5" d="M19.47,0H3A2,2,0,0,0,1,2V21a2,2,0,0,0,2,2H22a2,2,0,0,0,2-2V4.59ZM7,1h9V8H7ZM22,20a1,1,0,0,1-1,1H4a1,1,0,0,1-1-1V3A1,1,0,0,1,4,2H5v8H18V2h1.47L22,4.59ZM13,2V7h2V2Z"/></g></svg>