<svg xmlns="http://www.w3.org/2000/svg" width="140" height="24" viewBox="0 0 140 24"><defs><style>.cls-1{fill:#0089d9;}.cls-1,.cls-2,.cls-3,.cls-4,.cls-5{fill-rule:evenodd;}.cls-2{fill:#d7d7d7;}.cls-3{fill:#39a6e6;}.cls-4{fill:#fff;}.cls-5{fill:#737373;}</style></defs><title>24</title><g id="Send"><path class="cls-1" d="M1,21c0-7,9-11,16-11V6l6,6-6,6V14C10,14,3,16,1,21Z"/><path class="cls-2" d="M30,21c0-7,9-11,16-11V6l6,6-6,6V14C39,14,32,16,30,21Z"/><path class="cls-3" d="M59,21c0-7,9-11,16-11V6l6,6-6,6V14C68,14,61,16,59,21Z"/><path class="cls-4" d="M88,21c0-7,9-11,16-11V6l6,6-6,6V14C97,14,90,16,88,21Z"/><path class="cls-5" d="M117,21c0-7,9-11,16-11V6l6,6-6,6V14C126,14,119,16,117,21Z"/></g></svg>