<svg xmlns="http://www.w3.org/2000/svg" width="140" height="24" viewBox="0 0 140 24"><defs><style>.cls-1{fill:#0089d9;}.cls-1,.cls-2,.cls-3,.cls-4,.cls-5{fill-rule:evenodd;}.cls-2{fill:#d7d7d7;}.cls-3{fill:#39a6e6;}.cls-4{fill:#fff;}.cls-5{fill:#737373;}</style></defs><title>24</title><g id="Search"><path class="cls-1" d="M23.74,22.18l-3.07-3.07a1,1,0,0,0-1-.18l-.54-.54a11,11,0,1,0-.71.71l.59.59a1.06,1.06,0,0,0,.23,1l3.07,3.07a1,1,0,0,0,1.45-.09A1.08,1.08,0,0,0,23.74,22.18ZM11,20a9,9,0,1,1,9-9A9,9,0,0,1,11,20ZM5,15C4.34,10.86,6,6.15,7.86,4.53,4,5.87,2.94,12,5,15Z"/><path class="cls-2" d="M52.72,22.18l-3.07-3.07a1,1,0,0,0-1-.18l-.54-.54a11,11,0,1,0-.71.71l.59.59a1.06,1.06,0,0,0,.23,1l3.07,3.07a1,1,0,0,0,1.45-.09A1.08,1.08,0,0,0,52.72,22.18ZM40,20a9,9,0,1,1,9-9A9,9,0,0,1,40,20Zm-6-5c-.69-4.12.92-8.83,2.83-10.45C33,5.87,31.92,12,34,15Z"/><path class="cls-3" d="M81.72,22.18l-3.07-3.07a1,1,0,0,0-1-.18l-.54-.54a11,11,0,1,0-.71.71l.59.59a1.06,1.06,0,0,0,.23,1l3.07,3.07a1,1,0,0,0,1.45-.09A1.08,1.08,0,0,0,81.72,22.18ZM69,20a9,9,0,1,1,9-9A9,9,0,0,1,69,20Zm-6-5c-.69-4.12.92-8.83,2.83-10.45C62,5.87,60.92,12,63,15Z"/><path class="cls-4" d="M110.76,22.18l-3.07-3.07a1,1,0,0,0-1-.18l-.54-.54a11,11,0,1,0-.71.71l.59.59a1.06,1.06,0,0,0,.23,1l3.07,3.07a1,1,0,0,0,1.45-.09A1.08,1.08,0,0,0,110.76,22.18ZM98,20a9,9,0,1,1,9-9A9,9,0,0,1,98,20Zm-6-5c-.69-4.12.92-8.83,2.83-10.45C91,5.87,90,12,92.05,15Z"/><path class="cls-5" d="M139.72,22.18l-3.07-3.07a1,1,0,0,0-1-.18l-.54-.54a11,11,0,1,0-.71.71l.59.59a1.06,1.06,0,0,0,.23,1l3.07,3.07a1,1,0,0,0,1.45-.09A1.08,1.08,0,0,0,139.72,22.18ZM127,20a9,9,0,1,1,9-9A9,9,0,0,1,127,20Zm-6-5c-.69-4.12.92-8.83,2.83-10.45C120,5.87,118.92,12,121,15Z"/></g></svg>