<svg xmlns="http://www.w3.org/2000/svg" width="140" height="24" viewBox="0 0 140 24"><defs><style>.cls-1{fill:#0089d9;}.cls-2{fill:#d7d7d7;}.cls-3{fill:#39a6e6;}.cls-4{fill:#fff;}.cls-5{fill:#737373;}</style></defs><title>24</title><g id="Secret_Document" data-name="Secret Document"><path class="cls-1" d="M16,0A8,8,0,0,0,8.58,11L.29,19.29A1,1,0,0,0,0,20v3a1,1,0,0,0,1,1H5a1,1,0,0,0,1-1V22H7a1,1,0,0,0,1-1V20H9a1,1,0,0,0,1-1V18h1a1,1,0,0,0,.71-.29l2-2A8,8,0,1,0,16,0ZM13.83,13.6a1,1,0,0,0-1.07.23L10.59,16H9a1,1,0,0,0-1,1v1H7a1,1,0,0,0-1,1v1H5a1,1,0,0,0-1,1v1H2V20.41l8.49-8.49a1,1,0,0,0,.18-1.17,6,6,0,1,1,3.16,2.84ZM17.5,4A2.5,2.5,0,1,0,20,6.5,2.5,2.5,0,0,0,17.5,4Zm0,4A1.5,1.5,0,1,1,19,6.5,1.5,1.5,0,0,1,17.5,8Z"/><path class="cls-2" d="M45.08,0a8,8,0,0,0-7.42,11l-8.29,8.29a1,1,0,0,0-.29.71v3a1,1,0,0,0,1,1h4a1,1,0,0,0,1-1V22h1a1,1,0,0,0,1-1V20h1a1,1,0,0,0,1-1V18h1a1,1,0,0,0,.71-.29l2-2A8,8,0,1,0,45.08,0ZM42.92,13.6a1,1,0,0,0-1.07.23L39.67,16H38.08a1,1,0,0,0-1,1v1h-1a1,1,0,0,0-1,1v1h-1a1,1,0,0,0-1,1v1h-2V20.41l8.49-8.49a1,1,0,0,0,.18-1.17,6,6,0,1,1,3.16,2.84ZM46.58,4a2.5,2.5,0,1,0,2.5,2.5A2.5,2.5,0,0,0,46.58,4Zm0,4a1.5,1.5,0,1,1,1.5-1.5A1.5,1.5,0,0,1,46.58,8Z"/><path class="cls-3" d="M74,0a8,8,0,0,0-7.42,11l-8.29,8.29A1,1,0,0,0,58,20v3a1,1,0,0,0,1,1h4a1,1,0,0,0,1-1V22h1a1,1,0,0,0,1-1V20h1a1,1,0,0,0,1-1V18h1a1,1,0,0,0,.71-.29l2-2A8,8,0,1,0,74,0ZM71.83,13.6a1,1,0,0,0-1.07.23L68.59,16H67a1,1,0,0,0-1,1v1H65a1,1,0,0,0-1,1v1H63a1,1,0,0,0-1,1v1H60V20.41l8.49-8.49a1,1,0,0,0,.18-1.17,6,6,0,1,1,3.16,2.84ZM75.5,4A2.5,2.5,0,1,0,78,6.5,2.5,2.5,0,0,0,75.5,4Zm0,4A1.5,1.5,0,1,1,77,6.5,1.5,1.5,0,0,1,75.5,8Z"/><path class="cls-4" d="M103,0a8,8,0,0,0-7.42,11l-8.29,8.29A1,1,0,0,0,87,20v3a1,1,0,0,0,1,1h4a1,1,0,0,0,1-1V22h1a1,1,0,0,0,1-1V20h1a1,1,0,0,0,1-1V18h1a1,1,0,0,0,.71-.29l2-2A8,8,0,1,0,103,0Zm-2.17,13.6a1,1,0,0,0-1.07.23L97.59,16H96a1,1,0,0,0-1,1v1H94a1,1,0,0,0-1,1v1H92a1,1,0,0,0-1,1v1H89V20.41l8.49-8.49a1,1,0,0,0,.18-1.17,6,6,0,1,1,3.16,2.84ZM104.5,4A2.5,2.5,0,1,0,107,6.5,2.5,2.5,0,0,0,104.5,4Zm0,4A1.5,1.5,0,1,1,106,6.5,1.5,1.5,0,0,1,104.5,8Z"/><path class="cls-5" d="M132,0a8,8,0,0,0-7.42,11l-8.29,8.29A1,1,0,0,0,116,20v3a1,1,0,0,0,1,1h4a1,1,0,0,0,1-1V22h1a1,1,0,0,0,1-1V20h1a1,1,0,0,0,1-1V18h1a1,1,0,0,0,.71-.29l2-2A8,8,0,1,0,132,0Zm-2.17,13.6a1,1,0,0,0-1.07.23L126.59,16H125a1,1,0,0,0-1,1v1h-1a1,1,0,0,0-1,1v1h-1a1,1,0,0,0-1,1v1h-2V20.41l8.49-8.49a1,1,0,0,0,.18-1.17,6,6,0,1,1,3.16,2.84ZM133.5,4A2.5,2.5,0,1,0,136,6.5,2.5,2.5,0,0,0,133.5,4Zm0,4A1.5,1.5,0,1,1,135,6.5,1.5,1.5,0,0,1,133.5,8Z"/></g></svg>