<svg xmlns="http://www.w3.org/2000/svg" width="140" height="24" viewBox="0 0 140 24"><defs><style>.cls-1{fill:#0089d9;}.cls-1,.cls-2,.cls-3,.cls-4,.cls-5{fill-rule:evenodd;}.cls-2{fill:#d7d7d7;}.cls-3{fill:#39a6e6;}.cls-4{fill:#fff;}.cls-5{fill:#737373;}</style></defs><title>24_sound</title><g id="Sound"><path class="cls-1" d="M15,2.37V0H13V15.25A6.94,6.94,0,0,0,8.88,14C5.5,14,3,16.17,3,18.95s2.5,5,5.88,5,6.13-2.25,6.13-5a4.14,4.14,0,0,0-.09-.82L15,18,15,4.37c.13,3.76,4,3.84,4,7.73,0,2,2,2,2,0C21,4.3,15.17,6.09,15,2.37Zm-8.12,17a2,2,0,1,1,2-2A2,2,0,0,1,6.87,19.4Z"/><path class="cls-2" d="M44,2.37V0H42V15.25A6.94,6.94,0,0,0,37.88,14c-3.39,0-5.88,2.22-5.88,5s2.5,5,5.88,5,6.13-2.25,6.13-5a4.14,4.14,0,0,0-.09-.82L44,18,44,4.37c.13,3.76,4,3.84,4,7.73,0,2,2,2,2,0C50,4.3,44.17,6.09,44,2.37Zm-8.12,17a2,2,0,1,1,2-2A2,2,0,0,1,35.87,19.4Z"/><path class="cls-3" d="M73,2.37V0H71V15.25A6.94,6.94,0,0,0,66.88,14c-3.39,0-5.88,2.22-5.88,5s2.5,5,5.88,5,6.13-2.25,6.13-5a4.14,4.14,0,0,0-.09-.82L73,18,73,4.37c.13,3.76,4,3.84,4,7.73,0,2,2,2,2,0C79,4.3,73.17,6.09,73,2.37Zm-8.12,17a2,2,0,1,1,2-2A2,2,0,0,1,64.87,19.4Z"/><path class="cls-4" d="M102,2.37V0h-2V15.25A6.94,6.94,0,0,0,95.88,14c-3.39,0-5.88,2.22-5.88,5s2.5,5,5.88,5,6.13-2.25,6.13-5a4.14,4.14,0,0,0-.09-.82L102,18l0-13.67c.13,3.76,4,3.84,4,7.73,0,2,2,2,2,0C108,4.3,102.17,6.09,102,2.37Zm-8.12,17a2,2,0,1,1,2-2A2,2,0,0,1,93.87,19.4Z"/><path class="cls-5" d="M131,2.37V0h-2V15.25a6.94,6.94,0,0,0-4.12-1.3c-3.39,0-5.88,2.22-5.88,5s2.5,5,5.88,5,6.13-2.25,6.13-5a4.14,4.14,0,0,0-.09-.82L131,18l0-13.67c.13,3.76,4,3.84,4,7.73,0,2,2,2,2,0C137,4.3,131.17,6.09,131,2.37Zm-8.12,17a2,2,0,1,1,2-2A2,2,0,0,1,122.87,19.4Z"/></g></svg>