<svg xmlns="http://www.w3.org/2000/svg" width="140" height="24" viewBox="0 0 140 24"><defs><style>.cls-1{fill:#0089d9;}.cls-1,.cls-2,.cls-3,.cls-4,.cls-5{fill-rule:evenodd;}.cls-2{fill:#d7d7d7;}.cls-3{fill:#39a6e6;}.cls-4{fill:#fff;}.cls-5{fill:#737373;}</style></defs><title>24</title><g id="Time"><path class="cls-1" d="M12,3H11L10,13s.74,1,1.5,1a1.81,1.81,0,0,0,1.11-.58L17.91,13V12l-5.06-.5Zm8.49.51a12,12,0,1,0,0,17A12,12,0,0,0,20.49,3.51Zm-1.4,15.57a10,10,0,1,1,0-14.16A10,10,0,0,1,19.08,19.08Z"/><path class="cls-2" d="M49.49,3.51a12,12,0,1,0,0,17A12,12,0,0,0,49.49,3.51Zm-1.4,15.57a10,10,0,1,1,0-14.16A10,10,0,0,1,48.08,19.08ZM41,3H40L39,13s.74,1,1.5,1a1.81,1.81,0,0,0,1.11-.58L46.91,13V12l-5.06-.5Z"/><path class="cls-3" d="M70,3H69L68,13s.74,1,1.5,1a1.81,1.81,0,0,0,1.11-.58L75.91,13V12l-5.06-.5Zm8.49.51a12,12,0,1,0,0,17A12,12,0,0,0,78.49,3.51Zm-1.4,15.57a10,10,0,1,1,0-14.16A10,10,0,0,1,77.08,19.08Z"/><path class="cls-4" d="M99,3H98L97,13s.74,1,1.5,1a1.81,1.81,0,0,0,1.11-.58l5.29-.45V12l-5.06-.5Zm8.49.51a12,12,0,1,0,0,17A12,12,0,0,0,107.49,3.51Zm-1.4,15.57a10,10,0,1,1,0-14.16A10,10,0,0,1,106.08,19.08Z"/><path class="cls-5" d="M128,3h-1l-1,10s.74,1,1.5,1a1.81,1.81,0,0,0,1.11-.58l5.29-.45V12l-5.06-.5Zm8.49.51a12,12,0,1,0,0,17A12,12,0,0,0,136.49,3.51Zm-1.4,15.57a10,10,0,1,1,0-14.16A10,10,0,0,1,135.08,19.08Z"/></g></svg>