<svg xmlns="http://www.w3.org/2000/svg" width="140" height="24" viewBox="0 0 140 24"><defs><style>.cls-1{fill:#39a6e6;}.cls-2{fill:#fff;}.cls-3{fill:#737373;}.cls-4{fill:#d7d7d7;}.cls-5{fill:#0089d9;}</style></defs><title>24</title><g id="Tile_View" data-name="Tile View"><path class="cls-1" d="M78,13H72a1,1,0,0,0-1,1v6a1,1,0,0,0,1,1h6a1,1,0,0,0,1-1V14A1,1,0,0,0,78,13Zm-1,6H73V15h4Z"/><path class="cls-1" d="M68,13H62a1,1,0,0,0-1,1v6a1,1,0,0,0,1,1h6a1,1,0,0,0,1-1V14A1,1,0,0,0,68,13Zm-1,6H63V15h4Z"/><path class="cls-1" d="M78,3H72a1,1,0,0,0-1,1v6a1,1,0,0,0,1,1h6a1,1,0,0,0,1-1V4A1,1,0,0,0,78,3ZM77,9H73V5h4Z"/><path class="cls-1" d="M68,3H62a1,1,0,0,0-1,1v6a1,1,0,0,0,1,1h6a1,1,0,0,0,1-1V4A1,1,0,0,0,68,3ZM67,9H63V5h4Z"/><path class="cls-2" d="M107,13h-6a1,1,0,0,0-1,1v6a1,1,0,0,0,1,1h6a1,1,0,0,0,1-1V14A1,1,0,0,0,107,13Zm-1,6h-4V15h4Z"/><path class="cls-2" d="M97,13H91a1,1,0,0,0-1,1v6a1,1,0,0,0,1,1h6a1,1,0,0,0,1-1V14A1,1,0,0,0,97,13Zm-1,6H92V15h4Z"/><path class="cls-2" d="M107,3h-6a1,1,0,0,0-1,1v6a1,1,0,0,0,1,1h6a1,1,0,0,0,1-1V4A1,1,0,0,0,107,3Zm-1,6h-4V5h4Z"/><path class="cls-2" d="M97,3H91a1,1,0,0,0-1,1v6a1,1,0,0,0,1,1h6a1,1,0,0,0,1-1V4A1,1,0,0,0,97,3ZM96,9H92V5h4Z"/><path class="cls-3" d="M136,13h-6a1,1,0,0,0-1,1v6a1,1,0,0,0,1,1h6a1,1,0,0,0,1-1V14A1,1,0,0,0,136,13Zm-1,6h-4V15h4Z"/><path class="cls-3" d="M126,13h-6a1,1,0,0,0-1,1v6a1,1,0,0,0,1,1h6a1,1,0,0,0,1-1V14A1,1,0,0,0,126,13Zm-1,6h-4V15h4Z"/><path class="cls-3" d="M136,3h-6a1,1,0,0,0-1,1v6a1,1,0,0,0,1,1h6a1,1,0,0,0,1-1V4A1,1,0,0,0,136,3Zm-1,6h-4V5h4Z"/><path class="cls-3" d="M126,3h-6a1,1,0,0,0-1,1v6a1,1,0,0,0,1,1h6a1,1,0,0,0,1-1V4A1,1,0,0,0,126,3Zm-1,6h-4V5h4Z"/><path class="cls-4" d="M49,13H43a1,1,0,0,0-1,1v6a1,1,0,0,0,1,1h6a1,1,0,0,0,1-1V14A1,1,0,0,0,49,13Zm-1,6H44V15h4Z"/><path class="cls-4" d="M39,13H33a1,1,0,0,0-1,1v6a1,1,0,0,0,1,1h6a1,1,0,0,0,1-1V14A1,1,0,0,0,39,13Zm-1,6H34V15h4Z"/><path class="cls-4" d="M49,3H43a1,1,0,0,0-1,1v6a1,1,0,0,0,1,1h6a1,1,0,0,0,1-1V4A1,1,0,0,0,49,3ZM48,9H44V5h4Z"/><path class="cls-4" d="M39,3H33a1,1,0,0,0-1,1v6a1,1,0,0,0,1,1h6a1,1,0,0,0,1-1V4A1,1,0,0,0,39,3ZM38,9H34V5h4Z"/><path class="cls-5" d="M20,13H14a1,1,0,0,0-1,1v6a1,1,0,0,0,1,1h6a1,1,0,0,0,1-1V14A1,1,0,0,0,20,13Zm-1,6H15V15h4Z"/><path class="cls-5" d="M10,13H4a1,1,0,0,0-1,1v6a1,1,0,0,0,1,1h6a1,1,0,0,0,1-1V14A1,1,0,0,0,10,13ZM9,19H5V15H9Z"/><path class="cls-5" d="M20,3H14a1,1,0,0,0-1,1v6a1,1,0,0,0,1,1h6a1,1,0,0,0,1-1V4A1,1,0,0,0,20,3ZM19,9H15V5h4Z"/><path class="cls-5" d="M10,3H4A1,1,0,0,0,3,4v6a1,1,0,0,0,1,1h6a1,1,0,0,0,1-1V4A1,1,0,0,0,10,3ZM9,9H5V5H9Z"/></g></svg>