<svg xmlns="http://www.w3.org/2000/svg" width="140" height="24" viewBox="0 0 140 24"><defs><style>.cls-1{fill:#0089d9;}.cls-1,.cls-2,.cls-3,.cls-4,.cls-5{fill-rule:evenodd;}.cls-2{fill:#d7d7d7;}.cls-3{fill:#39a6e6;}.cls-4{fill:#fff;}.cls-5{fill:#737373;}</style></defs><title>24</title><g id="Text_Files" data-name="Text Files"><path class="cls-1" d="M16.5,14h-9a.5.5,0,1,0,0,1h9a.5.5,0,1,0,0-1ZM16,.28V0H2V24H22V6.25Zm0,2.21L19.59,6H16ZM20,22H4V2H14V8h6ZM7,11.5a.5.5,0,0,0,.5.5h9a.5.5,0,1,0,0-1h-9A.5.5,0,0,0,7,11.5ZM13.5,17h-6a.5.5,0,1,0,0,1h6a.5.5,0,1,0,0-1Z"/><path class="cls-2" d="M45.5,14h-9a.5.5,0,1,0,0,1h9a.5.5,0,1,0,0-1ZM36,11.5a.5.5,0,0,0,.5.5h9a.5.5,0,1,0,0-1h-9A.5.5,0,0,0,36,11.5ZM45,.28V0H31V24H51V6.25Zm0,2.21L48.59,6H45ZM49,22H33V2H43V8h6Zm-6.5-5h-6a.5.5,0,1,0,0,1h6a.5.5,0,1,0,0-1Z"/><path class="cls-3" d="M74.5,14h-9a.5.5,0,1,0,0,1h9a.5.5,0,1,0,0-1ZM65,11.5a.5.5,0,0,0,.5.5h9a.5.5,0,1,0,0-1h-9A.5.5,0,0,0,65,11.5ZM74,.28V0H60V24H80V6.25Zm0,2.21L77.59,6H74ZM78,22H62V2H72V8h6Zm-6.5-5h-6a.5.5,0,1,0,0,1h6a.5.5,0,1,0,0-1Z"/><path class="cls-4" d="M103.5,14h-9a.5.5,0,1,0,0,1h9a.5.5,0,1,0,0-1ZM103,.28V0H89V24h20V6.25Zm0,2.21L106.59,6H103ZM107,22H91V2h10V8h6ZM94,11.5a.5.5,0,0,0,.5.5h9a.5.5,0,1,0,0-1h-9A.5.5,0,0,0,94,11.5Zm6.5,5.5h-6a.5.5,0,1,0,0,1h6a.5.5,0,1,0,0-1Z"/><path class="cls-5" d="M132.5,14h-9a.5.5,0,1,0,0,1h9a.5.5,0,1,0,0-1ZM132,.28V0H118V24h20V6.25Zm0,2.21L135.59,6H132ZM136,22H120V2h10V8h6ZM123,11.5a.5.5,0,0,0,.5.5h9a.5.5,0,1,0,0-1h-9A.5.5,0,0,0,123,11.5Zm6.5,5.5h-6a.5.5,0,1,0,0,1h6a.5.5,0,1,0,0-1Z"/></g></svg>