<svg xmlns="http://www.w3.org/2000/svg" width="140" height="24" viewBox="0 0 140 24"><defs><style>.cls-1{fill:#0089d9;}.cls-1,.cls-2,.cls-3,.cls-4,.cls-5{fill-rule:evenodd;}.cls-2{fill:#d7d7d7;}.cls-3{fill:#39a6e6;}.cls-4{fill:#fff;}.cls-5{fill:#737373;}</style></defs><title>24</title><g id="Upload"><path class="cls-1" d="M23.63,1.24A1,1,0,0,0,23,1H1.09L1,1A1,1,0,0,0,0,2V2H0V16a1,1,0,0,0,1,1H7a1,1,0,0,0,0-2H2V3H22V15H17a1,1,0,1,0,0,2h6a1,1,0,0,0,1-1V2A1,1,0,0,0,23.63,1.24ZM17.37,11.87a.89.89,0,0,0-.09-1.32l-3.95-4a1.11,1.11,0,0,0-.66-.34,1,1,0,0,0-1.38,0,1.12,1.12,0,0,0-.61.32l-3.95,4A.88.88,0,1,0,8,11.8l3-3V22a1,1,0,1,0,2,0V8.73l3.05,3.05A.9.9,0,0,0,17.37,11.87Z"/><path class="cls-2" d="M52.63,1.24A1,1,0,0,0,52,1H30.09L30,1a1,1,0,0,0-1,1V2h0V16a1,1,0,0,0,1,1h6a1,1,0,0,0,0-2H31V3H51V15H46a1,1,0,1,0,0,2h6a1,1,0,0,0,1-1V2A1,1,0,0,0,52.63,1.24ZM46.38,11.87a.89.89,0,0,0-.09-1.32l-3.95-4a1.11,1.11,0,0,0-.66-.34,1,1,0,0,0-1.38,0,1.12,1.12,0,0,0-.61.32l-3.95,4A.88.88,0,1,0,37,11.8l3-3V22a1,1,0,1,0,2,0V8.73l3.05,3.06A.9.9,0,0,0,46.38,11.87Z"/><path class="cls-3" d="M81.63,1.24A1,1,0,0,0,81,1H59.09L59,1a1,1,0,0,0-1,1V2h0V16a1,1,0,0,0,1,1h6a1,1,0,0,0,0-2H60V3H80V15H75a1,1,0,1,0,0,2h6a1,1,0,0,0,1-1V2A1,1,0,0,0,81.63,1.24ZM75.37,11.87a.89.89,0,0,0-.09-1.32l-3.95-4a1.11,1.11,0,0,0-.66-.34,1,1,0,0,0-1.38,0,1.12,1.12,0,0,0-.61.32l-3.95,4A.88.88,0,1,0,66,11.8l3-3V22a1,1,0,1,0,2,0V8.73l3.05,3.05A.9.9,0,0,0,75.37,11.87Z"/><path class="cls-4" d="M110.63,1.24A1,1,0,0,0,110,1H88.09L88,1a1,1,0,0,0-1,1V2h0V16a1,1,0,0,0,1,1h6a1,1,0,0,0,0-2H89V3h20V15h-5a1,1,0,1,0,0,2h6a1,1,0,0,0,1-1V2A1,1,0,0,0,110.63,1.24Zm-6.25,10.64a.89.89,0,0,0-.09-1.32l-3.95-4a1.11,1.11,0,0,0-.66-.34,1,1,0,0,0-1.38,0,1.12,1.12,0,0,0-.61.32l-3.95,4A.88.88,0,1,0,95,11.8l3-3V22a1,1,0,1,0,2,0V8.73l3.05,3.06A.9.9,0,0,0,104.38,11.87Z"/><path class="cls-5" d="M139.63,1.24A1,1,0,0,0,139,1H117.09L117,1a1,1,0,0,0-1,1V2h0V16a1,1,0,0,0,1,1h6a1,1,0,0,0,0-2h-5V3h20V15h-5a1,1,0,1,0,0,2h6a1,1,0,0,0,1-1V2A1,1,0,0,0,139.63,1.24Zm-6.25,10.64a.89.89,0,0,0-.09-1.32l-3.95-4a1.11,1.11,0,0,0-.66-.34,1,1,0,0,0-1.38,0,1.12,1.12,0,0,0-.61.32l-3.95,4A.88.88,0,1,0,124,11.8l3-3V22a1,1,0,1,0,2,0V8.73l3.05,3.05A.9.9,0,0,0,133.37,11.87Z"/></g></svg>