<svg xmlns="http://www.w3.org/2000/svg" width="169" height="24" viewBox="0 0 169 24"><defs><style>.cls-1{fill:#0089d9;}.cls-2{fill:#39a6e6;}.cls-3{fill:#fff;}.cls-4{fill:#737373;}.cls-5{fill:#d7d7d7;}</style></defs><title>24</title><g id="User_List_2" data-name="User List 2"><path class="cls-1" d="M159.9,8.73a1.77,1.77,0,0,0-1.18-1.42c.38-1,.64-.82.64-2.37,0-1.15-.68-3-2.51-3.05A4,4,0,0,0,153.23,0a5.08,5.08,0,0,0-5.28,4.94,4.62,4.62,0,0,0,.61,2.38,1.75,1.75,0,0,0-1.21,1.41c-.06,1.08.82,3,2,3.29a3.52,3.52,0,0,0,1.09,2.47,2,2,0,0,1,0,1,1,1,0,0,0-.82.25,40.63,40.63,0,0,1-4.38,3.51s0,0,0,.06c-.22.24-.18.55-.18.88,0,1.49,6.65,2.06,12,1.76V15.49h-.11a2.25,2.25,0,0,1,0-.92l.14-.17V12h1.06C159.17,11.67,160,9.79,159.9,8.73Zm-5.12-4.32c-.63,2-3.13-.28-4.85,1.64,1.22-3.11,3.18-1.33,5.18-2.74.14,1,1.46.57,1.86,2.59C156.23,5.25,155.13,5.52,154.78,4.41ZM158,24h2V22h-2Zm0-3h2V19h-2Zm4-6h6a1,1,0,0,0,0-2h-6a1,1,0,0,0,0,2Zm6,7h-6a1,1,0,0,0,0,2h6a1,1,0,0,0,0-2Zm-10-4h2V16h-2Zm10-2h-6a1,1,0,0,0,0,2h6a1,1,0,0,0,0-2Zm0,3h-6a1,1,0,0,0,0,2h6a1,1,0,0,0,0-2Zm-10-4h2V13h-2Z"/><path class="cls-2" d="M68.13,4.23C66.55,5.35,65,3.94,64,6.4c1.36-1.52,3.33.3,3.83-1.3.27.88,1.14.67,1.73,1.18C69.29,4.68,68.24,5,68.13,4.23Zm4.77,4.5a1.77,1.77,0,0,0-1.18-1.42c.38-1,.64-.82.64-2.37,0-1.15-.68-3-2.51-3.05A4,4,0,0,0,66.23,0a5.08,5.08,0,0,0-5.28,4.94,4.63,4.63,0,0,0,.61,2.38,1.75,1.75,0,0,0-1.21,1.41c-.06,1.08.82,3,2,3.29a3.52,3.52,0,0,0,1.09,2.47,2,2,0,0,1,0,1,1,1,0,0,0-.82.25,40.61,40.61,0,0,1-4.38,3.51.23.23,0,0,0-.06.12,1.36,1.36,0,0,0-.14.83c0,1.49,6.65,2.06,12,1.76V20a29.87,29.87,0,0,1-9-.24c1.39-1,2.8-2.28,3.71-3a3.82,3.82,0,0,0,.15-3.14,4.32,4.32,0,0,1-.78-2,1.8,1.8,0,0,0-1.16-1.5,1.54,1.54,0,0,1-.41-1.31c.9.09,1.3-1,1-1.61C60.87,1.7,67.61.48,68.91,3.82c1.51-.65,2.43,1.86.93,3.15-.56,1.09,1.09,1.6,1.09,1.6a2.73,2.73,0,0,1-.76,1.94A1.54,1.54,0,0,0,69,12a2.81,2.81,0,0,1-.66,2.23c-1,2.4.67,2.35.67,2.35.28.19.63.45,1,.75V15.49h-.11a2.25,2.25,0,0,1,0-.92l.14-.16V12h1.06C72.17,11.67,73,9.79,72.9,8.73ZM71,21h2V19H71Zm0,3h2V22H71Zm4-9h6a1,1,0,0,0,0-2H75a1,1,0,0,0,0,2Zm6,7H75a1,1,0,0,0,0,2h6a1,1,0,0,0,0-2Zm0-6H75a1,1,0,0,0,0,2h6a1,1,0,0,0,0-2Zm0,3H75a1,1,0,0,0,0,2h6a1,1,0,0,0,0-2ZM71,18h2V16H71Zm0-3h2V13H71Z"/><path class="cls-3" d="M97.13,4.23C95.55,5.35,94,3.94,93,6.4c1.36-1.52,3.33.3,3.83-1.3.27.88,1.14.67,1.73,1.18C98.29,4.68,97.24,5,97.13,4.23Zm4.77,4.5a1.77,1.77,0,0,0-1.18-1.42c.38-1,.64-.82.64-2.37,0-1.15-.68-3-2.51-3.05A4,4,0,0,0,95.23,0a5.08,5.08,0,0,0-5.28,4.94,4.63,4.63,0,0,0,.61,2.38,1.75,1.75,0,0,0-1.21,1.41c-.06,1.08.82,3,2,3.29a3.52,3.52,0,0,0,1.09,2.47,2,2,0,0,1,0,1,1,1,0,0,0-.82.25,40.61,40.61,0,0,1-4.38,3.51.23.23,0,0,0-.06.12,1.36,1.36,0,0,0-.14.83c0,1.49,6.65,2.06,12,1.76V20a29.87,29.87,0,0,1-9-.24c1.39-1,2.8-2.28,3.71-3a3.82,3.82,0,0,0,.15-3.14,4.32,4.32,0,0,1-.78-2,1.8,1.8,0,0,0-1.16-1.5,1.54,1.54,0,0,1-.41-1.31c.9.09,1.3-1,1-1.61C89.87,1.7,96.61.48,97.91,3.82c1.51-.65,2.43,1.86.93,3.15-.56,1.09,1.09,1.6,1.09,1.6a2.73,2.73,0,0,1-.76,1.94A1.54,1.54,0,0,0,98,12a2.81,2.81,0,0,1-.66,2.23c-1,2.4.67,2.35.67,2.35.28.19.63.45,1,.75V15.49h-.11a2.25,2.25,0,0,1,0-.92l.14-.16V12h1.06C101.17,11.67,102,9.79,101.9,8.73ZM110,19h-6a1,1,0,0,0,0,2h6a1,1,0,0,0,0-2Zm0-3h-6a1,1,0,0,0,0,2h6a1,1,0,0,0,0-2Zm0,6h-6a1,1,0,0,0,0,2h6a1,1,0,0,0,0-2Zm-10,2h2V22h-2Zm4-9h6a1,1,0,0,0,0-2h-6a1,1,0,0,0,0,2Zm-4,0h2V13h-2Zm0,3h2V16h-2Zm0,3h2V19h-2Z"/><path class="cls-4" d="M130.9,8.73a1.77,1.77,0,0,0-1.18-1.42c.38-1,.64-.82.64-2.37,0-1.15-.68-3-2.51-3.05A4,4,0,0,0,124.23,0a5.08,5.08,0,0,0-5.28,4.94,4.63,4.63,0,0,0,.61,2.38,1.75,1.75,0,0,0-1.21,1.41c-.06,1.08.82,3,2,3.29a3.52,3.52,0,0,0,1.09,2.47,2,2,0,0,1,0,1,1,1,0,0,0-.82.25,40.61,40.61,0,0,1-4.38,3.51.23.23,0,0,0-.06.12,1.36,1.36,0,0,0-.14.83c0,1.49,6.65,2.06,12,1.76V20a29.87,29.87,0,0,1-9-.24c1.39-1,2.8-2.28,3.71-3a3.82,3.82,0,0,0,.15-3.14,4.32,4.32,0,0,1-.78-2,1.8,1.8,0,0,0-1.16-1.5,1.54,1.54,0,0,1-.41-1.31c.9.09,1.3-1,1-1.61-2.63-5.55,4.11-6.78,5.41-3.44,1.51-.65,2.43,1.86.93,3.15-.56,1.09,1.09,1.6,1.09,1.6a2.73,2.73,0,0,1-.76,1.94A1.54,1.54,0,0,0,127,12a2.81,2.81,0,0,1-.66,2.23c-1,2.4.67,2.35.67,2.35.28.19.63.45,1,.75V15.49h-.11a2.25,2.25,0,0,1,0-.92l.14-.16V12h1.06C130.17,11.67,131,9.79,130.9,8.73Zm-4.77-4.5C124.55,5.35,123,3.94,122,6.4c1.36-1.52,3.33.3,3.83-1.3.27.88,1.14.67,1.73,1.18C127.29,4.68,126.24,5,126.13,4.23ZM139,16h-6a1,1,0,0,0,0,2h6a1,1,0,0,0,0-2Zm0,3h-6a1,1,0,0,0,0,2h6a1,1,0,0,0,0-2Zm-6-4h6a1,1,0,0,0,0-2h-6a1,1,0,0,0,0,2Zm-4,9h2V22h-2Zm0-9h2V13h-2Zm10,7h-6a1,1,0,0,0,0,2h6a1,1,0,0,0,0-2Zm-10-1h2V19h-2Zm0-3h2V16h-2Z"/><path class="cls-5" d="M43.9,8.73a1.77,1.77,0,0,0-1.18-1.42c.38-1,.64-.82.64-2.37,0-1.15-.68-3-2.51-3.05A4,4,0,0,0,37.23,0a5.08,5.08,0,0,0-5.28,4.94,4.63,4.63,0,0,0,.61,2.38,1.75,1.75,0,0,0-1.21,1.41c-.06,1.08.82,3,2,3.29a3.52,3.52,0,0,0,1.09,2.47,2,2,0,0,1,0,1,1,1,0,0,0-.82.25,40.61,40.61,0,0,1-4.38,3.51.23.23,0,0,0-.06.12,1.36,1.36,0,0,0-.14.83c0,1.49,6.65,2.06,12,1.76V20a29.87,29.87,0,0,1-9-.24c1.39-1,2.8-2.28,3.71-3a3.82,3.82,0,0,0,.15-3.14,4.32,4.32,0,0,1-.78-2,1.8,1.8,0,0,0-1.16-1.5,1.54,1.54,0,0,1-.41-1.31c.9.09,1.3-1,1-1.61C31.87,1.7,38.61.48,39.91,3.82c1.51-.65,2.43,1.86.93,3.15-.56,1.09,1.09,1.6,1.09,1.6a2.73,2.73,0,0,1-.76,1.94A1.54,1.54,0,0,0,40,12a2.81,2.81,0,0,1-.66,2.23c-1,2.4.67,2.35.67,2.35.28.19.63.45,1,.75V15.49h-.11a2.25,2.25,0,0,1,0-.92l.14-.16V12h1.06C43.17,11.67,44,9.79,43.9,8.73Zm-4.77-4.5C37.55,5.35,36,3.94,35,6.4c1.36-1.52,3.33.3,3.83-1.3.27.88,1.14.67,1.73,1.18C40.29,4.68,39.24,5,39.13,4.23ZM42,21h2V19H42Zm0,3h2V22H42Zm4-9h6a1,1,0,0,0,0-2H46a1,1,0,0,0,0,2Zm6,4H46a1,1,0,0,0,0,2h6a1,1,0,0,0,0-2Zm0-3H46a1,1,0,0,0,0,2h6a1,1,0,0,0,0-2ZM42,15h2V13H42Zm0,3h2V16H42Zm10,4H46a1,1,0,0,0,0,2h6a1,1,0,0,0,0-2Z"/><path class="cls-1" d="M14.9,8.73a1.77,1.77,0,0,0-1.18-1.42c.38-1,.64-.82.64-2.37,0-1.15-.68-3-2.51-3.05A4,4,0,0,0,8.23,0,5.08,5.08,0,0,0,2.95,4.94a4.63,4.63,0,0,0,.61,2.38A1.75,1.75,0,0,0,2.34,8.73c-.06,1.08.82,3,2,3.29a3.52,3.52,0,0,0,1.09,2.47,2,2,0,0,1,0,1,1,1,0,0,0-.82.25A40.61,40.61,0,0,1,.2,19.24a.23.23,0,0,0-.06.12,1.36,1.36,0,0,0-.14.83c0,1.49,6.65,2.06,12,1.76V20a29.87,29.87,0,0,1-9-.24c1.39-1,2.8-2.28,3.71-3a3.82,3.82,0,0,0,.15-3.14,4.32,4.32,0,0,1-.78-2,1.8,1.8,0,0,0-1.16-1.5A1.54,1.54,0,0,1,4.5,8.86c.9.09,1.3-1,1-1.61C2.87,1.7,9.61.48,10.91,3.82c1.51-.65,2.43,1.86.93,3.15-.56,1.09,1.09,1.6,1.09,1.6a2.73,2.73,0,0,1-.76,1.94A1.54,1.54,0,0,0,11,12a2.81,2.81,0,0,1-.66,2.23c-1,2.4.67,2.35.67,2.35.28.19.63.45,1,.75V15.49h-.11a2.25,2.25,0,0,1,0-.92l.14-.16V12h1.06C14.17,11.67,15,9.79,14.9,8.73Zm-4.77-4.5C8.55,5.35,7,3.94,6,6.4c1.36-1.52,3.33.3,3.83-1.3.27.88,1.14.67,1.73,1.18C11.29,4.68,10.24,5,10.13,4.23ZM23,19H17a1,1,0,0,0,0,2h6a1,1,0,0,0,0-2Zm0-3H17a1,1,0,0,0,0,2h6a1,1,0,0,0,0-2Zm-6-1h6a1,1,0,0,0,0-2H17a1,1,0,0,0,0,2Zm-4,9h2V22H13Zm0-9h2V13H13Zm10,7H17a1,1,0,0,0,0,2h6a1,1,0,0,0,0-2ZM13,21h2V19H13Zm0-3h2V16H13Z"/></g></svg>