<svg xmlns="http://www.w3.org/2000/svg" width="169" height="24" viewBox="0 0 169 24"><defs><style>.cls-1{fill:#0089d9;}.cls-1,.cls-2,.cls-3,.cls-4,.cls-5,.cls-6,.cls-7{fill-rule:evenodd;}.cls-2{fill:#d6565a;}.cls-3{fill:#39a6e6;}.cls-4{fill:#e57377;}.cls-5{fill:#fff;}.cls-6{fill:#737373;}.cls-7{fill:#d7d7d7;}</style></defs><title>24</title><g id="Unread_comment" data-name="Unread comment"><path class="cls-1" d="M166,7a4,4,0,0,1-3.45-6H151a6,6,0,0,0-6,6v6a6,6,0,0,0,6,6c1,0,2,3,2,5h1c0-3,3.61-5,4.94-5H163a6,6,0,0,0,6-6V7a6,6,0,0,0-.13-1.23A4,4,0,0,1,166,7Zm-14,5a2,2,0,1,1,2-2A2,2,0,0,1,152,12Zm5,0a2,2,0,1,1,2-2A2,2,0,0,1,157,12Zm5,0a2,2,0,1,1,2-2A2,2,0,0,1,162,12Z"/><path class="cls-2" d="M166,0a3,3,0,1,1-3,3A3,3,0,0,1,166,0Z"/><path class="cls-3" d="M81.87,5.77A4,4,0,0,1,80,6.86S80,7,80,7v6a3.7,3.7,0,0,1-4,4H72a5.92,5.92,0,0,0-5.23,3.19c-.07-2-1-3.19-2.77-3.19a3.7,3.7,0,0,1-4-4V7a3.7,3.7,0,0,1,4-4H75a4,4,0,0,1,.56-2H64a6,6,0,0,0-6,6v6a6,6,0,0,0,6,6c1,0,2,3,2,5h1c0-3,3.61-5,4.94-5H76a6,6,0,0,0,6-6V7A6,6,0,0,0,81.87,5.77ZM73,10a2,2,0,1,0,2-2A2,2,0,0,0,73,10Zm3,0a1,1,0,1,1-1-1A1,1,0,0,1,76,10ZM63,10a2,2,0,1,0,2-2A2,2,0,0,0,63,10Zm3,0a1,1,0,1,1-1-1A1,1,0,0,1,66,10Zm2,0a2,2,0,1,0,2-2A2,2,0,0,0,68,10Zm3,0a1,1,0,1,1-1-1A1,1,0,0,1,71,10Z"/><path class="cls-4" d="M79,0a3,3,0,1,1-3,3A3,3,0,0,1,79,0Z"/><path class="cls-5" d="M102,10a2,2,0,1,0,2-2A2,2,0,0,0,102,10Zm3,0a1,1,0,1,1-1-1A1,1,0,0,1,105,10ZM92,10a2,2,0,1,0,2-2A2,2,0,0,0,92,10Zm3,0a1,1,0,1,1-1-1A1,1,0,0,1,95,10Zm15.87-4.23A4,4,0,0,1,109,6.86S109,7,109,7v6a3.7,3.7,0,0,1-4,4h-4a5.92,5.92,0,0,0-5.23,3.19c-.07-2-1-3.19-2.77-3.19a3.7,3.7,0,0,1-4-4V7a3.7,3.7,0,0,1,4-4h11a4,4,0,0,1,.56-2H93a6,6,0,0,0-6,6v6a6,6,0,0,0,6,6c1,0,2,3,2,5h1c0-3,3.61-5,4.94-5H105a6,6,0,0,0,6-6V7A6,6,0,0,0,110.87,5.77ZM97,10a2,2,0,1,0,2-2A2,2,0,0,0,97,10Zm3,0a1,1,0,1,1-1-1A1,1,0,0,1,100,10Z"/><path class="cls-5" d="M108,0a3,3,0,1,1-3,3A3,3,0,0,1,108,0Z"/><path class="cls-6" d="M131,10a2,2,0,1,0,2-2A2,2,0,0,0,131,10Zm3,0a1,1,0,1,1-1-1A1,1,0,0,1,134,10Zm-13,0a2,2,0,1,0,2-2A2,2,0,0,0,121,10Zm3,0a1,1,0,1,1-1-1A1,1,0,0,1,124,10Zm15.87-4.23A4,4,0,0,1,138,6.86S138,7,138,7v6a3.7,3.7,0,0,1-4,4h-4a5.92,5.92,0,0,0-5.23,3.19c-.07-2-1-3.19-2.77-3.19a3.7,3.7,0,0,1-4-4V7a3.7,3.7,0,0,1,4-4h11a4,4,0,0,1,.56-2H122a6,6,0,0,0-6,6v6a6,6,0,0,0,6,6c1,0,2,3,2,5h1c0-3,3.61-5,4.94-5H134a6,6,0,0,0,6-6V7A6,6,0,0,0,139.87,5.77ZM126,10a2,2,0,1,0,2-2A2,2,0,0,0,126,10Zm3,0a1,1,0,1,1-1-1A1,1,0,0,1,129,10Z"/><path class="cls-6" d="M137,0a3,3,0,1,1-3,3A3,3,0,0,1,137,0Z"/><path class="cls-7" d="M44,10a2,2,0,1,0,2-2A2,2,0,0,0,44,10Zm3,0a1,1,0,1,1-1-1A1,1,0,0,1,47,10Zm-8,0a2,2,0,1,0,2-2A2,2,0,0,0,39,10Zm3,0a1,1,0,1,1-1-1A1,1,0,0,1,42,10Zm-8,0a2,2,0,1,0,2-2A2,2,0,0,0,34,10Zm3,0a1,1,0,1,1-1-1A1,1,0,0,1,37,10ZM52.87,5.77A4,4,0,0,1,51,6.86S51,7,51,7v6a3.7,3.7,0,0,1-4,4H43a5.92,5.92,0,0,0-5.23,3.19c-.07-2-1-3.19-2.77-3.19a3.7,3.7,0,0,1-4-4V7a3.7,3.7,0,0,1,4-4H46a4,4,0,0,1,.56-2H35a6,6,0,0,0-6,6v6a6,6,0,0,0,6,6c1,0,2,3,2,5h1c0-3,3.61-5,4.94-5H47a6,6,0,0,0,6-6V7A6,6,0,0,0,52.87,5.77Z"/><path class="cls-7" d="M50,0a3,3,0,1,1-3,3A3,3,0,0,1,50,0Z"/><path class="cls-1" d="M10,10a2,2,0,1,0,2-2A2,2,0,0,0,10,10Zm3,0a1,1,0,1,1-1-1A1,1,0,0,1,13,10Zm2,0a2,2,0,1,0,2-2A2,2,0,0,0,15,10Zm3,0a1,1,0,1,1-1-1A1,1,0,0,1,18,10ZM5,10A2,2,0,1,0,7,8,2,2,0,0,0,5,10Zm3,0A1,1,0,1,1,7,9,1,1,0,0,1,8,10ZM23.87,5.77A4,4,0,0,1,22,6.86S22,7,22,7v6a3.7,3.7,0,0,1-4,4H14a5.92,5.92,0,0,0-5.23,3.19C8.71,18.2,7.77,17,6,17a3.7,3.7,0,0,1-4-4V7A3.7,3.7,0,0,1,6,3H17a4,4,0,0,1,.56-2H6A6,6,0,0,0,0,7v6a6,6,0,0,0,6,6c1,0,2,3,2,5H9c0-3,3.61-5,4.94-5H18a6,6,0,0,0,6-6V7A6,6,0,0,0,23.87,5.77Z"/><path class="cls-2" d="M21,0a3,3,0,1,1-3,3A3,3,0,0,1,21,0Z"/></g></svg>