<svg xmlns="http://www.w3.org/2000/svg" width="140" height="24" viewBox="0 0 140 24"><defs><style>.cls-1{fill:#0089d9;}.cls-1,.cls-2,.cls-3,.cls-4,.cls-5{fill-rule:evenodd;}.cls-2{fill:#d7d7d7;}.cls-3{fill:#39a6e6;}.cls-4{fill:#fff;}.cls-5{fill:#737373;}</style></defs><title>24</title><g id="User"><path class="cls-1" d="M15.62,6.86c-.34-1.75-1.5-1.8-1.62-2.65C12.25,5.43,10,4.27,8.92,7c1.5-1.66,4.24.29,4.79-1.45C14,6.46,15,6.3,15.62,6.86Zm6,13.67c-1.55-1-4.19-2.66-5.23-3.43a1.07,1.07,0,0,0-.86-.23,2.43,2.43,0,0,1,0-1,4,4,0,0,0,1.25-2.76c1.27-.29,2.25-2.42,2.12-3.6A1.94,1.94,0,0,0,17.6,8c.42-1.08.7-.89.7-2.59,0-1.25-.76-3.22-2.78-3.33a4.45,4.45,0,0,0-4-2.06,5.59,5.59,0,0,0-5.85,5.4A5,5,0,0,0,6.35,8,1.92,1.92,0,0,0,5,9.5c-.06,1.18.91,3.3,2.16,3.6a3.82,3.82,0,0,0,1.2,2.69,2.21,2.21,0,0,1,0,1.08,1.08,1.08,0,0,0-.9.27c-.91.81-4.23,2.74-5.95,3.83,0,0,0,.07-.05.11A1.18,1.18,0,0,0,1,22c0,2.72,22,2.63,22,0C23,21.35,22.66,20.8,21.67,20.53ZM4.11,21.58c1.77-1.09,4.42-2.51,5.45-3.3A3.13,3.13,0,0,0,9.7,15.1,4.06,4.06,0,0,1,8.87,13a1.46,1.46,0,0,0-1.14-1.35,4.21,4.21,0,0,1-.81-2.28A1.22,1.22,0,0,0,8.1,7.63c-2.91-6.06,5.09-7.61,6.52-4,1.67-.71,2.91,2.57,1.24,4C15.24,8.83,17,9.29,17,9.29a3,3,0,0,1-.81,2.15A1.5,1.5,0,0,0,15,12.93a2.57,2.57,0,0,1-.8,2.25A2.82,2.82,0,0,0,14.58,18c1.15.77,3.8,2.49,5.39,3.54C16.62,22.76,7.48,22.66,4.11,21.58Z"/><path class="cls-2" d="M44.62,6.86c-.34-1.75-1.5-1.8-1.62-2.65C41.25,5.43,39,4.27,37.92,7c1.5-1.66,4.24.29,4.79-1.45C43,6.46,44,6.3,44.62,6.86Zm6,13.67c-1.55-1-4.19-2.66-5.23-3.43a1.07,1.07,0,0,0-.86-.23,2.43,2.43,0,0,1,0-1,4,4,0,0,0,1.25-2.76c1.27-.29,2.25-2.42,2.12-3.6A1.94,1.94,0,0,0,46.6,8c.42-1.08.7-.89.7-2.59,0-1.25-.76-3.22-2.78-3.33a4.45,4.45,0,0,0-4-2.06,5.59,5.59,0,0,0-5.85,5.4A5,5,0,0,0,35.35,8,1.92,1.92,0,0,0,34,9.5c-.06,1.18.91,3.3,2.16,3.6a3.82,3.82,0,0,0,1.2,2.69,2.21,2.21,0,0,1,0,1.08,1.08,1.08,0,0,0-.9.27c-.91.81-4.23,2.74-5.95,3.83,0,0,0,.07-.05.11A1.18,1.18,0,0,0,30,22c0,2.72,22,2.63,22,0C52,21.35,51.66,20.8,50.67,20.53ZM33.11,21.58c1.77-1.09,4.42-2.51,5.45-3.3a3.13,3.13,0,0,0,.14-3.18A4.06,4.06,0,0,1,37.87,13a1.46,1.46,0,0,0-1.14-1.35,4.21,4.21,0,0,1-.81-2.28A1.22,1.22,0,0,0,37.1,7.63c-2.91-6.06,5.09-7.61,6.52-4,1.67-.71,2.91,2.57,1.24,4C44.24,8.83,46,9.29,46,9.29a3,3,0,0,1-.81,2.15A1.5,1.5,0,0,0,44,12.93a2.57,2.57,0,0,1-.8,2.25A2.82,2.82,0,0,0,43.58,18c1.15.77,3.8,2.49,5.39,3.54C45.62,22.76,36.48,22.66,33.11,21.58Z"/><path class="cls-3" d="M73.62,6.86c-.34-1.75-1.5-1.8-1.62-2.65C70.25,5.43,68,4.27,66.92,7c1.5-1.66,4.24.29,4.79-1.45C72,6.46,73,6.3,73.62,6.86Zm6,13.67c-1.55-1-4.19-2.66-5.23-3.43a1.07,1.07,0,0,0-.86-.23,2.43,2.43,0,0,1,0-1,4,4,0,0,0,1.25-2.76c1.27-.29,2.25-2.42,2.12-3.6A1.94,1.94,0,0,0,75.6,8c.42-1.08.7-.89.7-2.59,0-1.25-.76-3.22-2.78-3.33a4.45,4.45,0,0,0-4-2.06,5.59,5.59,0,0,0-5.85,5.4A5,5,0,0,0,64.35,8,1.92,1.92,0,0,0,63,9.5c-.06,1.18.91,3.3,2.16,3.6a3.82,3.82,0,0,0,1.2,2.69,2.21,2.21,0,0,1,0,1.08,1.08,1.08,0,0,0-.9.27c-.91.81-4.23,2.74-5.95,3.83,0,0,0,.07-.05.11A1.18,1.18,0,0,0,59,22c0,2.72,22,2.63,22,0C81,21.35,80.66,20.8,79.67,20.53ZM62.11,21.58c1.77-1.09,4.42-2.51,5.45-3.3a3.13,3.13,0,0,0,.14-3.18A4.06,4.06,0,0,1,66.87,13a1.46,1.46,0,0,0-1.14-1.35,4.21,4.21,0,0,1-.81-2.28A1.22,1.22,0,0,0,66.1,7.63c-2.91-6.06,5.09-7.61,6.52-4,1.67-.71,2.91,2.57,1.24,4C73.24,8.83,75,9.29,75,9.29a3,3,0,0,1-.81,2.15A1.5,1.5,0,0,0,73,12.93a2.57,2.57,0,0,1-.8,2.25A2.82,2.82,0,0,0,72.58,18c1.15.77,3.8,2.49,5.39,3.54C74.62,22.76,65.48,22.66,62.11,21.58Z"/><path class="cls-4" d="M102.62,6.86c-.34-1.75-1.5-1.8-1.62-2.65C99.25,5.43,97,4.27,95.92,7c1.5-1.66,4.24.29,4.79-1.45C101,6.46,102,6.3,102.62,6.86Zm6,13.67c-1.55-1-4.19-2.66-5.23-3.43a1.07,1.07,0,0,0-.86-.23,2.43,2.43,0,0,1,0-1,4,4,0,0,0,1.25-2.76c1.27-.29,2.25-2.42,2.12-3.6A1.94,1.94,0,0,0,104.6,8c.42-1.08.7-.89.7-2.59,0-1.25-.76-3.22-2.78-3.33a4.45,4.45,0,0,0-4-2.06,5.59,5.59,0,0,0-5.85,5.4A5,5,0,0,0,93.35,8,1.92,1.92,0,0,0,92,9.5c-.06,1.18.91,3.3,2.16,3.6a3.82,3.82,0,0,0,1.2,2.69,2.21,2.21,0,0,1,0,1.08,1.08,1.08,0,0,0-.9.27c-.91.81-4.23,2.74-5.95,3.83,0,0,0,.07-.05.11A1.18,1.18,0,0,0,88,22c0,2.72,22,2.63,22,0C110,21.35,109.66,20.8,108.67,20.53ZM91.11,21.58c1.77-1.09,4.42-2.51,5.45-3.3a3.13,3.13,0,0,0,.14-3.18A4.06,4.06,0,0,1,95.87,13a1.46,1.46,0,0,0-1.14-1.35,4.21,4.21,0,0,1-.81-2.28A1.22,1.22,0,0,0,95.1,7.63c-2.91-6.06,5.09-7.61,6.52-4,1.67-.71,2.91,2.57,1.24,4C102.24,8.83,104,9.29,104,9.29a3,3,0,0,1-.81,2.15A1.5,1.5,0,0,0,102,12.93a2.57,2.57,0,0,1-.8,2.25,2.82,2.82,0,0,0,.41,2.85c1.15.77,3.8,2.49,5.39,3.54C103.62,22.76,94.48,22.66,91.11,21.58Z"/><path class="cls-5" d="M131.62,6.86c-.34-1.75-1.5-1.8-1.62-2.65-1.75,1.22-4,.06-5.08,2.74,1.5-1.66,4.24.29,4.79-1.45C130,6.46,131,6.3,131.62,6.86Zm6,13.67c-1.55-1-4.19-2.66-5.23-3.43a1.07,1.07,0,0,0-.86-.23,2.43,2.43,0,0,1,0-1,4,4,0,0,0,1.25-2.76c1.27-.29,2.25-2.42,2.12-3.6A1.94,1.94,0,0,0,133.6,8c.42-1.08.7-.89.7-2.59,0-1.25-.76-3.22-2.78-3.33a4.45,4.45,0,0,0-4-2.06,5.59,5.59,0,0,0-5.85,5.4A5,5,0,0,0,122.35,8,1.92,1.92,0,0,0,121,9.5c-.06,1.18.91,3.3,2.16,3.6a3.82,3.82,0,0,0,1.2,2.69,2.21,2.21,0,0,1,0,1.08,1.08,1.08,0,0,0-.9.27c-.91.81-4.23,2.74-5.95,3.83,0,0,0,.07-.05.11A1.18,1.18,0,0,0,117,22c0,2.72,22,2.63,22,0C139,21.35,138.66,20.8,137.67,20.53Zm-17.56,1.05c1.77-1.09,4.42-2.51,5.45-3.3a3.13,3.13,0,0,0,.14-3.18,4.06,4.06,0,0,1-.83-2.11,1.46,1.46,0,0,0-1.14-1.35,4.21,4.21,0,0,1-.81-2.28,1.22,1.22,0,0,0,1.18-1.72c-2.91-6.06,5.09-7.61,6.52-4,1.67-.71,2.91,2.57,1.24,4C131.24,8.83,133,9.29,133,9.29a3,3,0,0,1-.81,2.15A1.5,1.5,0,0,0,131,12.93a2.57,2.57,0,0,1-.8,2.25,2.82,2.82,0,0,0,.41,2.85c1.15.77,3.8,2.49,5.39,3.54C132.62,22.76,123.48,22.66,120.11,21.58Z"/></g></svg>