<svg xmlns="http://www.w3.org/2000/svg" width="140" height="24" viewBox="0 0 140 24"><defs><style>.cls-1{fill:#0089d9;}.cls-1,.cls-2,.cls-3,.cls-4,.cls-5{fill-rule:evenodd;}.cls-2{fill:#d7d7d7;}.cls-3{fill:#39a6e6;}.cls-4{fill:#fff;}.cls-5{fill:#737373;}</style></defs><title>24</title><g id="Unlocked"><path class="cls-1" d="M12,13a1,1,0,0,0-1,1v2a1,1,0,1,0,2,0V14A1,1,0,0,0,12,13Zm6-3H8V6a4,4,0,1,1,8,0V7h2V6A6,6,0,1,0,6,6v4a2,2,0,0,0-2,2V22a2,2,0,0,0,2,2H18a2,2,0,0,0,2-2V12A2,2,0,0,0,18,10Zm0,11a1,1,0,0,1-1,1H7a1,1,0,0,1-1-1V13a1,1,0,0,1,1-1H17a1,1,0,0,1,1,1Z"/><path class="cls-2" d="M41,13a1,1,0,0,0-1,1v2a1,1,0,1,0,2,0V14A1,1,0,0,0,41,13Zm6-3H37V6a4,4,0,1,1,8,0V7h2V6A6,6,0,1,0,35,6v4a2,2,0,0,0-2,2V22a2,2,0,0,0,2,2H47a2,2,0,0,0,2-2V12A2,2,0,0,0,47,10Zm0,11a1,1,0,0,1-1,1H36a1,1,0,0,1-1-1V13a1,1,0,0,1,1-1H46a1,1,0,0,1,1,1Z"/><path class="cls-3" d="M76,10H66V6a4,4,0,1,1,8,0V7h2V6A6,6,0,1,0,64,6v4a2,2,0,0,0-2,2V22a2,2,0,0,0,2,2H76a2,2,0,0,0,2-2V12A2,2,0,0,0,76,10Zm0,11a1,1,0,0,1-1,1H65a1,1,0,0,1-1-1V13a1,1,0,0,1,1-1H75a1,1,0,0,1,1,1Zm-6-8a1,1,0,0,0-1,1v2a1,1,0,1,0,2,0V14A1,1,0,0,0,70,13Z"/><path class="cls-4" d="M99,13a1,1,0,0,0-1,1v2a1,1,0,1,0,2,0V14A1,1,0,0,0,99,13Zm6-3H95V6a4,4,0,1,1,8,0V7h2V6A6,6,0,1,0,93,6v4a2,2,0,0,0-2,2V22a2,2,0,0,0,2,2h12a2,2,0,0,0,2-2V12A2,2,0,0,0,105,10Zm0,11a1,1,0,0,1-1,1H94a1,1,0,0,1-1-1V13a1,1,0,0,1,1-1h10a1,1,0,0,1,1,1Z"/><path class="cls-5" d="M128,13a1,1,0,0,0-1,1v2a1,1,0,1,0,2,0V14A1,1,0,0,0,128,13Zm6-3H124V6a4,4,0,1,1,8,0V7h2V6a6,6,0,1,0-12,0v4a2,2,0,0,0-2,2V22a2,2,0,0,0,2,2h12a2,2,0,0,0,2-2V12A2,2,0,0,0,134,10Zm0,11a1,1,0,0,1-1,1H123a1,1,0,0,1-1-1V13a1,1,0,0,1,1-1h10a1,1,0,0,1,1,1Z"/></g></svg>