<svg xmlns="http://www.w3.org/2000/svg" width="140" height="24" viewBox="0 0 140 24"><defs><style>.cls-1{fill:#0089d9;}.cls-2{fill:#d7d7d7;}.cls-3{fill:#39a6e6;}.cls-4{fill:#fff;}.cls-5{fill:#737373;}</style></defs><title>24</title><g id="User_Folder" data-name="User Folder"><path class="cls-1" d="M21,3H11.5S10,0,8,0H3A3.23,3.23,0,0,0,0,3V17a3.23,3.23,0,0,0,3,3H8.06A14.48,14.48,0,0,0,11,18H3a1.08,1.08,0,0,1-1-1V5H21a1.08,1.08,0,0,1,1,1V17a1.08,1.08,0,0,1-1,1H19.42a12.22,12.22,0,0,0,2.48,1.82A3.27,3.27,0,0,0,24,17V6A3.23,3.23,0,0,0,21,3ZM2,4V3A1.08,1.08,0,0,1,3,2H8c1,0,2,2,2,2ZM22.23,21.49c-.6-.36-4.59-2.12-4.94-3.18a2.14,2.14,0,0,1,.24-1.08c.43-.08.45-1.09.45-1.56.71-.1,1.09-1.32,1.09-2,0-.36-.19-.72-.59-.71.59-1,1.1-3.4-1.19-3.57-1.51-3-7.27-.76-5.78,3,.08.22.23.34.28.58-.26,0-.55.36-.55.71,0,.71.41,1.85,1,2,.08.55.07,1.41.5,1.52A3.63,3.63,0,0,1,13,18.31c-.36,1.07-4.45,2.81-5,3.18a1.83,1.83,0,0,0-1,1.8c1.8.94,15,.95,16.39,0A1.84,1.84,0,0,0,22.23,21.49Z"/><path class="cls-2" d="M50,3h-9.5S39,0,37,0H32a3.23,3.23,0,0,0-3,3V17a3.23,3.23,0,0,0,3,3h5.06A14.47,14.47,0,0,0,40,18H32a1.08,1.08,0,0,1-1-1V5H50a1.08,1.08,0,0,1,1,1V17a1.08,1.08,0,0,1-1,1H48.43a12.22,12.22,0,0,0,2.48,1.82A3.27,3.27,0,0,0,53,17V6A3.23,3.23,0,0,0,50,3ZM31,4V3a1.08,1.08,0,0,1,1-1h5c1,0,2,2,2,2ZM51.24,21.49c-.6-.36-4.59-2.12-4.94-3.18a2.14,2.14,0,0,1,.24-1.08c.43-.08.45-1.09.45-1.56.71-.1,1.09-1.32,1.09-2,0-.36-.19-.72-.59-.71.59-1,1.1-3.4-1.19-3.57-1.51-3-7.27-.76-5.78,3,.08.22.23.34.28.58-.26,0-.55.36-.55.71,0,.71.41,1.85,1,2,.08.55.07,1.41.5,1.52A3.63,3.63,0,0,1,42,18.31c-.36,1.07-4.45,2.81-5,3.18a1.83,1.83,0,0,0-1,1.8c1.8.94,15,.95,16.39,0A1.84,1.84,0,0,0,51.24,21.49Z"/><path class="cls-3" d="M79,3H69.5S68,0,66,0H61a3.23,3.23,0,0,0-3,3V17a3.23,3.23,0,0,0,3,3h5.06A14.48,14.48,0,0,0,69,18H61a1.08,1.08,0,0,1-1-1V5H79a1.08,1.08,0,0,1,1,1V17a1.08,1.08,0,0,1-1,1H77.42a12.22,12.22,0,0,0,2.48,1.82A3.27,3.27,0,0,0,82,17V6A3.23,3.23,0,0,0,79,3ZM60,4V3a1.08,1.08,0,0,1,1-1h5c1,0,2,2,2,2ZM80.23,21.49c-.6-.36-4.59-2.12-4.94-3.18a2.14,2.14,0,0,1,.24-1.08c.43-.08.45-1.09.45-1.56.71-.1,1.09-1.32,1.09-2,0-.36-.19-.72-.59-.71.59-1,1.1-3.4-1.19-3.57-1.51-3-7.27-.76-5.78,3,.08.22.23.34.28.58-.26,0-.55.36-.55.71,0,.71.41,1.85,1.05,2,.08.55.07,1.41.5,1.52A3.63,3.63,0,0,1,71,18.31c-.36,1.07-4.45,2.81-5,3.18a1.83,1.83,0,0,0-1,1.8c1.8.94,15,.95,16.39,0A1.84,1.84,0,0,0,80.23,21.49Z"/><path class="cls-4" d="M108,3H98.5S97,0,95,0H90a3.23,3.23,0,0,0-3,3V17a3.23,3.23,0,0,0,3,3h5.06A14.48,14.48,0,0,0,98,18H90a1.08,1.08,0,0,1-1-1V5h19a1.08,1.08,0,0,1,1,1V17a1.08,1.08,0,0,1-1,1h-1.58a12.22,12.22,0,0,0,2.48,1.82A3.27,3.27,0,0,0,111,17V6A3.23,3.23,0,0,0,108,3ZM89,4V3a1.08,1.08,0,0,1,1-1h5c1,0,2,2,2,2Zm20.23,17.49c-.6-.36-4.59-2.12-4.94-3.18a2.14,2.14,0,0,1,.24-1.08c.43-.08.45-1.09.45-1.56.71-.1,1.09-1.32,1.09-2,0-.36-.19-.72-.59-.71.59-1,1.1-3.4-1.19-3.57-1.51-3-7.27-.76-5.78,3,.08.22.23.34.28.58-.26,0-.55.36-.55.71,0,.71.41,1.85,1.05,2,.08.55.07,1.41.5,1.52a3.63,3.63,0,0,1,.23,1.07c-.36,1.07-4.45,2.81-5,3.18a1.83,1.83,0,0,0-1,1.8c1.8.94,15,.95,16.39,0A1.84,1.84,0,0,0,109.23,21.49Z"/><path class="cls-5" d="M137,3h-9.5S126,0,124,0h-5a3.23,3.23,0,0,0-3,3V17a3.23,3.23,0,0,0,3,3h5.06A14.48,14.48,0,0,0,127,18h-8a1.08,1.08,0,0,1-1-1V5h19a1.08,1.08,0,0,1,1,1V17a1.08,1.08,0,0,1-1,1h-1.58a12.22,12.22,0,0,0,2.48,1.82A3.27,3.27,0,0,0,140,17V6A3.23,3.23,0,0,0,137,3ZM118,4V3a1.08,1.08,0,0,1,1-1h5c1,0,2,2,2,2Zm20.23,17.49c-.6-.36-4.59-2.12-4.94-3.18a2.14,2.14,0,0,1,.24-1.08c.43-.08.45-1.09.45-1.56.71-.1,1.09-1.32,1.09-2,0-.36-.19-.72-.59-.71.59-1,1.1-3.4-1.19-3.57-1.51-3-7.27-.76-5.78,3,.08.22.23.34.28.58-.26,0-.55.36-.55.71,0,.71.41,1.85,1.05,2,.08.55.07,1.41.5,1.52a3.63,3.63,0,0,1,.23,1.07c-.36,1.07-4.45,2.81-5,3.18a1.83,1.83,0,0,0-1,1.8c1.8.94,15,.95,16.39,0A1.84,1.84,0,0,0,138.23,21.49Z"/></g></svg>