<svg xmlns="http://www.w3.org/2000/svg" width="82" height="24"><g><path fill="#0089D9" fill-rule="evenodd" d="M12 13c-.6 0-1 .4-1 1v2c0 .6.4 1 1 1s1-.4 1-1v-2c0-.6-.4-1-1-1zm6-3H8V6c0-2.2 1.8-4 4-4s4 1.8 4 4v1h2V6c0-3.3-2.7-6-6-6S6 2.7 6 6v4c-1.1 0-2 .9-2 2v10c0 1.1.9 2 2 2h12c1.1 0 2-.9 2-2V12c0-1.1-.9-2-2-2zm0 11c0 .6-.4 1-1 1H7c-.6 0-1-.4-1-1v-8c0-.6.4-1 1-1h10c.6 0 1 .4 1 1v8z" clip-rule="evenodd"/><path fill="#C8C8C8" fill-rule="evenodd" d="M41 13c-.6 0-1 .4-1 1v2c0 .6.4 1 1 1s1-.4 1-1v-2c0-.6-.4-1-1-1zm6-3H37V6c0-2.2 1.8-4 4-4s4 1.8 4 4v1h2V6c0-3.3-2.7-6-6-6s-6 2.7-6 6v4c-1.1 0-2 .9-2 2v10c0 1.1.9 2 2 2h12c1.1 0 2-.9 2-2V12c0-1.1-.9-2-2-2zm0 11c0 .6-.4 1-1 1H36c-.6 0-1-.4-1-1v-8c0-.6.4-1 1-1h10c.6 0 1 .4 1 1v8z" clip-rule="evenodd"/><path fill="#39A6E6" fill-rule="evenodd" d="M76 10H66V6c0-2.2 1.8-4 4-4s4 1.8 4 4v1h2V6c0-3.3-2.7-6-6-6s-6 2.7-6 6v4c-1.1 0-2 .9-2 2v10c0 1.1.9 2 2 2h12c1.1 0 2-.9 2-2V12c0-1.1-.9-2-2-2zm0 11c0 .6-.4 1-1 1H65c-.6 0-1-.4-1-1v-8c0-.6.4-1 1-1h10c.6 0 1 .4 1 1v8zm-6-8c-.6 0-1 .4-1 1v2c0 .6.4 1 1 1s1-.4 1-1v-2c0-.6-.4-1-1-1z" clip-rule="evenodd"/></g></svg>