<svg xmlns="http://www.w3.org/2000/svg" width="140" height="24" viewBox="0 0 140 24"><defs><style>.cls-1{fill:#39a6e6;}.cls-1,.cls-2,.cls-3,.cls-4,.cls-5{fill-rule:evenodd;}.cls-2{fill:#d7d7d7;}.cls-3{fill:#0089d9;}.cls-4{fill:#fff;}.cls-5{fill:#737373;}</style></defs><title>24</title><g id="User_List_1" data-name="User List 1"><path class="cls-1" d="M76.48,11c.4,0,.59.35.59.71,0,.67-.38,1.89-1.09,2,0,.47,0,1.48-.45,1.56a2.14,2.14,0,0,0-.24,1.08c.36,1.07,4.35,2.83,4.94,3.18a1.84,1.84,0,0,1,1.11,1.8c-1.43.95-14.59.94-16.39,0a1.83,1.83,0,0,1,1-1.8c.58-.38,4.68-2.12,5-3.18a3.64,3.64,0,0,0-.23-1.07c-.43-.11-.43-1-.5-1.52-.64-.2-1-1.33-1-2,0-.36.29-.76.55-.71,0-.23-.2-.36-.28-.58-1.48-3.75,4.27-6,5.78-3C77.58,7.56,77.06,10,76.48,11ZM59,2h2V4H59Zm0,4h2V8H59Zm0,4h2v2H59Zm0,4h2v2H59ZM63,3a1,1,0,0,1,1-1H80a1,1,0,0,1,0,2H64A1,1,0,0,1,63,3ZM77.1,6H80a1,1,0,0,1,0,2H78.36l0-.23A3.66,3.66,0,0,0,77.1,6ZM68.75,6H64a1,1,0,0,0,0,2H67.7l.08-.27A4.6,4.6,0,0,1,68.75,6Zm9.84,4H80a1,1,0,0,1,0,2H78.45A12.48,12.48,0,0,0,78.59,10ZM67.45,10H64a1,1,0,0,0,0,2h3.64A9.79,9.79,0,0,1,67.45,10Zm10.49,4H80a1,1,0,0,1,0,2H77.32A12.26,12.26,0,0,1,77.94,14Zm-9.71,0H64a1,1,0,0,0,0,2h4.75A11.41,11.41,0,0,0,68.23,14Z"/><path class="cls-2" d="M47.48,11c.4,0,.59.35.59.71,0,.67-.38,1.89-1.09,2,0,.47,0,1.48-.45,1.56a2.14,2.14,0,0,0-.24,1.08c.36,1.07,4.35,2.83,4.94,3.18a1.84,1.84,0,0,1,1.11,1.8c-1.43.95-14.59.94-16.39,0a1.83,1.83,0,0,1,1-1.8c.58-.38,4.68-2.12,5-3.18a3.64,3.64,0,0,0-.23-1.07c-.43-.11-.43-1-.5-1.52-.64-.2-1-1.33-1-2,0-.36.29-.76.55-.71,0-.23-.2-.36-.28-.58-1.48-3.75,4.27-6,5.78-3C48.58,7.56,48.06,10,47.48,11ZM30,2h2V4H30Zm0,4h2V8H30Zm0,4h2v2H30Zm0,4h2v2H30ZM34,3a1,1,0,0,1,1-1H51a1,1,0,0,1,0,2H35A1,1,0,0,1,34,3ZM48.1,6H51a1,1,0,0,1,0,2H49.36l0-.23A3.66,3.66,0,0,0,48.1,6ZM39.75,6H35a1,1,0,0,0,0,2H38.7l.08-.27A4.6,4.6,0,0,1,39.75,6Zm9.84,4H51a1,1,0,0,1,0,2H49.45A12.48,12.48,0,0,0,49.59,10ZM38.45,10H35a1,1,0,0,0,0,2h3.64A9.79,9.79,0,0,1,38.45,10Zm10.49,4H51a1,1,0,0,1,0,2H48.32A12.26,12.26,0,0,1,48.94,14Zm-9.71,0H35a1,1,0,0,0,0,2h4.75A11.41,11.41,0,0,0,39.23,14Z"/><path class="cls-3" d="M18.48,11c.4,0,.59.35.59.71,0,.67-.38,1.89-1.09,2,0,.47,0,1.48-.45,1.56a2.14,2.14,0,0,0-.24,1.08c.36,1.07,4.35,2.83,4.94,3.18a1.84,1.84,0,0,1,1.11,1.8c-1.43.95-14.59.94-16.39,0a1.83,1.83,0,0,1,1-1.8c.58-.38,4.68-2.12,5-3.18a3.64,3.64,0,0,0-.23-1.07c-.43-.11-.43-1-.5-1.52-.64-.2-1-1.33-1-2,0-.36.29-.76.55-.71,0-.23-.2-.36-.28-.58-1.48-3.75,4.27-6,5.78-3C19.58,7.56,19.06,10,18.48,11ZM1,2H3V4H1ZM1,6H3V8H1Zm0,4H3v2H1Zm0,4H3v2H1ZM5,3A1,1,0,0,1,6,2H22a1,1,0,0,1,0,2H6A1,1,0,0,1,5,3ZM19.1,6H22a1,1,0,0,1,0,2H20.36l0-.23A3.66,3.66,0,0,0,19.1,6ZM10.75,6H6A1,1,0,0,0,6,8H9.7l.08-.27A4.6,4.6,0,0,1,10.75,6Zm9.84,4H22a1,1,0,0,1,0,2H20.45A12.48,12.48,0,0,0,20.59,10ZM9.45,10H6a1,1,0,0,0,0,2H9.63A9.79,9.79,0,0,1,9.45,10Zm10.49,4H22a1,1,0,0,1,0,2H19.32A12.26,12.26,0,0,1,19.94,14Zm-9.71,0H6a1,1,0,0,0,0,2h4.75A11.41,11.41,0,0,0,10.23,14Z"/><path class="cls-4" d="M105.48,11c.4,0,.59.35.59.71,0,.67-.38,1.89-1.09,2,0,.47,0,1.48-.45,1.56a2.14,2.14,0,0,0-.24,1.08c.36,1.07,4.35,2.83,4.94,3.18a1.84,1.84,0,0,1,1.11,1.8c-1.43.95-14.59.94-16.39,0a1.83,1.83,0,0,1,1-1.8c.58-.38,4.68-2.12,5-3.18a3.64,3.64,0,0,0-.23-1.07c-.43-.11-.43-1-.5-1.52-.64-.2-1-1.33-1-2,0-.36.29-.76.55-.71,0-.23-.2-.36-.28-.58-1.48-3.75,4.27-6,5.78-3C106.58,7.56,106.06,10,105.48,11ZM88,2h2V4H88Zm0,4h2V8H88Zm0,4h2v2H88Zm0,4h2v2H88ZM92,3a1,1,0,0,1,1-1h16a1,1,0,0,1,0,2H93A1,1,0,0,1,92,3Zm14.1,3H109a1,1,0,0,1,0,2h-1.65l0-.23A3.66,3.66,0,0,0,106.1,6ZM97.75,6H93a1,1,0,0,0,0,2H96.7l.08-.27A4.6,4.6,0,0,1,97.75,6Zm9.84,4H109a1,1,0,0,1,0,2h-1.55A12.48,12.48,0,0,0,107.59,10ZM96.45,10H93a1,1,0,0,0,0,2h3.64A9.79,9.79,0,0,1,96.45,10Zm10.49,4H109a1,1,0,0,1,0,2h-2.68A12.26,12.26,0,0,1,106.94,14Zm-9.71,0H93a1,1,0,0,0,0,2h4.75A11.41,11.41,0,0,0,97.23,14Z"/><path class="cls-5" d="M134.48,11c.4,0,.59.35.59.71,0,.67-.38,1.89-1.09,2,0,.47,0,1.48-.45,1.56a2.14,2.14,0,0,0-.24,1.08c.36,1.07,4.35,2.83,4.94,3.18a1.84,1.84,0,0,1,1.11,1.8c-1.43.95-14.59.94-16.39,0a1.83,1.83,0,0,1,1-1.8c.58-.38,4.68-2.12,5-3.18a3.64,3.64,0,0,0-.23-1.07c-.43-.11-.43-1-.5-1.52-.64-.2-1-1.33-1-2,0-.36.29-.76.55-.71,0-.23-.2-.36-.28-.58-1.48-3.75,4.27-6,5.78-3C135.58,7.56,135.06,10,134.48,11ZM117,2h2V4h-2Zm0,4h2V8h-2Zm0,4h2v2h-2Zm0,4h2v2h-2Zm4-11a1,1,0,0,1,1-1h16a1,1,0,0,1,0,2H122A1,1,0,0,1,121,3Zm14.1,3H138a1,1,0,0,1,0,2h-1.65l0-.23A3.66,3.66,0,0,0,135.1,6Zm-8.34,0H122a1,1,0,0,0,0,2h3.71l.08-.27A4.6,4.6,0,0,1,126.75,6Zm9.84,4H138a1,1,0,0,1,0,2h-1.55A12.48,12.48,0,0,0,136.59,10Zm-11.15,0H122a1,1,0,0,0,0,2h3.64A9.79,9.79,0,0,1,125.45,10Zm10.49,4H138a1,1,0,0,1,0,2h-2.68A12.26,12.26,0,0,1,135.94,14Zm-9.71,0H122a1,1,0,0,0,0,2h4.75A11.41,11.41,0,0,0,126.23,14Z"/></g></svg>