<svg xmlns="http://www.w3.org/2000/svg" width="140" height="24" viewBox="0 0 140 24"><defs><style>.cls-1{fill:#0089d9;}.cls-1,.cls-2,.cls-3,.cls-4,.cls-5{fill-rule:evenodd;}.cls-2{fill:#d7d7d7;}.cls-3{fill:#39a6e6;}.cls-4{fill:#fff;}.cls-5{fill:#737373;}</style></defs><title>24</title><g id="Undefined_Document" data-name="Undefined Document"><path class="cls-1" d="M2,8H8V2H18V6h2V0H6V.28l-6,6V24H16V22H2ZM6,2.49V6H2.41ZM19,8c-3,0-5,2-5,6h2s-.35-4,3-4c1.93,0,3,.89,3,2.39a4.12,4.12,0,0,1-1.26,3.12C19.61,16.7,18,18,18,21h2c0-3,1.57-3.32,2.34-4.32A6.43,6.43,0,0,0,24,12.31C24,9.91,21.81,8,19,8ZM18,24h2V22H18Z"/><path class="cls-2" d="M31,8h6V2H47V6h2V0H35V.28l-6,6V24H45V22H31Zm4-5.51V6H31.41ZM48,8c-3,0-5,2-5,6h2s-.35-4,3-4c1.93,0,3,.89,3,2.39a4.12,4.12,0,0,1-1.26,3.12C48.61,16.7,47,18,47,21h2c0-3,1.57-3.32,2.34-4.32A6.43,6.43,0,0,0,53,12.31C53,9.91,50.81,8,48,8ZM47,24h2V22H47Z"/><path class="cls-3" d="M60,8h6V2H76V6h2V0H64V.28l-6,6V24H74V22H60Zm4-5.51V6H60.4ZM77,8c-3,0-5,2-5,6h2s-.35-4,3-4c1.93,0,3,.89,3,2.39a4.12,4.12,0,0,1-1.26,3.12C77.59,16.7,76,18,76,21h2c0-3,1.57-3.32,2.34-4.32A6.43,6.43,0,0,0,82,12.31C82,9.91,79.8,8,77,8ZM76,24h2V22H76Z"/><path class="cls-4" d="M106,8c-3,0-5,2-5,6h2s-.35-4,3-4c1.93,0,3,.89,3,2.39a4.12,4.12,0,0,1-1.26,3.12C106.59,16.7,105,18,105,21h2c0-3,1.57-3.32,2.34-4.32A6.43,6.43,0,0,0,111,12.31C111,9.91,108.8,8,106,8ZM89,8h6V2h10V6h2V0H93V.28l-6,6V24h16V22H89Zm4-5.51V6H89.4ZM105,24h2V22h-2Z"/><path class="cls-5" d="M118,8h6V2h10V6h2V0H122V.28l-6,6V24h16V22H118Zm4-5.51V6H118.4ZM135,8c-3,0-5,2-5,6h2s-.35-4,3-4c1.93,0,3,.89,3,2.39a4.12,4.12,0,0,1-1.26,3.12C135.59,16.7,134,18,134,21h2c0-3,1.57-3.32,2.34-4.32A6.43,6.43,0,0,0,140,12.31C140,9.91,137.8,8,135,8Zm-1,16h2V22h-2Z"/></g></svg>