<svg xmlns="http://www.w3.org/2000/svg" width="140" height="24" viewBox="0 0 140 24"><defs><style>.cls-1{fill:#0089d9;}.cls-1,.cls-2,.cls-3,.cls-4,.cls-5{fill-rule:evenodd;}.cls-2{fill:#d7d7d7;}.cls-3{fill:#39a6e6;}.cls-4{fill:#fff;}.cls-5{fill:#737373;}</style></defs><title>24</title><g id="User_Placeholder" data-name="User Placeholder"><path class="cls-1" d="M12,0A12,12,0,1,0,24,12,12,12,0,0,0,12,0ZM9,9c0-2.23,3.57,0,4.94-2V7C14.08,8,15,7.45,15,9c-.2-1.11-1.07-.39-1.26-1.34l0-.16C12.75,10,9.49,7.26,9,9Zm9.71,10.4A8.47,8.47,0,0,1,14,17c0-.35,0-.51,0-1,.53-.52,1.5-1.33,1.5-2.33.94,0,1.36-1.66,1.36-2.53a1.06,1.06,0,0,0-.33-.8h0c-.19,0-.28.58-.42,1.2v0c0,.11-.05.22-.08.32a1.79,1.79,0,0,1-.1-.28l0-.11c0-.07,0-.13,0-.2s0-.1,0-.15,0-.12,0-.18,0-.12,0-.17,0-.09,0-.14,0-.13,0-.19l0-.1a1.82,1.82,0,0,1,0-.19l0-.06A1.08,1.08,0,0,1,16,9.94l0,0a.57.57,0,0,1,.11-.13,3.58,3.58,0,0,0,.49-1.94A2,2,0,0,0,14.61,5.7C13.15,2.89,7.34,4,7.34,8A3.16,3.16,0,0,0,7.8,9.76c.41.28.47,1.48.17,2.13-.2-.73-.28-1.54-.51-1.55a1.06,1.06,0,0,0-.33.8c0,.87.43,2.53,1.36,2.53,0,1,.93,1.83,1.47,2.36,0,.43,0,.66,0,1A7.94,7.94,0,0,1,5.2,19.32a10,10,0,1,1,13.51.07Z"/><path class="cls-2" d="M41,0A12,12,0,1,0,53,12,12,12,0,0,0,41,0ZM38,9c0-2.23,3.57,0,4.94-2V7C43.08,8,44,7.45,44,9c-.2-1.11-1.07-.39-1.26-1.34l0-.16C41.75,10,38.49,7.26,38,9Zm9.71,10.4A8.47,8.47,0,0,1,43,17c0-.35,0-.51,0-1,.53-.52,1.5-1.33,1.5-2.33.94,0,1.36-1.66,1.36-2.53a1.06,1.06,0,0,0-.33-.8c-.19,0-.28.58-.42,1.2v0c0,.11-.05.22-.08.32a1.79,1.79,0,0,1-.1-.28l0-.11c0-.07,0-.13,0-.21s0-.1,0-.15,0-.12,0-.18,0-.12,0-.17,0-.09,0-.14,0-.13,0-.19l0-.1a1.81,1.81,0,0,1,0-.19l0-.07A1.08,1.08,0,0,1,45,9.94l0,0a.57.57,0,0,1,.11-.13h0a3.58,3.58,0,0,0,.49-1.94A2,2,0,0,0,43.61,5.7C42.15,2.89,36.34,4,36.34,8a3.16,3.16,0,0,0,.46,1.73c.41.28.47,1.48.17,2.13-.2-.73-.28-1.54-.51-1.55a1.06,1.06,0,0,0-.33.8c0,.87.42,2.53,1.36,2.53,0,1,.93,1.83,1.47,2.36,0,.43,0,.66,0,1a7.94,7.94,0,0,1-4.79,2.29,10,10,0,1,1,13.51.07Z"/><path class="cls-3" d="M70,0A12,12,0,1,0,82,12,12,12,0,0,0,70,0ZM67,9c0-2.23,3.57,0,4.94-2V7C72.08,8,73,7.45,73,9c-.2-1.11-1.07-.39-1.26-1.34l0-.16C70.75,10,67.49,7.26,67,9Zm9.71,10.4A8.47,8.47,0,0,1,72,17c0-.35,0-.51,0-1,.53-.52,1.5-1.33,1.5-2.33.94,0,1.36-1.66,1.36-2.53a1.06,1.06,0,0,0-.33-.8h0c-.19,0-.28.58-.42,1.2v0c0,.11-.05.22-.08.32a1.79,1.79,0,0,1-.1-.28l0-.11c0-.07,0-.13,0-.21s0-.1,0-.15,0-.12,0-.18,0-.12,0-.17,0-.09,0-.14,0-.13,0-.19l0-.1a1.81,1.81,0,0,1,0-.19l0-.07A1.08,1.08,0,0,1,74,9.94l0,0a.57.57,0,0,1,.11-.13h0a3.58,3.58,0,0,0,.49-1.94A2,2,0,0,0,72.61,5.7C71.15,2.89,65.34,4,65.34,8a3.16,3.16,0,0,0,.46,1.73c.41.28.47,1.48.17,2.13-.2-.73-.28-1.54-.51-1.55a1.06,1.06,0,0,0-.33.8c0,.87.43,2.53,1.36,2.53,0,1,.93,1.83,1.47,2.36,0,.43,0,.66,0,1a7.94,7.94,0,0,1-4.79,2.29,10,10,0,1,1,13.51.07Z"/><path class="cls-4" d="M99,0a12,12,0,1,0,12,12A12,12,0,0,0,99,0ZM96,9c0-2.23,3.57,0,4.94-2V7c.14,1,1.06.42,1.06,2-.2-1.11-1.07-.39-1.26-1.34l0-.16C99.75,10,96.49,7.26,96,9Zm9.71,10.4A8.47,8.47,0,0,1,101,17c0-.35,0-.51,0-1,.53-.52,1.5-1.33,1.5-2.33.94,0,1.36-1.66,1.36-2.53a1.06,1.06,0,0,0-.33-.8h0c-.19,0-.28.58-.42,1.2v0c0,.11-.05.22-.08.32a1.79,1.79,0,0,1-.1-.28l0-.11c0-.07,0-.13,0-.21s0-.1,0-.15,0-.12,0-.18,0-.12,0-.17,0-.09,0-.14,0-.13,0-.19l0-.1a1.81,1.81,0,0,1,0-.19l0-.07a1.08,1.08,0,0,1,.08-.17l0,0a.57.57,0,0,1,.11-.13h0a3.58,3.58,0,0,0,.49-1.94,2,2,0,0,0-2.05-2.14C100.15,2.89,94.34,4,94.34,8a3.16,3.16,0,0,0,.46,1.73c.41.28.47,1.48.17,2.13-.2-.73-.28-1.54-.51-1.55a1.06,1.06,0,0,0-.33.8c0,.87.43,2.53,1.36,2.53,0,1,.93,1.83,1.47,2.36,0,.43,0,.66,0,1a7.94,7.94,0,0,1-4.79,2.29,10,10,0,1,1,13.51.07Z"/><path class="cls-5" d="M128,0a12,12,0,1,0,12,12A12,12,0,0,0,128,0Zm-3,9c0-2.23,3.57,0,4.94-2V7c.14,1,1.06.42,1.06,2-.2-1.11-1.07-.39-1.26-1.34l0-.16C128.75,10,125.49,7.26,125,9Zm9.71,10.4A8.47,8.47,0,0,1,130,17c0-.35,0-.51,0-1,.53-.52,1.5-1.33,1.5-2.33.94,0,1.36-1.66,1.36-2.53a1.06,1.06,0,0,0-.33-.8h0c-.19,0-.28.58-.42,1.2v0c0,.11-.05.22-.08.32a1.79,1.79,0,0,1-.1-.28l0-.11c0-.07,0-.13,0-.21s0-.1,0-.15,0-.12,0-.18,0-.12,0-.17,0-.09,0-.14,0-.13,0-.19l0-.1a1.81,1.81,0,0,1,0-.19l0-.07a1.08,1.08,0,0,1,.08-.17l0,0a.57.57,0,0,1,.11-.13h0a3.58,3.58,0,0,0,.49-1.94,2,2,0,0,0-2.05-2.14C129.15,2.89,123.34,4,123.34,8a3.16,3.16,0,0,0,.46,1.73c.41.28.47,1.48.17,2.13-.2-.73-.28-1.54-.51-1.55a1.06,1.06,0,0,0-.33.8c0,.87.43,2.53,1.36,2.53,0,1,.93,1.83,1.47,2.36,0,.43,0,.66,0,1a7.94,7.94,0,0,1-4.79,2.29,10,10,0,1,1,13.51.07Z"/></g></svg>