<svg xmlns="http://www.w3.org/2000/svg" width="140" height="24" viewBox="0 0 140 24"><defs><style>.cls-1{fill:#0089d9;}.cls-1,.cls-2,.cls-3,.cls-4,.cls-5{fill-rule:evenodd;}.cls-2{fill:#d7d7d7;}.cls-3{fill:#39a6e6;}.cls-4{fill:#fff;}.cls-5{fill:#737373;}</style></defs><title>24</title><g id="Users"><path class="cls-1" d="M24,14c-.87-.62-2.18-1.43-2.93-2a2,2,0,0,0-1-.18,1.85,1.85,0,0,1,.13-.77c.64-.2.76-1.06.79-1.76.81-.19,1.41-1.54,1.33-2.29a1.21,1.21,0,0,0-.81-1,3.55,3.55,0,0,0,.57-1.89,1.58,1.58,0,0,0-1.79-1.76A3.09,3.09,0,0,0,17.69,1C15.86,1,13.8,2.11,13.8,4.26c0,.9.34,1.15.6,1.82a1.1,1.1,0,0,0-.74,1c0,.75.46,2.1,1.26,2.29a1.76,1.76,0,0,0,.92,1.71,1.37,1.37,0,0,1,0,.69,2.11,2.11,0,0,0-1,.42A31.06,31.06,0,0,1,12,14c-.09.1-.05.27,0,.45A2.45,2.45,0,0,0,12,15c.13,2.68,12.13,2.66,12,0a4.56,4.56,0,0,0-.05-.61A1.08,1.08,0,0,0,24,14Zm-10.31.79c.88-.54,2-1.23,2.58-1.67a1.42,1.42,0,0,0,.82-.88,3.59,3.59,0,0,0-.12-2c-.41-.79-.74-.45-.84-1.54a1.47,1.47,0,0,0-.84-1.15.39.39,0,0,1,0-.35,1.27,1.27,0,0,0,.55-1.48c-1.54-3.47,2.81-4.25,3.74-2.27,1-.55,1.23,2,.62,2.29-.43.78,0,1.64.41,1.57a.32.32,0,0,1,0,.36,1.31,1.31,0,0,0-.8,1c-.06.52-.55,1-.83,1.44a4.25,4.25,0,0,0,.14,2c.12.52,1.09.87,1.09.87.76.5,1.61,1.13,2.46,1.71C20.56,16,16,15.94,13.69,14.82ZM9.08,6.64c.24.8,1,.66,1.52,1.13-.27-1.46-1.19-1.5-1.29-2.2C7.92,6.58,5,5.52,5.41,8,6.6,6.62,8.64,8.09,9.08,6.64Zm5.57,12.82C13.55,18.65,12,17,11.05,16.29a.82.82,0,0,0-.68-.19,2.12,2.12,0,0,1,0-.84,3.36,3.36,0,0,0,1-2.3c1-.24,1.79-2,1.68-3a1.6,1.6,0,0,0-1-1.29c.33-.9.56-.74.56-2.16,0-1-.6-2.68-2.2-2.77A3.49,3.49,0,0,0,7.16,2,4.52,4.52,0,0,0,2.52,6.52a4.31,4.31,0,0,0,.53,2.16A1.58,1.58,0,0,0,2,10c0,1,.72,2.75,1.71,3a3.25,3.25,0,0,0,1,2.24,1.93,1.93,0,0,1,0,.9.83.83,0,0,0-.72.23A33.22,33.22,0,0,1,.23,19.51a.24.24,0,0,0,0,.28,1,1,0,0,0-.19.58c0,3.49,15,3.54,15,0a1.19,1.19,0,0,0-.18-.65A.49.49,0,0,0,14.64,19.46Zm-12.45.61c1.34-.92,3.08-2.16,3.91-2.83a2.64,2.64,0,0,0,.17-2.65,3.79,3.79,0,0,1-.91-1.85,1.88,1.88,0,0,0-1.18-1.4A1.78,1.78,0,0,1,3.85,10a1.17,1.17,0,0,0,.81-1.62c-2-4.89,3.81-6.12,5-3.08,1.32-.59,2.09,2,.77,3.16-.49,1,.68,1.52.68,1.52a2,2,0,0,1-.42,1.6,1.26,1.26,0,0,0-1,1.24A2,2,0,0,1,9,14.63a3,3,0,0,0,.48,2.69c.94.66,2.11,2.07,3.19,2.93C10.19,22.09,4.45,21.87,2.19,20.07ZM19.9,5.49c-.2-1.08-.88-1.11-1-1.63-1,.75-2.35,0-3,1.68.88-1,2.48.18,2.81-.89C19,5.24,19.52,5.14,19.9,5.49Z"/><path class="cls-2" d="M53,14c-.87-.62-2.18-1.43-2.93-2a2,2,0,0,0-1-.18,1.85,1.85,0,0,1,.13-.77c.64-.2.76-1.06.79-1.76.81-.19,1.41-1.54,1.33-2.29a1.21,1.21,0,0,0-.81-1,3.55,3.55,0,0,0,.57-1.89,1.58,1.58,0,0,0-1.79-1.76A3.09,3.09,0,0,0,46.69,1C44.86,1,42.8,2.11,42.8,4.26c0,.9.34,1.15.6,1.82a1.1,1.1,0,0,0-.74,1c0,.75.46,2.1,1.26,2.29a1.76,1.76,0,0,0,.92,1.71,1.37,1.37,0,0,1,0,.69,2.11,2.11,0,0,0-1,.42A31.06,31.06,0,0,1,41,14c-.09.1-.05.27,0,.45A2.45,2.45,0,0,0,41,15c.13,2.68,12.13,2.66,12,0a4.56,4.56,0,0,0-.05-.61A1.08,1.08,0,0,0,53,14Zm-10.31.79c.88-.54,2-1.23,2.58-1.67a1.42,1.42,0,0,0,.82-.88,3.59,3.59,0,0,0-.12-2c-.41-.79-.74-.45-.84-1.54a1.47,1.47,0,0,0-.84-1.15.39.39,0,0,1,0-.35,1.27,1.27,0,0,0,.55-1.48c-1.54-3.47,2.81-4.25,3.74-2.27,1-.55,1.23,2,.62,2.29-.43.78,0,1.64.41,1.57a.32.32,0,0,1,0,.36,1.31,1.31,0,0,0-.8,1c-.06.52-.55,1-.83,1.44a4.25,4.25,0,0,0,.14,2c.12.52,1.09.87,1.09.87.76.5,1.61,1.13,2.46,1.71C49.56,16,45,15.94,42.69,14.82ZM38.08,6.64c.24.8,1,.66,1.52,1.13-.27-1.46-1.19-1.5-1.29-2.2-1.39,1-4.27,0-3.9,2.44C35.59,6.62,37.64,8.09,38.08,6.64Zm5.57,12.82C42.55,18.65,41,17,40.05,16.29a.82.82,0,0,0-.68-.19,2.11,2.11,0,0,1,0-.84,3.36,3.36,0,0,0,1-2.3c1-.24,1.79-2,1.68-3a1.6,1.6,0,0,0-1-1.29c.33-.9.56-.74.56-2.16,0-1-.6-2.68-2.2-2.77A3.49,3.49,0,0,0,36.15,2a4.52,4.52,0,0,0-4.64,4.49,4.31,4.31,0,0,0,.53,2.16A1.58,1.58,0,0,0,31,10c0,1,.72,2.75,1.71,3a3.25,3.25,0,0,0,1,2.24,1.93,1.93,0,0,1,0,.9.83.83,0,0,0-.72.23,33.22,33.22,0,0,1-3.72,3.19.24.24,0,0,0,0,.28,1,1,0,0,0-.19.58c0,3.49,15,3.54,15,0a1.19,1.19,0,0,0-.18-.65A.49.49,0,0,0,43.64,19.46Zm-12.45.61c1.34-.92,3.08-2.16,3.91-2.83a2.64,2.64,0,0,0,.17-2.65,3.79,3.79,0,0,1-.91-1.85,1.88,1.88,0,0,0-1.18-1.4A1.78,1.78,0,0,1,32.85,10a1.17,1.17,0,0,0,.81-1.62c-2-4.89,3.81-6.12,5-3.08,1.32-.59,2.09,2,.77,3.16-.49,1,.68,1.52.68,1.52a2,2,0,0,1-.42,1.6,1.26,1.26,0,0,0-1,1.24A2,2,0,0,1,38,14.63a3,3,0,0,0,.48,2.69c.94.66,2.11,2.07,3.19,2.93C39.18,22.09,33.45,21.87,31.19,20.07ZM48.9,5.49c-.2-1.08-.88-1.11-1-1.63-1,.75-2.35,0-3,1.68.88-1,2.48.18,2.81-.89C48,5.24,48.52,5.14,48.9,5.49Z"/><path class="cls-3" d="M82,14c-.87-.62-2.18-1.43-2.93-2a2,2,0,0,0-1-.18,1.85,1.85,0,0,1,.13-.77c.64-.2.76-1.06.79-1.76.81-.19,1.41-1.54,1.33-2.29a1.21,1.21,0,0,0-.81-1,3.55,3.55,0,0,0,.57-1.89,1.58,1.58,0,0,0-1.79-1.76A3.09,3.09,0,0,0,75.69,1C73.86,1,71.8,2.11,71.8,4.26c0,.9.34,1.15.6,1.82a1.1,1.1,0,0,0-.74,1c0,.75.46,2.1,1.26,2.29a1.76,1.76,0,0,0,.92,1.71,1.37,1.37,0,0,1,0,.69,2.11,2.11,0,0,0-1,.42A31.06,31.06,0,0,1,70,14c-.09.1-.05.27,0,.45A2.45,2.45,0,0,0,70,15c.13,2.68,12.13,2.66,12,0a4.56,4.56,0,0,0-.05-.61A1.08,1.08,0,0,0,82,14Zm-10.31.79c.88-.54,2-1.23,2.58-1.67a1.42,1.42,0,0,0,.82-.88,3.59,3.59,0,0,0-.12-2c-.41-.79-.74-.45-.84-1.54a1.47,1.47,0,0,0-.84-1.15.39.39,0,0,1,0-.35,1.27,1.27,0,0,0,.55-1.48c-1.54-3.47,2.81-4.25,3.74-2.27,1-.55,1.23,2,.62,2.29-.43.78,0,1.64.41,1.57a.32.32,0,0,1,0,.36,1.31,1.31,0,0,0-.8,1c-.06.52-.55,1-.83,1.44a4.25,4.25,0,0,0,.14,2c.12.52,1.09.87,1.09.87.76.5,1.61,1.13,2.46,1.71C78.56,16,74,15.94,71.69,14.82ZM67.08,6.64c.24.8,1,.66,1.52,1.13-.27-1.46-1.19-1.5-1.29-2.2-1.39,1-4.27,0-3.9,2.44C64.59,6.62,66.64,8.09,67.08,6.64Zm5.57,12.82C71.55,18.65,70,17,69.05,16.29a.82.82,0,0,0-.68-.19,2.11,2.11,0,0,1,0-.84,3.36,3.36,0,0,0,1-2.3c1-.24,1.79-2,1.68-3a1.6,1.6,0,0,0-1-1.29c.33-.9.56-.74.56-2.16,0-1-.6-2.68-2.2-2.77A3.49,3.49,0,0,0,65.15,2a4.52,4.52,0,0,0-4.64,4.49,4.31,4.31,0,0,0,.53,2.16A1.58,1.58,0,0,0,60,10c0,1,.72,2.75,1.71,3a3.25,3.25,0,0,0,1,2.24,1.93,1.93,0,0,1,0,.9.83.83,0,0,0-.72.23,33.22,33.22,0,0,1-3.72,3.19.24.24,0,0,0,0,.28,1,1,0,0,0-.19.58c0,3.49,15,3.54,15,0a1.19,1.19,0,0,0-.18-.65A.49.49,0,0,0,72.64,19.46Zm-12.45.61c1.34-.92,3.08-2.16,3.91-2.83a2.64,2.64,0,0,0,.17-2.65,3.79,3.79,0,0,1-.91-1.85,1.88,1.88,0,0,0-1.18-1.4A1.78,1.78,0,0,1,61.85,10a1.17,1.17,0,0,0,.81-1.62c-2-4.89,3.81-6.12,5-3.08,1.32-.59,2.09,2,.77,3.16-.49,1,.68,1.52.68,1.52a2,2,0,0,1-.42,1.6,1.26,1.26,0,0,0-1,1.24A2,2,0,0,1,67,14.63a3,3,0,0,0,.48,2.69c.94.66,2.11,2.07,3.19,2.93C68.18,22.09,62.45,21.87,60.19,20.07ZM77.9,5.49c-.2-1.08-.88-1.11-1-1.63-1,.75-2.35,0-3,1.68.88-1,2.48.18,2.81-.89C77,5.24,77.52,5.14,77.9,5.49Z"/><path class="cls-4" d="M111,14c-.87-.62-2.18-1.43-2.93-2a2,2,0,0,0-1-.18,1.85,1.85,0,0,1,.13-.77c.64-.2.76-1.06.79-1.76.81-.19,1.41-1.54,1.33-2.29a1.21,1.21,0,0,0-.81-1,3.55,3.55,0,0,0,.57-1.89,1.58,1.58,0,0,0-1.79-1.76A3.09,3.09,0,0,0,104.69,1c-1.83,0-3.89,1.11-3.89,3.26,0,.9.34,1.15.6,1.82a1.1,1.1,0,0,0-.74,1c0,.75.46,2.1,1.26,2.29a1.76,1.76,0,0,0,.92,1.71,1.37,1.37,0,0,1,0,.69,2.11,2.11,0,0,0-1,.42A31.06,31.06,0,0,1,99,14c-.09.1-.05.27,0,.45A2.45,2.45,0,0,0,99,15c.13,2.68,12.13,2.66,12,0a4.56,4.56,0,0,0-.05-.61A1.08,1.08,0,0,0,111,14Zm-10.31.79c.88-.54,2-1.23,2.58-1.67a1.42,1.42,0,0,0,.82-.88,3.59,3.59,0,0,0-.12-2c-.41-.79-.74-.45-.84-1.54a1.47,1.47,0,0,0-.84-1.15.39.39,0,0,1,0-.35,1.27,1.27,0,0,0,.55-1.48c-1.54-3.47,2.81-4.25,3.74-2.27,1-.55,1.23,2,.62,2.29-.43.78,0,1.64.41,1.57a.32.32,0,0,1,0,.36,1.31,1.31,0,0,0-.8,1c-.06.52-.55,1-.83,1.44a4.25,4.25,0,0,0,.14,2c.12.52,1.09.87,1.09.87.76.5,1.61,1.13,2.46,1.71C107.56,16,103,15.94,100.69,14.82ZM96.08,6.64c.24.8,1,.66,1.52,1.13-.27-1.46-1.19-1.5-1.29-2.2-1.39,1-4.27,0-3.9,2.44C93.59,6.62,95.64,8.09,96.08,6.64Zm5.57,12.82c-1.09-.81-2.65-2.45-3.59-3.17a.82.82,0,0,0-.68-.19,2.11,2.11,0,0,1,0-.84,3.36,3.36,0,0,0,1-2.3c1-.24,1.79-2,1.68-3a1.6,1.6,0,0,0-1-1.29c.33-.9.56-.74.56-2.16,0-1-.6-2.68-2.2-2.77A3.49,3.49,0,0,0,94.15,2a4.52,4.52,0,0,0-4.64,4.49,4.31,4.31,0,0,0,.53,2.16A1.58,1.58,0,0,0,89,10c0,1,.72,2.75,1.71,3a3.25,3.25,0,0,0,1,2.24,1.93,1.93,0,0,1,0,.9.83.83,0,0,0-.72.23,33.22,33.22,0,0,1-3.72,3.19.24.24,0,0,0,0,.28,1,1,0,0,0-.19.58c0,3.49,15,3.54,15,0a1.19,1.19,0,0,0-.18-.65A.49.49,0,0,0,101.64,19.46Zm-12.45.61c1.34-.92,3.08-2.16,3.91-2.83a2.64,2.64,0,0,0,.17-2.65,3.79,3.79,0,0,1-.91-1.85,1.88,1.88,0,0,0-1.18-1.4A1.78,1.78,0,0,1,90.85,10a1.17,1.17,0,0,0,.81-1.62c-2-4.89,3.81-6.12,5-3.08,1.32-.59,2.09,2,.77,3.16-.49,1,.68,1.52.68,1.52a2,2,0,0,1-.42,1.6,1.26,1.26,0,0,0-1,1.24A2,2,0,0,1,96,14.63a3,3,0,0,0,.48,2.69c.94.66,2.11,2.07,3.19,2.93C97.18,22.09,91.45,21.87,89.19,20.07ZM106.9,5.49c-.2-1.08-.88-1.11-1-1.63-1,.75-2.35,0-3,1.68.88-1,2.48.18,2.81-.89C106,5.24,106.52,5.14,106.9,5.49Z"/><path class="cls-5" d="M140,14c-.87-.62-2.18-1.43-2.93-2a2,2,0,0,0-1-.18,1.85,1.85,0,0,1,.13-.77c.64-.2.76-1.06.79-1.76.81-.19,1.41-1.54,1.33-2.29a1.21,1.21,0,0,0-.81-1,3.55,3.55,0,0,0,.57-1.89,1.58,1.58,0,0,0-1.79-1.76A3.09,3.09,0,0,0,133.69,1c-1.83,0-3.89,1.11-3.89,3.26,0,.9.34,1.15.6,1.82a1.1,1.1,0,0,0-.74,1c0,.75.46,2.1,1.26,2.29a1.76,1.76,0,0,0,.92,1.71,1.37,1.37,0,0,1,0,.69,2.11,2.11,0,0,0-1,.42A31.06,31.06,0,0,1,128,14c-.09.1-.05.27,0,.45a2.45,2.45,0,0,0,0,.55c.13,2.68,12.13,2.66,12,0a4.56,4.56,0,0,0-.05-.61A1.08,1.08,0,0,0,140,14Zm-10.31.79c.88-.54,2-1.23,2.58-1.67a1.42,1.42,0,0,0,.82-.88,3.59,3.59,0,0,0-.12-2c-.41-.79-.74-.45-.84-1.54a1.47,1.47,0,0,0-.84-1.15.39.39,0,0,1,0-.35,1.27,1.27,0,0,0,.55-1.48c-1.54-3.47,2.81-4.25,3.74-2.27,1-.55,1.23,2,.62,2.29-.43.78,0,1.64.41,1.57a.32.32,0,0,1,0,.36,1.31,1.31,0,0,0-.8,1c-.06.52-.55,1-.83,1.44a4.25,4.25,0,0,0,.14,2c.12.52,1.09.87,1.09.87.76.5,1.61,1.13,2.46,1.71C136.56,16,132,15.94,129.69,14.82Zm-4.61-8.18c.24.8,1,.66,1.52,1.13-.27-1.46-1.19-1.5-1.29-2.2-1.39,1-4.27,0-3.9,2.44C122.59,6.62,124.64,8.09,125.08,6.64Zm5.57,12.82c-1.09-.81-2.65-2.45-3.59-3.17a.82.82,0,0,0-.68-.19,2.11,2.11,0,0,1,0-.84,3.36,3.36,0,0,0,1-2.3c1-.24,1.79-2,1.68-3a1.6,1.6,0,0,0-1-1.29c.33-.9.56-.74.56-2.16,0-1-.6-2.68-2.2-2.77A3.49,3.49,0,0,0,123.15,2a4.52,4.52,0,0,0-4.64,4.49,4.31,4.31,0,0,0,.53,2.16A1.58,1.58,0,0,0,118,10c0,1,.72,2.75,1.71,3a3.25,3.25,0,0,0,1,2.24,1.93,1.93,0,0,1,0,.9.83.83,0,0,0-.72.23,33.22,33.22,0,0,1-3.72,3.19.24.24,0,0,0,0,.28,1,1,0,0,0-.19.58c0,3.49,15,3.54,15,0a1.19,1.19,0,0,0-.18-.65A.49.49,0,0,0,130.64,19.46Zm-12.45.61c1.34-.92,3.08-2.16,3.91-2.83a2.64,2.64,0,0,0,.17-2.65,3.79,3.79,0,0,1-.91-1.85,1.88,1.88,0,0,0-1.18-1.4,1.78,1.78,0,0,1-.33-1.34,1.17,1.17,0,0,0,.81-1.62c-2-4.89,3.81-6.12,5-3.08,1.32-.59,2.09,2,.77,3.16-.49,1,.68,1.52.68,1.52a2,2,0,0,1-.42,1.6,1.26,1.26,0,0,0-1,1.24,2,2,0,0,1-.66,1.81,3,3,0,0,0,.48,2.69c.94.66,2.11,2.07,3.19,2.93C126.18,22.09,120.45,21.87,118.19,20.07ZM135.9,5.49c-.2-1.08-.88-1.11-1-1.63-1,.75-2.35,0-3,1.68.88-1,2.48.18,2.81-.89C135,5.24,135.52,5.14,135.9,5.49Z"/></g></svg>