<svg xmlns="http://www.w3.org/2000/svg" width="140" height="24" viewBox="0 0 140 24"><defs><style>.cls-1{fill:#0089d9;}.cls-1,.cls-2,.cls-3,.cls-4,.cls-5{fill-rule:evenodd;}.cls-2{fill:#d7d7d7;}.cls-3{fill:#39a6e6;}.cls-4{fill:#fff;}.cls-5{fill:#737373;}</style></defs><title>24</title><g id="Video"><path class="cls-1" d="M9,8v7l6-3ZM0,1V22H23V1ZM12,3h4V5H12ZM7,3h4V5H7ZM2,3H6V5H2ZM6,20H2V18H6Zm5,0H7V18h4Zm5,0H12V18h4Zm5,0H17V18h4Zm0-3H2V6H21ZM21,5H17V3h4Z"/><path class="cls-2" d="M38,8v7l6-3ZM29,1V22H52V1ZM41,3h4V5H41ZM36,3h4V5H36ZM31,3h4V5H31Zm4,17H31V18h4Zm5,0H36V18h4Zm5,0H41V18h4Zm5,0H46V18h4Zm0-3H31V6H50ZM50,5H46V3h4Z"/><path class="cls-3" d="M67,8v7l6-3ZM58,1V22H81V1ZM70,3h4V5H70ZM65,3h4V5H65ZM60,3h4V5H60Zm4,17H60V18h4Zm5,0H65V18h4Zm5,0H70V18h4Zm5,0H75V18h4Zm0-3H60V6H79ZM79,5H75V3h4Z"/><path class="cls-4" d="M96,8v7l6-3ZM87,1V22h23V1ZM99,3h4V5H99ZM94,3h4V5H94ZM89,3h4V5H89Zm4,17H89V18h4Zm5,0H94V18h4Zm5,0H99V18h4Zm5,0h-4V18h4Zm0-3H89V6h19Zm0-12h-4V3h4Z"/><path class="cls-5" d="M116,1V22h23V1Zm12,2h4V5h-4Zm-5,0h4V5h-4Zm-5,0h4V5h-4Zm4,17h-4V18h4Zm5,0h-4V18h4Zm5,0h-4V18h4Zm5,0h-4V18h4Zm0-3H118V6h19Zm0-12h-4V3h4ZM125,8v7l6-3Z"/></g></svg>