<svg xmlns="http://www.w3.org/2000/svg" width="140" height="24" viewBox="0 0 140 24"><defs><style>.cls-1{fill:#0089d9;}.cls-1,.cls-2,.cls-3,.cls-4,.cls-5{fill-rule:evenodd;}.cls-2{fill:#d7d7d7;}.cls-3{fill:#39a6e6;}.cls-4{fill:#fff;}.cls-5{fill:#737373;}</style></defs><title>24</title><g id="Office_Word" data-name="Office Word"><path class="cls-1" d="M19,11H15v1h4ZM16,.28V0H2V24H22V6.25Zm0,2.21L19.59,6H16ZM20,22H4V2H14V8h6ZM13,11H11L8,16.4V12H9V11H5v1H6v8H9l2-3.5V20h2l5-8H16l-3,3.6Z"/><path class="cls-2" d="M48,11H44v1h4ZM45,.28V0H31V24H51V6.25Zm0,2.21L48.59,6H45ZM49,22H33V2H43V8h6ZM42,11H40l-3,5.4V12h1V11H34v1h1v8h3l2-3.5V20h2l5-8H45l-3,3.6Z"/><path class="cls-3" d="M77,11H73v1h4Zm-6,0H69l-3,5.4V12h1V11H63v1h1v8h3l2-3.5V20h2l5-8H74l-3,3.6ZM74,.28V0H60V24H80V6.25Zm0,2.21L77.59,6H74ZM78,22H62V2H72V8h6Z"/><path class="cls-4" d="M103,.28V0H89V24h20V6.25Zm0,2.21L106.63,6H103ZM107,22H91V2h10V8h6Zm-5-10h4V11h-4Zm-2-1H98l-3,5.4V12h1V11H92v1h1v8h3l2-3.5V20h2l5-8h-2l-3,3.6Z"/><path class="cls-5" d="M129,11h-2l-3,5.4V12h1V11h-4v1h1v8h3l2-3.5V20h2l5-8h-2l-3,3.6ZM132,.28V0H118V24h20V6.25Zm0,2.21L135.59,6H132ZM136,22H120V2h10V8h6Zm-5-10h4V11h-4Z"/></g></svg>