<svg xmlns="http://www.w3.org/2000/svg" width="140" height="24" viewBox="0 0 140 24"><defs><style>.cls-1{fill:#0089d9;}.cls-1,.cls-2,.cls-3,.cls-4,.cls-5{fill-rule:evenodd;}.cls-2{fill:#d7d7d7;}.cls-3{fill:#39a6e6;}.cls-4{fill:#fff;}.cls-5{fill:#737373;}</style></defs><title>24</title><g id="XML_Document" data-name="XML Document"><path class="cls-1" d="M22,5.92,16,0H2V24H22ZM20,22H4V2H14V8h6ZM16,6V2l4,4ZM9.43,21H11L14.81,9H13.3ZM9,19V17L7,15l2-2V11L5,15Zm6-8v2l2,2-2,2v2l4-4Z"/><path class="cls-2" d="M51,5.92,45,0H31V24H51ZM49,22H33V2H43V8h6ZM45,6V2l4,4ZM38.4,21H40L43.78,9H42.27ZM38,19V17l-2-2,2-2V11l-4,4Zm6-8v2l2,2-2,2v2l4-4Z"/><path class="cls-3" d="M80,5.92,74,0H60V24H80ZM78,22H62V2H72V8h6ZM74,6V2l4,4ZM67.43,21H69L72.81,9H71.3ZM67,19V17l-2-2,2-2V11l-4,4Zm6-8v2l2,2-2,2v2l4-4Z"/><path class="cls-4" d="M109,5.92,103,0H89V24h20ZM107,22H91V2h10V8h6ZM103,6V2l4,4ZM96.43,21H98l3.77-12H100.3ZM96,19V17l-2-2,2-2V11l-4,4Zm6-8v2l2,2-2,2v2l4-4Z"/><path class="cls-5" d="M138,5.92,132,0H118V24h20ZM136,22H120V2h10V8h6ZM132,6V2l4,4Zm-6.58,15H127l3.77-12H129.3ZM125,19V17l-2-2,2-2V11l-4,4Zm6-8v2l2,2-2,2v2l4-4Z"/></g></svg>