<svg xmlns="http://www.w3.org/2000/svg" width="140" height="24" viewBox="0 0 140 24"><defs><style>.cls-1{fill:#0089d9;}.cls-1,.cls-2,.cls-3,.cls-4,.cls-5{fill-rule:evenodd;}.cls-2{fill:#d7d7d7;}.cls-3{fill:#39a6e6;}.cls-4{fill:#fff;}.cls-5{fill:#737373;}</style></defs><title>24</title><g id="XML"><path class="cls-1" d="M8,21h2L16,3H14ZM7,19V16.72L2.38,12,7,7.28V5L0,12ZM17,5V7.28L21.6,12,17,16.72V19l7-7Z"/><path class="cls-2" d="M37,21h2L45,3H43Zm-1-2V16.72L31.4,12,36,7.28V5l-7,7ZM46,5V7.28L50.63,12,46,16.72V19l7-7Z"/><path class="cls-3" d="M66,21h2L74,3H72Zm-1-2V16.72L60.4,12,65,7.28V5l-7,7ZM75,5V7.28L79.63,12,75,16.72V19l7-7Z"/><path class="cls-4" d="M95,21h2l6-18h-2Zm-1-2V16.72L89.4,12,94,7.28V5l-7,7ZM104,5V7.28L108.63,12,104,16.72V19l7-7Z"/><path class="cls-5" d="M124,21h2l6-18h-2Zm-1-2V16.72L118.4,12,123,7.28V5l-7,7ZM133,5V7.28L137.63,12,133,16.72V19l7-7Z"/></g></svg>