<svg xmlns="http://www.w3.org/2000/svg" width="140" height="24" viewBox="0 0 140 24"><defs><style>.cls-1{fill:#0089d9;}.cls-1,.cls-2,.cls-3,.cls-4,.cls-5{fill-rule:evenodd;}.cls-2{fill:#d7d7d7;}.cls-3{fill:#39a6e6;}.cls-4{fill:#fff;}.cls-5{fill:#737373;}</style></defs><title>24</title><g id="Zoom_In" data-name="Zoom In"><path class="cls-1" d="M23.74,22.17,20.67,19.1a1,1,0,0,0-1-.18l-.54-.54a11,11,0,1,0-.71.71l.59.59a1.06,1.06,0,0,0,.23,1l3.07,3.07a1,1,0,0,0,1.45-.09A1.08,1.08,0,0,0,23.74,22.17ZM11,20a9,9,0,1,1,9-9A9,9,0,0,1,11,20Zm3-10H12V8a1,1,0,0,0-2,0v2H8a1,1,0,1,0,0,2h2v2a1,1,0,0,0,2,0V12h2a1,1,0,1,0,0-2Z"/><path class="cls-2" d="M52.74,22.17,49.67,19.1a1,1,0,0,0-1-.18l-.54-.54a11,11,0,1,0-.71.71l.59.59a1.06,1.06,0,0,0,.23,1l3.07,3.07a1,1,0,0,0,1.45-.09A1.08,1.08,0,0,0,52.74,22.17ZM40,20a9,9,0,1,1,9-9A9,9,0,0,1,40,20Zm3-10H41V8a1,1,0,0,0-2,0v2H37a1,1,0,1,0,0,2h2v2a1,1,0,0,0,2,0V12h2a1,1,0,1,0,0-2Z"/><path class="cls-3" d="M81.72,22.17,78.65,19.1a1,1,0,0,0-1-.18l-.54-.54a11,11,0,1,0-.71.71l.59.59a1.06,1.06,0,0,0,.23,1l3.07,3.07a1,1,0,0,0,1.45-.09A1.08,1.08,0,0,0,81.72,22.17ZM69,20a9,9,0,1,1,9-9A9,9,0,0,1,69,20Zm3-10H70V8a1,1,0,0,0-2,0v2H66a1,1,0,1,0,0,2h2v2a1,1,0,0,0,2,0V12h2a1,1,0,1,0,0-2Z"/><path class="cls-4" d="M110.72,22.18l-3.07-3.07a1,1,0,0,0-1-.18l-.54-.54a11,11,0,1,0-.71.71l.59.59a1.06,1.06,0,0,0,.23,1l3.07,3.07a1,1,0,0,0,1.45-.09A1.08,1.08,0,0,0,110.72,22.18ZM98,20a9,9,0,1,1,9-9A9,9,0,0,1,98,20Zm3-10H99V8a1,1,0,0,0-2,0v2H95a1,1,0,1,0,0,2h2v2a1,1,0,0,0,2,0V12h2a1,1,0,1,0,0-2Z"/><path class="cls-5" d="M139.72,22.18l-3.07-3.07a1,1,0,0,0-1-.18l-.54-.54a11,11,0,1,0-.71.71l.59.59a1.06,1.06,0,0,0,.23,1l3.07,3.07a1,1,0,0,0,1.45-.09A1.08,1.08,0,0,0,139.72,22.18ZM127,20a9,9,0,1,1,9-9A9,9,0,0,1,127,20Zm3-10h-2V8a1,1,0,0,0-2,0v2h-2a1,1,0,1,0,0,2h2v2a1,1,0,0,0,2,0V12h2a1,1,0,1,0,0-2Z"/></g></svg>