<svg xmlns="http://www.w3.org/2000/svg" xmlns:xlink="http://www.w3.org/1999/xlink" width="189.901" height="33" viewBox="0 0 189.901 33"><defs><filter id="a" x="98" y="0" width="48.901" height="33" filterUnits="userSpaceOnUse"><feOffset dy="2" input="SourceAlpha"/><feGaussianBlur stdDeviation="2" result="b"/><feFlood flood-color="#0087e0" flood-opacity="0.149"/><feComposite operator="in" in2="b"/><feComposite in="SourceGraphic"/></filter><filter id="c" x="49" y="0" width="48.901" height="33" filterUnits="userSpaceOnUse"><feOffset dy="2" input="SourceAlpha"/><feGaussianBlur stdDeviation="2" result="d"/><feFlood flood-color="#0087e0" flood-opacity="0.149"/><feComposite operator="in" in2="d"/><feComposite in="SourceGraphic"/></filter><filter id="e" x="0" y="0" width="48.901" height="33" filterUnits="userSpaceOnUse"><feOffset dy="2" input="SourceAlpha"/><feGaussianBlur stdDeviation="2" result="f"/><feFlood flood-color="#163e59" flood-opacity="0.122"/><feComposite operator="in" in2="f"/><feComposite in="SourceGraphic"/></filter></defs><g transform="translate(6 4)"><g transform="translate(-1282 -447)"><g transform="translate(-0.049 -1)" fill="#d9dcde"><path d="M 1462.99951171875 468.5001831054688 L 1447.327270507813 468.5001831054688 L 1447.000366210938 468.4998474121094 C 1444.837524414063 468.4990844726563 1439.79443359375 468.4973754882813 1438.23876953125 468.4973754882813 C 1436.878173828125 468.4973754882813 1435.792602539063 468.2904052734375 1434.920166015625 467.8646545410156 C 1433.66748046875 467.2533874511719 1432.871337890625 466.2132873535156 1432.486450195313 464.6850280761719 C 1431.833618164063 461.7745971679688 1430.435791015625 455.4556884765625 1429.660278320313 451.9464111328125 C 1429.42333984375 450.8731689453125 1429.56884765625 449.9383850097656 1430.070068359375 449.3143005371094 C 1430.497924804688 448.7817077636719 1431.165161132813 448.5001831054688 1431.999877929688 448.5001831054688 L 1447.666748046875 448.5001831054688 L 1448 448.5004272460938 C 1450.16259765625 448.5009460449219 1455.204956054688 448.5020751953125 1456.7607421875 448.5020751953125 C 1458.12109375 448.5020751953125 1459.20654296875 448.7091674804688 1460.079223632813 449.1352233886719 C 1461.33203125 449.7467956542969 1462.128173828125 450.7872619628906 1462.513061523438 452.3157348632813 C 1463.166625976563 455.2289123535156 1464.56396484375 461.5460205078125 1465.339233398438 465.0539855957031 C 1465.576293945313 466.1271362304688 1465.430786132813 467.0618591308594 1464.929565429688 467.6860046386719 C 1464.501708984375 468.2186279296875 1463.834350585938 468.5001831054688 1462.99951171875 468.5001831054688 Z" stroke="none"/><path d="M 1462.99951171875 468.0001831054688 C 1463.472290039063 468.0001831054688 1464.123291015625 467.891357421875 1464.539672851563 467.3728942871094 C 1464.944213867188 466.8692932128906 1465.0546875 466.0840759277344 1464.850952148438 465.161865234375 C 1464.076416015625 461.6567687988281 1462.680541992188 455.3468017578125 1462.026611328125 452.4314880371094 C 1461.679321289063 451.0579528808594 1460.970581054688 450.126708984375 1459.859985351563 449.5845336914063 C 1459.057006835938 449.1925964355469 1458.043334960938 449.0020751953125 1456.7607421875 449.0020751953125 C 1455.204956054688 449.0020751953125 1450.162475585938 449.0009460449219 1447.999877929688 449.0004272460938 L 1447.5 449.0001831054688 L 1431.999877929688 449.0001831054688 C 1431.527221679688 449.0001831054688 1430.876342773438 449.1090087890625 1430.4599609375 449.6274108886719 C 1430.055419921875 450.1309814453125 1429.94482421875 450.916259765625 1430.148559570313 451.8385314941406 C 1430.92333984375 455.3446960449219 1432.319458007813 461.6561889648438 1432.972778320313 464.5690307617188 C 1433.320068359375 465.9423217773438 1434.028930664063 466.8734130859375 1435.139404296875 467.4153137207031 C 1435.942016601563 467.8069763183594 1436.955810546875 467.9973754882813 1438.23876953125 467.9973754882813 C 1439.794555664063 467.9973754882813 1444.837646484375 467.9990844726563 1447.000610351563 467.9998474121094 L 1447.4931640625 468.0001831054688 L 1462.99951171875 468.0001831054688 M 1462.99951171875 469.0001831054688 C 1461.906005859375 469.0001831054688 1447.000244140625 469.0001831054688 1447.000244140625 469.0001831054688 L 1447.000244140625 468.9998474121094 C 1444.83740234375 468.9990844726563 1439.79443359375 468.9973754882813 1438.23876953125 468.9973754882813 C 1436.175903320313 468.9973754882813 1432.94677734375 468.5740051269531 1431.999877929688 464.8005676269531 C 1431.288940429688 461.6310119628906 1429.68603515625 454.3799438476563 1429.172119140625 452.0542907714844 C 1428.65283203125 449.7030944824219 1429.816528320313 448.0001831054688 1431.999877929688 448.0001831054688 C 1433.093383789063 448.0001831054688 1448.000122070313 448.0001831054688 1448.000122070313 448.0001831054688 L 1448.000122070313 448.0004272460938 C 1450.162719726563 448.0009460449219 1455.204956054688 448.0020751953125 1456.7607421875 448.0020751953125 C 1458.823486328125 448.0020751953125 1462.052734375 448.4263610839844 1462.99951171875 452.1998291015625 C 1463.710571289063 455.369384765625 1465.3134765625 462.6204223632813 1465.827392578125 464.9461059570313 C 1466.3466796875 467.2963562011719 1465.183837890625 469.0001831054688 1462.99951171875 469.0001831054688 Z" stroke="none" fill="#c1c3c5"/></g><path d="M4928,6450.5a1.5,1.5,0,1,1,1.5,1.5A1.5,1.5,0,0,1,4928,6450.5Zm-6,0a1.5,1.5,0,1,1,1.5,1.5A1.5,1.5,0,0,1,4922,6450.5Zm-6,0a1.5,1.5,0,1,1,1.5,1.5A1.5,1.5,0,0,1,4916,6450.5Z" transform="translate(-3476 -5993)" fill="#6a6c6d"/></g><g transform="translate(-1331 -447)"><g transform="matrix(1, 0, 0, 1, 1325, 443)" filter="url(#a)"><g transform="translate(-1325.05 -444)" fill="#fff"><path d="M 1462.99951171875 468.0001831054688 L 1447.4931640625 468.0001831054688 L 1447.000610351563 467.9998474121094 C 1444.837646484375 467.9990844726563 1439.794555664063 467.9973754882813 1438.23876953125 467.9973754882813 C 1436.955810546875 467.9973754882813 1435.942016601563 467.8069763183594 1435.139404296875 467.4153137207031 C 1434.028930664063 466.8734130859375 1433.320068359375 465.9423217773438 1432.972778320313 464.5690307617188 C 1432.319458007813 461.6561889648438 1430.92333984375 455.3446960449219 1430.148559570313 451.8385314941406 C 1429.94482421875 450.916259765625 1430.055419921875 450.1309814453125 1430.4599609375 449.6274108886719 C 1430.876342773438 449.1090087890625 1431.527221679688 449.0001831054688 1431.999877929688 449.0001831054688 L 1447.5 449.0001831054688 L 1447.999877929688 449.0004272460938 C 1450.162475585938 449.0009460449219 1455.204956054688 449.0020751953125 1456.7607421875 449.0020751953125 C 1458.043334960938 449.0020751953125 1459.057006835938 449.1925964355469 1459.859985351563 449.5845336914063 C 1460.970581054688 450.126708984375 1461.679321289063 451.0579528808594 1462.026611328125 452.4314880371094 C 1462.680541992188 455.3468017578125 1464.076416015625 461.6567687988281 1464.850952148438 465.161865234375 C 1465.0546875 466.0840759277344 1464.944213867188 466.8692932128906 1464.539672851563 467.3728942871094 C 1464.123291015625 467.891357421875 1463.472290039063 468.0001831054688 1462.99951171875 468.0001831054688 Z" stroke="none"/><path d="M 1462.99951171875 467.0001831054688 C 1463.253540039063 467.0001831054688 1463.591796875 466.9562072753906 1463.760009765625 466.7467041015625 C 1463.918090820313 466.5498657226563 1464.03125 466.0868530273438 1463.87451171875 465.3776550292969 C 1463.101318359375 461.8786926269531 1461.708984375 455.584228515625 1461.053955078125 452.6641235351563 C 1460.778686523438 451.5857849121094 1460.259399414063 450.8923645019531 1459.421264648438 450.4831848144531 C 1458.758056640625 450.1594543457031 1457.887817382813 450.0020751953125 1456.7607421875 450.0020751953125 C 1455.204833984375 450.0020751953125 1450.162353515625 450.0009460449219 1447.999633789063 450.0004272460938 L 1447.333129882813 450.0001831054688 L 1431.999877929688 450.0001831054688 C 1431.745849609375 450.0001831054688 1431.407836914063 450.0441589355469 1431.239624023438 450.2536315917969 C 1431.081420898438 450.4504699707031 1430.968383789063 450.9135437011719 1431.125 451.6227416992188 C 1431.8984375 455.122802734375 1433.291137695313 461.4185180664063 1433.945434570313 464.336181640625 C 1434.220703125 465.4144897460938 1434.739868164063 466.1076354980469 1435.577880859375 466.5166015625 C 1436.240966796875 466.8401184082031 1437.111328125 466.9973754882813 1438.23876953125 466.9973754882813 C 1439.794555664063 466.9973754882813 1444.837890625 466.9990844726563 1447.0009765625 466.9998474121094 L 1447.654541015625 467.0001831054688 L 1462.99951171875 467.0001831054688 M 1462.99951171875 469.0001831054688 C 1461.906005859375 469.0001831054688 1447.000244140625 469.0001831054688 1447.000244140625 469.0001831054688 L 1447.000244140625 468.9998474121094 C 1444.83740234375 468.9990844726563 1439.79443359375 468.9973754882813 1438.23876953125 468.9973754882813 C 1436.175903320313 468.9973754882813 1432.94677734375 468.5740051269531 1431.999877929688 464.8005676269531 C 1431.288940429688 461.6310119628906 1429.68603515625 454.3799438476563 1429.172119140625 452.0542907714844 C 1428.65283203125 449.7030944824219 1429.816528320313 448.0001831054688 1431.999877929688 448.0001831054688 C 1433.093383789063 448.0001831054688 1448.000122070313 448.0001831054688 1448.000122070313 448.0001831054688 L 1448.000122070313 448.0004272460938 C 1450.162719726563 448.0009460449219 1455.204956054688 448.0020751953125 1456.7607421875 448.0020751953125 C 1458.823486328125 448.0020751953125 1462.052734375 448.4263610839844 1462.99951171875 452.1998291015625 C 1463.710571289063 455.369384765625 1465.3134765625 462.6204223632813 1465.827392578125 464.9461059570313 C 1466.3466796875 467.2963562011719 1465.183837890625 469.0001831054688 1462.99951171875 469.0001831054688 Z" stroke="none" fill="#0087e0"/></g></g><path d="M4928,6450.5a1.5,1.5,0,1,1,1.5,1.5A1.5,1.5,0,0,1,4928,6450.5Zm-6,0a1.5,1.5,0,1,1,1.5,1.5A1.5,1.5,0,0,1,4922,6450.5Zm-6,0a1.5,1.5,0,1,1,1.5,1.5A1.5,1.5,0,0,1,4916,6450.5Z" transform="translate(-3476 -5993)" fill="#6a6c6d"/></g><g transform="translate(-1380 -447)"><g transform="matrix(1, 0, 0, 1, 1374, 443)" filter="url(#c)"><g transform="translate(-1374.05 -444)" fill="#dceefa" stroke-linejoin="round"><path d="M 1462.99951171875 468.5001831054688 L 1447.327270507813 468.5001831054688 L 1447.000366210938 468.4998474121094 C 1444.837524414063 468.4990844726563 1439.79443359375 468.4973754882813 1438.23876953125 468.4973754882813 C 1436.878173828125 468.4973754882813 1435.792602539063 468.2904052734375 1434.920166015625 467.8646545410156 C 1433.66748046875 467.2533874511719 1432.871337890625 466.2132873535156 1432.486450195313 464.6850280761719 C 1431.833618164063 461.7745971679688 1430.435791015625 455.4556884765625 1429.660278320313 451.9464111328125 C 1429.42333984375 450.8731689453125 1429.56884765625 449.9383850097656 1430.070068359375 449.3143005371094 C 1430.497924804688 448.7817077636719 1431.165161132813 448.5001831054688 1431.999877929688 448.5001831054688 L 1447.666748046875 448.5001831054688 L 1448 448.5004272460938 C 1450.16259765625 448.5009460449219 1455.204956054688 448.5020751953125 1456.7607421875 448.5020751953125 C 1458.12109375 448.5020751953125 1459.20654296875 448.7091674804688 1460.079223632813 449.1352233886719 C 1461.33203125 449.7467956542969 1462.128173828125 450.7872619628906 1462.513061523438 452.3157348632813 C 1463.166625976563 455.2289123535156 1464.56396484375 461.5460205078125 1465.339233398438 465.0539855957031 C 1465.576293945313 466.1271362304688 1465.430786132813 467.0618591308594 1464.929565429688 467.6860046386719 C 1464.501708984375 468.2186279296875 1463.834350585938 468.5001831054688 1462.99951171875 468.5001831054688 Z" stroke="none"/><path d="M 1462.99951171875 468.0001831054688 C 1463.472290039063 468.0001831054688 1464.123291015625 467.891357421875 1464.539672851563 467.3728942871094 C 1464.944213867188 466.8692932128906 1465.0546875 466.0840759277344 1464.850952148438 465.161865234375 C 1464.076416015625 461.6567687988281 1462.680541992188 455.3468017578125 1462.026611328125 452.4314880371094 C 1461.679321289063 451.0579528808594 1460.970581054688 450.126708984375 1459.859985351563 449.5845336914063 C 1459.057006835938 449.1925964355469 1458.043334960938 449.0020751953125 1456.7607421875 449.0020751953125 C 1455.204956054688 449.0020751953125 1450.162475585938 449.0009460449219 1447.999877929688 449.0004272460938 C 1447.992553710938 449.0004272460938 1447.985229492188 449.0003356933594 1447.97802734375 449.0001831054688 L 1431.999877929688 449.0001831054688 C 1431.527221679688 449.0001831054688 1430.876342773438 449.1090087890625 1430.4599609375 449.6274108886719 C 1430.055419921875 450.1309814453125 1429.94482421875 450.916259765625 1430.148559570313 451.8385314941406 C 1430.92333984375 455.3446960449219 1432.319458007813 461.6561889648438 1432.972778320313 464.5690307617188 C 1433.320068359375 465.9423217773438 1434.028930664063 466.8734130859375 1435.139404296875 467.4153137207031 C 1435.942016601563 467.8069763183594 1436.955810546875 467.9973754882813 1438.23876953125 467.9973754882813 C 1439.794555664063 467.9973754882813 1444.837646484375 467.9990844726563 1447.000610351563 467.9998474121094 C 1447.00927734375 467.9998474121094 1447.017944335938 467.9999694824219 1447.026611328125 468.0001831054688 L 1462.99951171875 468.0001831054688 M 1462.99951171875 469.0001831054688 C 1461.906005859375 469.0001831054688 1447.000244140625 469.0001831054688 1447.000244140625 469.0001831054688 L 1447.000244140625 468.9998474121094 C 1444.83740234375 468.9990844726563 1439.79443359375 468.9973754882813 1438.23876953125 468.9973754882813 C 1436.175903320313 468.9973754882813 1432.94677734375 468.5740051269531 1431.999877929688 464.8005676269531 C 1431.288940429688 461.6310119628906 1429.68603515625 454.3799438476563 1429.172119140625 452.0542907714844 C 1428.65283203125 449.7030944824219 1429.816528320313 448.0001831054688 1431.999877929688 448.0001831054688 C 1433.093383789063 448.0001831054688 1448.000122070313 448.0001831054688 1448.000122070313 448.0001831054688 L 1448.000122070313 448.0004272460938 C 1450.162719726563 448.0009460449219 1455.204956054688 448.0020751953125 1456.7607421875 448.0020751953125 C 1458.823486328125 448.0020751953125 1462.052734375 448.4263610839844 1462.99951171875 452.1998291015625 C 1463.710571289063 455.369384765625 1465.3134765625 462.6204223632813 1465.827392578125 464.9461059570313 C 1466.3466796875 467.2963562011719 1465.183837890625 469.0001831054688 1462.99951171875 469.0001831054688 Z" stroke="none" fill="#96d2fa"/></g></g><path d="M4928,6450.5a1.5,1.5,0,1,1,1.5,1.5A1.5,1.5,0,0,1,4928,6450.5Zm-6,0a1.5,1.5,0,1,1,1.5,1.5A1.5,1.5,0,0,1,4922,6450.5Zm-6,0a1.5,1.5,0,1,1,1.5,1.5A1.5,1.5,0,0,1,4916,6450.5Z" transform="translate(-3476 -5993)" fill="#5bb4f0"/></g><g transform="translate(-1429.049 -447)"><g transform="matrix(1, 0, 0, 1, 1423.05, 443)" filter="url(#e)"><g transform="translate(-1423.05 -444)" fill="#fff"><path d="M 1462.99951171875 468.5000305175781 L 1447.336669921875 468.5000305175781 L 1447.000366210938 468.4996643066406 C 1444.837524414063 468.4989013671875 1439.79443359375 468.4971923828125 1438.23876953125 468.4971923828125 C 1436.878173828125 468.4971923828125 1435.792602539063 468.2902221679688 1434.920166015625 467.864501953125 C 1433.66748046875 467.2532348632813 1432.871337890625 466.2131652832031 1432.486450195313 464.6849060058594 C 1431.833984375 461.7763977050781 1430.43603515625 455.4564514160156 1429.660278320313 451.9464111328125 C 1429.42333984375 450.8731994628906 1429.56884765625 449.9384155273438 1430.070068359375 449.3143615722656 C 1430.497924804688 448.7817687988281 1431.165161132813 448.500244140625 1431.999877929688 448.500244140625 L 1447.676513671875 448.500244140625 L 1448 448.5004577636719 C 1450.16259765625 448.5009765625 1455.204956054688 448.5021362304688 1456.7607421875 448.5021362304688 C 1458.12109375 448.5021362304688 1459.20654296875 448.709228515625 1460.079223632813 449.1352844238281 C 1461.33203125 449.746826171875 1462.128173828125 450.7872924804688 1462.513061523438 452.3157348632813 C 1463.165771484375 455.2251892089844 1464.563598632813 461.5443420410156 1465.339233398438 465.0538635253906 C 1465.576293945313 466.1270141601563 1465.430786132813 467.0617370605469 1464.929565429688 467.6858520507813 C 1464.501708984375 468.218505859375 1463.834350585938 468.5000305175781 1462.99951171875 468.5000305175781 Z" stroke="none"/><path d="M 1462.99951171875 468.0000305175781 C 1463.472290039063 468.0000305175781 1464.123291015625 467.8912048339844 1464.539672851563 467.3727416992188 C 1464.944213867188 466.869140625 1465.0546875 466.0839233398438 1464.850952148438 465.1617431640625 C 1464.076049804688 461.6548767089844 1462.6796875 455.3424987792969 1462.026489257813 452.4311218261719 C 1461.67919921875 451.0579223632813 1460.970458984375 450.1266784667969 1459.859985351563 449.5845947265625 C 1459.057006835938 449.1926574707031 1458.043334960938 449.0021362304688 1456.7607421875 449.0021362304688 C 1455.204956054688 449.0021362304688 1450.162475585938 449.0009765625 1447.999877929688 449.0004577636719 L 1447.521728515625 449.000244140625 L 1431.999877929688 449.000244140625 C 1431.527221679688 449.000244140625 1430.876342773438 449.1090698242188 1430.4599609375 449.6274719238281 C 1430.055419921875 450.1310119628906 1429.94482421875 450.9162902832031 1430.148559570313 451.8385009765625 C 1430.923583984375 455.3454895019531 1432.319946289063 461.657958984375 1432.972778320313 464.5689086914063 C 1433.320068359375 465.9421691894531 1434.028930664063 466.8732604980469 1435.139404296875 467.4151306152344 C 1435.942016601563 467.8067932128906 1436.955810546875 467.9971923828125 1438.23876953125 467.9971923828125 C 1439.794555664063 467.9971923828125 1444.837646484375 467.9989013671875 1447.000610351563 467.9996643066406 L 1447.514282226563 468.0000305175781 L 1462.99951171875 468.0000305175781 M 1462.99951171875 469.0000305175781 C 1461.906005859375 469.0000305175781 1447.000244140625 469.0000305175781 1447.000244140625 469.0000305175781 L 1447.000244140625 468.9996643066406 C 1444.83740234375 468.9989013671875 1439.79443359375 468.9971923828125 1438.23876953125 468.9971923828125 C 1436.175903320313 468.9971923828125 1432.94677734375 468.5738525390625 1431.999877929688 464.8004455566406 C 1431.288940429688 461.6309204101563 1429.68603515625 454.3799133300781 1429.172119140625 452.0542907714844 C 1428.65283203125 449.703125 1429.816528320313 448.000244140625 1431.999877929688 448.000244140625 C 1433.093383789063 448.000244140625 1448.000122070313 448.000244140625 1448.000122070313 448.000244140625 L 1448.000122070313 448.0004577636719 C 1450.162719726563 448.0009765625 1455.204956054688 448.0021362304688 1456.7607421875 448.0021362304688 C 1458.823486328125 448.0021362304688 1462.052734375 448.4264221191406 1462.99951171875 452.1998291015625 C 1463.710571289063 455.3693237304688 1465.3134765625 462.6203308105469 1465.827392578125 464.9459838867188 C 1466.3466796875 467.2962036132813 1465.183837890625 469.0000305175781 1462.99951171875 469.0000305175781 Z" stroke="none" fill="#c1c3c5"/></g></g><path d="M4928,6450.5a1.5,1.5,0,1,1,1.5,1.5A1.5,1.5,0,0,1,4928,6450.5Zm-6,0a1.5,1.5,0,1,1,1.5,1.5A1.5,1.5,0,0,1,4922,6450.5Zm-6,0a1.5,1.5,0,1,1,1.5,1.5A1.5,1.5,0,0,1,4916,6450.5Z" transform="translate(-3476 -5993)" fill="#6a6c6d"/></g></g></svg>