<svg xmlns="http://www.w3.org/2000/svg" xmlns:xlink="http://www.w3.org/1999/xlink" width="34" height="393" viewBox="0 0 34 393"><defs><clipPath id="a"><rect width="34" height="41" transform="translate(182 774)" fill="#fff"/></clipPath><filter id="b" x="-16" y="346.153" width="66.231" height="67" filterUnits="userSpaceOnUse"><feOffset dy="5" input="SourceAlpha"/><feGaussianBlur stdDeviation="5" result="c"/><feFlood flood-color="#4d8400" flood-opacity="0.302"/><feComposite operator="in" in2="c"/><feComposite in="SourceGraphic"/></filter><clipPath id="d"><rect width="34" height="39" transform="translate(224 784)" fill="#fff"/></clipPath><filter id="e" x="-15" y="195" width="64" height="67" filterUnits="userSpaceOnUse"><feOffset dy="5" input="SourceAlpha"/><feGaussianBlur stdDeviation="5" result="f"/><feFlood flood-color="#163e59" flood-opacity="0.149"/><feComposite operator="in" in2="f"/><feComposite in="SourceGraphic"/></filter><clipPath id="g"><rect width="34" height="41" transform="translate(183 774)" fill="#fff"/></clipPath><filter id="h" x="-17" y="296.153" width="68.329" height="67" filterUnits="userSpaceOnUse"><feOffset dy="5" input="SourceAlpha"/><feGaussianBlur stdDeviation="5" result="i"/><feFlood flood-color="#4d8400" flood-opacity="0.302"/><feComposite operator="in" in2="i"/><feComposite in="SourceGraphic"/></filter><clipPath id="j"><rect width="34" height="40" transform="translate(224 784)" fill="#fff"/></clipPath><filter id="k" x="-15" y="94" width="64" height="67" filterUnits="userSpaceOnUse"><feOffset dy="5" input="SourceAlpha"/><feGaussianBlur stdDeviation="5" result="l"/><feFlood flood-color="#163e59" flood-opacity="0.149"/><feComposite operator="in" in2="l"/><feComposite in="SourceGraphic"/></filter><clipPath id="n"><rect width="34" height="40" transform="translate(222.5 784)" fill="#fff"/></clipPath><filter id="o" x="-15" y="-6" width="64" height="67" filterUnits="userSpaceOnUse"><feOffset dy="5" input="SourceAlpha"/><feGaussianBlur stdDeviation="5" result="p"/><feFlood flood-color="#163e59" flood-opacity="0.149"/><feComposite operator="in" in2="p"/><feComposite in="SourceGraphic"/></filter><filter id="r" x="-15" y="245" width="64" height="67" filterUnits="userSpaceOnUse"><feOffset dy="5" input="SourceAlpha"/><feGaussianBlur stdDeviation="5" result="s"/><feFlood flood-color="#163e59" flood-opacity="0.149"/><feComposite operator="in" in2="s"/><feComposite in="SourceGraphic"/></filter><filter id="u" x="-15" y="94" width="64" height="67" filterUnits="userSpaceOnUse"><feOffset dy="5" input="SourceAlpha"/><feGaussianBlur stdDeviation="5" result="v"/><feFlood flood-color="#163e59" flood-opacity="0.102"/><feComposite operator="in" in2="v"/><feComposite in="SourceGraphic"/></filter><filter id="x" x="-15" y="144" width="64" height="67" filterUnits="userSpaceOnUse"><feOffset dy="5" input="SourceAlpha"/><feGaussianBlur stdDeviation="5" result="y"/><feFlood flood-color="#163e59" flood-opacity="0.149"/><feComposite operator="in" in2="y"/><feComposite in="SourceGraphic"/></filter></defs><g transform="translate(384 -167)"><g transform="translate(-384 519)"><g transform="translate(-182 -774)" clip-path="url(#a)"><g transform="translate(182 779.153)"><g transform="matrix(1, 0, 0, 1, 0, -357.15)" filter="url(#b)"><g transform="translate(0 357.15)" fill="#fff" stroke="rgba(22,62,89,0.05)" stroke-width="1"><rect width="34.231" height="35" stroke="none"/><rect x="-0.5" y="-0.5" width="35.231" height="36" fill="none"/></g></g><rect width="34.231" height="36" transform="translate(0)" fill="#fff"/></g><g transform="translate(182 778)"><rect width="35" height="2" fill="#0087e0"/></g></g></g><g transform="translate(-384 368)"><g transform="translate(-224 -784)" clip-path="url(#d)"><g transform="translate(200 789)"><g transform="matrix(1, 0, 0, 1, 24, -206)" filter="url(#e)"><rect width="32" height="35" transform="translate(1 206)" fill="#fff" stroke="#0087e0" stroke-width="2"/></g><rect width="38" height="34" transform="translate(22 1)" fill="#fff"/></g></g></g><g transform="translate(-384 469)"><g transform="translate(-183 -774)" clip-path="url(#g)"><g transform="translate(182 779.153)"><g transform="matrix(1, 0, 0, 1, 1, -307.15)" filter="url(#h)"><g transform="translate(-1 307.15)" fill="#fff" stroke="rgba(22,62,89,0.05)" stroke-width="1"><rect width="36.329" height="35" stroke="none"/><rect x="-0.5" y="-0.5" width="37.329" height="36" fill="none"/></g></g><rect width="36.329" height="36" transform="translate(0)" fill="#fff"/></g><g transform="translate(182 778)"><rect width="36" height="2" fill="#68a611"/></g></g></g><g transform="translate(-384 267)"><g transform="translate(-224 -784)" clip-path="url(#j)"><g transform="translate(200 789)"><g transform="matrix(1, 0, 0, 1, 24, -105)" filter="url(#k)"><g transform="translate(1 105)" fill="#fff" stroke="rgba(22,62,89,0.05)" stroke-width="1"><rect width="32" height="35" stroke="none"/><rect x="-0.5" y="-0.5" width="33" height="36" fill="none"/></g></g><rect width="38" height="35" transform="translate(22 0)" fill="#dceefa"/></g></g></g><g transform="translate(-384 217)"><g transform="translate(-224 -784)" clip-path="url(#j)"><g transform="translate(200 789)"><g transform="translate(25 0)" fill="#f7f9fa" stroke="rgba(22,62,89,0.05)" stroke-width="1"><rect width="32" height="35" stroke="none"/><rect x="-0.5" y="-0.5" width="33" height="36" fill="none"/></g><rect width="38" height="35" transform="translate(22 0)" fill="#f7f9fa"/></g></g></g><g transform="translate(-384 167)"><g transform="translate(-222.5 -784)" clip-path="url(#n)"><g transform="translate(198.5 789)"><g transform="matrix(1, 0, 0, 1, 24, -5)" filter="url(#o)"><g transform="translate(1 5)" fill="#fff" stroke="rgba(22,62,89,0.05)" stroke-width="1"><rect width="32" height="35" stroke="none"/><rect x="-0.5" y="-0.5" width="33" height="36" fill="none"/></g></g><rect width="38" height="35" transform="translate(22 0)" fill="#fff"/></g></g></g><g transform="translate(-384 418)"><g transform="translate(-224 -784)" clip-path="url(#d)"><g transform="translate(200 789)"><g transform="matrix(1, 0, 0, 1, 24, -256)" filter="url(#r)"><rect width="32" height="35" transform="translate(1 256)" fill="#dceefa" stroke="#0087e0" stroke-width="2"/></g><rect width="38" height="34" transform="translate(22 1)" fill="#dceefa"/></g></g></g><g transform="translate(-384 267)"><g transform="translate(-224 -784)" clip-path="url(#j)"><g transform="translate(200 789)"><g transform="matrix(1, 0, 0, 1, 24, -105)" filter="url(#u)"><g transform="translate(1 105)" fill="#fff" stroke="rgba(22,62,89,0.1)" stroke-width="1"><rect width="32" height="35" stroke="none"/><rect x="-0.5" y="-0.5" width="33" height="36" fill="none"/></g></g><rect width="38" height="35" transform="translate(22 0)" fill="#dceefa"/></g></g></g><g transform="translate(-384 317)"><g transform="translate(-224 -784)" clip-path="url(#j)"><g transform="translate(200 789)"><g transform="matrix(1, 0, 0, 1, 24, -155)" filter="url(#x)"><g transform="translate(1 155)" fill="#d9dcde" stroke="rgba(22,62,89,0.25)" stroke-width="1"><rect width="32" height="35" stroke="none"/><rect x="-0.5" y="-0.5" width="33" height="36" fill="none"/></g></g><rect width="38" height="35" transform="translate(22 0)" fill="#d9dcde"/></g></g></g></g></svg>