<svg xmlns="http://www.w3.org/2000/svg" xmlns:xlink="http://www.w3.org/1999/xlink" width="23" height="393" viewBox="0 0 23 393"><defs><clipPath id="a"><rect width="23" height="41" transform="translate(159 774)" fill="#fff"/></clipPath><filter id="b" x="-16.012" y="346.153" width="56.012" height="68.025" filterUnits="userSpaceOnUse"><feOffset dy="5" input="SourceAlpha"/><feGaussianBlur stdDeviation="5" result="c"/><feFlood flood-color="#4d8400" flood-opacity="0.302"/><feComposite operator="in" in2="c"/><feComposite in="SourceGraphic"/></filter><clipPath id="d"><rect width="23" height="39" transform="translate(200 784)" fill="#fff"/></clipPath><filter id="e" x="-15.001" y="195" width="54.001" height="67.001" filterUnits="userSpaceOnUse"><feOffset dy="5" input="SourceAlpha"/><feGaussianBlur stdDeviation="5" result="f"/><feFlood flood-color="#163e59" flood-opacity="0.149"/><feComposite operator="in" in2="f"/><feComposite in="SourceGraphic"/></filter><filter id="h" x="-16.012" y="296.153" width="56.012" height="68.025" filterUnits="userSpaceOnUse"><feOffset dy="5" input="SourceAlpha"/><feGaussianBlur stdDeviation="5" result="i"/><feFlood flood-color="#4d8400" flood-opacity="0.302"/><feComposite operator="in" in2="i"/><feComposite in="SourceGraphic"/></filter><clipPath id="j"><rect width="23" height="40" transform="translate(200 784)" fill="#fff"/></clipPath><filter id="k" x="-15.024" y="94" width="54.024" height="67.001" filterUnits="userSpaceOnUse"><feOffset dy="5" input="SourceAlpha"/><feGaussianBlur stdDeviation="5" result="l"/><feFlood flood-color="#163e59" flood-opacity="0.149"/><feComposite operator="in" in2="l"/><feComposite in="SourceGraphic"/></filter><clipPath id="n"><rect width="23" height="40" transform="translate(198.5 784)" fill="#fff"/></clipPath><filter id="o" x="-15.024" y="-6" width="54.024" height="67.001" filterUnits="userSpaceOnUse"><feOffset dy="5" input="SourceAlpha"/><feGaussianBlur stdDeviation="5" result="p"/><feFlood flood-color="#163e59" flood-opacity="0.149"/><feComposite operator="in" in2="p"/><feComposite in="SourceGraphic"/></filter><filter id="r" x="-15.001" y="245" width="54.001" height="67.001" filterUnits="userSpaceOnUse"><feOffset dy="5" input="SourceAlpha"/><feGaussianBlur stdDeviation="5" result="s"/><feFlood flood-color="#163e59" flood-opacity="0.149"/><feComposite operator="in" in2="s"/><feComposite in="SourceGraphic"/></filter><filter id="u" x="-15.024" y="144" width="54.024" height="67.001" filterUnits="userSpaceOnUse"><feOffset dy="5" input="SourceAlpha"/><feGaussianBlur stdDeviation="5" result="v"/><feFlood flood-color="#163e59" flood-opacity="0.149"/><feComposite operator="in" in2="v"/><feComposite in="SourceGraphic"/></filter></defs><g transform="translate(489 -318)"><g transform="translate(-489 670)"><g transform="translate(-159 -774)" clip-path="url(#a)"><g transform="translate(159 779.153)"><g transform="matrix(1, 0, 0, 1, 0, -357.15)" filter="url(#b)"><g transform="translate(-355.56 -432.85)" fill="#fff"><path d="M379.56,790h-3a6.289,6.289,0,0,0-6.592,4.863c-1.292,4.928-5.411,22.21-6.109,24.855-.812,2.991-2.459,4.462-8.3,4.462,0,.391,0,1.844,0,1.844l24-.023Z" stroke="none"/><path d="M 376.487548828125 789.999755859375 C 373.4584045410156 789.999755859375 371.01416015625 791.3757934570313 369.967529296875 794.8627319335938 C 368.67529296875 799.7909545898438 364.556884765625 817.0730590820313 363.8583984375 819.7180786132813 C 363.0458984375 822.708740234375 361.3989562988281 824.1797485351563 355.559814453125 824.1797485351563 C 355.564453125 824.5706176757813 355.559814453125 826.0234985351563 355.559814453125 826.0234985351563 L 379.559814453125 826 L 379.559814453125 790 C 379.559814453125 790 376.97705078125 790 376.559814453125 790 C 376.5357055664063 789.9998168945313 376.5115966796875 789.999755859375 376.487548828125 789.999755859375 M 376.4875183105469 788.999755859375 L 376.487548828125 788.999755859375 C 376.5129089355469 788.999755859375 376.538330078125 788.9998168945313 376.5637512207031 789 L 379.559814453125 789 L 380.559814453125 789 L 380.559814453125 790 L 380.559814453125 826 L 380.559814453125 826.9990234375 L 379.560791015625 827 L 355.560791015625 827.0234985351563 L 354.5566101074219 827.0244750976563 L 354.559814453125 826.0203247070313 C 354.5598754882813 826.005859375 354.5643920898438 824.5704956054688 354.5598754882813 824.191650390625 L 354.5478820800781 823.1797485351563 L 355.559814453125 823.1797485351563 C 361.4249877929688 823.1797485351563 362.3000183105469 821.6381225585938 362.8923645019531 819.4595947265625 C 363.1938171386719 818.3175659179688 364.1317443847656 814.4512329101563 365.2176513671875 809.9750366210938 C 366.6466979980469 804.0842895507813 368.2664489746094 797.4075927734375 369.0002136230469 794.6090698242188 L 369.0046997070313 794.5921020507813 L 369.0097351074219 794.5752563476563 C 369.5766296386719 792.6865234375 370.5534057617188 791.2491455078125 371.9129028320313 790.302978515625 C 373.1553344726563 789.438232421875 374.6944885253906 788.999755859375 376.4875183105469 788.999755859375 Z" stroke="none" fill="rgba(22,62,89,0.05)"/></g></g><rect width="150" height="36" transform="translate(23 0)" fill="#fff"/></g><g transform="translate(159 778)"><path d="M345,788h-2c-4.416,0-7.459,1.269-8.792,6.29-.928,3.591-4.813,20.221-5.818,23.868-.678,2.247-1.464,3.841-5.39,3.841h-2v2h2c5.213,0,6.494-1.834,7.719-5.939,1.128-3.781,5.29-22.211,5.8-23.77.959-3.375,2.941-4.291,6.481-4.291h2" transform="translate(-321 -788)" fill="#0087e0" stroke="rgba(0,0,0,0)" stroke-width="1"/></g></g></g><g transform="translate(-489 519)"><g transform="translate(-200 -784)" clip-path="url(#d)"><g transform="translate(200 789)"><g transform="matrix(1, 0, 0, 1, 0, -206)" filter="url(#e)"><path d="M379.56,790h-3a6.289,6.289,0,0,0-6.592,4.863c-1.292,4.928-5.411,22.21-6.109,24.855a7.321,7.321,0,0,1-7.3,5.282c1.313-.031,23,0,23,0Z" transform="translate(-356.56 -584)" fill="#fff" stroke="#0087e0" stroke-width="2"/></g><path d="M379.56,790h-3a6.289,6.289,0,0,0-6.592,4.863c-1.292,4.928-4.411,21.21-5.109,23.855a7.321,7.321,0,0,1-7.3,5.282c1.313-.031,22,0,22,0Z" transform="translate(-355.56 -789)" fill="#fff"/></g></g></g><g transform="translate(-489 620)"><g transform="translate(-159 -774)" clip-path="url(#a)"><g transform="translate(159 779.153)"><g transform="matrix(1, 0, 0, 1, 0, -307.15)" filter="url(#h)"><g transform="translate(-355.56 -482.85)" fill="#fff"><path d="M379.56,790h-3a6.289,6.289,0,0,0-6.592,4.863c-1.292,4.928-5.411,22.21-6.109,24.855-.812,2.991-2.459,4.462-8.3,4.462,0,.391,0,1.844,0,1.844l24-.023Z" stroke="none"/><path d="M 376.487548828125 789.999755859375 C 373.4584045410156 789.999755859375 371.01416015625 791.3757934570313 369.967529296875 794.8627319335938 C 368.67529296875 799.7909545898438 364.556884765625 817.0730590820313 363.8583984375 819.7180786132813 C 363.0458984375 822.708740234375 361.3989562988281 824.1797485351563 355.559814453125 824.1797485351563 C 355.564453125 824.5706176757813 355.559814453125 826.0234985351563 355.559814453125 826.0234985351563 L 379.559814453125 826 L 379.559814453125 790 C 379.559814453125 790 376.97705078125 790 376.559814453125 790 C 376.5357055664063 789.9998168945313 376.5115966796875 789.999755859375 376.487548828125 789.999755859375 M 376.4875183105469 788.999755859375 L 376.487548828125 788.999755859375 C 376.5129089355469 788.999755859375 376.538330078125 788.9998168945313 376.5637512207031 789 L 379.559814453125 789 L 380.559814453125 789 L 380.559814453125 790 L 380.559814453125 826 L 380.559814453125 826.9990234375 L 379.560791015625 827 L 355.560791015625 827.0234985351563 L 354.5566101074219 827.0244750976563 L 354.559814453125 826.0203247070313 C 354.5598754882813 826.005859375 354.5643920898438 824.5704956054688 354.5598754882813 824.191650390625 L 354.5478820800781 823.1797485351563 L 355.559814453125 823.1797485351563 C 361.4249877929688 823.1797485351563 362.3000183105469 821.6381225585938 362.8923645019531 819.4595947265625 C 363.1938171386719 818.3175659179688 364.1317443847656 814.4512329101563 365.2176513671875 809.9750366210938 C 366.6466979980469 804.0842895507813 368.2664489746094 797.4075927734375 369.0002136230469 794.6090698242188 L 369.0046997070313 794.5921020507813 L 369.0097351074219 794.5752563476563 C 369.5766296386719 792.6865234375 370.5534057617188 791.2491455078125 371.9129028320313 790.302978515625 C 373.1553344726563 789.438232421875 374.6944885253906 788.999755859375 376.4875183105469 788.999755859375 Z" stroke="none" fill="rgba(22,62,89,0.05)"/></g></g></g><g transform="translate(159 778)"><path d="M345,788h-2c-4.416,0-7.459,1.269-8.792,6.29-.928,3.591-4.813,20.221-5.818,23.868-.678,2.247-1.464,3.841-5.39,3.841h-2v2h2c5.213,0,6.494-1.834,7.719-5.939,1.128-3.781,5.29-22.211,5.8-23.77.959-3.375,2.941-4.291,6.481-4.291h2" transform="translate(-321 -788)" fill="#68a611" stroke="rgba(0,0,0,0)" stroke-width="1"/></g></g></g><g transform="translate(-489 418)"><g transform="translate(-200 -784)" clip-path="url(#j)"><g transform="translate(200 789)"><g transform="matrix(1, 0, 0, 1, 0, -105)" filter="url(#k)"><g transform="translate(-356.56 -685)" fill="#dceefa"><path d="M379.56,790h-3a6.289,6.289,0,0,0-6.592,4.863c-1.292,4.928-5.411,22.21-6.109,24.855a7.321,7.321,0,0,1-7.3,5.282c1.313-.031,23,0,23,0Z" stroke="none"/><path d="M 376.4875793457031 789.999755859375 C 373.4584350585938 789.999755859375 371.01416015625 791.3757934570313 369.967529296875 794.8627319335938 C 368.67529296875 799.7909545898438 364.556884765625 817.0730590820313 363.8583984375 819.7180786132813 C 363.0639038085938 822.6424560546875 360.3961181640625 824.8978881835938 356.8052673339844 824.9963989257813 C 357.6419982910156 824.9887084960938 360.0995788574219 824.9860229492188 363.1061706542969 824.9860229492188 C 369.9210205078125 824.9860229492188 379.559814453125 824.999755859375 379.559814453125 824.999755859375 L 379.559814453125 790 C 379.559814453125 790 376.97705078125 790 376.559814453125 790 C 376.5357055664063 789.9998168945313 376.5116271972656 789.999755859375 376.4875793457031 789.999755859375 M 356.8052673339844 824.9963989257813 C 356.6937866210938 824.9974365234375 356.6112365722656 824.99853515625 356.559814453125 824.999755859375 C 356.6421203613281 824.999755859375 356.7239074707031 824.9986572265625 356.8052673339844 824.9963989257813 M 376.4875793457031 788.999755859375 C 376.512939453125 788.999755859375 376.538330078125 788.9998168945313 376.5637512207031 789 L 379.559814453125 789 L 380.559814453125 789 L 380.559814453125 790 L 380.559814453125 824.999755859375 L 380.559814453125 826.0011596679688 L 379.5583801269531 825.999755859375 C 379.4620056152344 825.9996337890625 369.8423461914063 825.9860229492188 363.1061706542969 825.9860229492188 C 359.6896667480469 825.9860229492188 357.575927734375 825.9894409179688 356.8231201171875 825.9962768554688 C 356.7361145019531 825.9985961914063 356.6475830078125 825.999755859375 356.559814453125 825.999755859375 L 356.5362854003906 824.0000610351563 C 356.5892944335938 823.998779296875 356.673583984375 823.99755859375 356.7869567871094 823.9965209960938 C 359.7692565917969 823.9111328125 362.1649169921875 822.1311645507813 362.8924255371094 819.4593505859375 C 363.1939392089844 818.3170776367188 364.1318054199219 814.4509887695313 365.2176513671875 809.9750366210938 C 366.6466979980469 804.0842895507813 368.2664489746094 797.4075317382813 369.0002136230469 794.6090698242188 L 369.0046997070313 794.5921020507813 L 369.0097351074219 794.5752563476563 C 369.5766906738281 792.6864624023438 370.5534362792969 791.2490234375 371.912841796875 790.3028564453125 C 373.1552429199219 789.4381713867188 374.6943969726563 788.999755859375 376.4875793457031 788.999755859375 Z" stroke="none" fill="rgba(22,62,89,0.15)"/></g></g></g></g></g><g transform="translate(-489 368)"><g transform="translate(-200 -784)" clip-path="url(#j)"><g transform="translate(200 789)"><g transform="translate(-356.56 -790)" fill="#f7f9fa"><path d="M379.56,790h-3a6.289,6.289,0,0,0-6.592,4.863c-1.292,4.928-5.411,22.21-6.109,24.855a7.321,7.321,0,0,1-7.3,5.282c1.313-.031,23,0,23,0Z" stroke="none"/><path d="M 376.4875793457031 789.999755859375 C 373.4584350585938 789.999755859375 371.01416015625 791.3757934570313 369.967529296875 794.8627319335938 C 368.67529296875 799.7909545898438 364.556884765625 817.0730590820313 363.8583984375 819.7180786132813 C 363.0639038085938 822.6424560546875 360.3961181640625 824.8978881835938 356.8052673339844 824.9963989257813 C 357.6419982910156 824.9887084960938 360.0995788574219 824.9860229492188 363.1061706542969 824.9860229492188 C 369.9210205078125 824.9860229492188 379.559814453125 824.999755859375 379.559814453125 824.999755859375 L 379.559814453125 790 C 379.559814453125 790 376.97705078125 790 376.559814453125 790 C 376.5357055664063 789.9998168945313 376.5116271972656 789.999755859375 376.4875793457031 789.999755859375 M 356.8052673339844 824.9963989257813 C 356.6937866210938 824.9974365234375 356.6112365722656 824.99853515625 356.559814453125 824.999755859375 C 356.6421203613281 824.999755859375 356.7239074707031 824.9986572265625 356.8052673339844 824.9963989257813 M 376.4875793457031 788.999755859375 C 376.512939453125 788.999755859375 376.538330078125 788.9998168945313 376.5637512207031 789 L 379.559814453125 789 L 380.559814453125 789 L 380.559814453125 790 L 380.559814453125 824.999755859375 L 380.559814453125 826.0011596679688 L 379.5583801269531 825.999755859375 C 379.4620056152344 825.9996337890625 369.8423461914063 825.9860229492188 363.1061706542969 825.9860229492188 C 359.6896667480469 825.9860229492188 357.575927734375 825.9894409179688 356.8231201171875 825.9962768554688 C 356.7361145019531 825.9985961914063 356.6475830078125 825.999755859375 356.559814453125 825.999755859375 L 356.5362854003906 824.0000610351563 C 356.5892944335938 823.998779296875 356.673583984375 823.99755859375 356.7869567871094 823.9965209960938 C 359.7692565917969 823.9111328125 362.1649169921875 822.1311645507813 362.8924255371094 819.4593505859375 C 363.1939392089844 818.3170776367188 364.1318054199219 814.4509887695313 365.2176513671875 809.9750366210938 C 366.6466979980469 804.0842895507813 368.2664489746094 797.4075317382813 369.0002136230469 794.6090698242188 L 369.0046997070313 794.5921020507813 L 369.0097351074219 794.5752563476563 C 369.5766906738281 792.6864624023438 370.5534362792969 791.2490234375 371.912841796875 790.3028564453125 C 373.1552429199219 789.4381713867188 374.6943969726563 788.999755859375 376.4875793457031 788.999755859375 Z" stroke="none" fill="rgba(22,62,89,0.05)"/></g></g></g></g><g transform="translate(-489 318)"><g transform="translate(-198.5 -784)" clip-path="url(#n)"><g transform="translate(198.5 789)"><g transform="matrix(1, 0, 0, 1, 0, -5)" filter="url(#o)"><g transform="translate(-356.56 -785)" fill="#fff"><path d="M379.56,790h-3a6.289,6.289,0,0,0-6.592,4.863c-1.292,4.928-5.411,22.21-6.109,24.855a7.321,7.321,0,0,1-7.3,5.282c1.313-.031,23,0,23,0Z" stroke="none"/><path d="M 376.4875793457031 789.999755859375 C 373.4584350585938 789.999755859375 371.01416015625 791.3757934570313 369.967529296875 794.8627319335938 C 368.67529296875 799.7909545898438 364.556884765625 817.0730590820313 363.8583984375 819.7180786132813 C 363.0639038085938 822.6424560546875 360.3961181640625 824.8978881835938 356.8052673339844 824.9963989257813 C 357.6419982910156 824.9887084960938 360.0995788574219 824.9860229492188 363.1061706542969 824.9860229492188 C 369.9210205078125 824.9860229492188 379.559814453125 824.999755859375 379.559814453125 824.999755859375 L 379.559814453125 790 C 379.559814453125 790 376.97705078125 790 376.559814453125 790 C 376.5357055664063 789.9998168945313 376.5116271972656 789.999755859375 376.4875793457031 789.999755859375 M 356.8052673339844 824.9963989257813 C 356.6937866210938 824.9974365234375 356.6112365722656 824.99853515625 356.559814453125 824.999755859375 C 356.6421203613281 824.999755859375 356.7239074707031 824.9986572265625 356.8052673339844 824.9963989257813 M 376.4875793457031 788.999755859375 C 376.512939453125 788.999755859375 376.538330078125 788.9998168945313 376.5637512207031 789 L 379.559814453125 789 L 380.559814453125 789 L 380.559814453125 790 L 380.559814453125 824.999755859375 L 380.559814453125 826.0011596679688 L 379.5583801269531 825.999755859375 C 379.4620056152344 825.9996337890625 369.8423461914063 825.9860229492188 363.1061706542969 825.9860229492188 C 359.6896667480469 825.9860229492188 357.575927734375 825.9894409179688 356.8231201171875 825.9962768554688 C 356.7361145019531 825.9985961914063 356.6475830078125 825.999755859375 356.559814453125 825.999755859375 L 356.5362854003906 824.0000610351563 C 356.5892944335938 823.998779296875 356.673583984375 823.99755859375 356.7869567871094 823.9965209960938 C 359.7692565917969 823.9111328125 362.1649169921875 822.1311645507813 362.8924255371094 819.4593505859375 C 363.1939392089844 818.3170776367188 364.1318054199219 814.4509887695313 365.2176513671875 809.9750366210938 C 366.6466979980469 804.0842895507813 368.2664489746094 797.4075317382813 369.0002136230469 794.6090698242188 L 369.0046997070313 794.5921020507813 L 369.0097351074219 794.5752563476563 C 369.5766906738281 792.6864624023438 370.5534362792969 791.2490234375 371.912841796875 790.3028564453125 C 373.1552429199219 789.4381713867188 374.6943969726563 788.999755859375 376.4875793457031 788.999755859375 Z" stroke="none" fill="rgba(22,62,89,0.05)"/></g></g></g></g></g><g transform="translate(-489 569)"><g transform="translate(-200 -784)" clip-path="url(#d)"><g transform="translate(200 789)"><g transform="matrix(1, 0, 0, 1, 0, -256)" filter="url(#r)"><path d="M379.56,790h-3a6.289,6.289,0,0,0-6.592,4.863c-1.292,4.928-5.411,22.21-6.109,24.855a7.321,7.321,0,0,1-7.3,5.282c1.313-.031,23,0,23,0Z" transform="translate(-356.56 -534)" fill="#dceefa" stroke="#0087e0" stroke-width="2"/></g><path d="M379.56,790h-3a6.289,6.289,0,0,0-6.592,4.863c-1.292,4.928-4.411,21.21-5.109,23.855a7.321,7.321,0,0,1-7.3,5.282c1.313-.031,22,0,22,0Z" transform="translate(-355.56 -789)" fill="#dceefa"/></g></g></g><g transform="translate(-489 468)"><g transform="translate(-200 -784)" clip-path="url(#j)"><g transform="translate(200 789)"><g transform="matrix(1, 0, 0, 1, 0, -155)" filter="url(#u)"><g transform="translate(-356.56 -635)" fill="#d9dcde"><path d="M379.56,790h-3a6.289,6.289,0,0,0-6.592,4.863c-1.292,4.928-5.411,22.21-6.109,24.855a7.321,7.321,0,0,1-7.3,5.282c1.313-.031,23,0,23,0Z" stroke="none"/><path d="M 376.4875793457031 789.999755859375 C 373.4584350585938 789.999755859375 371.01416015625 791.3757934570313 369.967529296875 794.8627319335938 C 368.67529296875 799.7909545898438 364.556884765625 817.0730590820313 363.8583984375 819.7180786132813 C 363.0639038085938 822.6424560546875 360.3961181640625 824.8978881835938 356.8052673339844 824.9963989257813 C 357.6419982910156 824.9887084960938 360.0995788574219 824.9860229492188 363.1061706542969 824.9860229492188 C 369.9210205078125 824.9860229492188 379.559814453125 824.999755859375 379.559814453125 824.999755859375 L 379.559814453125 790 C 379.559814453125 790 376.97705078125 790 376.559814453125 790 C 376.5357055664063 789.9998168945313 376.5116271972656 789.999755859375 376.4875793457031 789.999755859375 M 356.8052673339844 824.9963989257813 C 356.6937866210938 824.9974365234375 356.6112365722656 824.99853515625 356.559814453125 824.999755859375 C 356.6421203613281 824.999755859375 356.7239074707031 824.9986572265625 356.8052673339844 824.9963989257813 M 376.4875793457031 788.999755859375 C 376.512939453125 788.999755859375 376.538330078125 788.9998168945313 376.5637512207031 789 L 379.559814453125 789 L 380.559814453125 789 L 380.559814453125 790 L 380.559814453125 824.999755859375 L 380.559814453125 826.0011596679688 L 379.5583801269531 825.999755859375 C 379.4620056152344 825.9996337890625 369.8423461914063 825.9860229492188 363.1061706542969 825.9860229492188 C 359.6896667480469 825.9860229492188 357.575927734375 825.9894409179688 356.8231201171875 825.9962768554688 C 356.7361145019531 825.9985961914063 356.6475830078125 825.999755859375 356.559814453125 825.999755859375 L 356.5362854003906 824.0000610351563 C 356.5892944335938 823.998779296875 356.673583984375 823.99755859375 356.7869567871094 823.9965209960938 C 359.7692565917969 823.9111328125 362.1649169921875 822.1311645507813 362.8924255371094 819.4593505859375 C 363.1939392089844 818.3170776367188 364.1318054199219 814.4509887695313 365.2176513671875 809.9750366210938 C 366.6466979980469 804.0842895507813 368.2664489746094 797.4075317382813 369.0002136230469 794.6090698242188 L 369.0046997070313 794.5921020507813 L 369.0097351074219 794.5752563476563 C 369.5766906738281 792.6864624023438 370.5534362792969 791.2490234375 371.912841796875 790.3028564453125 C 373.1552429199219 789.4381713867188 374.6943969726563 788.999755859375 376.4875793457031 788.999755859375 Z" stroke="none" fill="rgba(22,62,89,0.25)"/></g></g></g></g></g></g></svg>