<svg version="1.0" xmlns="http://www.w3.org/2000/svg" width="48px" height="48px" viewBox="0 0 48 48"><g><g><path fill="#CFE5AE" opacity="0.75" d="M24,0C10.7,0,0,10.7,0,24s10.7,24,24,24s24-10.7,24-24S37.3,0,24,0z M24,40c-8.8,0-16-7.2-16-16 S15.2,8,24,8s16,7.2,16,16S32.8,40,24,40z"/></g><path id="p" fill="#68A611" d="M43.1,33.9c-0.4,0-0.8-0.1-1.2-0.2c-2.1-0.7-3.3-2.9-2.6-5c0.5-1.5,0.7-3.1,0.7-4.8 c0-8.8-7.2-16-16-16c-0.9,0-1.8,0.1-2.6,0.2c-2.2,0.4-4.2-1.1-4.6-3.3c-0.4-2.2,1.1-4.2,3.3-4.6C21.4,0.1,22.7,0,24,0 c13.2,0,24,10.8,24,24c0,2.4-0.4,4.8-1.1,7.1C46.4,32.8,44.8,33.9,43.1,33.9z"><animateTransform attributeName="transform" type="rotate" repeatCount="indefinite" dur="1s" keyTimes="0;1" values="0 24 24;360 24 24"></animateTransform></path></g></svg>