<svg id="Layer_1" data-name="Layer 1" xmlns="http://www.w3.org/2000/svg" width="100" height="16" viewBox="0 0 100 16"><defs><style>.cls-1{fill:#0089d9;}.cls-1,.cls-3,.cls-4,.cls-5,.cls-6{fill-rule:evenodd;}.cls-2,.cls-3{fill:#fff;}.cls-4{fill:#ff8b00;}.cls-5{fill:#d6565a;}.cls-6{fill:#68a611;}</style></defs><title>16_informative_icons</title><g id="Help"><path class="cls-1" d="M92,0a8,8,0,1,1-8,8A8,8,0,0,1,92,0Z"/><path class="cls-2" d="M92.8,10a2,2,0,0,1,.6-1.5,2.4,2.4,0,0,0,1-3.2A2.4,2.4,0,0,0,92,4a2.6,2.6,0,0,0-2.5,1.9c-.1.9,1.2,1,1.2,1A1.5,1.5,0,0,1,92,5.5c.7,0,1.1.3,1.1.9s-.4.8-.8,1.1A3.1,3.1,0,0,0,91,10Zm.2.8H91V12h2Z"/></g><g id="Information"><path class="cls-1" d="M71,0a8,8,0,1,1-8,8A8,8,0,0,1,71,0Z"/><path class="cls-3" d="M69.2,8v.2l1.2-.4c.1,0,.1.1.1.2l-.9,2.9c-.1.4.5,1.1,1.1,1.1a1.9,1.9,0,0,0,1.8-1.1v-.5c0-.1-.7.7-1,.7s-.4-.1-.4-.3l.8-3c.1-.5,0-1-.5-1.1A2.9,2.9,0,0,0,69.2,8Zm2.2-2a1.1,1.1,0,0,0,1.1-1,1.1,1.1,0,0,0-2.2,0,1.1,1.1,0,0,0,1.2,1h-.1Z"/></g><g id="Warning"><path class="cls-4" d="M57.7,12.6,51.3.8A1.4,1.4,0,0,0,49.5,0c-.4.2-.7.4-.8.8L42.3,12.6a1.5,1.5,0,0,0,.3,2.1,1.1,1.1,0,0,0,1.1.3H56.3A1.6,1.6,0,0,0,58,13.7,1.4,1.4,0,0,0,57.7,12.6Z"/><path class="cls-2" d="M50,4c-1,0-1,.6-1,1l.2,3.5c0,.4.2,1.5.8,1.5s.8-1.1.8-1.4L51,5C51,4.6,51,4,50,4Zm-1,7h2v2H49Z"/></g><g id="Error"><path class="cls-5" d="M29,0a8,8,0,1,1-8,8A8,8,0,0,1,29,0Z"/><path class="cls-2" d="M29,4c-1,0-1,.6-1,1l.2,2.5c0,.4.2,1.5.8,1.5s.8-1.1.8-1.4L30,5C30,4.6,30,4,29,4Zm-1,6h2v2H28Z"/></g><g id="Success"><path class="cls-6" d="M8,0A8,8,0,1,1,0,8,8,8,0,0,1,8,0Z"/><path class="cls-3" d="M5.1,7.9l-.6.6L7,11.2l4.9-5.7-.4-.4A33.9,33.9,0,0,0,7,9.1,7.6,7.6,0,0,0,5.1,7.9Z"/></g></svg>