<svg id="Layer_1" data-name="Layer 1" xmlns="http://www.w3.org/2000/svg" width="140" height="24" viewBox="0 0 140 24"><defs><style>.cls-1{fill:#0089d9;}.cls-1,.cls-3,.cls-5,.cls-6{fill-rule:evenodd;}.cls-2,.cls-3{fill:#fff;}.cls-4{fill:#ff8b00;}.cls-5{fill:#d6565a;}.cls-6{fill:#68a611;}</style></defs><title>24_informative_icons_2</title><g id="Help"><path class="cls-1" d="M128,0a12,12,0,1,1-12,12A12,12,0,0,1,128,0Z"/><path class="cls-2" d="M128.6,15a3.1,3.1,0,0,1,1.4-2.3,3.7,3.7,0,0,0,.8-5.2A3.5,3.5,0,0,0,128,6a4,4,0,0,0-3.7,2.8c-.5,1.7,1.3,1,1.3,1A2.5,2.5,0,0,1,128,8.2a1.8,1.8,0,0,1,1.8,1.6h0a2,2,0,0,1-.7,1.6,4.4,4.4,0,0,0-1.8,3.5Zm.4,1h-2v2h2Z"/></g><g id="Information"><path class="cls-1" d="M99,0A12,12,0,1,1,87,12,12,12,0,0,1,99,0Z"/><path class="cls-3" d="M96,12.1v.3a6.4,6.4,0,0,1,1.8-.6.4.4,0,0,1,.1.3l-1.4,4.4c-.2.6.7,1.6,1.7,1.6a3,3,0,0,0,2.7-1.6v-.8c0-.2-1.1,1.1-1.5,1.1s-.6-.2-.5-.5l1.2-4.4c.1-.7,0-1.5-.7-1.6A4.2,4.2,0,0,0,96,12.1ZM99.4,9a1.5,1.5,0,0,0,1.5-1.5A1.5,1.5,0,1,0,99.4,9Z"/></g><g id="Warning"><path class="cls-4" d="M81.5,19.9c-.6-1.1-9-16.8-10-18.9A1.7,1.7,0,0,0,69.3.1a2,2,0,0,0-.9.9c-1,2-9.4,17.8-10,18.9S58.1,23,60,23H80C81.9,23,82.5,21.7,81.5,19.9Z"/><path class="cls-3" d="M70,19a1.5,1.5,0,1,0-1.5-1.5A1.5,1.5,0,0,0,70,19ZM70,7c-.6,0-1.3.5-1.3,1l.4,6.2a.9.9,0,0,0,.8.8H70a.9.9,0,0,0,.8-.8h0L71.3,8C71.3,7.4,70.5,7,70,7Z"/></g><g id="Error"><path class="cls-5" d="M41,0A12,12,0,1,1,29,12,12,12,0,0,1,41,0Z"/><path class="cls-3" d="M41,18a1.5,1.5,0,1,0-1.5-1.5A1.5,1.5,0,0,0,41,18ZM41,6c-.6,0-1.3.5-1.3,1l.4,6.2a.9.9,0,0,0,.8.8H41a.9.9,0,0,0,.8-.8h0L42.3,7C42.3,6.4,41.6,6,41,6Z"/></g><g id="Success"><path class="cls-6" d="M12,0A12,12,0,1,1,0,12,12,12,0,0,1,12,0Z"/><path class="cls-3" d="M7.7,11.9l-.9.9s1.8,2,3.3,4c4.1-5,7.7-8.6,7.7-8.6l-.5-.6a40.9,40.9,0,0,0-7.1,6.7A18.8,18.8,0,0,0,7.7,11.9Z"/></g></svg>