<svg id="Layer_1" data-name="Layer 1" xmlns="http://www.w3.org/2000/svg" width="270" height="50" viewBox="0 0 270 50"><defs><style>.cls-1{fill:#0089d9;}.cls-2,.cls-3{fill:#fff;}.cls-3,.cls-4{fill-rule:evenodd;}.cls-4{fill:#ff8b00;}.cls-5{fill:#d6565a;}.cls-6{fill:#68a611;}</style></defs><title>50_informative_icons</title><g id="Help"><circle class="cls-1" cx="245" cy="25" r="25"/><circle class="cls-2" cx="245" cy="34" r="1.7"/><path class="cls-3" d="M248.6,25.2c-1,1.1-2.6,2.4-2.6,4.2v.7a.9.9,0,0,1-1,1,1,1,0,0,1-1-1v-.9h0a8.9,8.9,0,0,1,2.9-5,6.6,6.6,0,0,0,1.5-4c0-1.9-1.1-3.4-3.6-3.4s-3.9,2.8-3.9,2.8.3,1.6-1,1.6-1-1.6-1-1.6c0-2.5,2.1-5.3,6-5.3a5.9,5.9,0,0,1,6,5.9,7.8,7.8,0,0,1-2.3,5.1Z"/></g><g id="Info"><circle class="cls-1" cx="190" cy="25" r="25"/><path class="cls-3" d="M193,31.7a5,5,0,0,1-4,2.3c-2,0-2.2-1.6-1.9-2.9L189,25a.6.6,0,0,0-.3-.7,4.5,4.5,0,0,0-2.6.9,6.5,6.5,0,0,1,0-1.4c1.9-1.9,2.9-2.8,4-2.8s2,1.3,1.7,3.2L190,30.9c-.1.7.2.9.7.9s2.4-1.9,2.4-1.9-.1,1.5-.1,1.8Z"/><circle class="cls-2" cx="191" cy="17" r="2"/></g><g id="Warning"><path class="cls-4" d="M159.2,43.4c-1.2-2.3-20-37.8-22.1-42a2.3,2.3,0,0,0-4.2,0c-2.1,4.3-20.9,39.7-22.1,42s.3,4.6,2.3,4.6h44c1.9,0,4.1-.9,2.1-4.6Z"/><path class="cls-3" d="M135,18c.6,0,1.6.4,1.6,1L136,31a1,1,0,0,1-2,0l-.6-12C133.4,18.4,134.4,18,135,18Z"/><circle class="cls-2" cx="135" cy="37" r="2"/></g><g id="Error"><circle class="cls-5" cx="80" cy="25" r="25"/><path class="cls-3" d="M80,15c.6,0,1.6.4,1.6,1L81,28a1,1,0,0,1-2,0l-.6-12C78.4,15.5,79.4,15,80,15Z"/><circle class="cls-2" cx="80" cy="34" r="2"/></g><g id="Success"><circle class="cls-6" cx="25" cy="25" r="25"/><path class="cls-3" d="M21.2,34c-3.3-4.2-6.2-7.4-6.2-7.4l1.1-1.2a38.9,38.9,0,0,1,5.1,4.9A100.9,100.9,0,0,1,36.2,16l.8.9A198,198,0,0,0,21.2,34Z"/></g></svg>