<svg xmlns="http://www.w3.org/2000/svg" width="17" height="47.999" viewBox="0 0 17 47.999">
  <g id="Group_1" data-name="Group 1" transform="translate(-165 -354)">
    <path id="Icon" d="M-393,3238a3,3,0,0,1-3-3v-11a3,3,0,0,1,3-3,2,2,0,0,0,2,2,2,2,0,0,0,2-2h3a2,2,0,0,0,2,2,2,2,0,0,0,2-2,3,3,0,0,1,3,3v11a3,3,0,0,1-3,3Zm-2-11v8a2,2,0,0,0,2,2h11a2,2,0,0,0,2-2v-8a2,2,0,0,0-2-2h-11A2,2,0,0,0-395,3227Zm8,7a1,1,0,0,1,1-1,1,1,0,0,1,1,1,1,1,0,0,1-1,1A1,1,0,0,1-387,3234Zm-3,0a1,1,0,0,1,1-1,1,1,0,0,1,1,1,1,1,0,0,1-1,1A1,1,0,0,1-390,3234Zm-3,0a1,1,0,0,1,1-1,1,1,0,0,1,1,1,1,1,0,0,1-1,1A1,1,0,0,1-393,3234Zm9-3a1,1,0,0,1,1-1,1,1,0,0,1,1,1,1,1,0,0,1-1,1A1,1,0,0,1-384,3231Zm-3,0a1,1,0,0,1,1-1,1,1,0,0,1,1,1,1,1,0,0,1-1,1A1,1,0,0,1-387,3231Zm-3,0a1,1,0,0,1,1-1,1,1,0,0,1,1,1,1,1,0,0,1-1,1A1,1,0,0,1-390,3231Zm-3,0a1,1,0,0,1,1-1,1,1,0,0,1,1,1,1,1,0,0,1-1,1A1,1,0,0,1-393,3231Zm9-3a1,1,0,0,1,1-1,1,1,0,0,1,1,1,1,1,0,0,1-1,1A1,1,0,0,1-384,3228Zm-3,0a1,1,0,0,1,1-1,1,1,0,0,1,1,1,1,1,0,0,1-1,1A1,1,0,0,1-387,3228Zm-3,0a1,1,0,0,1,1-1,1,1,0,0,1,1,1,1,1,0,0,1-1,1A1,1,0,0,1-390,3228Zm5-7v-1a1,1,0,0,1,1-1,1,1,0,0,1,1,1v1a1,1,0,0,1-1,1A1,1,0,0,1-385,3221Zm-7,0v-1a1,1,0,0,1,1-1,1,1,0,0,1,1,1v1a1,1,0,0,1-1,1A1,1,0,0,1-392,3221Z" transform="translate(561 -2865)" fill="#0087e0"/>
    <path id="Calendar" d="M3,19a3.079,3.079,0,0,1-3-3V5A2.934,2.934,0,0,1,3,2,2,2,0,1,0,7,2h3a2,2,0,0,0,4,0,3.028,3.028,0,0,1,3,3V16a2.968,2.968,0,0,1-3,3ZM1,8v8a2.166,2.166,0,0,0,2,2H14a2.166,2.166,0,0,0,2-2V8a2.136,2.136,0,0,0-2-2H3A2.136,2.136,0,0,0,1,8Zm8,7a1,1,0,1,1,1,1A1,1,0,0,1,9,15ZM6,15a1,1,0,1,1,1,1A1,1,0,0,1,6,15ZM3,15a1,1,0,1,1,1,1A1,1,0,0,1,3,15Zm9-3a1,1,0,1,1,1,1A1,1,0,0,1,12,12ZM9,12a1,1,0,1,1,1,1A1,1,0,0,1,9,12ZM6,12a1,1,0,1,1,1,1A1,1,0,0,1,6,12ZM3,12a1,1,0,1,1,1,1A1,1,0,0,1,3,12Zm9-3a1,1,0,1,1,1,1A1,1,0,0,1,12,9ZM9,9a1,1,0,1,1,1,1A1,1,0,0,1,9,9ZM6,9a1,1,0,1,1,1,1A1,1,0,0,1,6,9Zm5-7V1a1,1,0,0,1,2,0V2a1,1,0,0,1-2,0ZM4,2V1A1,1,0,1,1,6,1V2A1,1,0,1,1,4,2Z" transform="translate(165 383)" fill="#c1c3c5"/>
  </g>
</svg>
