<svg xmlns="http://www.w3.org/2000/svg" xmlns:xlink="http://www.w3.org/1999/xlink" width="6" height="1" viewBox="0 0 6 1">
  <defs>
    <clipPath id="clip-path">
      <rect width="200" height="2" fill="none"/>
    </clipPath>
    <clipPath id="clip-Artboard_1">
      <rect width="6" height="1"/>
    </clipPath>
  </defs>
  <g id="Artboard_1" data-name="Artboard – 1" clip-path="url(#clip-Artboard_1)">
    <rect width="6" height="1" fill="#fff"/>
    <g id="Divider_-_Dotted_-_On_Dark_BG" data-name="Divider - Dotted - On Dark BG" transform="translate(0 0.03)" clip-path="url(#clip-path)">
      <g transform="translate(-1058 -5521)">
        <rect id="Dot" width="1" height="1" transform="translate(1058 5521)" fill="#6a6c6d"/>
      </g>
      <g transform="translate(-1052 -5521)">
        <rect id="Dot-2" data-name="Dot" width="1" height="1" transform="translate(1058 5521)" fill="#6a6c6d"/>
      </g>
      <g transform="translate(-1046 -5521)">
        <rect id="Dot-3" data-name="Dot" width="1" height="1" transform="translate(1058 5521)" fill="#6a6c6d"/>
      </g>
      <g transform="translate(-1040 -5521)">
        <rect id="Dot-4" data-name="Dot" width="1" height="1" transform="translate(1058 5521)" fill="#6a6c6d"/>
      </g>
      <g transform="translate(-1034 -5521)">
        <rect id="Dot-5" data-name="Dot" width="1" height="1" transform="translate(1058 5521)" fill="#6a6c6d"/>
      </g>
      <g transform="translate(-1028 -5521)">
        <rect id="Dot-6" data-name="Dot" width="1" height="1" transform="translate(1058 5521)" fill="#6a6c6d"/>
      </g>
      <g transform="translate(-1022 -5521)">
        <rect id="Dot-7" data-name="Dot" width="1" height="1" transform="translate(1058 5521)" fill="#6a6c6d"/>
      </g>
      <g transform="translate(-1016 -5521)">
        <rect id="Dot-8" data-name="Dot" width="1" height="1" transform="translate(1058 5521)" fill="#6a6c6d"/>
      </g>
      <g transform="translate(-1010 -5521)">
        <rect id="Dot-9" data-name="Dot" width="1" height="1" transform="translate(1058 5521)" fill="#6a6c6d"/>
      </g>
      <g transform="translate(-1004 -5521)">
        <rect id="Dot-10" data-name="Dot" width="1" height="1" transform="translate(1058 5521)" fill="#6a6c6d"/>
      </g>
      <g transform="translate(-998 -5521)">
        <rect id="Dot-11" data-name="Dot" width="1" height="1" transform="translate(1058 5521)" fill="#6a6c6d"/>
      </g>
      <g transform="translate(-992 -5521)">
        <rect id="Dot-12" data-name="Dot" width="1" height="1" transform="translate(1058 5521)" fill="#6a6c6d"/>
      </g>
      <g transform="translate(-986 -5521)">
        <rect id="Dot-13" data-name="Dot" width="1" height="1" transform="translate(1058 5521)" fill="#6a6c6d"/>
      </g>
      <g transform="translate(-980 -5521)">
        <rect id="Dot-14" data-name="Dot" width="1" height="1" transform="translate(1058 5521)" fill="#6a6c6d"/>
      </g>
      <g transform="translate(-974 -5521)">
        <rect id="Dot-15" data-name="Dot" width="1" height="1" transform="translate(1058 5521)" fill="#6a6c6d"/>
      </g>
      <g transform="translate(-968 -5521)">
        <rect id="Dot-16" data-name="Dot" width="1" height="1" transform="translate(1058 5521)" fill="#6a6c6d"/>
      </g>
      <g transform="translate(-962 -5521)">
        <rect id="Dot-17" data-name="Dot" width="1" height="1" transform="translate(1058 5521)" fill="#6a6c6d"/>
      </g>
      <g transform="translate(-956 -5521)">
        <rect id="Dot-18" data-name="Dot" width="1" height="1" transform="translate(1058 5521)" fill="#6a6c6d"/>
      </g>
      <g transform="translate(-950 -5521)">
        <rect id="Dot-19" data-name="Dot" width="1" height="1" transform="translate(1058 5521)" fill="#6a6c6d"/>
      </g>
      <g transform="translate(-944 -5521)">
        <rect id="Dot-20" data-name="Dot" width="1" height="1" transform="translate(1058 5521)" fill="#6a6c6d"/>
      </g>
      <g transform="translate(-938 -5521)">
        <rect id="Dot-21" data-name="Dot" width="1" height="1" transform="translate(1058 5521)" fill="#6a6c6d"/>
      </g>
      <g transform="translate(-932 -5521)">
        <rect id="Dot-22" data-name="Dot" width="1" height="1" transform="translate(1058 5521)" fill="#6a6c6d"/>
      </g>
      <g transform="translate(-926 -5521)">
        <rect id="Dot-23" data-name="Dot" width="1" height="1" transform="translate(1058 5521)" fill="#6a6c6d"/>
      </g>
      <g transform="translate(-920 -5521)">
        <rect id="Dot-24" data-name="Dot" width="1" height="1" transform="translate(1058 5521)" fill="#6a6c6d"/>
      </g>
      <g transform="translate(-914 -5521)">
        <rect id="Dot-25" data-name="Dot" width="1" height="1" transform="translate(1058 5521)" fill="#6a6c6d"/>
      </g>
      <g transform="translate(-908 -5521)">
        <rect id="Dot-26" data-name="Dot" width="1" height="1" transform="translate(1058 5521)" fill="#6a6c6d"/>
      </g>
      <g transform="translate(-902 -5521)">
        <rect id="Dot-27" data-name="Dot" width="1" height="1" transform="translate(1058 5521)" fill="#6a6c6d"/>
      </g>
      <g transform="translate(-896 -5521)">
        <rect id="Dot-28" data-name="Dot" width="1" height="1" transform="translate(1058 5521)" fill="#6a6c6d"/>
      </g>
      <g transform="translate(-890 -5521)">
        <rect id="Dot-29" data-name="Dot" width="1" height="1" transform="translate(1058 5521)" fill="#6a6c6d"/>
      </g>
      <g transform="translate(-884 -5521)">
        <rect id="Dot-30" data-name="Dot" width="1" height="1" transform="translate(1058 5521)" fill="#6a6c6d"/>
      </g>
      <g transform="translate(-878 -5521)">
        <rect id="Dot-31" data-name="Dot" width="1" height="1" transform="translate(1058 5521)" fill="#6a6c6d"/>
      </g>
      <g transform="translate(-872 -5521)">
        <rect id="Dot-32" data-name="Dot" width="1" height="1" transform="translate(1058 5521)" fill="#6a6c6d"/>
      </g>
      <g transform="translate(-866 -5521)">
        <rect id="Dot-33" data-name="Dot" width="1" height="1" transform="translate(1058 5521)" fill="#6a6c6d"/>
      </g>
      <g transform="translate(-860 -5521)">
        <rect id="Dot-34" data-name="Dot" width="1" height="1" transform="translate(1058 5521)" fill="#6a6c6d"/>
      </g>
    </g>
  </g>
</svg>
