<svg id="Layer_1" data-name="Layer 1" xmlns="http://www.w3.org/2000/svg" width="50" height="50" viewBox="0 0 50 50">
  <defs>
    <style>
      .cls-1 {
        fill: #d9dcde;
      }

      .cls-2 {
        fill: #fff;
      }
    </style>
  </defs>
  <title>50_Artboard 1</title>
  <g id="Gender-free_2" data-name="Gender-free 2">
    <circle class="cls-1" cx="25" cy="25" r="25"/>
    <path class="cls-2" d="M21.8,27.7a6.3,6.3,0,0,1-.4,3,3.7,3.7,0,0,1-.7,1.4l-1.1,1.1a10.2,10.2,0,0,1-2.8,1.3l-2.8.8a15.3,15.3,0,0,0-2.6.8,5.6,5.6,0,0,0-2.2,1.3,4.6,4.6,0,0,0-1.3,2l-.5,1.2L7.1,42h0c0,.2-.2.3-.3.2s-.2-.1-.3-.2a6.1,6.1,0,0,1,.1-3,3.9,3.9,0,0,1,.6-1.5,4.1,4.1,0,0,1,1-1.3,9.2,9.2,0,0,1,2.7-1.6l2.8-.8a21.4,21.4,0,0,0,2.7-.6,7.7,7.7,0,0,0,2.5-1,4.5,4.5,0,0,0,1.7-1.9,11,11,0,0,0,.6-2.6h0a.3.3,0,0,1,.3-.3A.5.5,0,0,1,21.8,27.7Z"/>
    <path class="cls-2" d="M28.8,27.7a11,11,0,0,0,.6,2.6,4.5,4.5,0,0,0,1.7,1.9,8.2,8.2,0,0,0,2.4,1,23,23,0,0,0,2.8.6l2.8.8a9.2,9.2,0,0,1,2.7,1.6,4.1,4.1,0,0,1,1,1.3,4.7,4.7,0,0,1,.6,1.5,7.6,7.6,0,0,1,.1,3c-.1.2-.2.3-.4.2a.2.2,0,0,1-.2-.2h0l-.3-1.4-.5-1.2a4.6,4.6,0,0,0-1.3-2,7.1,7.1,0,0,0-2.2-1.3l-2.7-.8-2.7-.8a10.2,10.2,0,0,1-2.8-1.3l-1.1-1.1a3.7,3.7,0,0,1-.7-1.4,6.1,6.1,0,0,1-.4-3,.5.5,0,0,1,.3-.3A.3.3,0,0,1,28.8,27.7Z"/>
    <path class="cls-2" d="M25,28.7a4.7,4.7,0,0,0,1.7-.3l1.5-1a10,10,0,0,0,2.3-2.7,17.1,17.1,0,0,0,2-7,13.4,13.4,0,0,0-.3-3.5,6.6,6.6,0,0,0-1.3-3.1,4.6,4.6,0,0,0-2.6-1.9,9.4,9.4,0,0,0-6.6,0,4.6,4.6,0,0,0-2.6,1.9,6.6,6.6,0,0,0-1.3,3.1,13.5,13.5,0,0,0-.2,3.5,15.6,15.6,0,0,0,1.9,7,10,10,0,0,0,2.3,2.7l1.5,1A5.1,5.1,0,0,0,25,28.7Zm0,.8a6.5,6.5,0,0,1-2-.4,9.5,9.5,0,0,1-1.7-1,12,12,0,0,1-2.6-2.9A14.9,14.9,0,0,1,17,21.6a16.1,16.1,0,0,1-.8-3.8,12.1,12.1,0,0,1-.1-1.9,12.7,12.7,0,0,1,.1-2,6.5,6.5,0,0,1,.5-2,6.6,6.6,0,0,1,.9-1.9A7.3,7.3,0,0,1,21,7.4a10.6,10.6,0,0,1,4-.8,11.5,11.5,0,0,1,4.1.8A7.5,7.5,0,0,1,32.4,10a6.6,6.6,0,0,1,.9,1.9,6.5,6.5,0,0,1,.5,2,6.6,6.6,0,0,1,.1,2,12.1,12.1,0,0,1-.1,1.9,16.1,16.1,0,0,1-.8,3.8,14.9,14.9,0,0,1-1.7,3.6,12,12,0,0,1-2.6,2.9,9.5,9.5,0,0,1-1.7,1A6.5,6.5,0,0,1,25,29.5Z"/>
  </g>
</svg>
