<svg xmlns="http://www.w3.org/2000/svg" xmlns:xlink="http://www.w3.org/1999/xlink" width="30" height="241.042" viewBox="0 0 30 241.042">
  <defs>
    <filter id="Arrows" x="8.499" y="227.05" width="14.438" height="13.992" filterUnits="userSpaceOnUse">
      <feOffset dy="1" input="SourceAlpha"/>
      <feGaussianBlur stdDeviation="0.5" result="blur"/>
      <feFlood flood-color="#163e59" flood-opacity="0.2"/>
      <feComposite operator="in" in2="blur"/>
      <feComposite in="SourceGraphic"/>
    </filter>
    <filter id="Arrows-2" x="8.499" y="210.05" width="14.438" height="13.992" filterUnits="userSpaceOnUse">
      <feOffset dy="1" input="SourceAlpha"/>
      <feGaussianBlur stdDeviation="0.5" result="blur-2"/>
      <feFlood flood-color="#163e59" flood-opacity="0.2"/>
      <feComposite operator="in" in2="blur-2"/>
      <feComposite in="SourceGraphic"/>
    </filter>
  </defs>
  <g id="vert-menu" transform="translate(-324 -295)">
    <g id="Collapse_Btn_-_Alternative_-_White" data-name="Collapse Btn - Alternative - White" transform="translate(324 435)">
      <path id="Container" d="M11.86,15.52C1.32,20.53.14,28.51,0,33H0c.12,4.48,1.3,12.46,11.84,17.47C24.15,56.33,29.34,57.9,30,66V0C29.34,8.1,24.15,9.67,11.86,15.52Z" fill="#fff"/>
      <g transform="matrix(1, 0, 0, 1, 0, -140)" filter="url(#Arrows)">
        <path id="Arrows-3" data-name="Arrows" d="M5358.6,4541.85l-5-5a.514.514,0,0,1-.149-.351.5.5,0,0,1,.149-.4l5-5a.5.5,0,0,1,.7.7l-4.64,4.65,4.629,4.69a.5.5,0,0,1,0,.71.49.49,0,0,1-.69,0Zm-6.45-1.05-4-4a.528.528,0,0,1-.041-.69l4-4a.492.492,0,0,1,.7.69l-3.641,3.649,3.671,3.65a.479.479,0,0,1,0,.7.49.49,0,0,1-.69,0Z" transform="translate(-5338 -4303.45)" fill="#252626"/>
      </g>
    </g>
    <g id="Collapse_Btn_-_Alternative_Hover_-_Blue" data-name="Collapse Btn - Alternative Hover - Blue" transform="translate(324 365)">
      <path id="Container-2" data-name="Container" d="M11.86,15.52C1.32,20.53.14,28.51,0,33H0c.12,4.48,1.3,12.46,11.84,17.47C24.15,56.33,29.34,57.9,30,66V0C29.34,8.1,24.15,9.67,11.86,15.52Z" fill="#1c98eb"/>
      <g transform="matrix(1, 0, 0, 1, 0, -70)" filter="url(#Arrows-2)">
        <path id="Arrows-4" data-name="Arrows" d="M5358.6,4541.85l-5-5a.514.514,0,0,1-.149-.351.5.5,0,0,1,.149-.4l5-5a.5.5,0,0,1,.7.7l-4.64,4.65,4.629,4.69a.5.5,0,0,1,0,.71.49.49,0,0,1-.69,0Zm-6.45-1.05-4-4a.528.528,0,0,1-.041-.69l4-4a.492.492,0,0,1,.7.69l-3.641,3.649,3.671,3.65a.479.479,0,0,1,0,.7.49.49,0,0,1-.69,0Z" transform="translate(-5338 -4320.45)" fill="#fff"/>
      </g>
    </g>
    <g id="Collapse_Btn_-_Alternative_-_Blue" data-name="Collapse Btn - Alternative - Blue" transform="translate(324 295)">
      <path id="Container-3" data-name="Container" d="M11.86,15.52C1.32,20.53.14,28.51,0,33H0c.12,4.48,1.3,12.46,11.84,17.47C24.15,56.33,29.34,57.9,30,66V0C29.34,8.1,24.15,9.67,11.86,15.52Z" fill="#0087e0"/>
    </g>
  </g>
</svg>
