<?xml version="1.0" encoding="UTF-8"?>
<svg width="82px" height="24px" viewBox="0 0 82 24" version="1.1" xmlns="http://www.w3.org/2000/svg" xmlns:xlink="http://www.w3.org/1999/xlink">
    <!-- Generator: Sketch 48.2 (47327) - http://www.bohemiancoding.com/sketch -->
    <title>24px-combo_grid-v1.0</title>
    <desc>Created with Sketch.</desc>
    <defs></defs>
    <g id="Page-1" stroke="none" stroke-width="1" fill="none" fill-rule="evenodd">
        <g id="24px-combo_grid-v1.0">
            <path d="M73.005,17.008 C71.9,17.008 71.004,16.112 71.004,15.007 C71.004,13.902 71.9,13.006 73.005,13.006 C74.11,13.006 75.006,13.902 75.006,15.007 C75.006,16.112 74.11,17.008 73.005,17.008 M77.008,14.997 C77.008,12.79 75.215,11.002 73.003,11.002 C70.791,11.002 68.998,12.79 68.998,14.997 C68.998,17.203 70.791,18.992 73.003,18.992 C73.85,18.992 74.632,18.726 75.279,18.279 L77,20 L78,20 L78,19 L76.282,17.282 C76.737,16.634 77.008,15.848 77.008,14.997 M76,5 L64,5 C62.896,5 62,5.895 62,7 L62,18 C62,19.104 62.896,20 64,20 L70.357,20 C69.622,19.487 69.02,18.801 68.608,18.001 L65,18.001 C64.448,18.001 64,17.553 64,17 L64,16 L68.023,16 C68.008,15.833 67.998,15.666 67.998,15.495 C67.998,15.328 68.008,15.163 68.023,15 L64,15 L64,13 L68.603,13 C68.786,12.643 69.003,12.306 69.256,12 L64,12 L64,10 L76,10 L76,9 L64,9 L64,8 C64,7.448 64.448,7 65,7 L75,7 C75.553,7 76,7.448 76,8 L76,10.603 C76.8,11.01 77.486,11.604 78,12.33 L78,7 C78,5.895 77.105,5 76,5" id="combo_grid-mouseover" fill="#39A6E6"></path>
            <path d="M44.005,17.008 C42.9,17.008 42.004,16.112 42.004,15.007 C42.004,13.902 42.9,13.006 44.005,13.006 C45.11,13.006 46.006,13.902 46.006,15.007 C46.006,16.112 45.11,17.008 44.005,17.008 M48.008,14.997 C48.008,12.79 46.215,11.002 44.003,11.002 C41.791,11.002 39.998,12.79 39.998,14.997 C39.998,17.203 41.791,18.992 44.003,18.992 C44.85,18.992 45.632,18.726 46.279,18.279 L48,20 L49,20 L49,19 L47.282,17.282 C47.737,16.634 48.008,15.848 48.008,14.997 M47,5 L35,5 C33.896,5 33,5.895 33,7 L33,18 C33,19.104 33.896,20 35,20 L41.357,20 C40.622,19.487 40.02,18.801 39.608,18.001 L36,18.001 C35.448,18.001 35,17.553 35,17 L35,16 L39.023,16 C39.008,15.833 38.998,15.666 38.998,15.495 C38.998,15.328 39.008,15.163 39.023,15 L35,15 L35,13 L39.603,13 C39.786,12.643 40.003,12.306 40.256,12 L35,12 L35,10 L47,10 L47,9 L35,9 L35,8 C35,7.448 35.448,7 36,7 L46,7 C46.553,7 47,7.448 47,8 L47,10.603 C47.8,11.01 48.486,11.604 49,12.33 L49,7 C49,5.895 48.105,5 47,5" id="combo_grid-disabled" fill="#D7D7D7"></path>
            <path d="M15.005,17.008 C13.9,17.008 13.004,16.112 13.004,15.007 C13.004,13.902 13.9,13.006 15.005,13.006 C16.11,13.006 17.006,13.902 17.006,15.007 C17.006,16.112 16.11,17.008 15.005,17.008 M19.008,14.997 C19.008,12.79 17.215,11.002 15.003,11.002 C12.791,11.002 10.998,12.79 10.998,14.997 C10.998,17.203 12.791,18.992 15.003,18.992 C15.85,18.992 16.632,18.726 17.279,18.279 L19,20 L20,20 L20,19 L18.282,17.282 C18.737,16.634 19.008,15.848 19.008,14.997 M18,5 L6,5 C4.896,5 4,5.895 4,7 L4,18 C4,19.104 4.896,20 6,20 L12.357,20 C11.622,19.487 11.02,18.801 10.608,18.001 L7,18.001 C6.448,18.001 6,17.553 6,17 L6,16 L10.023,16 C10.008,15.833 9.998,15.666 9.998,15.495 C9.998,15.328 10.008,15.163 10.023,15 L6,15 L6,13 L10.603,13 C10.786,12.643 11.003,12.306 11.256,12 L6,12 L6,10 L18,10 L18,9 L6,9 L6,8 C6,7.448 6.448,7 7,7 L17,7 C17.553,7 18,7.448 18,8 L18,10.603 C18.8,11.01 19.486,11.604 20,12.33 L20,7 C20,5.895 19.105,5 18,5" id="combo_grid-normal-pressed" fill="#0089D9"></path>
        </g>
    </g>
</svg>