<?xml version="1.0" encoding="UTF-8"?>
<svg width="82px" height="24px" viewBox="0 0 82 24" version="1.1" xmlns="http://www.w3.org/2000/svg" xmlns:xlink="http://www.w3.org/1999/xlink">
    <!-- Generator: Sketch 48.2 (47327) - http://www.bohemiancoding.com/sketch -->
    <title>24px-date_chooser-v1.0</title>
    <desc>Created with Sketch.</desc>
    <defs></defs>
    <g id="Page-1" stroke="none" stroke-width="1" fill="none" fill-rule="evenodd">
        <g id="24px-date_chooser-v1.0">
            <path d="M73,18.0003 L75,18.0003 L75,16.0003 L73,16.0003 L73,18.0003 Z M70,12.0003 L72,12.0003 L72,10.0003 L70,10.0003 L70,12.0003 Z M70,15.0003 L72,15.0003 L72,13.0003 L70,13.0003 L70,15.0003 Z M77,19.0003 C77,19.2763 76.902,19.5123 76.707,19.7073 C76.512,19.9023 76.276,20.0003 76,20.0003 L63,20.0003 C62.724,20.0003 62.488,19.9023 62.293,19.7073 C62.098,19.5123 62,19.2763 62,19.0003 L62,9.0003 C62,8.4473 62.448,8.0003 63,8.0003 L76,8.0003 C76.552,8.0003 77,8.4473 77,9.0003 L77,19.0003 Z M77.707,4.2933 C77.512,4.0973 77.276,4.0003 77,4.0003 L76,4.0003 L76,5.0003 C76,6.3803 75.104,7.0003 74,7.0003 C72.896,7.0003 72,6.3803 72,5.0003 L72,4.0003 L67,4.0003 L67,5.0003 C67,6.3803 66.105,7.0003 65,7.0003 C63.896,7.0003 63,6.3803 63,5.0003 L63,4.0003 L62,4.0003 C61.448,4.0003 61,4.4473 61,5.0003 L61,20.0003 C61,20.5523 61.448,21.0003 62,21.0003 L77,21.0003 C77.552,21.0003 78,20.5523 78,20.0003 L78,5.0003 C78,4.7243 77.902,4.4883 77.707,4.2933 L77.707,4.2933 Z M70,18.0003 L72,18.0003 L72,16.0003 L70,16.0003 L70,18.0003 Z M73,12.0003 L75,12.0003 L75,10.0003 L73,10.0003 L73,12.0003 Z M73,15.0003 L75,15.0003 L75,13.0003 L73,13.0003 L73,15.0003 Z M67,18.0003 L69,18.0003 L69,16.0003 L67,16.0003 L67,18.0003 Z M65,6.0003 C65.552,6.0003 66,5.8283 66,5.0003 L66,3.0003 C66,2.1713 65.552,2.0003 65,2.0003 C64.448,2.0003 64,2.1713 64,3.0003 L64,5.0003 C64,5.8283 64.448,6.0003 65,6.0003 L65,6.0003 Z M67,12.0003 L69,12.0003 L69,10.0003 L67,10.0003 L67,12.0003 Z M74,6.0003 C74.552,6.0003 75,5.8283 75,5.0003 L75,3.0003 C75,2.1713 74.552,2.0003 74,2.0003 C73.448,2.0003 73,2.1713 73,3.0003 L73,5.0003 C73,5.8283 73.448,6.0003 74,6.0003 L74,6.0003 Z M64,18.0003 L66,18.0003 L66,16.0003 L64,16.0003 L64,18.0003 Z M67,15.0003 L69,15.0003 L69,13.0003 L67,13.0003 L67,15.0003 Z M64,15.0003 L66,15.0003 L66,13.0003 L64,13.0003 L64,15.0003 Z" id="date_chooser-mouseover" fill="#39A6E6"></path>
            <path d="M44,18.0003 L46,18.0003 L46,16.0003 L44,16.0003 L44,18.0003 Z M41,12.0003 L43,12.0003 L43,10.0003 L41,10.0003 L41,12.0003 Z M41,15.0003 L43,15.0003 L43,13.0003 L41,13.0003 L41,15.0003 Z M48,19.0003 C48,19.2763 47.902,19.5123 47.707,19.7073 C47.512,19.9023 47.276,20.0003 47,20.0003 L34,20.0003 C33.724,20.0003 33.488,19.9023 33.293,19.7073 C33.098,19.5123 33,19.2763 33,19.0003 L33,9.0003 C33,8.4473 33.448,8.0003 34,8.0003 L47,8.0003 C47.552,8.0003 48,8.4473 48,9.0003 L48,19.0003 Z M48.707,4.2933 C48.512,4.0973 48.276,4.0003 48,4.0003 L47,4.0003 L47,5.0003 C47,6.3803 46.104,7.0003 45,7.0003 C43.896,7.0003 43,6.3803 43,5.0003 L43,4.0003 L38,4.0003 L38,5.0003 C38,6.3803 37.105,7.0003 36,7.0003 C34.896,7.0003 34,6.3803 34,5.0003 L34,4.0003 L33,4.0003 C32.448,4.0003 32,4.4473 32,5.0003 L32,20.0003 C32,20.5523 32.448,21.0003 33,21.0003 L48,21.0003 C48.552,21.0003 49,20.5523 49,20.0003 L49,5.0003 C49,4.7243 48.902,4.4883 48.707,4.2933 L48.707,4.2933 Z M41,18.0003 L43,18.0003 L43,16.0003 L41,16.0003 L41,18.0003 Z M44,12.0003 L46,12.0003 L46,10.0003 L44,10.0003 L44,12.0003 Z M44,15.0003 L46,15.0003 L46,13.0003 L44,13.0003 L44,15.0003 Z M38,18.0003 L40,18.0003 L40,16.0003 L38,16.0003 L38,18.0003 Z M36,6.0003 C36.552,6.0003 37,5.8283 37,5.0003 L37,3.0003 C37,2.1713 36.552,2.0003 36,2.0003 C35.448,2.0003 35,2.1713 35,3.0003 L35,5.0003 C35,5.8283 35.448,6.0003 36,6.0003 L36,6.0003 Z M38,12.0003 L40,12.0003 L40,10.0003 L38,10.0003 L38,12.0003 Z M45,6.0003 C45.552,6.0003 46,5.8283 46,5.0003 L46,3.0003 C46,2.1713 45.552,2.0003 45,2.0003 C44.448,2.0003 44,2.1713 44,3.0003 L44,5.0003 C44,5.8283 44.448,6.0003 45,6.0003 L45,6.0003 Z M35,18.0003 L37,18.0003 L37,16.0003 L35,16.0003 L35,18.0003 Z M38,15.0003 L40,15.0003 L40,13.0003 L38,13.0003 L38,15.0003 Z M35,15.0003 L37,15.0003 L37,13.0003 L35,13.0003 L35,15.0003 Z" id="date_chooser-disabled" fill="#D7D7D7"></path>
            <path d="M15,18 L17,18 L17,16 L15,16 L15,18 Z M12,12 L14,12 L14,10 L12,10 L12,12 Z M12,15 L14,15 L14,13 L12,13 L12,15 Z M19,19 C19,19.276 18.902,19.512 18.707,19.707 C18.512,19.902 18.276,20 18,20 L5,20 C4.724,20 4.488,19.902 4.293,19.707 C4.098,19.512 4,19.276 4,19 L4,9 C4,8.447 4.448,8 5,8 L18,8 C18.552,8 19,8.447 19,9 L19,19 Z M19.707,4.293 C19.512,4.097 19.276,4 19,4 L18,4 L18,5 C18,6.38 17.104,7 16,7 C14.896,7 14,6.38 14,5 L14,4 L9,4 L9,5 C9,6.38 8.105,7 7,7 C5.896,7 5,6.38 5,5 L5,4 L4,4 C3.448,4 3,4.447 3,5 L3,20 C3,20.552 3.448,21 4,21 L19,21 C19.552,21 20,20.552 20,20 L20,5 C20,4.724 19.902,4.488 19.707,4.293 L19.707,4.293 Z M12,18 L14,18 L14,16 L12,16 L12,18 Z M15,12 L17,12 L17,10 L15,10 L15,12 Z M15,15 L17,15 L17,13 L15,13 L15,15 Z M9,18 L11,18 L11,16 L9,16 L9,18 Z M7,6 C7.552,6 8,5.828 8,5 L8,3 C8,2.171 7.552,2 7,2 C6.448,2 6,2.171 6,3 L6,5 C6,5.828 6.448,6 7,6 L7,6 Z M9,12 L11,12 L11,10 L9,10 L9,12 Z M16,6 C16.552,6 17,5.828 17,5 L17,3 C17,2.171 16.552,2 16,2 C15.448,2 15,2.171 15,3 L15,5 C15,5.828 15.448,6 16,6 L16,6 Z M6,18 L8,18 L8,16 L6,16 L6,18 Z M9,15 L11,15 L11,13 L9,13 L9,15 Z M6,15 L8,15 L8,13 L6,13 L6,15 Z" id="date_chooser-normal-pressed" fill="#0089D9"></path>
        </g>
    </g>
</svg>