<?xml version="1.0" encoding="UTF-8"?>
<svg width="82px" height="24px" viewBox="0 0 82 24" version="1.1" xmlns="http://www.w3.org/2000/svg" xmlns:xlink="http://www.w3.org/1999/xlink">
    <!-- Generator: Sketch 48.2 (47327) - http://www.bohemiancoding.com/sketch -->
    <title>24px-multiselection_combo-v1.0</title>
    <desc>Created with Sketch.</desc>
    <defs></defs>
    <g id="Page-1" stroke="none" stroke-width="1" fill="none" fill-rule="evenodd">
        <g id="24px-multiselection_combo-v1.0">
            <path d="M76,14 C74.8954305,14 74,13.1045695 74,12 C74,10.8954305 74.8954305,10 76,10 C77.1045695,10 78,10.8954305 78,12 C78,13.1045695 77.1045695,14 76,14 Z M70,14 C68.8954305,14 68,13.1045695 68,12 C68,10.8954305 68.8954305,10 70,10 C71.1045695,10 72,10.8954305 72,12 C72,13.1045695 71.1045695,14 70,14 Z M64,14 C62.8954305,14 62,13.1045695 62,12 C62,10.8954305 62.8954305,10 64,10 C65.1045695,10 66,10.8954305 66,12 C66,13.1045695 65.1045695,14 64,14 Z" id="multiselection_combo-mouseover" fill="#39A6E6"></path>
            <path d="M47,14 C45.8954305,14 45,13.1045695 45,12 C45,10.8954305 45.8954305,10 47,10 C48.1045695,10 49,10.8954305 49,12 C49,13.1045695 48.1045695,14 47,14 Z M41,14 C39.8954305,14 39,13.1045695 39,12 C39,10.8954305 39.8954305,10 41,10 C42.1045695,10 43,10.8954305 43,12 C43,13.1045695 42.1045695,14 41,14 Z M35,14 C33.8954305,14 33,13.1045695 33,12 C33,10.8954305 33.8954305,10 35,10 C36.1045695,10 37,10.8954305 37,12 C37,13.1045695 36.1045695,14 35,14 Z" id="multiselection_combo-disabled" fill="#D7D7D7"></path>
            <path d="M18,14 C16.8954305,14 16,13.1045695 16,12 C16,10.8954305 16.8954305,10 18,10 C19.1045695,10 20,10.8954305 20,12 C20,13.1045695 19.1045695,14 18,14 Z M12,14 C10.8954305,14 10,13.1045695 10,12 C10,10.8954305 10.8954305,10 12,10 C13.1045695,10 14,10.8954305 14,12 C14,13.1045695 13.1045695,14 12,14 Z M6,14 C4.8954305,14 4,13.1045695 4,12 C4,10.8954305 4.8954305,10 6,10 C7.1045695,10 8,10.8954305 8,12 C8,13.1045695 7.1045695,14 6,14 Z" id="multiselection_combo-normal-pressed" fill="#0089D9"></path>
        </g>
    </g>
</svg>