<svg xmlns="http://www.w3.org/2000/svg" width="82" height="24"><g><path fill="#00AFF0" d="M23 13.7c.1-.6.1-1.1.1-1.7C23.1 5.8 18.1.9 12 .9c-.6 0-1.2 0-1.7.1C9.2.3 8 0 6.7 0 3 0 0 3 0 6.7c0 1.3.4 2.5 1 3.5-.1.6-.1 1.1-.1 1.7C.9 18.1 5.9 23 12 23c.6 0 1.2 0 1.7-.1 1 .6 2.2 1 3.5 1 3.7 0 6.7-3 6.7-6.7.1-1.2-.2-2.4-.9-3.5zm-5.7 3.4c-.5.7-1.2 1.2-2.1 1.6-.9.4-2 .6-3.2.6-1.5 0-2.7-.3-3.7-.8-.7-.4-1.2-.9-1.7-1.5-.4-.7-.6-1.3-.6-1.9 0-.4.1-.7.4-.9.3-.3.6-.4 1-.4.3 0 .6.1.8.3.2.2.4.5.6.9.2.4.4.8.7 1 .2.3.5.5.9.7.4.2.9.3 1.6.3.9 0 1.6-.2 2.2-.6.6-.4.8-.9.8-1.4 0-.4-.1-.8-.4-1.1-.3-.3-.7-.5-1.2-.6-.5-.2-1.1-.3-1.9-.5-1.1-.2-2-.5-2.7-.8-.7-.3-1.3-.7-1.7-1.3-.4-.6-.6-1.2-.6-2s.2-1.5.7-2.1c.2-.6.9-1 1.8-1.4.9-.3 1.9-.5 3-.5.9 0 1.7.1 2.4.3.7.2 1.2.5 1.7.9.4.4.8.7 1 1.1.2.4.3.8.3 1.2 0 .3-.1.7-.4.9-.3.3-.6.4-1 .4s-.6-.1-.8-.3c-.2-.2-.4-.4-.6-.8-.3-.5-.6-.9-1-1.2-.4-.3-1-.4-1.8-.4-.8.1-1.4.2-1.9.5s-.7.7-.7 1.1c0 .3.1.5.2.7.2.2.4.4.7.5.3.1.6.3.9.3.3.1.8.2 1.4.4.8.2 1.6.4 2.3.6.7.2 1.3.5 1.8.8.5.3.9.7 1.1 1.2.3.5.4 1.1.4 1.8 0 .9-.2 1.7-.7 2.4z"/><path fill="#C8C8C8" d="M52 13.7c.1-.6.1-1.1.1-1.7C52.1 5.8 47.1.9 41 .9c-.6 0-1.2 0-1.7.1-1-.6-2.2-1-3.5-1C32 0 29 3 29 6.7c0 1.3.4 2.5 1 3.5-.1.6-.1 1.1-.1 1.7 0 6.2 5 11.1 11.1 11.1.6 0 1.2 0 1.7-.1 1 .6 2.2 1 3.5 1 3.7 0 6.7-3 6.7-6.7.1-1.2-.2-2.4-.9-3.5zm-5.7 3.4c-.5.7-1.2 1.2-2.1 1.6-.9.4-2 .6-3.2.6-1.5 0-2.7-.3-3.7-.8-.7-.4-1.2-.9-1.7-1.5-.4-.6-.6-1.2-.6-1.8 0-.4.1-.7.4-.9.3-.3.6-.4 1-.4.3 0 .6.1.8.3.2.2.4.5.6.9.2.4.4.8.6 1.1.2.3.5.5.9.7.4.2.9.3 1.6.3.9 0 1.6-.2 2.2-.6.6-.4.8-.9.8-1.4 0-.4-.1-.8-.4-1.1-.3-.3-.7-.5-1.2-.6-.5-.2-1.1-.3-1.9-.5-1.1-.2-2-.5-2.7-.8-.7-.3-1.3-.7-1.7-1.3-.4-.6-.6-1.2-.6-2s.2-1.5.7-2.1c.5-.6 1.1-1.1 2-1.4.9-.3 1.9-.5 3-.5.9 0 1.7.1 2.4.3.7.2 1.2.5 1.7.9.4.4.8.7 1 1.1.2.4.3.8.3 1.2 0 .3-.1.7-.4.9-.3.3-.6.4-1 .4s-.6-.1-.8-.3c-.2-.2-.4-.4-.6-.8-.3-.5-.6-.9-1-1.2-.4-.3-1-.4-1.8-.4s-1.4.2-1.9.5-.7.7-.7 1.1c0 .3.1.5.2.7.2.2.4.4.7.5.3.1.6.3.9.3.3.1.8.2 1.4.4.8.2 1.6.4 2.3.6.7.2 1.3.5 1.8.8.5.3.9.7 1.1 1.2.3.5.4 1.1.4 1.8-.1.7-.3 1.5-.8 2.2z"/><path fill="#08BDFF" d="M81 13.7c.1-.6.1-1.1.1-1.7C81.1 5.8 76.1.9 70 .9c-.6 0-1.2 0-1.7.1-1-.6-2.2-1-3.5-1C61 0 58 3 58 6.7c0 1.3.4 2.5 1 3.5-.1.6-.1 1.1-.1 1.7 0 6.2 5 11.1 11.1 11.1.6 0 1.2 0 1.7-.1 1 .6 2.2 1 3.5 1 3.7 0 6.7-3 6.7-6.7.1-1.2-.3-2.4-.9-3.5zm-5.7 3.4c-.5.7-1.2 1.2-2.1 1.6-.9.4-2 .6-3.2.6-1.5 0-2.7-.3-3.7-.8-.7-.4-1.2-.9-1.7-1.5-.4-.6-.6-1.2-.6-1.8 0-.4.1-.7.4-.9.3-.3.6-.4 1-.4.3 0 .6.1.8.3.2.2.4.5.6.9.2.4.4.8.6 1.1.2.3.5.5.9.7.4.2.9.3 1.6.3.9 0 1.6-.2 2.2-.6.6-.4.8-.9.8-1.4 0-.4-.1-.8-.4-1.1-.3-.3-.7-.5-1.2-.6-.5-.2-1.1-.3-1.9-.5-1.1-.2-2-.5-2.7-.8-.7-.3-1.3-.7-1.7-1.3-.4-.6-.6-1.2-.6-2s.2-1.5.7-2.1c.5-.6 1.1-1.1 2-1.4.9-.3 1.9-.5 3-.5.9 0 1.7.1 2.4.3.5.1 1.1.4 1.5.7.4.4.8.7 1 1.1.2.4.3.8.3 1.2 0 .3-.1.7-.4.9-.3.3-.6.4-1 .4s-.6-.1-.8-.3c-.2-.2-.4-.4-.6-.8-.3-.5-.6-.9-1-1.2-.4-.3-1-.4-1.8-.4s-1.4.2-1.9.5-.7.7-.7 1.1c0 .3.1.5.2.7.2.2.4.4.7.5.3.1.6.3.9.3.3.1.8.2 1.4.4.8.2 1.6.4 2.3.6.7.2 1.3.5 1.8.8.5.3.9.7 1.1 1.2.3.5.4 1.1.4 1.8.1.9-.1 1.7-.6 2.4z"/></g></svg>