<svg xmlns="http://www.w3.org/2000/svg" width="82" height="24"><g><path fill="#00ACED" d="M21.3 10.8c1.4-.1 2.3-.7 2.6-1.6-.5.3-2 .6-2.8.3 0-.1-.1-.3-.1-.5-.6-2.3-2.8-4.2-5.1-4 .2-.1.4-.1.6-.2.3-.1 1.7-.3 1.5-.8-.2-.5-2 .3-2.3.5.4-.2 1.2-.5 1.3-1-.7.1-1.4.4-1.9.9.2-.2.3-.4.4-.7-1.8 1.2-2.9 3.5-3.8 5.8-.8-.7-1.4-1.2-1.9-1.5-1.6-.8-3.4-1.7-6.2-2.7-.1.9.5 2.2 2.1 3-.3 0-1 .1-1.5.2.2 1.1.9 2 2.7 2.4-.8.1-1.3.2-1.6.7.4.7 1.3 1.6 3 1.4-1.8.8-.8 2.3.7 2-2.6 2.6-6.6 2.4-8.9.2 6.1 8.2 19.2 4.9 21.2-3.1 1.5 0 2.3-.5 2.9-1.1-1 .2-2.2.1-2.9-.2z"/><path fill="#C8C8C8" d="M50.3 10.8c1.4-.1 2.3-.7 2.6-1.6-.5.3-2 .6-2.8.3-.1-.1-.1-.3-.2-.5-.6-2.3-2.8-4.2-5.1-4 .2-.1.4-.1.6-.2.3-.1 1.7-.3 1.5-.8-.2-.5-2 .3-2.3.5.4-.2 1.2-.5 1.3-1-.7.1-1.4.4-1.9.9.2-.2.3-.4.4-.7-1.8 1.2-2.9 3.5-3.8 5.8-.7-.7-1.3-1.2-1.8-1.5-1.5-.8-3.3-1.7-6.2-2.7-.1.9.5 2.2 2.1 3-.3 0-1 .1-1.5.2.2 1.1.9 2 2.7 2.4-.8.1-1.3.2-1.6.7.4.7 1.3 1.6 3 1.4-1.8.8-.8 2.3.7 2-2.6 2.6-6.6 2.4-8.9.2 6.1 8.2 19.2 4.9 21.2-3.1 1.5 0 2.3-.5 2.9-1.1-1 .2-2.3.1-2.9-.2z"/><path fill="#0bf" d="M79.3 10.8c1.4-.1 2.3-.7 2.6-1.6-.5.3-2 .6-2.8.3-.1-.1-.1-.3-.2-.5-.6-2.3-2.8-4.2-5.1-4 .2-.1.4-.1.6-.2.3-.1 1.7-.3 1.5-.8-.2-.5-2 .3-2.3.5.4-.2 1.2-.5 1.3-1-.7.1-1.4.4-1.9.9.2-.2.3-.4.4-.7-1.8 1.2-2.9 3.5-3.8 5.8-.7-.7-1.3-1.2-1.8-1.5-1.5-.8-3.3-1.7-6.2-2.7-.1.9.5 2.2 2.1 3-.3 0-1 .1-1.5.2.2 1.1.9 2 2.7 2.4-.8.1-1.3.2-1.6.7.4.7 1.3 1.6 3 1.4-1.8.8-.8 2.3.7 2-2.6 2.6-6.6 2.4-8.9.2 6.1 8.2 19.2 4.9 21.2-3.1 1.5 0 2.3-.5 2.9-1.1-1 .2-2.3.1-2.9-.2z"/></g></svg>