<svg xmlns="http://www.w3.org/2000/svg" width="82" height="24"><g><path fill="#35465C" d="M13.7 19.6c-.4-.2-.8-.6-.9-1-.1-.4-.1-1.2-.1-2.6V9.8h5.6V5.5h-5.6V0H9.2c-.2 1.2-.4 2.2-.9 3-.4.8-1 1.5-1.6 2.1-.7.6-1.8 1-2.7 1.3v3.4h3.3v8.4c0 1.1.1 1.9.3 2.5.2.6.6 1.1 1.2 1.6s1.3.9 2.2 1.2c.8.3 1.5.4 2.6.4 1 0 1.9-.1 2.7-.3.8-.2 1.8-.5 2.8-1v-3.8c-1.2.8-2.4 1.2-3.6 1.2-.7 0-1.3-.1-1.8-.4z"/><path fill="#C8C8C8" d="M42.5 19.6c-.4-.2-.8-.6-.9-1-.1-.4-.1-1.2-.1-2.6V9.8h5.6V5.5h-5.6V0H38c-.2 1.2-.4 2.2-.8 3-.4.8-1 1.5-1.6 2.1-.7.6-1.8 1-2.7 1.3v3.4h3.3v8.4c0 1.1.1 1.9.3 2.5.2.6.6 1.1 1.2 1.6s1.3.9 2.2 1.2c.8.3 1.5.4 2.6.4 1 0 1.9-.1 2.7-.3.8-.2 1.8-.5 2.8-1v-3.8c-1.2.8-2.4 1.2-3.6 1.2-.7 0-1.3-.1-1.9-.4z"/><path fill="#445975" d="M71.7 19.6c-.4-.2-.8-.6-.9-1-.1-.4-.1-1.2-.1-2.6V9.8h5.6V5.5h-5.6V0h-3.4c-.2 1.2-.4 2.2-.8 3-.4.8-1 1.5-1.6 2.1-.7.6-1.8 1-2.7 1.3v3.4h3.3v8.4c0 1.1.1 1.9.3 2.5.2.6.6 1.1 1.2 1.6s1.3.9 2.2 1.2c.8.3 1.5.4 2.6.4 1 0 1.9-.1 2.7-.3.8-.2 1.8-.5 2.8-1v-3.8c-1.2.8-2.4 1.2-3.6 1.2-.9 0-1.5-.1-2-.4z"/></g></svg>