<svg xmlns="http://www.w3.org/2000/svg" width="82" height="24"><g><path fill="#CC2127" d="M12 0C5.4 0 0 5.4 0 12c0 4.9 3 9.1 7.2 11 0-.8 0-1.8.2-2.8.2-1 1.5-6.5 1.5-6.5s-.4-.8-.4-1.9c0-1.8 1-3.1 2.3-3.1 1.1 0 1.6.8 1.6 1.8 0 1.1-.7 2.7-1.1 4.3-.3 1.3.6 2.3 1.9 2.3 2.3 0 3.8-2.9 3.8-6.4 0-2.6-1.8-4.6-5-4.6-3.6 0-5.9 2.7-5.9 5.8 0 1 .3 1.8.8 2.4.2.3.3.4.2.7-.1.2-.2.8-.2 1-.1.3-.3.4-.6.3-1.7-.7-2.5-2.5-2.5-4.6.1-3.6 3-7.7 8.7-7.7 4.6 0 7.6 3.3 7.6 6.9 0 4.7-2.6 8.2-6.5 8.2-1.3 0-2.5-.7-2.9-1.5 0 0-.7 2.8-.8 3.3-.3.9-.8 1.9-1.2 2.6 1 .4 2.1.5 3.3.5 6.6 0 12-5.4 12-12S18.7 0 12 0z"/><path fill="#C8C8C8" d="M41 0c-6.6 0-12 5.4-12 12 0 4.9 3 9.1 7.2 11 0-.8 0-1.8.2-2.8.2-1 1.5-6.5 1.5-6.5s-.4-.8-.4-1.9c0-1.8 1-3.1 2.3-3.1 1.1 0 1.6.8 1.6 1.8 0 1.1-.7 2.7-1.1 4.3-.3 1.3.6 2.3 1.9 2.3 2.3 0 3.8-2.9 3.8-6.4 0-2.6-1.8-4.6-5-4.6-3.6 0-5.9 2.7-5.9 5.8 0 1 .3 1.8.8 2.4.2.3.3.4.2.7-.1.2-.2.8-.2 1-.1.3-.3.4-.6.3-1.7-.7-2.5-2.5-2.5-4.6 0-3.4 2.9-7.5 8.6-7.5 4.6 0 7.6 3.3 7.6 6.9 0 4.7-2.6 8.2-6.5 8.2-1.3 0-2.5-.7-2.9-1.5 0 0-.7 2.8-.8 3.3-.3.9-.8 1.9-1.2 2.6 1.1.3 2.2.5 3.4.5 6.6 0 12-5.4 12-12C53 5.4 47.7 0 41 0z"/><path fill="#E6252B" d="M70 0c-6.6 0-12 5.4-12 12 0 4.9 3 9.1 7.2 11 0-.8 0-1.8.2-2.8.2-1 1.5-6.5 1.5-6.5s-.4-.8-.4-1.9c0-1.8 1-3.1 2.3-3.1 1.1 0 1.6.8 1.6 1.8 0 1.1-.7 2.7-1.1 4.3-.3 1.3.6 2.3 1.9 2.3 2.3 0 3.8-2.9 3.8-6.4 0-2.6-1.8-4.6-5-4.6-3.6 0-5.9 2.7-5.9 5.8 0 1 .3 1.8.8 2.4.2.3.3.4.2.7-.1.2-.2.8-.2 1-.1.3-.3.4-.6.3-1.7-.7-2.5-2.5-2.5-4.6 0-3.4 2.9-7.5 8.6-7.5 4.6 0 7.6 3.3 7.6 6.9 0 4.7-2.6 8.2-6.5 8.2-1.3 0-2.5-.7-2.9-1.5 0 0-.7 2.8-.8 3.3-.3.9-.8 1.9-1.2 2.6 1.1.3 2.2.5 3.4.5 6.6 0 12-5.4 12-12C82 5.4 76.6 0 70 0z"/></g></svg>