<svg xmlns="http://www.w3.org/2000/svg" width="82" height="24"><g><path fill="#0077B5" d="M22.2 0H1.7C.8 0 0 .8 0 1.7v20.6c0 .9.8 1.7 1.7 1.7h20.5c1 0 1.8-.8 1.8-1.7V1.7c0-.9-.8-1.7-1.8-1.7zM7.3 20.1H3.6V9.3h3.6v10.8zM5.4 7.8c-1.2 0-2-.8-2-1.9 0-1.1.8-1.9 2.1-1.9s2 .8 2 1.9c0 1-.8 1.9-2.1 1.9zm14.9 12.3h-3.6v-5.8c0-1.5-.5-2.5-1.8-2.5-1 0-1.6.7-1.9 1.3-.1.2-.1.6-.1.9v6.1H9.3s0-9.8 0-10.8h3.6v1.5c.5-.7 1.3-1.8 3.3-1.8 2.4 0 4.2 1.5 4.2 4.9v6.2zm-7.4-9.3z"/><path fill="#C8C8C8" d="M51.3 0H30.8c-1 0-1.8.8-1.8 1.7v20.6c0 .9.8 1.7 1.8 1.7h20.5c1 0 1.8-.8 1.8-1.7V1.7C53 .8 52.2 0 51.3 0zm-15 20.1h-3.6V9.3h3.6v10.8zM34.5 7.8c-1.2 0-2-.8-2-1.9 0-1.1.8-1.9 2.1-1.9s2 .8 2 1.9c-.1 1-.9 1.9-2.1 1.9zm14.9 12.3h-3.6v-5.8c0-1.5-.5-2.5-1.8-2.5-1 0-1.6.7-1.9 1.3-.1.2-.1.6-.1.9v6.1h-3.6s0-9.8 0-10.8H42v1.5c.5-.7 1.3-1.8 3.3-1.8 2.4 0 4.2 1.5 4.2 4.9v6.2zm-7.5-9.3z"/><path fill="#0086CF" d="M80.2 0H59.7c-1 0-1.8.8-1.8 1.7v20.6c0 .9.8 1.7 1.8 1.7h20.5c1 0 1.8-.8 1.8-1.7V1.7c0-.9-.8-1.7-1.8-1.7zM65.3 20.1h-3.6V9.3h3.6v10.8zM63.4 7.8c-1.2 0-2-.8-2-1.9 0-1.1.8-1.9 2.1-1.9s2 .8 2 1.9c0 1-.8 1.9-2.1 1.9zm14.9 12.3h-3.6v-5.8c0-1.5-.5-2.5-1.8-2.5-1 0-1.6.7-1.9 1.3-.1.2-.1.6-.1.9v6.1h-3.6s0-9.8 0-10.8h3.6v1.5c.5-.7 1.3-1.8 3.3-1.8 2.4 0 4.2 1.5 4.2 4.9v6.2zm-7.4-9.3z"/></g></svg>