<svg xmlns="http://www.w3.org/2000/svg" width="82" height="24"><g><path fill="#1AB7EA" d="M20.5 1.2c-3.3-.1-5.6 1.8-6.8 5.6.6-.3 1.2-.4 1.8-.4 1.2 0 1.8.7 1.6 2.1-.1.8-.6 2-1.6 3.6s-1.8 2.4-2.3 2.4c-.6 0-1.2-1.2-1.8-3.7-.2-.7-.5-2.6-1-5.5-.4-2.7-1.6-4-3.5-3.8-.8.1-2 .8-3.6 2.2-.9.9-2.1 2-3.3 3l1.1 1.5C2.2 7.4 2.8 7.1 3 7.1c.8 0 1.6 1.3 2.3 3.9.6 2.4 1.3 4.8 1.9 7.1 1 2.6 2.2 3.9 3.6 3.9 2.3 0 5-2.1 8.3-6.4 3.2-4.1 4.8-7.3 4.9-9.6.2-3.2-1-4.8-3.5-4.8z"/><path fill="#C8C8C8" d="M49.5 1.2c-3.3-.1-5.6 1.8-6.8 5.6.6-.3 1.2-.4 1.8-.4 1.2 0 1.8.7 1.6 2.1-.1.8-.6 2-1.6 3.6s-1.8 2.4-2.3 2.4c-.6 0-1.2-1.2-1.8-3.7-.2-.7-.5-2.6-1-5.5-.4-2.7-1.6-4-3.5-3.8-.8.1-2 .8-3.6 2.2-1.2 1-2.3 2.1-3.5 3.1l1.1 1.5c1.1-.8 1.7-1.1 1.9-1.1.8 0 1.6 1.3 2.3 3.9.6 2.4 1.3 4.8 1.9 7.1 1 2.6 2.2 3.9 3.6 3.9 2.3 0 5-2.1 8.3-6.4 3.2-4.1 4.8-7.3 4.9-9.6.3-3.3-.9-4.9-3.3-4.9z"/><path fill="#21C8FF" d="M78.5 1.2c-3.3-.1-5.6 1.8-6.8 5.6.6-.3 1.2-.4 1.8-.4 1.2 0 1.8.7 1.6 2.1-.1.8-.6 2-1.6 3.6s-1.8 2.4-2.3 2.4c-.6 0-1.2-1.2-1.8-3.7-.2-.7-.5-2.6-1-5.5-.4-2.7-1.6-4-3.5-3.8-.8.1-2 .8-3.6 2.2-1.2 1-2.3 2.1-3.5 3.1l1.1 1.5c1.1-.8 1.7-1.1 1.9-1.1.8 0 1.6 1.3 2.3 3.9.6 2.4 1.3 4.8 1.9 7.1 1 2.6 2.2 3.9 3.6 3.9 2.3 0 5-2.1 8.3-6.4 3.2-4.1 4.8-7.3 4.9-9.6.3-3.3-.8-4.9-3.3-4.9z"/></g></svg>