<svg xmlns="http://www.w3.org/2000/svg" width="82" height="24"><g><path fill="#0063DC" d="M5.4 6.4c-3 0-5.4 2.4-5.4 5.3S2.4 17 5.4 17c3 0 5.4-2.4 5.4-5.3 0-3-2.4-5.3-5.4-5.3z"/><ellipse cx="18.6" cy="11.7" fill="#FF0084" rx="5.4" ry="5.3"/><path fill="#C8C8C8" d="M34.4 6.4c-3 0-5.4 2.4-5.4 5.3s2.4 5.3 5.4 5.3c3 0 5.4-2.4 5.4-5.3 0-3-2.4-5.3-5.4-5.3z"/><ellipse cx="47.6" cy="11.7" fill="#C8C8C8" rx="5.4" ry="5.3"/><path fill="#006EF5" d="M63.4 6.4c-3 0-5.4 2.4-5.4 5.3s2.4 5.3 5.4 5.3c3 0 5.4-2.4 5.4-5.3 0-3-2.4-5.3-5.4-5.3z"/><ellipse cx="76.6" cy="11.7" fill="#FF1990" rx="5.4" ry="5.3"/></g></svg>