<svg xmlns="http://www.w3.org/2000/svg" width="82" height="24"><g><path fill="#CD201F" d="M19 4.3S15.5 4 12 4s-7 .3-7 .3c-2.8 0-5 2.2-5 5v6.4c0 2.8 2.2 5 5 5 0 0 3.5.3 7 .3s7-.3 7-.3c2.8 0 5-2.2 5-5V9.3c0-2.7-2.2-5-5-5zM9.6 16.6v-9l6.9 4.5-6.9 4.5z"/><path fill="#C8C8C8" d="M48 4.3S44.5 4 41 4s-7 .3-7 .3c-2.8 0-5 2.2-5 5v6.4c0 2.8 2.2 5 5 5 0 0 3.5.3 7 .3s7-.3 7-.3c2.8 0 5-2.2 5-5V9.3c0-2.7-2.2-5-5-5zm-9.4 12.3v-9l6.9 4.5-6.9 4.5z"/><path fill="#E52222" d="M77 4.3S73.5 4 70 4s-7 .3-7 .3c-2.8 0-5 2.2-5 5v6.4c0 2.8 2.2 5 5 5 0 0 3.5.3 7 .3s7-.3 7-.3c2.8 0 5-2.2 5-5V9.3c0-2.7-2.2-5-5-5zm-9.4 12.3v-9l6.9 4.5-6.9 4.5z"/></g></svg>