<svg xmlns="http://www.w3.org/2000/svg" width="82" height="24"><g><path fill="#EA4335" d="M16.2.7c-2.6-1-5.5-1-8.1-.1-2.9 1-5.4 3.2-6.8 6 1.3 1 2.6 2 3.9 3.1.4-1.1 1-2 1.7-2.8 1-1 2.2-1.7 3.6-2 1.2-.2 2.4-.2 3.5.1 1 .3 1.9.8 2.6 1.5.7-.7 1.5-1.5 2.2-2.2.4-.4.8-.8 1.2-1.2-1.1-1-2.4-1.9-3.8-2.4z"/><path fill="#4285F4" d="M20 21.1c1.5-1.3 2.5-3.1 3-5 .6-2.1.7-4.3.3-6.4-3.8 0-7.5 0-11.3 0 0 1.6 0 3.1 0 4.7 2.2 0 4.4 0 6.5 0-.3 1.5-1.1 2.9-2.4 3.7.9.9 2.7 2.4 3.9 3z"/><path fill="#34A853" d="M1.3 17.4c1.3-1 2.6-2 3.9-3.1.5 1.5 1.5 2.8 2.8 3.7.8.6 1.7 1 2.7 1.2.9.2 1.9.2 2.9 0 .9-.2 1.9-.5 2.6-1 1.3 1 2.5 2 3.8 3-1.4 1.3-3.1 2.1-4.9 2.6-2 .5-4.1.5-6.1-.1-1.6-.4-3.1-1.2-4.4-2.2-1.4-1.2-2.5-2.6-3.3-4.1z"/><path fill="#FBBC05" d="M.2 9.6c.2-1 .6-2.1 1-3 1.3 1 2.6 2 3.9 3.1-.5 1.5-.5 3.2 0 4.7-1.3 1-2.6 2-3.9 3.1C.1 15-.3 12.2.2 9.6z"/><path fill="#C8C8C8" d="M45.2.7c-2.6-1-5.5-1-8.1-.1-2.9 1-5.4 3.2-6.8 6 1.3 1 2.6 2 3.9 3.1.4-1.1 1-2 1.7-2.8 1-1 2.2-1.7 3.6-2 1.2-.2 2.4-.2 3.5.1 1 .3 1.9.8 2.6 1.5.7-.7 1.5-1.5 2.2-2.2.4-.4.8-.8 1.2-1.2-1.1-1-2.4-1.9-3.8-2.4zM49 21.1c1.5-1.3 2.5-3.1 3-5 .6-2.1.7-4.3.3-6.4-3.8 0-7.5 0-11.3 0 0 1.6 0 3.1 0 4.7 2.2 0 4.4 0 6.5 0-.3 1.5-1.1 2.9-2.4 3.7.9.9 2.7 2.4 3.9 3zM30.3 17.4c1.3-1 2.6-2 3.9-3.1.5 1.5 1.5 2.8 2.8 3.7.8.6 1.7 1 2.7 1.2.9.2 1.9.2 2.9 0 .9-.2 1.9-.5 2.6-1 1.3 1 2.5 2 3.8 3-1.4 1.3-3.1 2.1-4.9 2.6-2 .5-4.1.5-6.1-.1-1.6-.4-3.1-1.2-4.4-2.2-1.4-1.2-2.5-2.6-3.3-4.1zM29.2 9.6c.2-1 .6-2.1 1-3 1.3 1 2.6 2 3.9 3.1-.5 1.5-.5 3.2 0 4.7-1.3 1-2.6 2-3.9 3.1-1.1-2.5-1.5-5.3-1-7.9z"/><path fill="#FF4B3B" d="M74.2.7c-2.6-1-5.5-1-8.1-.1-2.9 1-5.4 3.2-6.8 6 1.3 1 2.6 2 3.9 3.1.4-1.1 1-2 1.7-2.8 1-1 2.2-1.7 3.6-2 1.2-.2 2.4-.2 3.5.1 1 .3 1.9.8 2.6 1.5.7-.7 1.5-1.5 2.2-2.2.4-.4.8-.8 1.2-1.2-1.1-1-2.4-1.8-3.8-2.4z"/><path fill="#4F92FF" d="M78 21.1c1.5-1.3 2.5-3.1 3-5 .6-2.1.7-4.3.3-6.4-3.8 0-7.5 0-11.3 0 0 1.6 0 3.1 0 4.7 2.2 0 4.4 0 6.5 0-.3 1.5-1.1 2.9-2.4 3.7.9.9 2.7 2.5 3.9 3z"/><path fill="#3CC260" d="M59.3 17.4c1.3-1 2.6-2 3.9-3.1.5 1.5 1.5 2.8 2.8 3.7.8.6 1.7 1 2.7 1.2.9.2 1.9.2 2.9 0 .9-.2 1.9-.5 2.6-1 1.3 1 2.5 2 3.8 3-1.4 1.3-3.1 2.1-4.9 2.6-2 .5-4.1.5-6.1-.1-1.6-.4-3.1-1.2-4.4-2.2-1.4-1.2-2.5-2.5-3.3-4.1z"/><path fill="#FFC619" d="M58.2 9.6c.2-1 .6-2.1 1-3 1.3 1 2.6 2 3.9 3.1-.5 1.5-.5 3.2 0 4.7-1.3 1-2.6 2-3.9 3.1-1.1-2.5-1.5-5.2-1-7.9z"/></g></svg>