<svg xmlns="http://www.w3.org/2000/svg" width="82" height="24"><g><path fill="#3B5998" d="M24 4c0-2.1-1.9-4-4-4H4C1.9 0 0 1.9 0 4v16c0 2.1 1.9 4 4 4h8v-9.1H9.1v-4H12V9.4c0-2.7 2-5.1 4.5-5.1h3.2v4h-3.2c-.4 0-.8.4-.8 1.1V11h4v4h-4v9H20c2.1 0 4-1.9 4-4V4z"/><path fill="#C8C8C8" d="M53 4c0-2.1-1.9-4-4-4H33c-2.1 0-4 1.9-4 4v16c0 2.1 1.9 4 4 4h8v-9.1h-2.9v-4H41V9.4c0-2.7 2-5.1 4.5-5.1h3.2v4h-3.2c-.4 0-.8.4-.8 1.1V11h4v4h-4v9H49c2.1 0 4-1.9 4-4V4z"/><path fill="#4668B2" d="M82 4c0-2.1-1.9-4-4-4H62c-2.1 0-4 1.9-4 4v16c0 2.1 1.9 4 4 4h8v-9.1h-2.9v-4H70V9.4c0-2.7 2-5.1 4.5-5.1h3.2v4h-3.2c-.4 0-.8.4-.8 1.1V11h4v4h-4v9H78c2.1 0 4-1.9 4-4V4z"/></g></svg>