<svg xmlns="http://www.w3.org/2000/svg" width="112" height="24"><g><path fill="#fff" fill-rule="evenodd" d="M22.5 2C21.7 2 17 2 17 2c-2.4 0-4 1.1-5 1.9C11 3.1 9.4 2 7 2c0 0-4.8 0-5.5 0C.7 2 0 2.7 0 3.5s0 14.2 0 15c0 .8.7 1.5 1.5 1.5S3 20 7 20s5 2 5 2 1-2 5-2 4.7 0 5.5 0c.8 0 1.5-.8 1.5-1.5s0-14.2 0-15c0-.8-.8-1.5-1.5-1.5zM11 19.1C9.9 18.5 8.6 18 7 18c-3.5 0-4.9 0-4.9 0s-.1-.1-.1-.1V4.1s.1-.1.1-.1H7c2.1 0 3.4 1.1 4 1.7v13.4zm11-1.2s0 .1 0 0c-.1.1-1.5.1-5 .1-1.6 0-2.9.5-4 1.1V5.7c.6-.6 1.9-1.7 4-1.7h4.9s.1.1.1.1v13.8z" clip-rule="evenodd"/><path fill="#fff" fill-rule="evenodd" d="M65.6 2.7c-.7 0-5.1 0-5.1 0-2.2 0-3.7 1-4.6 1.8-.9-.8-2.4-1.8-4.6-1.8 0 0-4.4 0-5.1 0-.7 0-1.4.6-1.4 1.4 0 .8 0 13.2 0 13.9 0 .7.6 1.4 1.4 1.4s1.4 0 5.1 0c3.7 0 4.6 1.8 4.6 1.8s.9-1.8 4.6-1.8c3.7 0 4.3 0 5.1 0 .7 0 1.4-.7 1.4-1.4s0-13.1 0-13.9c0-.7-.7-1.4-1.4-1.4z" opacity=".65" clip-rule="evenodd"/><path fill="#646464" fill-rule="evenodd" d="M66.4 2c-.8 0-5.5 0-5.5 0-2.4 0-4 1.1-5 1.9-1-.9-2.6-1.9-5-1.9 0 0-4.8 0-5.5 0-.8 0-1.5.7-1.5 1.5s0 14.2 0 15c0 .7.7 1.5 1.5 1.5s1.5 0 5.5 0 5 2 5 2 1-2 5-2 4.7 0 5.5 0c.8 0 1.5-.8 1.5-1.5s0-14.2 0-15c0-.8-.7-1.5-1.5-1.5zM54.9 19.1c-1.1-.6-2.4-1.1-4-1.1-3.5 0-4.9 0-4.9 0s-.1-.1-.1-.1V4.1c.1 0 .1-.1.1-.1h4.9c2.1 0 3.4 1.1 4 1.7v13.4zm11-1.2s0 .1 0 0c-.1.1-1.5.1-5 .1-1.6 0-2.9.5-4 1.1V5.7c.6-.6 1.9-1.7 4-1.7h4.9s.1.1.1.1v13.8z" clip-rule="evenodd"/><path fill="#fff" fill-rule="evenodd" d="M109.7 2.7c-.7 0-5.1 0-5.1 0-2.2 0-3.7 1-4.6 1.8-.9-.8-2.4-1.8-4.6-1.8 0 0-4.4 0-5.1 0-.7 0-1.4.6-1.4 1.4 0 .8 0 13.2 0 13.9 0 .7.6 1.4 1.4 1.4s1.4 0 5.1 0c3.7 0 4.6 1.8 4.6 1.8s.9-1.8 4.6-1.8c3.7 0 4.3 0 5.1 0 .7 0 1.4-.7 1.4-1.4s0-13.1 0-13.9c0-.7-.7-1.4-1.4-1.4z" opacity=".65" clip-rule="evenodd"/><path fill="#0089D9" fill-rule="evenodd" d="M110.5 2c-.8 0-5.5 0-5.5 0-2.4 0-4 1.1-5 1.9-1-.8-2.6-1.9-5-1.9 0 0-4.8 0-5.5 0-.8 0-1.5.7-1.5 1.5v15c0 .7.7 1.5 1.5 1.5s1.5 0 5.5 0 5 2 5 2 1-2 5-2 4.7 0 5.5 0c.8 0 1.5-.8 1.5-1.5v-15c0-.8-.8-1.5-1.5-1.5zM99 19.1c-1.1-.6-2.4-1.1-4-1.1-3.5 0-4.9 0-4.9 0s-.1-.1-.1-.1V4.1s.1-.1.1-.1H95c2.1 0 3.4 1.1 4 1.7v13.4zm11-1.2s-.1.1 0 0c-.1.1-1.5.1-5 .1-1.6 0-2.9.5-4 1.1V5.7c.6-.6 1.9-1.7 4-1.7h4.9s.1.1.1.1v13.8z" clip-rule="evenodd"/></g></svg>