<svg xmlns="http://www.w3.org/2000/svg" width="112" height="24"><g><path fill="#fff" fill-rule="evenodd" d="M16.7 2.1c-1.5-.5-2.1.7-1.3 1.6C18.7 5 21 8.2 21 12c0 5-4 9-9 9s-9-4-9-9c0-3.7 2.3-6.9 5.5-8.3.8-.9.3-2-1.1-1.7C3.6 3.8 1 7.6 1 12c0 6.1 4.9 11 11 11s11-4.9 11-11c.1-4.4-2.5-8.2-6.3-9.9zM12 13c.6 0 1-.4 1-1V1c0-.6-.4-1-1-1s-1 .4-1 1v11c0 .6.5 1 1 1z" clip-rule="evenodd"/><path fill="#fff" fill-rule="evenodd" d="M55.9 1.7c5.7 0 10.4 4.6 10.4 10.3 0 5.7-4.6 10.3-10.4 10.3-5.7 0-10.4-4.6-10.4-10.3 0-5.7 4.7-10.3 10.4-10.3z" opacity=".65" clip-rule="evenodd"/><path fill="#646464" fill-rule="evenodd" d="M60.6 2.1c-1.5-.5-2.1.7-1.3 1.6 3.3 1.3 5.6 4.6 5.6 8.3 0 5-4 9-9 9s-9-4-9-9c0-3.7 2.3-6.9 5.5-8.3.8-.9.3-2-1.1-1.7-3.8 1.7-6.4 5.6-6.4 10 0 6.1 4.9 11 11 11s11-4.9 11-11c0-4.4-2.5-8.2-6.3-9.9zM55.9 13c.6 0 1-.4 1-1V1c0-.6-.4-1-1-1s-1 .4-1 1v11c0 .6.4 1 1 1z" clip-rule="evenodd"/><path fill="#fff" fill-rule="evenodd" d="M100 1.7c5.7 0 10.4 4.6 10.4 10.3 0 5.7-4.6 10.3-10.4 10.3-5.7 0-10.4-4.6-10.4-10.3.1-5.7 4.7-10.3 10.4-10.3z" opacity=".65" clip-rule="evenodd"/><path fill="#0089D9" fill-rule="evenodd" d="M104.7 2.1c-1.5-.5-2.1.7-1.3 1.6C106.7 5 109 8.2 109 12c0 5-4 9-9 9s-9-4-9-9c0-3.7 2.3-6.9 5.5-8.3.8-.9.3-2-1.1-1.7C91.6 3.8 89 7.6 89 12c0 6.1 4.9 11 11 11s11-4.9 11-11c.1-4.4-2.5-8.2-6.3-9.9zM100 13c.6 0 1-.4 1-1V1c0-.6-.4-1-1-1s-1 .4-1 1v11c0 .6.4 1 1 1z" clip-rule="evenodd"/></g></svg>