<svg xmlns="http://www.w3.org/2000/svg" width="112" height="24"><g><path fill="#fff" fill-rule="evenodd" d="M12 2L0 13h3s0 6.8 0 7.5c0 .8.7 1.5 1.5 1.5s5.5 0 5.5 0v-6h4v6s4.7 0 5.5 0c.8 0 1.5-.7 1.5-1.5 0-.7 0-7.5 0-7.5h3L12 2zm7 17.9s-.1.1 0 0l-3 .1v-6H8v6H5.1s-.1-.1-.1-.1v-8.8l7-6.4 7 6.4v8.8z" clip-rule="evenodd"/><path fill="#fff" fill-rule="evenodd" d="M55.9 2.8l-11 10.1h2.8s0 6.2 0 6.9c0 .7.6 1.4 1.4 1.4.7 0 4.5 0 4.5 0v-5.5h4.9v5.5s3.7 0 4.4 0c.7 0 1.4-.7 1.4-1.4s0-6.9 0-6.9H67L55.9 2.8z" opacity=".65" clip-rule="evenodd"/><path fill="#646464" fill-rule="evenodd" d="M55.9 2l-12 11h3s0 6.8 0 7.5c0 .8.7 1.5 1.5 1.5s5.5 0 5.5 0v-6h4v6s4.7 0 5.5 0c.8 0 1.5-.7 1.5-1.5 0-.7 0-7.5 0-7.5h3l-12-11zm7 17.9s0 .1 0 0l-3 .1v-6h-8v6H49s-.1-.1-.1-.1v-8.8l7-6.4 7 6.4v8.8z" clip-rule="evenodd"/><path fill="#fff" fill-rule="evenodd" d="M100 2.8L89 12.9h2.8s0 6.2 0 6.9c0 .7.6 1.4 1.4 1.4.7 0 4.5 0 4.5 0v-5.5h4.9v5.5s3.7 0 4.4 0c.7 0 1.4-.7 1.4-1.4s0-6.9 0-6.9h2.8L100 2.8z" opacity=".65" clip-rule="evenodd"/><path fill="#0089D9" fill-rule="evenodd" d="M100 2L88 13h3s0 6.8 0 7.5c0 .8.7 1.5 1.5 1.5s5.5 0 5.5 0v-6h4v6s4.7 0 5.5 0c.8 0 1.5-.7 1.5-1.5 0-.7 0-7.5 0-7.5h3L100 2zm7 17.9s-.1.1 0 0l-3 .1v-6h-8v6h-2.9s-.1-.1-.1-.1v-8.8l7-6.4 7 6.4v8.8z" clip-rule="evenodd"/></g></svg>