<svg xmlns="http://www.w3.org/2000/svg" width="112" height="24"><g><path fill="#fff" fill-rule="evenodd" d="M12 0C5.4 0 0 5.4 0 12s5.4 12 12 12 12-5.4 12-12S18.6 0 12 0zm0 22C6.5 22 2 17.5 2 12S6.5 2 12 2s10 4.5 10 10-4.5 10-10 10zm0-16c-2.3.1-3.5 1.7-3.7 4H10s.2-2.3 2-2.4c1.3 0 2.1 1.1 2.1 2.2 0 .7-.4 1.2-.9 1.6-1 .8-2 2-2 3.5h1.7c0-1.2.6-1.8 1.2-2.3 1-.8 1.7-1.5 1.7-3.1-.1-2-1.8-3.6-3.8-3.5zm-.9 12h1.8v-2h-1.8v2z" clip-rule="evenodd"/><path fill="#fff" fill-rule="evenodd" d="M55.9.6C62.2.6 67.3 5.7 67.3 12c0 6.3-5.1 11.4-11.4 11.4-6.3 0-11.4-5.1-11.4-11.4C44.5 5.7 49.6.6 55.9.6z" opacity=".65" clip-rule="evenodd"/><path fill="#646464" fill-rule="evenodd" d="M55.9 0c-6.6 0-12 5.4-12 12s5.4 12 12 12 12-5.4 12-12-5.3-12-12-12zm0 22c-5.5 0-10-4.5-10-10s4.5-10 10-10 10 4.5 10 10-4.4 10-10 10zm-.9-4h1.8v-2H55v2zm.9-12c-2.3.1-3.5 1.7-3.7 4h1.6s.2-2.3 2-2.4c1.3 0 2.1 1.1 2.1 2.2 0 .7-.4 1.2-.9 1.6-1 .8-2 2-2 3.5h1.7c0-1.2.6-1.8 1.2-2.3 1-.8 1.7-1.5 1.7-3.1 0-2-1.7-3.6-3.7-3.5z" clip-rule="evenodd"/><path fill="#fff" fill-rule="evenodd" d="M100 .6c6.3 0 11.4 5.1 11.4 11.4 0 6.3-5.1 11.4-11.4 11.4-6.3 0-11.4-5.1-11.4-11.4C88.6 5.7 93.7.6 100 .6z" opacity=".65" clip-rule="evenodd"/><path fill="#0089D9" fill-rule="evenodd" d="M100 0c-6.6 0-12 5.4-12 12s5.4 12 12 12 12-5.4 12-12-5.4-12-12-12zm0 22c-5.5 0-10-4.5-10-10s4.5-10 10-10 10 4.5 10 10-4.5 10-10 10zm-.9-4h1.8v-2h-1.8v2zm.9-12c-2.3.1-3.5 1.7-3.7 4h1.6s.2-2.3 2-2.4c1.3 0 2.1 1.1 2.1 2.2 0 .7-.4 1.2-.9 1.6-1 .8-2 2-2 3.5h1.7c0-1.2.6-1.8 1.2-2.3 1-.8 1.7-1.5 1.7-3.1 0-2-1.7-3.6-3.7-3.5z" clip-rule="evenodd"/></g></svg>