<svg xmlns="http://www.w3.org/2000/svg" width="112" height="24"><g fill-rule="evenodd" clip-rule="evenodd"><path fill="#fff" d="M11 3h2c.6 0 1 .4 1 1v2c0 .6-.4 1-1 1h-2c-.6 0-1-.4-1-1V4c0-.6.5-1 1-1zm7 0h2c.6 0 1 .4 1 1v2c0 .6-.4 1-1 1h-2c-.6 0-1-.4-1-1V4c0-.6.5-1 1-1zM4 10h2c.6 0 1 .4 1 1v2c0 .6-.4 1-1 1H4c-.6 0-1-.4-1-1v-2c0-.6.5-1 1-1zm7 0h2c.6 0 1 .4 1 1v2c0 .6-.4 1-1 1h-2c-.6 0-1-.4-1-1v-2c0-.6.5-1 1-1zm7 0h2c.6 0 1 .4 1 1v2c0 .6-.4 1-1 1h-2c-.6 0-1-.4-1-1v-2c0-.6.5-1 1-1zM4 17h2c.6 0 1 .4 1 1v2c0 .6-.4 1-1 1H4c-.6 0-1-.4-1-1v-2c0-.6.5-1 1-1zm7 0h2c.6 0 1 .4 1 1v2c0 .6-.4 1-1 1h-2c-.6 0-1-.4-1-1v-2c0-.6.5-1 1-1zm7 0h2c.6 0 1 .4 1 1v2c0 .6-.4 1-1 1h-2c-.6 0-1-.4-1-1v-2c0-.6.5-1 1-1zM4 3h2c.6 0 1 .4 1 1v2c0 .6-.4 1-1 1H4c-.5 0-1-.4-1-1V4c0-.6.5-1 1-1z"/><path fill="#646464" d="M54.9 3h2c.6 0 1 .4 1 1v2c0 .6-.4 1-1 1h-2c-.6 0-1-.4-1-1V4c0-.6.5-1 1-1zm7 0h2c.6 0 1 .4 1 1v2c0 .6-.4 1-1 1h-2c-.6 0-1-.4-1-1V4c0-.6.5-1 1-1zm-14 7h2c.6 0 1 .4 1 1v2c0 .6-.4 1-1 1h-2c-.6 0-1-.4-1-1v-2c0-.6.5-1 1-1zm7 0h2c.6 0 1 .4 1 1v2c0 .6-.4 1-1 1h-2c-.6 0-1-.4-1-1v-2c0-.6.5-1 1-1zm7 0h2c.6 0 1 .4 1 1v2c0 .6-.4 1-1 1h-2c-.6 0-1-.4-1-1v-2c0-.6.5-1 1-1zm-14 7h2c.6 0 1 .4 1 1v2c0 .6-.4 1-1 1h-2c-.6 0-1-.4-1-1v-2c0-.6.5-1 1-1zm7 0h2c.6 0 1 .4 1 1v2c0 .6-.4 1-1 1h-2c-.6 0-1-.4-1-1v-2c0-.6.5-1 1-1zm7 0h2c.6 0 1 .4 1 1v2c0 .6-.4 1-1 1h-2c-.6 0-1-.4-1-1v-2c0-.6.5-1 1-1zm-14-14h2c.6 0 1 .4 1 1v2c0 .6-.4 1-1 1h-2c-.6 0-1-.4-1-1V4c0-.6.5-1 1-1z"/><path fill="#0089D9" d="M99 3h2c.6 0 1 .4 1 1v2c0 .6-.4 1-1 1h-2c-.6 0-1-.4-1-1V4c0-.6.4-1 1-1zm7 0h2c.6 0 1 .4 1 1v2c0 .6-.4 1-1 1h-2c-.6 0-1-.4-1-1V4c0-.6.4-1 1-1zm-14 7h2c.6 0 1 .4 1 1v2c0 .6-.4 1-1 1h-2c-.6 0-1-.4-1-1v-2c0-.6.4-1 1-1zm7 0h2c.6 0 1 .4 1 1v2c0 .6-.4 1-1 1h-2c-.6 0-1-.4-1-1v-2c0-.6.4-1 1-1zm7 0h2c.6 0 1 .4 1 1v2c0 .6-.4 1-1 1h-2c-.6 0-1-.4-1-1v-2c0-.6.4-1 1-1zm-14 7h2c.6 0 1 .4 1 1v2c0 .6-.4 1-1 1h-2c-.6 0-1-.4-1-1v-2c0-.6.4-1 1-1zm7 0h2c.6 0 1 .4 1 1v2c0 .6-.4 1-1 1h-2c-.6 0-1-.4-1-1v-2c0-.6.4-1 1-1zm7 0h2c.6 0 1 .4 1 1v2c0 .6-.4 1-1 1h-2c-.6 0-1-.4-1-1v-2c0-.6.4-1 1-1zM92 3h2c.6 0 1 .4 1 1v2c0 .6-.4 1-1 1h-2c-.6 0-1-.4-1-1V4c0-.6.4-1 1-1z"/></g></svg>