<svg id="Reminder" xmlns="http://www.w3.org/2000/svg" width="112" height="24" viewBox="0 0 112 24"><defs><style>.cls-1{fill:#fff;}.cls-1,.cls-2,.cls-3{fill-rule:evenodd;}.cls-2{fill:#646464;}.cls-3{fill:#0089d9;}</style></defs><title>24</title><path class="cls-1" d="M16,8L12.8,11.2a2,2,0,1,0,1,1L17,9A0.71,0.71,0,1,0,16,8ZM12,2A11,11,0,1,0,23,13,11,11,0,0,0,12,2Zm0,20a9,9,0,1,1,9-9A9,9,0,0,1,12,22ZM23,2a3.49,3.49,0,0,0-5,0l5,5C23.79,5.92,24.76,3.8,23,2ZM1,2C-0.8,3.8.26,6,1,7L6,2A3.49,3.49,0,0,0,1,2Z"/><path class="cls-2" d="M60,8L56.8,11.2a2,2,0,1,0,1,1L61,9A0.71,0.71,0,1,0,60,8Zm7-6a3.49,3.49,0,0,0-5,0l5,5C67.79,5.92,68.76,3.8,67,2ZM56,2A11,11,0,1,0,67,13,11,11,0,0,0,56,2Zm0,20a9,9,0,1,1,9-9A9,9,0,0,1,56,22ZM45,2c-1.78,1.78-.72,4,0,5l5-5A3.49,3.49,0,0,0,45,2Z"/><path class="cls-3" d="M111,2a3.49,3.49,0,0,0-5,0l5,5C111.81,5.92,112.78,3.8,111,2Zm-7,6-3.18,3.18a2,2,0,1,0,1,1L105,9A0.71,0.71,0,1,0,104,8Zm-4-6a11,11,0,1,0,11,11A11,11,0,0,0,100,2Zm0,20a9,9,0,1,1,9-9A9,9,0,0,1,100,22ZM89,2c-1.78,1.78-.72,4,0,5l5-5A3.49,3.49,0,0,0,89,2Z"/></svg>