<svg xmlns="http://www.w3.org/2000/svg" width="112" height="24"><g><path fill="#fff" d="M9.2 9.4c-1.5 1.6-1.5 4.1.1 5.6s4.2 1.5 5.7-.1 1.5-4.1-.1-5.6c-1.6-1.6-4.1-1.5-5.7.1zM14 14c-1 1.1-2.7 1.1-3.8.1-1.1-1-1.1-2.7-.1-3.8 1-1.1 2.7-1.1 3.8-.1 1.1 1 1.1 2.7.1 3.8zm8.6-4.4l-2-.4c-.1-.3-.3-.7-.4-1l1.1-1.7c.6-.6.6-1.5 0-2.1l-1.5-1.5c-.6-.6-1.5-.6-2.1 0L16 4c-.3-.1-.6-.3-.9-.4l-.4-2.1C14.7.7 14 0 13.2 0H11c-.8 0-1.5.7-1.5 1.5l-.4 2.2c-.3.1-.6.2-.9.3L6.5 2.9c-.6-.6-1.5-.6-2.1 0L2.9 4.4c-.6.6-.6 1.5 0 2.1L4 8.2c-.2.3-.3.6-.4 1l-2 .4c-.8 0-1.5.7-1.5 1.5v2.1c0 .8.7 1.5 1.5 1.5l2 .4c.1.3.2.6.4 1l-1.1 1.7c-.6.6-.6 1.5 0 2.1l1.5 1.5c.6.6 1.5.6 2.1 0l1.7-1.1c.3.1.6.3 1 .4l.4 2c0 .8.7 1.5 1.5 1.5h2.1c.8 0 1.5-.7 1.5-1.5l.4-2c.3-.1.7-.3 1-.4l1.7 1.1c.6.6 1.5.6 2.1 0l1.5-1.5c.6-.6.6-1.5 0-2.1L20.2 16c.2-.3.3-.6.4-1l2-.4c.8 0 1.5-.7 1.5-1.5V11c0-.8-.7-1.4-1.5-1.4zm-.5 2.9c0 .4-.3.7-.7.7l-2.2.4c-.1 0-.2 0-.3-.1-.2.9-.5 1.7-1.1 2.5.1 0 .2.1.3.2l1.3 1.8c.3.3.3.7 0 1l-.4.5c-.3.3-.7.3-1 0l-1.8-1.3c-.1-.1-.2-.2-.2-.3-.8.5-1.7.9-2.6 1 .1.1.1.2.1.3l-.4 2.2c0 .4-.3.7-.7.7h-.7c-.4 0-.7-.3-.7-.7l-.3-2.2c0-.1 0-.2.1-.4-.9-.2-1.8-.5-2.6-1.1 0 .1-.1.2-.2.3l-1.8 1.3c-.3.3-.7.3-1 0l-.5-.3c-.3-.3-.3-.7 0-1L6 16.2c.1-.1.2-.2.3-.2-.5-.8-.9-1.6-1.1-2.5-.1.1-.2.1-.3.1l-2.2-.4c-.4 0-.7-.3-.7-.7v-.7c0-.5.4-.8.8-.8l2.2-.3c.1 0 .2 0 .3.1.2-.9.5-1.8 1-2.5-.1-.1-.2-.2-.3-.2L4.7 6.3c-.3-.3-.3-.7 0-1l.5-.5c.3-.3.7-.3 1 0L8 6c.1.1.1.1.1.2.8-.5 1.6-.9 2.5-1 0-.1-.1-.2-.1-.3l.5-2.1c0-.4.3-.7.7-.7h.7c.4 0 .7.3.7.7l.4 2.2c0 .1 0 .2-.1.3.9.2 1.7.5 2.5 1 0-.1.1-.2.1-.2l1.8-1.3c.3-.3.7-.3 1 0l.5.5c.3.3.3.7 0 1L18 8.1c.1 0 0 .1 0 .1.5.8.9 1.6 1 2.5.1 0 .2-.1.3-.1l2.2.3c.4 0 .7.3.7.7v.9z"/><path fill="#fff" d="M55.9 15c-1.7 0-3-1.3-3-3s1.3-3 3-3 3 1.3 3 3-1.4 3-3 3m1.5-14l-2.5.2-1.3 3.2-1.7.5-2.4-1.5-2.3 1.9 1.5 2.9-.8 1.7-3.3 1.1.3 2.7 3.6.8.4 1.6-1.6 2.5 1.8 2.3 3.4-1.5 1.1.5.9 3.3h2.8l1-3.4 1.4-.5 2.6 1.6 2.3-1.8-1.6-3.3.6-1.6 3.4-1-.2-2.1-3.3-1.5-.6-1.4 1.9-2.9-2.1-2-3 1.4-1.7-.3-.6-3.4" opacity=".65"/><path fill="#646464" d="M53.1 9.4c-1.5 1.6-1.5 4.1.1 5.6s4.2 1.5 5.7-.1 1.5-4.1-.1-5.6c-1.6-1.6-4.1-1.5-5.7.1zm4.8 4.6c-1 1.1-2.7 1.1-3.8.1-1.1-1-1.1-2.7-.1-3.8 1-1.1 2.7-1.1 3.8-.1 1.1 1 1.1 2.7.1 3.8zm8.6-4.4l-2-.4c-.1-.3-.3-.7-.4-1l1.1-1.7c.6-.6.6-1.5 0-2.1l-1.5-1.5c-.6-.6-1.5-.6-2.1 0L59.9 4c-.3-.1-.6-.3-.9-.4l-.4-2.1c0-.8-.7-1.5-1.5-1.5H55c-.8 0-1.5.7-1.5 1.5L53 3.7c-.3.1-.6.2-.9.4l-1.7-1.2c-.6-.6-1.5-.6-2.1 0l-1.5 1.5c-.6.6-.6 1.5 0 2.1l1.1 1.7c-.2.3-.3.6-.4 1l-2 .4c-.8 0-1.5.7-1.5 1.5v2.1c0 .8.7 1.5 1.5 1.5l2 .4c.1.3.2.6.4 1l-1.1 1.7c-.6.6-.6 1.5 0 2.1l1.5 1.5c.6.6 1.5.6 2.1 0l1.7-1.1c.3.1.6.3 1 .4l.4 2c0 .8.7 1.5 1.5 1.5h2c.8 0 1.5-.7 1.5-1.5l.4-2c.3-.1.7-.3 1-.4l1.7 1.1c.6.6 1.5.6 2.1 0l1.5-1.5c.6-.6.6-1.5 0-2.1L64.1 16c.2-.3.3-.6.4-1l2-.4c.8 0 1.5-.7 1.5-1.5V11c0-.8-.7-1.4-1.5-1.4zm-.5 2.9c0 .4-.3.7-.7.7l-2.2.4c-.1 0-.2 0-.3-.1-.2.9-.5 1.7-1.1 2.5.1 0 .2.1.3.2l1.3 1.8c.3.3.3.7 0 1l-.5.5c-.3.3-.7.3-1 0L60 18.2c-.1-.1-.1-.2-.2-.3-.8.5-1.7.9-2.6 1 .1.1.1.2.1.3l-.4 2.2c0 .4-.3.7-.7.7h-.7c-.4 0-.7-.3-.7-.7l-.3-2.2c0-.1 0-.2.1-.4-.9-.2-1.8-.5-2.6-1.1 0 .1-.1.2-.2.3L50 19.3c-.3.3-.7.3-1 0l-.4-.3c-.3-.3-.3-.7 0-1l1.3-1.8c.1-.1.2-.1.3-.2-.5-.8-.9-1.6-1.1-2.5-.1.1-.2.1-.3.1l-2.2-.4c-.4 0-.7-.3-.7-.7v-.7c0-.4.3-.7.7-.7l2.2-.3c.1 0 .2 0 .3.1.2-.9.5-1.8 1-2.5-.1 0-.2-.1-.2-.1l-1.3-1.8c-.3-.3-.3-.7 0-1l.5-.5c.3-.3.7-.3 1 0l1.8 1c.1.1.1.2.2.2.8-.5 1.6-.9 2.5-1 0-.1-.1-.2-.1-.3l.3-2.2c0-.4.3-.7.7-.7h.7c.4 0 .7.3.7.7l.4 2.2c0 .1 0 .2-.1.3.9.2 1.7.5 2.5 1 .2 0 .3-.1.3-.2l1.8-1.3c.3-.3.7-.3 1 0l.5.5c.3.3.3.7 0 1L62 8c-.1.1-.1.1-.2.1.5.8.9 1.6 1 2.5.1 0 .2-.1.3-.1l2.2.3c.4 0 .7.3.7.7v1z"/><path fill="#fff" d="M99.9 15c-1.7 0-3-1.3-3-3s1.3-3 3-3 3 1.3 3 3-1.4 3-3 3m1.5-14l-2.5.2-1.3 3.2-1.7.5-2.4-1.5-2.3 1.9 1.5 2.9-.8 1.7-3.3 1.1.3 2.7 3.6.8.4 1.6-1.6 2.5 1.8 2.3 3.4-1.5 1.1.5.9 3.3h2.8l1-3.4 1.4-.5 2.6 1.6 2.3-1.8L107 16l.6-1.6 3.4-1-.2-2.1-3.3-1.5-.6-1.4 1.9-2.9-2.1-2-3 1.4-1.7-.5-.6-3.4" opacity=".65"/><path fill="#0089D9" d="M97.1 9.4c-1.5 1.6-1.5 4.1.1 5.6s4.2 1.5 5.7-.1 1.5-4.1-.1-5.6c-1.6-1.6-4.1-1.5-5.7.1zm4.8 4.6c-1 1.1-2.7 1.1-3.8.1-1.1-1-1.1-2.7-.1-3.8 1-1.1 2.7-1.1 3.8-.1 1.1 1 1.1 2.7.1 3.8zm8.6-4.4l-2-.4c-.1-.3-.3-.7-.4-1l1.1-1.7c.6-.6.6-1.5 0-2.1l-1.5-1.5c-.6-.6-1.5-.6-2.1 0L103.9 4c-.3-.1-.6-.3-.9-.4l-.4-2.1c0-.8-.7-1.5-1.5-1.5H99c-.8 0-1.5.7-1.5 1.5L97 3.7c-.3.1-.6.2-.9.4l-1.7-1.2c-.6-.6-1.5-.6-2.1 0l-1.5 1.5c-.6.6-.6 1.5 0 2.1l1.1 1.7c-.2.3-.3.6-.4 1l-2 .4c-.8 0-1.5.7-1.5 1.5v2.1c0 .8.7 1.5 1.5 1.5l2 .4c.1.3.2.6.4 1l-1.1 1.7c-.6.6-.6 1.5 0 2.1l1.5 1.5c.6.6 1.5.6 2.1 0l1.7-1.1c.3.1.6.3 1 .4l.4 2c0 .8.7 1.5 1.5 1.5h2.1c.8 0 1.5-.7 1.5-1.5l.4-2c.3-.1.7-.3 1-.4l1.7 1.1c.6.6 1.5.6 2.1 0l1.5-1.5c.6-.6.6-1.5 0-2.1l-1.1-1.7c.2-.3.3-.6.4-1l2-.4c.8 0 1.5-.7 1.5-1.5v-2.1c-.1-.9-.8-1.5-1.6-1.5zm-.5 2.9c0 .4-.3.7-.7.7l-2.2.4c-.1 0-.2 0-.3-.1-.2.9-.5 1.7-1.1 2.5.1 0 .2.1.3.2l1.3 1.8c.3.3.3.7 0 1l-.5.5c-.3.3-.7.3-1 0l-1.8-1.3c-.1-.1-.1-.2-.2-.3-.8.5-1.7.9-2.6 1 .1.1.1.2.1.3l-.4 2.2c0 .4-.3.7-.7.7h-.7c-.4 0-.7-.3-.7-.7l-.3-2.2c0-.1 0-.2.1-.4-.9-.2-1.8-.5-2.6-1.1 0 .1-.1.2-.2.3L94 19.3c-.3.3-.7.3-1 0l-.4-.3c-.3-.3-.3-.7 0-1l1.3-1.8c.1-.1.2-.1.3-.2-.5-.8-.9-1.6-1.1-2.5-.1.1-.2.1-.3.1l-2.2-.4c-.4 0-.7-.3-.7-.7v-.7c0-.4.3-.7.7-.7l2.2-.3c.1 0 .2 0 .3.1.2-.9.5-1.8 1-2.5-.1 0-.2-.1-.2-.1l-1.3-1.8c-.3-.3-.3-.7 0-1l.5-.5c.3-.3.7-.3 1 0l1.8 1c.1.1.1.2.2.2.8-.5 1.6-.9 2.5-1 0-.1-.1-.2-.1-.3l.3-2.2c0-.4.3-.7.7-.7h.7c.4 0 .7.3.7.7l.4 2.2c0 .1 0 .2-.1.3.9.2 1.7.5 2.5 1 0-.1.1-.2.1-.2l1.8-1.3c.3-.3.7-.3 1 0l.5.5c.3.3.3.7 0 1L105.8 8c-.1.1-.1.1-.2.1.5.8.9 1.6 1 2.5.1 0 .2-.1.3-.1l2.2.3c.4 0 .7.3.7.7v1z"/></g></svg>