<svg id="Phone" xmlns="http://www.w3.org/2000/svg" width="112" height="24" viewBox="0 0 112 24"><defs><style>.cls-1{fill:#fff;}.cls-1,.cls-2,.cls-3{fill-rule:evenodd;}.cls-2{fill:#646464;}.cls-3{fill:#0089d9;}</style></defs><title>24</title><path class="cls-1" d="M23.52,22.33a5.89,5.89,0,0,1-1.07.13A2,2,0,0,0,23.08,21a2.08,2.08,0,0,0-4.15,0,1.93,1.93,0,0,0,.39,1.15,1.5,1.5,0,0,1-1.7.11,7.71,7.71,0,0,0,.78-0.68c-0.36-2.44-2.9-5.3-5.31-6.5a8.6,8.6,0,0,0-2.94,2.77C8.64,17.35,7.58,15.71,6.67,14l-0.27.15L6.72,14c-1-1.64-1.9-3.37-1.61-5A8.6,8.6,0,0,0,9,7.85C9.14,5.16,7.93,1.53,6,0,1.5,1.2-2.85,6.88,2.42,16.37l-0.07,0c4.53,7.66,10.07,8.51,13.78,6.8a2.56,2.56,0,0,0,4-.26,2.47,2.47,0,0,0,3.77.28C24.13,23.14,23.88,22.54,23.52,22.33ZM4,15.44l0.06,0C1.14,10.3,1,4.36,5.27,2.16A7.11,7.11,0,0,1,7.21,6.4c-0.67.71-2.75,0.85-4,.74a10.74,10.74,0,0,0,2,7.7l-0.06,0a10.75,10.75,0,0,0,5.69,5.63c0.54-1.17,1.71-2.89,2.66-3.12a7.11,7.11,0,0,1,2.7,3.8C12.08,23.8,7,20.62,4,15.44Zm17.66,6.21-1.22,0L20,20h2Z"/><path class="cls-2" d="M67.52,22.33a5.88,5.88,0,0,1-1.07.13A2,2,0,0,0,67.08,21a2.08,2.08,0,0,0-4.15,0,1.93,1.93,0,0,0,.39,1.15,1.5,1.5,0,0,1-1.7.11,7.71,7.71,0,0,0,.78-0.68c-0.36-2.44-2.9-5.3-5.31-6.5a8.6,8.6,0,0,0-2.94,2.77c-1.52-.54-2.57-2.18-3.49-3.88l-0.27.15,0.32-.2c-1-1.64-1.9-3.37-1.61-5A8.6,8.6,0,0,0,53,7.85c0.16-2.68-1-6.31-3-7.85-4.5,1.2-8.85,6.88-3.59,16.37l-0.07,0c4.53,7.66,10.07,8.51,13.78,6.8a2.56,2.56,0,0,0,4-.26,2.47,2.47,0,0,0,3.77.28C68.13,23.14,67.88,22.54,67.52,22.33ZM48,15.44l0.06,0c-2.93-5.11-3.08-11,1.2-13.25A7.11,7.11,0,0,1,51.21,6.4c-0.67.71-2.75,0.85-4,.74a10.73,10.73,0,0,0,2,7.7l-0.06,0a10.75,10.75,0,0,0,5.69,5.63c0.54-1.17,1.71-2.89,2.66-3.12a7.11,7.11,0,0,1,2.7,3.8C56.08,23.8,51,20.62,48,15.44Zm17.66,6.21-1.22,0L64,20h2Z"/><path class="cls-3" d="M111.54,22.33a5.89,5.89,0,0,1-1.07.13,2,2,0,0,0,.63-1.43A2.08,2.08,0,0,0,107,21a1.93,1.93,0,0,0,.39,1.15,1.5,1.5,0,0,1-1.7.11,7.71,7.71,0,0,0,.78-0.68c-0.36-2.44-2.9-5.3-5.31-6.5a8.6,8.6,0,0,0-2.94,2.77c-1.52-.54-2.57-2.18-3.49-3.88l-0.27.15,0.32-.2c-1-1.64-1.9-3.37-1.61-5A8.6,8.6,0,0,0,97,7.85C97.17,5.16,96,1.53,94,0c-4.5,1.2-8.85,6.88-3.59,16.37l-0.07,0c4.53,7.66,10.07,8.51,13.78,6.8a2.56,2.56,0,0,0,4-.26,2.47,2.47,0,0,0,3.77.28C112.15,23.14,111.91,22.54,111.54,22.33ZM92,15.44l0.06,0c-2.93-5.11-3.08-11,1.2-13.25A7.11,7.11,0,0,1,95.23,6.4c-0.67.71-2.75,0.85-4,.74a10.73,10.73,0,0,0,2,7.7l-0.06,0a10.75,10.75,0,0,0,5.69,5.63c0.54-1.17,1.71-2.89,2.66-3.12a7.11,7.11,0,0,1,2.7,3.8C100.11,23.8,95,20.62,92,15.44Zm17.66,6.21-1.22,0L108.07,20h2Z"/></svg>