<svg xmlns="http://www.w3.org/2000/svg" width="112" height="24"><g><path fill="#fff" fill-rule="evenodd" d="M22 3H2C.9 3 0 3.9 0 5v14c0 1.1.9 2 2 2h20c1.1 0 2-.9 2-2V5c0-1.1-.9-2-2-2zm0 16H2V6.1c1.3 1.5 3.7 4.1 5.7 6.3L3 18l5.6-4.6c1.2 1.3 2.1 2.3 2.4 2.6 1 1 1 1 2 0 .3-.3 1.2-1.3 2.4-2.6L21 18l-4.7-5.6c2-2.2 4.4-4.8 5.7-6.3V19zm0-13.9L12 14 2 5l20 .1z" clip-rule="evenodd"/><path fill="#fff" fill-rule="evenodd" d="M46.4 3.4h19c1.1 0 2 .9 2 2v13.3c0 1.1-.9 2-2 2h-19c-1.1 0-2-.9-2-2V5.4c0-1.1.9-2 2-2z" opacity=".65" clip-rule="evenodd"/><path fill="#646464" fill-rule="evenodd" d="M65.9 3h-20c-1.1 0-2 .9-2 2v14c0 1.1.9 2 2 2h20c1.1 0 2-.9 2-2V5c0-1.1-.8-2-2-2zm0 16h-20V6.1c1.3 1.5 3.7 4.1 5.7 6.3L46.9 18l5.6-4.6c1.2 1.3 2.1 2.3 2.4 2.6 1 1 1 1 2 0 .3-.3 1.2-1.3 2.4-2.6l5.6 4.6-4.7-5.6c2-2.2 4.4-4.8 5.7-6.3V19zm0-13.9l-10 8.9-10-9 20 .1z" clip-rule="evenodd"/><path fill="#fff" fill-rule="evenodd" d="M90.5 3.4h19c1.1 0 2 .9 2 2v13.3c0 1.1-.9 2-2 2h-19c-1.1 0-2-.9-2-2V5.4c0-1.1.9-2 2-2z" opacity=".65" clip-rule="evenodd"/><path fill="#0089D9" fill-rule="evenodd" d="M110 3H90c-1.1 0-2 .9-2 2v14c0 1.1.9 2 2 2h20c1.1 0 2-.9 2-2V5c0-1.1-.9-2-2-2zm0 16H90V6.1c1.3 1.5 3.7 4.1 5.7 6.3L91 18l5.6-4.6c1.2 1.3 2.1 2.3 2.4 2.6 1 1 1 1 2 0 .3-.3 1.2-1.3 2.4-2.6L109 18l-4.7-5.6c2-2.2 4.4-4.8 5.7-6.3V19zm0-13.9L100 14 90 5l20 .1z" clip-rule="evenodd"/></g></svg>