<svg xmlns="http://www.w3.org/2000/svg" width="112" height="24"><g><path fill="#fff" fill-rule="evenodd" d="M12.4 16.9c-.5 0-.5 0-.5-.5l1.2-4.7c.1-.7 0-1.5-.7-1.6-1.1-.1-2.7.9-3.4 2 0 .1 0 .1 0 .3 0 0 .9-.6 1.8-.7.1 0 .2.2.1.3l-1.4 4.4c0 .6.9 1.6 1.8 1.6 1.2 0 2-.5 2.7-1.6 0-.1 0-.6 0-.8 0-.1-1.1 1.3-1.6 1.3zM12 0C5.4 0 0 5.4 0 12s5.4 12 12 12 12-5.4 12-12S18.6 0 12 0zm0 22C6.5 22 2 17.5 2 12S6.5 2 12 2s10 4.5 10 10-4.5 10-10 10zm.4-13c.8 0 1.5-.7 1.5-1.5S13.2 6 12.4 6s-1.5.7-1.5 1.5c0 .9.7 1.5 1.5 1.5z" clip-rule="evenodd"/><path fill="#fff" fill-rule="evenodd" d="M55.9.8c6.2 0 11.2 5 11.2 11.2 0 6.2-5 11.2-11.2 11.2s-11.2-5-11.2-11.2C44.7 5.8 49.8.8 55.9.8z" opacity=".65" clip-rule="evenodd"/><path fill="#646464" fill-rule="evenodd" d="M56.4 16.9c-.5 0-.5 0-.5-.5l1.2-4.7c.1-.7 0-1.5-.7-1.6-1.1-.1-2.7.9-3.4 2 0 .1 0 .1 0 .3 0 0 .9-.6 1.8-.7.1 0 .2.2.1.3l-1.4 4.4c-.1.6.8 1.6 1.8 1.6 1.2 0 2-.5 2.7-1.6 0-.1 0-.6 0-.8 0-.1-1.2 1.3-1.6 1.3zM55.9 0c-6.6 0-12 5.4-12 12s5.4 12 12 12 12-5.4 12-12-5.3-12-12-12zm0 22c-5.5 0-10-4.5-10-10s4.5-10 10-10 10 4.5 10 10-4.4 10-10 10zm.4-13c.8 0 1.5-.7 1.5-1.5S57.1 6 56.3 6s-1.5.7-1.5 1.5c0 .9.7 1.5 1.5 1.5z" clip-rule="evenodd"/><path fill="#fff" fill-rule="evenodd" d="M100 .8c6.2 0 11.2 5 11.2 11.2 0 6.2-5 11.2-11.2 11.2-6.2 0-11.2-5-11.2-11.2 0-6.2 5-11.2 11.2-11.2z" opacity=".65" clip-rule="evenodd"/><path fill="#0089D9" fill-rule="evenodd" d="M100.4 16.9c-.5 0-.5 0-.5-.5l1.2-4.7c.1-.7 0-1.5-.7-1.6-1.1-.1-2.7.9-3.4 2 0 .1 0 .1 0 .3 0 0 .9-.6 1.8-.7.1 0 .2.2.1.3l-1.4 4.4c0 .6.9 1.6 1.8 1.6 1.2 0 2-.5 2.7-1.6 0-.1 0-.6 0-.8 0-.1-1.1 1.3-1.6 1.3zM100 0c-6.6 0-12 5.4-12 12s5.4 12 12 12 12-5.4 12-12-5.4-12-12-12zm0 22c-5.5 0-10-4.5-10-10s4.5-10 10-10 10 4.5 10 10-4.5 10-10 10zm.4-13c.8 0 1.5-.7 1.5-1.5s-.7-1.5-1.5-1.5-1.5.7-1.5 1.5c0 .9.6 1.5 1.5 1.5z" clip-rule="evenodd"/></g></svg>