<svg xmlns="http://www.w3.org/2000/svg" width="112" height="24"><g><path fill="#fff" fill-rule="evenodd" d="M14 18c-1.1 0-2 .9-2 2s.9 2 2 2 2-.9 2-2-.9-2-2-2zm0 2.9c-.5 0-.9-.4-.9-.9s.4-.9.9-.9.9.4.9.9-.4.9-.9.9zM9 18c-1.1 0-2 .9-2 2s.9 2 2 2 2-.9 2-2-.9-2-2-2zm0 2.9c-.5 0-.9-.4-.9-.9s.4-.9.9-.9.9.4.9.9-.4.9-.9.9zM22.2 3.8c-.8.1-11.5.6-15.6-.2C5.5 1.6 4.5 1 1.9 1c-2.9 0-2 2.9-.7 3 1 .1 1.7-.3 1.9-.9 1.1.1 2.9 1.5 3.4 12 .1 1.1 1.2 1.9 2.4 1.9 2-.1 7.1-.2 9.5-.9 2.2-.7 4.9-2.3 5.5-9.8.2-2-.2-2.6-1.7-2.5zm-.1 3.5c-.1 1.5-.6 3.1-1.4 4.7-1.1 2.2-3.5 3-10.9 3.1-1.1 0-1.6-1.1-1.7-2.2 0-2.4-.5-5.3-1.1-7.2 3.1.3 11 .5 13.9.2 1.1-.2 1.3-.1 1.2 1.4zM12.5 10c-.8 0-1.5.7-1.5 1.5s.7 1.5 1.5 1.5 1.5-.7 1.5-1.5-.6-1.5-1.5-1.5zm.5 2h-1v-1h1v1zm-1-3.5c0-.8-.6-1.5-1.5-1.5S9 7.7 9 8.5s.7 1.5 1.5 1.5S12 9.3 12 8.5zM11 9h-1V8h1v1zm5-.5c0-.8-.6-1.5-1.5-1.5S13 7.7 13 8.5s.7 1.5 1.5 1.5S16 9.3 16 8.5zM15 9h-1V8h1v1zm3.5-2c-.8 0-1.5.7-1.5 1.5s.7 1.5 1.5 1.5S20 9.3 20 8.5 19.4 7 18.5 7zm.5 2h-1V8h1v1zm-2.5 1c-.8 0-1.5.7-1.5 1.5s.7 1.5 1.5 1.5 1.5-.7 1.5-1.5-.6-1.5-1.5-1.5zm.5 2h-1v-1h1v1z" clip-rule="evenodd"/><path fill="#fff" fill-rule="evenodd" d="M57.9 18.3c.9 0 1.7.8 1.7 1.7 0 .9-.8 1.7-1.7 1.7-.9 0-1.7-.8-1.7-1.7 0-.9.8-1.7 1.7-1.7zM52.9 18.3c.9 0 1.7.8 1.7 1.7 0 .9-.8 1.7-1.7 1.7-.9 0-1.7-.8-1.7-1.7.1-.9.8-1.7 1.7-1.7zM50.1 5.2c3.4.3 12.2.5 15.5.1 1.2-.1 1.4-.1 1.3 1.6-.2 1.6-.7 3.5-1.5 5.2-1.2 2.5-3.9 3.3-12.1 3.4-1.2 0-1.8-1.3-1.8-2.4-.2-2.6-.7-5.8-1.4-7.9z" opacity=".65" clip-rule="evenodd"/><path fill="#646464" fill-rule="evenodd" d="M66.1 3.8c-.8.1-11.5.5-15.6-.2-1.1-2-2.1-2.6-4.7-2.6-2.9 0-2 2.9-.7 3 1 .1 1.7-.3 1.9-.9 1.1.1 2.9 1.5 3.4 12 .1 1.1 1.2 1.9 2.4 1.9 2-.1 7.1-.2 9.5-.9 2.2-.7 4.9-2.3 5.5-9.8.2-2-.2-2.6-1.7-2.5zM66 7.3c-.1 1.5-.6 3.1-1.4 4.7-1.1 2.2-3.5 3-10.9 3.1-1.1 0-1.6-1.1-1.7-2.2-.1-2.3-.6-5.3-1.2-7.1 3.2.2 11.1.4 14.1.1 1-.2 1.3-.1 1.1 1.4zM57.9 18c-1.1 0-2 .9-2 2s.9 2 2 2 2-.9 2-2-.8-2-2-2zm0 2.9c-.5 0-.9-.4-.9-.9s.4-.9.9-.9.9.4.9.9-.4.9-.9.9zm-5-2.9c-1.1 0-2 .9-2 2s.9 2 2 2 2-.9 2-2-.8-2-2-2zm0 2.9c-.5 0-.9-.4-.9-.9s.4-.9.9-.9.9.4.9.9-.4.9-.9.9zm7-12.4c0-.8-.7-1.5-1.5-1.5s-1.5.7-1.5 1.5.7 1.5 1.5 1.5 1.5-.7 1.5-1.5zm-1 .5h-1V8h1v1zm3.5-2c-.8 0-1.5.7-1.5 1.5s.7 1.5 1.5 1.5 1.5-.7 1.5-1.5S63.3 7 62.4 7zm.5 2h-1V8h1v1zm-6.5 1c-.8 0-1.5.7-1.5 1.5s.7 1.5 1.5 1.5 1.5-.7 1.5-1.5-.6-1.5-1.5-1.5zm.5 2h-1v-1h1v1zm-1-3.5c0-.8-.7-1.5-1.5-1.5s-1.5.7-1.5 1.5.7 1.5 1.5 1.5 1.5-.7 1.5-1.5zm-1 .5h-1V8h1v1zm5.5 1c-.8 0-1.5.7-1.5 1.5s.7 1.5 1.5 1.5 1.5-.7 1.5-1.5-.6-1.5-1.5-1.5zm.5 2h-1v-1h1v1z" clip-rule="evenodd"/><path fill="#fff" fill-rule="evenodd" d="M102 18.3c.9 0 1.7.8 1.7 1.7 0 .9-.8 1.7-1.7 1.7-.9 0-1.7-.8-1.7-1.7 0-.9.8-1.7 1.7-1.7zM97 18.3c.9 0 1.7.8 1.7 1.7 0 .9-.8 1.7-1.7 1.7-.9 0-1.7-.8-1.7-1.7 0-.9.8-1.7 1.7-1.7zM94.1 5.2c3.4.3 12.2.5 15.5.1 1.2-.1 1.4-.1 1.3 1.6-.2 1.6-.7 3.5-1.5 5.2-1.2 2.5-3.9 3.3-12.1 3.4-1.2 0-1.8-1.3-1.8-2.4-.1-2.6-.7-5.8-1.4-7.9z" opacity=".65" clip-rule="evenodd"/><path fill="#0089D9" fill-rule="evenodd" d="M100 8.5c0-.8-.7-1.5-1.5-1.5S97 7.7 97 8.5s.7 1.5 1.5 1.5 1.5-.7 1.5-1.5zM99 9h-1V8h1v1zm3 9c-1.1 0-2 .9-2 2s.9 2 2 2 2-.9 2-2-.9-2-2-2zm0 2.9c-.5 0-.9-.4-.9-.9s.4-.9.9-.9.9.4.9.9-.4.9-.9.9zM97 18c-1.1 0-2 .9-2 2s.9 2 2 2 2-.9 2-2-.9-2-2-2zm0 2.9c-.5 0-.9-.4-.9-.9s.4-.9.9-.9.9.4.9.9-.4.9-.9.9zM106.5 7c-.8 0-1.5.7-1.5 1.5s.7 1.5 1.5 1.5 1.5-.7 1.5-1.5-.7-1.5-1.5-1.5zm.5 2h-1V8h1v1zm3.2-5.2c-.8.1-11.5.5-15.6-.2-1.1-2-2.1-2.6-4.7-2.6-2.9 0-2 2.9-.7 3 1 .1 1.7-.3 1.9-.9 1.1.1 2.9 1.5 3.4 12 .1 1.1 1.2 1.9 2.4 1.9 2-.1 7.1-.2 9.5-.9 2.2-.7 4.9-2.3 5.5-9.8.2-2-.3-2.6-1.7-2.5zm-.1 3.5c-.1 1.5-.6 3.1-1.4 4.7-1.1 2.2-3.5 3-10.9 3.1-1.1 0-1.6-1.1-1.7-2.2-.1-2.3-.6-5.3-1.2-7.1 3.1.3 11 .4 13.9.1 1.2-.2 1.4-.1 1.3 1.4zm-5.6 2.7c-.8 0-1.5.7-1.5 1.5s.7 1.5 1.5 1.5 1.5-.7 1.5-1.5-.7-1.5-1.5-1.5zm.5 2h-1v-1h1v1zm-4.5-2c-.8 0-1.5.7-1.5 1.5s.7 1.5 1.5 1.5 1.5-.7 1.5-1.5-.7-1.5-1.5-1.5zm.5 2h-1v-1h1v1zm3-3.5c0-.8-.7-1.5-1.5-1.5s-1.5.7-1.5 1.5.7 1.5 1.5 1.5 1.5-.7 1.5-1.5zm-1 .5h-1V8h1v1z" clip-rule="evenodd"/></g></svg>