<svg xmlns="http://www.w3.org/2000/svg" width="112" height="24"><g><path fill="#fff" fill-rule="evenodd" d="M15.6 6.9c-.3-1.8-1.5-1.8-1.6-2.6-1.7 1.1-4 0-5.1 2.7 1.5-1.7 4.2.3 4.8-1.5.3 1 1.3.8 1.9 1.4zm6.1 13.6c-1.5-1-4.2-2.7-5.2-3.4-.2-.2-.3-.4-.7-.3-.1-.3-.1-.8-.1-.9.8-.8 1-1.6 1.1-2.7 1.3-.3 2.3-2.4 2.1-3.6-.1-.7-.6-1.4-1.3-1.5.4-1.1.7-.9.7-2.6 0-1.3-.8-3.2-2.8-3.3-.7-1.3-2.2-2.1-4-2.1C8.7 0 5.7 2 5.7 5.4c0 1.4.3 1.5.7 2.6-.7.1-1.4.8-1.4 1.5-.1 1.2.8 3.3 2.1 3.6.1 1.1.3 2 1.1 2.8.1.2.1.6 0 1-.3 0-.5.1-.7.3-.9.8-4.2 2.7-5.9 3.8 0 0 0 .1-.1.1-.3.2-.5.6-.5.9 0 2.7 22 2.6 22 0 0-.6-.3-1.2-1.3-1.5zM4.1 21.6c1.8-1.1 4.4-2.5 5.5-3.3 0 0 1.1-1.5.1-3.2-.3-.5-.8-1-.8-2.1 0-.7-.5-1.2-1.1-1.4-.4-.2-.9-1.8-.8-2.2 1 .1 1.8-1.1 1.4-1.8-2.9-6.1 4.8-7.6 6.2-3.9 1.7-.7 2.4 2.8.8 4.1-.6 1.2 1.4 1.4 1.4 1.4.1.6-.3 1.9-.7 2.2-.7.1-1.3.7-1.3 1.5 0 1.5-.3 1.8-.7 2.3-.7 1.6.4 2.9.4 2.9 1.1.8 3.8 2.5 5.4 3.5-3.3 1.2-12.4 1.1-15.8 0z" clip-rule="evenodd"/><path fill="#fff" fill-opacity=".65" fill-rule="evenodd" d="M60.2 17.2c1 .7 3.5 2.3 5 3.3 1 .3 1.3.8 1.3 1.4 0 2.5-21.1 2.6-21.1 0 0-.3.1-.6.5-.9 0 0 0-.1.1-.1 1.6-1 4.8-2.9 5.7-3.7.3-.2.4-.4.7-.3.1-.3.1-1 0-1.2-.7-.7-1-1.6-1-2.6-1.2-.3-2.1-2.3-2-3.5 0-.6.7-1.3 1.3-1.5-.4-1-.6-1.1-.6-2.5 0-3.2 2.9-5.2 5.6-5.2 1.7 0 3.1.7 3.8 2 1.9.1 2.7 2 2.7 3.2 0 1.6-.3 1.4-.7 2.5.6.2 1.2.8 1.3 1.5.1 1.1-.8 3.2-2 3.5-.1 1.1-.3 1.9-1.1 2.6-.1.1 0 .9.1 1.2.1-.1.2.1.4.3z" clip-rule="evenodd"/><path fill="#646464" fill-rule="evenodd" d="M59.6 6.9c-.3-1.8-1.5-1.8-1.6-2.6-1.7 1.2-4 .1-5.1 2.7 1.5-1.7 4.2.3 4.8-1.5.3 1 1.2.8 1.9 1.4zm6 13.6c-1.5-1-4.2-2.7-5.2-3.4-.2-.2-.3-.4-.7-.3-.1-.3-.1-.8-.1-.9.8-.8 1-1.6 1.1-2.7 1.3-.3 2.3-2.4 2.1-3.6-.1-.7-.6-1.4-1.3-1.5.4-1.1.7-.9.7-2.6 0-1.3-.8-3.2-2.8-3.3-.7-1.3-2.2-2.1-4-2.1-2.9 0-5.8 2-5.8 5.4 0 1.4.3 1.5.7 2.6-.7 0-1.3.7-1.3 1.4-.1 1.2.8 3.3 2.1 3.6.1 1.1.3 2 1.1 2.8.1.2.1.6 0 1-.3 0-.5.1-.7.3-.9.8-4.2 2.7-5.9 3.8 0 0 0 .1-.1.1-.3.3-.5.6-.5.9 0 2.7 22 2.6 22 0-.1-.6-.4-1.2-1.4-1.5zm-17.5 1.1c1.8-1.1 4.4-2.5 5.5-3.3 0 0 1.1-1.5.1-3.2-.3-.5-.8-1-.8-2.1 0-.7-.5-1.2-1.1-1.4-.3-.2-.8-1.8-.7-2.3 1 .1 1.8-1.1 1.4-1.8-2.9-6.1 4.7-7.5 6.2-3.9 1.5-.6 2.3 2.9.7 4.2-.6 1.2 1.4 1.4 1.4 1.4.1.6-.3 1.9-.7 2.2-.7.1-1.3.7-1.3 1.5 0 1.5-.3 1.8-.7 2.3-.7 1.6.4 2.9.4 2.9 1.1.8 3.8 2.5 5.4 3.5-3.3 1.2-12.5 1.1-15.8 0z" clip-rule="evenodd"/><path fill="#fff" fill-rule="evenodd" d="M104.3 17.2c1 .7 3.5 2.3 5 3.3 1 .3 1.3.8 1.3 1.4 0 2.5-21.1 2.6-21.1 0 0-.3.1-.6.5-.9 0 0 0-.1.1-.1 1.6-1 4.8-2.9 5.7-3.7.3-.2.4-.4.7-.3.1-.3.1-1 0-1.2-.7-.7-1-1.6-1-2.6-1.2-.3-2.1-2.3-2-3.5 0-.6.7-1.3 1.3-1.5-.4-1-.6-1.1-.6-2.5 0-3.2 2.9-5.2 5.6-5.2 1.7 0 3.1.7 3.8 2 1.9.1 2.7 2 2.7 3.2 0 1.6-.3 1.4-.7 2.5.6.2 1.2.8 1.3 1.5.1 1.1-.8 3.2-2 3.5-.1 1.1-.3 1.9-1.1 2.6-.1.1 0 .9.1 1.2 0-.1.2.1.4.3z" opacity=".65" clip-rule="evenodd"/><path fill="#0089D9" fill-rule="evenodd" d="M103.6 6.9c-.3-1.8-1.5-1.8-1.6-2.6-1.7 1.2-4 .1-5.1 2.7 1.5-1.7 4.2.3 4.8-1.5.3 1 1.3.8 1.9 1.4zm6.1 13.6c-1.5-1-4.2-2.7-5.2-3.4-.2-.2-.3-.4-.7-.3-.1-.3-.1-.8-.1-.9.8-.8 1-1.6 1.1-2.7 1.3-.3 2.3-2.4 2.1-3.6-.1-.7-.6-1.4-1.3-1.5.4-1.1.7-.9.7-2.6 0-1.3-.8-3.2-2.8-3.3-.7-1.3-2.2-2.1-4-2.1-2.9 0-5.8 2-5.8 5.4 0 1.4.3 1.5.7 2.6-.7 0-1.4.7-1.4 1.4-.1 1.2.8 3.3 2.1 3.6.1 1.1.3 2 1.1 2.8.1.2.1.6 0 1-.3 0-.5.1-.7.3-.9.8-4.2 2.7-5.9 3.8 0 0 0 .1-.1.1-.3.2-.5.6-.5.9 0 2.7 22 2.6 22 0 0-.6-.3-1.2-1.3-1.5zm-17.6 1.1c1.8-1.1 4.4-2.5 5.5-3.3 0 0 1.1-1.5.1-3.2-.3-.5-.8-1-.8-2.1 0-.7-.5-1.2-1.1-1.4-.3-.2-.8-1.8-.7-2.3 1 .1 1.8-1.1 1.4-1.8-2.9-6.1 4.7-7.5 6.2-3.9 1.7-.7 2.4 2.8.8 4.2-.6 1.2 1.4 1.4 1.4 1.4.1.6-.3 1.9-.7 2.2-.7.1-1.3.7-1.3 1.5 0 1.5-.3 1.8-.7 2.3-.7 1.6.4 2.9.4 2.9 1.1.8 3.8 2.5 5.4 3.5-3.4 1.2-12.5 1.1-15.9 0z" clip-rule="evenodd"/></g></svg>