<svg xmlns="http://www.w3.org/2000/svg" width="112" height="24"><g><path fill="#fff" fill-rule="evenodd" d="M9 19h2v-2H9v2zm0-4h2v-2H9v2zm-4 4h2v-2H5v2zm4-8h2V9H9v2zm-4 4h2v-2H5v2zm12-4h2V9h-2v2zm-4 8h2v-2h-2v2zm8-16h-2V2c0-.6-.4-1-1-1s-1 .4-1 1v1H7V2c0-.6-.4-1-1-1-.5 0-1 .4-1 1v1H3c-1.1 0-2 .9-2 2v16c0 1.1.9 2 2 2h18c1.1 0 2-.9 2-2V5c0-1.1-.9-2-2-2zm0 17c0 .6-.4 1-1 1H4c-.6 0-1-.4-1-1V6c0-.6.4-1 1-1h1v1c0 .6.4 1 1 1s1-.4 1-1V5h10v1c0 .6.4 1 1 1s1-.4 1-1V5h1c.6 0 1 .4 1 1v14zm-8-9h2V9h-2v2zm0 4h2v-2h-2v2zm4 0h2v-2h-2v2z" clip-rule="evenodd"/><path fill="#fff" fill-rule="evenodd" d="M47.3 3.4h17.4c1.1 0 1.9.9 1.9 1.9v15.4c0 1.1-.9 1.9-1.9 1.9H47.3c-1.1 0-1.9-.9-1.9-1.9V5.3c-.1-1.1.8-1.9 1.9-1.9z" opacity=".65" clip-rule="evenodd"/><path fill="#646464" fill-rule="evenodd" d="M52.9 15h2v-2h-2v2zm0-4h2V9h-2v2zm4 8h2v-2h-2v2zm-8-4h2v-2h-2v2zm0 4h2v-2h-2v2zm4 0h2v-2h-2v2zm8-8h2V9h-2v2zm-4 4h2v-2h-2v2zm8-12h-2V2c0-.6-.4-1-1-1s-1 .4-1 1v1h-10V2c0-.6-.4-1-1-1s-1 .4-1 1v1h-2c-1.1 0-2 .9-2 2v16c0 1.1.9 2 2 2h18c1.1 0 2-.9 2-2V5c0-1.1-.8-2-2-2zm0 17c0 .6-.4 1-1 1h-16c-.6 0-1-.4-1-1V6c0-.6.4-1 1-1h1v1c0 .6.4 1 1 1s1-.4 1-1V5h10v1c0 .6.4 1 1 1s1-.4 1-1V5h1c.6 0 1 .4 1 1v14zm-8-9h2V9h-2v2zm4 4h2v-2h-2v2z" clip-rule="evenodd"/><path fill="#fff" fill-rule="evenodd" d="M91.3 3.4h17.4c1.1 0 1.9.9 1.9 1.9v15.4c0 1.1-.9 1.9-1.9 1.9H91.3c-1.1 0-1.9-.9-1.9-1.9V5.3c0-1.1.9-1.9 1.9-1.9z" opacity=".65" clip-rule="evenodd"/><path fill="#0089D9" fill-rule="evenodd" d="M97 15h2v-2h-2v2zm0-4h2V9h-2v2zm0 8h2v-2h-2v2zm-4 0h2v-2h-2v2zm0-4h2v-2h-2v2zm8-4h2V9h-2v2zm0 8h2v-2h-2v2zm4-8h2V9h-2v2zm-4 4h2v-2h-2v2zm8-12h-2V2c0-.6-.4-1-1-1s-1 .4-1 1v1H95V2c0-.6-.4-1-1-1s-1 .4-1 1v1h-2c-1.1 0-2 .9-2 2v16c0 1.1.9 2 2 2h18c1.1 0 2-.9 2-2V5c0-1.1-.9-2-2-2zm0 17c0 .6-.4 1-1 1H92c-.6 0-1-.4-1-1V6c0-.6.4-1 1-1h1v1c0 .6.4 1 1 1s1-.4 1-1V5h10v1c0 .6.4 1 1 1s1-.4 1-1V5h1c.6 0 1 .4 1 1v14zm-4-5h2v-2h-2v2z" clip-rule="evenodd"/></g></svg>