<svg xmlns="http://www.w3.org/2000/svg" width="112" height="24"><g><path fill="#fff" fill-rule="evenodd" d="M22.9 7.3c-.8-.8-5.3-5.3-6.1-6.1-.8-.8-2.3-.8-3 0 2.7 7.5-8 7.3-8 7.2-.8.8-.8 2.3 0 3 .2.4 1.2 1.3 2.3 2.5L1 23l9.2-7.1c1.1 1.1 2.1 2.1 2.4 2.4.7.7 2.3.7 3 0 0 0-.3-10.8 7.2-8 .9-.8.8-2.2.1-3zm-7.6 3.4c-.8 1.3-1.4 3-1.7 5.1 0 .2 0 .4-.1.5l-5.8-5.8c.2 0 .3 0 .5-.1 2-.3 3.7-.8 5-1.7 1.9-1.2 2.9-2.9 3-5l4 4c-2 .1-3.7 1.1-4.9 3z" clip-rule="evenodd"/><path fill="#fff" fill-rule="evenodd" d="M65.9 9c.7-.7.9-.8.2-1.5s-5-5-5.7-5.7c-.7-.7-.8-.5-1.6.2 2.5 7-8.7 6.6-8.6 6.5-.7.7-.7 2.1 0 2.8.7.7 5.7 5.7 6.3 6.3.7.7 2.1.7 2.8 0 .2.1-.4-11.2 6.6-8.6z" opacity=".65" clip-rule="evenodd"/><path fill="#646464" fill-rule="evenodd" d="M66.8 7.3c-.8-.8-5.4-5.3-6.1-6.1-.8-.8-2.3-.8-3 0 2.7 7.5-8 7.3-8 7.2-.8.8-.8 2.3 0 3 .3.3 1.3 1.3 2.4 2.4L44.9 23l9.2-7.1c1.1 1.1 2.1 2.1 2.4 2.4.7.7 2.3.7 3 0 0 0-.3-10.8 7.2-8 .9-.8.8-2.2.1-3zm-7.6 3.4c-.8 1.3-1.4 3-1.7 5.1 0 .2 0 .4-.1.5l-5.8-5.8c.2 0 .3 0 .5-.1 2-.3 3.7-.8 5-1.7 1.9-1.2 2.9-2.9 3-5l4 4c-2 .1-3.7 1.1-4.9 3z" clip-rule="evenodd"/><path fill="#fff" fill-rule="evenodd" d="M109.6 9c.7-.7.9-.8.2-1.5s-5-5-5.7-5.7c-.7-.7-.8-.5-1.6.2 2.5 7-8.7 6.6-8.6 6.5-.7.7-.7 2.1 0 2.8.7.7 5.7 5.7 6.3 6.3.7.7 2.1.7 2.8 0 .1.1-.4-11.2 6.6-8.6z" opacity=".65" clip-rule="evenodd"/><path fill="#0089D9" fill-rule="evenodd" d="M110.4 7.3c-.8-.8-5.3-5.3-6.1-6.1-.8-.8-2.3-.8-3 0 2.7 7.5-8 7.3-8 7.2-.8.8-.8 2.3 0 3 .3.3 1.3 1.3 2.4 2.4L88.6 23l9.2-7.1c1.1 1.1 2.1 2.1 2.4 2.4.7.7 2.3.7 3 0 0 0-.3-10.8 7.2-8 .8-.8.8-2.2 0-3zm-7.5 3.4c-.8 1.3-1.4 3-1.7 5.1 0 .2 0 .4-.1.5l-5.8-5.8c.2 0 .3 0 .5-.1 2-.3 3.7-.8 5-1.7 1.9-1.2 2.9-2.9 3-5l4 4c-2 .1-3.8 1.1-4.9 3z" clip-rule="evenodd"/></g></svg>