<?xml version="1.0" encoding="utf-8"?>
<!-- Generator: Adobe Illustrator 19.1.1, SVG Export Plug-In . SVG Version: 6.00 Build 0)  -->
<!DOCTYPE svg PUBLIC "-//W3C//DTD SVG 1.1//EN" "http://www.w3.org/Graphics/SVG/1.1/DTD/svg11.dtd">
<svg version="1.1" id="Favourites" xmlns="http://www.w3.org/2000/svg" xmlns:xlink="http://www.w3.org/1999/xlink" x="0px" y="0px"
	 width="112px" height="24px" viewBox="-1193 1239 112 24" style="enable-background:new -1193 1239 112 24;" xml:space="preserve">
<style type="text/css">
	.st0{fill:#0089D9;}
	.st1{fill:#646464;}
	.st2{fill:#FFFFFF;}
</style>
<path id="Blue" class="st0" d="M-1093,1242.7c2.8,6.7,1.8,5.9,8.9,6.5c-5.4,4.7-5,3.4-3.4,10.5c-6.2-3.8-4.8-3.8-11,0
	c1.6-7,2-5.8-3.4-10.5C-1094.8,1248.6-1095.7,1249.3-1093,1242.7 M-1094.1,1240.2c0,0.1-2.8,6.3-2.9,6.4c-0.1,0.1-6.8,0.7-6.9,0.7
	c-1.1,0.1-1.5,1.5-0.7,2.2c0.1,0.1,5.2,4.5,5.2,4.6c0,0.1-1.5,6.7-1.5,6.8c-0.2,1,0.9,1.9,1.9,1.4c0.1-0.1,5.9-3.6,6-3.6
	c0.1,0,5.9,3.5,6,3.6c0.9,0.6,2.1-0.3,1.9-1.4c0-0.1-1.6-6.7-1.5-6.8c0-0.1,5.2-4.6,5.2-4.6c0.8-0.7,0.4-2.1-0.7-2.2
	c-0.1,0-6.8-0.6-6.9-0.7c-0.1-0.1-2.8-6.3-2.9-6.4C-1092.3,1239.3-1093.7,1239.3-1094.1,1240.2z M-1097.4,1250.5l1.4,1.4
	c0.5,0.5-0.2,1.2-0.7,0.7l-1.4-1.4C-1098.6,1250.7-1097.9,1250-1097.4,1250.5z"/>
<path id="Gray" class="st1" d="M-1137,1242.7c2.8,6.7,1.8,5.9,8.9,6.5c-5.4,4.7-5,3.4-3.4,10.5c-6.2-3.8-4.8-3.8-11,0
	c1.6-7,2-5.8-3.4-10.5C-1138.8,1248.6-1139.7,1249.3-1137,1242.7 M-1138.1,1240.2c0,0.1-2.8,6.3-2.9,6.4c-0.1,0.1-6.8,0.7-6.9,0.7
	c-1.1,0.1-1.5,1.5-0.7,2.2c0.1,0.1,5.2,4.5,5.2,4.6c0,0.1-1.5,6.7-1.5,6.8c-0.2,1,0.9,1.9,1.9,1.4c0.1-0.1,5.9-3.6,6-3.6
	c0.1,0,5.9,3.5,6,3.6c0.9,0.6,2.1-0.3,1.9-1.4c0-0.1-1.6-6.7-1.5-6.8c0-0.1,5.2-4.6,5.2-4.6c0.8-0.7,0.4-2.1-0.7-2.2
	c-0.1,0-6.8-0.6-6.9-0.7c-0.1-0.1-2.8-6.3-2.9-6.4C-1136.3,1239.3-1137.7,1239.3-1138.1,1240.2z M-1141.4,1250.5l1.4,1.4
	c0.5,0.5-0.2,1.2-0.7,0.7l-1.4-1.4C-1142.6,1250.7-1141.9,1250-1141.4,1250.5z"/>
<path id="White" class="st2" d="M-1181,1242.7c2.8,6.7,1.8,5.9,8.9,6.5c-5.4,4.7-5,3.4-3.4,10.5c-6.2-3.8-4.8-3.8-11,0
	c1.6-7,2-5.8-3.4-10.5C-1182.8,1248.6-1183.7,1249.3-1181,1242.7 M-1182.1,1240.2c0,0.1-2.8,6.3-2.9,6.4c-0.1,0.1-6.8,0.7-6.9,0.7
	c-1.1,0.1-1.5,1.5-0.7,2.2c0.1,0.1,5.2,4.5,5.2,4.6c0,0.1-1.5,6.7-1.5,6.8c-0.2,1,0.9,1.9,1.9,1.4c0.1-0.1,5.9-3.6,6-3.6
	c0.1,0,5.9,3.5,6,3.6c0.9,0.6,2.1-0.3,1.9-1.4c0-0.1-1.6-6.7-1.5-6.8c0-0.1,5.2-4.6,5.2-4.6c0.8-0.7,0.4-2.1-0.7-2.2
	c-0.1,0-6.8-0.6-6.9-0.7c-0.1-0.1-2.8-6.3-2.9-6.4C-1180.3,1239.3-1181.7,1239.3-1182.1,1240.2z M-1185.4,1250.5l1.4,1.4
	c0.5,0.5-0.2,1.2-0.7,0.7l-1.4-1.4C-1186.6,1250.7-1185.9,1250-1185.4,1250.5z"/>
</svg>
