<svg xmlns="http://www.w3.org/2000/svg" width="112" height="24"><g><path fill="#fff" fill-rule="evenodd" d="M23.7 22.2l-3.1-3.1c-.3-.3-.7-.3-1-.2l-.5-.5c1.8-2 2.9-4.5 2.9-7.4 0-6.1-4.9-11-11-11S0 4.9 0 11s4.9 11 11 11c2.9 0 5.4-1.1 7.4-2.9l.6.6c-.1.4 0 .7.2 1l3.1 3.1c.4.4 1.1.3 1.4-.1.4-.4.4-1.1 0-1.5zM11 20c-5 0-9-4-9-9s4-9 9-9 9 4 9 9-4 9-9 9zm-6-5c-.6-4.1 1-8.9 2.9-10.5C4 5.9 2.9 12 5 15z" clip-rule="evenodd"/><path fill="#fff" fill-rule="evenodd" d="M65.3 11c0 5.7-4.6 10.3-10.3 10.3S44.6 16.7 44.6 11C44.6 5.3 49.2.7 54.9.7S65.3 5.3 65.3 11z" opacity=".65" clip-rule="evenodd"/><path fill="#646464" fill-rule="evenodd" d="M67.7 22.2l-3.1-3.1c-.3-.3-.7-.3-1-.2l-.6-.5c1.8-2 2.9-4.5 2.9-7.4 0-6.1-4.9-11-11-11s-11 4.9-11 11 4.9 11 11 11c2.9 0 5.4-1.1 7.4-2.9l.6.6c-.1.4 0 .7.2 1l3.1 3.1c.4.4 1.1.3 1.4-.1.4-.4.5-1.1.1-1.5zM54.9 20c-5 0-9-4-9-9s4-9 9-9 9 4 9 9-4 9-9 9zM49 15c-.7-4.1.9-8.8 2.8-10.5C48 5.9 46.9 12 49 15z" clip-rule="evenodd"/><path fill="#fff" fill-rule="evenodd" d="M109.3 11c0 5.7-4.6 10.3-10.3 10.3S88.6 16.7 88.6 11C88.6 5.3 93.2.7 98.9.7s10.4 4.6 10.4 10.3z" opacity=".65" clip-rule="evenodd"/><path fill="#0089D9" fill-rule="evenodd" d="M111.7 22.2l-3.1-3.1c-.3-.3-.7-.3-1-.2l-.5-.5c1.8-2 2.9-4.5 2.9-7.4 0-6.1-4.9-11-11-11S88 4.9 88 11s4.9 11 11 11c2.9 0 5.4-1.1 7.4-2.9l.6.6c-.1.4 0 .7.2 1l3.1 3.1c.4.4 1.1.3 1.4-.1.4-.4.4-1.1 0-1.5zM99 20c-5 0-9-4-9-9s4-9 9-9 9 4 9 9-4.1 9-9 9zm-6-5c-.7-4.1.9-8.8 2.8-10.5C92 5.9 90.9 12 93 15z" clip-rule="evenodd"/></g></svg>