<svg xmlns="http://www.w3.org/2000/svg" width="112" height="24"><g><path fill="#fff" d="M22 11v-1c0-1.1-.9-2-2-2h-1.5v2H20v1h-2V4l-3-3H6v10H4V7s.1 0 1.5 0V5H4c-1.1 0-2 .9-2 2v4H0l2 12h20l2-12h-2zM7 2h7v3h3v6H7V2zm13.3 19H3.7l-1.4-8h19.5l-1.5 8z"/><path fill="#fff" d="M58 1.5h-7v4h-3.5l-.5 1v5h-2l2 10h18l1.9-10H65V8.7l-1-.3h-3v-4h-3V1.5" opacity=".65"/><path fill="#646464" d="M65.9 11v-1c0-1.1-.9-2-2-2h-1.5v2h1.5v1h-2V4l-3-3h-9v10h-2V7s.1 0 1.5 0V5H48c-1.1 0-2 .9-2 2v4h-2l2 12h20l2-12h-2.1zm-15-9h7v3h3v6h-10V2zm13.4 19H47.6l-1.4-8h19.5l-1.4 8z"/><path fill="#fff" d="M102 1.5h-7v4h-3.5l-.5 1v5h-2l2 10h18l1.9-10H109V8.7l-1-.3h-3v-4h-3V1.5" opacity=".65"/><path fill="#0089D9" d="M110 11v-1c0-1.1-.9-2-2-2h-1.5v2h1.5v1h-2V4l-3-3h-9v10h-2V7h1.5V5H92c-1.1 0-2 .9-2 2v4h-2l2 12h20l2-12h-2zM95 2h7v3h3v6H95V2zm13.3 19H91.7l-1.4-8h19.5l-1.5 8z"/></g></svg>