<svg xmlns="http://www.w3.org/2000/svg" width="112" height="24"><g><path fill="#fff" d="M4 18.6c1.4-.9 3-2 3.8-2.6 0 0 .8-1.5 0-3-.2-.4-.7-.9-.7-1.9 0-.6-.6-1.3-1.1-1.4-.3-.2-.6-.8-.5-1.3.9.1 1.2-.9 1-1.5C4 1.6 10.4.4 11.6 3.6c1.4-.6 2.3 1.8.9 3-.5 1 1 1.5 1 1.5.1.5-.4 1.6-.7 1.8-.6.1-1.1.8-1.1 1.4 0 .4 0 .7-.1 1 .9-1 2-1.7 3.3-2.1.4-.7.6-1.4.5-2-.1-.6-.6-1.2-1.1-1.4.4-.9.6-.8.6-2.3 0-1.1-.7-2.8-2.4-2.9C11.9.6 10.6 0 9.1 0 6.6 0 4 1.7 4 4.7c0 1.2.3 1.3.6 2.3-.5.1-1.1.7-1.1 1.3-.1 1 .8 2.9 1.9 3.1 0 1 .4 1.7 1 2.4.1.2.1.7 0 .9-.3 0-.6 0-.8.2-.8.7-3.7 2.4-5.1 3.4-.1.1-.1.1 0 .2-.3.3-.5.5-.5.7 0 1.3 5.9 1.9 11.1 1.7-.4-.6-.7-1.2-.9-1.8-2.2.1-4.5-.1-6.2-.5zm7.2-14.9c-1.5 1.1-3.4 0-4.4 2.4 1.3-1.4 3.7.3 4.1-1.3.3.8 1.1.7 1.7 1.2-.3-1.5-1.3-1.6-1.4-2.3zm5.2 12.8c-.6.6-.6 1.6 0 2.1.6.6 1.5.6 2.1 0 .6-.6.6-1.6 0-2.1-.6-.7-1.5-.6-2.1 0zM18 18h-1v-1h1v1zm6 1v-3h-2.3c-.1-.1-.1-.3-.2-.4l1.6-1.6-2.1-2.2-1.6 1.6c-.1-.1-.3-.1-.4-.2V11h-3v2.3c-.1.1-.3.1-.4.2L14 11.8 11.9 14l1.6 1.6c-.1.1-.1.3-.2.4H11v3h2.3c.1.1.1.3.2.4L11.9 21l2.1 2.1 1.6-1.6c.1.1.3.1.4.2V24h3v-2.3c.1-.1.3-.1.4-.2l1.6 1.6 2.1-2.1-1.6-1.6c.1-.1.1-.3.2-.4H24zm-2.6 1.7l-.7.7-1.7-1.7c-.3.2-.6.3-.9.4v2.5h-1V20h.1c-.4-.1-.9-.3-1.2-.6l.2.2-1.7 1.7-.7-.7 1.7-1.7.3.3c-.4-.5-.7-1.1-.7-1.6v.4h-2.5v-1H15v.5c0-.6.2-1.3.7-1.8l-.3.3-1.7-1.7.7-.7 1.7 1.7-.3.3c.4-.4.9-.6 1.5-.7H17v-2.5h1V15h-.2c.4 0 .8.2 1.1.4l1.7-1.7.7.7-1.7 1.7c.2.3.4.6.4 1h2.4v1H20c-.1.3-.2.6-.4.9l1.8 1.7z"/><path fill="#fff" d="M52.9.7l-2.4.8-1.9 1.9.2 3.3-.7 1.7.6 2.2 1.4 1.9.6 2.2-2.5 2.1-3.1 2.2 7.9 1 4.9-1.2-1.3 1.9 1 1.5 2.1-1.9.5.9v2h1.9l.2-2.7 2.4 1.6 1.1-1.4-1.7-2.2 2.8-.2.2-1.6-3.1-.6 1.6-2.2-1.3-1.1-2.1 1.5-.3-2.6-1.7.1-.5 2.7-2.1-1.8-.7.8-.4-2.7 1.4-1.7.1-1.3-1-.9.5-2.2-.6-1.6-1.5-.6L52.9.7" opacity=".65"/><path fill="#646464" d="M55.2 3.7c-1.5 1.1-3.5.1-4.4 2.4 1.3-1.4 3.7.3 4.1-1.3.3.9 1.1.7 1.7 1.2-.3-1.5-1.3-1.6-1.4-2.3zM48 18.6c1.4-.9 3-2 3.8-2.6 0 0 .8-1.5 0-3-.2-.4-.7-.9-.7-1.9 0-.6-.6-1.3-1.1-1.4-.3-.2-.5-.8-.4-1.2.9.1 1.2-.9 1-1.5-2.5-5.3 3.9-6.5 5.2-3.3 1.4-.6 2.3 1.8.9 3-.5 1 1 1.5 1 1.5.1.5-.4 1.6-.7 1.8-.6.1-1.1.8-1.1 1.4 0 .4 0 .7-.1 1 .9-1 2-1.7 3.3-2.1.4-.7.6-1.4.5-2-.1-.6-.6-1.2-1.1-1.4.4-.9.6-.8.6-2.3 0-1.1-.7-2.8-2.4-2.9C55.9.6 54.6 0 53 0c-2.5 0-5 1.8-5 4.7 0 1.2.2 1.3.6 2.3-.6.2-1.1.8-1.2 1.4-.1 1 .8 2.9 1.9 3.1 0 1 .4 1.7 1 2.4.1.2.1.7 0 .9-.3 0-.6 0-.8.2-.8.7-3.7 2.4-5.1 3.4-.1.1-.1.1 0 .2-.3.2-.4.5-.4.7 0 1.3 5.9 1.9 11.1 1.7-.4-.6-.7-1.2-.9-1.8-2.3 0-4.6-.2-6.2-.6zm12.4-2.1c-.6.6-.6 1.6 0 2.1.6.6 1.5.6 2.1 0 .6-.6.6-1.6 0-2.1-.6-.7-1.6-.6-2.1 0zm1.5 1.5h-1v-1h1v1zm6 1v-3h-2.3c-.1-.1-.1-.3-.2-.4L67 14l-2-2.2-1.6 1.6c-.1-.1-.3-.1-.4-.2V11h-3v2.3c-.1.1-.3.1-.4.2L58 11.9 55.8 14l1.6 1.6c-.1.1-.1.3-.2.4h-2.3v3h2.3c.1.1.1.3.2.4L55.8 21l2.1 2.1 1.6-1.6c.1.1.3.1.4.2V24h3v-2.3c.1-.1.3-.1.4-.2l1.6 1.6L67 21l-1.6-1.6c.1-.1.1-.3.2-.4h2.3zm-2.6 1.7l-.7.7-1.7-1.7c-.3.2-.6.3-.9.4v2.5h-1V20c-.4-.1-.9-.3-1.2-.6l.2.2-1.7 1.7-.7-.7 1.7-1.7.3.3c-.4-.5-.7-1.1-.7-1.6v.4h-2.5v-1h2.5v.5c0-.6.2-1.3.7-1.8l-.3.3-1.7-1.7.7-.7 1.7 1.7-.3.3c.4-.4.9-.6 1.5-.7h-.3v-2.5h1V15h-.2c.4 0 .8.2 1.1.4l1.7-1.7.7.7-1.7 1.7c.2.3.4.6.4 1h2.4v1H64c-.1.3-.2.6-.4.9l1.7 1.7z"/><path fill="#fff" d="M96.9.7l-2.4.8-1.9 1.9.2 3.3-.7 1.7.6 2.2 1.4 1.9.6 2.2-2.5 2.1-3.1 2.2 7.9 1 4.9-1.2-1.3 1.9 1 1.5 2.1-1.9.5.9v2h1.9l.2-2.7 2.4 1.6 1.1-1.4-1.7-2.2 2.8-.2.2-1.6-2.9-.6 1.6-2.2-1.3-1.1-2.1 1.5-.3-2.6-1.7.1-.5 2.7-2.1-1.8-.7.8-.4-2.7 1.4-1.7.1-1.3-1-.9.5-2.2-.6-1.6-1.5-.6L96.9.7" opacity=".65"/><path fill="#0089D9" d="M99.2 3.7c-1.5 1.1-3.5.1-4.4 2.4 1.3-1.4 3.7.3 4.1-1.3.3.8 1.1.7 1.7 1.2-.3-1.5-1.3-1.6-1.4-2.3zM92 18.6c1.4-.9 3-2 3.8-2.6 0 0 .8-1.5 0-3-.2-.4-.7-.9-.7-1.9 0-.6-.6-1.3-1.1-1.4-.3-.2-.5-.8-.4-1.2.9.1 1.2-.9 1-1.5-2.5-5.3 3.9-6.5 5.2-3.3 1.4-.6 2.3 1.8.9 3-.5 1 1 1.5 1 1.5.1.5-.4 1.6-.7 1.8-.6.1-1.1.8-1.1 1.4 0 .4 0 .7-.1 1 .9-1 2-1.7 3.3-2.1.4-.7.6-1.4.5-2-.1-.6-.6-1.2-1.1-1.4.4-.9.6-.8.6-2.3 0-1.1-.7-2.8-2.4-2.9C99.9.6 98.6 0 97.1 0c-2.5 0-5 1.8-5 4.7-.1 1.2.2 1.3.5 2.3-.6.2-1.1.8-1.2 1.4-.1 1 .8 2.9 1.9 3.1 0 1 .4 1.7 1 2.4.1.2.1.7 0 .9-.3 0-.6 0-.8.2-.8.7-3.7 2.4-5.1 3.4-.1.1-.1.1 0 .2-.2.2-.4.4-.4.6 0 1.3 5.9 1.9 11.1 1.7-.4-.6-.7-1.2-.9-1.8-2.2.1-4.5-.1-6.2-.5zm20 .4v-3h-2.3c-.1-.1-.1-.3-.2-.4l1.6-1.6-2.1-2.1-1.6 1.6c-.1-.1-.3-.1-.4-.2V11h-3v2.3c-.1.1-.3.1-.4.2l-1.6-1.6-2.2 2.1 1.6 1.6c-.1.1-.1.3-.2.4H99v3h2.3c.1.1.1.3.2.4L99.8 21l2.1 2.1 1.6-1.6c.1.1.3.1.4.2V24h3v-2.3c.1-.1.3-.1.4-.2l1.6 1.6L111 21l-1.6-1.6c.1-.1.1-.3.2-.4h2.4zm-2.6 1.7l-.7.7-1.7-1.7c-.3.2-.6.3-.9.4v2.5h-1V20h.1c-.4-.1-.9-.3-1.2-.6l.2.2-1.7 1.7-.7-.7 1.7-1.7.3.3c-.4-.5-.7-1.1-.7-1.6v.4h-2.5v-1h2.5v.5c0-.6.2-1.3.7-1.8l-.3.3-1.7-1.7.7-.7 1.7 1.7-.3.3c.4-.4.9-.6 1.5-.7h-.4v-2.5h1V15h-.2c.4 0 .8.2 1.1.4l1.7-1.7.7.7-1.7 1.7c.2.3.4.6.4 1h2.4v1H108c-.1.3-.2.6-.4.9l1.8 1.7zm-5-4.2c-.6.6-.6 1.6 0 2.1.6.6 1.5.6 2.1 0 .6-.6.6-1.6 0-2.1-.6-.7-1.5-.6-2.1 0zM106 18h-1v-1h1v1z"/></g></svg>